<?xml version="1.0" encoding="UTF-8" standalone="no"?>
<!-- Created with Inkscape (http://www.inkscape.org/) -->
<svg
   xmlns:dc="http://purl.org/dc/elements/1.1/"
   xmlns:cc="http://creativecommons.org/ns#"
   xmlns:rdf="http://www.w3.org/1999/02/22-rdf-syntax-ns#"
   xmlns:svg="http://www.w3.org/2000/svg"
   xmlns="http://www.w3.org/2000/svg"
   xmlns:xlink="http://www.w3.org/1999/xlink"
   xmlns:sodipodi="http://sodipodi.sourceforge.net/DTD/sodipodi-0.dtd"
   xmlns:inkscape="http://www.inkscape.org/namespaces/inkscape"
   width="567.00848"
   height="125.00001"
   id="svg2503"
   sodipodi:version="0.32"
   inkscape:version="0.46"
   sodipodi:docname="logo.svg"
   inkscape:output_extension="org.inkscape.output.svg.inkscape"
   version="1.0"
   inkscape:export-filename="/home/fschaef/prj/quex/trunk/doc/source/figures/logo.png"
   inkscape:export-xdpi="600"
   inkscape:export-ydpi="600">
  <sodipodi:namedview
     inkscape:document-units="mm"
     id="base"
     pagecolor="#ffffff"
     bordercolor="#666666"
     borderopacity="1.0"
     inkscape:pageopacity="0.0"
     inkscape:pageshadow="2"
     inkscape:zoom="1.6525326"
     inkscape:cx="283.50424"
     inkscape:cy="62.500005"
     inkscape:current-layer="layer1"
     showgrid="false"
     inkscape:window-width="1013"
     inkscape:window-height="716"
     inkscape:window-x="5"
     inkscape:window-y="21" />
  <defs
     id="defs3">
    <linearGradient
       inkscape:collect="always"
       id="linearGradient3226">
      <stop
         style="stop-color:#929fca;stop-opacity:1;"
         offset="0"
         id="stop3228" />
      <stop
         style="stop-color:#929fca;stop-opacity:0;"
         offset="1"
         id="stop3230" />
    </linearGradient>
    <linearGradient
       id="linearGradient4736">
      <stop
         style="stop-color:#000000;stop-opacity:1;"
         offset="0"
         id="stop4738" />
      <stop
         style="stop-color:#000055;stop-opacity:0;"
         offset="1"
         id="stop4740" />
    </linearGradient>
    <inkscape:perspective
       id="perspective2509"
       inkscape:persp3d-origin="372.04724 : 350.78739 : 1"
       inkscape:vp_z="744.09448 : 526.18109 : 1"
       inkscape:vp_y="0 : 1000 : 0"
       inkscape:vp_x="0 : 526.18109 : 1"
       sodipodi:type="inkscape:persp3d" />
    <inkscape:perspective
       sodipodi:type="inkscape:persp3d"
       inkscape:vp_x="0 : 526.18109 : 1"
       inkscape:vp_y="0 : 1000 : 0"
       inkscape:vp_z="744.09448 : 526.18109 : 1"
       inkscape:persp3d-origin="372.04724 : 350.78739 : 1"
       id="perspective2575" />
    <linearGradient
       inkscape:collect="always"
       xlink:href="#linearGradient3226"
       id="linearGradient3232"
       x1="294.30997"
       y1="78.184517"
       x2="236.55016"
       y2="-10.16472"
       gradientUnits="userSpaceOnUse" />
  </defs>
  <metadata
     id="metadata4">
    <rdf:RDF>
      <cc:Work
         rdf:about="">
        <dc:format>image/svg+xml</dc:format>
        <dc:type
           rdf:resource="http://purl.org/dc/dcmitype/StillImage" />
      </cc:Work>
    </rdf:RDF>
  </metadata>
  <g
     id="layer1"
     inkscape:groupmode="layer"
     inkscape:label="Layer 1"
     transform="translate(-37.500008,-47.005039)">
    <image
       xlink:href="calligraphy-125x125.png"
       sodipodi:absref="/home/fschaef/prj/quex/trunk/doc/source/figures/calligraphy-125x125.png"
       width="125"
       height="125"
       id="image2577"
       x="37.500008"
       y="47.005039" />
    <flowRoot
       style="font-size:144px;font-style:normal;font-variant:normal;font-weight:normal;font-stretch:normal;text-align:start;line-height:125%;writing-mode:lr-tb;text-anchor:start;fill:#000000;fill-opacity:1;stroke:none;stroke-width:1px;stroke-linecap:butt;stroke-linejoin:miter;stroke-opacity:1;font-family:Golden Girdle;-inkscape-font-specification:Golden Girdle"
       id="flowRoot2581"
       xml:space="preserve"><flowRegion
         id="flowRegion2583"><rect
           style="font-size:144px;font-style:normal;font-variant:normal;font-weight:normal;font-stretch:normal;text-align:start;line-height:125%;writing-mode:lr-tb;text-anchor:start;font-family:Golden Girdle;-inkscape-font-specification:Golden Girdle"
           y="52.362183"
           x="182.85715"
           height="82.85714"
           width="298.57144"
           id="rect2585" /></flowRegion><flowPara
         id="flowPara2597">Quex</flowPara></flowRoot>    <path
       style="font-size:64px;font-style:normal;font-variant:normal;font-weight:bold;font-stretch:normal;text-align:start;line-height:100%;writing-mode:lr-tb;text-anchor:start;fill:url(#linearGradient3232);fill-opacity:1;fill-rule:evenodd;stroke:#000000;stroke-width:2.41653543;stroke-linecap:butt;stroke-linejoin:miter;stroke-miterlimit:4;stroke-dasharray:none;stroke-opacity:1;font-family:Good Times;-inkscape-font-specification:Good Times Bold"
       d="M 252.77793,113.5123 L 238.62302,113.5123 L 236.43912,111.14631 C 232.93403,112.72364 229.10547,113.5123 224.95342,113.5123 L 209.50434,113.5123 C 201.46972,113.5123 194.81018,110.62054 189.52569,104.837 C 184.29511,99.053481 181.67983,91.751046 181.67983,82.929675 C 181.67983,74.166784 184.26814,67.098029 189.44481,61.723384 C 194.67536,56.348845 201.36186,53.661549 209.50434,53.661489 L 224.95342,53.661489 C 233.14973,53.661549 239.83623,56.348845 245.01295,61.723384 C 250.18953,67.098029 252.77785,74.166784 252.77793,82.929675 C 252.77785,91.692626 250.13561,99.024271 244.85118,104.92463 L 252.77793,113.5123 M 243.23347,83.805968 C 243.23341,78.022469 241.50786,73.290493 238.05682,69.610021 C 234.65959,65.929638 230.29179,64.089426 224.95342,64.089375 L 209.50434,64.089375 C 204.21982,64.089426 199.85202,65.929638 196.40093,69.610021 C 193.00374,73.290493 191.30515,78.022469 191.30517,83.805968 C 191.30515,89.531106 193.00374,94.175455 196.40093,97.739026 C 199.85202,101.30263 204.21982,103.08442 209.50434,103.08441 L 217.43109,103.08441 C 223.74009,103.08442 227.48776,102.9968 228.67414,102.82153 L 221.96066,95.460664 L 236.11558,95.460664 L 238.13771,97.739026 C 241.53482,94.058616 243.23341,89.414267 243.23347,83.805968 M 323.2298,86.610105 C 323.22974,96.249346 320.56052,103.28889 315.22216,107.72877 C 310.53077,111.58446 303.57464,113.5123 294.35378,113.5123 L 291.03748,113.5123 C 281.81654,113.5123 274.86043,111.58446 270.1691,107.72877 C 264.83066,103.28889 262.16146,96.249346 262.16146,86.610105 L 262.16146,53.661489 L 271.7868,53.661489 L 271.7868,86.610105 C 271.78679,93.795728 274.07853,98.556916 278.66205,100.89368 C 281.62782,102.35418 286.85839,103.08442 294.35378,103.08441 C 300.60886,103.08442 305.19235,102.06208 308.10426,100.01739 C 311.77101,97.446945 313.60441,92.977855 313.60446,86.610105 L 313.60446,53.661489 L 323.2298,53.661489 L 323.2298,86.610105 M 380.09298,88.362691 L 348.54774,88.362691 L 348.54774,77.934805 L 380.09298,77.934805 L 380.09298,88.362691 M 382.60042,113.5123 L 334.87814,113.5123 L 334.87814,53.661489 L 382.60042,53.661489 L 382.60042,64.089375 L 344.50348,64.089375 L 344.50348,103.08441 L 382.60042,103.08441 L 382.60042,113.5123 M 457.4989,113.59993 L 443.66753,113.59993 L 424.25508,91.780234 L 404.76174,113.59993 L 390.93037,113.59993 L 417.86515,83.718338 L 390.93037,53.661489 L 404.35732,53.661489 L 424.25508,75.744072 L 444.15284,53.661489 L 457.4989,53.661489 L 430.64501,83.718338 L 457.4989,113.59993"
       id="path3210" />
    <flowRoot
       transform="translate(-8.5714286,-9.9999995)"
       xml:space="preserve"
       id="flowRoot2589"
       style="font-size:144px;font-style:normal;font-variant:normal;font-weight:bold;font-stretch:normal;text-align:start;line-height:125%;writing-mode:lr-tb;text-anchor:start;fill:#000000;fill-opacity:1;stroke:none;stroke-width:1px;stroke-linecap:butt;stroke-linejoin:miter;stroke-opacity:1;font-family:Good Times;-inkscape-font-specification:Good Times Bold"><flowRegion
         id="flowRegion2591"><rect
           id="rect2593"
           width="298.57144"
           height="82.85714"
           x="182.85715"
           y="52.362183"
           style="font-size:144px;font-style:normal;font-variant:normal;font-weight:bold;font-stretch:normal;text-align:start;line-height:125%;writing-mode:lr-tb;text-anchor:start;font-family:Good Times;-inkscape-font-specification:Good Times Bold" /></flowRegion><flowPara
         id="flowPara2607">Quex</flowPara></flowRoot>    <flowRoot
       style="font-size:22px;font-style:normal;font-variant:normal;font-weight:normal;font-stretch:normal;text-align:start;line-height:125%;writing-mode:lr-tb;text-anchor:start;fill:#000000;fill-opacity:1;stroke:none;stroke-width:1px;stroke-linecap:butt;stroke-linejoin:miter;stroke-opacity:1;font-family:Good Times;-inkscape-font-specification:Good Times"
       id="flowRoot2621"
       xml:space="preserve"><flowRegion
         id="flowRegion2623"><rect
           style="font-size:22px;font-style:normal;font-variant:normal;font-weight:normal;font-stretch:normal;text-align:start;line-height:125%;writing-mode:lr-tb;text-anchor:start;font-family:Good Times;-inkscape-font-specification:Good Times"
           y="194.50504"
           x="179.28572"
           height="78.571426"
           width="413.57144"
           id="rect2625" /></flowRegion><flowPara
         id="flowPara2629" /></flowRoot>    <text
       sodipodi:linespacing="125%"
       id="text2631"
       y="139.50999"
       x="179.93585"
       style="font-size:22px;font-style:normal;font-variant:normal;font-weight:normal;font-stretch:normal;text-align:start;line-height:125%;writing-mode:lr-tb;text-anchor:start;fill:#000000;fill-opacity:1;stroke:none;stroke-width:1px;stroke-linecap:butt;stroke-linejoin:miter;stroke-opacity:1;font-family:Good Times;-inkscape-font-specification:Good Times"
       xml:space="preserve"><tspan
         y="139.50999"
         x="179.93585"
         id="tspan2633"
         sodipodi:role="line">Fast Universal </tspan><tspan
         id="tspan2635"
         y="167.00999"
         x="179.93585"
         sodipodi:role="line">Lexical Analyzer Generator</tspan></text>
  </g>
</svg>
