<?xml version="1.0" encoding="UTF-8" standalone="no"?>
<!-- Generated by Graphviz version 2.18 (Thu Oct 16 15:23:39 UTC 2008)
 -->
<!-- Title: state_machine_59 Pages: 1 -->
<svg
   xmlns:dc="http://purl.org/dc/elements/1.1/"
   xmlns:cc="http://creativecommons.org/ns#"
   xmlns:rdf="http://www.w3.org/1999/02/22-rdf-syntax-ns#"
   xmlns:svg="http://www.w3.org/2000/svg"
   xmlns="http://www.w3.org/2000/svg"
   xmlns:sodipodi="http://sodipodi.sourceforge.net/DTD/sodipodi-0.dtd"
   xmlns:inkscape="http://www.inkscape.org/namespaces/inkscape"
   width="535pt"
   height="360pt"
   viewBox="0.00 0.00 535.20 360.00"
   id="svg2584"
   sodipodi:version="0.32"
   inkscape:version="0.46"
   sodipodi:docname="path-compression-after.svg"
   inkscape:output_extension="org.inkscape.output.svg.inkscape"
   inkscape:export-filename="/home/fschaef/prj/quex/trunk/doc/source/figures/path-compression-after.png"
   inkscape:export-xdpi="300"
   inkscape:export-ydpi="300">
  <metadata
     id="metadata2791">
    <rdf:RDF>
      <cc:Work
         rdf:about="">
        <dc:format>image/svg+xml</dc:format>
        <dc:type
           rdf:resource="http://purl.org/dc/dcmitype/StillImage" />
      </cc:Work>
    </rdf:RDF>
  </metadata>
  <defs
     id="defs2789">
    <marker
       inkscape:stockid="Arrow2Lstart"
       orient="auto"
       refY="0.0"
       refX="0.0"
       id="Arrow2Lstart"
       style="overflow:visible">
      <path
         id="path3532"
         style="font-size:12.0;fill-rule:evenodd;stroke-width:0.62500000;stroke-linejoin:round"
         d="M 8.7185878,4.0337352 L -2.2072895,0.016013256 L 8.7185884,-4.0017078 C 6.9730900,-1.6296469 6.9831476,1.6157441 8.7185878,4.0337352 z "
         transform="scale(1.1) translate(1,0)" />
    </marker>
    <marker
       inkscape:stockid="Arrow2Send"
       orient="auto"
       refY="0.0"
       refX="0.0"
       id="Arrow2Send"
       style="overflow:visible;">
      <path
         id="path3547"
         style="font-size:12.0;fill-rule:evenodd;stroke-width:0.62500000;stroke-linejoin:round;"
         d="M 8.7185878,4.0337352 L -2.2072895,0.016013256 L 8.7185884,-4.0017078 C 6.9730900,-1.6296469 6.9831476,1.6157441 8.7185878,4.0337352 z "
         transform="scale(0.3) rotate(180) translate(-2.3,0)" />
    </marker>
    <marker
       inkscape:stockid="Arrow1Mend"
       orient="auto"
       refY="0.0"
       refX="0.0"
       id="Arrow1Mend"
       style="overflow:visible;">
      <path
         id="path3523"
         d="M 0.0,0.0 L 5.0,-5.0 L -12.5,0.0 L 5.0,5.0 L 0.0,0.0 z "
         style="fill-rule:evenodd;stroke:#000000;stroke-width:1.0pt;marker-start:none;"
         transform="scale(0.4) rotate(180) translate(10,0)" />
    </marker>
    <marker
       inkscape:stockid="Arrow2Lend"
       orient="auto"
       refY="0.0"
       refX="0.0"
       id="Arrow2Lend"
       style="overflow:visible;">
      <path
         id="path3707"
         style="font-size:12.0;fill-rule:evenodd;stroke-width:0.62500000;stroke-linejoin:round;"
         d="M 8.7185878,4.0337352 L -2.2072895,0.016013256 L 8.7185884,-4.0017078 C 6.9730900,-1.6296469 6.9831476,1.6157441 8.7185878,4.0337352 z "
         transform="scale(1.1) rotate(180) translate(1,0)" />
    </marker>
    <marker
       inkscape:stockid="Arrow1Lend"
       orient="auto"
       refY="0.0"
       refX="0.0"
       id="Arrow1Lend"
       style="overflow:visible;">
      <path
         id="path3689"
         d="M 0.0,0.0 L 5.0,-5.0 L -12.5,0.0 L 5.0,5.0 L 0.0,0.0 z "
         style="fill-rule:evenodd;stroke:#000000;stroke-width:1.0pt;marker-start:none;"
         transform="scale(0.8) rotate(180) translate(12.5,0)" />
    </marker>
    <inkscape:perspective
       sodipodi:type="inkscape:persp3d"
       inkscape:vp_x="0 : 225 : 1"
       inkscape:vp_y="0 : 1000 : 0"
       inkscape:vp_z="668.75 : 225 : 1"
       inkscape:persp3d-origin="334.375 : 150 : 1"
       id="perspective2793" />
    <title
       id="title2587">state_machine_59</title>
    <title
       id="title2771">8-&gt;9</title>
    <title
       id="title2655">9-&gt;9</title>
    <title
       id="title2762">1-&gt;2</title>
    <title
       id="title2746">4-&gt;5</title>
    <title
       id="title2737">0-&gt;8</title>
    <title
       id="title2721">0-&gt;1</title>
    <title
       id="title2705">0-&gt;4</title>
    <title
       id="title2689">0-&gt;7</title>
    <title
       id="title2680">0-&gt;6</title>
    <title
       id="title2671">0-&gt;3</title>
    <title
       id="title2610">5-&gt;5</title>
    <title
       id="title2780">2-&gt;3</title>
    <title
       id="title2637">7-&gt;7</title>
    <title
       id="title2664">0</title>
    <title
       id="title2592">3</title>
    <title
       id="title2601">5</title>
    <title
       id="title2619">6</title>
    <title
       id="title2628">7</title>
    <title
       id="title2646">9</title>
    <title
       id="title2730">8</title>
    <title
       id="title2698">4</title>
    <title
       id="title2755">2</title>
    <title
       id="title2714">1</title>
  </defs>
  <sodipodi:namedview
     inkscape:window-height="724"
     inkscape:window-width="1024"
     inkscape:pageshadow="2"
     inkscape:pageopacity="0.0"
     guidetolerance="10.0"
     gridtolerance="10.0"
     objecttolerance="10.0"
     borderopacity="1"
     bordercolor="#ed1b1b"
     pagecolor="#ffffff"
     id="base"
     showgrid="true"
     inkscape:zoom="0.84336449"
     inkscape:cx="336.19864"
     inkscape:cy="153.73583"
     inkscape:window-x="0"
     inkscape:window-y="19"
     inkscape:current-layer="svg2584"
     inkscape:showpageshadow="false">
    <inkscape:grid
       type="xygrid"
       id="grid5044"
       visible="true"
       enabled="true"
       units="mm"
       spacingx="1mm"
       spacingy="1mm" />
  </sodipodi:namedview>
  <path
     style="fill:none;fill-rule:evenodd;stroke:#000000;stroke-width:1px;stroke-linecap:butt;stroke-linejoin:miter;marker-end:url(#Arrow2Lend);stroke-opacity:1"
     d="M 272.23294,73.29549 L 317.60422,73.29549"
     id="path7580"
     sodipodi:nodetypes="cc" />
  <path
     transform="translate(161.64043,-29.17631)"
     style="fill:#ffffff;fill-opacity:1;fill-rule:evenodd;stroke:#000000;stroke-width:1;stroke-linejoin:round;stroke-miterlimit:4;stroke-dashoffset:0;stroke-opacity:1"
     d="M 184.32085,102.0181 C 184.32085,109.84464 177.96887,116.19662 170.14232,116.19662 C 162.31577,116.19662 155.96379,109.84464 155.96379,102.0181 C 155.96379,94.19155 162.31577,87.83957 170.14232,87.83957 C 177.96887,87.83957 184.32085,94.19155 184.32085,102.0181 z"
     id="path2547" />
  <path
     transform="matrix(0.8146368,0,0,0.8146368,193.17855,-10.26591)"
     style="fill:#ffffff;fill-opacity:1;fill-rule:evenodd;stroke:#000000;stroke-width:1;stroke-linejoin:round;stroke-miterlimit:4;stroke-dashoffset:0;stroke-opacity:1"
     d="M 184.32085,102.0181 C 184.32085,109.84464 177.96887,116.19662 170.14232,116.19662 C 162.31577,116.19662 155.96379,109.84464 155.96379,102.0181 C 155.96379,94.19155 162.31577,87.83957 170.14232,87.83957 C 177.96887,87.83957 184.32085,94.19155 184.32085,102.0181 z"
     id="path2549" />
  <path
     transform="translate(33.755007,-162.18363)"
     style="font-size:12px;font-style:normal;font-variant:normal;font-weight:normal;font-stretch:normal;fill:#000000;fill-opacity:1;stroke:none;stroke-width:1px;stroke-linecap:butt;stroke-linejoin:miter;stroke-opacity:1;font-family:Sans;-inkscape-font-specification:Adobe Helvetica"
     d="M 85.115234,186.44759 C 85.615232,185.85385 86.236325,185.55697 86.978516,185.55696 C 87.689449,185.55697 88.283198,185.84213 88.759766,186.41243 C 89.236322,186.97884 89.474603,187.72103 89.474609,188.639 C 89.474603,189.65853 89.234369,190.46907 88.753906,191.07064 C 88.277339,191.66829 87.673824,191.96712 86.943359,191.96712 C 86.197263,191.96712 85.587888,191.67806 85.115234,191.09993 L 85.115234,194.19954 L 84.095703,194.19954 L 84.095703,185.59212 L 85.115234,185.59212 L 85.115234,186.44759 M 85.115234,187.4261 L 85.115234,190.03353 C 85.271482,190.31868 85.496092,190.56282 85.789062,190.76595 C 86.085935,190.96517 86.390622,191.06478 86.703125,191.06478 C 87.238277,191.06478 87.658199,190.8597 87.962891,190.44954 C 88.267573,190.03939 88.419917,189.46517 88.419922,188.72689 C 88.419917,188.00033 88.269526,187.43978 87.96875,187.04525 C 87.667964,186.64681 87.24609,186.44759 86.703125,186.44759 C 86.429684,186.44759 86.148435,186.53939 85.859375,186.72298 C 85.574216,186.90267 85.32617,187.13705 85.115234,187.4261 M 99.634766,188.26985 L 97.25,188.26985 L 97.25,190.65462 L 96.335938,190.65462 L 96.335938,188.26985 L 93.951172,188.26985 L 93.951172,187.35579 L 96.335938,187.35579 L 96.335938,184.97103 L 97.25,184.97103 L 97.25,187.35579 L 99.634766,187.35579 L 99.634766,188.26985 M 106.64258,186.99837 L 100.95898,186.99837 L 100.95898,186.08431 L 106.64258,186.08431 L 106.64258,186.99837 M 106.64258,189.54134 L 100.95898,189.54134 L 100.95898,188.62728 L 106.64258,188.62728 L 106.64258,189.54134 M 114.96289,191.80892 L 113.9082,191.80892 L 113.9082,184.93001 C 113.41601,185.4183 112.71289,185.66244 111.79883,185.66243 L 111.79883,184.67806 C 112.91211,184.67806 113.71093,184.27572 114.19531,183.47103 L 114.96289,183.47103 L 114.96289,191.80892"
     id="flowRoot5387" />
  <path
     style="fill:none;fill-opacity:1;fill-rule:evenodd;stroke:#000000;stroke-width:1.24953294;stroke-linejoin:round;stroke-miterlimit:4;stroke-dashoffset:0;stroke-opacity:1"
     d="M 112.01651,18.144535 L 154.5521,18.144535 L 154.5521,35.15876 L 112.01651,35.15876 L 112.01651,18.144535 z"
     id="rect5944" />
  <path
     sodipodi:nodetypes="cc"
     id="path9206"
     d="M 133.28338,73.29549 L 204.17601,73.29549"
     style="fill:none;fill-rule:evenodd;stroke:#000000;stroke-width:1px;stroke-linecap:butt;stroke-linejoin:miter;marker-end:url(#Arrow2Lend);stroke-opacity:1" />
  <path
     sodipodi:nodetypes="cc"
     id="path8126"
     d="M 133.28338,73.29549 C 183.00137,59.11697 183.41045,30.75991 155.01022,25.56297"
     style="fill:none;fill-rule:evenodd;stroke:#000000;stroke-width:1.00037384;stroke-linecap:butt;stroke-linejoin:miter;marker-end:url(#Arrow2Lend);stroke-miterlimit:4;stroke-dasharray:none;stroke-opacity:1" />
  <path
     style="fill:none;fill-rule:evenodd;stroke:#000000;stroke-width:1.00037384;stroke-linecap:butt;stroke-linejoin:miter;marker-start:url(#Arrow2Lstart);marker-end:none;stroke-miterlimit:4;stroke-dasharray:none;stroke-opacity:1"
     d="M 121.94055,67.62408 C 87.470931,58.66471 76.569268,30.75991 111.55653,25.56297"
     id="path5955"
     sodipodi:nodetypes="cc" />
  <path
     transform="translate(-36.783753,-27.57796)"
     style="fill:#ffffff;fill-opacity:1;fill-rule:evenodd;stroke:#000000;stroke-width:1;stroke-linejoin:round;stroke-miterlimit:4;stroke-dashoffset:0;stroke-opacity:1"
     d="M 184.32085,102.0181 C 184.32085,109.84464 177.96887,116.19662 170.14232,116.19662 C 162.31577,116.19662 155.96379,109.84464 155.96379,102.0181 C 155.96379,94.19155 162.31577,87.83957 170.14232,87.83957 C 177.96887,87.83957 184.32085,94.19155 184.32085,102.0181 z"
     id="path2597" />
  <path
     transform="translate(-39.761551,-31.26624)"
     style="font-size:12px;font-style:normal;font-variant:normal;font-weight:normal;font-stretch:normal;fill:#000000;fill-opacity:1;stroke:none;stroke-width:1px;stroke-linecap:butt;stroke-linejoin:miter;stroke-opacity:1;font-family:Sans;-inkscape-font-specification:Adobe Helvetica"
     d="M 164.02344,101.57259 L 167.50391,101.57259 C 168.36718,101.5726 169.06249,101.80111 169.58984,102.25814 C 170.11718,102.71127 170.38085,103.29135 170.38086,103.99837 C 170.38085,104.71322 170.12304,105.31869 169.60742,105.81478 C 169.0957,106.30697 168.39062,106.55306 167.49219,106.55306 L 165.10156,106.55306 L 165.10156,109.84017 L 164.02344,109.84017 L 164.02344,101.57259 M 165.10156,105.639 L 167.38086,105.639 C 167.98632,105.639 168.45312,105.49642 168.78125,105.21126 C 169.11328,104.9222 169.27929,104.52181 169.2793,104.01009 C 169.27929,103.55697 169.11132,103.18978 168.77539,102.90853 C 168.43945,102.62728 167.9746,102.48666 167.38086,102.48665 L 165.10156,102.48665 L 165.10156,105.639 M 182.2168,101.57259 L 179.86133,109.84017 L 178.83008,109.84017 L 176.74414,102.93782 L 174.53516,109.84017 L 173.50391,109.84017 L 171.25977,101.57259 L 172.4082,101.57259 L 174.08984,108.2054 L 176.19922,101.57259 L 177.27148,101.57259 L 179.36914,108.2054 L 181.13281,101.57259 L 182.2168,101.57259"
     id="flowRoot2607" />
  <path
     transform="translate(165.58255,-32.86459)"
     style="font-size:12px;font-style:normal;font-variant:normal;font-weight:normal;font-stretch:normal;text-align:start;line-height:125%;writing-mode:lr-tb;text-anchor:start;fill:#000000;fill-opacity:1;stroke:none;stroke-width:1px;stroke-linecap:butt;stroke-linejoin:miter;stroke-opacity:1;font-family:Sans;-inkscape-font-specification:Sans"
     d="M 167.42773,105.29329 C 167.91601,105.44564 168.30273,105.70931 168.58789,106.08431 C 168.87304,106.45931 169.01562,106.89876 169.01562,107.40267 C 169.01562,108.11751 168.73437,108.72884 168.17188,109.23665 C 167.61328,109.74446 166.91015,109.99837 166.0625,109.99837 C 165.08594,109.99837 164.19336,109.74642 163.38477,109.24251 L 163.68359,108.39876 C 164.41797,108.86361 165.18359,109.09603 165.98047,109.09603 C 166.52734,109.09603 166.98242,108.93782 167.3457,108.62142 C 167.71289,108.30111 167.89648,107.89876 167.89648,107.41439 C 167.89648,106.88705 167.71289,106.48665 167.3457,106.21321 C 166.98242,105.93587 166.45117,105.7972 165.75195,105.7972 L 165.48828,105.7972 L 165.48828,104.90657 C 166.93359,104.90658 167.65625,104.48275 167.65625,103.63509 C 167.65625,103.22494 167.50585,102.90267 167.20508,102.66829 C 166.90429,102.43392 166.49609,102.31674 165.98047,102.31673 C 165.3164,102.31674 164.64844,102.51596 163.97656,102.91439 L 163.67188,102.0765 C 164.4414,101.6351 165.23047,101.41439 166.03906,101.41439 C 166.875,101.41439 167.5332,101.61557 168.01367,102.0179 C 168.49804,102.42025 168.74023,102.95931 168.74023,103.63509 C 168.74023,104.38509 168.30273,104.93002 167.42773,105.26985 L 167.42773,105.29329"
     id="flowRoot2551" />
  <path
     transform="translate(161.64043,42.170031)"
     style="fill:#ffffff;fill-opacity:1;fill-rule:evenodd;stroke:#000000;stroke-width:1;stroke-linejoin:round;stroke-miterlimit:4;stroke-dashoffset:0;stroke-opacity:1"
     d="M 184.32085,102.0181 C 184.32085,109.84464 177.96887,116.19662 170.14232,116.19662 C 162.31577,116.19662 155.96379,109.84464 155.96379,102.0181 C 155.96379,94.19155 162.31577,87.83957 170.14232,87.83957 C 177.96887,87.83957 184.32085,94.19155 184.32085,102.0181 z"
     id="path8196" />
  <path
     transform="matrix(0.8146368,0,0,0.8146368,193.17855,61.080432)"
     style="fill:#ffffff;fill-opacity:1;fill-rule:evenodd;stroke:#000000;stroke-width:1;stroke-linejoin:round;stroke-miterlimit:4;stroke-dashoffset:0;stroke-opacity:1"
     d="M 184.32085,102.0181 C 184.32085,109.84464 177.96887,116.19662 170.14232,116.19662 C 162.31577,116.19662 155.96379,109.84464 155.96379,102.0181 C 155.96379,94.19155 162.31577,87.83957 170.14232,87.83957 C 177.96887,87.83957 184.32085,94.19155 184.32085,102.0181 z"
     id="path2545" />
  <path
     transform="translate(165.58255,38.48175)"
     style="font-size:12px;font-style:normal;font-variant:normal;font-weight:normal;font-stretch:normal;text-align:start;line-height:125%;writing-mode:lr-tb;text-anchor:start;fill:#000000;fill-opacity:1;stroke:none;stroke-width:1px;stroke-linecap:butt;stroke-linejoin:miter;stroke-opacity:1;font-family:Sans;-inkscape-font-specification:Sans"
     d="M 169.36133,108.0179 L 168.125,108.0179 L 168.125,109.84017 L 167.07031,109.84017 L 167.07031,108.0179 L 163.39648,108.0179 L 163.39648,107.04525 L 167.26367,101.514 L 168.125,101.514 L 168.125,107.04525 L 169.36133,107.04525 L 169.36133,108.0179 M 167.07031,107.04525 L 167.07031,103.23079 L 164.42773,107.04525 L 167.07031,107.04525"
     id="flowRoot8198" />
  <path
     transform="translate(-133.30789,1.2002403)"
     style="font-size:12px;font-style:normal;font-variant:normal;font-weight:normal;font-stretch:normal;fill:#000000;fill-opacity:1;stroke:none;stroke-width:1px;stroke-linecap:butt;stroke-linejoin:miter;stroke-opacity:1;font-family:Sans;-inkscape-font-specification:Adobe Helvetica"
     d="M 456.5957,52.074542 L 450.91211,49.648761 L 450.91211,48.664386 L 456.5957,46.262042 L 456.5957,47.258136 L 451.99023,49.156573 L 456.5957,51.078448 L 456.5957,52.074542 M 464.32422,45.799152 L 461.44727,45.799152 L 461.44727,53.152667 L 460.36328,53.152667 L 460.36328,45.799152 L 457.50977,45.799152 L 457.50977,44.885089 L 464.32422,44.885089 L 464.32422,45.799152 M 471.66016,53.152667 L 470.50586,53.152667 L 469.36914,50.334308 L 466.0293,50.334308 L 464.9043,53.152667 L 463.76172,53.152667 L 467.19531,44.885089 L 468.22656,44.885089 L 471.66016,53.152667 M 469.04102,49.420245 L 467.71094,46.168292 L 466.38086,49.420245 L 469.04102,49.420245 M 478.0293,53.152667 L 472.67969,53.152667 L 472.67969,44.885089 L 473.75781,44.885089 L 473.75781,52.238605 L 478.0293,52.238605 L 478.0293,53.152667 M 486.33203,53.152667 L 484.98438,53.152667 L 481.49219,48.986652 L 480.4375,49.947589 L 480.4375,53.152667 L 479.35938,53.152667 L 479.35938,44.885089 L 480.4375,44.885089 L 480.4375,48.822589 L 484.60352,44.885089 L 485.91016,44.885089 L 482.23633,48.318683 L 486.33203,53.152667 M 492.75977,49.648761 L 487.07617,52.074542 L 487.07617,51.078448 L 491.68164,49.156573 L 487.07617,47.258136 L 487.07617,46.262042 L 492.75977,48.664386 L 492.75977,49.648761"
     id="flowRoot2643" />
  <path
     transform="translate(-137.33914,26.46787)"
     style="font-size:12px;font-style:normal;font-variant:normal;font-weight:normal;font-stretch:normal;fill:#000000;fill-opacity:1;stroke:none;stroke-width:1px;stroke-linecap:butt;stroke-linejoin:miter;stroke-opacity:1;font-family:Sans;-inkscape-font-specification:Adobe Helvetica"
     d="M 460.62695,97.699542 L 454.94336,95.273761 L 454.94336,94.289386 L 460.62695,91.887042 L 460.62695,92.883136 L 456.02148,94.781573 L 460.62695,96.703448 L 460.62695,97.699542 M 463.49805,98.777667 L 462.41992,98.777667 L 462.41992,90.510089 L 463.49805,90.510089 L 463.49805,98.777667 M 465.57812,90.510089 L 468.49609,90.510089 C 469.79296,90.510097 470.81445,90.871425 471.56055,91.594073 C 472.30663,92.316736 472.67968,93.330407 472.67969,94.635089 C 472.67968,95.873373 472.30468,96.873372 471.55469,97.635089 C 470.80859,98.396808 469.80078,98.777667 468.53125,98.777667 L 465.57812,98.777667 L 465.57812,90.510089 M 466.65625,97.863605 L 468.50781,97.863605 C 469.48046,97.863606 470.22851,97.586262 470.75195,97.031573 C 471.27929,96.472982 471.54296,95.678061 471.54297,94.646808 C 471.54296,93.611657 471.27734,92.816736 470.74609,92.262042 C 470.21874,91.703456 469.47265,91.424159 468.50781,91.424152 L 466.65625,91.424152 L 466.65625,97.863605 M 480.56055,98.777667 L 474.25,98.777667 L 474.25,90.510089 L 480.44336,90.510089 L 480.44336,91.424152 L 475.32812,91.424152 L 475.32812,94.013995 L 479.95117,94.013995 L 479.95117,94.928058 L 475.32812,94.928058 L 475.32812,97.863605 L 480.56055,97.863605 L 480.56055,98.777667 M 489.00977,98.777667 L 487.78516,98.777667 L 483.27344,91.986652 L 483.27344,98.777667 L 482.26562,98.777667 L 482.26562,90.510089 L 483.49023,90.510089 L 488.01367,97.312823 L 488.01367,90.510089 L 489.00977,90.510089 L 489.00977,98.777667 M 497.04297,91.424152 L 494.16602,91.424152 L 494.16602,98.777667 L 493.08203,98.777667 L 493.08203,91.424152 L 490.22852,91.424152 L 490.22852,90.510089 L 497.04297,90.510089 L 497.04297,91.424152 M 499.52148,98.777667 L 498.44336,98.777667 L 498.44336,90.510089 L 499.52148,90.510089 L 499.52148,98.777667 M 507.32617,91.424152 L 502.67969,91.424152 L 502.67969,94.324542 L 507.19141,94.324542 L 507.19141,95.238605 L 502.67969,95.238605 L 502.67969,98.777667 L 501.60156,98.777667 L 501.60156,90.510089 L 507.32617,90.510089 L 507.32617,91.424152 M 510.18555,98.777667 L 509.10742,98.777667 L 509.10742,90.510089 L 510.18555,90.510089 L 510.18555,98.777667 M 518.57617,98.777667 L 512.26562,98.777667 L 512.26562,90.510089 L 518.45898,90.510089 L 518.45898,91.424152 L 513.34375,91.424152 L 513.34375,94.013995 L 517.9668,94.013995 L 517.9668,94.928058 L 513.34375,94.928058 L 513.34375,97.863605 L 518.57617,97.863605 L 518.57617,98.777667 M 527.76953,98.777667 L 526.42188,98.777667 L 523.58008,95.408527 L 521.35938,95.408527 L 521.35938,98.777667 L 520.28125,98.777667 L 520.28125,90.510089 L 523.61523,90.510089 C 524.5996,90.510097 525.36718,90.721035 525.91797,91.142902 C 526.47265,91.560878 526.74999,92.158533 526.75,92.93587 C 526.74999,93.517907 526.57031,94.012047 526.21094,94.418292 C 525.85156,94.82064 525.37499,95.097983 524.78125,95.250323 L 527.76953,98.777667 M 521.35938,94.494464 L 523.55664,94.494464 C 524.21679,94.494468 524.72656,94.361656 525.08594,94.096027 C 525.44921,93.8265 525.63085,93.443688 525.63086,92.947589 C 525.63085,91.931971 524.9121,91.424159 523.47461,91.424152 L 521.35938,91.424152 L 521.35938,94.494464 M 534.33789,95.273761 L 528.6543,97.699542 L 528.6543,96.703448 L 533.25977,94.781573 L 528.6543,92.883136 L 528.6543,91.887042 L 534.33789,94.289386 L 534.33789,95.273761"
     id="flowRoot2651" />
  <path
     transform="translate(93.532687,-152.69127)"
     style="font-size:12px;font-style:normal;font-variant:normal;font-weight:normal;font-stretch:normal;fill:#000000;fill-opacity:1;stroke:none;stroke-width:1px;stroke-linecap:butt;stroke-linejoin:miter;stroke-opacity:1;font-family:Sans;-inkscape-font-specification:Adobe Helvetica"
     d="M 87.734375,186.72298 L 87.324219,187.36751 L 85.994141,186.49446 L 85.994141,188.0765 L 85.238281,188.0765 L 85.238281,186.50618 L 83.890625,187.37923 L 83.498047,186.72298 L 84.927734,185.80892 L 83.498047,184.88314 L 83.890625,184.2386 L 85.238281,185.11165 L 85.238281,183.54134 L 85.994141,183.54134 L 85.994141,185.11165 L 87.324219,184.2386 L 87.734375,184.88314 L 86.316406,185.80892 L 87.734375,186.72298 M 89.779297,186.44759 C 90.279295,185.85385 90.900388,185.55697 91.642578,185.55696 C 92.353511,185.55697 92.947261,185.84213 93.423828,186.41243 C 93.900385,186.97884 94.138666,187.72103 94.138672,188.639 C 94.138666,189.65853 93.898432,190.46907 93.417969,191.07064 C 92.941401,191.66829 92.337886,191.96712 91.607422,191.96712 C 90.861325,191.96712 90.251951,191.67806 89.779297,191.09993 L 89.779297,194.19954 L 88.759766,194.19954 L 88.759766,185.59212 L 89.779297,185.59212 L 89.779297,186.44759 M 89.779297,187.4261 L 89.779297,190.03353 C 89.935545,190.31868 90.160154,190.56282 90.453125,190.76595 C 90.749997,190.96517 91.054684,191.06478 91.367188,191.06478 C 91.90234,191.06478 92.322261,190.8597 92.626953,190.44954 C 92.931636,190.03939 93.083979,189.46517 93.083984,188.72689 C 93.083979,188.00033 92.933589,187.43978 92.632812,187.04525 C 92.332027,186.64681 91.910152,186.44759 91.367188,186.44759 C 91.093747,186.44759 90.812497,186.53939 90.523438,186.72298 C 90.238279,186.90267 89.990232,187.13705 89.779297,187.4261"
     id="flowRoot3483" />
  <path
     transform="translate(-138.71911,-140.65915)"
     style="font-size:12px;font-style:normal;font-variant:normal;font-weight:normal;font-stretch:normal;fill:#000000;fill-opacity:1;stroke:none;stroke-width:1px;stroke-linecap:butt;stroke-linejoin:miter;stroke-opacity:1;font-family:Sans;-inkscape-font-specification:Adobe Helvetica"
     d="M 360.76562,212.59798 L 360.35547,213.24251 L 359.02539,212.36946 L 359.02539,213.9515 L 358.26953,213.9515 L 358.26953,212.38118 L 356.92188,213.25423 L 356.5293,212.59798 L 357.95898,211.68392 L 356.5293,210.75814 L 356.92188,210.1136 L 358.26953,210.98665 L 358.26953,209.41634 L 359.02539,209.41634 L 359.02539,210.98665 L 360.35547,210.1136 L 360.76562,210.75814 L 359.34766,211.68392 L 360.76562,212.59798 M 362.81055,212.32259 C 363.31054,211.72885 363.93164,211.43197 364.67383,211.43196 C 365.38476,211.43197 365.97851,211.71713 366.45508,212.28743 C 366.93163,212.85384 367.16992,213.59603 367.16992,214.514 C 367.16992,215.53353 366.92968,216.34407 366.44922,216.94564 C 365.97265,217.54329 365.36914,217.84212 364.63867,217.84212 C 363.89258,217.84212 363.2832,217.55306 362.81055,216.97493 L 362.81055,220.07454 L 361.79102,220.07454 L 361.79102,211.46712 L 362.81055,211.46712 L 362.81055,212.32259 M 362.81055,213.3011 L 362.81055,215.90853 C 362.96679,216.19368 363.1914,216.43782 363.48438,216.64095 C 363.78125,216.84017 364.08593,216.93978 364.39844,216.93978 C 364.93359,216.93978 365.35351,216.7347 365.6582,216.32454 C 365.96289,215.91439 366.11523,215.34017 366.11523,214.60189 C 366.11523,213.87533 365.96484,213.31478 365.66406,212.92025 C 365.36328,212.52181 364.9414,212.32259 364.39844,212.32259 C 364.125,212.32259 363.84375,212.41439 363.55469,212.59798 C 363.26953,212.77767 363.02148,213.01205 362.81055,213.3011 M 377.33008,212.87337 L 371.64648,212.87337 L 371.64648,211.95931 L 377.33008,211.95931 L 377.33008,212.87337 M 377.33008,215.41634 L 371.64648,215.41634 L 371.64648,214.50228 L 377.33008,214.50228 L 377.33008,215.41634 M 387.42578,213.49446 C 387.42578,214.97884 387.19335,216.0765 386.72852,216.78743 C 386.26757,217.49446 385.57617,217.84603 384.6543,217.84212 C 383.72461,217.84212 383.0293,217.48665 382.56836,216.77571 C 382.11133,216.06087 381.88281,214.96712 381.88281,213.49446 C 381.88281,212.08431 382.11328,211.02572 382.57422,210.31868 C 383.03515,209.61166 383.72851,209.25814 384.6543,209.25814 C 385.57617,209.25814 386.26757,209.61166 386.72852,210.31868 C 387.19335,211.02572 387.42578,212.08431 387.42578,213.49446 M 384.6543,216.93978 C 385.21289,216.93978 385.63476,216.68392 385.91992,216.1722 C 386.20507,215.66048 386.34765,214.78353 386.34766,213.54134 C 386.34765,212.36947 386.21289,211.514 385.94336,210.97493 C 385.67773,210.43197 385.24414,210.16049 384.64258,210.16048 C 384.08398,210.16049 383.66406,210.44369 383.38281,211.01009 C 383.10547,211.5726 382.9668,212.41634 382.9668,213.54134 C 382.9668,214.67415 383.10742,215.52376 383.38867,216.09017 C 383.66992,216.65657 384.09179,216.93978 384.6543,216.93978 M 391.9375,209.92025 C 392.75781,209.47885 393.55078,209.25814 394.31641,209.25814 C 395.17578,209.25814 395.8789,209.47494 396.42578,209.90853 C 396.97265,210.34213 397.24609,210.89877 397.24609,211.57845 C 397.24609,211.89095 397.17773,212.2015 397.04102,212.51009 C 396.90429,212.81478 396.56835,213.19173 396.0332,213.64095 C 395.64648,213.96517 395.35546,214.26205 395.16016,214.53157 C 394.96484,214.80111 394.86328,215.14876 394.85547,215.57454 L 393.94141,215.57454 C 393.95312,215.14095 394.01953,214.77376 394.14062,214.47298 C 394.26562,214.1683 394.41406,213.9222 394.58594,213.7347 C 394.75781,213.5472 394.98047,213.34017 395.25391,213.1136 C 395.66406,212.76986 395.91796,212.49447 396.01562,212.28743 C 396.11328,212.0765 396.1621,211.86361 396.16211,211.64876 C 396.1621,211.19955 395.99218,210.83431 395.65234,210.55306 C 395.3164,210.26791 394.87109,210.12533 394.31641,210.12532 C 393.70703,210.12533 393.02734,210.32455 392.27734,210.72298 L 391.9375,209.92025 M 394.44531,216.389 C 394.64453,216.389 394.8125,216.4554 394.94922,216.58821 C 395.08593,216.72103 395.15429,216.88704 395.1543,217.08626 C 395.15429,217.28157 395.08593,217.44564 394.94922,217.57845 C 394.8125,217.71126 394.64453,217.77767 394.44531,217.77767 C 394.25,217.77767 394.08593,217.71126 393.95312,217.57845 C 393.82031,217.44564 393.7539,217.28157 393.75391,217.08626 C 393.7539,216.88704 393.82031,216.72103 393.95312,216.58821 C 394.08593,216.4554 394.25,216.389 394.44531,216.389"
     id="flowRoot5936" />
  <path
     style="fill:none;fill-rule:evenodd;stroke:#000000;stroke-width:1px;stroke-linecap:butt;stroke-linejoin:miter;stroke-opacity:1"
     d="M 204.31222,73.29549 L 238.20448,90.30972 L 272.16116,73.29549 L 238.20448,56.28126 L 204.17601,73.29549"
     id="path7578"
     sodipodi:nodetypes="ccccc" />
  <path
     style="fill:none;fill-rule:evenodd;stroke:#000000;stroke-width:1px;stroke-linecap:butt;stroke-linejoin:miter;marker-end:url(#Arrow2Lend);stroke-opacity:1"
     d="M 238.20448,90.30972 C 238.20448,144.18813 275.06864,144.18813 317.60422,144.18813"
     id="path9210"
     sodipodi:nodetypes="cz" />
  <path
     transform="translate(35.053654,-233.49744)"
     style="font-size:12px;font-style:normal;font-variant:normal;font-weight:normal;font-stretch:normal;fill:#000000;fill-opacity:1;stroke:none;stroke-width:1px;stroke-linecap:butt;stroke-linejoin:miter;stroke-opacity:1;font-family:Sans;-inkscape-font-specification:Adobe Helvetica"
     d="M 212.39648,349.60579 L 210.06445,349.60579 L 210.06445,338.50228 L 212.39648,338.50228 L 212.39648,339.34603 L 211.08398,339.34603 L 211.08398,348.76204 L 212.39648,348.76204 L 212.39648,349.60579 M 218.69531,347.21517 L 217.59375,347.21517 C 217.53125,347.11751 217.47656,346.97884 217.42969,346.79915 C 217.38671,346.61946 217.36523,346.47103 217.36523,346.35384 C 216.64257,347.03353 215.84765,347.37337 214.98047,347.37337 C 214.40625,347.37337 213.93945,347.22493 213.58008,346.92806 C 213.22461,346.62728 213.04687,346.21126 213.04688,345.68001 C 213.04687,345.25814 213.15234,344.90267 213.36328,344.6136 C 213.57812,344.32064 213.89844,344.09212 214.32422,343.92806 C 214.7539,343.764 215.29883,343.66048 215.95898,343.61751 L 217.3418,343.52962 L 217.3418,343.33626 C 217.34179,342.76595 217.22851,342.36947 217.00195,342.14681 C 216.77539,341.92416 216.37695,341.81283 215.80664,341.81282 C 215.5332,341.81283 215.19336,341.87338 214.78711,341.99446 C 214.38476,342.11166 214.04492,342.24838 213.76758,342.40462 L 213.46875,341.62532 C 213.79687,341.43002 214.19726,341.27181 214.66992,341.15071 C 215.14648,341.02572 215.58203,340.96322 215.97656,340.96321 C 216.78906,340.96322 217.38867,341.14681 217.77539,341.514 C 218.16601,341.88119 218.36132,342.44173 218.36133,343.19564 L 218.36133,345.76204 C 218.36132,346.39876 218.47265,346.88314 218.69531,347.21517 M 217.3418,345.46321 L 217.3418,344.2972 C 216.46679,344.34798 215.89257,344.389 215.61914,344.42025 C 215.34961,344.44759 215.08593,344.51009 214.82812,344.60775 C 214.57031,344.7054 214.375,344.83822 214.24219,345.00618 C 214.10937,345.17415 214.04297,345.38314 214.04297,345.63314 C 214.04297,345.89095 214.14258,346.09993 214.3418,346.26009 C 214.54101,346.41634 214.79687,346.49446 215.10938,346.49446 C 215.50781,346.49446 215.91601,346.40071 216.33398,346.21321 C 216.75195,346.02181 217.08789,345.77181 217.3418,345.46321 M 222.86719,344.63704 L 219.64453,344.63704 L 219.64453,343.64095 L 222.86719,343.64095 L 222.86719,344.63704 M 229.03711,347.21517 L 223.63477,347.21517 L 223.63477,346.5179 L 227.37891,342.00618 L 223.72266,342.00618 L 223.72266,341.1097 L 228.73828,341.1097 L 228.73828,341.75423 L 224.99414,346.31282 L 229.03711,346.31282 L 229.03711,347.21517 M 231.78516,349.60579 L 229.45898,349.60579 L 229.45898,348.76204 L 230.76562,348.76204 L 230.76562,339.46321 L 229.45898,339.46321 L 229.45898,338.62532 L 231.78516,338.62532 L 231.78516,349.60579"
     id="flowRoot9212" />
  <path
     style="fill:#ffffff;fill-opacity:1;fill-rule:evenodd;stroke:#000000;stroke-width:1.25;stroke-linejoin:round;stroke-miterlimit:4;stroke-dashoffset:0;stroke-opacity:1"
     d="M 84.118546,141.21379 L 98.297072,141.21379 L 98.297072,155.39232 L 84.118546,155.39232 L 84.118546,141.21379 z"
     id="rect2689" />
  <path
     style="fill:#ffffff;fill-opacity:1;fill-rule:evenodd;stroke:#000000;stroke-width:1.25;stroke-linejoin:round;stroke-miterlimit:4;stroke-dashoffset:0;stroke-opacity:1"
     d="M 98.297066,141.21379 L 112.47559,141.21379 L 112.47559,155.39232 L 98.297066,155.39232 L 98.297066,141.21379 z"
     id="rect2691" />
  <path
     style="fill:#ffffff;fill-opacity:1;fill-rule:evenodd;stroke:#000000;stroke-width:1.25;stroke-linejoin:round;stroke-miterlimit:4;stroke-dashoffset:0;stroke-opacity:1"
     d="M 112.47559,141.21379 L 126.65412,141.21379 L 126.65412,155.39232 L 112.47559,155.39232 L 112.47559,141.21379 z"
     id="rect2693" />
  <path
     style="fill:#ffffff;fill-opacity:1;fill-rule:evenodd;stroke:#000000;stroke-width:1.25;stroke-linejoin:round;stroke-miterlimit:4;stroke-dashoffset:0;stroke-opacity:1"
     d="M 126.65412,141.21379 L 140.83265,141.21379 L 140.83265,155.39232 L 126.65412,155.39232 L 126.65412,141.21379 z"
     id="rect2695" />
  <path
     transform="translate(-124.24026,33.167976)"
     style="font-size:9.60358906px;font-style:normal;font-variant:normal;font-weight:bold;font-stretch:normal;text-align:start;line-height:125%;writing-mode:lr-tb;text-anchor:start;fill:#000000;fill-opacity:1;stroke:none;stroke-width:1px;stroke-linecap:butt;stroke-linejoin:miter;stroke-opacity:1;font-family:Courier;-inkscape-font-specification:Courier Bold"
     d="M 213.83947,112.18677 L 213.83947,113.53128 L 213.20563,113.53128 L 213.20563,114.31877 L 213.83947,114.31877 L 213.83947,115.93217 C 213.83947,116.50839 213.84907,117.075 214.24282,117.48796 C 214.53093,117.78567 215.07833,117.92012 215.50089,117.92012 C 216.27878,117.92012 217.1239,117.53597 217.62328,117.30549 L 217.30637,116.5468 L 216.99905,116.67165 C 216.44204,116.90214 215.99067,117.09421 215.42406,117.09421 C 214.66538,117.09421 214.67498,116.59482 214.67498,115.93217 L 214.67498,114.31877 L 216.8646,114.31877 L 216.8646,113.53128 L 214.67498,113.53128 L 214.67498,112.18677 L 213.83947,112.18677"
     id="flowRoot2599" />
  <path
     transform="translate(-108.94773,33.167976)"
     style="font-size:9.60358906px;font-style:normal;font-variant:normal;font-weight:bold;font-stretch:normal;text-align:start;line-height:125%;writing-mode:lr-tb;text-anchor:start;fill:#000000;fill-opacity:1;stroke:none;stroke-width:1px;stroke-linecap:butt;stroke-linejoin:miter;stroke-opacity:1;font-family:Courier;-inkscape-font-specification:Courier Bold"
     d="M 216.8742,114.83736 C 216.8742,113.8482 216.3364,113.23357 215.10714,113.23357 C 214.32925,113.23357 213.67621,113.49286 213.09039,113.73295 L 213.41691,114.50124 C 213.77225,114.34758 214.42529,114.05947 215.09754,114.05947 C 216.0483,114.05947 216.03869,114.57807 216.03869,114.91419 C 215.69296,114.87578 215.37604,114.83736 214.94388,114.83736 C 213.25365,114.83736 212.77347,115.83614 212.77347,116.42196 C 212.77347,117.17104 213.43612,117.92012 214.4541,117.92012 C 215.22239,117.92012 215.72177,117.55518 216.03869,117.32469 L 216.03869,117.78567 L 217.70011,117.78567 L 217.70011,116.99817 L 216.8742,116.99817 L 216.8742,114.83736 M 216.03869,116.22989 C 215.29922,117.05579 214.63657,117.09421 214.4445,117.09421 C 214.03154,117.09421 213.6378,116.78689 213.6378,116.43156 C 213.6378,116.31632 213.68581,115.62486 215.03992,115.62486 C 215.41446,115.62486 215.70257,115.68248 216.03869,115.7305 L 216.03869,116.22989"
     id="flowRoot2579" />
  <path
     transform="translate(-95.623917,33.167976)"
     style="font-size:9.60358906px;font-style:normal;font-variant:normal;font-weight:bold;font-stretch:normal;text-align:start;line-height:125%;writing-mode:lr-tb;text-anchor:start;fill:#000000;fill-opacity:1;stroke:none;stroke-width:1px;stroke-linecap:butt;stroke-linejoin:miter;stroke-opacity:1;font-family:Courier;-inkscape-font-specification:Courier Bold"
     d="M 213.19603,111.7258 L 213.27286,112.5229 L 214.77102,112.42686 L 214.77102,116.99817 L 213.15762,116.99817 L 213.15762,117.78567 L 217.21993,117.78567 L 217.21993,116.99817 L 215.60653,116.99817 L 215.60653,111.56254 L 213.19603,111.7258"
     id="flowRoot2561" />
  <path
     transform="translate(-81.435785,33.167976)"
     style="font-size:9.60358906px;font-style:normal;font-variant:normal;font-weight:bold;font-stretch:normal;text-align:start;line-height:125%;writing-mode:lr-tb;text-anchor:start;fill:#000000;fill-opacity:1;stroke:none;stroke-width:1px;stroke-linecap:butt;stroke-linejoin:miter;stroke-opacity:1;font-family:Courier;-inkscape-font-specification:Courier Bold"
     d="M 212.54299,111.7162 L 212.61981,112.5229 L 213.48414,112.44607 L 213.48414,116.99817 L 212.71585,116.99817 L 212.71585,117.78567 L 214.31965,117.78567 L 214.31965,115.9898 L 214.63657,115.74971 C 214.84785,115.94178 215.57772,116.66205 215.87543,116.99817 L 215.5201,116.99817 L 215.5201,117.78567 L 217.81536,117.78567 L 217.81536,116.99817 L 216.94143,116.99817 C 216.12513,116.04742 215.59693,115.50962 215.29922,115.25992 L 216.83579,114.22274 L 217.46963,114.22274 L 217.46963,113.43524 L 215.09754,113.43524 L 215.09754,114.22274 L 215.5297,114.22274 L 215.5297,114.24194 L 214.31965,114.99102 L 214.31965,111.56254 L 212.54299,111.7162"
     id="flowRoot7936" />
  <path
     style="fill:#ffffff;fill-opacity:1;fill-rule:evenodd;stroke:#000000;stroke-width:1.25;stroke-linejoin:round;stroke-miterlimit:4;stroke-dashoffset:0;stroke-opacity:1"
     d="M 140.83266,141.21379 L 155.01118,141.21379 L 155.01118,155.39232 L 140.83266,155.39232 L 140.83266,141.21379 z"
     id="rect2687" />
  <path
     transform="translate(-43.488196,-20.35413)"
     style="fill:#bbbbbb;fill-opacity:1;fill-rule:evenodd;stroke:#000000;stroke-width:1.25;stroke-linejoin:round;stroke-miterlimit:4;stroke-dashoffset:0;stroke-opacity:1"
     d="M 195.66367,168.65718 C 195.66367,171.00514 193.75807,172.91074 191.41011,172.91074 C 189.06215,172.91074 187.15655,171.00514 187.15655,168.65718 C 187.15655,166.30922 189.06215,164.40362 191.41011,164.40362 C 193.75807,164.40362 195.66367,166.30922 195.66367,168.65718 z"
     id="path2697" />
  <path
     transform="translate(-3.2017536,-68.48295)"
     style="font-size:12px;font-style:normal;font-variant:normal;font-weight:normal;font-stretch:normal;fill:#000000;fill-opacity:1;stroke:none;stroke-width:1px;stroke-linecap:butt;stroke-linejoin:miter;stroke-opacity:1;font-family:Sans;-inkscape-font-specification:Adobe Helvetica"
     d="M 85.115234,186.44759 C 85.615232,185.85385 86.236325,185.55697 86.978516,185.55696 C 87.689449,185.55697 88.283198,185.84213 88.759766,186.41243 C 89.236322,186.97884 89.474603,187.72103 89.474609,188.639 C 89.474603,189.65853 89.234369,190.46907 88.753906,191.07064 C 88.277339,191.66829 87.673824,191.96712 86.943359,191.96712 C 86.197263,191.96712 85.587888,191.67806 85.115234,191.09993 L 85.115234,194.19954 L 84.095703,194.19954 L 84.095703,185.59212 L 85.115234,185.59212 L 85.115234,186.44759 M 85.115234,187.4261 L 85.115234,190.03353 C 85.271482,190.31868 85.496092,190.56282 85.789062,190.76595 C 86.085935,190.96517 86.390622,191.06478 86.703125,191.06478 C 87.238277,191.06478 87.658199,190.8597 87.962891,190.44954 C 88.267573,190.03939 88.419917,189.46517 88.419922,188.72689 C 88.419917,188.00033 88.269526,187.43978 87.96875,187.04525 C 87.667964,186.64681 87.24609,186.44759 86.703125,186.44759 C 86.429684,186.44759 86.148435,186.53939 85.859375,186.72298 C 85.574216,186.90267 85.32617,187.13705 85.115234,187.4261 M 96.078125,191.80892 L 94.976562,191.80892 C 94.914058,191.71126 94.85937,191.57259 94.8125,191.3929 C 94.769526,191.21321 94.748042,191.06478 94.748047,190.94759 C 94.025387,191.62728 93.230465,191.96712 92.363281,191.96712 C 91.789061,191.96712 91.322264,191.81868 90.962891,191.52181 C 90.607421,191.22103 90.429687,190.80501 90.429688,190.27376 C 90.429687,189.85189 90.535156,189.49642 90.746094,189.20735 C 90.960937,188.91439 91.281249,188.68587 91.707031,188.52181 C 92.136717,188.35775 92.681638,188.25423 93.341797,188.21126 L 94.724609,188.12337 L 94.724609,187.93001 C 94.724605,187.3597 94.611323,186.96322 94.384766,186.74056 C 94.158199,186.51791 93.759762,186.40658 93.189453,186.40657 C 92.916013,186.40658 92.576169,186.46713 92.169922,186.58821 C 91.767576,186.70541 91.427733,186.84213 91.150391,186.99837 L 90.851562,186.21907 C 91.179686,186.02377 91.580077,185.86556 92.052734,185.74446 C 92.529294,185.61947 92.964841,185.55697 93.359375,185.55696 C 94.171871,185.55697 94.77148,185.74056 95.158203,186.10775 C 95.548823,186.47494 95.744135,187.03548 95.744141,187.78939 L 95.744141,190.35579 C 95.744135,190.99251 95.855463,191.47689 96.078125,191.80892 M 94.724609,190.05696 L 94.724609,188.89095 C 93.849605,188.94173 93.275387,188.98275 93.001953,189.014 C 92.732419,189.04134 92.468747,189.10384 92.210938,189.2015 C 91.953123,189.29915 91.757811,189.43197 91.625,189.59993 C 91.492186,189.7679 91.42578,189.97689 91.425781,190.22689 C 91.42578,190.4847 91.525389,190.69368 91.724609,190.85384 C 91.923826,191.01009 92.179685,191.08821 92.492188,191.08821 C 92.890622,191.08821 93.298825,190.99446 93.716797,190.80696 C 94.134761,190.61556 94.470699,190.36556 94.724609,190.05696 M 99.974609,191.77376 C 99.5957,191.90267 99.292966,191.96712 99.066406,191.96712 C 98.539061,191.96712 98.154295,191.81868 97.912109,191.52181 C 97.673827,191.22493 97.554687,190.76009 97.554688,190.12728 L 97.554688,186.54134 L 96.810547,186.54134 L 96.810547,185.70345 L 97.554688,185.70345 L 97.554688,184.03353 L 98.574219,184.03353 L 98.574219,185.70345 L 99.746094,185.70345 L 99.746094,186.54134 L 98.574219,186.54134 L 98.574219,190.0804 C 98.574217,190.75228 98.781248,191.08821 99.195312,191.08821 C 99.374997,191.08821 99.572263,191.04915 99.787109,190.97103 L 99.974609,191.77376 M 105.85156,191.80892 L 104.82617,191.80892 L 104.82617,187.91829 C 104.82617,187.45345 104.71093,187.09213 104.48047,186.83431 C 104.2539,186.5765 103.94531,186.44759 103.55469,186.44759 C 102.9414,186.44759 102.35742,186.77963 101.80273,187.44368 L 101.80273,191.80892 L 100.7832,191.80892 L 100.7832,183.09603 L 101.80273,183.09603 L 101.80273,186.56478 C 102.44336,185.89291 103.11914,185.55697 103.83008,185.55696 C 104.45507,185.55697 104.94726,185.74056 105.30664,186.10775 C 105.66992,186.47103 105.85156,186.98666 105.85156,187.65462 L 105.85156,191.80892"
     id="flowRoot4830" />
  <path
     transform="translate(-30.350715,-19.1966)"
     style="font-size:12px;font-style:normal;font-variant:normal;font-weight:normal;font-stretch:normal;fill:#000000;fill-opacity:1;stroke:none;stroke-width:1px;stroke-linecap:butt;stroke-linejoin:miter;stroke-opacity:1;font-family:Sans;-inkscape-font-specification:Adobe Helvetica"
     d="M 85.115234,186.44759 C 85.615232,185.85385 86.236325,185.55697 86.978516,185.55696 C 87.689449,185.55697 88.283198,185.84213 88.759766,186.41243 C 89.236322,186.97884 89.474603,187.72103 89.474609,188.639 C 89.474603,189.65853 89.234369,190.46907 88.753906,191.07064 C 88.277339,191.66829 87.673824,191.96712 86.943359,191.96712 C 86.197263,191.96712 85.587888,191.67806 85.115234,191.09993 L 85.115234,194.19954 L 84.095703,194.19954 L 84.095703,185.59212 L 85.115234,185.59212 L 85.115234,186.44759 M 85.115234,187.4261 L 85.115234,190.03353 C 85.271482,190.31868 85.496092,190.56282 85.789062,190.76595 C 86.085935,190.96517 86.390622,191.06478 86.703125,191.06478 C 87.238277,191.06478 87.658199,190.8597 87.962891,190.44954 C 88.267573,190.03939 88.419917,189.46517 88.419922,188.72689 C 88.419917,188.00033 88.269526,187.43978 87.96875,187.04525 C 87.667964,186.64681 87.24609,186.44759 86.703125,186.44759 C 86.429684,186.44759 86.148435,186.53939 85.859375,186.72298 C 85.574216,186.90267 85.32617,187.13705 85.115234,187.4261"
     id="flowRoot5928" />
  <path
     style="fill:none;fill-rule:evenodd;stroke:#000000;stroke-width:1.00037384;stroke-linecap:butt;stroke-linejoin:miter;marker-end:url(#Arrow1Mend);stroke-miterlimit:4;stroke-dasharray:none;stroke-opacity:1"
     d="M 64.268604,169.57084 L 118.147,169.57084 L 118.147,155.39231"
     id="path3509"
     sodipodi:nodetypes="ccc" />
  <path
     style="fill:none;fill-rule:evenodd;stroke:#000000;stroke-width:1px;stroke-linecap:butt;stroke-linejoin:miter;marker-end:url(#Arrow1Mend);stroke-opacity:1"
     d="M 91.207814,127.03526 L 91.207814,141.21379"
     id="path4301" />
  <path
     style="fill:none;fill-rule:evenodd;stroke:#000000;stroke-width:1;stroke-linecap:butt;stroke-linejoin:miter;marker-end:url(#Arrow2Send);stroke-miterlimit:4;stroke-dasharray:1.00000004, 2.00000009;stroke-dashoffset:0;stroke-opacity:1"
     d="M 89.789954,163.89943 L 146.50406,163.89943"
     id="path4838" />
  <path
     style="fill:none;fill-opacity:1;fill-rule:evenodd;stroke:#000000;stroke-width:1.25;stroke-linejoin:round;stroke-miterlimit:4;stroke-dashoffset:0;stroke-opacity:1"
     d="M 56.057173,104.85381 L 156.08924,104.85381 C 167.65488,104.85381 176.96584,114.16478 176.96584,125.73041 L 176.96584,169.04838 C 176.96584,180.61401 167.65488,189.92497 156.08924,189.92497 L 56.057173,189.92497 C 44.491538,189.92497 35.180576,180.61401 35.180576,169.04838 L 35.180576,125.73041 C 35.180576,114.16478 44.491538,104.85381 56.057173,104.85381 z"
     id="rect9759" />
</svg>
