<?xml version="1.0" encoding="UTF-8" standalone="no"?>
<!DOCTYPE svg PUBLIC "-//W3C//DTD SVG 1.0//EN"
 "http://www.w3.org/TR/2001/REC-SVG-20010904/DTD/svg10.dtd" [
 <!ATTLIST svg xmlns:xlink CDATA #FIXED "http://www.w3.org/1999/xlink">
]>
<!-- Generated by Graphviz version 2.18 (Thu Oct 16 15:23:39 UTC 2008)
 -->
<!-- Title: state_machine_54 Pages: 1 -->
<svg width="570pt" height="360pt"
 viewBox="0.00 0.00 569.82 360.00" xmlns="http://www.w3.org/2000/svg" xmlns:xlink="http://www.w3.org/1999/xlink">
<g id="graph0" class="graph" transform="scale(0.309013 0.309013) rotate(0) translate(4 1161)">
<title>state_machine_54</title>
<polygon style="fill:white;stroke:white;" points="-4,4 -4,-1161 1840.58,-1161 1840.58,4 -4,4"/>
<!-- 1 -->
<g id="node1" class="node"><title>1</title>
<ellipse style="fill:none;stroke:black;" cx="139" cy="-993" rx="18" ry="18"/>
<ellipse style="fill:none;stroke:black;" cx="139" cy="-993" rx="22" ry="22"/>
<text text-anchor="middle" x="139" y="-988.9" style="font-family:Times New Roman;font-size:14.00;">1</text>
</g>
<!-- 2 -->
<g id="node2" class="node"><title>2</title>
<ellipse style="fill:none;stroke:black;" cx="139" cy="-931" rx="18" ry="18"/>
<ellipse style="fill:none;stroke:black;" cx="139" cy="-931" rx="22" ry="22"/>
<text text-anchor="middle" x="139" y="-926.9" style="font-family:Times New Roman;font-size:14.00;">2</text>
</g>
<!-- 3 -->
<g id="node3" class="node"><title>3</title>
<ellipse style="fill:none;stroke:black;" cx="760" cy="-1052" rx="18" ry="18"/>
<ellipse style="fill:none;stroke:black;" cx="760" cy="-1052" rx="22" ry="22"/>
<text text-anchor="middle" x="760" y="-1047.9" style="font-family:Times New Roman;font-size:14.00;">3</text>
</g>
<!-- 2&#45;&gt;3 -->
<g id="edge24" class="edge"><title>2&#45;&gt;3</title>
<path style="fill:none;stroke:black;" d="M154,-947C158,-952 161,-957 164,-962 176,-981 165,-995 182,-1009 352,-1135 635,-1082 729,-1060"/>
<polygon style="fill:black;stroke:black;" points="729.881,-1063.39 739,-1058 728.508,-1056.53 729.881,-1063.39"/>
<text text-anchor="middle" x="289" y="-1065.9" style="font-family:Times New Roman;font-size:14.00;">&#39;e&#39;</text>
</g>
<!-- 6 -->
<g id="node6" class="node"><title>6</title>
<ellipse style="fill:none;stroke:black;" cx="1778" cy="-602" rx="18" ry="18"/>
<ellipse style="fill:none;stroke:black;" cx="1778" cy="-602" rx="22" ry="22"/>
<text text-anchor="middle" x="1778" y="-597.9" style="font-family:Times New Roman;font-size:14.00;">6</text>
</g>
<!-- 2&#45;&gt;6 -->
<g id="edge22" class="edge"><title>2&#45;&gt;6</title>
<path style="fill:none;stroke:black;" d="M154,-948C172,-967 204,-995 239,-995 239,-995 239,-995 760,-995 978,-995 1587,-1079 1738,-922 1758,-901 1772,-711 1776,-634"/>
<polygon style="fill:black;stroke:black;" points="1779.49,-634.299 1777,-624 1772.52,-633.602 1779.49,-634.299"/>
<text text-anchor="middle" x="760" y="-998.9" style="font-family:Times New Roman;font-size:14.00;">[&#39;A&#39;, &#39;Z&#39;], &#39;_&#39;, [&#39;a&#39;, &#39;d&#39;], [&#39;f&#39;, &#39;s&#39;], [&#39;u&#39;, &#39;z&#39;]</text>
</g>
<!-- 7 -->
<g id="node7" class="node"><title>7</title>
<ellipse style="fill:none;stroke:black;" cx="239" cy="-931" rx="18" ry="18"/>
<ellipse style="fill:none;stroke:black;" cx="239" cy="-931" rx="22" ry="22"/>
<text text-anchor="middle" x="239" y="-926.9" style="font-family:Times New Roman;font-size:14.00;">7</text>
</g>
<!-- 2&#45;&gt;7 -->
<g id="edge26" class="edge"><title>2&#45;&gt;7</title>
<path style="fill:none;stroke:black;" d="M161,-931C175,-931 192,-931 207,-931"/>
<polygon style="fill:black;stroke:black;" points="207,-934.5 217,-931 207,-927.5 207,-934.5"/>
<text text-anchor="middle" x="189" y="-934.9" style="font-family:Times New Roman;font-size:14.00;">&#39;t&#39;</text>
</g>
<!-- 4 -->
<g id="node4" class="node"><title>4</title>
<ellipse style="fill:none;stroke:black;" cx="1152" cy="-1082" rx="18" ry="18"/>
<ellipse style="fill:none;stroke:black;" cx="1152" cy="-1082" rx="22" ry="22"/>
<text text-anchor="middle" x="1152" y="-1077.9" style="font-family:Times New Roman;font-size:14.00;">4</text>
</g>
<!-- 3&#45;&gt;4 -->
<g id="edge30" class="edge"><title>3&#45;&gt;4</title>
<path style="fill:none;stroke:black;" d="M782,-1054C848,-1059 1042,-1074 1120,-1079"/>
<polygon style="fill:black;stroke:black;" points="1119.7,-1082.49 1130,-1080 1120.4,-1075.52 1119.7,-1082.49"/>
<text text-anchor="middle" x="968" y="-1076.9" style="font-family:Times New Roman;font-size:14.00;">&#39;n&#39;</text>
</g>
<!-- 3&#45;&gt;6 -->
<g id="edge28" class="edge"><title>3&#45;&gt;6</title>
<path style="fill:none;stroke:black;" d="M782,-1052C925,-1050 1703,-1042 1738,-1008 1765,-982 1774,-726 1777,-634"/>
<polygon style="fill:black;stroke:black;" points="1780.5,-634 1777,-624 1773.5,-634 1780.5,-634"/>
<text text-anchor="middle" x="1337" y="-1045.9" style="font-family:Times New Roman;font-size:14.00;">[&#39;A&#39;, &#39;Z&#39;], &#39;_&#39;, [&#39;a&#39;, &#39;m&#39;], [&#39;o&#39;, &#39;z&#39;]</text>
</g>
<!-- 5 -->
<g id="node5" class="node"><title>5</title>
<ellipse style="fill:none;stroke:black;" cx="1522" cy="-1135" rx="18" ry="18"/>
<ellipse style="fill:none;stroke:black;" cx="1522" cy="-1135" rx="22" ry="22"/>
<text text-anchor="middle" x="1522" y="-1130.9" style="font-family:Times New Roman;font-size:14.00;">5</text>
</g>
<!-- 4&#45;&gt;5 -->
<g id="edge34" class="edge"><title>4&#45;&gt;5</title>
<path style="fill:none;stroke:black;" d="M1174,-1085C1237,-1095 1417,-1120 1490,-1131"/>
<polygon style="fill:black;stroke:black;" points="1489.7,-1134.49 1500,-1132 1490.4,-1127.52 1489.7,-1134.49"/>
<text text-anchor="middle" x="1337" y="-1121.9" style="font-family:Times New Roman;font-size:14.00;">&#39;d&#39;</text>
</g>
<!-- 4&#45;&gt;6 -->
<g id="edge32" class="edge"><title>4&#45;&gt;6</title>
<path style="fill:none;stroke:black;" d="M1174,-1082C1276,-1083 1698,-1086 1738,-1046 1768,-1017 1775,-732 1778,-634"/>
<polygon style="fill:black;stroke:black;" points="1781.5,-634 1778,-624 1774.5,-634 1781.5,-634"/>
<text text-anchor="middle" x="1522" y="-1082.9" style="font-family:Times New Roman;font-size:14.00;">[&#39;A&#39;, &#39;Z&#39;], &#39;_&#39;, [&#39;a&#39;, &#39;c&#39;], [&#39;e&#39;, &#39;z&#39;]</text>
</g>
<!-- 5&#45;&gt;6 -->
<g id="edge36" class="edge"><title>5&#45;&gt;6</title>
<path style="fill:none;stroke:black;" d="M1544,-1138C1588,-1143 1688,-1148 1738,-1092 1769,-1057 1776,-738 1778,-634"/>
<polygon style="fill:black;stroke:black;" points="1781.5,-634 1778,-624 1774.5,-634 1781.5,-634"/>
<text text-anchor="middle" x="1680" y="-1141.9" style="font-family:Times New Roman;font-size:14.00;">[&#39;A&#39;, &#39;Z&#39;], &#39;_&#39;, [&#39;a&#39;, &#39;z&#39;]</text>
</g>
<!-- 6&#45;&gt;6 -->
<g id="edge38" class="edge"><title>6&#45;&gt;6</title>
<path style="fill:none;stroke:black;" d="M1762,-617C1756,-630 1762,-642 1778,-642 1790,-642 1796,-636 1796,-627"/>
<polygon style="fill:black;stroke:black;" points="1799.39,-626.119 1794,-617 1792.53,-627.492 1799.39,-626.119"/>
<text text-anchor="middle" x="1778" y="-645.9" style="font-family:Times New Roman;font-size:14.00;">[&#39;A&#39;, &#39;Z&#39;], &#39;_&#39;, [&#39;a&#39;, &#39;z&#39;]</text>
</g>
<!-- 7&#45;&gt;6 -->
<g id="edge40" class="edge"><title>7&#45;&gt;6</title>
<path style="fill:none;stroke:black;" d="M261,-933C268,-934 275,-935 282,-935 289,-935 290,-935 296,-935 713,-934 818,-936 1234,-932 1399,-930 1441,-945 1604,-925 1665,-917 1697,-939 1738,-894 1756,-874 1771,-706 1775,-634"/>
<polygon style="fill:black;stroke:black;" points="1778.49,-634.299 1776,-624 1771.52,-633.602 1778.49,-634.299"/>
<text text-anchor="middle" x="968" y="-936.9" style="font-family:Times New Roman;font-size:14.00;">[&#39;A&#39;, &#39;Z&#39;], &#39;_&#39;, [&#39;a&#39;, &#39;q&#39;], [&#39;s&#39;, &#39;z&#39;]</text>
</g>
<!-- 8 -->
<g id="node8" class="node"><title>8</title>
<ellipse style="fill:none;stroke:black;" cx="339" cy="-899" rx="18" ry="18"/>
<ellipse style="fill:none;stroke:black;" cx="339" cy="-899" rx="22" ry="22"/>
<text text-anchor="middle" x="339" y="-894.9" style="font-family:Times New Roman;font-size:14.00;">8</text>
</g>
<!-- 7&#45;&gt;8 -->
<g id="edge42" class="edge"><title>7&#45;&gt;8</title>
<path style="fill:none;stroke:black;" d="M260,-924C274,-920 293,-914 308,-909"/>
<polygon style="fill:black;stroke:black;" points="309.427,-912.226 318,-906 307.416,-905.521 309.427,-912.226"/>
<text text-anchor="middle" x="289" y="-919.9" style="font-family:Times New Roman;font-size:14.00;">&#39;r&#39;</text>
</g>
<!-- 8&#45;&gt;6 -->
<g id="edge44" class="edge"><title>8&#45;&gt;6</title>
<path style="fill:none;stroke:black;" d="M361,-900C424,-903 608,-911 760,-911 760,-911 760,-911 1522,-911 1622,-911 1672,-925 1738,-851 1766,-819 1775,-694 1777,-634"/>
<polygon style="fill:black;stroke:black;" points="1780.5,-634 1777,-624 1773.5,-634 1780.5,-634"/>
<text text-anchor="middle" x="1152" y="-914.9" style="font-family:Times New Roman;font-size:14.00;">[&#39;A&#39;, &#39;Z&#39;], &#39;_&#39;, [&#39;a&#39;, &#39;t&#39;], [&#39;v&#39;, &#39;z&#39;]</text>
</g>
<!-- 9 -->
<g id="node9" class="node"><title>9</title>
<ellipse style="fill:none;stroke:black;" cx="760" cy="-861" rx="18" ry="18"/>
<ellipse style="fill:none;stroke:black;" cx="760" cy="-861" rx="22" ry="22"/>
<text text-anchor="middle" x="760" y="-856.9" style="font-family:Times New Roman;font-size:14.00;">9</text>
</g>
<!-- 8&#45;&gt;9 -->
<g id="edge46" class="edge"><title>8&#45;&gt;9</title>
<path style="fill:none;stroke:black;" d="M358,-888C366,-885 374,-882 382,-880 507,-851 662,-854 728,-858"/>
<polygon style="fill:black;stroke:black;" points="727.701,-861.488 738,-859 728.398,-854.522 727.701,-861.488"/>
<text text-anchor="middle" x="509" y="-883.9" style="font-family:Times New Roman;font-size:14.00;">&#39;u&#39;</text>
</g>
<!-- 9&#45;&gt;6 -->
<g id="edge48" class="edge"><title>9&#45;&gt;6</title>
<path style="fill:none;stroke:black;" d="M782,-862C922,-867 1671,-894 1738,-822 1763,-795 1773,-689 1776,-634"/>
<polygon style="fill:black;stroke:black;" points="1779.49,-634.299 1777,-624 1772.52,-633.602 1779.49,-634.299"/>
<text text-anchor="middle" x="1337" y="-873.9" style="font-family:Times New Roman;font-size:14.00;">[&#39;A&#39;, &#39;Z&#39;], &#39;_&#39;, [&#39;a&#39;, &#39;b&#39;], [&#39;d&#39;, &#39;z&#39;]</text>
</g>
<!-- 10 -->
<g id="node10" class="node"><title>10</title>
<ellipse style="fill:none;stroke:black;" cx="1152" cy="-812" rx="20.8465" ry="20.8465"/>
<ellipse style="fill:none;stroke:black;" cx="1152" cy="-812" rx="24.8465" ry="24.8465"/>
<text text-anchor="middle" x="1152" y="-807.9" style="font-family:Times New Roman;font-size:14.00;">10</text>
</g>
<!-- 9&#45;&gt;10 -->
<g id="edge50" class="edge"><title>9&#45;&gt;10</title>
<path style="fill:none;stroke:black;" d="M782,-855C806,-849 848,-839 884,-834 967,-822 1065,-816 1117,-813"/>
<polygon style="fill:black;stroke:black;" points="1117,-816.5 1127,-813 1117,-809.5 1117,-816.5"/>
<text text-anchor="middle" x="968" y="-837.9" style="font-family:Times New Roman;font-size:14.00;">&#39;c&#39;</text>
</g>
<!-- 10&#45;&gt;6 -->
<g id="edge52" class="edge"><title>10&#45;&gt;6</title>
<path style="fill:none;stroke:black;" d="M1177,-815C1278,-827 1653,-864 1738,-791 1761,-771 1772,-683 1776,-634"/>
<polygon style="fill:black;stroke:black;" points="1779.49,-634.299 1777,-624 1772.52,-633.602 1779.49,-634.299"/>
<text text-anchor="middle" x="1522" y="-837.9" style="font-family:Times New Roman;font-size:14.00;">[&#39;A&#39;, &#39;Z&#39;], &#39;_&#39;, [&#39;a&#39;, &#39;s&#39;], [&#39;u&#39;, &#39;z&#39;]</text>
</g>
<!-- 11 -->
<g id="node11" class="node"><title>11</title>
<ellipse style="fill:none;stroke:black;" cx="1522" cy="-768" rx="20.1516" ry="20.1516"/>
<ellipse style="fill:none;stroke:black;" cx="1522" cy="-768" rx="24.1516" ry="24.1516"/>
<text text-anchor="middle" x="1522" y="-763.9" style="font-family:Times New Roman;font-size:14.00;">11</text>
</g>
<!-- 10&#45;&gt;11 -->
<g id="edge54" class="edge"><title>10&#45;&gt;11</title>
<path style="fill:none;stroke:black;" d="M1177,-808C1197,-804 1227,-800 1252,-797 1337,-786 1437,-776 1488,-771"/>
<polygon style="fill:black;stroke:black;" points="1488.4,-774.478 1498,-770 1487.7,-767.512 1488.4,-774.478"/>
<text text-anchor="middle" x="1337" y="-800.9" style="font-family:Times New Roman;font-size:14.00;">&#39;t&#39;</text>
</g>
<!-- 11&#45;&gt;6 -->
<g id="edge56" class="edge"><title>11&#45;&gt;6</title>
<path style="fill:none;stroke:black;" d="M1546,-771C1590,-775 1683,-778 1738,-730 1752,-717 1765,-667 1772,-634"/>
<polygon style="fill:black;stroke:black;" points="1775.47,-634.492 1774,-624 1768.61,-633.119 1775.47,-634.492"/>
<text text-anchor="middle" x="1680" y="-773.9" style="font-family:Times New Roman;font-size:14.00;">[&#39;A&#39;, &#39;Z&#39;], &#39;_&#39;, [&#39;a&#39;, &#39;z&#39;]</text>
</g>
<!-- 12 -->
<g id="node12" class="node"><title>12</title>
<ellipse style="fill:none;stroke:black;" cx="139" cy="-729" rx="20.8465" ry="20.8465"/>
<ellipse style="fill:none;stroke:black;" cx="139" cy="-729" rx="24.8465" ry="24.8465"/>
<text text-anchor="middle" x="139" y="-724.9" style="font-family:Times New Roman;font-size:14.00;">12</text>
</g>
<!-- 13 -->
<g id="node13" class="node"><title>13</title>
<ellipse style="fill:none;stroke:black;" cx="139" cy="-626" rx="20.8465" ry="20.8465"/>
<ellipse style="fill:none;stroke:black;" cx="139" cy="-626" rx="24.8465" ry="24.8465"/>
<text text-anchor="middle" x="139" y="-621.9" style="font-family:Times New Roman;font-size:14.00;">13</text>
</g>
<!-- 13&#45;&gt;13 -->
<g id="edge58" class="edge"><title>13&#45;&gt;13</title>
<path style="fill:none;stroke:black;" d="M130,-650C129,-660 132,-669 139,-669 143,-669 146,-665 148,-660"/>
<polygon style="fill:black;stroke:black;" points="151.5,-660 148,-650 144.5,-660 151.5,-660"/>
<text text-anchor="middle" x="139" y="-672.9" style="font-family:Times New Roman;font-size:14.00;">[&#39;0&#39;, &#39;9&#39;]</text>
</g>
<!-- 14 -->
<g id="node14" class="node"><title>14</title>
<ellipse style="fill:none;stroke:black;" cx="139" cy="-558" rx="20.8465" ry="20.8465"/>
<ellipse style="fill:none;stroke:black;" cx="139" cy="-558" rx="24.8465" ry="24.8465"/>
<text text-anchor="middle" x="139" y="-553.9" style="font-family:Times New Roman;font-size:14.00;">14</text>
</g>
<!-- 14&#45;&gt;6 -->
<g id="edge60" class="edge"><title>14&#45;&gt;6</title>
<path style="fill:none;stroke:black;" d="M154,-578C181,-612 233,-679 239,-679 239,-679 239,-679 1152,-679 1414,-679 1497,-735 1738,-636 1744,-633 1750,-629 1755,-625"/>
<polygon style="fill:black;stroke:black;" points="1757.1,-627.8 1763,-619 1752.9,-622.2 1757.1,-627.8"/>
<text text-anchor="middle" x="760" y="-682.9" style="font-family:Times New Roman;font-size:14.00;">[&#39;A&#39;, &#39;Z&#39;], &#39;_&#39;, [&#39;a&#39;, &#39;w&#39;], [&#39;y&#39;, &#39;z&#39;]</text>
</g>
<!-- 15 -->
<g id="node15" class="node"><title>15</title>
<ellipse style="fill:none;stroke:black;" cx="239" cy="-574" rx="20.8465" ry="20.8465"/>
<ellipse style="fill:none;stroke:black;" cx="239" cy="-574" rx="24.8465" ry="24.8465"/>
<text text-anchor="middle" x="239" y="-569.9" style="font-family:Times New Roman;font-size:14.00;">15</text>
</g>
<!-- 14&#45;&gt;15 -->
<g id="edge62" class="edge"><title>14&#45;&gt;15</title>
<path style="fill:none;stroke:black;" d="M164,-562C176,-564 191,-567 204,-569"/>
<polygon style="fill:black;stroke:black;" points="203.701,-572.488 214,-570 204.398,-565.522 203.701,-572.488"/>
<text text-anchor="middle" x="189" y="-569.9" style="font-family:Times New Roman;font-size:14.00;">&#39;x&#39;</text>
</g>
<!-- 15&#45;&gt;6 -->
<g id="edge64" class="edge"><title>15&#45;&gt;6</title>
<path style="fill:none;stroke:black;" d="M261,-587C275,-594 295,-604 314,-608 715,-690 826,-624 1234,-622 1459,-620 1518,-654 1738,-616 1741,-616 1745,-615 1748,-614"/>
<polygon style="fill:black;stroke:black;" points="1749.28,-617.26 1757,-610 1746.44,-610.863 1749.28,-617.26"/>
<text text-anchor="middle" x="968" y="-640.9" style="font-family:Times New Roman;font-size:14.00;">[&#39;A&#39;, &#39;Z&#39;], &#39;_&#39;, [&#39;a&#39;, &#39;o&#39;], [&#39;q&#39;, &#39;z&#39;]</text>
</g>
<!-- 16 -->
<g id="node16" class="node"><title>16</title>
<ellipse style="fill:none;stroke:black;" cx="339" cy="-574" rx="20.8465" ry="20.8465"/>
<ellipse style="fill:none;stroke:black;" cx="339" cy="-574" rx="24.8465" ry="24.8465"/>
<text text-anchor="middle" x="339" y="-569.9" style="font-family:Times New Roman;font-size:14.00;">16</text>
</g>
<!-- 15&#45;&gt;16 -->
<g id="edge66" class="edge"><title>15&#45;&gt;16</title>
<path style="fill:none;stroke:black;" d="M264,-574C276,-574 291,-574 304,-574"/>
<polygon style="fill:black;stroke:black;" points="304,-577.5 314,-574 304,-570.5 304,-577.5"/>
<text text-anchor="middle" x="289" y="-577.9" style="font-family:Times New Roman;font-size:14.00;">&#39;p&#39;</text>
</g>
<!-- 16&#45;&gt;6 -->
<g id="edge68" class="edge"><title>16&#45;&gt;6</title>
<path style="fill:none;stroke:black;" d="M364,-578C370,-579 376,-580 382,-581 660,-606 1563,-603 1746,-602"/>
<polygon style="fill:black;stroke:black;" points="1746,-605.5 1756,-602 1746,-598.5 1746,-605.5"/>
<text text-anchor="middle" x="1152" y="-604.9" style="font-family:Times New Roman;font-size:14.00;">[&#39;A&#39;, &#39;Z&#39;], &#39;_&#39;, [&#39;a&#39;, &#39;d&#39;], [&#39;f&#39;, &#39;z&#39;]</text>
</g>
<!-- 17 -->
<g id="node17" class="node"><title>17</title>
<ellipse style="fill:none;stroke:black;" cx="760" cy="-542" rx="20.8465" ry="20.8465"/>
<ellipse style="fill:none;stroke:black;" cx="760" cy="-542" rx="24.8465" ry="24.8465"/>
<text text-anchor="middle" x="760" y="-537.9" style="font-family:Times New Roman;font-size:14.00;">17</text>
</g>
<!-- 16&#45;&gt;17 -->
<g id="edge70" class="edge"><title>16&#45;&gt;17</title>
<path style="fill:none;stroke:black;" d="M363,-567C369,-566 376,-565 382,-564 507,-545 658,-542 725,-542"/>
<polygon style="fill:black;stroke:black;" points="725,-545.5 735,-542 725,-538.5 725,-545.5"/>
<text text-anchor="middle" x="509" y="-567.9" style="font-family:Times New Roman;font-size:14.00;">&#39;e&#39;</text>
</g>
<!-- 17&#45;&gt;6 -->
<g id="edge72" class="edge"><title>17&#45;&gt;6</title>
<path style="fill:none;stroke:black;" d="M785,-543C873,-545 1174,-555 1422,-568 1563,-575 1601,-560 1738,-588 1741,-589 1745,-589 1748,-590"/>
<polygon style="fill:black;stroke:black;" points="1747.42,-593.479 1758,-593 1749.43,-586.774 1747.42,-593.479"/>
<text text-anchor="middle" x="1337" y="-571.9" style="font-family:Times New Roman;font-size:14.00;">[&#39;A&#39;, &#39;Z&#39;], &#39;_&#39;, [&#39;a&#39;, &#39;b&#39;], [&#39;d&#39;, &#39;z&#39;]</text>
</g>
<!-- 18 -->
<g id="node18" class="node"><title>18</title>
<ellipse style="fill:none;stroke:black;" cx="1152" cy="-496" rx="20.8465" ry="20.8465"/>
<ellipse style="fill:none;stroke:black;" cx="1152" cy="-496" rx="24.8465" ry="24.8465"/>
<text text-anchor="middle" x="1152" y="-491.9" style="font-family:Times New Roman;font-size:14.00;">18</text>
</g>
<!-- 17&#45;&gt;18 -->
<g id="edge74" class="edge"><title>17&#45;&gt;18</title>
<path style="fill:none;stroke:black;" d="M785,-536C810,-531 850,-522 884,-518 967,-506 1065,-500 1117,-497"/>
<polygon style="fill:black;stroke:black;" points="1117,-500.5 1127,-497 1117,-493.5 1117,-500.5"/>
<text text-anchor="middle" x="968" y="-521.9" style="font-family:Times New Roman;font-size:14.00;">&#39;c&#39;</text>
</g>
<!-- 18&#45;&gt;6 -->
<g id="edge76" class="edge"><title>18&#45;&gt;6</title>
<path style="fill:none;stroke:black;" d="M1177,-498C1198,-500 1227,-503 1252,-505 1361,-514 1644,-496 1738,-550 1748,-555 1756,-565 1762,-574"/>
<polygon style="fill:black;stroke:black;" points="1759.2,-576.1 1768,-582 1764.8,-571.9 1759.2,-576.1"/>
<text text-anchor="middle" x="1522" y="-519.9" style="font-family:Times New Roman;font-size:14.00;">[&#39;A&#39;, &#39;Z&#39;], &#39;_&#39;, [&#39;a&#39;, &#39;s&#39;], [&#39;u&#39;, &#39;z&#39;]</text>
</g>
<!-- 19 -->
<g id="node19" class="node"><title>19</title>
<ellipse style="fill:none;stroke:black;" cx="1522" cy="-458" rx="20.8465" ry="20.8465"/>
<ellipse style="fill:none;stroke:black;" cx="1522" cy="-458" rx="24.8465" ry="24.8465"/>
<text text-anchor="middle" x="1522" y="-453.9" style="font-family:Times New Roman;font-size:14.00;">19</text>
</g>
<!-- 18&#45;&gt;19 -->
<g id="edge78" class="edge"><title>18&#45;&gt;19</title>
<path style="fill:none;stroke:black;" d="M1177,-493C1241,-487 1412,-470 1487,-462"/>
<polygon style="fill:black;stroke:black;" points="1487.4,-465.478 1497,-461 1486.7,-458.512 1487.4,-465.478"/>
<text text-anchor="middle" x="1337" y="-488.9" style="font-family:Times New Roman;font-size:14.00;">&#39;t&#39;</text>
</g>
<!-- 19&#45;&gt;6 -->
<g id="edge80" class="edge"><title>19&#45;&gt;6</title>
<path style="fill:none;stroke:black;" d="M1547,-454C1591,-448 1682,-442 1738,-488 1751,-498 1763,-540 1771,-570"/>
<polygon style="fill:black;stroke:black;" points="1767.61,-570.881 1773,-580 1774.47,-569.508 1767.61,-570.881"/>
<text text-anchor="middle" x="1680" y="-491.9" style="font-family:Times New Roman;font-size:14.00;">[&#39;A&#39;, &#39;Z&#39;], &#39;_&#39;, [&#39;a&#39;, &#39;z&#39;]</text>
</g>
<!-- 20 -->
<g id="node20" class="node"><title>20</title>
<ellipse style="fill:none;stroke:black;" cx="139" cy="-421" rx="20.8465" ry="20.8465"/>
<ellipse style="fill:none;stroke:black;" cx="139" cy="-421" rx="24.8465" ry="24.8465"/>
<text text-anchor="middle" x="139" y="-416.9" style="font-family:Times New Roman;font-size:14.00;">20</text>
</g>
<!-- 20&#45;&gt;20 -->
<g id="edge82" class="edge"><title>20&#45;&gt;20</title>
<path style="fill:none;stroke:black;" d="M130,-445C129,-455 132,-464 139,-464 143,-464 146,-460 148,-455"/>
<polygon style="fill:black;stroke:black;" points="151.5,-455 148,-445 144.5,-455 151.5,-455"/>
<text text-anchor="middle" x="139" y="-501.9" style="font-family:Times New Roman;font-size:14.00;">[&#39;t&#39;, &#39;</text>
<text text-anchor="end" x="151.5" y="-484.9" style="font-family:Times New Roman;font-size:14.00;">&#39;], &#39;</text>
<text text-anchor="middle" x="139" y="-467.9" style="font-family:Times New Roman;font-size:14.00;">&#39;, &#39; &#39;</text>
</g>
<!-- 21 -->
<g id="node21" class="node"><title>21</title>
<ellipse style="fill:none;stroke:black;" cx="139" cy="-353" rx="20.8465" ry="20.8465"/>
<ellipse style="fill:none;stroke:black;" cx="139" cy="-353" rx="24.8465" ry="24.8465"/>
<text text-anchor="middle" x="139" y="-348.9" style="font-family:Times New Roman;font-size:14.00;">21</text>
</g>
<!-- 21&#45;&gt;6 -->
<g id="edge84" class="edge"><title>21&#45;&gt;6</title>
<path style="fill:none;stroke:black;" d="M158,-370C177,-386 208,-406 239,-406 239,-406 239,-406 1152,-406 1283,-406 1642,-356 1738,-444 1756,-461 1768,-529 1774,-570"/>
<polygon style="fill:black;stroke:black;" points="1770.52,-570.398 1775,-580 1777.49,-569.701 1770.52,-570.398"/>
<text text-anchor="middle" x="760" y="-409.9" style="font-family:Times New Roman;font-size:14.00;">[&#39;A&#39;, &#39;Z&#39;], &#39;_&#39;, [&#39;a&#39;, &#39;n&#39;], [&#39;p&#39;, &#39;z&#39;]</text>
</g>
<!-- 22 -->
<g id="node22" class="node"><title>22</title>
<ellipse style="fill:none;stroke:black;" cx="239" cy="-353" rx="20.8465" ry="20.8465"/>
<ellipse style="fill:none;stroke:black;" cx="239" cy="-353" rx="24.8465" ry="24.8465"/>
<text text-anchor="middle" x="239" y="-348.9" style="font-family:Times New Roman;font-size:14.00;">22</text>
</g>
<!-- 21&#45;&gt;22 -->
<g id="edge86" class="edge"><title>21&#45;&gt;22</title>
<path style="fill:none;stroke:black;" d="M164,-353C176,-353 191,-353 204,-353"/>
<polygon style="fill:black;stroke:black;" points="204,-356.5 214,-353 204,-349.5 204,-356.5"/>
<text text-anchor="middle" x="189" y="-356.9" style="font-family:Times New Roman;font-size:14.00;">&#39;o&#39;</text>
</g>
<!-- 22&#45;&gt;6 -->
<g id="edge88" class="edge"><title>22&#45;&gt;6</title>
<path style="fill:none;stroke:black;" d="M264,-353C456,-351 1680,-341 1738,-391 1765,-413 1774,-516 1777,-570"/>
<polygon style="fill:black;stroke:black;" points="1773.5,-570 1777,-580 1780.5,-570 1773.5,-570"/>
<text text-anchor="middle" x="968" y="-354.9" style="font-family:Times New Roman;font-size:14.00;">[&#39;A&#39;, &#39;Z&#39;], &#39;_&#39;, [&#39;a&#39;, &#39;t&#39;], [&#39;v&#39;, &#39;z&#39;]</text>
</g>
<!-- 23 -->
<g id="node23" class="node"><title>23</title>
<ellipse style="fill:none;stroke:black;" cx="339" cy="-307" rx="20.8465" ry="20.8465"/>
<ellipse style="fill:none;stroke:black;" cx="339" cy="-307" rx="24.8465" ry="24.8465"/>
<text text-anchor="middle" x="339" y="-302.9" style="font-family:Times New Roman;font-size:14.00;">23</text>
</g>
<!-- 22&#45;&gt;23 -->
<g id="edge90" class="edge"><title>22&#45;&gt;23</title>
<path style="fill:none;stroke:black;" d="M261,-340C268,-336 275,-332 282,-329 290,-325 298,-322 306,-319"/>
<polygon style="fill:black;stroke:black;" points="307.283,-322.26 315,-315 304.44,-315.863 307.283,-322.26"/>
<text text-anchor="middle" x="289" y="-332.9" style="font-family:Times New Roman;font-size:14.00;">&#39;u&#39;</text>
</g>
<!-- 23&#45;&gt;6 -->
<g id="edge92" class="edge"><title>23&#45;&gt;6</title>
<path style="fill:none;stroke:black;" d="M364,-308C552,-312 1725,-341 1738,-353 1755,-367 1769,-505 1775,-570"/>
<polygon style="fill:black;stroke:black;" points="1771.52,-570.398 1776,-580 1778.49,-569.701 1771.52,-570.398"/>
<text text-anchor="middle" x="1152" y="-332.9" style="font-family:Times New Roman;font-size:14.00;">[&#39;A&#39;, &#39;Z&#39;], &#39;_&#39;, &#39;a&#39;, [&#39;c&#39;, &#39;z&#39;]</text>
</g>
<!-- 24 -->
<g id="node24" class="node"><title>24</title>
<ellipse style="fill:none;stroke:black;" cx="760" cy="-269" rx="20.8465" ry="20.8465"/>
<ellipse style="fill:none;stroke:black;" cx="760" cy="-269" rx="24.8465" ry="24.8465"/>
<text text-anchor="middle" x="760" y="-264.9" style="font-family:Times New Roman;font-size:14.00;">24</text>
</g>
<!-- 23&#45;&gt;24 -->
<g id="edge94" class="edge"><title>23&#45;&gt;24</title>
<path style="fill:none;stroke:black;" d="M362,-297C369,-295 376,-292 382,-291 506,-264 658,-266 725,-268"/>
<polygon style="fill:black;stroke:black;" points="725,-271.5 735,-268 725,-264.5 725,-271.5"/>
<text text-anchor="middle" x="509" y="-294.9" style="font-family:Times New Roman;font-size:14.00;">&#39;b&#39;</text>
</g>
<!-- 24&#45;&gt;6 -->
<g id="edge96" class="edge"><title>24&#45;&gt;6</title>
<path style="fill:none;stroke:black;" d="M785,-268C931,-264 1667,-248 1738,-314 1757,-330 1771,-498 1776,-570"/>
<polygon style="fill:black;stroke:black;" points="1772.52,-570.398 1777,-580 1779.49,-569.701 1772.52,-570.398"/>
<text text-anchor="middle" x="1337" y="-271.9" style="font-family:Times New Roman;font-size:14.00;">[&#39;A&#39;, &#39;Z&#39;], &#39;_&#39;, [&#39;a&#39;, &#39;k&#39;], [&#39;m&#39;, &#39;z&#39;]</text>
</g>
<!-- 25 -->
<g id="node25" class="node"><title>25</title>
<ellipse style="fill:none;stroke:black;" cx="1152" cy="-223" rx="20.8465" ry="20.8465"/>
<ellipse style="fill:none;stroke:black;" cx="1152" cy="-223" rx="24.8465" ry="24.8465"/>
<text text-anchor="middle" x="1152" y="-218.9" style="font-family:Times New Roman;font-size:14.00;">25</text>
</g>
<!-- 24&#45;&gt;25 -->
<g id="edge98" class="edge"><title>24&#45;&gt;25</title>
<path style="fill:none;stroke:black;" d="M785,-263C810,-258 850,-249 884,-245 967,-234 1065,-228 1117,-225"/>
<polygon style="fill:black;stroke:black;" points="1117.4,-228.478 1127,-224 1116.7,-221.512 1117.4,-228.478"/>
<text text-anchor="middle" x="968" y="-248.9" style="font-family:Times New Roman;font-size:14.00;">&#39;l&#39;</text>
</g>
<!-- 25&#45;&gt;6 -->
<g id="edge100" class="edge"><title>25&#45;&gt;6</title>
<path style="fill:none;stroke:black;" d="M1177,-225C1198,-227 1227,-229 1252,-231 1307,-236 1700,-238 1738,-276 1759,-296 1772,-491 1776,-570"/>
<polygon style="fill:black;stroke:black;" points="1772.52,-570.398 1777,-580 1779.49,-569.701 1772.52,-570.398"/>
<text text-anchor="middle" x="1522" y="-251.9" style="font-family:Times New Roman;font-size:14.00;">[&#39;A&#39;, &#39;Z&#39;], &#39;_&#39;, [&#39;a&#39;, &#39;d&#39;], [&#39;f&#39;, &#39;z&#39;]</text>
</g>
<!-- 26 -->
<g id="node26" class="node"><title>26</title>
<ellipse style="fill:none;stroke:black;" cx="1522" cy="-184" rx="20.8465" ry="20.8465"/>
<ellipse style="fill:none;stroke:black;" cx="1522" cy="-184" rx="24.8465" ry="24.8465"/>
<text text-anchor="middle" x="1522" y="-179.9" style="font-family:Times New Roman;font-size:14.00;">26</text>
</g>
<!-- 25&#45;&gt;26 -->
<g id="edge102" class="edge"><title>25&#45;&gt;26</title>
<path style="fill:none;stroke:black;" d="M1177,-220C1241,-214 1412,-196 1487,-188"/>
<polygon style="fill:black;stroke:black;" points="1487.4,-191.478 1497,-187 1486.7,-184.512 1487.4,-191.478"/>
<text text-anchor="middle" x="1337" y="-218.9" style="font-family:Times New Roman;font-size:14.00;">&#39;e&#39;</text>
</g>
<!-- 26&#45;&gt;6 -->
<g id="edge104" class="edge"><title>26&#45;&gt;6</title>
<path style="fill:none;stroke:black;" d="M1547,-179C1592,-171 1688,-162 1738,-214 1763,-240 1774,-481 1777,-570"/>
<polygon style="fill:black;stroke:black;" points="1773.5,-570 1777,-580 1780.5,-570 1773.5,-570"/>
<text text-anchor="middle" x="1680" y="-218.9" style="font-family:Times New Roman;font-size:14.00;">[&#39;A&#39;, &#39;Z&#39;], &#39;_&#39;, [&#39;a&#39;, &#39;z&#39;]</text>
</g>
<!-- 27 -->
<g id="node27" class="node"><title>27</title>
<ellipse style="fill:none;stroke:black;" cx="139" cy="-285" rx="20.8465" ry="20.8465"/>
<ellipse style="fill:none;stroke:black;" cx="139" cy="-285" rx="24.8465" ry="24.8465"/>
<text text-anchor="middle" x="139" y="-280.9" style="font-family:Times New Roman;font-size:14.00;">27</text>
</g>
<!-- 28 -->
<g id="node28" class="node"><title>28</title>
<ellipse style="fill:none;stroke:black;" cx="760" cy="-131" rx="20.8465" ry="20.8465"/>
<ellipse style="fill:none;stroke:black;" cx="760" cy="-131" rx="24.8465" ry="24.8465"/>
<text text-anchor="middle" x="760" y="-126.9" style="font-family:Times New Roman;font-size:14.00;">28</text>
</g>
<!-- 28&#45;&gt;6 -->
<g id="edge106" class="edge"><title>28&#45;&gt;6</title>
<path style="fill:none;stroke:black;" d="M785,-130C932,-124 1671,-100 1738,-171 1765,-201 1774,-475 1778,-570"/>
<polygon style="fill:black;stroke:black;" points="1774.5,-570 1778,-580 1781.5,-570 1774.5,-570"/>
<text text-anchor="middle" x="1337" y="-129.9" style="font-family:Times New Roman;font-size:14.00;">[&#39;A&#39;, &#39;Z&#39;], &#39;_&#39;, [&#39;a&#39;, &#39;m&#39;], [&#39;o&#39;, &#39;z&#39;]</text>
</g>
<!-- 29 -->
<g id="node29" class="node"><title>29</title>
<ellipse style="fill:none;stroke:black;" cx="1152" cy="-78" rx="20.8465" ry="20.8465"/>
<ellipse style="fill:none;stroke:black;" cx="1152" cy="-78" rx="24.8465" ry="24.8465"/>
<text text-anchor="middle" x="1152" y="-73.9" style="font-family:Times New Roman;font-size:14.00;">29</text>
</g>
<!-- 28&#45;&gt;29 -->
<g id="edge108" class="edge"><title>28&#45;&gt;29</title>
<path style="fill:none;stroke:black;" d="M784,-124C809,-117 849,-106 884,-100 966,-87 1065,-81 1117,-79"/>
<polygon style="fill:black;stroke:black;" points="1117,-82.5001 1127,-79 1117,-75.5001 1117,-82.5001"/>
<text text-anchor="middle" x="968" y="-104.9" style="font-family:Times New Roman;font-size:14.00;">&#39;n&#39;</text>
</g>
<!-- 29&#45;&gt;6 -->
<g id="edge110" class="edge"><title>29&#45;&gt;6</title>
<path style="fill:none;stroke:black;" d="M1177,-78C1284,-77 1699,-76 1738,-117 1770,-151 1777,-466 1778,-570"/>
<polygon style="fill:black;stroke:black;" points="1774.5,-570 1778,-580 1781.5,-570 1774.5,-570"/>
<text text-anchor="middle" x="1522" y="-94.9" style="font-family:Times New Roman;font-size:14.00;">[&#39;A&#39;, &#39;Z&#39;], &#39;_&#39;, [&#39;a&#39;, &#39;s&#39;], [&#39;u&#39;, &#39;z&#39;]</text>
</g>
<!-- 30 -->
<g id="node30" class="node"><title>30</title>
<ellipse style="fill:none;stroke:black;" cx="1522" cy="-25" rx="20.8465" ry="20.8465"/>
<ellipse style="fill:none;stroke:black;" cx="1522" cy="-25" rx="24.8465" ry="24.8465"/>
<text text-anchor="middle" x="1522" y="-20.9" style="font-family:Times New Roman;font-size:14.00;">30</text>
</g>
<!-- 29&#45;&gt;30 -->
<g id="edge112" class="edge"><title>29&#45;&gt;30</title>
<path style="fill:none;stroke:black;" d="M1176,-72C1197,-67 1226,-60 1252,-55 1336,-41 1435,-32 1487,-28"/>
<polygon style="fill:black;stroke:black;" points="1487.4,-31.4778 1497,-27 1486.7,-24.5125 1487.4,-31.4778"/>
<text text-anchor="middle" x="1337" y="-62.9" style="font-family:Times New Roman;font-size:14.00;">&#39;t&#39;</text>
</g>
<!-- 30&#45;&gt;6 -->
<g id="edge114" class="edge"><title>30&#45;&gt;6</title>
<path style="fill:none;stroke:black;" d="M1546,-20C1592,-12 1688,-2 1738,-55 1755,-74 1772,-455 1777,-570"/>
<polygon style="fill:black;stroke:black;" points="1773.5,-570 1777,-580 1780.5,-570 1773.5,-570"/>
<text text-anchor="middle" x="1680" y="-59.9" style="font-family:Times New Roman;font-size:14.00;">[&#39;A&#39;, &#39;Z&#39;], &#39;_&#39;, [&#39;a&#39;, &#39;z&#39;]</text>
</g>
<!-- 0 -->
<g id="node31" class="node"><title>0</title>
<ellipse style="fill:none;stroke:black;" cx="18" cy="-588" rx="18" ry="18"/>
<text text-anchor="middle" x="18" y="-583.9" style="font-family:Times New Roman;font-size:14.00;">0</text>
</g>
<!-- 0&#45;&gt;1 -->
<g id="edge20" class="edge"><title>0&#45;&gt;1</title>
<path style="fill:none;stroke:black;" d="M19,-606C22,-664 32,-839 54,-891 68,-923 95,-952 115,-971"/>
<polygon style="fill:black;stroke:black;" points="112.454,-973.404 122,-978 117.404,-968.454 112.454,-973.404"/>
<text text-anchor="middle" x="75" y="-952.9" style="font-family:Times New Roman;font-size:14.00;">&#39;}&#39;</text>
</g>
<!-- 0&#45;&gt;2 -->
<g id="edge16" class="edge"><title>0&#45;&gt;2</title>
<path style="fill:none;stroke:black;" d="M19,-606C21,-643 29,-729 54,-796 70,-837 99,-879 119,-906"/>
<polygon style="fill:black;stroke:black;" points="116.2,-908.1 125,-914 121.8,-903.9 116.2,-908.1"/>
<text text-anchor="middle" x="75" y="-873.9" style="font-family:Times New Roman;font-size:14.00;">&#39;s&#39;</text>
</g>
<!-- 0&#45;&gt;6 -->
<g id="edge8" class="edge"><title>0&#45;&gt;6</title>
<path style="fill:none;stroke:black;" d="M22,-606C27,-628 37,-666 54,-696 75,-730 78,-746 114,-763 135,-772 142,-763 164,-763 805,-749 970,-789 1604,-701 1665,-692 1689,-705 1738,-669 1751,-659 1760,-645 1767,-632"/>
<polygon style="fill:black;stroke:black;" points="1770.14,-633.56 1771,-623 1763.74,-630.717 1770.14,-633.56"/>
<text text-anchor="middle" x="509" y="-762.9" style="font-family:Times New Roman;font-size:14.00;">[&#39;A&#39;, &#39;Z&#39;], &#39;_&#39;, [&#39;a&#39;, &#39;c&#39;], [&#39;f&#39;, &#39;h&#39;], [&#39;j&#39;, &#39;r&#39;], [&#39;t&#39;, &#39;z&#39;]</text>
</g>
<!-- 0&#45;&gt;12 -->
<g id="edge6" class="edge"><title>0&#45;&gt;12</title>
<path style="fill:none;stroke:black;" d="M30,-602C37,-611 46,-622 54,-632 75,-656 99,-683 115,-702"/>
<polygon style="fill:black;stroke:black;" points="112.781,-704.779 122,-710 118.049,-700.169 112.781,-704.779"/>
<text text-anchor="middle" x="75" y="-678.9" style="font-family:Times New Roman;font-size:14.00;">&#39;;&#39;</text>
</g>
<!-- 0&#45;&gt;13 -->
<g id="edge4" class="edge"><title>0&#45;&gt;13</title>
<path style="fill:none;stroke:black;" d="M35,-593C53,-599 83,-608 105,-615"/>
<polygon style="fill:black;stroke:black;" points="104.416,-618.479 115,-618 106.427,-611.774 104.416,-618.479"/>
<text text-anchor="middle" x="75" y="-614.9" style="font-family:Times New Roman;font-size:14.00;">[&#39;0&#39;, &#39;9&#39;]</text>
</g>
<!-- 0&#45;&gt;14 -->
<g id="edge12" class="edge"><title>0&#45;&gt;14</title>
<path style="fill:none;stroke:black;" d="M34,-580C41,-577 48,-575 54,-573 70,-568 88,-565 104,-562"/>
<polygon style="fill:black;stroke:black;" points="104.398,-565.478 114,-561 103.701,-558.512 104.398,-565.478"/>
<text text-anchor="middle" x="75" y="-576.9" style="font-family:Times New Roman;font-size:14.00;">&#39;e&#39;</text>
</g>
<!-- 0&#45;&gt;20 -->
<g id="edge2" class="edge"><title>0&#45;&gt;20</title>
<path style="fill:none;stroke:black;" d="M24,-571C30,-554 40,-527 54,-507 70,-483 94,-460 112,-444"/>
<polygon style="fill:black;stroke:black;" points="114.779,-446.219 120,-437 110.169,-440.951 114.779,-446.219"/>
<text text-anchor="middle" x="75" y="-547.9" style="font-family:Times New Roman;font-size:14.00;">[&#39;t&#39;, &#39;</text>
<text text-anchor="end" x="87.5" y="-530.9" style="font-family:Times New Roman;font-size:14.00;">&#39;], &#39;</text>
<text text-anchor="middle" x="75" y="-513.9" style="font-family:Times New Roman;font-size:14.00;">&#39;, &#39; &#39;</text>
</g>
<!-- 0&#45;&gt;21 -->
<g id="edge10" class="edge"><title>0&#45;&gt;21</title>
<path style="fill:none;stroke:black;" d="M19,-570C22,-540 30,-482 54,-439 69,-414 92,-391 111,-374"/>
<polygon style="fill:black;stroke:black;" points="113.1,-376.8 119,-368 108.9,-371.2 113.1,-376.8"/>
<text text-anchor="middle" x="75" y="-445.9" style="font-family:Times New Roman;font-size:14.00;">&#39;d&#39;</text>
</g>
<!-- 0&#45;&gt;27 -->
<g id="edge18" class="edge"><title>0&#45;&gt;27</title>
<path style="fill:none;stroke:black;" d="M20,-570C24,-524 36,-403 54,-368 68,-343 92,-321 110,-305"/>
<polygon style="fill:black;stroke:black;" points="112.1,-307.8 118,-299 107.9,-302.2 112.1,-307.8"/>
<text text-anchor="middle" x="75" y="-375.9" style="font-family:Times New Roman;font-size:14.00;">&#39;{&#39;</text>
</g>
<!-- 0&#45;&gt;28 -->
<g id="edge14" class="edge"><title>0&#45;&gt;28</title>
<path style="fill:none;stroke:black;" d="M19,-570C23,-516 37,-360 54,-313 78,-248 70,-182 139,-182 139,-182 139,-182 339,-182 484,-183 653,-152 725,-138"/>
<polygon style="fill:black;stroke:black;" points="725.881,-141.393 735,-136 724.508,-134.529 725.881,-141.393"/>
<text text-anchor="middle" x="239" y="-186.9" style="font-family:Times New Roman;font-size:14.00;">&#39;i&#39;</text>
</g>
</g>
</svg>
