<?xml version="1.0" encoding="UTF-8" standalone="no"?>
<!-- Generated by Graphviz version 2.18 (Thu Oct 16 15:23:39 UTC 2008)
 -->
<!-- Title: state_machine_59 Pages: 1 -->
<svg
   xmlns:dc="http://purl.org/dc/elements/1.1/"
   xmlns:cc="http://creativecommons.org/ns#"
   xmlns:rdf="http://www.w3.org/1999/02/22-rdf-syntax-ns#"
   xmlns:svg="http://www.w3.org/2000/svg"
   xmlns="http://www.w3.org/2000/svg"
   xmlns:sodipodi="http://sodipodi.sourceforge.net/DTD/sodipodi-0.dtd"
   xmlns:inkscape="http://www.inkscape.org/namespaces/inkscape"
   width="535pt"
   height="360pt"
   viewBox="0.00 0.00 535.20 360.00"
   id="svg2584"
   sodipodi:version="0.32"
   inkscape:version="0.46"
   sodipodi:docname="state-machine-codec-unicode.svg"
   inkscape:output_extension="org.inkscape.output.svg.inkscape">
  <metadata
     id="metadata2791">
    <rdf:RDF>
      <cc:Work
         rdf:about="">
        <dc:format>image/svg+xml</dc:format>
        <dc:type
           rdf:resource="http://purl.org/dc/dcmitype/StillImage" />
      </cc:Work>
    </rdf:RDF>
  </metadata>
  <defs
     id="defs2789">
    <marker
       inkscape:stockid="Arrow2Lend"
       orient="auto"
       refY="0.0"
       refX="0.0"
       id="Arrow2Lend"
       style="overflow:visible;">
      <path
         id="path3707"
         style="font-size:12.0;fill-rule:evenodd;stroke-width:0.62500000;stroke-linejoin:round;"
         d="M 8.7185878,4.0337352 L -2.2072895,0.016013256 L 8.7185884,-4.0017078 C 6.9730900,-1.6296469 6.9831476,1.6157441 8.7185878,4.0337352 z "
         transform="scale(1.1) rotate(180) translate(1,0)" />
    </marker>
    <marker
       inkscape:stockid="Arrow1Lend"
       orient="auto"
       refY="0.0"
       refX="0.0"
       id="Arrow1Lend"
       style="overflow:visible;">
      <path
         id="path3689"
         d="M 0.0,0.0 L 5.0,-5.0 L -12.5,0.0 L 5.0,5.0 L 0.0,0.0 z "
         style="fill-rule:evenodd;stroke:#000000;stroke-width:1.0pt;marker-start:none;"
         transform="scale(0.8) rotate(180) translate(12.5,0)" />
    </marker>
    <inkscape:perspective
       sodipodi:type="inkscape:persp3d"
       inkscape:vp_x="0 : 225 : 1"
       inkscape:vp_y="0 : 1000 : 0"
       inkscape:vp_z="668.75 : 225 : 1"
       inkscape:persp3d-origin="334.375 : 150 : 1"
       id="perspective2793" />
    <title
       id="title2587">state_machine_59</title>
    <title
       id="title2771">8-&gt;9</title>
    <title
       id="title2655">9-&gt;9</title>
    <title
       id="title2762">1-&gt;2</title>
    <title
       id="title2746">4-&gt;5</title>
    <title
       id="title2737">0-&gt;8</title>
    <title
       id="title2721">0-&gt;1</title>
    <title
       id="title2705">0-&gt;4</title>
    <title
       id="title2689">0-&gt;7</title>
    <title
       id="title2680">0-&gt;6</title>
    <title
       id="title2671">0-&gt;3</title>
    <title
       id="title2610">5-&gt;5</title>
    <title
       id="title2780">2-&gt;3</title>
    <title
       id="title2637">7-&gt;7</title>
    <title
       id="title2664">0</title>
    <title
       id="title2592">3</title>
    <title
       id="title2601">5</title>
    <title
       id="title2619">6</title>
    <title
       id="title2628">7</title>
    <title
       id="title2646">9</title>
    <title
       id="title2730">8</title>
    <title
       id="title2698">4</title>
    <title
       id="title2755">2</title>
    <title
       id="title2714">1</title>
  </defs>
  <sodipodi:namedview
     inkscape:window-height="716"
     inkscape:window-width="1013"
     inkscape:pageshadow="2"
     inkscape:pageopacity="0.0"
     guidetolerance="10.0"
     gridtolerance="10.0"
     objecttolerance="10.0"
     borderopacity="1"
     bordercolor="#ed1b1b"
     pagecolor="#ffffff"
     id="base"
     showgrid="true"
     inkscape:zoom="1.1926975"
     inkscape:cx="477.0879"
     inkscape:cy="153.95618"
     inkscape:window-x="5"
     inkscape:window-y="21"
     inkscape:current-layer="svg2584"
     inkscape:showpageshadow="false">
    <inkscape:grid
       type="xygrid"
       id="grid5044"
       visible="true"
       enabled="true" />
  </sodipodi:namedview>
  <g
     id="g6427"
     inkscape:export-filename="/home/fschaef/prj/quex/trunk/demo/011/X-unicode.png"
     inkscape:export-xdpi="40.360001"
     inkscape:export-ydpi="40.360001">
    <g
       id="g6361">
      <ellipse
         style="fill:none;stroke:#000000"
         cx="694"
         cy="-291"
         rx="18"
         ry="18"
         id="ellipse2594"
         sodipodi:cx="694"
         sodipodi:cy="-291"
         sodipodi:rx="18"
         sodipodi:ry="18"
         transform="matrix(0.73922,0,0,0.73922,-131.04201,317.00278)" />
      <ellipse
         style="fill:none;stroke:#000000"
         cx="694"
         cy="-291"
         rx="22"
         ry="22"
         id="ellipse2596"
         sodipodi:cx="694"
         sodipodi:cy="-291"
         sodipodi:rx="22"
         sodipodi:ry="22"
         transform="matrix(0.73922,0,0,0.73922,-131.04201,317.00278)" />
      <text
         x="381.97668"
         y="104.92059"
         style="font-size:10.40388775px;font-style:normal;font-variant:normal;font-weight:bold;font-stretch:normal;text-align:center;line-height:125%;writing-mode:lr-tb;text-anchor:middle;font-family:Sans;-inkscape-font-specification:Sans Bold"
         id="text2598"
         sodipodi:linespacing="125%">3</text>
      <g
         id="g4988"
         transform="matrix(0,-1,-1,0,768.16144,489.03502)">
        <path
           id="path2657"
           d="M 333.25902,371.54496 C 331.78058,364.15276 334.73746,356.76056 341.39044,356.76056 C 345.82576,356.76056 348.04342,359.71744 349.52186,364.15276"
           style="fill:none;stroke:#000000;stroke-width:0.73922002" />
        <polygon
           transform="matrix(0.73922,0,0,0.73922,-82.921843,402.5922)"
           id="polygon2659"
           points="588.5,-52 585,-42 581.5,-52 588.5,-52 "
           style="fill:#000000;stroke:#000000" />
      </g>
      <ellipse
         style="fill:none;stroke:#000000"
         cx="574"
         cy="-173"
         rx="18"
         ry="18"
         id="ellipse2603"
         sodipodi:cx="574"
         sodipodi:cy="-173"
         sodipodi:rx="18"
         sodipodi:ry="18"
         transform="matrix(0.73922,0,0,0.73922,-41.812236,274.42256)" />
      <ellipse
         style="fill:none;stroke:#000000"
         cx="574"
         cy="-173"
         rx="22"
         ry="22"
         id="ellipse2605"
         sodipodi:cx="574"
         sodipodi:cy="-173"
         sodipodi:rx="22"
         sodipodi:ry="22"
         transform="matrix(0.73922,0,0,0.73922,-41.812236,274.42256)" />
      <text
         x="382.50003"
         y="149.56831"
         style="font-size:10.40388775px;font-style:normal;font-variant:normal;font-weight:bold;font-stretch:normal;text-align:center;line-height:125%;writing-mode:lr-tb;text-anchor:middle;font-family:Sans;-inkscape-font-specification:Sans Bold"
         id="text2607"
         sodipodi:linespacing="125%">5</text>
      <text
         x="416.15552"
         y="149.06735"
         style="font-size:9.60358906px;font-style:normal;font-variant:normal;font-weight:normal;font-stretch:normal;text-align:start;line-height:125%;writing-mode:lr-tb;text-anchor:start;font-family:Sans;-inkscape-font-specification:Sans"
         id="text2616"
         sodipodi:linespacing="125%">[002C] [002E] [0030, 0039]</text>
      <ellipse
         style="fill:none;stroke:#000000"
         cx="336"
         cy="-311"
         rx="18"
         ry="18"
         id="ellipse2621"
         sodipodi:cx="336"
         sodipodi:cy="-311"
         sodipodi:rx="18"
         sodipodi:ry="18"
         transform="matrix(0.73922,0,0,0.73922,134.12213,419.79635)" />
      <ellipse
         style="fill:none;stroke:#000000"
         cx="336"
         cy="-311"
         rx="22"
         ry="22"
         id="ellipse2623"
         sodipodi:cx="336"
         sodipodi:cy="-311"
         sodipodi:rx="22"
         sodipodi:ry="22"
         transform="matrix(0.73922,0,0,0.73922,134.12213,419.79635)" />
      <text
         x="382.50006"
         y="192.92975"
         style="font-size:10.40388775px;font-style:normal;font-variant:normal;font-weight:bold;font-stretch:normal;text-align:center;line-height:125%;writing-mode:lr-tb;text-anchor:middle;font-family:Sans;-inkscape-font-specification:Sans Bold"
         id="text2625"
         sodipodi:linespacing="125%">6</text>
      <ellipse
         style="fill:none;stroke:#000000"
         cx="336"
         cy="-214"
         rx="18"
         ry="18"
         id="ellipse2630"
         sodipodi:cx="336"
         sodipodi:cy="-214"
         sodipodi:rx="18"
         sodipodi:ry="18"
         transform="matrix(0.73922,0,0,0.73922,134.12213,391.45342)" />
      <ellipse
         style="fill:none;stroke:#000000"
         cx="336"
         cy="-214"
         rx="22"
         ry="22"
         id="ellipse2632"
         sodipodi:cx="336"
         sodipodi:cy="-214"
         sodipodi:rx="22"
         sodipodi:ry="22"
         transform="matrix(0.73922,0,0,0.73922,134.12213,391.45342)" />
      <text
         x="382.50006"
         y="236.29115"
         style="font-size:10.40388775px;font-style:normal;font-variant:normal;font-weight:bold;font-stretch:normal;text-align:center;line-height:125%;writing-mode:lr-tb;text-anchor:middle;font-family:Sans;-inkscape-font-specification:Sans Bold"
         id="text2634"
         sodipodi:linespacing="125%">7</text>
      <text
         x="416.15552"
         y="235.79021"
         style="font-size:9.60358906px;font-style:normal;font-variant:normal;font-weight:normal;font-stretch:normal;text-align:start;line-height:125%;writing-mode:lr-tb;text-anchor:start;font-family:Sans;-inkscape-font-specification:Sans"
         id="text2643"
         sodipodi:linespacing="125%">[03AC, 03CE]</text>
      <ellipse
         style="fill:none;stroke:#000000"
         cx="574"
         cy="-22"
         rx="18"
         ry="18"
         id="ellipse2648"
         sodipodi:cx="574"
         sodipodi:cy="-22"
         sodipodi:rx="18"
         sodipodi:ry="18"
         transform="matrix(0.73922,0,0,0.73922,-41.812236,292.8846)" />
      <ellipse
         style="fill:none;stroke:#000000"
         cx="574"
         cy="-22"
         rx="22"
         ry="22"
         id="ellipse2650"
         sodipodi:cx="574"
         sodipodi:cy="-22"
         sodipodi:rx="22"
         sodipodi:ry="22"
         transform="matrix(0.73922,0,0,0.73922,-41.812236,292.8846)" />
      <text
         x="382.50003"
         y="279.65259"
         style="font-size:10.40388775px;font-style:normal;font-variant:normal;font-weight:bold;font-stretch:normal;text-align:center;line-height:125%;writing-mode:lr-tb;text-anchor:middle;font-family:Sans;-inkscape-font-specification:Sans Bold"
         id="text2652"
         sodipodi:linespacing="125%">9</text>
      <g
         transform="matrix(0,-1,-1,0,767.55114,619.11928)"
         id="g5054">
        <path
           style="fill:none;stroke:#000000;stroke-width:0.73922002"
           d="M 333.25902,371.54496 C 331.78058,364.15276 334.73746,356.76056 341.39044,356.76056 C 345.82576,356.76056 348.04342,359.71744 349.52186,364.15276"
           id="path5056" />
        <polygon
           style="fill:#000000;stroke:#000000"
           points="588.5,-52 585,-42 581.5,-52 588.5,-52 "
           id="polygon5058"
           transform="matrix(0.73922,0,0,0.73922,-82.921843,402.5922)" />
      </g>
      <text
         x="416.15552"
         y="279.15164"
         style="font-size:9.60358906px;font-style:normal;font-variant:normal;font-weight:normal;font-stretch:normal;text-align:start;line-height:125%;writing-mode:lr-tb;text-anchor:start;font-family:Sans;-inkscape-font-specification:Sans"
         id="text2661"
         sodipodi:linespacing="125%">[03AC, 03CE]</text>
      <path
         style="fill:none;fill-rule:evenodd;stroke:#000000;stroke-width:1px;stroke-linecap:butt;stroke-linejoin:miter;stroke-opacity:1"
         d="M 93.504715,190.01871 L 33.6602,145.76504 C 35.260802,149.5886 63.864345,233.26415 63.864345,233.26415"
         id="path5623"
         sodipodi:nodetypes="ccc" />
      <text
         x="76.597527"
         y="55.953644"
         style="font-size:9.60358906px;font-style:normal;font-variant:normal;font-weight:normal;font-stretch:normal;text-align:start;line-height:125%;writing-mode:lr-tb;text-anchor:start;font-family:Sans;-inkscape-font-specification:Sans"
         id="text2677"
         sodipodi:linespacing="125%">[0025]</text>
      <text
         x="100.66248"
         y="185.60207"
         style="font-size:9.60358906px;font-style:normal;font-variant:normal;font-weight:normal;font-stretch:normal;text-align:start;line-height:125%;writing-mode:lr-tb;text-anchor:start;font-family:Sans;-inkscape-font-specification:Sans"
         id="text2686"
         sodipodi:linespacing="125%">[0009, 000A] [0020]</text>
      <text
         x="76.597527"
         y="228.3102"
         style="font-size:9.60358906px;font-style:normal;font-variant:normal;font-weight:normal;font-stretch:normal;text-align:start;line-height:125%;writing-mode:lr-tb;text-anchor:start;font-family:Sans;-inkscape-font-specification:Sans"
         id="text2695"
         sodipodi:linespacing="125%">[03AC, 03CE]</text>
      <ellipse
         style="fill:none;stroke:#000000"
         cx="336"
         cy="-156"
         rx="18"
         ry="18"
         id="ellipse2700"
         sodipodi:cx="336"
         sodipodi:cy="-156"
         sodipodi:rx="18"
         sodipodi:ry="18"
         transform="matrix(0.73922,0,0,0.73922,-42.625385,261.85582)" />
      <text
         x="205.75253"
         y="149.56831"
         style="font-size:10.40388775px;font-style:normal;font-variant:normal;font-weight:bold;font-stretch:normal;text-align:center;line-height:125%;writing-mode:lr-tb;text-anchor:middle;font-family:Sans;-inkscape-font-specification:Sans Bold"
         id="text2702"
         sodipodi:linespacing="125%">4</text>
      <text
         x="100.66248"
         y="141.40237"
         style="font-size:9.60358906px;font-style:normal;font-variant:normal;font-weight:normal;font-stretch:normal;text-align:start;line-height:125%;writing-mode:lr-tb;text-anchor:start;font-family:Sans;-inkscape-font-specification:Sans"
         id="text2711"
         sodipodi:linespacing="125%">[0030, 0039]</text>
      <ellipse
         style="fill:none;stroke:#000000"
         cx="336"
         cy="-102"
         rx="18"
         ry="18"
         id="ellipse2716"
         sodipodi:cx="336"
         sodipodi:cy="-102"
         sodipodi:rx="18"
         sodipodi:ry="18"
         transform="matrix(0.73922,0,0,0.73922,-86.628981,178.57653)" />
      <text
         x="161.74895"
         y="106.20689"
         style="font-size:10.40388775px;font-style:normal;font-variant:normal;font-weight:bold;font-stretch:normal;text-align:center;line-height:125%;writing-mode:lr-tb;text-anchor:middle;font-family:Sans;-inkscape-font-specification:Sans Bold"
         id="text2718"
         sodipodi:linespacing="125%">1</text>
      <text
         x="100.66248"
         y="97.569176"
         style="font-size:9.60358906px;font-style:normal;font-variant:normal;font-weight:normal;font-stretch:normal;text-align:start;line-height:125%;writing-mode:lr-tb;text-anchor:start;font-family:Sans;-inkscape-font-specification:Sans"
         id="text2727"
         sodipodi:linespacing="125%">[006B]</text>
      <ellipse
         style="fill:none;stroke:#000000"
         cx="336"
         cy="-46"
         rx="18"
         ry="18"
         id="ellipse2732"
         sodipodi:cx="336"
         sodipodi:cy="-46"
         sodipodi:rx="18"
         sodipodi:ry="18"
         transform="matrix(0.73922,0,0,0.73922,-41.812225,310.62588)" />
      <text
         x="206.56569"
         y="279.65259"
         style="font-size:10.40388775px;font-style:normal;font-variant:normal;font-weight:bold;font-stretch:normal;text-align:center;line-height:125%;writing-mode:lr-tb;text-anchor:middle;font-family:Sans;-inkscape-font-specification:Sans Bold"
         id="text2734"
         sodipodi:linespacing="125%">8</text>
      <text
         x="230.50943"
         y="141.45633"
         style="font-size:9.60358906px;font-style:normal;font-variant:normal;font-weight:normal;font-stretch:normal;text-align:start;line-height:125%;writing-mode:lr-tb;text-anchor:start;font-family:Sans;-inkscape-font-specification:Sans"
         id="text2752"
         sodipodi:linespacing="125%">[002C] [002E] [0030, 0039]</text>
      <ellipse
         style="fill:none;stroke:#000000"
         cx="574"
         cy="-115"
         rx="18"
         ry="18"
         id="ellipse2757"
         sodipodi:cx="574"
         sodipodi:cy="-115"
         sodipodi:rx="18"
         sodipodi:ry="18"
         transform="matrix(0.73922,0,0,0.73922,-152.44949,188.18639)" />
      <text
         x="271.86279"
         y="106.20689"
         style="font-size:10.40388775px;font-style:normal;font-variant:normal;font-weight:bold;font-stretch:normal;text-align:center;line-height:125%;writing-mode:lr-tb;text-anchor:middle;font-family:Sans;-inkscape-font-specification:Sans Bold"
         id="text2759"
         sodipodi:linespacing="125%">2</text>
      <text
         x="183.06815"
         y="98.240181"
         style="font-size:9.60358906px;font-style:normal;font-variant:normal;font-weight:normal;font-stretch:normal;text-align:start;line-height:125%;writing-mode:lr-tb;text-anchor:start;font-family:Sans;-inkscape-font-specification:Sans"
         id="text2768"
         sodipodi:linespacing="125%">[006D]</text>
      <text
         x="230.50943"
         y="271.75748"
         style="font-size:9.60358906px;font-style:normal;font-variant:normal;font-weight:normal;font-stretch:normal;text-align:start;line-height:125%;writing-mode:lr-tb;text-anchor:start;font-family:Sans;-inkscape-font-specification:Sans"
         id="text2777"
         sodipodi:linespacing="125%">[03AC, 03CE]</text>
      <text
         x="293.95813"
         y="98.240181"
         style="font-size:9.60358906px;font-style:normal;font-variant:normal;font-weight:normal;font-stretch:normal;text-align:start;line-height:125%;writing-mode:lr-tb;text-anchor:start;font-family:Sans;-inkscape-font-specification:Sans"
         id="text2786"
         sodipodi:linespacing="125%">[0032]</text>
      <path
         style="fill:none;fill-rule:evenodd;stroke:#000000;stroke-width:1.00037384;stroke-linecap:butt;stroke-linejoin:miter;marker-end:url(#Arrow2Lend);stroke-miterlimit:4;stroke-dasharray:none;stroke-opacity:1"
         d="M 219.98409,276.63938 L 365.64579,276.63938"
         id="path2911" />
      <path
         id="path5000"
         d="M 174.50557,103.19371 L 258.03045,103.19371"
         style="fill:none;fill-rule:evenodd;stroke:#000000;stroke-width:1.00037384;stroke-linecap:butt;stroke-linejoin:miter;marker-end:url(#Arrow2Lend);stroke-miterlimit:4;stroke-dasharray:none;stroke-opacity:1"
         sodipodi:nodetypes="cc" />
      <path
         style="fill:none;fill-rule:evenodd;stroke:#000000;stroke-width:1.00037384;stroke-linecap:butt;stroke-linejoin:miter;marker-end:url(#Arrow2Lend);stroke-miterlimit:4;stroke-dasharray:none;stroke-opacity:1"
         d="M 219.17093,146.55512 L 364.83263,146.55512"
         id="path5002" />
      <path
         sodipodi:nodetypes="ccc"
         id="path5628"
         d="M 93.148865,103.05256 L 33.6602,147.30623 C 35.260802,143.48267 63.864345,59.807129 63.864345,59.807129"
         style="fill:none;fill-rule:evenodd;stroke:#000000;stroke-width:1px;stroke-linecap:butt;stroke-linejoin:miter;stroke-opacity:1" />
      <path
         sodipodi:nodetypes="cc"
         style="fill:none;fill-rule:evenodd;stroke:#000000;stroke-width:1.00037384;stroke-linecap:butt;stroke-linejoin:miter;marker-end:url(#Arrow2Lend);stroke-miterlimit:4;stroke-dasharray:none;stroke-opacity:1"
         d="M 92.865635,103.19371 L 147.80346,103.19371"
         id="path5042" />
      <path
         id="path5046"
         d="M 46.780603,146.55512 L 191.96783,146.55512"
         style="fill:none;fill-rule:evenodd;stroke:#000000;stroke-width:1.00037384;stroke-linecap:butt;stroke-linejoin:miter;marker-end:url(#Arrow2Lend);stroke-miterlimit:4;stroke-dasharray:none;stroke-opacity:1"
         sodipodi:nodetypes="cc" />
      <path
         style="fill:none;fill-rule:evenodd;stroke:#000000;stroke-width:1.00037384;stroke-linecap:butt;stroke-linejoin:miter;marker-end:url(#Arrow2Lend);stroke-miterlimit:4;stroke-dasharray:none;stroke-opacity:1"
         d="M 63.495545,233.27796 L 365.89576,233.27796"
         id="path5048"
         sodipodi:nodetypes="cc" />
      <g
         id="g5593"
         transform="matrix(0,-1,-1,0,768.45613,575.75786)">
        <path
           id="path5595"
           d="M 333.25902,371.54496 C 331.78058,364.15276 334.73746,356.76056 341.39044,356.76056 C 345.82576,356.76056 348.04342,359.71744 349.52186,364.15276"
           style="fill:none;stroke:#000000;stroke-width:0.73922002" />
        <polygon
           transform="matrix(0.73922,0,0,0.73922,-82.921843,402.5922)"
           id="polygon5597"
           points="588.5,-52 585,-42 581.5,-52 588.5,-52 "
           style="fill:#000000;stroke:#000000" />
      </g>
      <path
         transform="translate(11.708727,-85.139649)"
         style="font-size:9.60358906px;font-style:normal;font-variant:normal;font-weight:normal;font-stretch:normal;text-align:start;line-height:125%;writing-mode:lr-tb;text-anchor:start;fill:#000000;fill-opacity:1;stroke:none;stroke-width:1px;stroke-linecap:butt;stroke-linejoin:miter;stroke-opacity:1;font-family:Sans;-inkscape-font-specification:Sans"
         d="M 41.424379,346.77013 L 39.558056,346.77013 L 39.558056,337.884 L 41.424379,337.884 L 41.424379,338.55925 L 40.373986,338.55925 L 40.373986,346.09488 L 41.424379,346.09488 L 41.424379,346.77013 M 46.455946,341.5041 C 46.455941,342.69205 46.269935,343.5705 45.897925,344.13946 C 45.529034,344.7053 44.975702,344.98665 44.23793,344.98353 C 43.4939,344.98353 42.937443,344.69904 42.568556,344.13008 C 42.202794,343.55799 42.019913,342.68267 42.019914,341.5041 C 42.019913,340.37556 42.204357,339.52837 42.573245,338.96253 C 42.942132,338.3967 43.497026,338.11378 44.23793,338.11377 C 44.975702,338.11378 45.529034,338.3967 45.897925,338.96253 C 46.269935,339.52837 46.455941,340.37556 46.455946,341.5041 M 44.23793,344.26138 C 44.684969,344.26138 45.022595,344.05662 45.250808,343.64709 C 45.479015,343.23756 45.59312,342.53574 45.593124,341.54161 C 45.59312,340.60377 45.485267,339.91914 45.269566,339.48772 C 45.056983,339.05319 44.709978,338.83592 44.228551,338.83592 C 43.781507,338.83592 43.445444,339.06257 43.220362,339.51586 C 42.998403,339.96603 42.887424,340.64128 42.887425,341.54161 C 42.887424,342.44821 42.999966,343.12815 43.225051,343.58144 C 43.450134,344.03473 43.78776,344.26138 44.23793,344.26138 M 50.408986,341.21806 C 50.799753,341.33998 51.109244,341.551 51.337458,341.8511 C 51.565664,342.15122 51.679769,342.50291 51.679774,342.90619 C 51.679769,343.47828 51.454685,343.96752 51.004521,344.37392 C 50.557475,344.78032 49.994766,344.98353 49.31639,344.98353 C 48.534847,344.98353 47.820518,344.78189 47.173402,344.37861 L 47.412554,343.70336 C 48.000272,344.07537 48.613001,344.26138 49.250741,344.26138 C 49.688402,344.26138 50.0526,344.13477 50.343337,343.88155 C 50.637193,343.62521 50.784122,343.30321 50.784126,342.91557 C 50.784122,342.49353 50.637193,342.1731 50.343337,341.95427 C 50.0526,341.73231 49.627441,341.62133 49.06786,341.62133 L 48.856844,341.62133 L 48.856844,340.90857 C 50.013523,340.90857 50.591863,340.56938 50.591867,339.891 C 50.591863,339.56275 50.471506,339.30485 50.230795,339.11727 C 49.990076,338.92971 49.663392,338.83592 49.250741,338.83592 C 48.71929,338.83592 48.184716,338.99536 47.647016,339.31422 L 47.403175,338.64366 C 48.019029,338.29041 48.650515,338.11378 49.297633,338.11377 C 49.96663,338.11378 50.493389,338.27477 50.877911,338.59676 C 51.265552,338.91876 51.459374,339.35018 51.459379,339.891 C 51.459374,340.49123 51.109244,340.92733 50.408986,341.1993 L 50.408986,341.21806 M 55.900101,341.21806 C 56.306499,341.35248 56.622241,341.56819 56.84733,341.86517 C 57.075535,342.16216 57.18964,342.50917 57.189645,342.90619 C 57.18964,343.49703 56.978624,343.99097 56.556596,344.38799 C 56.13456,344.78501 55.59217,344.98353 54.929426,344.98353 C 54.26355,344.98353 53.719597,344.78501 53.297566,344.38799 C 52.875532,343.98784 52.664516,343.49078 52.664517,342.89681 C 52.664516,342.51229 52.777058,342.1731 53.002143,341.87924 C 53.227226,341.58226 53.539843,341.36186 53.939993,341.21806 C 53.643006,341.13053 53.402291,340.95859 53.217848,340.70224 C 53.033404,340.4459 52.941182,340.15673 52.941183,339.83473 C 52.941182,339.34705 53.11781,338.93908 53.471068,338.61083 C 53.824324,338.27946 54.307316,338.11378 54.920047,338.11377 C 55.520268,338.11378 56.001698,338.2779 56.364337,338.60614 C 56.726968,338.93127 56.908286,339.3408 56.90829,339.83473 C 56.908286,340.15985 56.817627,340.44902 56.636314,340.70224 C 56.454992,340.95546 56.209588,341.1274 55.900101,341.21806 M 54.929426,340.87105 C 55.248292,340.87106 55.514016,340.77883 55.726599,340.59439 C 55.939174,340.40682 56.045464,340.1536 56.045468,339.83473 C 56.045464,339.53462 55.940737,339.2939 55.731288,339.11258 C 55.524957,338.92814 55.254544,338.83592 54.920047,338.83592 C 54.588671,338.83592 54.319821,338.92658 54.113496,339.10789 C 53.910293,339.28922 53.808693,339.53149 53.808694,339.83473 C 53.808693,340.15985 53.921235,340.41463 54.14632,340.59907 C 54.371402,340.7804 54.632437,340.87106 54.929426,340.87105 M 54.929426,344.26138 C 55.32332,344.26138 55.65313,344.13477 55.918858,343.88155 C 56.187704,343.62521 56.32213,343.30009 56.322134,342.90619 C 56.32213,342.54355 56.184578,342.23406 55.909479,341.97771 C 55.634373,341.72137 55.307689,341.5932 54.929426,341.5932 C 54.548031,341.5932 54.21822,341.72294 53.939993,341.9824 C 53.664889,342.24188 53.527338,342.54981 53.527339,342.90619 C 53.527338,343.31259 53.655511,343.64084 53.911858,343.89093 C 54.168202,344.1379 54.507391,344.26138 54.929426,344.26138 M 58.962183,341.1993 C 59.112237,340.96484 59.331069,340.77883 59.618678,340.64128 C 59.906283,340.5006 60.209521,340.43027 60.528393,340.43026 C 61.106731,340.43027 61.59285,340.63503 61.986751,341.04455 C 62.383769,341.45408 62.582281,341.98241 62.582286,342.62952 C 62.582281,343.32353 62.393148,343.88937 62.014886,344.32703 C 61.636616,344.76469 61.108294,344.98353 60.429919,344.98353 C 59.673384,344.98353 59.095044,344.69904 58.694895,344.13008 C 58.294745,343.56112 58.094671,342.73425 58.094671,341.64947 C 58.094671,340.49592 58.321318,339.61903 58.774613,339.0188 C 59.227906,338.41545 59.850012,338.11378 60.640935,338.11377 C 61.222399,338.11378 61.756973,338.2654 62.24466,338.56863 L 61.977372,339.23919 C 61.536579,338.97035 61.0911,338.83592 60.640935,338.83592 C 60.109484,338.83592 59.699956,339.03443 59.412351,339.43145 C 59.124742,339.82535 58.974686,340.41463 58.962183,341.1993 M 60.411162,344.24262 C 60.830065,344.24262 61.15206,344.10507 61.377148,343.82997 C 61.605354,343.55487 61.719459,343.17348 61.719463,342.68579 C 61.719459,342.22 61.599102,341.84798 61.358391,341.56975 C 61.120799,341.2884 60.795677,341.14772 60.383026,341.14772 C 60.270482,341.14772 60.156377,341.16491 60.040711,341.1993 C 59.92504,341.23369 59.814062,341.28215 59.707774,341.34467 C 59.601482,341.40719 59.501445,341.48066 59.407662,341.56506 C 59.317001,341.64947 59.224779,341.75732 59.130996,341.88862 C 59.037209,342.01992 58.990317,342.11058 58.990318,342.1606 C 58.990317,342.6983 59.113801,343.17973 59.360769,343.60489 C 59.607735,344.03004 59.957865,344.24262 60.411162,344.24262 M 64.969116,346.77013 L 63.107483,346.77013 L 63.107483,346.09488 L 64.153186,346.09488 L 64.153186,338.65303 L 63.107483,338.65303 L 63.107483,337.98247 L 64.969116,337.98247 L 64.969116,346.77013 M 70.797857,346.77013 L 68.931534,346.77013 L 68.931534,337.884 L 70.797857,337.884 L 70.797857,338.55925 L 69.747464,338.55925 L 69.747464,346.09488 L 70.797857,346.09488 L 70.797857,346.77013 M 75.829423,341.5041 C 75.829418,342.69205 75.643411,343.5705 75.271402,344.13946 C 74.90251,344.7053 74.349179,344.98665 73.611407,344.98353 C 72.867377,344.98353 72.310919,344.69904 71.942033,344.13008 C 71.57627,343.55799 71.39339,342.68267 71.39339,341.5041 C 71.39339,340.37556 71.577834,339.52837 71.946722,338.96253 C 72.315609,338.3967 72.870503,338.11378 73.611407,338.11377 C 74.349179,338.11378 74.90251,338.3967 75.271402,338.96253 C 75.643411,339.52837 75.829418,340.37556 75.829423,341.5041 M 73.611407,344.26138 C 74.058446,344.26138 74.396071,344.05662 74.624285,343.64709 C 74.852492,343.23756 74.966597,342.53574 74.966601,341.54161 C 74.966597,340.60377 74.858744,339.91914 74.643042,339.48772 C 74.430459,339.05319 74.083455,338.83592 73.602028,338.83592 C 73.154984,338.83592 72.818921,339.06257 72.593839,339.51586 C 72.37188,339.96603 72.260901,340.64128 72.260902,341.54161 C 72.260901,342.44821 72.373443,343.12815 72.598528,343.58144 C 72.82361,344.03473 73.161236,344.26138 73.611407,344.26138 M 79.782464,341.21806 C 80.173231,341.33998 80.482722,341.551 80.710936,341.8511 C 80.939142,342.15122 81.053247,342.50291 81.053251,342.90619 C 81.053247,343.47828 80.828163,343.96752 80.377999,344.37392 C 79.930953,344.78032 79.368244,344.98353 78.689868,344.98353 C 77.908325,344.98353 77.193996,344.78189 76.54688,344.37861 L 76.786032,343.70336 C 77.37375,344.07537 77.986479,344.26138 78.624219,344.26138 C 79.061879,344.26138 79.426078,344.13477 79.716815,343.88155 C 80.010671,343.62521 80.1576,343.30321 80.157604,342.91557 C 80.1576,342.49353 80.010671,342.1731 79.716815,341.95427 C 79.426078,341.73231 79.000919,341.62133 78.441338,341.62133 L 78.230321,341.62133 L 78.230321,340.90857 C 79.387001,340.90857 79.965341,340.56938 79.965345,339.891 C 79.965341,339.56275 79.844984,339.30485 79.604272,339.11727 C 79.363554,338.92971 79.03687,338.83592 78.624219,338.83592 C 78.092768,338.83592 77.558194,338.99536 77.020494,339.31422 L 76.776653,338.64366 C 77.392507,338.29041 78.023993,338.11378 78.671111,338.11377 C 79.340108,338.11378 79.866867,338.27477 80.251389,338.59676 C 80.63903,338.91876 80.832852,339.35018 80.832857,339.891 C 80.832852,340.49123 80.482722,340.92733 79.782464,341.1993 L 79.782464,341.21806 M 85.27358,341.21806 C 85.679978,341.35248 85.99572,341.56819 86.220809,341.86517 C 86.449014,342.16216 86.563119,342.50917 86.563124,342.90619 C 86.563119,343.49703 86.352103,343.99097 85.930075,344.38799 C 85.508039,344.78501 84.965649,344.98353 84.302905,344.98353 C 83.637029,344.98353 83.093076,344.78501 82.671045,344.38799 C 82.249011,343.98784 82.037995,343.49078 82.037996,342.89681 C 82.037995,342.51229 82.150537,342.1731 82.375622,341.87924 C 82.600705,341.58226 82.913321,341.36186 83.313472,341.21806 C 83.016485,341.13053 82.77577,340.95859 82.591327,340.70224 C 82.406883,340.4459 82.314661,340.15673 82.314661,339.83473 C 82.314661,339.34705 82.491289,338.93908 82.844547,338.61083 C 83.197802,338.27946 83.680795,338.11378 84.293526,338.11377 C 84.893747,338.11378 85.375176,338.2779 85.737816,338.60614 C 86.100447,338.93127 86.281764,339.3408 86.281769,339.83473 C 86.281764,340.15985 86.191106,340.44902 86.009792,340.70224 C 85.82847,340.95546 85.583066,341.1274 85.27358,341.21806 M 84.302905,340.87105 C 84.621771,340.87106 84.887495,340.77883 85.100077,340.59439 C 85.312653,340.40682 85.418943,340.1536 85.418947,339.83473 C 85.418943,339.53462 85.314216,339.2939 85.104767,339.11258 C 84.898436,338.92814 84.628023,338.83592 84.293526,338.83592 C 83.96215,338.83592 83.6933,338.92658 83.486975,339.10789 C 83.283772,339.28922 83.182172,339.53149 83.182173,339.83473 C 83.182172,340.15985 83.294714,340.41463 83.519799,340.59907 C 83.744881,340.7804 84.005916,340.87106 84.302905,340.87105 M 84.302905,344.26138 C 84.696799,344.26138 85.026609,344.13477 85.292337,343.88155 C 85.561183,343.62521 85.695608,343.30009 85.695612,342.90619 C 85.695608,342.54355 85.558057,342.23406 85.282958,341.97771 C 85.007852,341.72137 84.681168,341.5932 84.302905,341.5932 C 83.92151,341.5932 83.591699,341.72294 83.313472,341.9824 C 83.038368,342.24188 82.900817,342.54981 82.900818,342.90619 C 82.900817,343.31259 83.02899,343.64084 83.285337,343.89093 C 83.541681,344.1379 83.88087,344.26138 84.302905,344.26138 M 90.619329,341.21806 C 91.025727,341.35248 91.341469,341.56819 91.566558,341.86517 C 91.794763,342.16216 91.908868,342.50917 91.908873,342.90619 C 91.908868,343.49703 91.697852,343.99097 91.275824,344.38799 C 90.853787,344.78501 90.311398,344.98353 89.648653,344.98353 C 88.982778,344.98353 88.438825,344.78501 88.016794,344.38799 C 87.59476,343.98784 87.383744,343.49078 87.383744,342.89681 C 87.383744,342.51229 87.496286,342.1731 87.721371,341.87924 C 87.946454,341.58226 88.25907,341.36186 88.659221,341.21806 C 88.362234,341.13053 88.121519,340.95859 87.937076,340.70224 C 87.752632,340.4459 87.66041,340.15673 87.66041,339.83473 C 87.66041,339.34705 87.837038,338.93908 88.190296,338.61083 C 88.543551,338.27946 89.026544,338.11378 89.639275,338.11377 C 90.239496,338.11378 90.720925,338.2779 91.083565,338.60614 C 91.446196,338.93127 91.627513,339.3408 91.627518,339.83473 C 91.627513,340.15985 91.536855,340.44902 91.355541,340.70224 C 91.174219,340.95546 90.928815,341.1274 90.619329,341.21806 M 89.648653,340.87105 C 89.96752,340.87106 90.233244,340.77883 90.445826,340.59439 C 90.658402,340.40682 90.764692,340.1536 90.764695,339.83473 C 90.764692,339.53462 90.659965,339.2939 90.450516,339.11258 C 90.244185,338.92814 89.973772,338.83592 89.639275,338.83592 C 89.307899,338.83592 89.039049,338.92658 88.832723,339.10789 C 88.629521,339.28922 88.527921,339.53149 88.527922,339.83473 C 88.527921,340.15985 88.640462,340.41463 88.865548,340.59907 C 89.09063,340.7804 89.351665,340.87106 89.648653,340.87105 M 89.648653,344.26138 C 90.042548,344.26138 90.372358,344.13477 90.638086,343.88155 C 90.906932,343.62521 91.041357,343.30009 91.041361,342.90619 C 91.041357,342.54355 90.903806,342.23406 90.628707,341.97771 C 90.353601,341.72137 90.026917,341.5932 89.648653,341.5932 C 89.267259,341.5932 88.937448,341.72294 88.659221,341.9824 C 88.384117,342.24188 88.246566,342.54981 88.246567,342.90619 C 88.246566,343.31259 88.374738,343.64084 88.631086,343.89093 C 88.88743,344.1379 89.226618,344.26138 89.648653,344.26138 M 93.643894,344.98353 C 93.478206,344.96477 93.342218,344.89756 93.235929,344.78189 C 93.129638,344.66622 93.076493,344.53492 93.076494,344.38799 C 93.076493,344.22856 93.128075,344.09413 93.23124,343.98471 C 93.337528,343.8753 93.467264,343.82059 93.620448,343.82059 C 93.795511,343.82059 93.94713,343.89249 94.075305,344.0363 C 94.203476,344.17697 94.267562,344.34735 94.267564,344.54743 C 94.267562,345.16015 93.928373,345.63846 93.249997,345.98234 L 93.067116,345.64471 C 93.451633,345.45714 93.643892,345.23674 93.643894,344.98353 M 102.53941,341.5041 C 102.5394,342.69205 102.3534,343.5705 101.98139,344.13946 C 101.61249,344.7053 101.05916,344.98665 100.32139,344.98353 C 99.577361,344.98353 99.020903,344.69904 98.652017,344.13008 C 98.286254,343.55799 98.103374,342.68267 98.103374,341.5041 C 98.103374,340.37556 98.287817,339.52837 98.656706,338.96253 C 99.025592,338.3967 99.580487,338.11378 100.32139,338.11377 C 101.05916,338.11378 101.61249,338.3967 101.98139,338.96253 C 102.3534,339.52837 102.5394,340.37556 102.53941,341.5041 M 100.32139,344.26138 C 100.76843,344.26138 101.10606,344.05662 101.33427,343.64709 C 101.56248,343.23756 101.67658,342.53574 101.67658,341.54161 C 101.67658,340.60377 101.56873,339.91914 101.35303,339.48772 C 101.14044,339.05319 100.79344,338.83592 100.31201,338.83592 C 99.864968,338.83592 99.528905,339.06257 99.303823,339.51586 C 99.081863,339.96603 98.970884,340.64128 98.970886,341.54161 C 98.970884,342.44821 99.083426,343.12815 99.308512,343.58144 C 99.533594,344.03473 99.87122,344.26138 100.32139,344.26138 M 106.49245,341.21806 C 106.88322,341.33998 107.19271,341.551 107.42092,341.8511 C 107.64913,342.15122 107.76323,342.50291 107.76324,342.90619 C 107.76323,343.47828 107.53815,343.96752 107.08798,344.37392 C 106.64094,344.78032 106.07823,344.98353 105.39985,344.98353 C 104.61831,344.98353 103.90398,344.78189 103.25686,344.37861 L 103.49602,343.70336 C 104.08373,344.07537 104.69646,344.26138 105.3342,344.26138 C 105.77186,344.26138 106.13606,344.13477 106.4268,343.88155 C 106.72065,343.62521 106.86758,343.30321 106.86759,342.91557 C 106.86758,342.49353 106.72065,342.1731 106.4268,341.95427 C 106.13606,341.73231 105.7109,341.62133 105.15132,341.62133 L 104.94031,341.62133 L 104.94031,340.90857 C 106.09698,340.90857 106.67533,340.56938 106.67533,339.891 C 106.67533,339.56275 106.55497,339.30485 106.31426,339.11727 C 106.07354,338.92971 105.74685,338.83592 105.3342,338.83592 C 104.80275,338.83592 104.26818,338.99536 103.73048,339.31422 L 103.48664,338.64366 C 104.10249,338.29041 104.73398,338.11378 105.3811,338.11377 C 106.05009,338.11378 106.57685,338.27477 106.96137,338.59676 C 107.34901,338.91876 107.54284,339.35018 107.54284,339.891 C 107.54284,340.49123 107.19271,340.92733 106.49245,341.1993 L 106.49245,341.21806 M 111.98356,341.21806 C 112.38996,341.35248 112.7057,341.56819 112.93079,341.86517 C 113.159,342.16216 113.2731,342.50917 113.27311,342.90619 C 113.2731,343.49703 113.06209,343.99097 112.64006,344.38799 C 112.21802,344.78501 111.67563,344.98353 111.01289,344.98353 C 110.34701,344.98353 109.80306,344.78501 109.38103,344.38799 C 108.959,343.98784 108.74798,343.49078 108.74798,342.89681 C 108.74798,342.51229 108.86052,342.1731 109.08561,341.87924 C 109.31069,341.58226 109.62331,341.36186 110.02346,341.21806 C 109.72647,341.13053 109.48575,340.95859 109.30131,340.70224 C 109.11687,340.4459 109.02464,340.15673 109.02465,339.83473 C 109.02464,339.34705 109.20127,338.93908 109.55453,338.61083 C 109.90779,338.27946 110.39078,338.11378 111.00351,338.11377 C 111.60373,338.11378 112.08516,338.2779 112.4478,338.60614 C 112.81043,338.93127 112.99175,339.3408 112.99175,339.83473 C 112.99175,340.15985 112.90109,340.44902 112.71978,340.70224 C 112.53845,340.95546 112.29305,341.1274 111.98356,341.21806 M 111.01289,340.87105 C 111.33175,340.87106 111.59748,340.77883 111.81006,340.59439 C 112.02264,340.40682 112.12893,340.1536 112.12893,339.83473 C 112.12893,339.53462 112.0242,339.2939 111.81475,339.11258 C 111.60842,338.92814 111.33801,338.83592 111.00351,338.83592 C 110.67213,338.83592 110.40328,338.92658 110.19696,339.10789 C 109.99376,339.28922 109.89216,339.53149 109.89216,339.83473 C 109.89216,340.15985 110.0047,340.41463 110.22978,340.59907 C 110.45487,340.7804 110.7159,340.87106 111.01289,340.87105 M 111.01289,344.26138 C 111.40678,344.26138 111.73659,344.13477 112.00232,343.88155 C 112.27117,343.62521 112.40559,343.30009 112.4056,342.90619 C 112.40559,342.54355 112.26804,342.23406 111.99294,341.97771 C 111.71784,341.72137 111.39115,341.5932 111.01289,341.5932 C 110.63149,341.5932 110.30168,341.72294 110.02346,341.9824 C 109.74835,342.24188 109.6108,342.54981 109.6108,342.90619 C 109.6108,343.31259 109.73897,343.64084 109.99532,343.89093 C 110.25166,344.1379 110.59085,344.26138 111.01289,344.26138 M 120.05846,344.85692 L 119.13467,344.85692 L 118.22496,342.60139 L 115.55209,342.60139 L 114.65175,344.85692 L 113.73735,344.85692 L 116.48525,338.24038 L 117.31056,338.24038 L 120.05846,344.85692 M 117.96236,341.86986 L 116.8979,339.26733 L 115.83344,341.86986 L 117.96236,341.86986 M 122.12173,346.77013 L 120.26009,346.77013 L 120.26009,346.09488 L 121.3058,346.09488 L 121.3058,338.65303 L 120.26009,338.65303 L 120.26009,337.98247 L 122.12173,337.98247 L 122.12173,346.77013 M 127.95046,346.77013 L 126.08414,346.77013 L 126.08414,337.884 L 127.95046,337.884 L 127.95046,338.55925 L 126.90007,338.55925 L 126.90007,346.09488 L 127.95046,346.09488 L 127.95046,346.77013 M 132.98203,341.5041 C 132.98203,342.69205 132.79602,343.5705 132.42401,344.13946 C 132.05512,344.7053 131.50179,344.98665 130.76402,344.98353 C 130.01999,344.98353 129.46353,344.69904 129.09464,344.13008 C 128.72888,343.55799 128.546,342.68267 128.546,341.5041 C 128.546,340.37556 128.73044,339.52837 129.09933,338.96253 C 129.46822,338.3967 130.02311,338.11378 130.76402,338.11377 C 131.50179,338.11378 132.05512,338.3967 132.42401,338.96253 C 132.79602,339.52837 132.98203,340.37556 132.98203,341.5041 M 130.76402,344.26138 C 131.21106,344.26138 131.54868,344.05662 131.7769,343.64709 C 132.0051,343.23756 132.11921,342.53574 132.11921,341.54161 C 132.11921,340.60377 132.01135,339.91914 131.79565,339.48772 C 131.58307,339.05319 131.23607,338.83592 130.75464,338.83592 C 130.30759,338.83592 129.97153,339.06257 129.74645,339.51586 C 129.52449,339.96603 129.41351,340.64128 129.41351,341.54161 C 129.41351,342.44821 129.52605,343.12815 129.75114,343.58144 C 129.97622,344.03473 130.31385,344.26138 130.76402,344.26138 M 136.93507,341.21806 C 137.32584,341.33998 137.63533,341.551 137.86355,341.8511 C 138.09175,342.15122 138.20586,342.50291 138.20586,342.90619 C 138.20586,343.47828 137.98077,343.96752 137.53061,344.37392 C 137.08356,344.78032 136.52085,344.98353 135.84248,344.98353 C 135.06094,344.98353 134.34661,344.78189 133.69949,344.37861 L 133.93864,343.70336 C 134.52636,344.07537 135.13909,344.26138 135.77683,344.26138 C 136.21449,344.26138 136.57869,344.13477 136.86943,343.88155 C 137.16328,343.62521 137.31021,343.30321 137.31022,342.91557 C 137.31021,342.49353 137.16328,342.1731 136.86943,341.95427 C 136.57869,341.73231 136.15353,341.62133 135.59395,341.62133 L 135.38293,341.62133 L 135.38293,340.90857 C 136.53961,340.90857 137.11795,340.56938 137.11796,339.891 C 137.11795,339.56275 136.99759,339.30485 136.75688,339.11727 C 136.51617,338.92971 136.18948,338.83592 135.77683,338.83592 C 135.24538,338.83592 134.7108,338.99536 134.17311,339.31422 L 133.92926,338.64366 C 134.54512,338.29041 135.1766,338.11378 135.82372,338.11377 C 136.49272,338.11378 137.01948,338.27477 137.404,338.59676 C 137.79164,338.91876 137.98546,339.35018 137.98547,339.891 C 137.98546,340.49123 137.63533,340.92733 136.93507,341.1993 L 136.93507,341.21806 M 142.42619,341.21806 C 142.83259,341.35248 143.14833,341.56819 143.37342,341.86517 C 143.60163,342.16216 143.71573,342.50917 143.71573,342.90619 C 143.71573,343.49703 143.50471,343.99097 143.08269,344.38799 C 142.66065,344.78501 142.11826,344.98353 141.45552,344.98353 C 140.78964,344.98353 140.24569,344.78501 139.82366,344.38799 C 139.40162,343.98784 139.19061,343.49078 139.19061,342.89681 C 139.19061,342.51229 139.30315,342.1731 139.52823,341.87924 C 139.75332,341.58226 140.06593,341.36186 140.46608,341.21806 C 140.1691,341.13053 139.92838,340.95859 139.74394,340.70224 C 139.55949,340.4459 139.46727,340.15673 139.46727,339.83473 C 139.46727,339.34705 139.6439,338.93908 139.99716,338.61083 C 140.35041,338.27946 140.83341,338.11378 141.44614,338.11377 C 142.04636,338.11378 142.52779,338.2779 142.89043,338.60614 C 143.25306,338.93127 143.43438,339.3408 143.43438,339.83473 C 143.43438,340.15985 143.34372,340.44902 143.1624,340.70224 C 142.98108,340.95546 142.73568,341.1274 142.42619,341.21806 M 141.45552,340.87105 C 141.77438,340.87106 142.04011,340.77883 142.25269,340.59439 C 142.46526,340.40682 142.57155,340.1536 142.57156,339.83473 C 142.57155,339.53462 142.46683,339.2939 142.25738,339.11258 C 142.05105,338.92814 141.78063,338.83592 141.44614,338.83592 C 141.11476,338.83592 140.84591,338.92658 140.63959,339.10789 C 140.43638,339.28922 140.33478,339.53149 140.33478,339.83473 C 140.33478,340.15985 140.44732,340.41463 140.67241,340.59907 C 140.89749,340.7804 141.15853,340.87106 141.45552,340.87105 M 141.45552,344.26138 C 141.84941,344.26138 142.17922,344.13477 142.44495,343.88155 C 142.71379,343.62521 142.84822,343.30009 142.84822,342.90619 C 142.84822,342.54355 142.71067,342.23406 142.43557,341.97771 C 142.16046,341.72137 141.83378,341.5932 141.45552,341.5932 C 141.07412,341.5932 140.74431,341.72294 140.46608,341.9824 C 140.19098,342.24188 140.05343,342.54981 140.05343,342.90619 C 140.05343,343.31259 140.1816,343.64084 140.43795,343.89093 C 140.69429,344.1379 141.03348,344.26138 141.45552,344.26138 M 144.58325,341.57444 C 144.58325,340.55219 144.90055,339.72063 145.53517,339.07976 C 146.1729,338.43577 147.00915,338.11378 148.04392,338.11377 C 149.05366,338.11378 149.93055,338.41858 150.67459,339.02817 L 150.28069,339.70812 C 149.59605,339.13291 148.85046,338.8453 148.04392,338.84529 C 147.27488,338.8453 146.65746,339.09852 146.19166,339.60495 C 145.72899,340.10827 145.49765,340.76477 145.49765,341.57444 C 145.49765,342.38412 145.72586,343.0328 146.18228,343.52048 C 146.64183,344.00816 147.26237,344.252 148.04392,344.252 C 148.87547,344.252 149.65545,343.95814 150.38385,343.37042 L 150.76837,344.04099 C 149.9837,344.66935 149.07555,344.98353 148.04392,344.98353 C 146.97476,344.98353 146.1307,344.67247 145.51172,344.05036 C 144.89274,343.42826 144.58325,342.60295 144.58325,341.57444 M 153.08955,346.77013 L 151.22792,346.77013 L 151.22792,346.09488 L 152.27362,346.09488 L 152.27362,338.65303 L 151.22792,338.65303 L 151.22792,337.98247 L 153.08955,337.98247 L 153.08955,346.77013 M 41.424379,358.77462 L 39.558056,358.77462 L 39.558056,349.88848 L 41.424379,349.88848 L 41.424379,350.56374 L 40.373986,350.56374 L 40.373986,358.09936 L 41.424379,358.09936 L 41.424379,358.77462 M 46.455946,353.50859 C 46.455941,354.69653 46.269935,355.57498 45.897925,356.14395 C 45.529034,356.70978 44.975702,356.99114 44.23793,356.98801 C 43.4939,356.98801 42.937443,356.70353 42.568556,356.13457 C 42.202794,355.56248 42.019913,354.68715 42.019914,353.50859 C 42.019913,352.38004 42.204357,351.53285 42.573245,350.96701 C 42.942132,350.40118 43.497026,350.11826 44.23793,350.11826 C 44.975702,350.11826 45.529034,350.40118 45.897925,350.96701 C 46.269935,351.53285 46.455941,352.38004 46.455946,353.50859 M 44.23793,356.26587 C 44.684969,356.26587 45.022595,356.0611 45.250808,355.65157 C 45.479015,355.24205 45.59312,354.54022 45.593124,353.5461 C 45.59312,352.60825 45.485267,351.92362 45.269566,351.49221 C 45.056983,351.05768 44.709978,350.84041 44.228551,350.8404 C 43.781507,350.84041 43.445444,351.06705 43.220362,351.52034 C 42.998403,351.97052 42.887424,352.64577 42.887425,353.5461 C 42.887424,354.45269 42.999966,355.13263 43.225051,355.58593 C 43.450134,356.03922 43.78776,356.26587 44.23793,356.26587 M 50.408986,353.22254 C 50.799753,353.34447 51.109244,353.55548 51.337458,353.85559 C 51.565664,354.15571 51.679769,354.5074 51.679774,354.91067 C 51.679769,355.48276 51.454685,355.97201 51.004521,356.37841 C 50.557475,356.78481 49.994766,356.98801 49.31639,356.98801 C 48.534847,356.98801 47.820518,356.78637 47.173402,356.3831 L 47.412554,355.70785 C 48.000272,356.07986 48.613001,356.26587 49.250741,356.26587 C 49.688402,356.26587 50.0526,356.13926 50.343337,355.88604 C 50.637193,355.62969 50.784122,355.3077 50.784126,354.92005 C 50.784122,354.49802 50.637193,354.17759 50.343337,353.95875 C 50.0526,353.7368 49.627441,353.62582 49.06786,353.62582 L 48.856844,353.62582 L 48.856844,352.91305 C 50.013523,352.91306 50.591863,352.57387 50.591867,351.89548 C 50.591863,351.56724 50.471506,351.30933 50.230795,351.12176 C 49.990076,350.93419 49.663392,350.84041 49.250741,350.8404 C 48.71929,350.84041 48.184716,350.99984 47.647016,351.31871 L 47.403175,350.64814 C 48.019029,350.29489 48.650515,350.11826 49.297633,350.11826 C 49.96663,350.11826 50.493389,350.27926 50.877911,350.60125 C 51.265552,350.92325 51.459374,351.35466 51.459379,351.89548 C 51.459374,352.49571 51.109244,352.93181 50.408986,353.20378 L 50.408986,353.22254 M 55.900101,353.22254 C 56.306499,353.35697 56.622241,353.57268 56.84733,353.86966 C 57.075535,354.16665 57.18964,354.51365 57.189645,354.91067 C 57.18964,355.50152 56.978624,355.99545 56.556596,356.39248 C 56.13456,356.7895 55.59217,356.98801 54.929426,356.98801 C 54.26355,356.98801 53.719597,356.7895 53.297566,356.39248 C 52.875532,355.99233 52.664516,355.49527 52.664517,354.90129 C 52.664516,354.51678 52.777058,354.17759 53.002143,353.88373 C 53.227226,353.58674 53.539843,353.36635 53.939993,353.22254 C 53.643006,353.13501 53.402291,352.96307 53.217848,352.70672 C 53.033404,352.45038 52.941182,352.16121 52.941183,351.83921 C 52.941182,351.35154 53.11781,350.94357 53.471068,350.61532 C 53.824324,350.28395 54.307316,350.11826 54.920047,350.11826 C 55.520268,350.11826 56.001698,350.28239 56.364337,350.61063 C 56.726968,350.93576 56.908286,351.34528 56.90829,351.83921 C 56.908286,352.16434 56.817627,352.45351 56.636314,352.70672 C 56.454992,352.95995 56.209588,353.13189 55.900101,353.22254 M 54.929426,352.87554 C 55.248292,352.87554 55.514016,352.78332 55.726599,352.59887 C 55.939174,352.41131 56.045464,352.15809 56.045468,351.83921 C 56.045464,351.53911 55.940737,351.29839 55.731288,351.11707 C 55.524957,350.93263 55.254544,350.84041 54.920047,350.8404 C 54.588671,350.84041 54.319821,350.93107 54.113496,351.11238 C 53.910293,351.2937 53.808693,351.53598 53.808694,351.83921 C 53.808693,352.16434 53.921235,352.41912 54.14632,352.60356 C 54.371402,352.78488 54.632437,352.87554 54.929426,352.87554 M 54.929426,356.26587 C 55.32332,356.26587 55.65313,356.13926 55.918858,355.88604 C 56.187704,355.62969 56.32213,355.30457 56.322134,354.91067 C 56.32213,354.54804 56.184578,354.23855 55.909479,353.9822 C 55.634373,353.72586 55.307689,353.59769 54.929426,353.59768 C 54.548031,353.59769 54.21822,353.72742 53.939993,353.98689 C 53.664889,354.24636 53.527338,354.55429 53.527339,354.91067 C 53.527338,355.31708 53.655511,355.64532 53.911858,355.89542 C 54.168202,356.14238 54.507391,356.26587 54.929426,356.26587 M 63.426351,356.8614 L 58.376026,356.8614 L 58.376026,350.24487 L 63.332566,350.24487 L 63.332566,350.97639 L 59.238849,350.97639 L 59.238849,353.04904 L 62.938669,353.04904 L 62.938669,353.78056 L 59.238849,353.78056 L 59.238849,356.12988 L 63.426351,356.12988 L 63.426351,356.8614 M 65.339567,356.98801 C 65.173879,356.96925 65.037891,356.90204 64.931602,356.78637 C 64.825311,356.67071 64.772166,356.53941 64.772167,356.39248 C 64.772166,356.23304 64.823748,356.09862 64.926913,355.9892 C 65.033201,355.87979 65.162937,355.82508 65.316121,355.82508 C 65.491184,355.82508 65.642803,355.89698 65.770978,356.04078 C 65.899149,356.18146 65.963235,356.35184 65.963237,356.55191 C 65.963235,357.16464 65.624046,357.64294 64.94567,357.98682 L 64.762789,357.6492 C 65.147306,357.46163 65.339565,357.24123 65.339567,356.98801 M 74.235078,353.50859 C 74.235073,354.69653 74.049066,355.57498 73.677057,356.14395 C 73.308165,356.70978 72.754834,356.99114 72.017062,356.98801 C 71.273032,356.98801 70.716574,356.70353 70.347688,356.13457 C 69.981925,355.56248 69.799045,354.68715 69.799045,353.50859 C 69.799045,352.38004 69.983488,351.53285 70.352377,350.96701 C 70.721263,350.40118 71.276158,350.11826 72.017062,350.11826 C 72.754834,350.11826 73.308165,350.40118 73.677057,350.96701 C 74.049066,351.53285 74.235073,352.38004 74.235078,353.50859 M 72.017062,356.26587 C 72.464101,356.26587 72.801726,356.0611 73.02994,355.65157 C 73.258147,355.24205 73.372252,354.54022 73.372256,353.5461 C 73.372252,352.60825 73.264399,351.92362 73.048697,351.49221 C 72.836114,351.05768 72.48911,350.84041 72.007683,350.8404 C 71.560639,350.84041 71.224576,351.06705 70.999494,351.52034 C 70.777534,351.97052 70.666556,352.64577 70.666557,353.5461 C 70.666556,354.45269 70.779098,355.13263 71.004183,355.58593 C 71.229265,356.03922 71.566891,356.26587 72.017062,356.26587 M 78.188119,353.22254 C 78.578886,353.34447 78.888376,353.55548 79.116591,353.85559 C 79.344797,354.15571 79.458902,354.5074 79.458906,354.91067 C 79.458902,355.48276 79.233818,355.97201 78.783654,356.37841 C 78.336608,356.78481 77.773899,356.98801 77.095523,356.98801 C 76.313979,356.98801 75.599651,356.78637 74.952535,356.3831 L 75.191687,355.70785 C 75.779405,356.07986 76.392134,356.26587 77.029874,356.26587 C 77.467534,356.26587 77.831733,356.13926 78.122469,355.88604 C 78.416326,355.62969 78.563255,355.3077 78.563259,354.92005 C 78.563255,354.49802 78.416326,354.17759 78.122469,353.95875 C 77.831733,353.7368 77.406574,353.62582 76.846993,353.62582 L 76.635976,353.62582 L 76.635976,352.91305 C 77.792656,352.91306 78.370996,352.57387 78.371,351.89548 C 78.370996,351.56724 78.250639,351.30933 78.009927,351.12176 C 77.769209,350.93419 77.442525,350.84041 77.029874,350.8404 C 76.498423,350.84041 75.963849,350.99984 75.426149,351.31871 L 75.182308,350.64814 C 75.798162,350.29489 76.429648,350.11826 77.076766,350.11826 C 77.745763,350.11826 78.272522,350.27926 78.657044,350.60125 C 79.044685,350.92325 79.238507,351.35466 79.238511,351.89548 C 79.238507,352.49571 78.888376,352.93181 78.188119,353.20378 L 78.188119,353.22254 M 86.40838,356.8614 L 85.484597,356.8614 L 84.574882,354.60587 L 81.902008,354.60587 L 81.001672,356.8614 L 80.087267,356.8614 L 82.835169,350.24487 L 83.660478,350.24487 L 86.40838,356.8614 M 84.312284,353.87435 L 83.247823,351.27181 L 82.183363,353.87435 L 84.312284,353.87435 M 90.90068,353.26943 C 91.363348,353.35384 91.722857,353.53985 91.979208,353.82746 C 92.235548,354.11194 92.363721,354.46363 92.363727,354.88254 C 92.363721,355.48902 92.130822,355.97044 91.665028,356.32683 C 91.199225,356.68321 90.647456,356.8614 90.009722,356.8614 L 87.224306,356.8614 L 87.224306,350.24487 L 89.817463,350.24487 C 90.539604,350.24487 91.103876,350.39024 91.510283,350.68097 C 91.916679,350.96858 92.11988,351.37342 92.119886,351.89548 C 92.11988,352.21748 92.012027,352.5004 91.796327,352.74424 C 91.583743,352.98496 91.285194,353.16002 90.90068,353.26943 M 88.087129,352.92243 L 89.718989,352.92243 C 90.159775,352.92243 90.52241,352.83021 90.806895,352.64576 C 91.094498,352.46132 91.238302,352.21436 91.238306,351.90486 C 91.238302,351.28589 90.725611,350.9764 89.700232,350.97639 L 88.087129,350.97639 L 88.087129,352.92243 M 88.087129,356.12988 L 89.77057,356.12988 C 90.277006,356.12988 90.68497,356.0189 90.994465,355.79694 C 91.303951,355.57186 91.458696,355.26393 91.458701,354.87316 C 91.458696,354.49802 91.300825,354.20104 90.985087,353.9822 C 90.66934,353.76337 90.247307,353.65396 89.718989,353.65395 L 88.087129,353.65395 L 88.087129,356.12988 M 94.886545,358.77462 L 93.024912,358.77462 L 93.024912,358.09936 L 94.070615,358.09936 L 94.070615,350.65752 L 93.024912,350.65752 L 93.024912,349.98696 L 94.886545,349.98696 L 94.886545,358.77462"
         id="flowRoot5601" />
      <path
         id="path5611"
         d="M 33.485656,276.63938 L 192.78099,276.63938"
         style="fill:none;fill-rule:evenodd;stroke:#000000;stroke-width:1.00037384;stroke-linecap:butt;stroke-linejoin:miter;marker-end:url(#Arrow2Lend);stroke-miterlimit:4;stroke-dasharray:none;stroke-opacity:1"
         sodipodi:nodetypes="cc" />
      <path
         style="fill:none;fill-rule:evenodd;stroke:#000000;stroke-width:1px;stroke-linecap:butt;stroke-linejoin:miter;stroke-opacity:1"
         d="M 33.660204,159.69522 L 33.660204,276.98406"
         id="path5615"
         sodipodi:nodetypes="cc" />
      <ellipse
         style="fill:#ffffff;stroke:#000000"
         cx="18"
         cy="-182"
         rx="18"
         ry="18"
         id="ellipse2666"
         sodipodi:cx="18"
         sodipodi:cy="-182"
         sodipodi:rx="18"
         sodipodi:ry="18"
         transform="matrix(0.73922,0,0,0.73922,20.354244,281.07554)" />
      <text
         x="33.660202"
         y="149.56831"
         style="font-size:10.40388775px;font-style:normal;font-variant:normal;font-weight:bold;font-stretch:normal;text-align:center;line-height:125%;writing-mode:lr-tb;text-anchor:middle;font-family:Sans;-inkscape-font-specification:Sans Bold"
         id="text2668"
         sodipodi:linespacing="125%">0</text>
      <path
         sodipodi:nodetypes="cc"
         id="path5619"
         d="M 93.182535,189.91655 L 364.99127,189.91655"
         style="fill:none;fill-rule:evenodd;stroke:#000000;stroke-width:1.00037384;stroke-linecap:butt;stroke-linejoin:miter;marker-end:url(#Arrow2Lend);stroke-miterlimit:4;stroke-dasharray:none;stroke-opacity:1" />
      <path
         sodipodi:nodetypes="cc"
         style="fill:none;fill-rule:evenodd;stroke:#000000;stroke-width:1.00037384;stroke-linecap:butt;stroke-linejoin:miter;marker-end:url(#Arrow2Lend);stroke-miterlimit:4;stroke-dasharray:none;stroke-opacity:1"
         d="M 284.94697,103.19371 L 365.11685,103.19371"
         id="path5630" />
      <path
         sodipodi:nodetypes="ccc"
         id="path5632"
         d="M 63.495545,60.245419 L 381.90576,60.245419 L 381.7379,85.564689"
         style="fill:none;fill-rule:evenodd;stroke:#000000;stroke-width:1.00037384;stroke-linecap:butt;stroke-linejoin:miter;marker-end:url(#Arrow2Lend);stroke-miterlimit:4;stroke-dasharray:none;stroke-opacity:1" />
    </g>
  </g>
</svg>
