<?xml version="1.0" encoding="UTF-8" standalone="no"?>
<!-- Created with Inkscape (http://www.inkscape.org/) -->
<svg
   xmlns:dc="http://purl.org/dc/elements/1.1/"
   xmlns:cc="http://creativecommons.org/ns#"
   xmlns:rdf="http://www.w3.org/1999/02/22-rdf-syntax-ns#"
   xmlns:svg="http://www.w3.org/2000/svg"
   xmlns="http://www.w3.org/2000/svg"
   xmlns:sodipodi="http://sodipodi.sourceforge.net/DTD/sodipodi-0.dtd"
   xmlns:inkscape="http://www.inkscape.org/namespaces/inkscape"
   width="672.59229"
   height="245.93619"
   id="svg2"
   sodipodi:version="0.32"
   inkscape:version="0.46"
   sodipodi:docname="memory-pointing.svg"
   inkscape:output_extension="org.inkscape.output.svg.inkscape"
   version="1.0">
  <defs
     id="defs4">
    <marker
       inkscape:stockid="Arrow2Lend"
       orient="auto"
       refY="0"
       refX="0"
       id="Arrow2Lend"
       style="overflow:visible">
      <path
         id="path3267"
         style="font-size:12px;fill-rule:evenodd;stroke-width:0.625;stroke-linejoin:round"
         d="M 8.7185878,4.0337352 L -2.2072895,0.016013256 L 8.7185884,-4.0017078 C 6.97309,-1.6296469 6.9831476,1.6157441 8.7185878,4.0337352 z"
         transform="matrix(-1.1,0,0,-1.1,-1.1,0)" />
    </marker>
    <inkscape:perspective
       sodipodi:type="inkscape:persp3d"
       inkscape:vp_x="0 : 526.18109 : 1"
       inkscape:vp_y="0 : 1000 : 0"
       inkscape:vp_z="744.09448 : 526.18109 : 1"
       inkscape:persp3d-origin="372.04724 : 350.78739 : 1"
       id="perspective10" />
  </defs>
  <sodipodi:namedview
     id="base"
     pagecolor="#ffffff"
     bordercolor="#666666"
     borderopacity="1.0"
     gridtolerance="10000"
     guidetolerance="10"
     objecttolerance="10"
     inkscape:pageopacity="0.0"
     inkscape:pageshadow="2"
     inkscape:zoom="1.4079852"
     inkscape:cx="336.29614"
     inkscape:cy="122.9681"
     inkscape:document-units="px"
     inkscape:current-layer="layer1"
     showgrid="false"
     showguides="true"
     inkscape:guide-bbox="true"
     inkscape:window-width="1024"
     inkscape:window-height="724"
     inkscape:window-x="0"
     inkscape:window-y="19" />
  <metadata
     id="metadata7">
    <rdf:RDF>
      <cc:Work
         rdf:about="">
        <dc:format>image/svg+xml</dc:format>
        <dc:type
           rdf:resource="http://purl.org/dc/dcmitype/StillImage" />
      </cc:Work>
    </rdf:RDF>
  </metadata>
  <g
     inkscape:label="Layer 1"
     inkscape:groupmode="layer"
     id="layer1"
     transform="translate(-33.001022,-341.26874)">
    <rect
       style="opacity:1;fill:#cccccc;fill-opacity:1;fill-rule:evenodd;stroke:#000000;stroke-width:1;stroke-linejoin:round;stroke-miterlimit:4;stroke-dasharray:none;stroke-dashoffset:0;stroke-opacity:1"
       id="rect2383"
       width="29.072336"
       height="24.357897"
       x="257.5126"
       y="444.98621" />
    <rect
       style="opacity:1;fill:#cccccc;fill-opacity:1;fill-rule:evenodd;stroke:#000000;stroke-width:1;stroke-linejoin:round;stroke-miterlimit:4;stroke-dasharray:none;stroke-dashoffset:0;stroke-opacity:1"
       id="rect3157"
       width="29.072336"
       height="24.357897"
       x="317.65729"
       y="444.98621" />
    <rect
       style="opacity:1;fill:#cccccc;fill-opacity:1;fill-rule:evenodd;stroke:#000000;stroke-width:1;stroke-linejoin:round;stroke-miterlimit:4;stroke-dasharray:none;stroke-dashoffset:0;stroke-opacity:1"
       id="rect3159"
       width="29.072336"
       height="24.357897"
       x="377.80194"
       y="444.98621" />
    <rect
       style="opacity:1;fill:#cccccc;fill-opacity:1;fill-rule:evenodd;stroke:#000000;stroke-width:1;stroke-linejoin:round;stroke-miterlimit:4;stroke-dasharray:none;stroke-dashoffset:0;stroke-opacity:1"
       id="rect3161"
       width="29.072336"
       height="24.357897"
       x="437.94662"
       y="444.98621" />
    <rect
       style="opacity:1;fill:none;fill-opacity:1;fill-rule:evenodd;stroke:#000000;stroke-width:1;stroke-linejoin:round;stroke-miterlimit:4;stroke-dasharray:none;stroke-dashoffset:0;stroke-opacity:1"
       id="rect3163"
       width="29.072336"
       height="24.357897"
       x="498.09128"
       y="444.98621" />
    <rect
       style="opacity:1;fill:#cccccc;fill-opacity:1;fill-rule:evenodd;stroke:#000000;stroke-width:1;stroke-linejoin:round;stroke-miterlimit:4;stroke-dasharray:none;stroke-dashoffset:0;stroke-opacity:1"
       id="rect3165"
       width="29.072336"
       height="24.357897"
       x="167.29559"
       y="444.98621" />
    <rect
       style="opacity:1;fill:#cccccc;fill-opacity:1;fill-rule:evenodd;stroke:#000000;stroke-width:1;stroke-linejoin:round;stroke-miterlimit:4;stroke-dasharray:none;stroke-dashoffset:0;stroke-opacity:1"
       id="rect3167"
       width="29.072336"
       height="24.357897"
       x="227.44026"
       y="444.98621" />
    <rect
       style="opacity:1;fill:#cccccc;fill-opacity:1;fill-rule:evenodd;stroke:#000000;stroke-width:1;stroke-linejoin:round;stroke-miterlimit:4;stroke-dasharray:none;stroke-dashoffset:0;stroke-opacity:1"
       id="rect3169"
       width="29.072336"
       height="24.357897"
       x="287.58493"
       y="444.98621" />
    <rect
       style="opacity:1;fill:#cccccc;fill-opacity:1;fill-rule:evenodd;stroke:#000000;stroke-width:1;stroke-linejoin:round;stroke-miterlimit:4;stroke-dasharray:none;stroke-dashoffset:0;stroke-opacity:1"
       id="rect3171"
       width="29.072336"
       height="24.357897"
       x="347.72961"
       y="444.98621" />
    <rect
       style="opacity:1;fill:#cccccc;fill-opacity:1;fill-rule:evenodd;stroke:#000000;stroke-width:1;stroke-linejoin:round;stroke-miterlimit:4;stroke-dasharray:none;stroke-dashoffset:0;stroke-opacity:1"
       id="rect3173"
       width="29.072336"
       height="24.357897"
       x="407.87427"
       y="444.98621" />
    <rect
       style="opacity:1;fill:#cccccc;fill-opacity:1;fill-rule:evenodd;stroke:#000000;stroke-width:1;stroke-linejoin:round;stroke-miterlimit:4;stroke-dasharray:none;stroke-dashoffset:0;stroke-opacity:1"
       id="rect3175"
       width="29.072336"
       height="24.357897"
       x="468.01895"
       y="444.98621" />
    <rect
       style="opacity:1;fill:none;fill-opacity:1;fill-rule:evenodd;stroke:#000000;stroke-width:1;stroke-linejoin:round;stroke-miterlimit:4;stroke-dasharray:none;stroke-dashoffset:0;stroke-opacity:1"
       id="rect3177"
       width="29.072336"
       height="24.357897"
       x="558.23596"
       y="444.98621" />
    <rect
       style="opacity:1;fill:none;fill-opacity:1;fill-rule:evenodd;stroke:#000000;stroke-width:1;stroke-linejoin:round;stroke-miterlimit:4;stroke-dasharray:none;stroke-dashoffset:0;stroke-opacity:1"
       id="rect3179"
       width="29.072336"
       height="24.357897"
       x="528.16364"
       y="444.98621" />
    <rect
       style="opacity:1;fill:none;fill-opacity:1;fill-rule:evenodd;stroke:#000000;stroke-width:1;stroke-linejoin:round;stroke-miterlimit:4;stroke-dasharray:1, 2;stroke-dashoffset:0;stroke-opacity:1"
       id="rect3181"
       width="29.072336"
       height="24.357897"
       x="588.30829"
       y="444.98621" />
    <rect
       style="opacity:1;fill:none;fill-opacity:1;fill-rule:evenodd;stroke:#000000;stroke-width:1;stroke-linejoin:round;stroke-miterlimit:4;stroke-dasharray:none;stroke-dashoffset:0;stroke-opacity:1"
       id="rect3183"
       width="29.072336"
       height="24.357897"
       x="137.22325"
       y="444.98621" />
    <rect
       y="444.98621"
       x="197.36792"
       height="24.357897"
       width="29.072336"
       id="rect3155"
       style="opacity:1;fill:#cccccc;fill-opacity:1;fill-rule:evenodd;stroke:#000000;stroke-width:1;stroke-linejoin:round;stroke-miterlimit:4;stroke-dasharray:none;stroke-dashoffset:0;stroke-opacity:1" />
    <flowRoot
       xml:space="preserve"
       id="flowRoot3185"
       style="font-size:16px;font-style:normal;font-variant:normal;font-weight:normal;font-stretch:normal;fill:#000000;fill-opacity:1;stroke:none;stroke-width:1px;stroke-linecap:butt;stroke-linejoin:miter;stroke-opacity:1;font-family:Courier;-inkscape-font-specification:Courier"><flowRegion
         id="flowRegion3187"><rect
           id="rect3189"
           width="50.287273"
           height="25.929375"
           x="129.64688"
           y="501.55942" /></flowRegion><flowPara
         id="flowPara3191" /></flowRoot>    <text
       xml:space="preserve"
       style="font-size:16px;font-style:normal;font-variant:normal;font-weight:bold;font-stretch:normal;text-align:start;line-height:125%;writing-mode:lr-tb;text-anchor:start;fill:#000000;fill-opacity:1;stroke:none;stroke-width:1px;stroke-linecap:butt;stroke-linejoin:miter;stroke-opacity:1;font-family:Courier;-inkscape-font-specification:Courier Bold"
       x="146.93542"
       y="462.46115"
       id="text3193"
       sodipodi:linespacing="125%"><tspan
         sodipodi:role="line"
         id="tspan3195"
         x="146.93542"
         y="462.46115">0</tspan></text>
    <flowRoot
       xml:space="preserve"
       id="flowRoot3197"
       style="font-size:16px;font-style:normal;font-variant:normal;font-weight:bold;font-stretch:normal;text-align:start;line-height:125%;writing-mode:lr-tb;text-anchor:start;fill:#000000;fill-opacity:1;stroke:none;stroke-width:1px;stroke-linecap:butt;stroke-linejoin:miter;stroke-opacity:1;font-family:Courier;-inkscape-font-specification:Courier Bold"
       transform="translate(-57.132489,-70.499266)"><flowRegion
         id="flowRegion3199"><rect
           id="rect3201"
           width="28.286591"
           height="22.786421"
           x="234.15012"
           y="518.84564"
           style="font-size:16px;font-style:normal;font-variant:normal;font-weight:bold;font-stretch:normal;text-align:start;line-height:125%;writing-mode:lr-tb;text-anchor:start;font-family:Courier;-inkscape-font-specification:Courier Bold" /></flowRegion><flowPara
         id="flowPara3203">M</flowPara></flowRoot>    <text
       xml:space="preserve"
       style="font-size:16px;font-style:normal;font-variant:normal;font-weight:bold;font-stretch:normal;text-align:start;line-height:125%;writing-mode:lr-tb;text-anchor:start;fill:#000000;fill-opacity:1;stroke:none;stroke-width:1px;stroke-linecap:butt;stroke-linejoin:miter;stroke-opacity:1;font-family:Courier;-inkscape-font-specification:Courier Bold"
       x="207.00809"
       y="462.46115"
       id="text3205"
       sodipodi:linespacing="125%"><tspan
         sodipodi:role="line"
         id="tspan3207"
         x="207.00809"
         y="462.46115">y</tspan></text>
    <text
       xml:space="preserve"
       style="font-size:16px;font-style:normal;font-variant:normal;font-weight:bold;font-stretch:normal;text-align:start;line-height:125%;writing-mode:lr-tb;text-anchor:start;fill:#000000;fill-opacity:1;stroke:none;stroke-width:1px;stroke-linecap:butt;stroke-linejoin:miter;stroke-opacity:1;font-family:Courier;-inkscape-font-specification:Courier Bold"
       x="267.53677"
       y="462.46115"
       id="text3209"
       sodipodi:linespacing="125%"><tspan
         sodipodi:role="line"
         id="tspan3211"
         x="267.53677"
         y="462.46115">C</tspan></text>
    <text
       xml:space="preserve"
       style="font-size:16px;font-style:normal;font-variant:normal;font-weight:bold;font-stretch:normal;text-align:start;line-height:125%;writing-mode:lr-tb;text-anchor:start;fill:#000000;fill-opacity:1;stroke:none;stroke-width:1px;stroke-linecap:butt;stroke-linejoin:miter;stroke-opacity:1;font-family:Courier;-inkscape-font-specification:Courier Bold"
       x="297.20111"
       y="462.46115"
       id="text3213"
       sodipodi:linespacing="125%"><tspan
         sodipodi:role="line"
         id="tspan3215"
         x="297.20111"
         y="462.46115">o</tspan></text>
    <text
       xml:space="preserve"
       style="font-size:16px;font-style:normal;font-variant:normal;font-weight:bold;font-stretch:normal;text-align:start;line-height:125%;writing-mode:lr-tb;text-anchor:start;fill:#000000;fill-opacity:1;stroke:none;stroke-width:1px;stroke-linecap:butt;stroke-linejoin:miter;stroke-opacity:1;font-family:Courier;-inkscape-font-specification:Courier Bold"
       x="326.93747"
       y="462.46115"
       id="text3217"
       sodipodi:linespacing="125%"><tspan
         sodipodi:role="line"
         id="tspan3219"
         x="326.93747"
         y="462.46115">n</tspan></text>
    <text
       xml:space="preserve"
       style="font-size:16px;font-style:normal;font-variant:normal;font-weight:bold;font-stretch:normal;text-align:start;line-height:125%;writing-mode:lr-tb;text-anchor:start;fill:#000000;fill-opacity:1;stroke:none;stroke-width:1px;stroke-linecap:butt;stroke-linejoin:miter;stroke-opacity:1;font-family:Courier;-inkscape-font-specification:Courier Bold"
       x="357.04178"
       y="462.46115"
       id="text3221"
       sodipodi:linespacing="125%"><tspan
         sodipodi:role="line"
         id="tspan3223"
         x="357.04178"
         y="462.46115">t</tspan></text>
    <text
       xml:space="preserve"
       style="font-size:16px;font-style:normal;font-variant:normal;font-weight:bold;font-stretch:normal;text-align:start;line-height:125%;writing-mode:lr-tb;text-anchor:start;fill:#000000;fill-opacity:1;stroke:none;stroke-width:1px;stroke-linecap:butt;stroke-linejoin:miter;stroke-opacity:1;font-family:Courier;-inkscape-font-specification:Courier Bold"
       x="387.5621"
       y="462.46115"
       id="text3225"
       sodipodi:linespacing="125%"><tspan
         sodipodi:role="line"
         id="tspan3227"
         x="387.5621"
         y="462.46115">e</tspan></text>
    <text
       xml:space="preserve"
       style="font-size:16px;font-style:normal;font-variant:normal;font-weight:bold;font-stretch:normal;text-align:start;line-height:125%;writing-mode:lr-tb;text-anchor:start;fill:#000000;fill-opacity:1;stroke:none;stroke-width:1px;stroke-linecap:butt;stroke-linejoin:miter;stroke-opacity:1;font-family:Courier;-inkscape-font-specification:Courier Bold"
       x="417.15445"
       y="462.46115"
       id="text3229"
       sodipodi:linespacing="125%"><tspan
         sodipodi:role="line"
         id="tspan3231"
         x="417.15445"
         y="462.46115">n</tspan></text>
    <text
       xml:space="preserve"
       style="font-size:16px;font-style:normal;font-variant:normal;font-weight:bold;font-stretch:normal;text-align:start;line-height:125%;writing-mode:lr-tb;text-anchor:start;fill:#000000;fill-opacity:1;stroke:none;stroke-width:1px;stroke-linecap:butt;stroke-linejoin:miter;stroke-opacity:1;font-family:Courier;-inkscape-font-specification:Courier Bold"
       x="447.25879"
       y="462.46115"
       id="text3233"
       sodipodi:linespacing="125%"><tspan
         sodipodi:role="line"
         id="tspan3235"
         x="447.25879"
         y="462.46115">t</tspan></text>
    <text
       xml:space="preserve"
       style="font-size:16px;font-style:normal;font-variant:normal;font-weight:bold;font-stretch:normal;text-align:start;line-height:125%;writing-mode:lr-tb;text-anchor:start;fill:#000000;fill-opacity:1;stroke:none;stroke-width:1px;stroke-linecap:butt;stroke-linejoin:miter;stroke-opacity:1;font-family:Courier;-inkscape-font-specification:Courier Bold"
       x="477.73111"
       y="462.46115"
       id="text3237"
       sodipodi:linespacing="125%"><tspan
         sodipodi:role="line"
         id="tspan3239"
         x="477.73111"
         y="462.46115">.</tspan></text>
    <path
       style="fill:none;fill-rule:evenodd;stroke:#000000;stroke-width:1px;stroke-linecap:butt;stroke-linejoin:miter;marker-end:url(#Arrow2Lend);stroke-opacity:1"
       d="M 151.7418,401.7706 L 151.7418,443.41474"
       id="path3241" />
    <path
       id="path4021"
       d="M 181.84938,511.81628 L 181.84938,470.17214"
       style="fill:none;fill-rule:evenodd;stroke:#000000;stroke-width:1px;stroke-linecap:butt;stroke-linejoin:miter;marker-end:url(#Arrow2Lend);stroke-opacity:1" />
    <path
       style="fill:none;fill-rule:evenodd;stroke:#000000;stroke-width:1px;stroke-linecap:butt;stroke-linejoin:miter;marker-end:url(#Arrow2Lend);stroke-opacity:1"
       d="M 512.64506,511.03054 L 512.64506,469.3864"
       id="path4023"
       inkscape:transform-center-x="135.14704"
       inkscape:transform-center-y="-31.429545" />
    <path
       inkscape:transform-center-y="31.429543"
       inkscape:transform-center-x="135.11181"
       id="path4025"
       d="M 602.82684,401.7706 L 602.82684,443.41474"
       style="fill:none;fill-rule:evenodd;stroke:#000000;stroke-width:1px;stroke-linecap:butt;stroke-linejoin:miter;marker-end:url(#Arrow2Lend);stroke-opacity:1" />
    <text
       sodipodi:linespacing="125%"
       id="text4027"
       y="462.46115"
       x="566.93542"
       style="font-size:16px;font-style:normal;font-variant:normal;font-weight:bold;font-stretch:normal;text-align:start;line-height:125%;writing-mode:lr-tb;text-anchor:start;fill:#000000;fill-opacity:1;stroke:none;stroke-width:1px;stroke-linecap:butt;stroke-linejoin:miter;stroke-opacity:1;font-family:Courier;-inkscape-font-specification:Courier Bold"
       xml:space="preserve"><tspan
         y="462.46115"
         x="566.93542"
         id="tspan4029"
         sodipodi:role="line">0</tspan></text>
    <path
       transform="translate(-40.346054,10.643125)"
       style="font-size:16px;font-style:normal;font-variant:normal;font-weight:normal;font-stretch:normal;text-align:start;line-height:125%;writing-mode:lr-tb;text-anchor:start;fill:#000000;fill-opacity:1;stroke:none;stroke-width:1px;stroke-linecap:butt;stroke-linejoin:miter;stroke-opacity:1;font-family:Sans;-inkscape-font-specification:Sans"
       d="M 134.44531,375.78429 C 135.11198,374.99263 135.9401,374.59679 136.92969,374.59679 C 137.8776,374.59679 138.66926,374.977 139.30469,375.73741 C 139.9401,376.49263 140.2578,377.48221 140.25781,378.70616 C 140.2578,380.06554 139.93749,381.14627 139.29688,381.94835 C 138.66145,382.74522 137.85676,383.14366 136.88281,383.14366 C 135.88802,383.14366 135.07552,382.75824 134.44531,381.98741 L 134.44531,382.93272 L 133.08594,382.93272 L 133.08594,371.31554 L 134.44531,371.31554 L 134.44531,375.78429 M 134.44531,377.08897 L 134.44531,380.56554 C 134.65364,380.94575 134.95312,381.27127 135.34375,381.5421 C 135.73958,381.80772 136.14583,381.94054 136.5625,381.94054 C 137.27604,381.94054 137.83593,381.6671 138.24219,381.12022 C 138.64843,380.57335 138.85156,379.80773 138.85156,378.82335 C 138.85156,377.8546 138.65104,377.10721 138.25,376.58116 C 137.84895,376.04992 137.28645,375.78429 136.5625,375.78429 C 136.19791,375.78429 135.82291,375.90669 135.4375,376.15147 C 135.05729,376.39106 134.72656,376.70356 134.44531,377.08897 M 149.14844,382.19835 C 147.99739,382.82856 146.87239,383.14366 145.77344,383.14366 C 144.44531,383.14366 143.40885,382.76085 142.66406,381.99522 C 141.91927,381.2296 141.54687,380.18273 141.54688,378.8546 C 141.54687,377.58377 141.89062,376.55773 142.57812,375.77647 C 143.27083,374.99002 144.20573,374.59679 145.38281,374.59679 C 146.4401,374.59679 147.30468,374.96138 147.97656,375.69054 C 148.64843,376.4145 148.98437,377.38325 148.98438,378.59679 L 148.98438,378.96397 L 142.95312,378.96397 C 142.99479,379.93793 143.25521,380.68273 143.73438,381.19835 C 144.21875,381.71397 144.89323,381.97179 145.75781,381.97179 C 146.77343,381.97179 147.77083,381.67752 148.75,381.08897 L 149.14844,382.19835 M 147.54688,377.90929 C 147.47916,377.24783 147.23958,376.72179 146.82812,376.33116 C 146.41666,375.94054 145.92968,375.74523 145.36719,375.74522 C 144.74739,375.74523 144.22916,375.93533 143.8125,376.31554 C 143.39583,376.69054 143.125,377.22179 143,377.90929 L 147.54688,377.90929 M 157.61719,383.17491 C 157.61718,384.18533 157.30989,384.95355 156.69531,385.4796 C 156.08072,386.01084 155.20052,386.27647 154.05469,386.27647 C 152.89843,386.27647 151.78385,385.9822 150.71094,385.39366 L 151.07812,384.2921 C 152.14062,384.83897 153.13802,385.11241 154.07031,385.11241 C 154.76302,385.11241 155.29947,384.94314 155.67969,384.6046 C 156.0651,384.26605 156.25781,383.78428 156.25781,383.15929 L 156.25781,381.94054 C 155.66926,382.74262 154.87499,383.14366 153.875,383.14366 C 152.81771,383.14366 151.98177,382.75043 151.36719,381.96397 C 150.75781,381.17752 150.45312,380.09158 150.45312,378.70616 C 150.45312,377.48221 150.77083,376.49263 151.40625,375.73741 C 152.04166,374.977 152.83333,374.59679 153.78125,374.59679 C 154.85416,374.59679 155.67968,374.99263 156.25781,375.78429 L 156.25781,374.80772 L 157.61719,374.80772 L 157.61719,383.17491 M 156.25781,380.56554 L 156.25781,377.08897 C 156.07551,376.71919 155.78906,376.40929 155.39844,376.15929 C 155.01302,375.90929 154.59635,375.78429 154.14844,375.78429 C 153.41927,375.78429 152.85416,376.04992 152.45312,376.58116 C 152.05729,377.10721 151.85937,377.8546 151.85938,378.82335 C 151.85937,379.80252 152.06771,380.56814 152.48438,381.12022 C 152.90104,381.6671 153.47135,381.94054 154.19531,381.94054 C 154.48177,381.94054 154.77864,381.87283 155.08594,381.73741 C 155.39322,381.59679 155.66406,381.39627 155.89844,381.13585 C 156.13801,380.87022 156.25781,380.68012 156.25781,380.56554 M 161.17969,382.93272 L 159.82031,382.93272 L 159.82031,374.7921 L 161.17969,374.7921 L 161.17969,382.93272 M 160.49219,371.31554 C 160.72135,371.31555 160.91666,371.39888 161.07812,371.56554 C 161.24479,371.727 161.32812,371.92232 161.32812,372.15147 C 161.32812,372.37023 161.24479,372.56034 161.07812,372.72179 C 160.91666,372.88325 160.72135,372.96398 160.49219,372.96397 C 160.27344,372.96398 160.08333,372.88325 159.92188,372.72179 C 159.76042,372.56034 159.67969,372.37023 159.67969,372.15147 C 159.67969,371.91711 159.75781,371.71919 159.91406,371.55772 C 160.07552,371.39628 160.26823,371.31555 160.49219,371.31554 M 170.125,382.93272 L 168.75781,382.93272 L 168.75781,377.74522 C 168.75781,377.12544 168.60416,376.64367 168.29688,376.29991 C 167.99479,375.95617 167.58333,375.78429 167.0625,375.78429 C 166.24479,375.78429 165.46614,376.227 164.72656,377.11241 L 164.72656,382.93272 L 163.36719,382.93272 L 163.36719,374.7921 L 164.72656,374.7921 L 164.72656,375.94054 C 165.58073,375.04471 166.48177,374.59679 167.42969,374.59679 C 168.26301,374.59679 168.91926,374.84159 169.39844,375.33116 C 169.8828,375.81554 170.12499,376.50304 170.125,377.39366 L 170.125,382.93272 M 180.08594,374.59679 C 181.25781,374.59679 182.18489,374.98742 182.86719,375.76866 C 183.55468,376.54992 183.89843,377.58377 183.89844,378.87022 C 183.89843,380.15668 183.55468,381.19054 182.86719,381.97179 C 182.18489,382.75304 181.25781,383.14366 180.08594,383.14366 C 178.90885,383.14366 177.97656,382.75564 177.28906,381.9796 C 176.60677,381.19835 176.26562,380.16189 176.26562,378.87022 C 176.26562,377.57335 176.60677,376.5369 177.28906,375.76085 C 177.97656,374.98481 178.90885,374.59679 180.08594,374.59679 M 180.08594,381.94054 C 180.82552,381.94054 181.41145,381.64366 181.84375,381.04991 C 182.27604,380.45616 182.49218,379.7296 182.49219,378.87022 C 182.49218,377.94314 182.28124,377.20096 181.85938,376.64366 C 181.4427,376.08117 180.85156,375.79992 180.08594,375.79991 C 179.3151,375.79992 178.71875,376.07856 178.29688,376.63585 C 177.88021,377.19315 177.67187,377.93794 177.67188,378.87022 C 177.67187,379.73481 177.88802,380.46398 178.32031,381.05772 C 178.7526,381.64627 179.34114,381.94054 180.08594,381.94054 M 189.57031,371.51085 L 189.25,372.56554 C 188.80729,372.43534 188.44531,372.37023 188.16406,372.37022 C 187.84635,372.37023 187.625,372.50044 187.5,372.76085 C 187.375,373.01607 187.3125,373.42492 187.3125,373.98741 L 187.3125,374.7921 L 189.09375,374.7921 L 189.09375,375.90929 L 187.3125,375.90929 L 187.3125,382.93272 L 185.95312,382.93272 L 185.95312,375.90929 L 184.59375,375.90929 L 184.59375,374.7921 L 185.95312,374.7921 L 185.95312,373.79991 C 185.95312,372.85721 186.13021,372.19055 186.48438,371.79991 C 186.83854,371.40409 187.39323,371.20617 188.14844,371.20616 C 188.57031,371.20617 189.04427,371.30773 189.57031,371.51085 M 205.67969,382.93272 L 204.32031,382.93272 L 204.32031,377.74522 C 204.3203,377.09419 204.19009,376.6046 203.92969,376.27647 C 203.67447,375.94835 203.29166,375.78429 202.78125,375.78429 C 202.45832,375.78429 202.11197,375.88585 201.74219,376.08897 C 201.3776,376.2921 201.04687,376.57335 200.75,376.93272 C 200.76041,377.02127 200.76562,377.17492 200.76562,377.39366 L 200.76562,382.93272 L 199.40625,382.93272 L 199.40625,377.74522 C 199.40624,377.09419 199.28385,376.6046 199.03906,376.27647 C 198.79947,375.94835 198.43749,375.78429 197.95312,375.78429 C 197.22916,375.78429 196.52864,376.227 195.85156,377.11241 L 195.85156,382.93272 L 194.49219,382.93272 L 194.49219,374.7921 L 195.85156,374.7921 L 195.85156,375.94054 C 196.5651,375.04471 197.38802,374.59679 198.32031,374.59679 C 199.41926,374.59679 200.15885,375.04992 200.53906,375.95616 C 201.28385,375.04992 202.15364,374.59679 203.14844,374.59679 C 203.96093,374.59679 204.58593,374.83638 205.02344,375.31554 C 205.46093,375.79471 205.67968,376.48742 205.67969,377.39366 L 205.67969,382.93272 M 214.99219,382.19835 C 213.84114,382.82856 212.71614,383.14366 211.61719,383.14366 C 210.28906,383.14366 209.2526,382.76085 208.50781,381.99522 C 207.76302,381.2296 207.39062,380.18273 207.39062,378.8546 C 207.39062,377.58377 207.73437,376.55773 208.42188,375.77647 C 209.11458,374.99002 210.04948,374.59679 211.22656,374.59679 C 212.28385,374.59679 213.14843,374.96138 213.82031,375.69054 C 214.49218,376.4145 214.82812,377.38325 214.82812,378.59679 L 214.82812,378.96397 L 208.79688,378.96397 C 208.83854,379.93793 209.09896,380.68273 209.57812,381.19835 C 210.0625,381.71397 210.73698,381.97179 211.60156,381.97179 C 212.61718,381.97179 213.61458,381.67752 214.59375,381.08897 L 214.99219,382.19835 M 213.39062,377.90929 C 213.32291,377.24783 213.08333,376.72179 212.67188,376.33116 C 212.26041,375.94054 211.77343,375.74523 211.21094,375.74522 C 210.59114,375.74523 210.07291,375.93533 209.65625,376.31554 C 209.23958,376.69054 208.96875,377.22179 208.84375,377.90929 L 213.39062,377.90929 M 227.92969,382.93272 L 226.57031,382.93272 L 226.57031,377.74522 C 226.5703,377.09419 226.44009,376.6046 226.17969,376.27647 C 225.92447,375.94835 225.54166,375.78429 225.03125,375.78429 C 224.70832,375.78429 224.36197,375.88585 223.99219,376.08897 C 223.6276,376.2921 223.29687,376.57335 223,376.93272 C 223.01041,377.02127 223.01562,377.17492 223.01562,377.39366 L 223.01562,382.93272 L 221.65625,382.93272 L 221.65625,377.74522 C 221.65624,377.09419 221.53385,376.6046 221.28906,376.27647 C 221.04947,375.94835 220.68749,375.78429 220.20312,375.78429 C 219.47916,375.78429 218.77864,376.227 218.10156,377.11241 L 218.10156,382.93272 L 216.74219,382.93272 L 216.74219,374.7921 L 218.10156,374.7921 L 218.10156,375.94054 C 218.8151,375.04471 219.63802,374.59679 220.57031,374.59679 C 221.66926,374.59679 222.40885,375.04992 222.78906,375.95616 C 223.53385,375.04992 224.40364,374.59679 225.39844,374.59679 C 226.21093,374.59679 226.83593,374.83638 227.27344,375.31554 C 227.71093,375.79471 227.92968,376.48742 227.92969,377.39366 L 227.92969,382.93272 M 233.46094,374.59679 C 234.63281,374.59679 235.55989,374.98742 236.24219,375.76866 C 236.92968,376.54992 237.27343,377.58377 237.27344,378.87022 C 237.27343,380.15668 236.92968,381.19054 236.24219,381.97179 C 235.55989,382.75304 234.63281,383.14366 233.46094,383.14366 C 232.28385,383.14366 231.35156,382.75564 230.66406,381.9796 C 229.98177,381.19835 229.64062,380.16189 229.64062,378.87022 C 229.64062,377.57335 229.98177,376.5369 230.66406,375.76085 C 231.35156,374.98481 232.28385,374.59679 233.46094,374.59679 M 233.46094,381.94054 C 234.20052,381.94054 234.78645,381.64366 235.21875,381.04991 C 235.65104,380.45616 235.86718,379.7296 235.86719,378.87022 C 235.86718,377.94314 235.65624,377.20096 235.23438,376.64366 C 234.8177,376.08117 234.22656,375.79992 233.46094,375.79991 C 232.6901,375.79992 232.09375,376.07856 231.67188,376.63585 C 231.25521,377.19315 231.04687,377.93794 231.04688,378.87022 C 231.04687,379.73481 231.26302,380.46398 231.69531,381.05772 C 232.1276,381.64627 232.71614,381.94054 233.46094,381.94054 M 243.375,374.9171 L 242.97656,376.08116 C 242.73697,375.93533 242.51822,375.86242 242.32031,375.86241 C 242.03385,375.86242 241.76041,376.00044 241.5,376.27647 C 241.23958,376.55252 240.98177,376.95877 240.72656,377.49522 C 240.47656,378.03169 240.35156,378.30252 240.35156,378.30772 L 240.35156,382.93272 L 238.99219,382.93272 L 238.99219,374.7921 L 240.27344,374.7921 L 240.27344,376.67491 C 240.66406,375.86763 241.01302,375.32075 241.32031,375.03429 C 241.6276,374.74263 241.98698,374.59679 242.39844,374.59679 C 242.78906,374.59679 243.11458,374.70356 243.375,374.9171 M 251.125,374.7921 L 247.82812,383.07335 C 247.42708,384.07856 246.99218,384.8598 246.52344,385.4171 C 246.05468,385.97959 245.39062,386.26084 244.53125,386.26085 C 244.10937,386.26084 243.65104,386.15407 243.15625,385.94054 L 243.44531,384.8546 C 243.92969,385.01085 244.30208,385.08897 244.5625,385.08897 C 244.99479,385.08897 245.38021,384.90668 245.71875,384.5421 C 246.0625,384.17751 246.35937,383.63064 246.60938,382.90147 L 243.375,374.7921 L 244.77344,374.7921 L 247.25,381.25304 L 249.72656,374.7921 L 251.125,374.7921"
       id="flowRoot4031" />
    <path
       style="font-size:16px;font-style:normal;font-variant:normal;font-weight:normal;font-stretch:normal;text-align:start;line-height:125%;writing-mode:lr-tb;text-anchor:start;fill:#000000;fill-opacity:1;stroke:none;stroke-width:1px;stroke-linecap:butt;stroke-linejoin:miter;stroke-opacity:1;font-family:Sans;-inkscape-font-specification:Sans"
       d="M 557.43823,392.84146 C 556.28718,393.47167 555.16218,393.78677 554.06323,393.78677 C 552.7351,393.78677 551.69865,393.40396 550.95386,392.63834 C 550.20906,391.87271 549.83667,390.82584 549.83667,389.49771 C 549.83667,388.22688 550.18042,387.20084 550.86792,386.41959 C 551.56063,385.63314 552.49552,385.23991 553.67261,385.2399 C 554.72989,385.23991 555.59448,385.60449 556.26636,386.33365 C 556.93822,387.05761 557.27416,388.02636 557.27417,389.2399 L 557.27417,389.60709 L 551.24292,389.60709 C 551.28458,390.58105 551.545,391.32584 552.02417,391.84146 C 552.50854,392.35709 553.18302,392.6149 554.04761,392.6149 C 555.06323,392.6149 556.06062,392.32063 557.03979,391.73209 L 557.43823,392.84146 M 555.83667,388.5524 C 555.76896,387.89095 555.52937,387.3649 555.11792,386.97427 C 554.70646,386.58366 554.21948,386.38834 553.65698,386.38834 C 553.03719,386.38834 552.51896,386.57845 552.10229,386.95865 C 551.68563,387.33365 551.41479,387.8649 551.28979,388.5524 L 555.83667,388.5524 M 565.94604,393.57584 L 564.57886,393.57584 L 564.57886,388.38834 C 564.57885,387.76855 564.42521,387.28678 564.11792,386.94302 C 563.81583,386.59928 563.40437,386.42741 562.88354,386.4274 C 562.06583,386.42741 561.28719,386.87011 560.54761,387.75552 L 560.54761,393.57584 L 559.18823,393.57584 L 559.18823,385.43521 L 560.54761,385.43521 L 560.54761,386.58365 C 561.40177,385.68782 562.30281,385.23991 563.25073,385.2399 C 564.08406,385.23991 564.74031,385.4847 565.21948,385.97427 C 565.70385,386.45866 565.94604,387.14616 565.94604,388.03677 L 565.94604,393.57584 M 574.81323,393.59146 L 573.45386,393.59146 L 573.45386,392.58365 C 572.86531,393.38573 572.07104,393.78677 571.07104,393.78677 C 570.02938,393.78677 569.19865,393.39094 568.57886,392.59927 C 567.95906,391.80761 567.64917,390.72428 567.64917,389.34927 C 567.64917,388.12532 567.96688,387.13574 568.60229,386.38052 C 569.23771,385.62011 570.02938,385.23991 570.97729,385.2399 C 572.07104,385.23991 572.89656,385.63574 573.45386,386.4274 L 573.45386,381.95865 L 574.81323,381.95865 L 574.81323,393.59146 M 573.45386,391.20865 L 573.45386,387.73209 C 573.27156,387.3623 572.9851,387.05241 572.59448,386.8024 C 572.20906,386.55241 571.79239,386.42741 571.34448,386.4274 C 570.61531,386.42741 570.05021,386.69303 569.64917,387.22427 C 569.25333,387.75032 569.05542,388.49772 569.05542,389.46646 C 569.05542,390.44563 569.26375,391.21126 569.68042,391.76334 C 570.09708,392.31021 570.6674,392.58365 571.39136,392.58365 C 571.67781,392.58365 571.97469,392.51594 572.28198,392.38052 C 572.58927,392.2399 572.8601,392.03938 573.09448,391.77896 C 573.33406,391.51334 573.45385,391.32323 573.45386,391.20865 M 584.81323,385.2399 C 585.9851,385.23991 586.91218,385.63053 587.59448,386.41177 C 588.28197,387.19303 588.62572,388.22688 588.62573,389.51334 C 588.62572,390.7998 588.28197,391.83365 587.59448,392.6149 C 586.91218,393.39615 585.9851,393.78677 584.81323,393.78677 C 583.63615,393.78677 582.70386,393.39875 582.01636,392.62271 C 581.33406,391.84146 580.99292,390.80501 580.99292,389.51334 C 580.99292,388.21647 581.33406,387.18001 582.01636,386.40396 C 582.70386,385.62793 583.63615,385.23991 584.81323,385.2399 M 584.81323,392.58365 C 585.55281,392.58365 586.13875,392.28677 586.57104,391.69302 C 587.00333,391.09928 587.21948,390.37271 587.21948,389.51334 C 587.21948,388.58626 587.00854,387.84407 586.58667,387.28677 C 586.17,386.72428 585.57885,386.44303 584.81323,386.44302 C 584.0424,386.44303 583.44604,386.72168 583.02417,387.27896 C 582.6075,387.83626 582.39917,388.58105 582.39917,389.51334 C 582.39917,390.37792 582.61531,391.10709 583.04761,391.70084 C 583.4799,392.28938 584.06844,392.58365 584.81323,392.58365 M 594.29761,382.15396 L 593.97729,383.20865 C 593.53458,383.07845 593.1726,383.01335 592.89136,383.01334 C 592.57365,383.01335 592.35229,383.14355 592.22729,383.40396 C 592.10229,383.65918 592.03979,384.06803 592.03979,384.63052 L 592.03979,385.43521 L 593.82104,385.43521 L 593.82104,386.5524 L 592.03979,386.5524 L 592.03979,393.57584 L 590.68042,393.57584 L 590.68042,386.5524 L 589.32104,386.5524 L 589.32104,385.43521 L 590.68042,385.43521 L 590.68042,384.44302 C 590.68042,383.50033 590.8575,382.83366 591.21167,382.44302 C 591.56583,382.0472 592.12052,381.84929 592.87573,381.84927 C 593.2976,381.84929 593.77156,381.95085 594.29761,382.15396 M 610.40698,393.57584 L 609.04761,393.57584 L 609.04761,388.38834 C 609.0476,387.7373 608.91739,387.24772 608.65698,386.91959 C 608.40176,386.59147 608.01895,386.42741 607.50854,386.4274 C 607.18562,386.42741 606.83927,386.52897 606.46948,386.73209 C 606.10489,386.93522 605.77416,387.21647 605.47729,387.57584 C 605.4877,387.66438 605.49291,387.81803 605.49292,388.03677 L 605.49292,393.57584 L 604.13354,393.57584 L 604.13354,388.38834 C 604.13354,387.7373 604.01114,387.24772 603.76636,386.91959 C 603.52677,386.59147 603.16479,386.42741 602.68042,386.4274 C 601.95646,386.42741 601.25594,386.87011 600.57886,387.75552 L 600.57886,393.57584 L 599.21948,393.57584 L 599.21948,385.43521 L 600.57886,385.43521 L 600.57886,386.58365 C 601.2924,385.68782 602.11531,385.23991 603.04761,385.2399 C 604.14656,385.23991 604.88614,385.69303 605.26636,386.59927 C 606.01114,385.69303 606.88093,385.23991 607.87573,385.2399 C 608.68822,385.23991 609.31322,385.47949 609.75073,385.95865 C 610.18822,386.43782 610.40697,387.13053 610.40698,388.03677 L 610.40698,393.57584 M 619.71948,392.84146 C 618.56843,393.47167 617.44343,393.78677 616.34448,393.78677 C 615.01635,393.78677 613.9799,393.40396 613.23511,392.63834 C 612.49031,391.87271 612.11792,390.82584 612.11792,389.49771 C 612.11792,388.22688 612.46167,387.20084 613.14917,386.41959 C 613.84188,385.63314 614.77677,385.23991 615.95386,385.2399 C 617.01114,385.23991 617.87573,385.60449 618.54761,386.33365 C 619.21947,387.05761 619.55541,388.02636 619.55542,389.2399 L 619.55542,389.60709 L 613.52417,389.60709 C 613.56583,390.58105 613.82625,391.32584 614.30542,391.84146 C 614.78979,392.35709 615.46427,392.6149 616.32886,392.6149 C 617.34448,392.6149 618.34187,392.32063 619.32104,391.73209 L 619.71948,392.84146 M 618.11792,388.5524 C 618.05021,387.89095 617.81062,387.3649 617.39917,386.97427 C 616.98771,386.58366 616.50073,386.38834 615.93823,386.38834 C 615.31844,386.38834 614.80021,386.57845 614.38354,386.95865 C 613.96688,387.33365 613.69604,387.8649 613.57104,388.5524 L 618.11792,388.5524 M 632.65698,393.57584 L 631.29761,393.57584 L 631.29761,388.38834 C 631.2976,387.7373 631.16739,387.24772 630.90698,386.91959 C 630.65176,386.59147 630.26895,386.42741 629.75854,386.4274 C 629.43562,386.42741 629.08927,386.52897 628.71948,386.73209 C 628.35489,386.93522 628.02416,387.21647 627.72729,387.57584 C 627.7377,387.66438 627.74291,387.81803 627.74292,388.03677 L 627.74292,393.57584 L 626.38354,393.57584 L 626.38354,388.38834 C 626.38354,387.7373 626.26114,387.24772 626.01636,386.91959 C 625.77677,386.59147 625.41479,386.42741 624.93042,386.4274 C 624.20646,386.42741 623.50594,386.87011 622.82886,387.75552 L 622.82886,393.57584 L 621.46948,393.57584 L 621.46948,385.43521 L 622.82886,385.43521 L 622.82886,386.58365 C 623.5424,385.68782 624.36531,385.23991 625.29761,385.2399 C 626.39656,385.23991 627.13614,385.69303 627.51636,386.59927 C 628.26114,385.69303 629.13093,385.23991 630.12573,385.2399 C 630.93822,385.23991 631.56322,385.47949 632.00073,385.95865 C 632.43822,386.43782 632.65697,387.13053 632.65698,388.03677 L 632.65698,393.57584 M 638.18823,385.2399 C 639.3601,385.23991 640.28718,385.63053 640.96948,386.41177 C 641.65697,387.19303 642.00072,388.22688 642.00073,389.51334 C 642.00072,390.7998 641.65697,391.83365 640.96948,392.6149 C 640.28718,393.39615 639.3601,393.78677 638.18823,393.78677 C 637.01115,393.78677 636.07886,393.39875 635.39136,392.62271 C 634.70906,391.84146 634.36792,390.80501 634.36792,389.51334 C 634.36792,388.21647 634.70906,387.18001 635.39136,386.40396 C 636.07886,385.62793 637.01115,385.23991 638.18823,385.2399 M 638.18823,392.58365 C 638.92781,392.58365 639.51375,392.28677 639.94604,391.69302 C 640.37833,391.09928 640.59448,390.37271 640.59448,389.51334 C 640.59448,388.58626 640.38354,387.84407 639.96167,387.28677 C 639.545,386.72428 638.95385,386.44303 638.18823,386.44302 C 637.4174,386.44303 636.82104,386.72168 636.39917,387.27896 C 635.9825,387.83626 635.77417,388.58105 635.77417,389.51334 C 635.77417,390.37792 635.99031,391.10709 636.42261,391.70084 C 636.8549,392.28938 637.44344,392.58365 638.18823,392.58365 M 648.10229,385.56021 L 647.70386,386.72427 C 647.46427,386.57845 647.24552,386.50553 647.04761,386.50552 C 646.76114,386.50553 646.48771,386.64355 646.22729,386.91959 C 645.96687,387.19563 645.70906,387.60188 645.45386,388.13834 C 645.20385,388.6748 645.07885,388.94563 645.07886,388.95084 L 645.07886,393.57584 L 643.71948,393.57584 L 643.71948,385.43521 L 645.00073,385.43521 L 645.00073,387.31802 C 645.39135,386.51074 645.74031,385.96386 646.04761,385.6774 C 646.3549,385.38574 646.71427,385.23991 647.12573,385.2399 C 647.51635,385.23991 647.84187,385.34668 648.10229,385.56021 M 655.85229,385.43521 L 652.55542,393.71646 C 652.15437,394.72167 651.71948,395.50292 651.25073,396.06021 C 650.78198,396.62271 650.11792,396.90396 649.25854,396.90396 C 648.83667,396.90396 648.37834,396.79719 647.88354,396.58365 L 648.17261,395.49771 C 648.65698,395.65396 649.02938,395.73208 649.28979,395.73209 C 649.72208,395.73208 650.1075,395.54979 650.44604,395.18521 C 650.78979,394.82063 651.08667,394.27375 651.33667,393.54459 L 648.10229,385.43521 L 649.50073,385.43521 L 651.97729,391.89615 L 654.45386,385.43521 L 655.85229,385.43521"
       id="text4039" />
    <path
       transform="translate(-48.543235,-14)"
       style="font-size:16px;font-style:normal;font-variant:normal;font-weight:normal;font-stretch:normal;text-align:start;line-height:125%;writing-mode:lr-tb;text-anchor:start;fill:#000000;fill-opacity:1;stroke:none;stroke-width:1px;stroke-linecap:butt;stroke-linejoin:miter;stroke-opacity:1;font-family:Sans;-inkscape-font-specification:Sans"
       d="M 175.32031,536.09679 C 175.98698,535.30513 176.8151,534.90929 177.80469,534.90929 C 178.7526,534.90929 179.54426,535.2895 180.17969,536.04991 C 180.8151,536.80513 181.1328,537.79471 181.13281,539.01866 C 181.1328,540.37804 180.81249,541.45877 180.17188,542.26085 C 179.53645,543.05772 178.73176,543.45616 177.75781,543.45616 C 176.76302,543.45616 175.95052,543.07074 175.32031,542.29991 L 175.32031,543.24522 L 173.96094,543.24522 L 173.96094,531.62804 L 175.32031,531.62804 L 175.32031,536.09679 M 175.32031,537.40147 L 175.32031,540.87804 C 175.52864,541.25825 175.82812,541.58377 176.21875,541.8546 C 176.61458,542.12022 177.02083,542.25304 177.4375,542.25304 C 178.15104,542.25304 178.71093,541.9796 179.11719,541.43272 C 179.52343,540.88585 179.72656,540.12023 179.72656,539.13585 C 179.72656,538.1671 179.52604,537.41971 179.125,536.89366 C 178.72395,536.36242 178.16145,536.09679 177.4375,536.09679 C 177.07291,536.09679 176.69791,536.21919 176.3125,536.46397 C 175.93229,536.70356 175.60156,537.01606 175.32031,537.40147 M 190.02344,542.51085 C 188.87239,543.14106 187.74739,543.45616 186.64844,543.45616 C 185.32031,543.45616 184.28385,543.07335 183.53906,542.30772 C 182.79427,541.5421 182.42187,540.49523 182.42188,539.1671 C 182.42187,537.89627 182.76562,536.87023 183.45312,536.08897 C 184.14583,535.30252 185.08073,534.90929 186.25781,534.90929 C 187.3151,534.90929 188.17968,535.27388 188.85156,536.00304 C 189.52343,536.727 189.85937,537.69575 189.85938,538.90929 L 189.85938,539.27647 L 183.82812,539.27647 C 183.86979,540.25043 184.13021,540.99523 184.60938,541.51085 C 185.09375,542.02647 185.76823,542.28429 186.63281,542.28429 C 187.64843,542.28429 188.64583,541.99002 189.625,541.40147 L 190.02344,542.51085 M 188.42188,538.22179 C 188.35416,537.56033 188.11458,537.03429 187.70312,536.64366 C 187.29166,536.25304 186.80468,536.05773 186.24219,536.05772 C 185.62239,536.05773 185.10416,536.24783 184.6875,536.62804 C 184.27083,537.00304 184,537.53429 183.875,538.22179 L 188.42188,538.22179 M 198.49219,543.48741 C 198.49218,544.49783 198.18489,545.26605 197.57031,545.7921 C 196.95572,546.32334 196.07552,546.58897 194.92969,546.58897 C 193.77343,546.58897 192.65885,546.2947 191.58594,545.70616 L 191.95312,544.6046 C 193.01562,545.15147 194.01302,545.42491 194.94531,545.42491 C 195.63802,545.42491 196.17447,545.25564 196.55469,544.9171 C 196.9401,544.57855 197.13281,544.09678 197.13281,543.47179 L 197.13281,542.25304 C 196.54426,543.05512 195.74999,543.45616 194.75,543.45616 C 193.69271,543.45616 192.85677,543.06293 192.24219,542.27647 C 191.63281,541.49002 191.32812,540.40408 191.32812,539.01866 C 191.32812,537.79471 191.64583,536.80513 192.28125,536.04991 C 192.91666,535.2895 193.70833,534.90929 194.65625,534.90929 C 195.72916,534.90929 196.55468,535.30513 197.13281,536.09679 L 197.13281,535.12022 L 198.49219,535.12022 L 198.49219,543.48741 M 197.13281,540.87804 L 197.13281,537.40147 C 196.95051,537.03169 196.66406,536.72179 196.27344,536.47179 C 195.88802,536.22179 195.47135,536.09679 195.02344,536.09679 C 194.29427,536.09679 193.72916,536.36242 193.32812,536.89366 C 192.93229,537.41971 192.73437,538.1671 192.73438,539.13585 C 192.73437,540.11502 192.94271,540.88064 193.35938,541.43272 C 193.77604,541.9796 194.34635,542.25304 195.07031,542.25304 C 195.35677,542.25304 195.65364,542.18533 195.96094,542.04991 C 196.26822,541.90929 196.53906,541.70877 196.77344,541.44835 C 197.01301,541.18272 197.13281,540.99262 197.13281,540.87804 M 202.05469,543.24522 L 200.69531,543.24522 L 200.69531,535.1046 L 202.05469,535.1046 L 202.05469,543.24522 M 201.36719,531.62804 C 201.59635,531.62805 201.79166,531.71138 201.95312,531.87804 C 202.11979,532.0395 202.20312,532.23482 202.20312,532.46397 C 202.20312,532.68273 202.11979,532.87284 201.95312,533.03429 C 201.79166,533.19575 201.59635,533.27648 201.36719,533.27647 C 201.14844,533.27648 200.95833,533.19575 200.79688,533.03429 C 200.63542,532.87284 200.55469,532.68273 200.55469,532.46397 C 200.55469,532.22961 200.63281,532.03169 200.78906,531.87022 C 200.95052,531.70878 201.14323,531.62805 201.36719,531.62804 M 211,543.24522 L 209.63281,543.24522 L 209.63281,538.05772 C 209.63281,537.43794 209.47916,536.95617 209.17188,536.61241 C 208.86979,536.26867 208.45833,536.09679 207.9375,536.09679 C 207.11979,536.09679 206.34114,536.5395 205.60156,537.42491 L 205.60156,543.24522 L 204.24219,543.24522 L 204.24219,535.1046 L 205.60156,535.1046 L 205.60156,536.25304 C 206.45573,535.35721 207.35677,534.90929 208.30469,534.90929 C 209.13801,534.90929 209.79426,535.15409 210.27344,535.64366 C 210.7578,536.12804 210.99999,536.81554 211,537.70616 L 211,543.24522 M 220.96094,534.90929 C 222.13281,534.90929 223.05989,535.29992 223.74219,536.08116 C 224.42968,536.86242 224.77343,537.89627 224.77344,539.18272 C 224.77343,540.46918 224.42968,541.50304 223.74219,542.28429 C 223.05989,543.06554 222.13281,543.45616 220.96094,543.45616 C 219.78385,543.45616 218.85156,543.06814 218.16406,542.2921 C 217.48177,541.51085 217.14062,540.47439 217.14062,539.18272 C 217.14062,537.88585 217.48177,536.8494 218.16406,536.07335 C 218.85156,535.29731 219.78385,534.90929 220.96094,534.90929 M 220.96094,542.25304 C 221.70052,542.25304 222.28645,541.95616 222.71875,541.36241 C 223.15104,540.76866 223.36718,540.0421 223.36719,539.18272 C 223.36718,538.25564 223.15624,537.51346 222.73438,536.95616 C 222.3177,536.39367 221.72656,536.11242 220.96094,536.11241 C 220.1901,536.11242 219.59375,536.39106 219.17188,536.94835 C 218.75521,537.50565 218.54687,538.25044 218.54688,539.18272 C 218.54687,540.04731 218.76302,540.77648 219.19531,541.37022 C 219.6276,541.95877 220.21614,542.25304 220.96094,542.25304 M 230.44531,531.82335 L 230.125,532.87804 C 229.68229,532.74784 229.32031,532.68273 229.03906,532.68272 C 228.72135,532.68273 228.5,532.81294 228.375,533.07335 C 228.25,533.32857 228.1875,533.73742 228.1875,534.29991 L 228.1875,535.1046 L 229.96875,535.1046 L 229.96875,536.22179 L 228.1875,536.22179 L 228.1875,543.24522 L 226.82812,543.24522 L 226.82812,536.22179 L 225.46875,536.22179 L 225.46875,535.1046 L 226.82812,535.1046 L 226.82812,534.11241 C 226.82812,533.16971 227.00521,532.50305 227.35938,532.11241 C 227.71354,531.71659 228.26823,531.51867 229.02344,531.51866 C 229.44531,531.51867 229.91927,531.62023 230.44531,531.82335 M 234.92188,539.1671 C 234.92187,537.82335 235.30729,536.77908 236.07812,536.03429 C 236.84896,535.28429 237.80729,534.90929 238.95312,534.90929 C 239.92187,534.90929 240.84374,535.1645 241.71875,535.67491 L 241.32031,536.76866 C 240.5651,536.30513 239.78124,536.07336 238.96875,536.07335 C 238.19791,536.07336 237.5651,536.3546 237.07031,536.9171 C 236.57552,537.4796 236.32812,538.2296 236.32812,539.1671 C 236.32812,540.12023 236.58073,540.87804 237.08594,541.44054 C 237.59114,542.00304 238.22395,542.28429 238.98438,542.28429 C 239.76041,542.28429 240.57551,542.01866 241.42969,541.48741 L 241.85156,542.55772 C 240.94531,543.15668 239.98958,543.45616 238.98438,543.45616 C 237.78125,543.45616 236.80208,543.06554 236.04688,542.28429 C 235.29687,541.49783 234.92187,540.45877 234.92188,539.1671 M 246.74219,534.90929 C 247.91406,534.90929 248.84114,535.29992 249.52344,536.08116 C 250.21093,536.86242 250.55468,537.89627 250.55469,539.18272 C 250.55468,540.46918 250.21093,541.50304 249.52344,542.28429 C 248.84114,543.06554 247.91406,543.45616 246.74219,543.45616 C 245.5651,543.45616 244.63281,543.06814 243.94531,542.2921 C 243.26302,541.51085 242.92187,540.47439 242.92188,539.18272 C 242.92187,537.88585 243.26302,536.8494 243.94531,536.07335 C 244.63281,535.29731 245.5651,534.90929 246.74219,534.90929 M 246.74219,542.25304 C 247.48177,542.25304 248.0677,541.95616 248.5,541.36241 C 248.93229,540.76866 249.14843,540.0421 249.14844,539.18272 C 249.14843,538.25564 248.93749,537.51346 248.51562,536.95616 C 248.09895,536.39367 247.50781,536.11242 246.74219,536.11241 C 245.97135,536.11242 245.375,536.39106 244.95312,536.94835 C 244.53646,537.50565 244.32812,538.25044 244.32812,539.18272 C 244.32812,540.04731 244.54427,540.77648 244.97656,541.37022 C 245.40885,541.95877 245.99739,542.25304 246.74219,542.25304 M 259.03125,543.24522 L 257.66406,543.24522 L 257.66406,538.05772 C 257.66406,537.43794 257.51041,536.95617 257.20312,536.61241 C 256.90104,536.26867 256.48958,536.09679 255.96875,536.09679 C 255.15104,536.09679 254.37239,536.5395 253.63281,537.42491 L 253.63281,543.24522 L 252.27344,543.24522 L 252.27344,535.1046 L 253.63281,535.1046 L 253.63281,536.25304 C 254.48698,535.35721 255.38802,534.90929 256.33594,534.90929 C 257.16926,534.90929 257.82551,535.15409 258.30469,535.64366 C 258.78905,536.12804 259.03124,536.81554 259.03125,537.70616 L 259.03125,543.24522 M 264.53906,543.19835 C 264.03385,543.37022 263.6302,543.45616 263.32812,543.45616 C 262.625,543.45616 262.11198,543.25824 261.78906,542.86241 C 261.47135,542.46658 261.3125,541.84679 261.3125,541.00304 L 261.3125,536.22179 L 260.32031,536.22179 L 260.32031,535.1046 L 261.3125,535.1046 L 261.3125,532.87804 L 262.67188,532.87804 L 262.67188,535.1046 L 264.23438,535.1046 L 264.23438,536.22179 L 262.67188,536.22179 L 262.67188,540.94054 C 262.67187,541.83637 262.94791,542.28429 263.5,542.28429 C 263.73958,542.28429 264.0026,542.2322 264.28906,542.12804 L 264.53906,543.19835 M 272.77344,542.51085 C 271.62239,543.14106 270.49739,543.45616 269.39844,543.45616 C 268.07031,543.45616 267.03385,543.07335 266.28906,542.30772 C 265.54427,541.5421 265.17187,540.49523 265.17188,539.1671 C 265.17187,537.89627 265.51562,536.87023 266.20312,536.08897 C 266.89583,535.30252 267.83073,534.90929 269.00781,534.90929 C 270.0651,534.90929 270.92968,535.27388 271.60156,536.00304 C 272.27343,536.727 272.60937,537.69575 272.60938,538.90929 L 272.60938,539.27647 L 266.57812,539.27647 C 266.61979,540.25043 266.88021,540.99523 267.35938,541.51085 C 267.84375,542.02647 268.51823,542.28429 269.38281,542.28429 C 270.39843,542.28429 271.39583,541.99002 272.375,541.40147 L 272.77344,542.51085 M 271.17188,538.22179 C 271.10416,537.56033 270.86458,537.03429 270.45312,536.64366 C 270.04166,536.25304 269.55468,536.05773 268.99219,536.05772 C 268.37239,536.05773 267.85416,536.24783 267.4375,536.62804 C 267.02083,537.00304 266.75,537.53429 266.625,538.22179 L 271.17188,538.22179 M 281.28125,543.24522 L 279.91406,543.24522 L 279.91406,538.05772 C 279.91406,537.43794 279.76041,536.95617 279.45312,536.61241 C 279.15104,536.26867 278.73958,536.09679 278.21875,536.09679 C 277.40104,536.09679 276.62239,536.5395 275.88281,537.42491 L 275.88281,543.24522 L 274.52344,543.24522 L 274.52344,535.1046 L 275.88281,535.1046 L 275.88281,536.25304 C 276.73698,535.35721 277.63802,534.90929 278.58594,534.90929 C 279.41926,534.90929 280.07551,535.15409 280.55469,535.64366 C 281.03905,536.12804 281.28124,536.81554 281.28125,537.70616 L 281.28125,543.24522 M 286.78906,543.19835 C 286.28385,543.37022 285.8802,543.45616 285.57812,543.45616 C 284.875,543.45616 284.36198,543.25824 284.03906,542.86241 C 283.72135,542.46658 283.5625,541.84679 283.5625,541.00304 L 283.5625,536.22179 L 282.57031,536.22179 L 282.57031,535.1046 L 283.5625,535.1046 L 283.5625,532.87804 L 284.92188,532.87804 L 284.92188,535.1046 L 286.48438,535.1046 L 286.48438,536.22179 L 284.92188,536.22179 L 284.92188,540.94054 C 284.92187,541.83637 285.19791,542.28429 285.75,542.28429 C 285.98958,542.28429 286.2526,542.2322 286.53906,542.12804 L 286.78906,543.19835"
       id="flowRoot4043" />
    <path
       transform="translate(2.7094762,-13.1875)"
       style="font-size:16px;font-style:normal;font-variant:normal;font-weight:normal;font-stretch:normal;text-align:start;line-height:125%;writing-mode:lr-tb;text-anchor:start;fill:#000000;fill-opacity:1;stroke:none;stroke-width:1px;stroke-linecap:butt;stroke-linejoin:miter;stroke-opacity:1;font-family:Sans;-inkscape-font-specification:Sans"
       d="M 467.11719,541.69835 C 465.96614,542.32856 464.84114,542.64366 463.74219,542.64366 C 462.41406,542.64366 461.3776,542.26085 460.63281,541.49522 C 459.88802,540.7296 459.51562,539.68273 459.51562,538.3546 C 459.51562,537.08377 459.85937,536.05773 460.54688,535.27647 C 461.23958,534.49002 462.17448,534.09679 463.35156,534.09679 C 464.40885,534.09679 465.27343,534.46138 465.94531,535.19054 C 466.61718,535.9145 466.95312,536.88325 466.95312,538.09679 L 466.95312,538.46397 L 460.92188,538.46397 C 460.96354,539.43793 461.22396,540.18273 461.70312,540.69835 C 462.1875,541.21397 462.86198,541.47179 463.72656,541.47179 C 464.74218,541.47179 465.73958,541.17752 466.71875,540.58897 L 467.11719,541.69835 M 465.51562,537.40929 C 465.44791,536.74783 465.20833,536.22179 464.79688,535.83116 C 464.38541,535.44054 463.89843,535.24523 463.33594,535.24522 C 462.71614,535.24523 462.19791,535.43533 461.78125,535.81554 C 461.36458,536.19054 461.09375,536.72179 460.96875,537.40929 L 465.51562,537.40929 M 475.625,542.43272 L 474.25781,542.43272 L 474.25781,537.24522 C 474.25781,536.62544 474.10416,536.14367 473.79688,535.79991 C 473.49479,535.45617 473.08333,535.28429 472.5625,535.28429 C 471.74479,535.28429 470.96614,535.727 470.22656,536.61241 L 470.22656,542.43272 L 468.86719,542.43272 L 468.86719,534.2921 L 470.22656,534.2921 L 470.22656,535.44054 C 471.08073,534.54471 471.98177,534.09679 472.92969,534.09679 C 473.76301,534.09679 474.41926,534.34159 474.89844,534.83116 C 475.3828,535.31554 475.62499,536.00304 475.625,536.89366 L 475.625,542.43272 M 484.49219,542.44835 L 483.13281,542.44835 L 483.13281,541.44054 C 482.54426,542.24262 481.74999,542.64366 480.75,542.64366 C 479.70833,542.64366 478.8776,542.24783 478.25781,541.45616 C 477.63802,540.6645 477.32812,539.58116 477.32812,538.20616 C 477.32812,536.98221 477.64583,535.99263 478.28125,535.23741 C 478.91666,534.477 479.70833,534.09679 480.65625,534.09679 C 481.74999,534.09679 482.57551,534.49263 483.13281,535.28429 L 483.13281,530.81554 L 484.49219,530.81554 L 484.49219,542.44835 M 483.13281,540.06554 L 483.13281,536.58897 C 482.95051,536.21919 482.66406,535.90929 482.27344,535.65929 C 481.88802,535.40929 481.47135,535.28429 481.02344,535.28429 C 480.29427,535.28429 479.72916,535.54992 479.32812,536.08116 C 478.93229,536.60721 478.73437,537.3546 478.73438,538.32335 C 478.73437,539.30252 478.94271,540.06814 479.35938,540.62022 C 479.77604,541.1671 480.34635,541.44054 481.07031,541.44054 C 481.35677,541.44054 481.65364,541.37283 481.96094,541.23741 C 482.26822,541.09679 482.53906,540.89627 482.77344,540.63585 C 483.01301,540.37022 483.13281,540.18012 483.13281,540.06554 M 494.49219,534.09679 C 495.66406,534.09679 496.59114,534.48742 497.27344,535.26866 C 497.96093,536.04992 498.30468,537.08377 498.30469,538.37022 C 498.30468,539.65668 497.96093,540.69054 497.27344,541.47179 C 496.59114,542.25304 495.66406,542.64366 494.49219,542.64366 C 493.3151,542.64366 492.38281,542.25564 491.69531,541.4796 C 491.01302,540.69835 490.67187,539.66189 490.67188,538.37022 C 490.67187,537.07335 491.01302,536.0369 491.69531,535.26085 C 492.38281,534.48481 493.3151,534.09679 494.49219,534.09679 M 494.49219,541.44054 C 495.23177,541.44054 495.8177,541.14366 496.25,540.54991 C 496.68229,539.95616 496.89843,539.2296 496.89844,538.37022 C 496.89843,537.44314 496.68749,536.70096 496.26562,536.14366 C 495.84895,535.58117 495.25781,535.29992 494.49219,535.29991 C 493.72135,535.29992 493.125,535.57856 492.70312,536.13585 C 492.28646,536.69315 492.07812,537.43794 492.07812,538.37022 C 492.07812,539.23481 492.29427,539.96398 492.72656,540.55772 C 493.15885,541.14627 493.74739,541.44054 494.49219,541.44054 M 503.97656,531.01085 L 503.65625,532.06554 C 503.21354,531.93534 502.85156,531.87023 502.57031,531.87022 C 502.2526,531.87023 502.03125,532.00044 501.90625,532.26085 C 501.78125,532.51607 501.71875,532.92492 501.71875,533.48741 L 501.71875,534.2921 L 503.5,534.2921 L 503.5,535.40929 L 501.71875,535.40929 L 501.71875,542.43272 L 500.35938,542.43272 L 500.35938,535.40929 L 499,535.40929 L 499,534.2921 L 500.35938,534.2921 L 500.35938,533.29991 C 500.35937,532.35721 500.53646,531.69055 500.89062,531.29991 C 501.24479,530.90409 501.79948,530.70617 502.55469,530.70616 C 502.97656,530.70617 503.45052,530.80773 503.97656,531.01085 M 508.45312,538.3546 C 508.45312,537.01085 508.83854,535.96658 509.60938,535.22179 C 510.38021,534.47179 511.33854,534.09679 512.48438,534.09679 C 513.45312,534.09679 514.37499,534.352 515.25,534.86241 L 514.85156,535.95616 C 514.09635,535.49263 513.31249,535.26086 512.5,535.26085 C 511.72916,535.26086 511.09635,535.5421 510.60156,536.1046 C 510.10677,536.6671 509.85937,537.4171 509.85938,538.3546 C 509.85937,539.30773 510.11198,540.06554 510.61719,540.62804 C 511.12239,541.19054 511.7552,541.47179 512.51562,541.47179 C 513.29166,541.47179 514.10676,541.20616 514.96094,540.67491 L 515.38281,541.74522 C 514.47656,542.34418 513.52083,542.64366 512.51562,542.64366 C 511.3125,542.64366 510.33333,542.25304 509.57812,541.47179 C 508.82812,540.68533 508.45312,539.64627 508.45312,538.3546 M 520.27344,534.09679 C 521.44531,534.09679 522.37239,534.48742 523.05469,535.26866 C 523.74218,536.04992 524.08593,537.08377 524.08594,538.37022 C 524.08593,539.65668 523.74218,540.69054 523.05469,541.47179 C 522.37239,542.25304 521.44531,542.64366 520.27344,542.64366 C 519.09635,542.64366 518.16406,542.25564 517.47656,541.4796 C 516.79427,540.69835 516.45312,539.66189 516.45312,538.37022 C 516.45312,537.07335 516.79427,536.0369 517.47656,535.26085 C 518.16406,534.48481 519.09635,534.09679 520.27344,534.09679 M 520.27344,541.44054 C 521.01302,541.44054 521.59895,541.14366 522.03125,540.54991 C 522.46354,539.95616 522.67968,539.2296 522.67969,538.37022 C 522.67968,537.44314 522.46874,536.70096 522.04688,536.14366 C 521.6302,535.58117 521.03906,535.29992 520.27344,535.29991 C 519.5026,535.29992 518.90625,535.57856 518.48438,536.13585 C 518.06771,536.69315 517.85937,537.43794 517.85938,538.37022 C 517.85937,539.23481 518.07552,539.96398 518.50781,540.55772 C 518.9401,541.14627 519.52864,541.44054 520.27344,541.44054 M 532.5625,542.43272 L 531.19531,542.43272 L 531.19531,537.24522 C 531.19531,536.62544 531.04166,536.14367 530.73438,535.79991 C 530.43229,535.45617 530.02083,535.28429 529.5,535.28429 C 528.68229,535.28429 527.90364,535.727 527.16406,536.61241 L 527.16406,542.43272 L 525.80469,542.43272 L 525.80469,534.2921 L 527.16406,534.2921 L 527.16406,535.44054 C 528.01823,534.54471 528.91927,534.09679 529.86719,534.09679 C 530.70051,534.09679 531.35676,534.34159 531.83594,534.83116 C 532.3203,535.31554 532.56249,536.00304 532.5625,536.89366 L 532.5625,542.43272 M 538.07031,542.38585 C 537.5651,542.55772 537.16145,542.64366 536.85938,542.64366 C 536.15625,542.64366 535.64323,542.44574 535.32031,542.04991 C 535.0026,541.65408 534.84375,541.03429 534.84375,540.19054 L 534.84375,535.40929 L 533.85156,535.40929 L 533.85156,534.2921 L 534.84375,534.2921 L 534.84375,532.06554 L 536.20312,532.06554 L 536.20312,534.2921 L 537.76562,534.2921 L 537.76562,535.40929 L 536.20312,535.40929 L 536.20312,540.12804 C 536.20312,541.02387 536.47916,541.47179 537.03125,541.47179 C 537.27083,541.47179 537.53385,541.4197 537.82031,541.31554 L 538.07031,542.38585 M 546.30469,541.69835 C 545.15364,542.32856 544.02864,542.64366 542.92969,542.64366 C 541.60156,542.64366 540.5651,542.26085 539.82031,541.49522 C 539.07552,540.7296 538.70312,539.68273 538.70312,538.3546 C 538.70312,537.08377 539.04687,536.05773 539.73438,535.27647 C 540.42708,534.49002 541.36198,534.09679 542.53906,534.09679 C 543.59635,534.09679 544.46093,534.46138 545.13281,535.19054 C 545.80468,535.9145 546.14062,536.88325 546.14062,538.09679 L 546.14062,538.46397 L 540.10938,538.46397 C 540.15104,539.43793 540.41146,540.18273 540.89062,540.69835 C 541.375,541.21397 542.04948,541.47179 542.91406,541.47179 C 543.92968,541.47179 544.92708,541.17752 545.90625,540.58897 L 546.30469,541.69835 M 544.70312,537.40929 C 544.63541,536.74783 544.39583,536.22179 543.98438,535.83116 C 543.57291,535.44054 543.08593,535.24523 542.52344,535.24522 C 541.90364,535.24523 541.38541,535.43533 540.96875,535.81554 C 540.55208,536.19054 540.28125,536.72179 540.15625,537.40929 L 544.70312,537.40929 M 554.8125,542.43272 L 553.44531,542.43272 L 553.44531,537.24522 C 553.44531,536.62544 553.29166,536.14367 552.98438,535.79991 C 552.68229,535.45617 552.27083,535.28429 551.75,535.28429 C 550.93229,535.28429 550.15364,535.727 549.41406,536.61241 L 549.41406,542.43272 L 548.05469,542.43272 L 548.05469,534.2921 L 549.41406,534.2921 L 549.41406,535.44054 C 550.26823,534.54471 551.16927,534.09679 552.11719,534.09679 C 552.95051,534.09679 553.60676,534.34159 554.08594,534.83116 C 554.5703,535.31554 554.81249,536.00304 554.8125,536.89366 L 554.8125,542.43272 M 560.32031,542.38585 C 559.8151,542.55772 559.41145,542.64366 559.10938,542.64366 C 558.40625,542.64366 557.89323,542.44574 557.57031,542.04991 C 557.2526,541.65408 557.09375,541.03429 557.09375,540.19054 L 557.09375,535.40929 L 556.10156,535.40929 L 556.10156,534.2921 L 557.09375,534.2921 L 557.09375,532.06554 L 558.45312,532.06554 L 558.45312,534.2921 L 560.01562,534.2921 L 560.01562,535.40929 L 558.45312,535.40929 L 558.45312,540.12804 C 558.45312,541.02387 558.72916,541.47179 559.28125,541.47179 C 559.52083,541.47179 559.78385,541.4197 560.07031,541.31554 L 560.32031,542.38585"
       id="flowRoot4051" />
    <rect
       style="opacity:0;fill:none;fill-opacity:1;fill-rule:evenodd;stroke:none;stroke-width:1;stroke-linejoin:round;stroke-miterlimit:4;stroke-dasharray:1, 2;stroke-dashoffset:0;stroke-opacity:1"
       id="rect4059"
       width="672.59229"
       height="245.93619"
       x="33.001022"
       y="341.26874" />
  </g>
</svg>
