<?xml version="1.0" encoding="UTF-8" standalone="no"?>
<!-- Created with Inkscape (http://www.inkscape.org/) -->
<svg
   xmlns:svg="http://www.w3.org/2000/svg"
   xmlns="http://www.w3.org/2000/svg"
   version="1.0"
   width="630"
   height="220"
   id="svg2">
  <defs
     id="defs4">
    <marker
       refX="0"
       refY="0"
       orient="auto"
       id="Arrow1Lend"
       style="overflow:visible">
      <path
         d="M 0,0 L 5,-5 L -12.5,0 L 5,5 L 0,0 z"
         transform="matrix(-0.8,0,0,-0.8,-10,0)"
         id="path3675"
         style="fill-rule:evenodd;stroke:#000000;stroke-width:1pt;marker-start:none" />
    </marker>
    <marker
       refX="0"
       refY="0"
       orient="auto"
       id="Arrow2Lstart"
       style="overflow:visible">
      <path
         d="M 8.7185878,4.0337352 L -2.2072895,0.016013256 L 8.7185884,-4.0017078 C 6.97309,-1.6296469 6.9831476,1.6157441 8.7185878,4.0337352 z"
         transform="matrix(1.1,0,0,1.1,1.1,0)"
         id="path3690"
         style="font-size:12px;fill-rule:evenodd;stroke-width:0.625;stroke-linejoin:round" />
    </marker>
    <marker
       refX="0"
       refY="0"
       orient="auto"
       id="Arrow2Mend"
       style="overflow:visible">
      <path
         d="M 8.7185878,4.0337352 L -2.2072895,0.016013256 L 8.7185884,-4.0017078 C 6.97309,-1.6296469 6.9831476,1.6157441 8.7185878,4.0337352 z"
         transform="scale(-0.6,-0.6)"
         id="path3699"
         style="font-size:12px;fill-rule:evenodd;stroke-width:0.625;stroke-linejoin:round" />
    </marker>
    <marker
       refX="0"
       refY="0"
       orient="auto"
       id="Tail"
       style="overflow:visible">
      <g
         transform="scale(-1.2,-1.2)"
         id="g3708">
        <path
           d="M -3.8048674,-3.9585227 L 0.54352094,0"
           id="path3710"
           style="fill:none;fill-rule:evenodd;stroke:#000000;stroke-width:0.80000001;stroke-linecap:round;marker-start:none;marker-end:none" />
        <path
           d="M -1.2866832,-3.9585227 L 3.0617053,0"
           id="path3712"
           style="fill:none;fill-rule:evenodd;stroke:#000000;stroke-width:0.80000001;stroke-linecap:round;marker-start:none;marker-end:none" />
        <path
           d="M 1.3053582,-3.9585227 L 5.6537466,0"
           id="path3714"
           style="fill:none;fill-rule:evenodd;stroke:#000000;stroke-width:0.80000001;stroke-linecap:round;marker-start:none;marker-end:none" />
        <path
           d="M -3.8048674,4.1775838 L 0.54352094,0.21974226"
           id="path3716"
           style="fill:none;fill-rule:evenodd;stroke:#000000;stroke-width:0.80000001;stroke-linecap:round;marker-start:none;marker-end:none" />
        <path
           d="M -1.2866832,4.1775838 L 3.0617053,0.21974226"
           id="path3718"
           style="fill:none;fill-rule:evenodd;stroke:#000000;stroke-width:0.80000001;stroke-linecap:round;marker-start:none;marker-end:none" />
        <path
           d="M 1.3053582,4.1775838 L 5.6537466,0.21974226"
           id="path3720"
           style="fill:none;fill-rule:evenodd;stroke:#000000;stroke-width:0.80000001;stroke-linecap:round;marker-start:none;marker-end:none" />
      </g>
    </marker>
    <marker
       refX="0"
       refY="0"
       orient="auto"
       id="EmptyTriangleInL"
       style="overflow:visible">
      <path
         d="M 5.77,0 L -2.88,5 L -2.88,-5 L 5.77,0 z"
         transform="matrix(-0.8,0,0,-0.8,4.8,0)"
         id="path3824"
         style="fill:#ffffff;fill-rule:evenodd;stroke:#000000;stroke-width:1pt;marker-start:none" />
    </marker>
  </defs>
  <g
     transform="translate(131.72503,-337.36218)"
     id="layer1">
    <g
       transform="translate(19.999997,-8.2037e-2)"
       id="g3267">
      <rect
         width="80"
         height="165"
         x="200"
         y="377.36218"
         id="rect3167"
         style="opacity:1;fill:none;fill-opacity:1;stroke:#000000;stroke-width:1;stroke-miterlimit:4;stroke-dasharray:none;stroke-opacity:1" />
      <path
         d="M 220,537.36218 C 220,540.69552 220,539.02885 220,542.36218"
         id="path3177"
         style="fill:none;fill-rule:evenodd;stroke:#000000;stroke-width:1px;stroke-linecap:butt;stroke-linejoin:miter;stroke-opacity:1" />
      <path
         d="M 220,522.36218 C 220,525.69552 220,524.02885 220,527.36218"
         id="path3185"
         style="fill:none;fill-rule:evenodd;stroke:#000000;stroke-width:1px;stroke-linecap:butt;stroke-linejoin:miter;stroke-opacity:1" />
      <path
         d="M 220,507.36218 C 220,510.69552 220,509.02885 220,512.36218"
         id="path3193"
         style="fill:none;fill-rule:evenodd;stroke:#000000;stroke-width:1px;stroke-linecap:butt;stroke-linejoin:miter;stroke-opacity:1" />
      <path
         d="M 220,492.36218 C 220,495.69552 220,494.02885 220,497.36218"
         id="path3201"
         style="fill:none;fill-rule:evenodd;stroke:#000000;stroke-width:1px;stroke-linecap:butt;stroke-linejoin:miter;stroke-opacity:1" />
      <path
         d="M 220,477.36218 C 220,480.69552 220,479.02885 220,482.36218"
         id="path3209"
         style="fill:none;fill-rule:evenodd;stroke:#000000;stroke-width:1px;stroke-linecap:butt;stroke-linejoin:miter;stroke-opacity:1" />
      <path
         d="M 220,462.36218 C 220,465.69552 220,464.02885 220,467.36218"
         id="path3217"
         style="fill:none;fill-rule:evenodd;stroke:#000000;stroke-width:1px;stroke-linecap:butt;stroke-linejoin:miter;stroke-opacity:1" />
      <path
         d="M 220,447.36218 C 220,450.69552 220,449.02885 220,452.36218"
         id="path3225"
         style="fill:none;fill-rule:evenodd;stroke:#000000;stroke-width:1px;stroke-linecap:butt;stroke-linejoin:miter;stroke-opacity:1" />
      <path
         d="M 220,432.36218 C 220,435.69552 220,434.02885 220,437.36218"
         id="path3233"
         style="fill:none;fill-rule:evenodd;stroke:#000000;stroke-width:1px;stroke-linecap:butt;stroke-linejoin:miter;stroke-opacity:1" />
      <path
         d="M 220,417.36218 C 220,420.69552 220,419.02885 220,422.36218"
         id="path3241"
         style="fill:none;fill-rule:evenodd;stroke:#000000;stroke-width:1px;stroke-linecap:butt;stroke-linejoin:miter;stroke-opacity:1" />
      <path
         d="M 220,402.36218 C 220,405.69552 220,404.02885 220,407.36218"
         id="path3249"
         style="fill:none;fill-rule:evenodd;stroke:#000000;stroke-width:1px;stroke-linecap:butt;stroke-linejoin:miter;stroke-opacity:1" />
      <path
         d="M 220,387.36218 C 220,390.69552 220,389.02885 220,392.36218"
         id="path3171"
         style="fill:none;fill-rule:evenodd;stroke:#000000;stroke-width:1px;stroke-linecap:butt;stroke-linejoin:miter;stroke-opacity:1" />
      <path
         d="M 240,537.36218 C 240,540.69552 240,539.02885 240,542.36218"
         id="path3179"
         style="fill:none;fill-rule:evenodd;stroke:#000000;stroke-width:1px;stroke-linecap:butt;stroke-linejoin:miter;stroke-opacity:1" />
      <path
         d="M 240,522.36218 C 240,525.69552 240,524.02885 240,527.36218"
         id="path3187"
         style="fill:none;fill-rule:evenodd;stroke:#000000;stroke-width:1px;stroke-linecap:butt;stroke-linejoin:miter;stroke-opacity:1" />
      <path
         d="M 240,507.36218 C 240,510.69552 240,509.02885 240,512.36218"
         id="path3195"
         style="fill:none;fill-rule:evenodd;stroke:#000000;stroke-width:1px;stroke-linecap:butt;stroke-linejoin:miter;stroke-opacity:1" />
      <path
         d="M 240,492.36218 C 240,495.69552 240,494.02885 240,497.36218"
         id="path3203"
         style="fill:none;fill-rule:evenodd;stroke:#000000;stroke-width:1px;stroke-linecap:butt;stroke-linejoin:miter;stroke-opacity:1" />
      <path
         d="M 240,477.36218 C 240,480.69552 240,479.02885 240,482.36218"
         id="path3211"
         style="fill:none;fill-rule:evenodd;stroke:#000000;stroke-width:1px;stroke-linecap:butt;stroke-linejoin:miter;stroke-opacity:1" />
      <path
         d="M 240,462.36218 C 240,465.69552 240,464.02885 240,467.36218"
         id="path3219"
         style="fill:none;fill-rule:evenodd;stroke:#000000;stroke-width:1px;stroke-linecap:butt;stroke-linejoin:miter;stroke-opacity:1" />
      <path
         d="M 240,447.36218 C 240,450.69552 240,449.02885 240,452.36218"
         id="path3227"
         style="fill:none;fill-rule:evenodd;stroke:#000000;stroke-width:1px;stroke-linecap:butt;stroke-linejoin:miter;stroke-opacity:1" />
      <path
         d="M 240,432.36218 C 240,435.69552 240,434.02885 240,437.36218"
         id="path3235"
         style="fill:none;fill-rule:evenodd;stroke:#000000;stroke-width:1px;stroke-linecap:butt;stroke-linejoin:miter;stroke-opacity:1" />
      <path
         d="M 240,417.36218 C 240,420.69552 240,419.02885 240,422.36218"
         id="path3243"
         style="fill:none;fill-rule:evenodd;stroke:#000000;stroke-width:1px;stroke-linecap:butt;stroke-linejoin:miter;stroke-opacity:1" />
      <path
         d="M 240,402.36218 C 240,405.69552 240,404.02885 240,407.36218"
         id="path3251"
         style="fill:none;fill-rule:evenodd;stroke:#000000;stroke-width:1px;stroke-linecap:butt;stroke-linejoin:miter;stroke-opacity:1" />
      <path
         d="M 240,387.36218 C 240,390.69552 240,389.02885 240,392.36218"
         id="path3173"
         style="fill:none;fill-rule:evenodd;stroke:#000000;stroke-width:1px;stroke-linecap:butt;stroke-linejoin:miter;stroke-opacity:1" />
      <path
         d="M 260,537.36218 C 260,540.69552 260,539.02885 260,542.36218"
         id="path3181"
         style="fill:none;fill-rule:evenodd;stroke:#000000;stroke-width:1px;stroke-linecap:butt;stroke-linejoin:miter;stroke-opacity:1" />
      <path
         d="M 260,522.36218 C 260,525.69552 260,524.02885 260,527.36218"
         id="path3189"
         style="fill:none;fill-rule:evenodd;stroke:#000000;stroke-width:1px;stroke-linecap:butt;stroke-linejoin:miter;stroke-opacity:1" />
      <path
         d="M 260,507.36218 C 260,510.69552 260,509.02885 260,512.36218"
         id="path3197"
         style="fill:none;fill-rule:evenodd;stroke:#000000;stroke-width:1px;stroke-linecap:butt;stroke-linejoin:miter;stroke-opacity:1" />
      <path
         d="M 260,492.36218 C 260,495.69552 260,494.02885 260,497.36218"
         id="path3205"
         style="fill:none;fill-rule:evenodd;stroke:#000000;stroke-width:1px;stroke-linecap:butt;stroke-linejoin:miter;stroke-opacity:1" />
      <path
         d="M 260,477.36218 C 260,480.69552 260,479.02885 260,482.36218"
         id="path3213"
         style="fill:none;fill-rule:evenodd;stroke:#000000;stroke-width:1px;stroke-linecap:butt;stroke-linejoin:miter;stroke-opacity:1" />
      <path
         d="M 260,462.36218 C 260,465.69552 260,464.02885 260,467.36218"
         id="path3221"
         style="fill:none;fill-rule:evenodd;stroke:#000000;stroke-width:1px;stroke-linecap:butt;stroke-linejoin:miter;stroke-opacity:1" />
      <path
         d="M 260,447.36218 C 260,450.69552 260,449.02885 260,452.36218"
         id="path3229"
         style="fill:none;fill-rule:evenodd;stroke:#000000;stroke-width:1px;stroke-linecap:butt;stroke-linejoin:miter;stroke-opacity:1" />
      <path
         d="M 260,432.36218 C 260,435.69552 260,434.02885 260,437.36218"
         id="path3237"
         style="fill:none;fill-rule:evenodd;stroke:#000000;stroke-width:1px;stroke-linecap:butt;stroke-linejoin:miter;stroke-opacity:1" />
      <path
         d="M 260,417.36218 C 260,420.69552 260,419.02885 260,422.36218"
         id="path3245"
         style="fill:none;fill-rule:evenodd;stroke:#000000;stroke-width:1px;stroke-linecap:butt;stroke-linejoin:miter;stroke-opacity:1" />
      <path
         d="M 260,402.36218 C 260,405.69552 260,404.02885 260,407.36218"
         id="path3253"
         style="fill:none;fill-rule:evenodd;stroke:#000000;stroke-width:1px;stroke-linecap:butt;stroke-linejoin:miter;stroke-opacity:1" />
      <path
         d="M 260,387.36218 C 260,390.69552 260,389.02885 260,392.36218"
         id="path3169"
         style="fill:none;fill-rule:evenodd;stroke:#000000;stroke-width:1px;stroke-linecap:butt;stroke-linejoin:miter;stroke-opacity:1" />
      <path
         d="M 200,527.36218 L 280,527.36218"
         id="path3183"
         style="fill:none;fill-rule:evenodd;stroke:#000000;stroke-width:1px;stroke-linecap:butt;stroke-linejoin:miter;stroke-opacity:1" />
      <path
         d="M 200,512.36218 L 280,512.36218"
         id="path3191"
         style="fill:none;fill-rule:evenodd;stroke:#000000;stroke-width:1px;stroke-linecap:butt;stroke-linejoin:miter;stroke-opacity:1" />
      <path
         d="M 200,497.36218 L 280,497.36218"
         id="path3199"
         style="fill:none;fill-rule:evenodd;stroke:#000000;stroke-width:1px;stroke-linecap:butt;stroke-linejoin:miter;stroke-opacity:1" />
      <path
         d="M 200,482.36218 L 280,482.36218"
         id="path3207"
         style="fill:none;fill-rule:evenodd;stroke:#000000;stroke-width:1px;stroke-linecap:butt;stroke-linejoin:miter;stroke-opacity:1" />
      <path
         d="M 200,467.36218 L 280,467.36218"
         id="path3215"
         style="fill:none;fill-rule:evenodd;stroke:#000000;stroke-width:1px;stroke-linecap:butt;stroke-linejoin:miter;stroke-opacity:1" />
      <path
         d="M 200,452.36218 L 280,452.36218"
         id="path3223"
         style="fill:none;fill-rule:evenodd;stroke:#000000;stroke-width:1px;stroke-linecap:butt;stroke-linejoin:miter;stroke-opacity:1" />
      <path
         d="M 200,437.36218 L 280,437.36218"
         id="path3231"
         style="fill:none;fill-rule:evenodd;stroke:#000000;stroke-width:1px;stroke-linecap:butt;stroke-linejoin:miter;stroke-opacity:1" />
      <path
         d="M 200,422.36218 L 280,422.36218"
         id="path3239"
         style="fill:none;fill-rule:evenodd;stroke:#000000;stroke-width:1px;stroke-linecap:butt;stroke-linejoin:miter;stroke-opacity:1" />
      <path
         d="M 200,407.36218 L 280,407.36218"
         id="path3247"
         style="fill:none;fill-rule:evenodd;stroke:#000000;stroke-width:1px;stroke-linecap:butt;stroke-linejoin:miter;stroke-opacity:1" />
      <path
         d="M 200,392.36218 L 280,392.36218"
         id="path3255"
         style="fill:none;fill-rule:evenodd;stroke:#000000;stroke-width:1px;stroke-linecap:butt;stroke-linejoin:miter;stroke-opacity:1" />
    </g>
    <path
       d="M 220.06542,360.57897 C 220.26073,360.35632 220.52441,360.17468 220.85644,360.03405 C 221.19237,359.89343 221.53612,359.82312 221.88769,359.82311 C 222.6455,359.82312 223.26659,360.10437 223.75097,360.66686 C 224.23925,361.22937 224.48339,361.97546 224.48339,362.90515 C 224.48339,363.93249 224.23925,364.74499 223.75097,365.34265 C 223.26659,365.9364 222.6455,366.23327 221.88769,366.23327 C 221.12206,366.23327 220.51464,365.99304 220.06542,365.51257 L 220.06542,366.07507 L 218.44238,366.07507 L 218.44238,357.36218 L 220.06542,357.36218 L 220.06542,360.57897 M 220.06542,364.15319 C 220.43651,364.61804 220.90526,364.85046 221.47167,364.85046 C 221.85839,364.85046 222.17675,364.68444 222.42675,364.35241 C 222.67675,364.01648 222.80175,363.56335 222.80175,362.99304 C 222.80175,362.4071 222.67479,361.95984 222.42089,361.65124 C 222.16698,361.34265 221.84472,361.18835 221.4541,361.18835 C 220.92675,361.18835 220.46386,361.4364 220.06542,361.93249 L 220.06542,364.15319 M 231.40917,366.07507 L 229.78613,366.07507 L 229.78613,365.33093 C 229.27831,365.92468 228.62401,366.22155 227.82324,366.22155 C 227.18652,366.22155 226.68066,366.0321 226.30566,365.65319 C 225.93066,365.27429 225.74316,364.74694 225.74316,364.07116 L 225.74316,359.9696 L 227.3662,359.9696 L 227.3662,363.55554 C 227.3662,364.41882 227.67675,364.85046 228.29785,364.85046 C 228.85253,364.85046 229.34862,364.55554 229.78613,363.96569 L 229.78613,359.9696 L 231.40917,359.9696 L 231.40917,366.07507 M 236.69433,357.50866 L 236.3955,358.82702 C 236.04784,358.69812 235.75878,358.63367 235.52831,358.63366 C 235.34862,358.63367 235.208,358.72351 235.10644,358.90319 C 235.00487,359.08289 234.95409,359.33289 234.9541,359.65319 L 234.9541,359.9696 L 236.21386,359.9696 L 236.21386,361.22936 L 234.9541,361.22936 L 234.9541,366.07507 L 233.33105,366.07507 L 233.33105,361.22936 L 232.31152,361.22936 L 232.31152,359.9696 L 233.33105,359.9696 L 233.33105,359.38952 C 233.33105,358.70593 233.50878,358.18445 233.86425,357.82507 C 234.21972,357.46179 234.73144,357.28015 235.39941,357.28015 C 235.7705,357.28015 236.20214,357.35633 236.69433,357.50866 M 240.70214,357.50866 L 240.40331,358.82702 C 240.05565,358.69812 239.76659,358.63367 239.53613,358.63366 C 239.35644,358.63367 239.21581,358.72351 239.11425,358.90319 C 239.01269,359.08289 238.96191,359.33289 238.96191,359.65319 L 238.96191,359.9696 L 240.22167,359.9696 L 240.22167,361.22936 L 238.96191,361.22936 L 238.96191,366.07507 L 237.33886,366.07507 L 237.33886,361.22936 L 236.31933,361.22936 L 236.31933,359.9696 L 237.33886,359.9696 L 237.33886,359.38952 C 237.33886,358.70593 237.51659,358.18445 237.87206,357.82507 C 238.22753,357.46179 238.73925,357.28015 239.40722,357.28015 C 239.77831,357.28015 240.20995,357.35633 240.70214,357.50866 M 246.55566,365.55944 C 245.84862,366.00866 245.03612,366.23327 244.11816,366.23327 C 243.083,366.23327 242.26073,365.9403 241.65136,365.35436 C 241.04199,364.76843 240.7373,363.98913 240.7373,363.01647 C 240.7373,362.05945 241.01074,361.28796 241.55761,360.70202 C 242.10448,360.11609 242.82714,359.82312 243.72558,359.82311 C 244.5537,359.82312 245.22948,360.10242 245.75292,360.661 C 246.28026,361.2157 246.54393,361.99304 246.54394,362.99304 L 246.54394,363.39733 L 242.44238,363.39733 C 242.50097,363.81921 242.69042,364.17077 243.01074,364.45202 C 243.33105,364.73327 243.71386,364.8739 244.15917,364.8739 C 244.86229,364.8739 245.56542,364.67468 246.26855,364.27624 L 246.55566,365.55944 M 244.98535,362.30749 C 244.93847,361.90124 244.8037,361.57898 244.58105,361.34069 C 244.35839,361.09851 244.08495,360.97742 243.76074,360.97741 C 243.42089,360.97742 243.12987,361.09851 242.88769,361.34069 C 242.6455,361.57898 242.50097,361.90124 242.4541,362.30749 L 244.98535,362.30749 M 251.70019,360.06335 L 251.40136,361.53991 C 251.23729,361.42663 251.06542,361.36999 250.88574,361.36999 C 250.68261,361.36999 250.4873,361.4364 250.2998,361.56921 C 250.1123,361.69812 249.92089,361.92468 249.72558,362.2489 C 249.53026,362.56921 249.43261,362.75671 249.43261,362.8114 L 249.43261,366.07507 L 247.80956,366.07507 L 247.80956,359.9696 L 249.43261,359.9696 L 249.43261,361.17663 C 249.65136,360.68054 249.87597,360.33093 250.10644,360.1278 C 250.3369,359.92468 250.6162,359.82312 250.94433,359.82311 C 251.24511,359.82312 251.49706,359.9032 251.70019,360.06335 M 264.80175,366.07507 L 263.18456,366.07507 L 263.18456,362.48913 C 263.18456,361.98132 263.1201,361.63757 262.9912,361.45788 C 262.8662,361.2782 262.67479,361.18835 262.41699,361.18835 C 261.98729,361.18835 261.55175,361.51648 261.11035,362.17272 L 261.11035,366.07507 L 259.4873,366.07507 L 259.4873,362.48913 C 259.48729,361.94617 259.42479,361.5946 259.2998,361.43444 C 259.17479,361.27038 258.99315,361.18835 258.75488,361.18835 C 258.31737,361.18835 257.87401,361.52038 257.4248,362.18444 L 257.4248,366.07507 L 255.80175,366.07507 L 255.80175,359.9696 L 257.4248,359.9696 L 257.4248,360.90124 C 257.89745,360.18249 258.51269,359.82312 259.2705,359.82311 C 260.06737,359.82312 260.63182,360.18249 260.96386,360.90124 C 261.47167,360.18249 262.13182,359.82312 262.94433,359.82311 C 263.53807,359.82312 263.9951,360.00867 264.31542,360.37975 C 264.63963,360.74695 264.80174,361.2782 264.80175,361.9735 L 264.80175,366.07507 M 271.8916,365.55944 C 271.18456,366.00866 270.37206,366.23327 269.4541,366.23327 C 268.41894,366.23327 267.59667,365.9403 266.9873,365.35436 C 266.37792,364.76843 266.07324,363.98913 266.07324,363.01647 C 266.07324,362.05945 266.34667,361.28796 266.89355,360.70202 C 267.44042,360.11609 268.16308,359.82312 269.06152,359.82311 C 269.88964,359.82312 270.56542,360.10242 271.08886,360.661 C 271.6162,361.2157 271.87987,361.99304 271.87988,362.99304 L 271.87988,363.39733 L 267.77831,363.39733 C 267.83691,363.81921 268.02636,364.17077 268.34667,364.45202 C 268.66698,364.73327 269.0498,364.8739 269.49511,364.8739 C 270.19823,364.8739 270.90136,364.67468 271.60449,364.27624 L 271.8916,365.55944 M 270.32128,362.30749 C 270.2744,361.90124 270.13964,361.57898 269.91699,361.34069 C 269.69433,361.09851 269.42089,360.97742 269.09667,360.97741 C 268.75683,360.97742 268.46581,361.09851 268.22363,361.34069 C 267.98144,361.57898 267.83691,361.90124 267.79003,362.30749 L 270.32128,362.30749 M 282.1455,366.07507 L 280.52831,366.07507 L 280.52831,362.48913 C 280.52831,361.98132 280.46385,361.63757 280.33496,361.45788 C 280.20995,361.2782 280.01854,361.18835 279.76074,361.18835 C 279.33104,361.18835 278.8955,361.51648 278.4541,362.17272 L 278.4541,366.07507 L 276.83105,366.07507 L 276.83105,362.48913 C 276.83104,361.94617 276.76854,361.5946 276.64355,361.43444 C 276.51854,361.27038 276.3369,361.18835 276.09863,361.18835 C 275.66112,361.18835 275.21776,361.52038 274.76855,362.18444 L 274.76855,366.07507 L 273.1455,366.07507 L 273.1455,359.9696 L 274.76855,359.9696 L 274.76855,360.90124 C 275.2412,360.18249 275.85644,359.82312 276.61425,359.82311 C 277.41112,359.82312 277.97557,360.18249 278.30761,360.90124 C 278.81542,360.18249 279.47557,359.82312 280.28808,359.82311 C 280.88182,359.82312 281.33885,360.00867 281.65917,360.37975 C 281.98338,360.74695 282.14549,361.2782 282.1455,361.9735 L 282.1455,366.07507 M 286.62206,359.82311 C 287.5869,359.82312 288.36425,360.10632 288.9541,360.67272 C 289.54393,361.23913 289.83885,362.02429 289.83886,363.02819 C 289.83885,364.0321 289.54393,364.81726 288.9541,365.38366 C 288.36425,365.95007 287.5869,366.23327 286.62206,366.23327 C 285.65722,366.23327 284.88183,365.95007 284.29589,365.38366 C 283.70995,364.81726 283.41699,364.0321 283.41699,363.02819 C 283.41699,362.02038 283.70995,361.23523 284.29589,360.67272 C 284.88183,360.10632 285.65722,359.82312 286.62206,359.82311 M 286.62206,364.85046 C 287.0869,364.85046 287.458,364.6864 287.73535,364.35827 C 288.01659,364.02624 288.15722,363.58288 288.15722,363.02819 C 288.15722,362.4696 288.01854,362.02624 287.7412,361.69811 C 287.46776,361.36999 287.09472,361.20593 286.62206,361.20593 C 286.13378,361.20593 285.75683,361.36609 285.4912,361.6864 C 285.22948,362.00281 285.09862,362.45007 285.09863,363.02819 C 285.09862,363.59069 285.23144,364.03601 285.49706,364.36413 C 285.76269,364.68835 286.13769,364.85046 286.62206,364.85046 M 295.03613,360.06335 L 294.7373,361.53991 C 294.57323,361.42663 294.40136,361.36999 294.22167,361.36999 C 294.01855,361.36999 293.82323,361.4364 293.63574,361.56921 C 293.44823,361.69812 293.25683,361.92468 293.06152,362.2489 C 292.8662,362.56921 292.76855,362.75671 292.76855,362.8114 L 292.76855,366.07507 L 291.1455,366.07507 L 291.1455,359.9696 L 292.76855,359.9696 L 292.76855,361.17663 C 292.9873,360.68054 293.21191,360.33093 293.44238,360.1278 C 293.67284,359.92468 293.95214,359.82312 294.28027,359.82311 C 294.58104,359.82312 294.833,359.9032 295.03613,360.06335 M 301.55761,359.9696 L 299.17285,366.18054 C 298.87597,366.95788 298.49511,367.54968 298.03027,367.95593 C 297.56933,368.36608 296.94628,368.57116 296.16113,368.57116 C 295.75097,368.57116 295.32714,368.5028 294.88964,368.36608 L 295.17675,367.07116 C 295.49316,367.16882 295.76855,367.21764 296.00292,367.21765 C 296.35839,367.21764 296.64355,367.13561 296.85839,366.97155 C 297.07714,366.81139 297.26073,366.51257 297.40917,366.07507 L 295.0537,359.9696 L 296.84667,359.9696 L 298.31738,364.36999 L 299.85839,359.9696 L 301.55761,359.9696"
       id="flowRoot3257"
       style="font-size:12px;font-style:normal;font-variant:normal;font-weight:normal;font-stretch:normal;fill:#000000;fill-opacity:1;stroke:none;stroke-width:1px;stroke-linecap:butt;stroke-linejoin:miter;stroke-opacity:1;font-family:Sans;-inkscape-font-specification:Adobe Helvetica" />
    <path
       d="M 364.77724,427.2854 L 486.7087,427.2854 L 486.7087,479.85431"
       id="rect4131"
       style="fill:#ffffff;fill-opacity:1;stroke:#000000;stroke-width:0.68133765;stroke-miterlimit:4;stroke-opacity:1" />
    <rect
       width="121.93147"
       height="52.568897"
       x="360.18845"
       y="432.49966"
       id="rect4129"
       style="fill:#ffffff;fill-opacity:1;stroke:#000000;stroke-width:0.68133765;stroke-miterlimit:4;stroke-dasharray:none;stroke-opacity:1" />
    <path
       d="M 360.18417,432.50493 L 365,427.28014"
       id="path4140"
       style="fill:none;fill-rule:evenodd;stroke:#000000;stroke-width:0.67187274px;stroke-linecap:butt;stroke-linejoin:miter;stroke-opacity:1" />
    <path
       d="M 482.00636,432.50493 L 486.8222,427.28014"
       id="path4142"
       style="fill:none;fill-rule:evenodd;stroke:#000000;stroke-width:0.67187274px;stroke-linecap:butt;stroke-linejoin:miter;stroke-opacity:1" />
    <path
       d="M 482.11562,485.07381 L 486.93146,479.84903"
       id="path4144"
       style="fill:none;fill-rule:evenodd;stroke:#000000;stroke-width:0.67187274px;stroke-linecap:butt;stroke-linejoin:miter;stroke-opacity:1" />
    <path
       d="M 360,457.28014 L 295,402.28014"
       id="path3667"
       style="fill:none;fill-rule:evenodd;stroke:#000000;stroke-width:0.99921262;stroke-linecap:butt;stroke-linejoin:miter;marker-start:url(#Arrow2Lstart);marker-mid:url(#Arrow2Mend);marker-end:none;stroke-miterlimit:4;stroke-dasharray:none;stroke-opacity:1" />
    <path
       d="M 330,392.28014 L 330,457.28014"
       id="path7148"
       style="fill:none;fill-rule:evenodd;stroke:#000000;stroke-width:1;stroke-linecap:butt;stroke-linejoin:miter;marker-end:url(#Arrow2Mend);stroke-miterlimit:4;stroke-dasharray:1, 2;stroke-dashoffset:0;stroke-opacity:1" />
    <path
       d="M 64.590317,429.3454 L 137.75343,429.3454 L 137.75343,482.05221"
       id="path8823"
       style="fill:#ffffff;fill-opacity:1;stroke:#000000;stroke-width:1;stroke-miterlimit:4;stroke-dasharray:none;stroke-opacity:1" />
    <rect
       width="73.163116"
       height="52.706795"
       x="61.83688"
       y="434.57336"
       id="rect8825"
       style="fill:#ffffff;fill-opacity:1;stroke:#000000;stroke-width:1;stroke-miterlimit:4;stroke-dasharray:none;stroke-opacity:1" />
    <path
       d="M 134.93186,434.57862 L 137.82153,429.34013"
       id="path8829"
       style="fill:none;fill-rule:evenodd;stroke:#000000;stroke-width:1;stroke-linecap:butt;stroke-linejoin:miter;stroke-miterlimit:4;stroke-dasharray:none;stroke-opacity:1" />
    <path
       d="M 134.99742,487.2854 L 137.88709,482.04692"
       id="path8831"
       style="fill:none;fill-rule:evenodd;stroke:#000000;stroke-width:1;stroke-linecap:butt;stroke-linejoin:miter;stroke-miterlimit:4;stroke-dasharray:none;stroke-opacity:1" />
    <path
       d="M 155,467.28014 L 179.08414,467.28014 L 179.08414,478.14081 L 203.16829,456.41949 L 179.08414,434.69819 L 179.08414,445.55884 L 155,445.55884 L 155,467.28014 z"
       id="path585"
       style="fill:none;stroke:#000000;stroke-width:1;stroke-linecap:butt;stroke-linejoin:miter;stroke-miterlimit:10;stroke-dasharray:none" />
    <path
       d="M 158.73242,418.55554 L 158.49218,419.34656 C 158.16015,419.24891 157.88866,419.20008 157.67773,419.20007 C 157.43945,419.20008 157.27343,419.29774 157.17968,419.49304 C 157.08593,419.68445 157.03906,419.99109 157.03906,420.41296 L 157.03906,421.01648 L 158.37499,421.01648 L 158.37499,421.85437 L 157.03906,421.85437 L 157.03906,427.12195 L 156.01953,427.12195 L 156.01953,421.85437 L 154.99999,421.85437 L 154.99999,421.01648 L 156.01953,421.01648 L 156.01953,420.27234 C 156.01953,419.56531 156.15234,419.06531 156.41796,418.77234 C 156.68359,418.47547 157.0996,418.32703 157.66601,418.32703 C 157.98241,418.32703 158.33788,418.40321 158.73242,418.55554 M 160.12695,427.12195 L 159.10742,427.12195 L 159.10742,421.01648 L 160.12695,421.01648 L 160.12695,427.12195 M 159.61132,418.40906 C 159.7832,418.40907 159.92968,418.47157 160.05078,418.59656 C 160.17577,418.71766 160.23827,418.86414 160.23828,419.03601 C 160.23827,419.20008 160.17577,419.34266 160.05078,419.46374 C 159.92968,419.58485 159.7832,419.64539 159.61132,419.64538 C 159.44726,419.64539 159.30468,419.58485 159.18359,419.46374 C 159.06249,419.34266 159.00195,419.20008 159.00195,419.03601 C 159.00195,418.86024 159.06054,418.7118 159.17773,418.5907 C 159.29882,418.46961 159.44335,418.40907 159.61132,418.40906 M 162.79882,427.12195 L 161.77929,427.12195 L 161.77929,418.40906 L 162.79882,418.40906 L 162.79882,427.12195 M 165.4707,427.12195 L 164.45117,427.12195 L 164.45117,418.40906 L 165.4707,418.40906 L 165.4707,427.12195 M 171.18359,422.28796 C 170.56249,421.91687 169.95702,421.73133 169.36718,421.73132 C 168.89843,421.73133 168.53906,421.80359 168.28906,421.94812 C 168.03906,422.09266 167.91406,422.29383 167.91406,422.55163 C 167.91406,422.73523 167.99609,422.88758 168.16015,423.00867 C 168.32812,423.12586 168.59374,423.23719 168.95703,423.34265 L 169.76562,423.57117 C 170.54296,423.78992 171.07226,424.03992 171.35351,424.32117 C 171.63866,424.59851 171.78124,424.95203 171.78125,425.38171 C 171.78124,425.97546 171.55858,426.44031 171.11328,426.77624 C 170.67187,427.11218 170.07421,427.28015 169.32031,427.28015 C 168.43359,427.28015 167.62109,427.07507 166.88281,426.66492 L 167.18749,425.86218 C 167.8789,426.22937 168.57031,426.41296 169.26171,426.41296 C 170.27733,426.41296 170.78515,426.11023 170.78515,425.50476 C 170.78515,425.27039 170.67968,425.07312 170.46875,424.91296 C 170.2578,424.75281 169.80273,424.57703 169.10351,424.38562 C 168.54101,424.22937 168.15624,424.11023 167.94921,424.0282 C 167.74218,423.94226 167.55663,423.83093 167.39257,423.69421 C 167.22851,423.55359 167.10742,423.39734 167.02929,423.22546 C 166.95507,423.05359 166.91796,422.86023 166.91796,422.64538 C 166.91796,422.11414 167.1289,421.68641 167.55078,421.36218 C 167.97265,421.03406 168.57812,420.87 169.36718,420.86999 C 169.69921,420.87 170.06249,420.92469 170.45703,421.03406 C 170.85155,421.13953 171.20507,421.28797 171.51757,421.47937 L 171.18359,422.28796"
       id="flowRoot8848"
       style="font-size:12px;font-style:normal;font-variant:normal;font-weight:normal;font-stretch:normal;fill:#000000;fill-opacity:1;stroke:none;stroke-width:1px;stroke-linecap:butt;stroke-linejoin:miter;stroke-opacity:1;font-family:Sans;-inkscape-font-specification:Adobe Helvetica" />
    <path
       d="M 337.4707,400.99304 L 336.45117,400.99304 L 336.45117,394.88757 L 337.4707,394.88757 L 337.4707,400.99304 M 336.95508,392.28015 C 337.12695,392.28016 337.27344,392.34266 337.39453,392.46765 C 337.51953,392.58875 337.58203,392.73523 337.58203,392.9071 C 337.58203,393.07117 337.51953,393.21375 337.39453,393.33483 C 337.27344,393.45594 337.12695,393.51648 336.95508,393.51647 C 336.79101,393.51648 336.64844,393.45594 336.52734,393.33483 C 336.40625,393.21375 336.3457,393.07117 336.3457,392.9071 C 336.3457,392.73133 336.4043,392.58289 336.52148,392.46179 C 336.64258,392.3407 336.78711,392.28016 336.95508,392.28015 M 341.63086,400.95788 C 341.25195,401.08679 340.94922,401.15124 340.72266,401.15124 C 340.19531,401.15124 339.81055,401.0028 339.56836,400.70593 C 339.33008,400.40905 339.21094,399.94421 339.21094,399.3114 L 339.21094,395.72546 L 338.4668,395.72546 L 338.4668,394.88757 L 339.21094,394.88757 L 339.21094,393.21765 L 340.23047,393.21765 L 340.23047,394.88757 L 341.40234,394.88757 L 341.40234,395.72546 L 340.23047,395.72546 L 340.23047,399.26452 C 340.23047,399.9364 340.4375,400.27233 340.85156,400.27233 C 341.03125,400.27233 341.22851,400.23327 341.44336,400.15515 L 341.63086,400.95788 M 347.80664,400.44226 C 346.94335,400.91491 346.0996,401.15124 345.27539,401.15124 C 344.27929,401.15124 343.50195,400.86413 342.94336,400.28991 C 342.38476,399.71569 342.10547,398.93054 342.10547,397.93444 C 342.10547,396.98132 342.36328,396.21179 342.87891,395.62585 C 343.39844,395.03601 344.09961,394.74109 344.98242,394.74108 C 345.77539,394.74109 346.42382,395.01453 346.92773,395.5614 C 347.43163,396.10437 347.68359,396.83093 347.68359,397.74108 L 347.68359,398.01647 L 343.16016,398.01647 C 343.1914,398.74695 343.38672,399.30554 343.74609,399.69226 C 344.10937,400.07898 344.61523,400.27233 345.26367,400.27233 C 346.02539,400.27233 346.77343,400.05163 347.50781,399.61022 L 347.80664,400.44226 M 346.60547,397.22546 C 346.55468,396.72937 346.375,396.33484 346.06641,396.04187 C 345.75781,395.7489 345.39257,395.60242 344.9707,395.60241 C 344.50586,395.60242 344.11719,395.745 343.80469,396.03015 C 343.49219,396.3114 343.28906,396.70984 343.19531,397.22546 L 346.60547,397.22546 M 352.40625,394.98132 L 352.10742,395.85437 C 351.92773,395.745 351.76367,395.69031 351.61523,395.6903 C 351.40039,395.69031 351.19531,395.79382 351,396.00085 C 350.80469,396.20789 350.61133,396.51257 350.41992,396.91491 C 350.23242,397.31726 350.13867,397.52038 350.13867,397.52429 L 350.13867,400.99304 L 349.11914,400.99304 L 349.11914,394.88757 L 350.08008,394.88757 L 350.08008,396.29968 C 350.37304,395.69421 350.63476,395.28406 350.86523,395.06921 C 351.0957,394.85047 351.36523,394.74109 351.67383,394.74108 C 351.96679,394.74109 352.21093,394.82117 352.40625,394.98132 M 358.42969,400.99304 L 357.32813,400.99304 C 357.26562,400.89538 357.21093,400.75671 357.16406,400.57702 C 357.12109,400.39733 357.0996,400.2489 357.09961,400.13171 C 356.37695,400.8114 355.58203,401.15124 354.71484,401.15124 C 354.14062,401.15124 353.67383,401.0028 353.31445,400.70593 C 352.95898,400.40515 352.78125,399.98913 352.78125,399.45788 C 352.78125,399.03601 352.88672,398.68054 353.09766,398.39147 C 353.3125,398.09851 353.63281,397.86999 354.05859,397.70593 C 354.48828,397.54187 355.0332,397.43835 355.69336,397.39538 L 357.07617,397.30749 L 357.07617,397.11413 C 357.07617,396.54382 356.96289,396.14734 356.73633,395.92468 C 356.50976,395.70203 356.11132,395.5907 355.54102,395.59069 C 355.26758,395.5907 354.92773,395.65125 354.52148,395.77233 C 354.11914,395.88953 353.7793,396.02625 353.50195,396.18249 L 353.20313,395.40319 C 353.53125,395.20789 353.93164,395.04968 354.4043,394.92858 C 354.88086,394.80359 355.3164,394.74109 355.71094,394.74108 C 356.52343,394.74109 357.12304,394.92468 357.50977,395.29187 C 357.90039,395.65906 358.0957,396.2196 358.0957,396.97351 L 358.0957,399.53991 C 358.0957,400.17663 358.20703,400.66101 358.42969,400.99304 M 357.07617,399.24108 L 357.07617,398.07507 C 356.20117,398.12585 355.62695,398.16687 355.35352,398.19812 C 355.08398,398.22546 354.82031,398.28796 354.5625,398.38562 C 354.30469,398.48327 354.10937,398.61609 353.97656,398.78405 C 353.84375,398.95202 353.77734,399.16101 353.77734,399.41101 C 353.77734,399.66882 353.87695,399.8778 354.07617,400.03796 C 354.27539,400.19421 354.53125,400.27233 354.84375,400.27233 C 355.24218,400.27233 355.65039,400.17858 356.06836,399.99108 C 356.48632,399.79968 356.82226,399.54968 357.07617,399.24108 M 362.32617,400.95788 C 361.94726,401.08679 361.64453,401.15124 361.41797,401.15124 C 360.89062,401.15124 360.50586,401.0028 360.26367,400.70593 C 360.02539,400.40905 359.90625,399.94421 359.90625,399.3114 L 359.90625,395.72546 L 359.16211,395.72546 L 359.16211,394.88757 L 359.90625,394.88757 L 359.90625,393.21765 L 360.92578,393.21765 L 360.92578,394.88757 L 362.09766,394.88757 L 362.09766,395.72546 L 360.92578,395.72546 L 360.92578,399.26452 C 360.92578,399.9364 361.13281,400.27233 361.54687,400.27233 C 361.72656,400.27233 361.92383,400.23327 362.13867,400.15515 L 362.32617,400.95788 M 368.50195,400.44226 C 367.63867,400.91491 366.79492,401.15124 365.9707,401.15124 C 364.97461,401.15124 364.19726,400.86413 363.63867,400.28991 C 363.08008,399.71569 362.80078,398.93054 362.80078,397.93444 C 362.80078,396.98132 363.05859,396.21179 363.57422,395.62585 C 364.09375,395.03601 364.79492,394.74109 365.67773,394.74108 C 366.4707,394.74109 367.11914,395.01453 367.62305,395.5614 C 368.12695,396.10437 368.3789,396.83093 368.37891,397.74108 L 368.37891,398.01647 L 363.85547,398.01647 C 363.88672,398.74695 364.08203,399.30554 364.44141,399.69226 C 364.80469,400.07898 365.31054,400.27233 365.95898,400.27233 C 366.7207,400.27233 367.46874,400.05163 368.20313,399.61022 L 368.50195,400.44226 M 367.30078,397.22546 C 367.25,396.72937 367.07031,396.33484 366.76172,396.04187 C 366.45312,395.7489 366.08789,395.60242 365.66602,395.60241 C 365.20117,395.60242 364.8125,395.745 364.5,396.03015 C 364.1875,396.3114 363.98437,396.70984 363.89063,397.22546 L 367.30078,397.22546 M 373.88672,396.15905 C 373.26562,395.78796 372.66015,395.60242 372.07031,395.60241 C 371.60156,395.60242 371.24219,395.67468 370.99219,395.81921 C 370.74219,395.96375 370.61719,396.16492 370.61719,396.42272 C 370.61719,396.60632 370.69922,396.75867 370.86328,396.87976 C 371.03125,396.99695 371.29687,397.10828 371.66016,397.21374 L 372.46875,397.44226 C 373.24609,397.66101 373.77539,397.91101 374.05664,398.19226 C 374.34179,398.4696 374.48437,398.82312 374.48437,399.2528 C 374.48437,399.84655 374.26171,400.3114 373.81641,400.64733 C 373.375,400.98327 372.77734,401.15124 372.02344,401.15124 C 371.13672,401.15124 370.32422,400.94616 369.58594,400.53601 L 369.89063,399.73327 C 370.58203,400.10046 371.27344,400.28405 371.96484,400.28405 C 372.98046,400.28405 373.48828,399.98132 373.48828,399.37585 C 373.48828,399.14148 373.38281,398.94421 373.17187,398.78405 C 372.96093,398.6239 372.50586,398.44812 371.80664,398.25671 C 371.24414,398.10046 370.85937,397.98132 370.65234,397.89929 C 370.44531,397.81335 370.25976,397.70202 370.0957,397.5653 C 369.93164,397.42468 369.81055,397.26843 369.73242,397.09655 C 369.6582,396.92468 369.62109,396.73132 369.62109,396.51647 C 369.62109,395.98523 369.83203,395.5575 370.25391,395.23327 C 370.67578,394.90515 371.28125,394.74109 372.07031,394.74108 C 372.40234,394.74109 372.76562,394.79578 373.16016,394.90515 C 373.55468,395.01062 373.9082,395.15906 374.2207,395.35046 L 373.88672,396.15905 M 338.9707,409.74108 C 339.84961,409.74109 340.54492,410.03406 341.05664,410.61999 C 341.57226,411.20593 341.83007,411.98132 341.83008,412.94616 C 341.83007,413.91101 341.57226,414.6864 341.05664,415.27233 C 340.54492,415.85827 339.84961,416.15124 338.9707,416.15124 C 338.08789,416.15124 337.38867,415.86022 336.87305,415.27819 C 336.36133,414.69226 336.10547,413.91491 336.10547,412.94616 C 336.10547,411.97351 336.36133,411.19617 336.87305,410.61413 C 337.38867,410.03211 338.08789,409.74109 338.9707,409.74108 M 338.9707,415.2489 C 339.52539,415.2489 339.96484,415.02624 340.28906,414.58093 C 340.61328,414.13562 340.77539,413.5907 340.77539,412.94616 C 340.77539,412.25085 340.61718,411.69421 340.30078,411.27624 C 339.98828,410.85437 339.54492,410.64343 338.9707,410.64343 C 338.39258,410.64343 337.94531,410.85242 337.62891,411.27038 C 337.3164,411.68835 337.16015,412.24695 337.16016,412.94616 C 337.16015,413.5946 337.32226,414.14148 337.64648,414.58679 C 337.9707,415.02819 338.41211,415.2489 338.9707,415.2489 M 348.21094,409.88757 L 345.77344,415.99304 L 344.83594,415.99304 L 342.39844,409.88757 L 343.44727,409.88757 L 345.30469,414.73327 L 347.16211,409.88757 L 348.21094,409.88757 M 354.48633,415.44226 C 353.62304,415.91491 352.77929,416.15124 351.95508,416.15124 C 350.95898,416.15124 350.18164,415.86413 349.62305,415.28991 C 349.06445,414.71569 348.78516,413.93054 348.78516,412.93444 C 348.78516,411.98132 349.04297,411.21179 349.55859,410.62585 C 350.07812,410.03601 350.77929,409.74109 351.66211,409.74108 C 352.45507,409.74109 353.10351,410.01453 353.60742,410.5614 C 354.11132,411.10437 354.36328,411.83093 354.36328,412.74108 L 354.36328,413.01647 L 349.83984,413.01647 C 349.87109,413.74695 350.0664,414.30554 350.42578,414.69226 C 350.78906,415.07898 351.29492,415.27233 351.94336,415.27233 C 352.70507,415.27233 353.45312,415.05163 354.1875,414.61022 L 354.48633,415.44226 M 353.28516,412.22546 C 353.23437,411.72937 353.05468,411.33484 352.74609,411.04187 C 352.4375,410.7489 352.07226,410.60242 351.65039,410.60241 C 351.18554,410.60242 350.79687,410.745 350.48437,411.03015 C 350.17187,411.3114 349.96875,411.70984 349.875,412.22546 L 353.28516,412.22546 M 359.08594,409.98132 L 358.78711,410.85437 C 358.60742,410.745 358.44336,410.69031 358.29492,410.6903 C 358.08008,410.69031 357.875,410.79382 357.67969,411.00085 C 357.48437,411.20789 357.29101,411.51257 357.09961,411.91491 C 356.91211,412.31726 356.81836,412.52038 356.81836,412.52429 L 356.81836,415.99304 L 355.79883,415.99304 L 355.79883,409.88757 L 356.75977,409.88757 L 356.75977,411.29968 C 357.05273,410.69421 357.31445,410.28406 357.54492,410.06921 C 357.77539,409.85047 358.04492,409.74109 358.35352,409.74108 C 358.64648,409.74109 358.89062,409.82117 359.08594,409.98132"
       id="flowRoot8856"
       style="font-size:12px;font-style:normal;font-variant:normal;font-weight:normal;font-stretch:normal;text-align:start;line-height:125%;writing-mode:lr-tb;text-anchor:start;fill:#000000;fill-opacity:1;stroke:none;stroke-width:1px;stroke-linecap:butt;stroke-linejoin:miter;stroke-opacity:1;font-family:Sans;-inkscape-font-specification:Sans" />
    <g
       transform="translate(-15.700003,20.417963)"
       id="g8893">
      <path
         d="M 10,394.86218 A 25,12.5 0 1 1 -40,394.86218 A 25,12.5 0 1 1 10,394.86218 z"
         transform="matrix(1.4043291,0,0,0.9974684,-39.043292,21.119902)"
         id="path8870"
         style="opacity:1;fill:none;fill-opacity:1;stroke:#000000;stroke-width:1;stroke-miterlimit:4;stroke-dasharray:none;stroke-dashoffset:0;stroke-opacity:1" />
      <path
         d="M 10,394.86218 A 25,12.5 0 1 1 -40,394.86218"
         transform="matrix(1.4043291,0,0,0.9974684,-39.043292,68.499651)"
         id="path8866"
         style="opacity:1;fill:none;fill-opacity:1;stroke:#000000;stroke-width:1;stroke-miterlimit:4;stroke-dasharray:none;stroke-dashoffset:0;stroke-opacity:1" />
      <path
         d="M -25,412.48877 L -25,462.36218 M -95.216458,462.36218 L -95.216458,412.48877"
         id="rect8868"
         style="fill:none;fill-opacity:1;stroke:#000000;stroke-width:1.18354297;stroke-miterlimit:4;stroke-dashoffset:0;stroke-opacity:1" />
    </g>
    <path
       d="M 59.999997,462.28014 L -50.000003,462.28014"
       id="path8907"
       style="fill:none;fill-rule:evenodd;stroke:#000000;stroke-width:0.99921262;stroke-linecap:butt;stroke-linejoin:miter;marker-start:url(#Arrow2Lstart);marker-mid:none;marker-end:none;stroke-miterlimit:4;stroke-dasharray:none;stroke-opacity:1" />
    <path
       d="M -16.910939,426.55943 L -16.910939,491.55943"
       id="path8909"
       style="fill:none;fill-rule:evenodd;stroke:#000000;stroke-width:1;stroke-linecap:butt;stroke-linejoin:miter;marker-end:url(#Arrow2Mend);stroke-miterlimit:4;stroke-dasharray:1, 2;stroke-dashoffset:0;stroke-opacity:1" />
    <path
       d="M -7.184383,429.26061 L -7.483213,430.13366 C -7.662903,430.02429 -7.826963,429.9696 -7.975393,429.96959 C -8.190243,429.9696 -8.395323,430.07311 -8.590633,430.28014 C -8.785943,430.48718 -8.979303,430.79186 -9.170713,431.1942 C -9.358213,431.59655 -9.451963,431.79967 -9.451963,431.80358 L -9.451963,435.27233 L -10.471493,435.27233 L -10.471493,429.16686 L -9.510553,429.16686 L -9.510553,430.57897 C -9.217583,429.9735 -8.955863,429.56335 -8.725393,429.3485 C -8.494933,429.12976 -8.225403,429.02038 -7.916803,429.02037 C -7.623833,429.02038 -7.379693,429.10046 -7.184383,429.26061 M -1.096493,434.72155 C -1.959773,435.1942 -2.803523,435.43053 -3.627743,435.43053 C -4.623833,435.43053 -5.401183,435.14342 -5.959773,434.5692 C -6.518363,433.99498 -6.797663,433.20983 -6.797663,432.21373 C -6.797663,431.26061 -6.539853,430.49108 -6.024223,429.90514 C -5.504693,429.3153 -4.803523,429.02038 -3.920713,429.02037 C -3.127743,429.02038 -2.479303,429.29382 -1.975393,429.84069 C -1.471493,430.38366 -1.219543,431.11022 -1.219533,432.02037 L -1.219533,432.29576 L -5.742973,432.29576 C -5.711723,433.02624 -5.516413,433.58483 -5.157033,433.97155 C -4.793753,434.35827 -4.287903,434.55162 -3.639463,434.55162 C -2.877743,434.55162 -2.129703,434.33092 -1.395313,433.88951 L -1.096493,434.72155 M -2.297663,431.50475 C -2.348443,431.00866 -2.528133,430.61413 -2.836723,430.32116 C -3.145323,430.02819 -3.510553,429.88171 -3.932423,429.8817 C -4.397273,429.88171 -4.785943,430.02429 -5.098443,430.30944 C -5.410943,430.59069 -5.614073,430.98913 -5.707813,431.50475 L -2.297663,431.50475 M 5.518747,435.27233 L 4.417187,435.27233 C 4.354677,435.17467 4.299987,435.036 4.253117,434.85631 C 4.210147,434.67662 4.188657,434.52819 4.188667,434.411 C 3.466007,435.09069 2.671087,435.43053 1.803897,435.43053 C 1.229677,435.43053 0.762887,435.28209 0.403507,434.98522 C 0.048037,434.68444 -0.129693,434.26842 -0.129693,433.73717 C -0.129693,433.3153 -0.024223,432.95983 0.186717,432.67076 C 0.401557,432.3778 0.721867,432.14928 1.147647,431.98522 C 1.577337,431.82116 2.122257,431.71764 2.782417,431.67467 L 4.165227,431.58678 L 4.165227,431.39342 C 4.165227,430.82311 4.051947,430.42663 3.825387,430.20397 C 3.598817,429.98132 3.200377,429.86999 2.630077,429.86998 C 2.356637,429.86999 2.016787,429.93054 1.610537,430.05162 C 1.208197,430.16882 0.868357,430.30554 0.591007,430.46178 L 0.292187,429.68248 C 0.620307,429.48718 1.020697,429.32897 1.493357,429.20787 C 1.969917,429.08288 2.405457,429.02038 2.799997,429.02037 C 3.612487,429.02038 4.212097,429.20397 4.598827,429.57116 C 4.989447,429.93835 5.184757,430.49889 5.184757,431.2528 L 5.184757,433.8192 C 5.184757,434.45592 5.296087,434.9403 5.518747,435.27233 M 4.165227,433.52037 L 4.165227,432.35436 C 3.290227,432.40514 2.716007,432.44616 2.442577,432.47741 C 2.173037,432.50475 1.909367,432.56725 1.651557,432.66491 C 1.393747,432.76256 1.198427,432.89538 1.065617,433.06334 C 0.932807,433.23131 0.866397,433.4403 0.866397,433.6903 C 0.866397,433.94811 0.966007,434.15709 1.165227,434.31725 C 1.364447,434.4735 1.620307,434.55162 1.932807,434.55162 C 2.331237,434.55162 2.739447,434.45787 3.157417,434.27037 C 3.575377,434.07897 3.911317,433.82897 4.165227,433.52037 M 11.934757,435.28405 L 10.915227,435.28405 L 10.915227,434.52819 C 10.473817,435.12975 9.878117,435.43053 9.128117,435.43053 C 8.346867,435.43053 7.723817,435.13366 7.258977,434.53991 C 6.794137,433.94616 6.561717,433.13366 6.561717,432.10241 C 6.561717,431.18444 6.799997,430.44225 7.276557,429.87584 C 7.753117,429.30554 8.346867,429.02038 9.057807,429.02037 C 9.878117,429.02038 10.497257,429.31726 10.915227,429.911 L 10.915227,426.55944 L 11.934757,426.55944 L 11.934757,435.28405 M 10.915227,433.49694 L 10.915227,430.88951 C 10.778507,430.61218 10.563657,430.37975 10.270697,430.19225 C 9.981627,430.00475 9.669127,429.911 9.333197,429.911 C 8.786317,429.911 8.362497,430.11022 8.061717,430.50866 C 7.764837,430.90319 7.616397,431.46374 7.616397,432.1903 C 7.616397,432.92467 7.772647,433.49889 8.085147,433.91295 C 8.397647,434.32311 8.825387,434.52819 9.368357,434.52819 C 9.583197,434.52819 9.805847,434.47741 10.036327,434.37584 C 10.266787,434.27038 10.469907,434.11998 10.645697,433.92467 C 10.825377,433.72545 10.915227,433.58288 10.915227,433.49694 M 17.647647,430.43834 C 17.026557,430.06725 16.421087,429.88171 15.831247,429.8817 C 15.362487,429.88171 15.003117,429.95397 14.753117,430.0985 C 14.503117,430.24304 14.378117,430.44421 14.378117,430.70201 C 14.378117,430.88561 14.460147,431.03796 14.624217,431.15905 C 14.792177,431.27624 15.057807,431.38757 15.421087,431.49303 L 16.229687,431.72155 C 17.007017,431.9403 17.536317,432.1903 17.817577,432.47155 C 18.102727,432.74889 18.245297,433.10241 18.245307,433.53209 C 18.245297,434.12584 18.022647,434.59069 17.577337,434.92662 C 17.135927,435.26256 16.538267,435.43053 15.784367,435.43053 C 14.897647,435.43053 14.085147,435.22545 13.346867,434.8153 L 13.651557,434.01256 C 14.342957,434.37975 15.034367,434.56334 15.725777,434.56334 C 16.741397,434.56334 17.249207,434.26061 17.249217,433.65514 C 17.249207,433.42077 17.143737,433.2235 16.932807,433.06334 C 16.721867,432.90319 16.266787,432.72741 15.567577,432.536 C 15.005067,432.37975 14.620307,432.26061 14.413277,432.17858 C 14.206247,432.09264 14.020697,431.98131 13.856637,431.84459 C 13.692567,431.70397 13.571477,431.54772 13.493357,431.37584 C 13.419137,431.20397 13.382027,431.01061 13.382027,430.79576 C 13.382027,430.26452 13.592967,429.83679 14.014837,429.51256 C 14.436707,429.18444 15.042177,429.02038 15.831247,429.02037 C 16.163277,429.02038 16.526557,429.07507 16.921087,429.18444 C 17.315617,429.28991 17.669127,429.43835 17.981637,429.62975 L 17.647647,430.43834 M -6.399223,445.43834 C -7.020323,445.06725 -7.625793,444.88171 -8.215633,444.8817 C -8.684383,444.88171 -9.043753,444.95397 -9.293753,445.0985 C -9.543753,445.24304 -9.668753,445.44421 -9.668753,445.70201 C -9.668753,445.88561 -9.586723,446.03796 -9.422663,446.15905 C -9.254693,446.27624 -8.989073,446.38757 -8.625783,446.49303 L -7.817193,446.72155 C -7.039853,446.9403 -6.510553,447.1903 -6.229303,447.47155 C -5.944153,447.74889 -5.801573,448.10241 -5.801573,448.53209 C -5.801573,449.12584 -6.024233,449.59069 -6.469533,449.92662 C -6.910943,450.26256 -7.508603,450.43053 -8.262503,450.43053 C -9.149223,450.43053 -9.961723,450.22545 -10.700003,449.8153 L -10.395313,449.01256 C -9.703913,449.37975 -9.012503,449.56334 -8.321103,449.56334 C -7.305483,449.56334 -6.797663,449.26061 -6.797663,448.65514 C -6.797663,448.42077 -6.903133,448.2235 -7.114073,448.06334 C -7.325013,447.90319 -7.780083,447.72741 -8.479303,447.536 C -9.041803,447.37975 -9.426573,447.26061 -9.633603,447.17858 C -9.840633,447.09264 -10.026183,446.98131 -10.190243,446.84459 C -10.354303,446.70397 -10.475393,446.54772 -10.553523,446.37584 C -10.627743,446.20397 -10.664853,446.01061 -10.664853,445.79576 C -10.664853,445.26452 -10.453913,444.83679 -10.032033,444.51256 C -9.610163,444.18444 -9.004693,444.02038 -8.215633,444.02037 C -7.883603,444.02038 -7.520323,444.07507 -7.125783,444.18444 C -6.731263,444.28991 -6.377743,444.43835 -6.065243,444.62975 L -6.399223,445.43834 M 0.895697,449.72155 C 0.032407,450.1942 -0.811343,450.43053 -1.635553,450.43053 C -2.631653,450.43053 -3.408993,450.14342 -3.967583,449.5692 C -4.526183,448.99498 -4.805473,448.20983 -4.805473,447.21373 C -4.805473,446.26061 -4.547663,445.49108 -4.032033,444.90514 C -3.512503,444.3153 -2.811333,444.02038 -1.928523,444.02037 C -1.135553,444.02038 -0.487123,444.29382 0.016787,444.84069 C 0.520687,445.38366 0.772647,446.11022 0.772647,447.02037 L 0.772647,447.29576 L -3.750783,447.29576 C -3.719543,448.02624 -3.524223,448.58483 -3.164853,448.97155 C -2.801573,449.35827 -2.295713,449.55162 -1.647273,449.55162 C -0.885553,449.55162 -0.137513,449.33092 0.596867,448.88951 L 0.895697,449.72155 M -0.305473,446.50475 C -0.356263,446.00866 -0.535943,445.61413 -0.844533,445.32116 C -1.153133,445.02819 -1.518373,444.88171 -1.940243,444.8817 C -2.405083,444.88171 -2.793753,445.02429 -3.106253,445.30944 C -3.418753,445.59069 -3.621883,445.98913 -3.715633,446.50475 L -0.305473,446.50475 M 7.247257,450.45397 C 7.247257,451.21178 7.016787,451.78795 6.555857,452.18248 C 6.094907,452.58092 5.434757,452.78014 4.575387,452.78014 C 3.708197,452.78014 2.872257,452.55943 2.067577,452.11803 L 2.342967,451.29186 C 3.139837,451.70201 3.887887,451.90709 4.587107,451.90709 C 5.106627,451.90709 5.508977,451.78014 5.794137,451.52623 C 6.083197,451.27233 6.227727,450.911 6.227727,450.44225 L 6.227727,449.52819 C 5.786317,450.12975 5.190617,450.43053 4.440617,450.43053 C 3.647647,450.43053 3.020697,450.13561 2.559757,449.54576 C 2.102727,448.95592 1.874217,448.14147 1.874217,447.10241 C 1.874217,446.18444 2.112497,445.44225 2.589057,444.87584 C 3.065617,444.30554 3.659367,444.02038 4.370307,444.02037 C 5.174987,444.02038 5.794127,444.31726 6.227727,444.911 L 6.227727,444.17858 L 7.247257,444.17858 L 7.247257,450.45397 M 6.227727,448.49694 L 6.227727,445.88951 C 6.091007,445.61218 5.876157,445.37975 5.583197,445.19225 C 5.294127,445.00475 4.981627,444.911 4.645697,444.911 C 4.098817,444.911 3.674997,445.11022 3.374217,445.50866 C 3.077337,445.90319 2.928897,446.46374 2.928897,447.1903 C 2.928897,447.92467 3.085147,448.49889 3.397647,448.91295 C 3.710147,449.32311 4.137887,449.52819 4.680857,449.52819 C 4.895697,449.52819 5.118347,449.47741 5.348827,449.37584 C 5.579287,449.27038 5.782407,449.11998 5.958197,448.92467 C 6.137877,448.72545 6.227727,448.58288 6.227727,448.49694 M 17.278507,450.27233 L 16.258977,450.27233 L 16.258977,446.3817 C 16.258967,445.89343 16.161317,445.52624 15.966007,445.28014 C 15.774597,445.03405 15.487487,444.911 15.104687,444.911 C 14.862487,444.911 14.602727,444.98718 14.325387,445.13951 C 14.051937,445.29186 13.803897,445.5028 13.581247,445.77233 C 13.589047,445.83874 13.592957,445.95397 13.592967,446.11803 L 13.592967,450.27233 L 12.573427,450.27233 L 12.573427,446.3817 C 12.573427,445.89343 12.481627,445.52624 12.298037,445.28014 C 12.118347,445.03405 11.846867,444.911 11.483587,444.911 C 10.940617,444.911 10.415227,445.24304 9.907417,445.90709 L 9.907417,450.27233 L 8.887887,450.27233 L 8.887887,444.16686 L 9.907417,444.16686 L 9.907417,445.02819 C 10.442567,444.35632 11.059757,444.02038 11.758977,444.02037 C 12.583197,444.02038 13.137877,444.36022 13.423037,445.03991 C 13.981627,444.36022 14.633977,444.02038 15.380077,444.02037 C 15.989437,444.02038 16.458187,444.20007 16.786327,444.55944 C 17.114437,444.91882 17.278497,445.43835 17.278507,446.11803 L 17.278507,450.27233 M 24.262887,449.72155 C 23.399597,450.1942 22.555847,450.43053 21.731637,450.43053 C 20.735537,450.43053 19.958197,450.14342 19.399607,449.5692 C 18.841007,448.99498 18.561717,448.20983 18.561717,447.21373 C 18.561717,446.26061 18.819527,445.49108 19.335147,444.90514 C 19.854677,444.3153 20.555847,444.02038 21.438667,444.02037 C 22.231627,444.02038 22.880067,444.29382 23.383977,444.84069 C 23.887877,445.38366 24.139837,446.11022 24.139837,447.02037 L 24.139837,447.29576 L 19.616397,447.29576 C 19.647647,448.02624 19.842957,448.58483 20.202337,448.97155 C 20.565617,449.35827 21.071477,449.55162 21.719917,449.55162 C 22.481627,449.55162 23.229677,449.33092 23.964057,448.88951 L 24.262887,449.72155 M 23.061717,446.50475 C 23.010927,446.00866 22.831237,445.61413 22.522647,445.32116 C 22.214057,445.02819 21.848817,444.88171 21.426947,444.8817 C 20.962097,444.88171 20.573427,445.02429 20.260927,445.30944 C 19.948427,445.59069 19.745307,445.98913 19.651557,446.50475 L 23.061717,446.50475 M 30.643747,450.27233 L 29.618357,450.27233 L 29.618357,446.3817 C 29.618347,445.91686 29.503117,445.55554 29.272647,445.29772 C 29.046087,445.03991 28.737487,444.911 28.346867,444.911 C 27.733587,444.911 27.149597,445.24304 26.594917,445.90709 L 26.594917,450.27233 L 25.575387,450.27233 L 25.575387,444.16686 L 26.594917,444.16686 L 26.594917,445.02819 C 27.235537,444.35632 27.911317,444.02038 28.622257,444.02037 C 29.247257,444.02038 29.739447,444.20397 30.098827,444.57116 C 30.462097,444.93444 30.643737,445.45007 30.643747,446.11803 L 30.643747,450.27233 M 34.774607,450.23717 C 34.395697,450.36608 34.092957,450.43053 33.866397,450.43053 C 33.339057,450.43053 32.954287,450.28209 32.712107,449.98522 C 32.473817,449.68834 32.354677,449.2235 32.354687,448.59069 L 32.354687,445.00475 L 31.610537,445.00475 L 31.610537,444.16686 L 32.354687,444.16686 L 32.354687,442.49694 L 33.374217,442.49694 L 33.374217,444.16686 L 34.546087,444.16686 L 34.546087,445.00475 L 33.374217,445.00475 L 33.374217,448.54381 C 33.374207,449.21569 33.581247,449.55162 33.995307,449.55162 C 34.174987,449.55162 34.372257,449.51256 34.587107,449.43444 L 34.774607,450.23717 M 39.655467,445.43834 C 39.034367,445.06725 38.428897,444.88171 37.839057,444.8817 C 37.370307,444.88171 37.010927,444.95397 36.760927,445.0985 C 36.510927,445.24304 36.385927,445.44421 36.385927,445.70201 C 36.385927,445.88561 36.467957,446.03796 36.632027,446.15905 C 36.799997,446.27624 37.065617,446.38757 37.428897,446.49303 L 38.237497,446.72155 C 39.014837,446.9403 39.544127,447.1903 39.825387,447.47155 C 40.110537,447.74889 40.253117,448.10241 40.253117,448.53209 C 40.253117,449.12584 40.030457,449.59069 39.585147,449.92662 C 39.143737,450.26256 38.546087,450.43053 37.792187,450.43053 C 36.905457,450.43053 36.092957,450.22545 35.354687,449.8153 L 35.659367,449.01256 C 36.350777,449.37975 37.042177,449.56334 37.733587,449.56334 C 38.749207,449.56334 39.257017,449.26061 39.257027,448.65514 C 39.257017,448.42077 39.151557,448.2235 38.940617,448.06334 C 38.729677,447.90319 38.274597,447.72741 37.575387,447.536 C 37.012887,447.37975 36.628117,447.26061 36.421087,447.17858 C 36.214057,447.09264 36.028507,446.98131 35.864447,446.84459 C 35.700387,446.70397 35.579287,446.54772 35.501167,446.37584 C 35.426947,446.20397 35.389837,446.01061 35.389837,445.79576 C 35.389837,445.26452 35.600777,444.83679 36.022647,444.51256 C 36.444527,444.18444 37.049997,444.02038 37.839057,444.02037 C 38.171087,444.02038 38.534367,444.07507 38.928897,444.18444 C 39.323427,444.28991 39.676947,444.43835 39.989447,444.62975 L 39.655467,445.43834"
       id="flowRoot8911"
       style="font-size:12px;font-style:normal;font-variant:normal;font-weight:normal;font-stretch:normal;text-align:start;line-height:125%;writing-mode:lr-tb;text-anchor:start;fill:#000000;fill-opacity:1;stroke:none;stroke-width:1px;stroke-linecap:butt;stroke-linejoin:miter;stroke-opacity:1;font-family:Sans;-inkscape-font-specification:Sans" />
    <path
       d="M 62.110327,434.51863 L 64.999997,429.28014"
       id="path9482"
       style="fill:none;fill-rule:evenodd;stroke:#000000;stroke-width:1;stroke-linecap:butt;stroke-linejoin:miter;stroke-miterlimit:4;stroke-dasharray:none;stroke-opacity:1" />
    <path
       d="M 86.605939,453.41504 C 87.113745,453.50879 87.516088,453.71582 87.81297,454.03613 C 88.113744,454.35645 88.264134,454.74903 88.264142,455.21387 C 88.264134,455.97168 87.965306,456.58301 87.367658,457.04785 C 86.769995,457.5127 86.004371,457.74512 85.070783,457.74512 L 81.109845,457.74512 L 81.109845,449.47754 L 84.865705,449.47754 C 85.850074,449.47755 86.607886,449.667 87.139142,450.0459 C 87.674291,450.42481 87.941869,450.95997 87.941876,451.65137 C 87.941869,452.07325 87.822728,452.44239 87.584455,452.75879 C 87.346166,453.0752 87.019995,453.29395 86.605939,453.41504 M 82.674298,452.83496 L 84.701642,452.83496 C 85.725074,452.83497 86.236792,452.4834 86.236798,451.78027 C 86.236792,451.13184 85.725074,450.80762 84.701642,450.80762 L 82.674298,450.80762 L 82.674298,452.83496 M 82.674298,456.41504 L 84.701642,456.41504 C 85.924293,456.41504 86.53562,456.01074 86.535626,455.20215 C 86.53562,454.47168 85.924293,454.10645 84.701642,454.10645 L 82.674298,454.10645 L 82.674298,456.41504 M 95.436017,457.74512 L 93.81297,457.74512 L 93.81297,457.00098 C 93.305153,457.59473 92.650857,457.8916 91.850079,457.8916 C 91.213358,457.8916 90.7075,457.70215 90.332501,457.32324 C 89.9575,456.94434 89.770001,456.41699 89.770001,455.74121 L 89.770001,451.63965 L 91.393048,451.63965 L 91.393048,455.22559 C 91.393046,456.08887 91.703592,456.52051 92.324689,456.52051 C 92.879372,456.52051 93.375466,456.22559 93.81297,455.63574 L 93.81297,451.63965 L 95.436017,451.63965 L 95.436017,457.74512 M 100.72117,449.17871 L 100.42234,450.49707 C 100.07468,450.36817 99.785623,450.30372 99.555158,450.30371 C 99.375467,450.30372 99.234842,450.39356 99.133283,450.57324 C 99.031717,450.75294 98.980936,451.00294 98.980939,451.32324 L 98.980939,451.63965 L 100.2407,451.63965 L 100.2407,452.89941 L 98.980939,452.89941 L 98.980939,457.74512 L 97.357892,457.74512 L 97.357892,452.89941 L 96.338361,452.89941 L 96.338361,451.63965 L 97.357892,451.63965 L 97.357892,451.05957 C 97.357891,450.37598 97.535625,449.8545 97.891095,449.49512 C 98.246562,449.13184 98.75828,448.9502 99.426251,448.9502 C 99.797342,448.9502 100.22898,449.02638 100.72117,449.17871 M 104.72899,449.17871 L 104.43016,450.49707 C 104.0825,450.36817 103.79344,450.30372 103.56297,450.30371 C 103.38328,450.30372 103.24265,450.39356 103.14109,450.57324 C 103.03953,450.75294 102.98875,451.00294 102.98875,451.32324 L 102.98875,451.63965 L 104.24852,451.63965 L 104.24852,452.89941 L 102.98875,452.89941 L 102.98875,457.74512 L 101.3657,457.74512 L 101.3657,452.89941 L 100.34617,452.89941 L 100.34617,451.63965 L 101.3657,451.63965 L 101.3657,451.05957 C 101.3657,450.37598 101.54344,449.8545 101.89891,449.49512 C 102.25437,449.13184 102.76609,448.9502 103.43406,448.9502 C 103.80515,448.9502 104.23679,449.02638 104.72899,449.17871 M 110.5825,457.22949 C 109.87547,457.67871 109.06297,457.90332 108.145,457.90332 C 107.10984,457.90332 106.28758,457.61035 105.6782,457.02441 C 105.06883,456.43848 104.76414,455.65918 104.76414,454.68652 C 104.76414,453.7295 105.03758,452.95801 105.58445,452.37207 C 106.13133,451.78614 106.85398,451.49317 107.75242,451.49316 C 108.58055,451.49317 109.25633,451.77247 109.77977,452.33105 C 110.30711,452.88575 110.57078,453.66309 110.57079,454.66309 L 110.57079,455.06738 L 106.46922,455.06738 C 106.52781,455.48926 106.71726,455.84082 107.03758,456.12207 C 107.35789,456.40332 107.7407,456.54395 108.18602,456.54395 C 108.88914,456.54395 109.59226,456.34473 110.29539,455.94629 L 110.5825,457.22949 M 109.01219,453.97754 C 108.96531,453.57129 108.83055,453.24903 108.60789,453.01074 C 108.38523,452.76856 108.1118,452.64747 107.78758,452.64746 C 107.44773,452.64747 107.15672,452.76856 106.91453,453.01074 C 106.67234,453.24903 106.52781,453.57129 106.48094,453.97754 L 109.01219,453.97754 M 115.72704,451.7334 L 115.42821,453.20996 C 115.26414,453.09668 115.09227,453.04004 114.91258,453.04004 C 114.70945,453.04004 114.51414,453.10645 114.32665,453.23926 C 114.13914,453.36817 113.94774,453.59473 113.75243,453.91895 C 113.55711,454.23926 113.45946,454.42676 113.45946,454.48145 L 113.45946,457.74512 L 111.83641,457.74512 L 111.83641,451.63965 L 113.45946,451.63965 L 113.45946,452.84668 C 113.6782,452.35059 113.90281,452.00098 114.13329,451.79785 C 114.36375,451.59473 114.64305,451.49317 114.97118,451.49316 C 115.27195,451.49317 115.52391,451.57325 115.72704,451.7334 M 90.461408,465.93066 L 86.143048,465.93066 L 86.143048,468.16309 L 90.332501,468.16309 L 90.332501,469.55176 L 86.143048,469.55176 L 86.143048,472.74512 L 84.461408,472.74512 L 84.461408,464.47754 L 90.461408,464.47754 L 90.461408,465.93066 M 92.629376,463.9502 C 92.875468,463.9502 93.090312,464.042 93.273908,464.22559 C 93.457499,464.40528 93.549296,464.62208 93.549298,464.87598 C 93.549296,465.12208 93.457499,465.33497 93.273908,465.51465 C 93.094218,465.69434 92.879374,465.78419 92.629376,465.78418 C 92.375469,465.78419 92.158672,465.6963 91.978986,465.52051 C 91.803204,465.34083 91.715313,465.12598 91.715314,464.87598 C 91.715313,464.61817 91.803204,464.39942 91.978986,464.21973 C 92.158672,464.04005 92.375469,463.9502 92.629376,463.9502 M 93.443829,472.74512 L 91.820783,472.74512 L 91.820783,466.63965 L 93.443829,466.63965 L 93.443829,472.74512 M 96.771955,472.74512 L 95.148908,472.74512 L 95.148908,464.03223 L 96.771955,464.03223 L 96.771955,472.74512 M 100.10008,472.74512 L 98.477033,472.74512 L 98.477033,464.03223 L 100.10008,464.03223 L 100.10008,472.74512 M 107.23094,472.22949 C 106.5239,472.67871 105.7114,472.90332 104.79344,472.90332 C 103.75828,472.90332 102.93601,472.61035 102.32664,472.02441 C 101.71727,471.43848 101.41258,470.65918 101.41258,469.68652 C 101.41258,468.7295 101.68602,467.95801 102.23289,467.37207 C 102.77976,466.78614 103.50242,466.49317 104.40086,466.49316 C 105.22898,466.49317 105.90476,466.77247 106.4282,467.33105 C 106.95554,467.88575 107.21921,468.66309 107.21922,469.66309 L 107.21922,470.06738 L 103.11766,470.06738 C 103.17625,470.48926 103.3657,470.84082 103.68602,471.12207 C 104.00633,471.40332 104.38914,471.54395 104.83445,471.54395 C 105.53757,471.54395 106.2407,471.34473 106.94383,470.94629 L 107.23094,472.22949 M 105.66063,468.97754 C 105.61375,468.57129 105.47898,468.24903 105.25633,468.01074 C 105.03367,467.76856 104.76023,467.64747 104.43602,467.64746 C 104.09617,467.64747 103.80515,467.76856 103.56297,468.01074 C 103.32078,468.24903 103.17625,468.57129 103.12938,468.97754 L 105.66063,468.97754 M 112.37547,466.7334 L 112.07665,468.20996 C 111.91258,468.09668 111.7407,468.04004 111.56102,468.04004 C 111.35789,468.04004 111.16258,468.10645 110.97508,468.23926 C 110.78758,468.36817 110.59617,468.59473 110.40086,468.91895 C 110.20555,469.23926 110.10789,469.42676 110.10789,469.48145 L 110.10789,472.74512 L 108.48485,472.74512 L 108.48485,466.63965 L 110.10789,466.63965 L 110.10789,467.84668 C 110.32664,467.35059 110.55125,467.00098 110.78172,466.79785 C 111.01219,466.59473 111.29149,466.49317 111.61961,466.49316 C 111.92039,466.49317 112.17234,466.57325 112.37547,466.7334"
       id="flowRoot9494"
       style="font-size:12px;font-style:normal;font-variant:normal;font-weight:bold;font-stretch:normal;text-align:center;line-height:125%;writing-mode:lr-tb;text-anchor:middle;fill:#000000;fill-opacity:1;stroke:none;stroke-width:1px;stroke-linecap:butt;stroke-linejoin:miter;stroke-opacity:1;font-family:Sans;-inkscape-font-specification:Sans Bold" />
    <path
       d="M 407.63953,454.43352 L 401.56336,454.43352 L 401.56336,446.16594 L 403.245,446.16594 L 403.245,452.98039 L 407.63953,452.98039 L 407.63953,454.43352 M 414.34852,453.91789 C 413.64148,454.36711 412.82898,454.59172 411.91102,454.59172 C 410.87586,454.59172 410.05359,454.29875 409.44422,453.71281 C 408.83484,453.12688 408.53016,452.34758 408.53016,451.37492 C 408.53016,450.4179 408.80359,449.64641 409.35047,449.06047 C 409.89734,448.47454 410.62,448.18157 411.51844,448.18156 C 412.34656,448.18157 413.02234,448.46087 413.54578,449.01945 C 414.07312,449.57415 414.33679,450.35149 414.3368,451.35149 L 414.3368,451.75578 L 410.23524,451.75578 C 410.29383,452.17766 410.48328,452.52922 410.8036,452.81047 C 411.1239,453.09172 411.50672,453.23235 411.95203,453.23235 C 412.65515,453.23235 413.35828,453.03313 414.06141,452.63469 L 414.34852,453.91789 M 412.7782,450.66594 C 412.73132,450.25969 412.59656,449.93743 412.37391,449.69914 C 412.15125,449.45696 411.87781,449.33587 411.5536,449.33586 C 411.21375,449.33587 410.92273,449.45696 410.68055,449.69914 C 410.43836,449.93743 410.29383,450.25969 410.24695,450.66594 L 412.7782,450.66594 M 421.23328,454.43352 L 419.44617,454.43352 L 418.05164,452.49992 L 416.65125,454.43352 L 414.88758,454.43352 L 417.1786,451.29875 L 415.03992,448.32805 L 416.85047,448.32805 L 418.0868,450.0507 L 419.34656,448.32805 L 421.05164,448.32805 L 418.95399,451.24016 L 421.23328,454.43352 M 423.0907,445.6386 C 423.3368,445.6386 423.55164,445.7304 423.73524,445.91399 C 423.91883,446.09368 424.01062,446.31048 424.01063,446.56438 C 424.01062,446.81048 423.91883,447.02337 423.73524,447.20305 C 423.55555,447.38274 423.3407,447.47259 423.0907,447.47258 C 422.8368,447.47259 422.62,447.3847 422.44031,447.20891 C 422.26453,447.02923 422.17664,446.81438 422.17664,446.56438 C 422.17664,446.30657 422.26453,446.08782 422.44031,445.90813 C 422.62,445.72845 422.8368,445.6386 423.0907,445.6386 M 423.90516,454.43352 L 422.28211,454.43352 L 422.28211,448.32805 L 423.90516,448.32805 L 423.90516,454.43352 M 431.03602,453.91789 C 430.34851,454.36711 429.55359,454.59172 428.65125,454.59172 C 427.59265,454.59172 426.75476,454.30266 426.13758,453.72453 C 425.5243,453.14641 425.21766,452.36321 425.21766,451.37492 C 425.21766,450.39446 425.5243,449.61712 426.13758,449.04289 C 426.75476,448.46868 427.58289,448.18157 428.62195,448.18156 C 429.44617,448.18157 430.22742,448.37298 430.9657,448.75578 L 430.66688,450.0507 C 429.97937,449.70696 429.30359,449.53508 428.63953,449.53508 C 428.17469,449.53508 427.76844,449.69329 427.42078,450.00969 C 427.07312,450.3261 426.8993,450.78118 426.8993,451.37492 C 426.8993,451.97258 427.07312,452.43157 427.42078,452.75188 C 427.77234,453.07219 428.1825,453.23235 428.65125,453.23235 C 429.38172,453.23235 430.08093,453.03313 430.74891,452.63469 L 431.03602,453.91789 M 437.53407,454.43352 L 435.83485,454.43352 C 435.72156,454.17961 435.66492,453.94719 435.66493,453.73625 C 435.12195,454.30656 434.46961,454.59172 433.70789,454.59172 C 433.1493,454.59172 432.70985,454.4257 432.38954,454.09367 C 432.06922,453.76164 431.90907,453.32219 431.90907,452.77531 C 431.90907,452.37688 432.01453,452.03118 432.22547,451.7382 C 432.44032,451.44133 432.75672,451.20305 433.17469,451.02336 C 433.59656,450.84368 434.10047,450.7304 434.68641,450.68352 L 435.67664,450.60735 L 435.67664,450.49602 C 435.67664,449.80071 435.29578,449.45305 434.53407,449.45305 C 434.29969,449.45305 433.98914,449.50383 433.60243,449.60539 C 433.21571,449.70696 432.87196,449.82805 432.57118,449.96867 L 432.18446,448.84367 C 432.56336,448.65227 432.99891,448.49407 433.4911,448.36906 C 433.98719,448.24407 434.42664,448.18157 434.80946,448.18156 C 435.62195,448.18157 436.23914,448.37884 436.66102,448.77336 C 437.08289,449.1679 437.29383,449.74602 437.29383,450.50774 L 437.29383,452.98039 C 437.29383,453.55461 437.3739,454.03899 437.53407,454.43352 M 435.67664,452.58781 L 435.67664,451.58 C 434.99695,451.65032 434.57508,451.69914 434.41102,451.72649 C 434.25086,451.75383 434.08289,451.81438 433.90711,451.90813 C 433.73133,452.00188 433.60047,452.11907 433.51454,452.25969 C 433.4286,452.39641 433.38563,452.55266 433.38563,452.72844 C 433.38563,452.90813 433.44617,453.06047 433.56727,453.18547 C 433.69227,453.30657 433.86024,453.36711 434.07118,453.36711 C 434.66102,453.36711 435.19617,453.10735 435.67664,452.58781 M 440.59266,454.43352 L 438.96961,454.43352 L 438.96961,445.72063 L 440.59266,445.72063 L 440.59266,454.43352 M 404.68641,469.43352 L 402.93445,469.43352 L 402.03797,467.16594 L 398.7743,467.16594 L 397.87195,469.43352 L 396.12,469.43352 L 399.6825,461.16594 L 401.12391,461.16594 L 404.68641,469.43352 M 401.49891,465.82414 L 400.4032,463.0761 L 399.30164,465.82414 L 401.49891,465.82414 M 411.26063,469.43352 L 409.64344,469.43352 L 409.64344,465.84758 C 409.64343,464.9804 409.33093,464.5468 408.70594,464.5468 C 408.15125,464.5468 407.65515,464.84368 407.21766,465.43742 L 407.21766,469.43352 L 405.59461,469.43352 L 405.59461,463.32805 L 407.21766,463.32805 L 407.21766,464.07219 C 407.72547,463.47845 408.38172,463.18157 409.18641,463.18156 C 409.81921,463.18157 410.32312,463.37102 410.69813,463.74992 C 411.07312,464.12493 411.26062,464.65227 411.26063,465.33195 L 411.26063,469.43352 M 418.17469,469.43352 L 416.47547,469.43352 C 416.36218,469.17961 416.30554,468.94719 416.30555,468.73625 C 415.76258,469.30656 415.11023,469.59172 414.34852,469.59172 C 413.78992,469.59172 413.35047,469.4257 413.03016,469.09367 C 412.70984,468.76164 412.54969,468.32219 412.54969,467.77531 C 412.54969,467.37688 412.65516,467.03118 412.8661,466.7382 C 413.08094,466.44133 413.39734,466.20305 413.81531,466.02336 C 414.23719,465.84368 414.74109,465.7304 415.32703,465.68352 L 416.31727,465.60735 L 416.31727,465.49602 C 416.31726,464.80071 415.9364,464.45305 415.17469,464.45305 C 414.94031,464.45305 414.62976,464.50383 414.24305,464.60539 C 413.85633,464.70696 413.51258,464.82805 413.2118,464.96867 L 412.82508,463.84367 C 413.20398,463.65227 413.63953,463.49407 414.13172,463.36906 C 414.62781,463.24407 415.06726,463.18157 415.45008,463.18156 C 416.26258,463.18157 416.87976,463.37884 417.30164,463.77336 C 417.72351,464.1679 417.93445,464.74602 417.93445,465.50774 L 417.93445,467.98039 C 417.93445,468.55461 418.01453,469.03899 418.17469,469.43352 M 416.31727,467.58781 L 416.31727,466.58 C 415.63758,466.65032 415.2157,466.69914 415.05164,466.72649 C 414.89148,466.75383 414.72351,466.81438 414.54773,466.90813 C 414.37195,467.00188 414.24109,467.11907 414.15516,467.25969 C 414.06922,467.39641 414.02625,467.55266 414.02625,467.72844 C 414.02625,467.90813 414.0868,468.06047 414.20789,468.18547 C 414.33289,468.30657 414.50086,468.36711 414.7118,468.36711 C 415.30164,468.36711 415.83679,468.10735 416.31727,467.58781 M 421.23328,469.43352 L 419.61023,469.43352 L 419.61023,460.72063 L 421.23328,460.72063 L 421.23328,469.43352 M 428.68641,463.32805 L 426.30164,469.53899 C 426.00476,470.31633 425.6239,470.90813 425.15906,471.31438 C 424.69812,471.72453 424.07508,471.92961 423.28992,471.92961 C 422.87977,471.92961 422.45594,471.86125 422.01844,471.72453 L 422.30555,470.42961 C 422.62195,470.52727 422.89734,470.57609 423.13172,470.5761 C 423.48719,470.57609 423.77234,470.49406 423.98719,470.33 C 424.20594,470.16984 424.38953,469.87102 424.53797,469.43352 L 422.1825,463.32805 L 423.97547,463.32805 L 425.44617,467.72844 L 426.98719,463.32805 L 428.68641,463.32805 M 434.53993,469.43352 L 429.13758,469.43352 L 429.13758,468.25578 L 432.35438,464.58781 L 429.22547,464.58781 L 429.22547,463.32805 L 434.2411,463.32805 L 434.2411,464.45305 L 431.0243,468.17375 L 434.53993,468.17375 L 434.53993,469.43352 M 441.04383,468.91789 C 440.3368,469.36711 439.5243,469.59172 438.60633,469.59172 C 437.57117,469.59172 436.74891,469.29875 436.13954,468.71281 C 435.53016,468.12688 435.22547,467.34758 435.22547,466.37492 C 435.22547,465.4179 435.49891,464.64641 436.04578,464.06047 C 436.59266,463.47454 437.31531,463.18157 438.21375,463.18156 C 439.04187,463.18157 439.71766,463.46087 440.2411,464.01945 C 440.76844,464.57415 441.03211,465.35149 441.03211,466.35149 L 441.03211,466.75578 L 436.93055,466.75578 C 436.98914,467.17766 437.1786,467.52922 437.49891,467.81047 C 437.81922,468.09172 438.20203,468.23235 438.64735,468.23235 C 439.35047,468.23235 440.05359,468.03313 440.75672,467.63469 L 441.04383,468.91789 M 439.47352,465.66594 C 439.42664,465.25969 439.29187,464.93743 439.06922,464.69914 C 438.84656,464.45696 438.57312,464.33587 438.24891,464.33586 C 437.90906,464.33587 437.61805,464.45696 437.37586,464.69914 C 437.13367,464.93743 436.98914,465.25969 436.94227,465.66594 L 439.47352,465.66594 M 446.18836,463.4218 L 445.88954,464.89836 C 445.72547,464.78508 445.55359,464.72844 445.37391,464.72844 C 445.17078,464.72844 444.97547,464.79485 444.78797,464.92766 C 444.60047,465.05657 444.40906,465.28313 444.21375,465.60735 C 444.01844,465.92766 443.92078,466.11516 443.92078,466.16985 L 443.92078,469.43352 L 442.29774,469.43352 L 442.29774,463.32805 L 443.92078,463.32805 L 443.92078,464.53508 C 444.13953,464.03899 444.36414,463.68938 444.59461,463.48625 C 444.82508,463.28313 445.10438,463.18157 445.4325,463.18156 C 445.73328,463.18157 445.98523,463.26165 446.18836,463.4218"
       id="flowRoot9484"
       style="font-size:12px;font-style:normal;font-variant:normal;font-weight:bold;font-stretch:normal;text-align:center;line-height:125%;writing-mode:lr-tb;text-anchor:middle;fill:#000000;fill-opacity:1;stroke:none;stroke-width:1px;stroke-linecap:butt;stroke-linejoin:miter;stroke-opacity:1;font-family:Sans;-inkscape-font-specification:Sans Bold" />
    <path
       d="M -103.77972,397.40783 C -104.75238,398.04845 -105.88715,398.36876 -107.18401,398.36876 C -108.49652,398.36876 -109.54534,397.97619 -110.3305,397.19103 C -111.11566,396.40197 -111.50823,395.37463 -111.50823,394.109 C -111.50823,392.83166 -111.11175,391.7926 -110.31878,390.99181 C -109.52191,390.18713 -108.47699,389.78479 -107.18401,389.78478 C -106.05121,389.78479 -104.95551,390.08557 -103.89691,390.68712 L -104.38909,392.0172 C -105.29535,391.45861 -106.22699,391.17932 -107.18401,391.17931 C -107.95746,391.17932 -108.58246,391.45666 -109.05901,392.01134 C -109.53167,392.56604 -109.768,393.26525 -109.768,394.109 C -109.768,394.9176 -109.51214,395.59728 -109.00042,396.14806 C -108.4848,396.69884 -107.87933,396.97423 -107.18401,396.97423 C -106.1684,396.97423 -105.19379,396.67931 -104.26019,396.08947 L -103.77972,397.40783 M -96.883233,398.21056 L -98.500421,398.21056 L -98.500421,394.62462 C -98.500425,393.75744 -98.812925,393.32385 -99.437921,393.32384 C -99.992611,393.32385 -100.48871,393.62072 -100.9262,394.21447 L -100.9262,398.21056 L -102.54925,398.21056 L -102.54925,389.49767 L -100.9262,389.49767 L -100.9262,392.84923 C -100.41839,392.25549 -99.762143,391.95861 -98.957452,391.95861 C -98.324644,391.95861 -97.820739,392.14807 -97.445733,392.52697 C -97.070739,392.90197 -96.88324,393.42932 -96.883233,394.109 L -96.883233,398.21056 M -89.969171,398.21056 L -91.668389,398.21056 C -91.781675,397.95665 -91.838315,397.72423 -91.838311,397.5133 C -92.381284,398.08361 -93.033627,398.36876 -93.795342,398.36876 C -94.353938,398.36876 -94.793391,398.20275 -95.113702,397.87072 C -95.434015,397.53869 -95.594171,397.09923 -95.594171,396.55236 C -95.594171,396.15392 -95.488702,395.80822 -95.277764,395.51525 C -95.062922,395.21838 -94.746516,394.9801 -94.328545,394.8004 C -93.906673,394.62072 -93.402767,394.50744 -92.816827,394.46056 L -91.826592,394.38439 L -91.826592,394.27306 C -91.826597,393.57775 -92.207456,393.2301 -92.969171,393.23009 C -93.203548,393.2301 -93.514095,393.28088 -93.900811,393.38244 C -94.287532,393.484 -94.631281,393.6051 -94.932061,393.74572 L -95.31878,392.62072 C -94.939875,392.42932 -94.504328,392.27111 -94.012139,392.14611 C -93.516048,392.02111 -93.076595,391.95861 -92.69378,391.95861 C -91.881284,391.95861 -91.264097,392.15588 -90.842217,392.5504 C -90.420348,392.94494 -90.209411,393.52307 -90.209405,394.28478 L -90.209405,396.75744 C -90.209411,397.33166 -90.129333,397.81603 -89.969171,398.21056 M -91.826592,396.36486 L -91.826592,395.35705 C -92.506283,395.42736 -92.928158,395.47619 -93.092217,395.50353 C -93.252376,395.53088 -93.420345,395.59142 -93.596124,395.68517 C -93.771907,395.77892 -93.902766,395.89611 -93.988702,396.03673 C -94.074641,396.17345 -94.11761,396.3297 -94.117608,396.50548 C -94.11761,396.68517 -94.057063,396.83752 -93.935967,396.96251 C -93.81097,397.08361 -93.643001,397.14416 -93.432061,397.14415 C -92.842221,397.14416 -92.307065,396.88439 -91.826592,396.36486 M -84.642999,392.19884 L -84.941827,393.6754 C -85.105894,393.56213 -85.277768,393.50549 -85.457452,393.50548 C -85.66058,393.50549 -85.855893,393.57189 -86.043389,393.7047 C -86.230892,393.83361 -86.422298,394.06017 -86.617608,394.38439 C -86.812923,394.7047 -86.910579,394.8922 -86.910577,394.94689 L -86.910577,398.21056 L -88.533624,398.21056 L -88.533624,392.10509 L -86.910577,392.10509 L -86.910577,393.31212 C -86.691829,392.81603 -86.46722,392.46643 -86.236749,392.2633 C -86.006283,392.06018 -85.726987,391.95861 -85.398858,391.95861 C -85.098081,391.95861 -84.846128,392.03869 -84.642999,392.19884 M -78.625421,398.21056 L -80.324639,398.21056 C -80.437925,397.95665 -80.494565,397.72423 -80.494561,397.5133 C -81.037534,398.08361 -81.689877,398.36876 -82.451592,398.36876 C -83.010188,398.36876 -83.449641,398.20275 -83.769952,397.87072 C -84.090265,397.53869 -84.250421,397.09923 -84.250421,396.55236 C -84.250421,396.15392 -84.144952,395.80822 -83.934014,395.51525 C -83.719171,395.21838 -83.402766,394.9801 -82.984795,394.8004 C -82.562923,394.62072 -82.059017,394.50744 -81.473077,394.46056 L -80.482842,394.38439 L -80.482842,394.27306 C -80.482847,393.57775 -80.863706,393.2301 -81.625421,393.23009 C -81.859798,393.2301 -82.170345,393.28088 -82.557061,393.38244 C -82.943782,393.484 -83.287531,393.6051 -83.588311,393.74572 L -83.97503,392.62072 C -83.596125,392.42932 -83.160578,392.27111 -82.668389,392.14611 C -82.172298,392.02111 -81.732845,391.95861 -81.35003,391.95861 C -80.537534,391.95861 -79.920347,392.15588 -79.498467,392.5504 C -79.076598,392.94494 -78.865661,393.52307 -78.865655,394.28478 L -78.865655,396.75744 C -78.865661,397.33166 -78.785583,397.81603 -78.625421,398.21056 M -80.482842,396.36486 L -80.482842,395.35705 C -81.162533,395.42736 -81.584408,395.47619 -81.748467,395.50353 C -81.908626,395.53088 -82.076595,395.59142 -82.252374,395.68517 C -82.428157,395.77892 -82.559016,395.89611 -82.644952,396.03673 C -82.730891,396.17345 -82.77386,396.3297 -82.773858,396.50548 C -82.77386,396.68517 -82.713313,396.83752 -82.592217,396.96251 C -82.46722,397.08361 -82.299251,397.14416 -82.088311,397.14415 C -81.498471,397.14416 -80.963315,396.88439 -80.482842,396.36486 M -71.764092,397.69494 C -72.451598,398.14415 -73.246519,398.36876 -74.148858,398.36876 C -75.207455,398.36876 -76.045344,398.0797 -76.66253,397.50158 C -77.275812,396.92345 -77.582452,396.14025 -77.582452,395.15197 C -77.582452,394.1715 -77.275812,393.39416 -76.66253,392.81994 C -76.045344,392.24572 -75.21722,391.95861 -74.178155,391.95861 C -73.353941,391.95861 -72.572692,392.15002 -71.834405,392.53283 L -72.133233,393.82775 C -72.820738,393.484 -73.496519,393.31213 -74.160577,393.31212 C -74.625424,393.31213 -75.031674,393.47033 -75.379327,393.78673 C -75.726985,394.10314 -75.900813,394.55822 -75.900811,395.15197 C -75.900813,395.74963 -75.726985,396.20861 -75.379327,396.52892 C -75.027767,396.84923 -74.617611,397.00939 -74.148858,397.00939 C -73.418394,397.00939 -72.719176,396.81017 -72.051202,396.41173 L -71.764092,397.69494 M -67.246514,398.14025 C -67.590268,398.29259 -67.961361,398.36876 -68.359795,398.36876 C -69.012142,398.36876 -69.510188,398.19689 -69.853936,397.85314 C -70.193781,397.50548 -70.363703,397.00548 -70.363702,396.35314 L -70.363702,393.36486 L -71.201592,393.36486 L -71.201592,392.10509 L -70.363702,392.10509 L -70.363702,390.20665 L -68.746514,390.20665 L -68.746514,392.10509 L -67.56878,392.10509 L -67.56878,393.36486 L -68.746514,393.36486 L -68.746514,396.1129 C -68.746517,396.39416 -68.691829,396.61486 -68.582452,396.77501 C -68.47308,396.93127 -68.326595,397.00939 -68.142999,397.00939 C -67.920346,397.00939 -67.709409,396.96642 -67.510186,396.88048 L -67.246514,398.14025 M -61.076592,397.69494 C -61.783629,398.14415 -62.596128,398.36876 -63.514092,398.36876 C -64.549251,398.36876 -65.371516,398.0758 -65.980889,397.48986 C -66.590265,396.90392 -66.894952,396.12463 -66.894952,395.15197 C -66.894952,394.19494 -66.621515,393.42346 -66.074639,392.83751 C -65.527766,392.25158 -64.805111,391.95861 -63.906671,391.95861 C -63.07855,391.95861 -62.402769,392.23791 -61.879327,392.7965 C -61.351989,393.35119 -61.088317,394.12853 -61.088311,395.12853 L -61.088311,395.53283 L -65.189874,395.53283 C -65.131282,395.9547 -64.941829,396.30627 -64.621514,396.58751 C -64.301205,396.86877 -63.918393,397.00939 -63.473077,397.00939 C -62.769956,397.00939 -62.066832,396.81017 -61.363702,396.41173 L -61.076592,397.69494 M -62.646905,394.44298 C -62.693785,394.03674 -62.82855,393.71447 -63.051202,393.47619 C -63.273862,393.234 -63.547299,393.11291 -63.871514,393.1129 C -64.211361,393.11291 -64.502376,393.234 -64.744561,393.47619 C -64.986751,393.71447 -65.131282,394.03674 -65.178155,394.44298 L -62.646905,394.44298 M -55.932061,392.19884 L -56.230889,393.6754 C -56.394956,393.56213 -56.566831,393.50549 -56.746514,393.50548 C -56.949643,393.50549 -57.144955,393.57189 -57.332452,393.7047 C -57.519955,393.83361 -57.711361,394.06017 -57.906671,394.38439 C -58.101986,394.7047 -58.199642,394.8922 -58.199639,394.94689 L -58.199639,398.21056 L -59.822686,398.21056 L -59.822686,392.10509 L -58.199639,392.10509 L -58.199639,393.31212 C -57.980892,392.81603 -57.756283,392.46643 -57.525811,392.2633 C -57.295346,392.06018 -57.016049,391.95861 -56.687921,391.95861 C -56.387144,391.95861 -56.135191,392.03869 -55.932061,392.19884 M -105.268,406.95861 C -106.16254,406.43127 -107.08246,406.1676 -108.02776,406.16759 C -108.56292,406.1676 -108.98871,406.25549 -109.30511,406.43126 C -109.62152,406.60315 -109.77972,406.82775 -109.77972,407.10509 C -109.77972,407.28479 -109.68011,407.44299 -109.48089,407.5797 C -109.28167,407.71643 -108.76605,407.86682 -107.93401,408.03087 C -107.22308,408.17541 -106.63715,408.3258 -106.1762,408.48205 C -105.71527,408.6383 -105.31683,408.89416 -104.98089,409.24962 C -104.64496,409.60119 -104.47699,410.08166 -104.47698,410.69103 C -104.47699,411.49181 -104.82074,412.1383 -105.50823,412.63048 C -106.19183,413.12267 -107.04339,413.36876 -108.06292,413.36876 C -109.35589,413.36876 -110.57659,413.07189 -111.72503,412.47814 L -111.23284,411.14806 C -110.08441,411.69884 -109.04339,411.97423 -108.1098,411.97423 C -107.53558,411.97423 -107.07269,411.86877 -106.72112,411.65783 C -106.36566,411.44298 -106.18793,411.15588 -106.18792,410.7965 C -106.18793,410.57384 -106.2973,410.38244 -106.51605,410.22228 C -106.7309,410.06213 -107.28168,409.89611 -108.16839,409.72423 C -108.86371,409.58752 -109.43206,409.44494 -109.87347,409.2965 C -110.31488,409.14416 -110.69573,408.89611 -111.01605,408.55236 C -111.33636,408.20861 -111.49652,407.73791 -111.49651,407.14025 C -111.49652,406.43713 -111.18402,405.86877 -110.55901,405.43517 C -109.93402,405.00158 -109.09027,404.78479 -108.02776,404.78478 C -106.87933,404.78479 -105.79144,405.06213 -104.76409,405.61681 L -105.268,406.95861 M -99.941827,413.14025 C -100.28558,413.29259 -100.65667,413.36876 -101.05511,413.36876 C -101.70745,413.36876 -102.2055,413.19689 -102.54925,412.85314 C -102.88909,412.50548 -103.05902,412.00548 -103.05901,411.35314 L -103.05901,408.36486 L -103.89691,408.36486 L -103.89691,407.10509 L -103.05901,407.10509 L -103.05901,405.20665 L -101.44183,405.20665 L -101.44183,407.10509 L -100.26409,407.10509 L -100.26409,408.36486 L -101.44183,408.36486 L -101.44183,411.1129 C -101.44183,411.39416 -101.38714,411.61486 -101.27776,411.77501 C -101.16839,411.93127 -101.02191,412.00939 -100.83831,412.00939 C -100.61566,412.00939 -100.40472,411.96642 -100.2055,411.88048 L -99.941827,413.14025 M -95.307061,407.19884 L -95.605889,408.6754 C -95.769956,408.56213 -95.941831,408.50549 -96.121514,408.50548 C -96.324643,408.50549 -96.519955,408.57189 -96.707452,408.7047 C -96.894955,408.83361 -97.086361,409.06017 -97.281671,409.38439 C -97.476986,409.7047 -97.574642,409.8922 -97.574639,409.94689 L -97.574639,413.21056 L -99.197686,413.21056 L -99.197686,407.10509 L -97.574639,407.10509 L -97.574639,408.31212 C -97.355892,407.81603 -97.131283,407.46643 -96.900811,407.2633 C -96.670346,407.06018 -96.391049,406.95861 -96.062921,406.95861 C -95.762144,406.95861 -95.510191,407.03869 -95.307061,407.19884 M -89.107842,412.69494 C -89.814879,413.14415 -90.627378,413.36876 -91.545342,413.36876 C -92.580501,413.36876 -93.402766,413.0758 -94.012139,412.48986 C -94.621515,411.90392 -94.926202,411.12463 -94.926202,410.15197 C -94.926202,409.19494 -94.652765,408.42346 -94.105889,407.83751 C -93.559016,407.25158 -92.836361,406.95861 -91.937921,406.95861 C -91.1098,406.95861 -90.434019,407.23791 -89.910577,407.7965 C -89.383239,408.35119 -89.119567,409.12853 -89.119561,410.12853 L -89.119561,410.53283 L -93.221124,410.53283 C -93.162532,410.9547 -92.973079,411.30627 -92.652764,411.58751 C -92.332455,411.86877 -91.949643,412.00939 -91.504327,412.00939 C -90.801206,412.00939 -90.098082,411.81017 -89.394952,411.41173 L -89.107842,412.69494 M -90.678155,409.44298 C -90.725035,409.03674 -90.8598,408.71447 -91.082452,408.47619 C -91.305112,408.234 -91.578549,408.11291 -91.902764,408.1129 C -92.242611,408.11291 -92.533626,408.234 -92.775811,408.47619 C -93.018001,408.71447 -93.162532,409.03674 -93.209405,409.44298 L -90.678155,409.44298 M -82.609795,413.21056 L -84.309014,413.21056 C -84.4223,412.95665 -84.47894,412.72423 -84.478936,412.5133 C -85.021909,413.08361 -85.674252,413.36876 -86.435967,413.36876 C -86.994563,413.36876 -87.434016,413.20275 -87.754327,412.87072 C -88.07464,412.53869 -88.234796,412.09923 -88.234795,411.55236 C -88.234796,411.15392 -88.129327,410.80822 -87.918389,410.51525 C -87.703546,410.21838 -87.387141,409.9801 -86.969171,409.8004 C -86.547298,409.62072 -86.043392,409.50744 -85.457452,409.46056 L -84.467217,409.38439 L -84.467217,409.27306 C -84.467222,408.57775 -84.848081,408.2301 -85.609795,408.23009 C -85.844173,408.2301 -86.15472,408.28088 -86.541436,408.38244 C -86.928157,408.484 -87.271906,408.6051 -87.572686,408.74572 L -87.959405,407.62072 C -87.5805,407.42932 -87.144953,407.27111 -86.652764,407.14611 C -86.156673,407.02111 -85.71722,406.95861 -85.334405,406.95861 C -84.521909,406.95861 -83.904722,407.15588 -83.482842,407.5504 C -83.060973,407.94494 -82.850036,408.52307 -82.85003,409.28478 L -82.85003,411.75744 C -82.850036,412.33166 -82.769958,412.81603 -82.609795,413.21056 M -84.467217,411.36486 L -84.467217,410.35705 C -85.146908,410.42736 -85.568783,410.47619 -85.732842,410.50353 C -85.893001,410.53088 -86.06097,410.59142 -86.236749,410.68517 C -86.412532,410.77892 -86.543391,410.89611 -86.629327,411.03673 C -86.715266,411.17345 -86.758235,411.3297 -86.758233,411.50548 C -86.758235,411.68517 -86.697688,411.83752 -86.576592,411.96251 C -86.451595,412.08361 -86.283626,412.14416 -86.072686,412.14415 C -85.482846,412.14416 -84.94769,411.88439 -84.467217,411.36486 M -72.174249,413.21056 L -73.791436,413.21056 L -73.791436,409.62462 C -73.791444,409.11681 -73.855897,408.77307 -73.984795,408.59337 C -74.109803,408.41369 -74.301209,408.32385 -74.559014,408.32384 C -74.988709,408.32385 -75.424255,408.65197 -75.865655,409.30822 L -75.865655,413.21056 L -77.488702,413.21056 L -77.488702,409.62462 C -77.488706,409.08166 -77.551206,408.7301 -77.676202,408.56994 C -77.801206,408.40588 -77.982846,408.32385 -78.221124,408.32384 C -78.658627,408.32385 -79.101986,408.65588 -79.551202,409.31994 L -79.551202,413.21056 L -81.174249,413.21056 L -81.174249,407.10509 L -79.551202,407.10509 L -79.551202,408.03673 C -79.078548,407.31799 -78.463315,406.95861 -77.705499,406.95861 C -76.908629,406.95861 -76.344176,407.31799 -76.012139,408.03673 C -75.504333,407.31799 -74.844178,406.95861 -74.031671,406.95861 C -73.437929,406.95861 -72.980898,407.14416 -72.660577,407.51525 C -72.336368,407.88244 -72.174258,408.41369 -72.174249,409.109 L -72.174249,413.21056 M -68.025811,404.78478 L -70.146905,413.36876 L -71.359795,413.36876 L -69.262139,404.78478 L -68.025811,404.78478 M -61.205499,406.39611 L -65.523858,406.39611 L -65.523858,408.62853 L -61.334405,408.62853 L -61.334405,410.0172 L -65.523858,410.0172 L -65.523858,413.21056 L -67.205499,413.21056 L -67.205499,404.94298 L -61.205499,404.94298 L -61.205499,406.39611 M -59.03753,404.41564 C -58.791438,404.41565 -58.576594,404.50744 -58.392999,404.69103 C -58.209407,404.87073 -58.117611,405.08752 -58.117608,405.34142 C -58.117611,405.58752 -58.209407,405.80041 -58.392999,405.98009 C -58.572688,406.15979 -58.787532,406.24963 -59.03753,406.24962 C -59.291438,406.24963 -59.508234,406.16174 -59.687921,405.98595 C -59.863703,405.80627 -59.951593,405.59143 -59.951592,405.34142 C -59.951593,405.08362 -59.863703,404.86487 -59.687921,404.68517 C -59.508234,404.50549 -59.291438,404.41565 -59.03753,404.41564 M -58.223077,413.21056 L -59.846124,413.21056 L -59.846124,407.10509 L -58.223077,407.10509 L -58.223077,413.21056 M -54.894952,413.21056 L -56.517999,413.21056 L -56.517999,404.49767 L -54.894952,404.49767 L -54.894952,413.21056 M -47.764092,412.69494 C -48.471129,413.14415 -49.283628,413.36876 -50.201592,413.36876 C -51.236751,413.36876 -52.059016,413.0758 -52.668389,412.48986 C -53.277765,411.90392 -53.582452,411.12463 -53.582452,410.15197 C -53.582452,409.19494 -53.309015,408.42346 -52.762139,407.83751 C -52.215266,407.25158 -51.492611,406.95861 -50.594171,406.95861 C -49.76605,406.95861 -49.090269,407.23791 -48.566827,407.7965 C -48.039489,408.35119 -47.775817,409.12853 -47.775811,410.12853 L -47.775811,410.53283 L -51.877374,410.53283 C -51.818782,410.9547 -51.629329,411.30627 -51.309014,411.58751 C -50.988705,411.86877 -50.605893,412.00939 -50.160577,412.00939 C -49.457456,412.00939 -48.754332,411.81017 -48.051202,411.41173 L -47.764092,412.69494 M -49.334405,409.44298 C -49.381285,409.03674 -49.51605,408.71447 -49.738702,408.47619 C -49.961362,408.234 -50.234799,408.11291 -50.559014,408.1129 C -50.898861,408.11291 -51.189876,408.234 -51.432061,408.47619 C -51.674251,408.71447 -51.818782,409.03674 -51.865655,409.44298 L -49.334405,409.44298"
       id="flowRoot9528"
       style="font-size:12px;font-style:normal;font-variant:normal;font-weight:bold;font-stretch:normal;text-align:start;line-height:125%;writing-mode:lr-tb;text-anchor:start;fill:#000000;fill-opacity:1;stroke:none;stroke-width:1px;stroke-linecap:butt;stroke-linejoin:miter;stroke-opacity:1;font-family:Sans;-inkscape-font-specification:Sans Bold" />
    <path
       d="M -18.892188,413.28014 L -20.573829,413.28014 L -20.573829,405.01256 L -18.892188,405.01256 L -18.892188,413.28014 M -11.556251,413.28014 L -13.173438,413.28014 L -13.173438,409.69421 C -13.173443,408.82702 -13.485943,408.39343 -14.110938,408.39342 C -14.665629,408.39343 -15.161722,408.6903 -15.599219,409.28405 L -15.599219,413.28014 L -17.222266,413.28014 L -17.222266,407.17467 L -15.599219,407.17467 L -15.599219,407.91881 C -15.09141,407.32507 -14.435161,407.0282 -13.630469,407.02819 C -12.997662,407.0282 -12.493756,407.21765 -12.118751,407.59655 C -11.743757,407.97155 -11.556257,408.4989 -11.556251,409.17858 L -11.556251,413.28014 M -8.263282,407.78405 C -8.067972,407.5614 -7.804301,407.37976 -7.472266,407.23913 C -7.136332,407.09851 -6.792583,407.0282 -6.441016,407.02819 C -5.683209,407.0282 -5.062116,407.30945 -4.577735,407.87194 C -4.08946,408.43444 -3.84532,409.18054 -3.845313,410.11022 C -3.84532,411.13757 -4.08946,411.95007 -4.577735,412.54772 C -5.062116,413.14147 -5.683209,413.43835 -6.441016,413.43835 C -7.206645,413.43835 -7.814066,413.19811 -8.263282,412.71764 L -8.263282,415.67077 L -9.886329,415.67077 L -9.886329,407.17467 L -8.263282,407.17467 L -8.263282,407.78405 M -8.263282,411.35827 C -7.892191,411.82311 -7.423442,412.05553 -6.857032,412.05553 C -6.470317,412.05553 -6.151958,411.88952 -5.901954,411.55749 C -5.651959,411.22155 -5.526959,410.76843 -5.526954,410.19811 C -5.526959,409.61218 -5.653912,409.16491 -5.907813,408.85631 C -6.161724,408.54773 -6.483989,408.39343 -6.87461,408.39342 C -7.401957,408.39343 -7.864847,408.64148 -8.263282,409.13756 L -8.263282,411.35827 M 3.080468,413.28014 L 1.457421,413.28014 L 1.457421,412.536 C 0.949604,413.12975 0.295308,413.42663 -0.505469,413.42663 C -1.14219,413.42663 -1.648049,413.23717 -2.023048,412.85827 C -2.398049,412.47936 -2.585548,411.95202 -2.585548,411.27624 L -2.585548,407.17467 L -0.962501,407.17467 L -0.962501,410.76061 C -0.962503,411.62389 -0.651957,412.05553 -0.03086,412.05553 C 0.523823,412.05553 1.019917,411.76061 1.457421,411.17077 L 1.457421,407.17467 L 3.080468,407.17467 L 3.080468,413.28014 M 8.049218,413.20983 C 7.705464,413.36217 7.334371,413.43835 6.935937,413.43835 C 6.283591,413.43835 5.785544,413.26647 5.441796,412.92272 C 5.101951,412.57507 4.93203,412.07507 4.932031,411.42272 L 4.932031,408.43444 L 4.09414,408.43444 L 4.09414,407.17467 L 4.932031,407.17467 L 4.932031,405.27624 L 6.549218,405.27624 L 6.549218,407.17467 L 7.726952,407.17467 L 7.726952,408.43444 L 6.549218,408.43444 L 6.549218,411.18249 C 6.549215,411.46374 6.603903,411.68444 6.713281,411.8446 C 6.822653,412.00085 6.969137,412.07897 7.152734,412.07897 C 7.375386,412.07897 7.586324,412.036 7.785546,411.95006 L 8.049218,413.20983 M 12.098046,405.01256 L 15.654687,405.01256 C 16.63515,405.01257 17.398821,405.23914 17.945702,405.69225 C 18.496476,406.14148 18.771867,406.77429 18.771874,407.59069 C 18.771867,408.42663 18.494523,409.07702 17.939843,409.54186 C 17.385149,410.0028 16.617572,410.23327 15.637109,410.23327 L 13.779687,410.23327 L 13.779687,413.28014 L 12.098046,413.28014 L 12.098046,405.01256 M 13.779687,408.83874 L 15.53164,408.83874 C 16.01601,408.83874 16.392963,408.72741 16.662499,408.50475 C 16.932025,408.2821 17.06679,407.98132 17.066796,407.60241 C 17.06679,407.23913 16.930072,406.94812 16.65664,406.72936 C 16.383197,406.51062 16.008198,406.40124 15.53164,406.40124 L 13.779687,406.40124 L 13.779687,408.83874 M 22.949609,407.02819 C 23.914448,407.0282 24.691791,407.3114 25.28164,407.8778 C 25.871477,408.44421 26.166399,409.22937 26.166406,410.23327 C 26.166399,411.23718 25.871477,412.02233 25.28164,412.58874 C 24.691791,413.15514 23.914448,413.43835 22.949609,413.43835 C 21.984762,413.43835 21.209372,413.15514 20.623437,412.58874 C 20.037499,412.02233 19.74453,411.23718 19.744531,410.23327 C 19.74453,409.22546 20.037499,408.4403 20.623437,407.8778 C 21.209372,407.3114 21.984762,407.0282 22.949609,407.02819 M 22.949609,412.05553 C 23.414448,412.05553 23.785542,411.89147 24.06289,411.56335 C 24.344135,411.23132 24.48476,410.78796 24.484765,410.23327 C 24.48476,409.67468 24.346088,409.23132 24.068749,408.90319 C 23.795307,408.57507 23.422261,408.41101 22.949609,408.411 C 22.461324,408.41101 22.084372,408.57116 21.818749,408.89147 C 21.557028,409.20788 21.426169,409.65515 21.426171,410.23327 C 21.426169,410.79577 21.558981,411.24108 21.824609,411.56921 C 22.090231,411.89343 22.465231,412.05553 22.949609,412.05553 M 29.096093,413.28014 L 27.473046,413.28014 L 27.473046,404.56725 L 29.096093,404.56725 L 29.096093,413.28014 M 31.609765,404.48522 C 31.855857,404.48523 32.0707,404.57703 32.254296,404.76061 C 32.437887,404.94031 32.529684,405.1571 32.529687,405.411 C 32.529684,405.6571 32.437887,405.86999 32.254296,406.04967 C 32.074607,406.22937 31.859763,406.31921 31.609765,406.31921 C 31.355857,406.31921 31.139061,406.23132 30.959374,406.05553 C 30.783592,405.87585 30.695702,405.66101 30.695702,405.411 C 30.695702,405.1532 30.783592,404.93445 30.959374,404.75475 C 31.139061,404.57507 31.355857,404.48523 31.609765,404.48522 M 32.424218,413.28014 L 30.801171,413.28014 L 30.801171,407.17467 L 32.424218,407.17467 L 32.424218,413.28014 M 39.555077,412.76452 C 38.867572,413.21374 38.072651,413.43835 37.170312,413.43835 C 36.111715,413.43835 35.273825,413.14928 34.65664,412.57116 C 34.043358,411.99303 33.736718,411.20983 33.736718,410.22155 C 33.736718,409.24108 34.043358,408.46374 34.65664,407.88952 C 35.273825,407.3153 36.10195,407.0282 37.141015,407.02819 C 37.965229,407.0282 38.746478,407.2196 39.484765,407.60241 L 39.185937,408.89733 C 38.498432,408.55358 37.822651,408.38171 37.158593,408.38171 C 36.693746,408.38171 36.287496,408.53991 35.939843,408.85631 C 35.592184,409.17272 35.418357,409.6278 35.418359,410.22155 C 35.418357,410.81921 35.592184,411.27819 35.939843,411.5985 C 36.291403,411.91882 36.701558,412.07897 37.170312,412.07897 C 37.900776,412.07897 38.599994,411.87975 39.267968,411.48131 L 39.555077,412.76452 M 46.557031,407.17467 L 44.172265,413.38561 C 43.875386,414.16295 43.494527,414.75475 43.029687,415.161 C 42.568747,415.57116 41.9457,415.77623 41.160546,415.77624 C 40.750389,415.77623 40.326561,415.70787 39.889062,415.57116 L 40.176171,414.27624 C 40.492577,414.37389 40.767967,414.42272 41.002343,414.42272 C 41.35781,414.42272 41.642966,414.34069 41.857812,414.17663 C 42.07656,414.01647 42.260153,413.71764 42.408593,413.28014 L 40.053124,407.17467 L 41.846093,407.17467 L 43.316796,411.57506 L 44.857812,407.17467 L 46.557031,407.17467"
       id="text9550"
       style="font-size:12px;font-style:normal;font-variant:normal;font-weight:bold;font-stretch:normal;text-align:start;line-height:125%;writing-mode:lr-tb;text-anchor:start;fill:#000000;fill-opacity:1;stroke:none;stroke-width:1px;stroke-linecap:butt;stroke-linejoin:miter;stroke-opacity:1;font-family:Sans;-inkscape-font-specification:Sans Bold" />
  </g>
</svg>
