<?xml version="1.0" encoding="UTF-8" standalone="no"?>
<!-- Created with Inkscape (http://www.inkscape.org/) -->
<svg
   xmlns:dc="http://purl.org/dc/elements/1.1/"
   xmlns:cc="http://creativecommons.org/ns#"
   xmlns:rdf="http://www.w3.org/1999/02/22-rdf-syntax-ns#"
   xmlns:svg="http://www.w3.org/2000/svg"
   xmlns="http://www.w3.org/2000/svg"
   xmlns:xlink="http://www.w3.org/1999/xlink"
   xmlns:sodipodi="http://sodipodi.sourceforge.net/DTD/sodipodi-0.dtd"
   xmlns:inkscape="http://www.inkscape.org/namespaces/inkscape"
   version="1.0"
   width="850.39368"
   height="283.46457"
   id="svg2"
   sodipodi:version="0.32"
   inkscape:version="0.46"
   sodipodi:docname="token-policy-queue-4.svg"
   inkscape:output_extension="org.inkscape.output.svg.inkscape"
   inkscape:export-filename="/home/fschaef/prj/quex/trunk/doc/source/figures/token-policy-queue-4.png"
   inkscape:export-xdpi="600"
   inkscape:export-ydpi="600">
  <metadata
     id="metadata8506">
    <rdf:RDF>
      <cc:Work
         rdf:about="">
        <dc:format>image/svg+xml</dc:format>
        <dc:type
           rdf:resource="http://purl.org/dc/dcmitype/StillImage" />
      </cc:Work>
    </rdf:RDF>
  </metadata>
  <sodipodi:namedview
     inkscape:window-height="716"
     inkscape:window-width="1013"
     inkscape:pageshadow="2"
     inkscape:pageopacity="0.0"
     guidetolerance="10.0"
     gridtolerance="10.0"
     objecttolerance="10.0"
     borderopacity="1.0"
     bordercolor="#666666"
     pagecolor="#ffffff"
     id="base"
     showgrid="false"
     inkscape:zoom="0.93793789"
     inkscape:cx="464.28886"
     inkscape:cy="46.491455"
     inkscape:window-x="5"
     inkscape:window-y="21"
     inkscape:current-layer="svg2" />
  <defs
     id="defs4">
    <inkscape:perspective
       sodipodi:type="inkscape:persp3d"
       inkscape:vp_x="0 : 141.73228 : 1"
       inkscape:vp_y="0 : 1000 : 0"
       inkscape:vp_z="850.39368 : 141.73228 : 1"
       inkscape:persp3d-origin="425.19684 : 94.48819 : 1"
       id="perspective8508" />
    <linearGradient
       id="linearGradient6075">
      <stop
         id="stop6077"
         style="stop-color:#0000ff;stop-opacity:1"
         offset="0" />
      <stop
         id="stop6079"
         style="stop-color:#0000ff;stop-opacity:0"
         offset="1" />
    </linearGradient>
    <marker
       refX="0"
       refY="0"
       orient="auto"
       id="Arrow2Lend"
       style="overflow:visible">
      <path
         d="M 8.7185878,4.0337352 L -2.2072895,0.016013256 L 8.7185884,-4.0017078 C 6.97309,-1.6296469 6.9831476,1.6157441 8.7185878,4.0337352 z"
         transform="matrix(-1.1,0,0,-1.1,-1.1,0)"
         id="path3205"
         style="font-size:12px;fill-rule:evenodd;stroke-width:0.625;stroke-linejoin:round" />
    </marker>
    <marker
       refX="0"
       refY="0"
       orient="auto"
       id="Arrow1Mend"
       style="overflow:visible">
      <path
         d="M 0,0 L 5,-5 L -12.5,0 L 5,5 L 0,0 z"
         transform="matrix(-0.4,0,0,-0.4,-4,0)"
         id="path3193"
         style="fill-rule:evenodd;stroke:#000000;stroke-width:1pt;marker-start:none" />
    </marker>
    <marker
       refX="0"
       refY="0"
       orient="auto"
       id="Arrow2Mend"
       style="overflow:visible">
      <path
         d="M 8.7185878,4.0337352 L -2.2072895,0.016013256 L 8.7185884,-4.0017078 C 6.97309,-1.6296469 6.9831476,1.6157441 8.7185878,4.0337352 z"
         transform="scale(-0.6,-0.6)"
         id="path3211"
         style="font-size:12px;fill-rule:evenodd;stroke-width:0.625;stroke-linejoin:round" />
    </marker>
    <marker
       refX="0"
       refY="0"
       orient="auto"
       id="Arrow1Lend"
       style="overflow:visible">
      <path
         d="M 0,0 L 5,-5 L -12.5,0 L 5,5 L 0,0 z"
         transform="matrix(-0.8,0,0,-0.8,-10,0)"
         id="path3187"
         style="fill-rule:evenodd;stroke:#000000;stroke-width:1pt;marker-start:none" />
    </marker>
    <linearGradient
       x1="360"
       y1="412.36218"
       x2="340"
       y2="322.36218"
       id="linearGradient6095"
       xlink:href="#linearGradient6075"
       gradientUnits="userSpaceOnUse"
       gradientTransform="translate(59.338869,32.964577)" />
    <linearGradient
       x1="360"
       y1="412.36218"
       x2="340"
       y2="322.36218"
       id="linearGradient6099"
       xlink:href="#linearGradient6075"
       gradientUnits="userSpaceOnUse"
       gradientTransform="translate(59.338869,62.964577)" />
    <linearGradient
       x1="360"
       y1="412.36218"
       x2="340"
       y2="322.36218"
       id="linearGradient6103"
       xlink:href="#linearGradient6075"
       gradientUnits="userSpaceOnUse"
       gradientTransform="translate(59.338869,92.964577)" />
    <linearGradient
       x1="360"
       y1="412.36218"
       x2="340"
       y2="322.36218"
       id="linearGradient6107"
       xlink:href="#linearGradient6075"
       gradientUnits="userSpaceOnUse"
       gradientTransform="translate(59.338869,122.96458)" />
    <linearGradient
       x1="360"
       y1="412.36218"
       x2="340"
       y2="322.36218"
       id="linearGradient6111"
       xlink:href="#linearGradient6075"
       gradientUnits="userSpaceOnUse"
       gradientTransform="translate(59.338869,152.96458)" />
    <linearGradient
       x1="360"
       y1="412.36218"
       x2="340"
       y2="322.36218"
       id="linearGradient6115"
       xlink:href="#linearGradient6075"
       gradientUnits="userSpaceOnUse"
       gradientTransform="translate(59.338869,182.96458)" />
    <linearGradient
       inkscape:collect="always"
       xlink:href="#linearGradient6075"
       id="linearGradient8553"
       gradientUnits="userSpaceOnUse"
       gradientTransform="translate(59.338869,32.964577)"
       x1="360"
       y1="412.36218"
       x2="340"
       y2="322.36218" />
    <linearGradient
       inkscape:collect="always"
       xlink:href="#linearGradient6075"
       id="linearGradient8555"
       gradientUnits="userSpaceOnUse"
       gradientTransform="translate(59.338869,62.964577)"
       x1="360"
       y1="412.36218"
       x2="340"
       y2="322.36218" />
    <linearGradient
       inkscape:collect="always"
       xlink:href="#linearGradient6075"
       id="linearGradient8557"
       gradientUnits="userSpaceOnUse"
       gradientTransform="translate(59.338869,92.964577)"
       x1="360"
       y1="412.36218"
       x2="340"
       y2="322.36218" />
    <linearGradient
       inkscape:collect="always"
       xlink:href="#linearGradient6075"
       id="linearGradient8559"
       gradientUnits="userSpaceOnUse"
       gradientTransform="translate(59.338869,122.96458)"
       x1="360"
       y1="412.36218"
       x2="340"
       y2="322.36218" />
    <linearGradient
       inkscape:collect="always"
       xlink:href="#linearGradient6075"
       id="linearGradient8561"
       gradientUnits="userSpaceOnUse"
       gradientTransform="translate(59.338869,152.96458)"
       x1="360"
       y1="412.36218"
       x2="340"
       y2="322.36218" />
    <linearGradient
       inkscape:collect="always"
       xlink:href="#linearGradient6075"
       id="linearGradient8563"
       gradientUnits="userSpaceOnUse"
       gradientTransform="translate(59.338869,182.96458)"
       x1="360"
       y1="412.36218"
       x2="340"
       y2="322.36218" />
    <linearGradient
       inkscape:collect="always"
       xlink:href="#linearGradient6075"
       id="linearGradient8606"
       gradientUnits="userSpaceOnUse"
       gradientTransform="translate(59.338869,32.964577)"
       x1="360"
       y1="412.36218"
       x2="340"
       y2="322.36218" />
    <linearGradient
       inkscape:collect="always"
       xlink:href="#linearGradient6075"
       id="linearGradient8608"
       gradientUnits="userSpaceOnUse"
       gradientTransform="translate(59.338869,62.964577)"
       x1="360"
       y1="412.36218"
       x2="340"
       y2="322.36218" />
    <linearGradient
       inkscape:collect="always"
       xlink:href="#linearGradient6075"
       id="linearGradient8610"
       gradientUnits="userSpaceOnUse"
       gradientTransform="translate(59.338869,92.964577)"
       x1="360"
       y1="412.36218"
       x2="340"
       y2="322.36218" />
    <linearGradient
       inkscape:collect="always"
       xlink:href="#linearGradient6075"
       id="linearGradient8612"
       gradientUnits="userSpaceOnUse"
       gradientTransform="translate(59.338869,122.96458)"
       x1="360"
       y1="412.36218"
       x2="340"
       y2="322.36218" />
    <linearGradient
       inkscape:collect="always"
       xlink:href="#linearGradient6075"
       id="linearGradient8614"
       gradientUnits="userSpaceOnUse"
       gradientTransform="translate(59.338869,152.96458)"
       x1="360"
       y1="412.36218"
       x2="340"
       y2="322.36218" />
    <linearGradient
       inkscape:collect="always"
       xlink:href="#linearGradient6075"
       id="linearGradient8616"
       gradientUnits="userSpaceOnUse"
       gradientTransform="translate(59.338869,182.96458)"
       x1="360"
       y1="412.36218"
       x2="340"
       y2="322.36218" />
    <linearGradient
       inkscape:collect="always"
       xlink:href="#linearGradient6075"
       id="linearGradient8653"
       gradientUnits="userSpaceOnUse"
       gradientTransform="translate(-169.88796,-178.8976)"
       x1="360"
       y1="412.36218"
       x2="340"
       y2="322.36218" />
    <linearGradient
       inkscape:collect="always"
       xlink:href="#linearGradient6075"
       id="linearGradient8656"
       gradientUnits="userSpaceOnUse"
       gradientTransform="translate(-169.88796,-208.8976)"
       x1="360"
       y1="412.36218"
       x2="340"
       y2="322.36218" />
    <linearGradient
       inkscape:collect="always"
       xlink:href="#linearGradient6075"
       id="linearGradient8659"
       gradientUnits="userSpaceOnUse"
       gradientTransform="translate(-169.88796,-238.8976)"
       x1="360"
       y1="412.36218"
       x2="340"
       y2="322.36218" />
    <linearGradient
       inkscape:collect="always"
       xlink:href="#linearGradient6075"
       id="linearGradient8662"
       gradientUnits="userSpaceOnUse"
       gradientTransform="translate(-169.88796,-268.8976)"
       x1="360"
       y1="412.36218"
       x2="340"
       y2="322.36218" />
    <linearGradient
       inkscape:collect="always"
       xlink:href="#linearGradient6075"
       id="linearGradient8665"
       gradientUnits="userSpaceOnUse"
       gradientTransform="translate(-169.88796,-298.8976)"
       x1="360"
       y1="412.36218"
       x2="340"
       y2="322.36218" />
    <linearGradient
       inkscape:collect="always"
       xlink:href="#linearGradient6075"
       id="linearGradient8668"
       gradientUnits="userSpaceOnUse"
       gradientTransform="translate(-169.88796,-328.8976)"
       x1="360"
       y1="412.36218"
       x2="340"
       y2="322.36218" />
  </defs>
  <rect
     style="fill:url(#linearGradient8668);fill-opacity:1;fill-rule:evenodd;stroke:#000000;stroke-width:1;stroke-miterlimit:4;stroke-dasharray:none;stroke-dashoffset:0;stroke-opacity:1"
     id="rect6093"
     y="33.464573"
     x="130.11205"
     height="30"
     width="100" />
  <rect
     style="fill:url(#linearGradient8665);fill-opacity:1;fill-rule:evenodd;stroke:#000000;stroke-width:1;stroke-miterlimit:4;stroke-dasharray:none;stroke-dashoffset:0;stroke-opacity:1"
     id="rect6097"
     y="63.464573"
     x="130.11205"
     height="30"
     width="100" />
  <rect
     style="fill:url(#linearGradient8662);fill-opacity:1;fill-rule:evenodd;stroke:#000000;stroke-width:1;stroke-miterlimit:4;stroke-dasharray:none;stroke-dashoffset:0;stroke-opacity:1"
     id="rect6101"
     y="93.464569"
     x="130.11205"
     height="30"
     width="100" />
  <rect
     style="fill:url(#linearGradient8659);fill-opacity:1;fill-rule:evenodd;stroke:#000000;stroke-width:1;stroke-miterlimit:4;stroke-dasharray:none;stroke-dashoffset:0;stroke-opacity:1"
     id="rect6105"
     y="123.46457"
     x="130.11205"
     height="30"
     width="100" />
  <rect
     style="fill:url(#linearGradient8656);fill-opacity:1;fill-rule:evenodd;stroke:#000000;stroke-width:1;stroke-miterlimit:4;stroke-dasharray:none;stroke-dashoffset:0;stroke-opacity:1"
     id="rect6109"
     y="153.46454"
     x="130.11205"
     height="30"
     width="100" />
  <rect
     style="fill:url(#linearGradient8653);fill-opacity:1;fill-rule:evenodd;stroke:#000000;stroke-width:1;stroke-miterlimit:4;stroke-dasharray:none;stroke-dashoffset:0;stroke-opacity:1"
     id="rect6113"
     y="183.46454"
     x="130.11205"
     height="30"
     width="100" />
  <rect
     style="fill:#ffffff;fill-opacity:1;fill-rule:evenodd;stroke:#000000;stroke-width:1;stroke-miterlimit:4;stroke-dasharray:none;stroke-dashoffset:0;stroke-opacity:1"
     id="rect3169"
     y="213.46454"
     x="130.11205"
     height="30"
     width="100" />
  <rect
     style="fill:#ffffff;fill-opacity:1;fill-rule:evenodd;stroke:#000000;stroke-width:1;stroke-miterlimit:4;stroke-dasharray:none;stroke-dashoffset:0;stroke-opacity:1"
     id="rect3171"
     y="243.46454"
     x="130.11205"
     height="30"
     width="100" />
  <path
     d=""
     style="fill:#000000;fill-opacity:1;fill-rule:evenodd;stroke:#000000;stroke-width:1;stroke-miterlimit:4;stroke-dasharray:none;stroke-dashoffset:0;stroke-opacity:1"
     id="path3175" />
  <g
     id="g6121"
     transform="translate(549.99999,-328.8976)">
    <rect
       style="opacity:1;fill:#ffffff;fill-opacity:1;fill-rule:evenodd;stroke:#000000;stroke-width:1;stroke-miterlimit:4;stroke-dasharray:none;stroke-dashoffset:0;stroke-opacity:1"
       id="rect6117"
       y="442.36218"
       x="60"
       height="30"
       width="100" />
    <path
       style="opacity:1;fill:#000000;fill-opacity:1;fill-rule:evenodd;stroke:#000000;stroke-width:1;stroke-miterlimit:4;stroke-dasharray:none;stroke-dashoffset:0;stroke-opacity:1"
       id="path6119"
       transform="translate(-7.5,-7.5)"
       d="M 125,464.86218 C 125,469.00432 121.64214,472.36218 117.5,472.36218 C 113.35786,472.36218 110,469.00432 110,464.86218 C 110,460.72004 113.35786,457.36218 117.5,457.36218 C 121.64214,457.36218 125,460.72004 125,464.86218 z" />
  </g>
  <path
     transform="translate(7.1083434,-362.76199)"
     style="font-size:20px;font-style:normal;font-variant:normal;font-weight:bold;font-stretch:normal;text-align:start;line-height:125%;writing-mode:lr-tb;text-anchor:start;fill:#000000;fill-opacity:1;stroke:none;stroke-width:1px;stroke-linecap:butt;stroke-linejoin:miter;stroke-opacity:1;font-family:Courier;-inkscape-font-specification:Courier Bold"
     d="M 129.09375,380.81583 C 128.19375,380.81583 127.21375,381.45583 127.21375,382.51583 C 127.21375,383.59583 128.19375,384.21583 129.09375,384.21583 C 130.01375,384.21583 130.97375,383.57583 130.97375,382.51583 C 130.97375,381.43583 129.95375,380.81583 129.09375,380.81583 M 136.50594,374.83583 L 136.50594,376.47583 L 138.72594,376.47583 L 138.72594,382.25583 L 136.32594,382.25583 L 136.32594,383.89583 L 144.16594,383.89583 L 144.16594,382.25583 L 140.46594,382.25583 L 140.46594,378.51583 C 140.62594,378.35583 142.44594,376.27583 143.74594,376.27583 C 144.42594,376.27583 144.80594,376.75583 145.02594,377.13583 L 146.80594,375.77583 C 146.36594,375.33583 145.60594,374.55583 144.08594,374.55583 C 142.36594,374.55583 141.30594,375.51583 140.46594,376.31583 L 140.46594,374.83583 L 136.50594,374.83583 M 157.79812,381.01583 C 156.71813,381.65583 155.03812,382.45583 153.37813,382.45583 C 150.77813,382.45583 150.31812,380.73583 150.13813,380.01583 L 157.97813,380.01583 C 157.99812,379.83583 158.03813,379.25583 158.03813,378.79583 C 158.03813,376.83584 156.43812,374.55583 153.27812,374.55583 C 150.19813,374.55583 148.29812,376.83584 148.29812,379.41583 C 148.29812,381.93583 150.05813,384.17583 153.41813,384.17583 C 154.97812,384.17583 156.79813,383.59583 158.59813,382.55583 L 157.79812,381.01583 M 150.25813,378.37583 C 150.45812,377.83583 151.07813,376.27583 153.29812,376.27583 C 153.85812,376.27583 155.65813,376.31584 156.19813,378.37583 L 150.25813,378.37583 M 168.15031,374.55583 L 167.97031,375.65583 C 166.95031,374.79583 166.13031,374.55583 165.13031,374.55583 C 161.97032,374.55583 160.25031,377.03584 160.25031,379.37583 C 160.25031,382.07583 162.29032,384.17583 165.19031,384.17583 C 167.55031,384.17583 169.47031,382.71583 170.41031,381.99583 L 169.45031,380.63583 C 168.29031,381.45583 166.81031,382.45583 165.27031,382.45583 C 162.95031,382.45583 162.09031,380.71583 162.09031,379.35583 C 162.09031,378.49583 162.57032,376.27583 165.41031,376.27583 C 167.69031,376.27583 167.85031,377.45583 168.03031,378.69583 L 169.71031,378.47583 C 169.65031,378.01583 169.59031,377.49583 169.59031,376.71583 C 169.59031,375.99583 169.65031,375.25583 169.71031,374.71583 L 168.15031,374.55583 M 181.7825,381.01583 C 180.7025,381.65583 179.0225,382.45583 177.3625,382.45583 C 174.7625,382.45583 174.3025,380.73583 174.1225,380.01583 L 181.9625,380.01583 C 181.9825,379.83583 182.0225,379.25583 182.0225,378.79583 C 182.0225,376.83584 180.4225,374.55583 177.2625,374.55583 C 174.1825,374.55583 172.2825,376.83584 172.2825,379.41583 C 172.2825,381.93583 174.0425,384.17583 177.4025,384.17583 C 178.9625,384.17583 180.7825,383.59583 182.5825,382.55583 L 181.7825,381.01583 M 174.2425,378.37583 C 174.4425,377.83583 175.0625,376.27583 177.2825,376.27583 C 177.8425,376.27583 179.6425,376.31584 180.1825,378.37583 L 174.2425,378.37583 M 185.35469,374.83583 L 185.35469,376.47583 L 188.21469,376.47583 L 188.21469,382.25583 L 184.81469,382.25583 L 184.81469,383.89583 L 193.29469,383.89583 L 193.29469,382.25583 L 189.95469,382.25583 L 189.95469,374.83583 L 185.35469,374.83583 M 187.83469,373.09583 L 189.95469,373.09583 L 189.95469,370.45583 L 187.83469,370.45583 L 187.83469,373.09583 M 195.26687,374.83583 L 195.26687,376.47583 L 196.84688,376.47583 L 200.34688,383.89583 L 201.76687,383.89583 L 205.26687,376.47583 L 206.82688,376.47583 L 206.82688,374.83583 L 202.12688,374.83583 L 202.12688,376.47583 L 203.42687,376.47583 L 201.10688,381.45583 L 198.82688,376.47583 L 200.16688,376.47583 L 200.16688,374.83583 L 195.26687,374.83583 M 217.75906,381.01583 C 216.67906,381.65583 214.99906,382.45583 213.33906,382.45583 C 210.73907,382.45583 210.27906,380.73583 210.09906,380.01583 L 217.93906,380.01583 C 217.95906,379.83583 217.99906,379.25583 217.99906,378.79583 C 217.99906,376.83584 216.39906,374.55583 213.23906,374.55583 C 210.15907,374.55583 208.25906,376.83584 208.25906,379.41583 C 208.25906,381.93583 210.01907,384.17583 213.37906,384.17583 C 214.93906,384.17583 216.75906,383.59583 218.55906,382.55583 L 217.75906,381.01583 M 210.21906,378.37583 C 210.41906,377.83583 211.03906,376.27583 213.25906,376.27583 C 213.81906,376.27583 215.61906,376.31584 216.15906,378.37583 L 210.21906,378.37583 M 226.99125,370.57583 L 226.93125,370.65583 C 226.89125,370.71583 226.73125,370.95583 226.69125,370.99583 C 225.77125,372.39583 224.39125,375.47584 224.39125,378.15583 C 224.39125,380.43583 225.41125,383.41584 226.85125,385.55583 C 226.93125,385.65583 226.93125,385.67583 226.99125,385.75583 L 228.83125,385.75583 C 227.59125,383.39584 226.33125,381.01583 226.33125,378.15583 C 226.33125,375.29584 227.67125,372.77583 228.83125,370.57583 L 226.99125,370.57583 M 232.02344,372.23583 L 231.64344,377.51583 L 233.36344,377.75583 L 233.62344,373.87583 L 236.16344,373.87583 L 236.16344,382.25583 L 233.84344,382.25583 L 233.84344,383.89583 L 240.26344,383.89583 L 240.26344,382.25583 L 237.90344,382.25583 L 237.90344,373.87583 L 240.44344,373.87583 L 240.70344,377.75583 L 242.42344,377.51583 L 242.04344,372.23583 L 232.02344,372.23583 M 243.83562,379.29583 C 243.83562,381.79583 245.63563,384.17583 249.01562,384.17583 C 252.49562,384.17583 254.19563,381.69583 254.19563,379.29583 C 254.19563,376.77584 252.37562,374.41583 249.01562,374.41583 C 245.77563,374.41583 243.83562,376.65584 243.83562,379.29583 M 245.67562,379.29583 C 245.67562,377.65583 246.81563,376.13583 249.01562,376.13583 C 251.27562,376.13583 252.35563,377.73583 252.35563,379.29583 C 252.35563,380.85583 251.27562,382.45583 249.01562,382.45583 C 246.81563,382.45583 245.67562,380.91583 245.67562,379.29583 M 255.48781,371.25583 L 255.64781,372.93583 L 257.44781,372.77583 L 257.44781,382.25583 L 255.84781,382.25583 L 255.84781,383.89583 L 259.18781,383.89583 L 259.18781,380.15583 L 259.84781,379.65583 C 260.28781,380.05583 261.80781,381.55583 262.42781,382.25583 L 261.68781,382.25583 L 261.68781,383.89583 L 266.46781,383.89583 L 266.46781,382.25583 L 264.64781,382.25583 C 262.94781,380.27584 261.84781,379.15583 261.22781,378.63583 L 264.42781,376.47583 L 265.74781,376.47583 L 265.74781,374.83583 L 260.80781,374.83583 L 260.80781,376.47583 L 261.70781,376.47583 L 261.70781,376.51583 L 259.18781,378.07583 L 259.18781,370.93583 L 255.48781,371.25583 M 277.72,381.01583 C 276.64,381.65583 274.96,382.45583 273.3,382.45583 C 270.7,382.45583 270.24,380.73583 270.06,380.01583 L 277.9,380.01583 C 277.92,379.83583 277.96,379.25583 277.96,378.79583 C 277.96,376.83584 276.36,374.55583 273.2,374.55583 C 270.12,374.55583 268.22,376.83584 268.22,379.41583 C 268.22,381.93583 269.98,384.17583 273.34,384.17583 C 274.9,384.17583 276.72,383.59583 278.52,382.55583 L 277.72,381.01583 M 270.18,378.37583 C 270.38,377.83583 271,376.27583 273.22,376.27583 C 273.78,376.27583 275.58,376.31584 276.12,378.37583 L 270.18,378.37583 M 279.45219,374.83583 L 279.45219,376.47583 L 281.07219,376.47583 L 281.07219,382.25583 L 279.41219,382.25583 L 279.41219,383.89583 L 284.33219,383.89583 L 284.33219,382.25583 L 282.81219,382.25583 L 282.81219,377.63583 C 283.67219,377.01583 284.63219,376.27583 285.75219,376.27583 C 286.73219,376.27583 287.25219,377.15583 287.25219,378.23583 L 287.25219,382.25583 L 285.57219,382.25583 L 285.57219,383.89583 L 290.61219,383.89583 L 290.61219,382.25583 L 288.99219,382.25583 L 288.99219,378.15583 C 288.99219,376.05584 287.71219,374.55583 285.71219,374.55583 C 284.41219,374.55583 283.47219,375.21583 282.81219,375.67583 L 282.81219,374.83583 L 279.45219,374.83583 M 295.90438,372.23583 L 296.02438,374.95583 L 293.50437,374.03583 L 292.84438,376.05583 L 295.46438,376.75583 L 293.76437,378.87583 L 295.46438,380.13583 L 296.98438,377.87583 L 298.50437,380.13583 L 300.20438,378.87583 L 298.50437,376.75583 L 301.12437,376.05583 L 300.48438,374.03583 L 297.94437,374.95583 L 298.06437,372.23583 L 295.90438,372.23583 M 315.64875,372.23583 L 315.64875,373.87583 L 317.26875,373.87583 L 317.26875,382.25583 L 315.64875,382.25583 L 315.64875,383.89583 L 321.14875,383.89583 C 322.64875,383.89583 326.08875,383.89583 326.08875,380.47583 C 326.08875,378.63584 324.80875,377.97583 324.30875,377.71583 C 325.38875,376.89583 325.38875,375.77583 325.38875,375.43583 C 325.38875,374.45583 324.96875,373.65583 324.32875,373.09583 C 323.72875,372.57583 322.94875,372.23583 321.32875,372.23583 L 315.64875,372.23583 M 321.28875,373.87583 C 321.76875,373.87583 323.60875,373.87583 323.60875,375.33583 C 323.60875,376.99583 321.98875,377.01583 321.18875,377.01583 L 319.00875,377.01583 L 319.00875,373.87583 L 321.28875,373.87583 M 321.02875,378.65583 C 321.98875,378.65583 324.28875,378.69584 324.28875,380.57583 C 324.28875,382.11583 322.96875,382.25583 321.10875,382.25583 L 319.00875,382.25583 L 319.00875,378.65583 L 321.02875,378.65583 M 337.68094,381.01583 C 336.60094,381.65583 334.92094,382.45583 333.26094,382.45583 C 330.66094,382.45583 330.20094,380.73583 330.02094,380.01583 L 337.86094,380.01583 C 337.88094,379.83583 337.92094,379.25583 337.92094,378.79583 C 337.92094,376.83584 336.32093,374.55583 333.16094,374.55583 C 330.08094,374.55583 328.18094,376.83584 328.18094,379.41583 C 328.18094,381.93583 329.94094,384.17583 333.30094,384.17583 C 334.86094,384.17583 336.68094,383.59583 338.48094,382.55583 L 337.68094,381.01583 M 330.14094,378.37583 C 330.34094,377.83583 330.96094,376.27583 333.18094,376.27583 C 333.74094,376.27583 335.54094,376.31584 336.08094,378.37583 L 330.14094,378.37583 M 346.91312,374.83583 L 346.91312,375.69583 C 346.05313,375.01583 344.95312,374.75583 344.19313,374.75583 C 341.83313,374.75583 339.67313,376.65584 339.67313,379.25583 C 339.67313,381.67583 341.63313,383.73583 344.17313,383.73583 C 345.71312,383.73583 346.57313,383.03583 346.91312,382.75583 C 346.91312,383.79583 346.91312,384.67583 345.81313,385.07583 C 345.37313,385.23583 344.89312,385.29583 342.19313,385.29583 L 342.19313,386.93583 L 344.27312,386.93583 C 346.81312,386.93583 348.65312,386.21583 348.65312,382.99583 L 348.65312,376.47583 L 350.23312,376.47583 L 350.23312,374.83583 L 346.91312,374.83583 M 346.91312,379.27583 C 346.91312,380.69583 345.81312,382.01583 344.23312,382.01583 C 342.73313,382.01583 341.51313,380.77583 341.51313,379.23583 C 341.51313,377.61583 342.85313,376.47583 344.25313,376.47583 C 345.65312,376.47583 346.91312,377.61583 346.91312,379.27583 M 353.24531,374.83583 L 353.24531,376.47583 L 356.10531,376.47583 L 356.10531,382.25583 L 352.70531,382.25583 L 352.70531,383.89583 L 361.18531,383.89583 L 361.18531,382.25583 L 357.84531,382.25583 L 357.84531,374.83583 L 353.24531,374.83583 M 355.72531,373.09583 L 357.84531,373.09583 L 357.84531,370.45583 L 355.72531,370.45583 L 355.72531,373.09583 M 363.3975,374.83583 L 363.3975,376.47583 L 365.0175,376.47583 L 365.0175,382.25583 L 363.3575,382.25583 L 363.3575,383.89583 L 368.2775,383.89583 L 368.2775,382.25583 L 366.7575,382.25583 L 366.7575,377.63583 C 367.6175,377.01583 368.5775,376.27583 369.6975,376.27583 C 370.6775,376.27583 371.1975,377.15583 371.1975,378.23583 L 371.1975,382.25583 L 369.5175,382.25583 L 369.5175,383.89583 L 374.5575,383.89583 L 374.5575,382.25583 L 372.9375,382.25583 L 372.9375,378.15583 C 372.9375,376.05584 371.6575,374.55583 369.6575,374.55583 C 368.3575,374.55583 367.4175,375.21583 366.7575,375.67583 L 366.7575,374.83583 L 363.3975,374.83583 M 379.74969,380.53583 L 378.00969,386.01583 L 380.16969,386.01583 L 382.62969,380.53583 L 379.74969,380.53583 M 399.91406,372.23583 L 399.53406,377.51583 L 401.25406,377.75583 L 401.51406,373.87583 L 404.05406,373.87583 L 404.05406,382.25583 L 401.73406,382.25583 L 401.73406,383.89583 L 408.15406,383.89583 L 408.15406,382.25583 L 405.79406,382.25583 L 405.79406,373.87583 L 408.33406,373.87583 L 408.59406,377.75583 L 410.31406,377.51583 L 409.93406,372.23583 L 399.91406,372.23583 M 411.72625,379.29583 C 411.72625,381.79583 413.52625,384.17583 416.90625,384.17583 C 420.38625,384.17583 422.08625,381.69583 422.08625,379.29583 C 422.08625,376.77584 420.26625,374.41583 416.90625,374.41583 C 413.66625,374.41583 411.72625,376.65584 411.72625,379.29583 M 413.56625,379.29583 C 413.56625,377.65583 414.70625,376.13583 416.90625,376.13583 C 419.16625,376.13583 420.24625,377.73583 420.24625,379.29583 C 420.24625,380.85583 419.16625,382.45583 416.90625,382.45583 C 414.70625,382.45583 413.56625,380.91583 413.56625,379.29583 M 423.37844,371.25583 L 423.53844,372.93583 L 425.33844,372.77583 L 425.33844,382.25583 L 423.73844,382.25583 L 423.73844,383.89583 L 427.07844,383.89583 L 427.07844,380.15583 L 427.73844,379.65583 C 428.17844,380.05583 429.69844,381.55583 430.31844,382.25583 L 429.57844,382.25583 L 429.57844,383.89583 L 434.35844,383.89583 L 434.35844,382.25583 L 432.53844,382.25583 C 430.83844,380.27584 429.73844,379.15583 429.11844,378.63583 L 432.31844,376.47583 L 433.63844,376.47583 L 433.63844,374.83583 L 428.69844,374.83583 L 428.69844,376.47583 L 429.59844,376.47583 L 429.59844,376.51583 L 427.07844,378.07583 L 427.07844,370.93583 L 423.37844,371.25583 M 445.61063,381.01583 C 444.53063,381.65583 442.85062,382.45583 441.19063,382.45583 C 438.59063,382.45583 438.13062,380.73583 437.95063,380.01583 L 445.79062,380.01583 C 445.81062,379.83583 445.85062,379.25583 445.85062,378.79583 C 445.85062,376.83584 444.25062,374.55583 441.09062,374.55583 C 438.01063,374.55583 436.11063,376.83584 436.11063,379.41583 C 436.11063,381.93583 437.87063,384.17583 441.23062,384.17583 C 442.79062,384.17583 444.61063,383.59583 446.41062,382.55583 L 445.61063,381.01583 M 438.07063,378.37583 C 438.27062,377.83583 438.89063,376.27583 441.11063,376.27583 C 441.67062,376.27583 443.47063,376.31584 444.01063,378.37583 L 438.07063,378.37583 M 447.34281,374.83583 L 447.34281,376.47583 L 448.96281,376.47583 L 448.96281,382.25583 L 447.30281,382.25583 L 447.30281,383.89583 L 452.22281,383.89583 L 452.22281,382.25583 L 450.70281,382.25583 L 450.70281,377.63583 C 451.56281,377.01583 452.52281,376.27583 453.64281,376.27583 C 454.62281,376.27583 455.14281,377.15583 455.14281,378.23583 L 455.14281,382.25583 L 453.46281,382.25583 L 453.46281,383.89583 L 458.50281,383.89583 L 458.50281,382.25583 L 456.88281,382.25583 L 456.88281,378.15583 C 456.88281,376.05584 455.60281,374.55583 453.60281,374.55583 C 452.30281,374.55583 451.36281,375.21583 450.70281,375.67583 L 450.70281,374.83583 L 447.34281,374.83583 M 463.795,372.23583 L 463.915,374.95583 L 461.395,374.03583 L 460.735,376.05583 L 463.355,376.75583 L 461.655,378.87583 L 463.355,380.13583 L 464.875,377.87583 L 466.395,380.13583 L 468.095,378.87583 L 466.395,376.75583 L 469.015,376.05583 L 468.375,374.03583 L 465.835,374.95583 L 465.955,372.23583 L 463.795,372.23583 M 483.75937,372.23583 L 483.75937,373.87583 L 485.41938,373.87583 L 485.41938,382.25583 L 483.75937,382.25583 L 483.75937,383.89583 L 493.91938,383.89583 L 493.91938,379.55583 L 492.25937,379.55583 L 492.15938,382.25583 L 487.15938,382.25583 L 487.15938,378.57583 L 489.51938,378.57583 L 489.51938,379.99583 L 491.17937,379.99583 L 491.17937,375.49583 L 489.51938,375.49583 L 489.51938,376.93583 L 487.15938,376.93583 L 487.15938,373.87583 L 491.97938,373.87583 L 492.15938,376.55583 L 493.81937,376.55583 L 493.71938,372.23583 L 483.75937,372.23583 M 495.31156,374.83583 L 495.31156,376.47583 L 496.93156,376.47583 L 496.93156,382.25583 L 495.27156,382.25583 L 495.27156,383.89583 L 500.19156,383.89583 L 500.19156,382.25583 L 498.67156,382.25583 L 498.67156,377.63583 C 499.53156,377.01583 500.49156,376.27583 501.61156,376.27583 C 502.59156,376.27583 503.11156,377.15583 503.11156,378.23583 L 503.11156,382.25583 L 501.43156,382.25583 L 501.43156,383.89583 L 506.47156,383.89583 L 506.47156,382.25583 L 504.85156,382.25583 L 504.85156,378.15583 C 504.85156,376.05584 503.57156,374.55583 501.57156,374.55583 C 500.27156,374.55583 499.33156,375.21583 498.67156,375.67583 L 498.67156,374.83583 L 495.31156,374.83583 M 512.26375,371.35583 L 512.08375,373.05583 L 515.30375,372.81583 L 515.30375,375.79583 C 514.44375,375.11583 513.32375,374.75583 512.34375,374.75583 C 510.02375,374.75583 507.72375,376.61584 507.72375,379.41583 C 507.72375,381.91583 509.74375,384.09583 512.38375,384.09583 C 512.94375,384.09583 514.20375,383.99583 515.30375,383.05583 L 515.30375,383.89583 L 518.66375,383.89583 L 518.66375,382.25583 L 517.04375,382.25583 L 517.04375,370.93583 L 512.26375,371.35583 M 515.26375,379.43583 C 515.26375,381.15583 513.90375,382.37583 512.40375,382.37583 C 510.86375,382.37583 509.56375,381.13583 509.56375,379.39583 C 509.56375,377.61584 510.90375,376.47583 512.40375,376.47583 C 514.32375,376.47583 515.26375,378.13583 515.26375,379.43583 M 522.89594,385.75583 C 523.39594,384.95583 523.77594,384.39583 524.31594,383.15583 C 524.97594,381.61583 525.47594,379.79583 525.47594,378.15583 C 525.47594,376.85583 525.09594,373.95583 522.95594,370.65583 C 522.93594,370.65583 522.89594,370.59583 522.89594,370.57583 L 521.03594,370.57583 C 522.33594,373.05583 523.53594,375.33584 523.53594,378.15583 C 523.53594,381.03583 522.17594,383.59584 521.17594,385.47583 C 521.15594,385.51583 521.05594,385.69583 521.03594,385.75583 L 522.89594,385.75583"
     id="flowRoot6139" />
  <path
     transform="translate(449.83932,-203.58453)"
     style="font-size:20px;font-style:normal;font-variant:normal;font-weight:bold;font-stretch:normal;text-align:start;line-height:125%;writing-mode:lr-tb;text-anchor:start;fill:#000000;fill-opacity:1;stroke:none;stroke-width:1px;stroke-linecap:butt;stroke-linejoin:miter;stroke-opacity:1;font-family:Courier;-inkscape-font-specification:Courier Bold"
     d="M 129.09375,380.81583 C 128.19375,380.81583 127.21375,381.45583 127.21375,382.51583 C 127.21375,383.59583 128.19375,384.21583 129.09375,384.21583 C 130.01375,384.21583 130.97375,383.57583 130.97375,382.51583 C 130.97375,381.43583 129.95375,380.81583 129.09375,380.81583 M 143.40594,374.37583 L 143.14594,375.49583 C 142.72594,375.17583 141.88594,374.55583 140.48594,374.55583 C 138.98594,374.55583 136.80594,375.37584 136.80594,377.33583 C 136.80594,378.25583 137.36594,379.09583 138.12594,379.53583 C 138.78594,379.91583 139.44594,380.07583 141.22594,380.19583 C 142.78594,380.29583 143.64594,380.33583 143.64594,381.13583 C 143.64594,381.97583 142.60594,382.45583 141.14594,382.45583 C 139.22594,382.45583 138.64594,381.53583 138.42594,380.45583 L 136.86594,380.63583 C 136.96594,381.05583 137.06594,381.41583 137.06594,382.19583 C 137.06594,383.03583 136.94594,383.61583 136.86594,384.09583 L 138.42594,384.19583 L 138.66594,383.15583 C 139.20594,383.59583 139.88594,384.17583 141.46594,384.17583 C 143.80594,384.17583 145.44594,382.85583 145.44594,381.17583 C 145.44594,380.59583 145.18594,379.77583 144.48594,379.25583 C 143.76594,378.71583 142.84594,378.67583 141.08594,378.55583 C 139.98594,378.47583 138.60594,378.41583 138.60594,377.39583 C 138.60594,376.43583 139.92594,376.27583 140.70594,376.27583 C 141.04594,376.27583 142.78594,376.27583 143.14594,377.31583 L 143.30594,377.77583 C 143.32594,377.85583 143.38594,377.99583 143.40594,378.03583 L 144.96594,377.81583 C 144.86594,377.41583 144.76594,377.01583 144.76594,376.37583 C 144.76594,375.75583 144.86594,375.13583 144.96594,374.63583 L 143.40594,374.37583 M 157.79812,381.01583 C 156.71813,381.65583 155.03812,382.45583 153.37813,382.45583 C 150.77813,382.45583 150.31812,380.73583 150.13813,380.01583 L 157.97813,380.01583 C 157.99812,379.83583 158.03813,379.25583 158.03813,378.79583 C 158.03813,376.83584 156.43812,374.55583 153.27812,374.55583 C 150.19813,374.55583 148.29812,376.83584 148.29812,379.41583 C 148.29812,381.93583 150.05813,384.17583 153.41813,384.17583 C 154.97812,384.17583 156.79813,383.59583 158.59813,382.55583 L 157.79812,381.01583 M 150.25813,378.37583 C 150.45812,377.83583 151.07813,376.27583 153.29812,376.27583 C 153.85812,376.27583 155.65813,376.31584 156.19813,378.37583 L 150.25813,378.37583 M 159.53031,374.83583 L 159.53031,376.47583 L 161.15031,376.47583 L 161.15031,382.25583 L 159.49031,382.25583 L 159.49031,383.89583 L 164.41031,383.89583 L 164.41031,382.25583 L 162.89031,382.25583 L 162.89031,377.63583 C 163.75031,377.01583 164.71031,376.27583 165.83031,376.27583 C 166.81031,376.27583 167.33031,377.15583 167.33031,378.23583 L 167.33031,382.25583 L 165.65031,382.25583 L 165.65031,383.89583 L 170.69031,383.89583 L 170.69031,382.25583 L 169.07031,382.25583 L 169.07031,378.15583 C 169.07031,376.05584 167.79031,374.55583 165.79031,374.55583 C 164.49031,374.55583 163.55031,375.21583 162.89031,375.67583 L 162.89031,374.83583 L 159.53031,374.83583 M 176.4825,371.35583 L 176.3025,373.05583 L 179.5225,372.81583 L 179.5225,375.79583 C 178.6625,375.11583 177.5425,374.75583 176.5625,374.75583 C 174.2425,374.75583 171.9425,376.61584 171.9425,379.41583 C 171.9425,381.91583 173.9625,384.09583 176.6025,384.09583 C 177.1625,384.09583 178.4225,383.99583 179.5225,383.05583 L 179.5225,383.89583 L 182.8825,383.89583 L 182.8825,382.25583 L 181.2625,382.25583 L 181.2625,370.93583 L 176.4825,371.35583 M 179.4825,379.43583 C 179.4825,381.15583 178.1225,382.37583 176.6225,382.37583 C 175.0825,382.37583 173.7825,381.13583 173.7825,379.39583 C 173.7825,377.61584 175.1225,376.47583 176.6225,376.47583 C 178.5425,376.47583 179.4825,378.13583 179.4825,379.43583 M 191.01469,370.57583 L 190.95469,370.65583 C 190.91469,370.71583 190.75469,370.95583 190.71469,370.99583 C 189.79469,372.39583 188.41469,375.47584 188.41469,378.15583 C 188.41469,380.43583 189.43469,383.41584 190.87469,385.55583 C 190.95469,385.65583 190.95469,385.67583 191.01469,385.75583 L 192.85469,385.75583 C 191.61469,383.39584 190.35469,381.01583 190.35469,378.15583 C 190.35469,375.29584 191.69469,372.77583 192.85469,370.57583 L 191.01469,370.57583 M 201.04688,380.81583 C 200.14688,380.81583 199.16688,381.45583 199.16688,382.51583 C 199.16688,383.59583 200.14688,384.21583 201.04688,384.21583 C 201.96687,384.21583 202.92687,383.57583 202.92687,382.51583 C 202.92687,381.43583 201.90687,380.81583 201.04688,380.81583 M 213.03906,380.81583 C 212.13906,380.81583 211.15906,381.45583 211.15906,382.51583 C 211.15906,383.59583 212.13906,384.21583 213.03906,384.21583 C 213.95906,384.21583 214.91906,383.57583 214.91906,382.51583 C 214.91906,381.43583 213.89906,380.81583 213.03906,380.81583 M 225.03125,380.81583 C 224.13125,380.81583 223.15125,381.45583 223.15125,382.51583 C 223.15125,383.59583 224.13125,384.21583 225.03125,384.21583 C 225.95125,384.21583 226.91125,383.57583 226.91125,382.51583 C 226.91125,381.43583 225.89125,380.81583 225.03125,380.81583 M 235.08344,385.75583 C 235.58344,384.95583 235.96344,384.39583 236.50344,383.15583 C 237.16344,381.61583 237.66344,379.79583 237.66344,378.15583 C 237.66344,376.85583 237.28344,373.95583 235.14344,370.65583 C 235.12344,370.65583 235.08344,370.59583 235.08344,370.57583 L 233.22344,370.57583 C 234.52344,373.05583 235.72344,375.33584 235.72344,378.15583 C 235.72344,381.03583 234.36344,383.59584 233.36344,385.47583 C 233.34344,385.51583 233.24344,385.69583 233.22344,385.75583 L 235.08344,385.75583"
     id="flowRoot3959" />
  <path
     style="fill:none;fill-rule:evenodd;stroke:#000000;stroke-width:1.5;stroke-linecap:butt;stroke-linejoin:miter;marker-end:url(#Arrow1Lend);stroke-miterlimit:4;stroke-dasharray:none;stroke-opacity:1"
     id="path3967"
     d="M 659.99999,128.46458 L 231.17821,193.46458"
     sodipodi:nodetypes="cc" />
  <path
     style="fill:none;fill-rule:evenodd;stroke:#000000;stroke-width:1;stroke-linecap:butt;stroke-linejoin:miter;marker-end:url(#Arrow2Lend);stroke-miterlimit:4;stroke-dasharray:2, 2;stroke-dashoffset:0;stroke-opacity:1"
     id="path4484"
     d="M 449.99999,63.46458 L 449.99999,203.46458 L 449.99999,236.51581"
     sodipodi:nodetypes="ccc" />
  <flowRoot
     style="font-size:12px;font-style:normal;font-variant:normal;font-weight:normal;font-stretch:normal;fill:#000000;fill-opacity:1;stroke:none;stroke-width:1px;stroke-linecap:butt;stroke-linejoin:miter;stroke-opacity:1;font-family:Sans;-inkscape-font-specification:Adobe Helvetica"
     xml:space="preserve"
     id="flowRoot6131"
     transform="translate(6.3611145,-354.94217)"><flowRegion
       id="flowRegion6133"><rect
         id="rect6135"
         y="506.00467"
         x="492.35709"
         height="34.941471"
         width="182.64859" /></flowRegion><flowPara
       id="flowPara6137" /></flowRoot>  <path
     transform="translate(55.64551,-381.90346)"
     style="font-size:20px;font-style:normal;font-variant:normal;font-weight:bold;font-stretch:normal;text-align:start;line-height:125%;writing-mode:lr-tb;text-anchor:start;fill:#000000;fill-opacity:1;stroke:none;stroke-width:1px;stroke-linecap:butt;stroke-linejoin:miter;stroke-opacity:1;font-family:Sans;-inkscape-font-specification:Sans Bold"
     d="M 15.431641,512.34364 C 15.431628,514.04286 14.91405,515.4133 13.878906,516.45497 C 12.85025,517.49012 11.427725,518.0077 9.6113281,518.0077 C 7.755854,518.0077 6.3040325,517.49338 5.2558594,516.46473 C 4.2141909,515.43609 3.6933581,514.04937 3.6933594,512.30458 L 3.6933594,503.96473 L 6.4960938,503.96473 L 6.4960938,512.18739 C 6.4960896,513.26812 6.7923133,514.11122 7.3847656,514.71668 C 7.9772079,515.32216 8.7193947,515.62489 9.6113281,515.62489 C 10.483716,515.62489 11.225903,515.32541 11.837891,514.72645 C 12.44986,514.1275 12.755849,513.28765 12.755859,512.20692 L 12.755859,503.96473 L 15.431641,503.96473 L 15.431641,512.34364 M 25.988281,509.99989 C 24.751294,509.53766 23.550123,509.30654 22.384766,509.30653 C 21.134761,509.30654 20.509762,509.56695 20.509766,510.08778 C 20.509762,510.3482 20.646481,510.55979 20.919922,510.72254 C 21.193355,510.8788 21.763016,511.05784 22.628906,511.25965 C 24.36067,511.68935 25.516267,512.16461 26.095703,512.68543 C 26.67512,513.20627 26.964834,513.83778 26.964844,514.57997 C 26.964834,516.86512 25.327465,518.0077 22.052734,518.0077 C 20.561845,518.0077 19.100258,517.73426 17.667969,517.18739 L 18.146484,515.08778 C 19.376951,515.68674 20.643225,515.98622 21.945312,515.98622 C 23.520827,515.98622 24.308586,515.65744 24.308594,514.99989 C 24.308586,514.74598 24.126295,514.52789 23.761719,514.34559 C 23.403639,514.1633 22.798171,513.96799 21.945312,513.75965 C 20.486976,513.42763 19.45182,513.00445 18.839844,512.49012 C 18.234374,511.97581 17.93164,511.34104 17.931641,510.58583 C 17.93164,509.58974 18.315754,508.79873 19.083984,508.21278 C 19.858721,507.62034 20.95247,507.32412 22.365234,507.32411 C 23.719394,507.32412 25.08658,507.54547 26.466797,507.98817 L 25.988281,509.99989 M 38.419922,516.88465 C 37.241527,517.63335 35.887362,518.0077 34.357422,518.0077 C 32.632157,518.0077 31.261715,517.51942 30.246094,516.54286 C 29.230467,515.5663 28.722655,514.26747 28.722656,512.64637 C 28.722655,511.05133 29.178384,509.76552 30.089844,508.78895 C 31.001299,507.8124 32.205725,507.32412 33.703125,507.32411 C 35.083326,507.32412 36.209627,507.78961 37.082031,508.72059 C 37.960927,509.64508 38.40038,510.94065 38.400391,512.60731 L 38.400391,513.28114 L 31.564453,513.28114 C 31.662106,513.98427 31.977861,514.5702 32.511719,515.03895 C 33.045568,515.5077 33.683588,515.74208 34.425781,515.74208 C 35.597649,515.74208 36.769522,515.41005 37.941406,514.74598 L 38.419922,516.88465 M 35.802734,511.46473 C 35.724602,510.78766 35.499992,510.25055 35.128906,509.8534 C 34.757806,509.44977 34.302077,509.24794 33.761719,509.24793 C 33.195307,509.24794 32.710282,509.44977 32.306641,509.8534 C 31.902991,510.25055 31.662106,510.78766 31.583984,511.46473 L 35.802734,511.46473 M 46.994141,507.7245 L 46.496094,510.18543 C 46.222649,509.99664 45.936191,509.90224 45.636719,509.90223 C 45.298171,509.90224 44.97265,510.01292 44.660156,510.23426 C 44.347651,510.44911 44.028641,510.82672 43.703125,511.36708 C 43.3776,511.90094 43.21484,512.21344 43.214844,512.30458 L 43.214844,517.74403 L 40.509766,517.74403 L 40.509766,507.56825 L 43.214844,507.56825 L 43.214844,509.57997 C 43.579423,508.75315 43.953771,508.17047 44.337891,507.83192 C 44.722,507.49339 45.187494,507.32412 45.734375,507.32411 C 46.23567,507.32412 46.655591,507.45758 46.994141,507.7245"
     id="flowRoot7225" />
  <path
     transform="translate(725.88643,-381.90346)"
     style="font-size:20px;font-style:normal;font-variant:normal;font-weight:bold;font-stretch:normal;text-align:start;line-height:125%;writing-mode:lr-tb;text-anchor:start;fill:#000000;fill-opacity:1;stroke:none;stroke-width:1px;stroke-linecap:butt;stroke-linejoin:miter;stroke-opacity:1;font-family:Sans;-inkscape-font-specification:Sans Bold"
     d="M 16.730469,517.74403 L 13.810547,517.74403 L 12.316406,513.96473 L 6.8769531,513.96473 L 5.3730469,517.74403 L 2.453125,517.74403 L 8.390625,503.96473 L 10.792969,503.96473 L 16.730469,517.74403 M 11.417969,511.7284 L 9.5917969,507.14833 L 7.7558594,511.7284 L 11.417969,511.7284 M 27.6875,517.74403 L 24.992188,517.74403 L 24.992188,511.76747 C 24.992179,510.32216 24.471347,509.59951 23.429688,509.5995 C 22.505203,509.59951 21.678381,510.0943 20.949219,511.08387 L 20.949219,517.74403 L 18.244141,517.74403 L 18.244141,507.56825 L 20.949219,507.56825 L 20.949219,508.80848 C 21.795568,507.81891 22.889317,507.32412 24.230469,507.32411 C 25.285148,507.32412 26.124991,507.63987 26.75,508.27137 C 27.374989,508.89638 27.687489,509.77529 27.6875,510.90809 L 27.6875,517.74403 M 39.210938,517.74403 L 36.378906,517.74403 C 36.190097,517.32085 36.095696,516.93348 36.095703,516.58192 C 35.190749,517.53244 34.103511,518.0077 32.833984,518.0077 C 31.902992,518.0077 31.170571,517.73101 30.636719,517.17762 C 30.102864,516.62424 29.835937,515.89182 29.835938,514.98036 C 29.835937,514.3163 30.011718,513.74013 30.363281,513.25184 C 30.721352,512.75705 31.248696,512.35992 31.945312,512.06043 C 32.648434,511.76096 33.488277,511.57216 34.464844,511.49403 L 36.115234,511.36708 L 36.115234,511.18153 C 36.115227,510.02268 35.480462,509.44326 34.210938,509.44325 C 33.820308,509.44326 33.30273,509.52789 32.658203,509.69715 C 32.013669,509.86643 31.440753,510.06826 30.939453,510.30262 L 30.294922,508.42762 C 30.92643,508.10862 31.652341,507.84495 32.472656,507.63661 C 33.299475,507.42828 34.031896,507.32412 34.669922,507.32411 C 36.024082,507.32412 37.052726,507.65289 37.755859,508.31043 C 38.458975,508.968 38.810537,509.93154 38.810547,511.20106 L 38.810547,515.32215 C 38.810537,516.27919 38.944001,517.08648 39.210938,517.74403 M 36.115234,514.66786 L 36.115234,512.98817 C 34.982416,513.10536 34.279292,513.18674 34.005859,513.23231 C 33.738928,513.27789 33.45898,513.3788 33.166016,513.53504 C 32.873043,513.6913 32.654944,513.88661 32.511719,514.12098 C 32.368486,514.34885 32.296872,514.60927 32.296875,514.90223 C 32.296872,515.20171 32.397783,515.45562 32.599609,515.66395 C 32.807939,515.86578 33.087887,515.96669 33.439453,515.96668 C 34.422521,515.96669 35.314447,515.53374 36.115234,514.66786 M 44.308594,517.74403 L 41.603516,517.74403 L 41.603516,503.22254 L 44.308594,503.22254 L 44.308594,517.74403 M 56.730469,507.56825 L 52.755859,517.91981 C 52.261061,519.21538 51.626296,520.20171 50.851562,520.87879 C 50.083329,521.56238 49.044919,521.90418 47.736328,521.90418 C 47.052733,521.90418 46.346354,521.79025 45.617188,521.56239 L 46.095703,519.40418 C 46.623046,519.56694 47.08203,519.64832 47.472656,519.64833 C 48.065102,519.64832 48.540362,519.51161 48.898438,519.23817 C 49.263017,518.97124 49.569007,518.47319 49.816406,517.74403 L 45.890625,507.56825 L 48.878906,507.56825 L 51.330078,514.90223 L 53.898438,507.56825 L 56.730469,507.56825 M 66.486328,517.74403 L 57.482422,517.74403 L 57.482422,515.78114 L 62.84375,509.66786 L 57.628906,509.66786 L 57.628906,507.56825 L 65.988281,507.56825 L 65.988281,509.44325 L 60.626953,515.64442 L 66.486328,515.64442 L 66.486328,517.74403 M 77.326172,516.88465 C 76.147777,517.63335 74.793612,518.0077 73.263672,518.0077 C 71.538407,518.0077 70.167965,517.51942 69.152344,516.54286 C 68.136717,515.5663 67.628905,514.26747 67.628906,512.64637 C 67.628905,511.05133 68.084634,509.76552 68.996094,508.78895 C 69.907549,507.8124 71.111975,507.32412 72.609375,507.32411 C 73.989576,507.32412 75.115877,507.78961 75.988281,508.72059 C 76.867177,509.64508 77.30663,510.94065 77.306641,512.60731 L 77.306641,513.28114 L 70.470703,513.28114 C 70.568356,513.98427 70.884111,514.5702 71.417969,515.03895 C 71.951818,515.5077 72.589838,515.74208 73.332031,515.74208 C 74.503899,515.74208 75.675772,515.41005 76.847656,514.74598 L 77.326172,516.88465 M 74.708984,511.46473 C 74.630852,510.78766 74.406242,510.25055 74.035156,509.8534 C 73.664056,509.44977 73.208327,509.24794 72.667969,509.24793 C 72.101557,509.24794 71.616532,509.44977 71.212891,509.8534 C 70.809241,510.25055 70.568356,510.78766 70.490234,511.46473 L 74.708984,511.46473 M 85.900391,507.7245 L 85.402344,510.18543 C 85.128899,509.99664 84.842441,509.90224 84.542969,509.90223 C 84.204421,509.90224 83.8789,510.01292 83.566406,510.23426 C 83.253901,510.44911 82.934891,510.82672 82.609375,511.36708 C 82.28385,511.90094 82.12109,512.21344 82.121094,512.30458 L 82.121094,517.74403 L 79.416016,517.74403 L 79.416016,507.56825 L 82.121094,507.56825 L 82.121094,509.57997 C 82.485673,508.75315 82.860021,508.17047 83.244141,507.83192 C 83.62825,507.49339 84.093744,507.32412 84.640625,507.32411 C 85.14192,507.32412 85.561841,507.45758 85.900391,507.7245"
     id="flowRoot7217" />
  <path
     style="fill:#ffffff;fill-opacity:1;fill-rule:evenodd;stroke:#000000;stroke-width:1px;stroke-linecap:butt;stroke-linejoin:miter;stroke-opacity:1"
     d="M 702.80874,196.25396 L 219.97949,196.25396 L 219.97949,191.25396 L 209.97949,201.25396 L 219.97949,211.25396 L 219.97949,206.25396 L 702.80874,206.25396"
     id="path7287"
     sodipodi:nodetypes="ccccccs" />
  <path
     transform="translate(30.094335,-13.117022)"
     style="font-size:18px;font-style:normal;font-variant:normal;font-weight:normal;font-stretch:normal;text-align:start;line-height:125%;writing-mode:lr-tb;text-anchor:start;fill:#000000;fill-opacity:1;stroke:none;stroke-width:1px;stroke-linecap:butt;stroke-linejoin:miter;stroke-opacity:1;font-family:Sans;-inkscape-font-specification:Sans"
     d="M 624.48145,225.42627 L 624.12109,226.61279 C 623.62304,226.46632 623.21582,226.39308 622.89941,226.39306 C 622.54199,226.39308 622.29297,226.53956 622.15234,226.83252 C 622.01172,227.11964 621.9414,227.5796 621.94141,228.2124 L 621.94141,229.11767 L 623.94531,229.11767 L 623.94531,230.37451 L 621.94141,230.37451 L 621.94141,238.27588 L 620.41211,238.27588 L 620.41211,230.37451 L 618.88281,230.37451 L 618.88281,229.11767 L 620.41211,229.11767 L 620.41211,228.00146 C 620.41211,226.94093 620.61133,226.19093 621.00977,225.75146 C 621.4082,225.30616 622.03222,225.08351 622.88184,225.08349 C 623.35644,225.08351 623.88964,225.19776 624.48145,225.42627 M 626.57324,238.27588 L 625.04395,238.27588 L 625.04395,229.11767 L 626.57324,229.11767 L 626.57324,238.27588 M 625.7998,225.20654 C 626.05761,225.20655 626.27734,225.3003 626.45898,225.48779 C 626.64648,225.66944 626.74023,225.88917 626.74023,226.14697 C 626.74023,226.39308 626.64648,226.60694 626.45898,226.78857 C 626.27734,226.97022 626.05761,227.06104 625.7998,227.06103 C 625.55371,227.06104 625.33984,226.97022 625.1582,226.78857 C 624.97656,226.60694 624.88574,226.39308 624.88574,226.14697 C 624.88574,225.88331 624.97363,225.66065 625.14941,225.479 C 625.33105,225.29737 625.54785,225.20655 625.7998,225.20654 M 630.58105,238.27588 L 629.05176,238.27588 L 629.05176,225.20654 L 630.58105,225.20654 L 630.58105,238.27588 M 634.58887,238.27588 L 633.05957,238.27588 L 633.05957,225.20654 L 634.58887,225.20654 L 634.58887,238.27588 M 649.60059,238.29345 L 648.07129,238.29345 L 648.07129,237.15966 C 647.40917,238.06201 646.51562,238.51318 645.39062,238.51318 C 644.21875,238.51318 643.28418,238.06787 642.58691,237.17724 C 641.88965,236.28662 641.54101,235.06787 641.54102,233.52099 C 641.54101,232.14405 641.89844,231.03077 642.61328,230.18115 C 643.32812,229.32569 644.21875,228.89796 645.28516,228.89795 C 646.51562,228.89796 647.44433,229.34327 648.07129,230.23388 L 648.07129,225.20654 L 649.60059,225.20654 L 649.60059,238.29345 M 648.07129,235.61279 L 648.07129,231.70166 C 647.8662,231.28565 647.54394,230.93702 647.10449,230.65576 C 646.67089,230.37452 646.20214,230.23389 645.69824,230.23388 C 644.87793,230.23389 644.24218,230.53272 643.79102,231.13037 C 643.3457,231.72217 643.12304,232.56299 643.12305,233.65283 C 643.12304,234.75439 643.35742,235.61572 643.82617,236.23681 C 644.29492,236.85205 644.93652,237.15967 645.75098,237.15966 C 646.07324,237.15967 646.40722,237.08349 646.75293,236.93115 C 647.09863,236.77295 647.40331,236.54736 647.66699,236.25439 C 647.93652,235.95557 648.07128,235.7417 648.07129,235.61279 M 660.01562,238.27588 L 658.36328,238.27588 C 658.26952,238.12939 658.18749,237.92138 658.11719,237.65185 C 658.05273,237.38232 658.0205,237.15967 658.02051,236.98388 C 656.93652,238.00342 655.74414,238.51318 654.44336,238.51318 C 653.58203,238.51318 652.88183,238.29052 652.34277,237.84521 C 651.80957,237.39404 651.54297,236.77002 651.54297,235.97314 C 651.54297,235.34033 651.70117,234.80713 652.01758,234.37353 C 652.33984,233.93408 652.82031,233.59131 653.45898,233.34521 C 654.10351,233.09912 654.92089,232.94385 655.91113,232.87939 L 657.98535,232.74756 L 657.98535,232.45752 C 657.98534,231.60205 657.81542,231.00733 657.47559,230.67334 C 657.13574,230.33936 656.53808,230.17237 655.68262,230.17236 C 655.27246,230.17237 654.76269,230.26319 654.15332,230.44482 C 653.5498,230.62061 653.04004,230.82569 652.62402,231.06006 L 652.17578,229.89111 C 652.66797,229.59815 653.26855,229.36085 653.97754,229.1792 C 654.69238,228.99171 655.3457,228.89796 655.9375,228.89795 C 657.15624,228.89796 658.05566,229.17335 658.63574,229.72412 C 659.22167,230.27491 659.51464,231.11573 659.51465,232.24658 L 659.51465,236.09619 C 659.51464,237.05127 659.68163,237.77783 660.01562,238.27588 M 657.98535,235.64795 L 657.98535,233.89892 C 656.67285,233.9751 655.81152,234.03662 655.40137,234.08349 C 654.99707,234.12451 654.60156,234.21826 654.21484,234.36474 C 653.82812,234.51123 653.53515,234.71045 653.33594,234.9624 C 653.13672,235.21436 653.03711,235.52783 653.03711,235.90283 C 653.03711,236.28955 653.18652,236.60303 653.48535,236.84326 C 653.78418,237.07763 654.16797,237.19482 654.63672,237.19482 C 655.23437,237.19482 655.84667,237.0542 656.47363,236.77295 C 657.10058,236.48584 657.60449,236.11084 657.98535,235.64795 M 665.86035,238.22314 C 665.29199,238.4165 664.83789,238.51318 664.49805,238.51318 C 663.70703,238.51318 663.12988,238.29052 662.7666,237.84521 C 662.40918,237.3999 662.23047,236.70264 662.23047,235.75341 L 662.23047,230.37451 L 661.11426,230.37451 L 661.11426,229.11767 L 662.23047,229.11767 L 662.23047,226.61279 L 663.75977,226.61279 L 663.75977,229.11767 L 665.51758,229.11767 L 665.51758,230.37451 L 663.75977,230.37451 L 663.75977,235.6831 C 663.75976,236.69092 664.07031,237.19482 664.69141,237.19482 C 664.96093,237.19482 665.25683,237.13623 665.5791,237.01904 L 665.86035,238.22314 M 675.02734,238.27588 L 673.375,238.27588 C 673.28124,238.12939 673.19921,237.92138 673.12891,237.65185 C 673.06445,237.38232 673.03222,237.15967 673.03223,236.98388 C 671.94824,238.00342 670.75585,238.51318 669.45508,238.51318 C 668.59375,238.51318 667.89355,238.29052 667.35449,237.84521 C 666.82129,237.39404 666.55469,236.77002 666.55469,235.97314 C 666.55469,235.34033 666.71289,234.80713 667.0293,234.37353 C 667.35156,233.93408 667.83203,233.59131 668.4707,233.34521 C 669.11523,233.09912 669.93261,232.94385 670.92285,232.87939 L 672.99707,232.74756 L 672.99707,232.45752 C 672.99706,231.60205 672.82714,231.00733 672.4873,230.67334 C 672.14745,230.33936 671.5498,230.17237 670.69434,230.17236 C 670.28418,230.17237 669.77441,230.26319 669.16504,230.44482 C 668.56152,230.62061 668.05176,230.82569 667.63574,231.06006 L 667.1875,229.89111 C 667.67969,229.59815 668.28027,229.36085 668.98926,229.1792 C 669.7041,228.99171 670.35742,228.89796 670.94922,228.89795 C 672.16796,228.89796 673.06738,229.17335 673.64746,229.72412 C 674.23339,230.27491 674.52636,231.11573 674.52637,232.24658 L 674.52637,236.09619 C 674.52636,237.05127 674.69335,237.77783 675.02734,238.27588 M 672.99707,235.64795 L 672.99707,233.89892 C 671.68456,233.9751 670.82324,234.03662 670.41309,234.08349 C 670.00878,234.12451 669.61328,234.21826 669.22656,234.36474 C 668.83984,234.51123 668.54687,234.71045 668.34766,234.9624 C 668.14844,235.21436 668.04883,235.52783 668.04883,235.90283 C 668.04883,236.28955 668.19824,236.60303 668.49707,236.84326 C 668.7959,237.07763 669.17968,237.19482 669.64844,237.19482 C 670.24609,237.19482 670.85839,237.0542 671.48535,236.77295 C 672.1123,236.48584 672.6162,236.11084 672.99707,235.64795"
     id="flowRoot7305" />
</svg>
