<?xml version="1.0" encoding="UTF-8" standalone="no"?>
<!-- Created with Inkscape (http://www.inkscape.org/) -->
<svg
   xmlns:svg="http://www.w3.org/2000/svg"
   xmlns="http://www.w3.org/2000/svg"
   xmlns:xlink="http://www.w3.org/1999/xlink"
   version="1.0"
   width="744.09448"
   height="1052.3622"
   id="svg2648">
  <defs
     id="defs2650" />
  <g
     id="layer1">
    <g
       transform="matrix(0.7490105,0,0,0.8304878,-63.746066,126.81768)"
       id="g315"
       style="fill:#000000">
      <use
         id="use317"
         x="188.25"
         y="325.25"
         width="1026"
         height="344"
         xlink:href="#glyph1-0" />
      <use
         id="use319"
         x="192.13965"
         y="325.25"
         width="1026"
         height="344"
         xlink:href="#glyph1-1" />
      <use
         id="use321"
         x="200.69141"
         y="325.25"
         width="1026"
         height="344"
         xlink:href="#glyph1-2" />
      <use
         id="use323"
         x="205.35352"
         y="325.25"
         width="1026"
         height="344"
         xlink:href="#glyph1-3" />
      <use
         id="use325"
         x="214.69141"
         y="325.25"
         width="1026"
         height="344"
         xlink:href="#glyph1-4" />
      <use
         id="use327"
         x="224.0293"
         y="325.25"
         width="1026"
         height="344"
         xlink:href="#glyph1-5" />
      <use
         id="use329"
         x="233.36719"
         y="325.25"
         width="1026"
         height="344"
         xlink:href="#glyph1-6" />
      <use
         id="use331"
         x="246.58105"
         y="325.25"
         width="1026"
         height="344"
         xlink:href="#glyph1-7" />
      <use
         id="use333"
         x="257.4707"
         y="325.25"
         width="1026"
         height="344"
         xlink:href="#glyph1-8" />
      <use
         id="use335"
         x="267.58105"
         y="325.25"
         width="1026"
         height="344"
         xlink:href="#glyph1-9" />
    </g>
    <g
       transform="matrix(0.7490105,0,0,0.8304878,-63.746066,126.81768)"
       id="g341"
       style="fill:#000000">
      <use
         id="use343"
         x="334.32501"
         y="325.25"
         width="1026"
         height="344"
         xlink:href="#glyph1-10" />
      <use
         id="use345"
         x="343.6629"
         y="325.25"
         width="1026"
         height="344"
         xlink:href="#glyph1-8" />
      <use
         id="use347"
         x="353.77322"
         y="325.25"
         width="1026"
         height="344"
         xlink:href="#glyph1-11" />
      <use
         id="use349"
         x="363.11115"
         y="325.25"
         width="1026"
         height="344"
         xlink:href="#glyph1-12" />
      <use
         id="use351"
         x="373.22147"
         y="325.25"
         width="1026"
         height="344"
         xlink:href="#glyph1-3" />
      <use
         id="use353"
         x="382.55939"
         y="325.25"
         width="1026"
         height="344"
         xlink:href="#glyph1-4" />
      <use
         id="use355"
         x="391.89728"
         y="325.25"
         width="1026"
         height="344"
         xlink:href="#glyph1-13" />
      <use
         id="use357"
         x="400.44901"
         y="325.25"
         width="1026"
         height="344"
         xlink:href="#glyph1-2" />
      <use
         id="use359"
         x="405.11115"
         y="325.25"
         width="1026"
         height="344"
         xlink:href="#glyph1-14" />
    </g>
    <g
       transform="matrix(0.7490105,0,0,0.8304878,-63.746066,126.81768)"
       id="g365"
       style="fill:#000000">
      <use
         id="use367"
         x="473.47501"
         y="325.25"
         width="1026"
         height="344"
         xlink:href="#glyph1-0" />
      <use
         id="use369"
         x="477.36465"
         y="325.25"
         width="1026"
         height="344"
         xlink:href="#glyph1-9" />
      <use
         id="use371"
         x="487.47501"
         y="325.25"
         width="1026"
         height="344"
         xlink:href="#glyph1-4" />
      <use
         id="use373"
         x="496.8129"
         y="325.25"
         width="1026"
         height="344"
         xlink:href="#glyph1-15" />
      <use
         id="use375"
         x="506.92325"
         y="325.25"
         width="1026"
         height="344"
         xlink:href="#glyph1-13" />
      <use
         id="use377"
         x="515.47498"
         y="325.25"
         width="1026"
         height="344"
         xlink:href="#glyph1-0" />
      <use
         id="use379"
         x="519.36469"
         y="325.25"
         width="1026"
         height="344"
         xlink:href="#glyph1-1" />
      <use
         id="use381"
         x="527.91638"
         y="325.25"
         width="1026"
         height="344"
         xlink:href="#glyph1-0" />
      <use
         id="use383"
         x="531.80609"
         y="325.25"
         width="1026"
         height="344"
         xlink:href="#glyph1-4" />
      <use
         id="use385"
         x="541.14392"
         y="325.25"
         width="1026"
         height="344"
         xlink:href="#glyph1-8" />
      <use
         id="use387"
         x="551.25433"
         y="325.25"
         width="1026"
         height="344"
         xlink:href="#glyph1-16" />
      <use
         id="use389"
         x="555.14392"
         y="325.25"
         width="1026"
         height="344"
         xlink:href="#glyph1-17" />
      <use
         id="use391"
         x="560.11371"
         y="325.25"
         width="1026"
         height="344"
         xlink:href="#glyph1-18" />
      <use
         id="use393"
         x="567.11371"
         y="325.25"
         width="1026"
         height="344"
         xlink:href="#glyph1-17" />
    </g>
    <g
       transform="matrix(0.7490105,0,0,0.8304878,-63.746066,126.81768)"
       id="g399"
       style="fill:#000000">
      <use
         id="use401"
         x="642.97498"
         y="325.25"
         width="1026"
         height="344"
         xlink:href="#glyph1-7" />
      <use
         id="use403"
         x="653.86469"
         y="325.25"
         width="1026"
         height="344"
         xlink:href="#glyph1-19" />
      <use
         id="use405"
         x="663.20251"
         y="325.25"
         width="1026"
         height="344"
         xlink:href="#glyph1-16" />
      <use
         id="use407"
         x="667.09222"
         y="325.25"
         width="1026"
         height="344"
         xlink:href="#glyph1-17" />
      <use
         id="use409"
         x="672.06189"
         y="325.25"
         width="1026"
         height="344"
         xlink:href="#glyph1-20" />
      <use
         id="use411"
         x="680.23767"
         y="325.25"
         width="1026"
         height="344"
         xlink:href="#glyph1-17" />
    </g>
    <g
       transform="matrix(0.7490105,0,0,0.8304878,-63.746066,126.81768)"
       id="g417"
       style="fill:#000000">
      <use
         id="use419"
         x="747.40002"
         y="325.25"
         width="1026"
         height="344"
         xlink:href="#glyph1-15" />
      <use
         id="use421"
         x="757.51031"
         y="325.25"
         width="1026"
         height="344"
         xlink:href="#glyph1-21" />
      <use
         id="use423"
         x="767.62067"
         y="325.25"
         width="1026"
         height="344"
         xlink:href="#glyph1-22" />
      <use
         id="use425"
         x="779.28278"
         y="325.25"
         width="1026"
         height="344"
         xlink:href="#glyph1-10" />
      <use
         id="use427"
         x="788.62067"
         y="325.25"
         width="1026"
         height="344"
         xlink:href="#glyph1-4" />
      <use
         id="use429"
         x="797.95862"
         y="325.25"
         width="1026"
         height="344"
         xlink:href="#glyph1-8" />
      <use
         id="use431"
         x="808.06891"
         y="325.25"
         width="1026"
         height="344"
         xlink:href="#glyph1-16" />
      <use
         id="use433"
         x="811.95862"
         y="325.25"
         width="1026"
         height="344"
         xlink:href="#glyph1-17" />
      <use
         id="use435"
         x="816.92828"
         y="325.25"
         width="1026"
         height="344"
         xlink:href="#glyph1-23" />
      <use
         id="use437"
         x="824.71442"
         y="325.25"
         width="1026"
         height="344"
         xlink:href="#glyph1-24" />
      <use
         id="use439"
         x="828.60406"
         y="325.25"
         width="1026"
         height="344"
         xlink:href="#glyph1-25" />
      <use
         id="use441"
         x="836.3902"
         y="325.25"
         width="1026"
         height="344"
         xlink:href="#glyph1-17" />
    </g>
    <g
       transform="matrix(0.7490105,0,0,0.8304878,-63.746066,126.81768)"
       id="g447"
       style="fill:#000000">
      <use
         id="use449"
         x="886.09998"
         y="325.25"
         width="1026"
         height="344"
         xlink:href="#glyph1-10" />
      <use
         id="use451"
         x="895.43793"
         y="325.25"
         width="1026"
         height="344"
         xlink:href="#glyph1-8" />
      <use
         id="use453"
         x="905.54822"
         y="325.25"
         width="1026"
         height="344"
         xlink:href="#glyph1-11" />
      <use
         id="use455"
         x="914.88617"
         y="325.25"
         width="1026"
         height="344"
         xlink:href="#glyph1-12" />
      <use
         id="use457"
         x="924.99646"
         y="325.25"
         width="1026"
         height="344"
         xlink:href="#glyph1-3" />
      <use
         id="use459"
         x="934.33435"
         y="325.25"
         width="1026"
         height="344"
         xlink:href="#glyph1-4" />
      <use
         id="use461"
         x="943.6723"
         y="325.25"
         width="1026"
         height="344"
         xlink:href="#glyph1-13" />
      <use
         id="use463"
         x="952.22406"
         y="325.25"
         width="1026"
         height="344"
         xlink:href="#glyph1-2" />
      <use
         id="use465"
         x="956.88617"
         y="325.25"
         width="1026"
         height="344"
         xlink:href="#glyph1-8" />
    </g>
    <g
       transform="matrix(0.7490105,0,0,0.8304878,-51.686706,140.48497)"
       id="g477"
       style="fill:#000000">
      <use
         id="use479"
         x="444.89999"
         y="149.5"
         width="1026"
         height="344"
         xlink:href="#glyph2-0" />
      <use
         id="use481"
         x="449.25311"
         y="149.5"
         width="1026"
         height="344"
         xlink:href="#glyph2-1" />
      <use
         id="use483"
         x="460.15021"
         y="149.5"
         width="1026"
         height="344"
         xlink:href="#glyph2-2" />
      <use
         id="use485"
         x="469.94708"
         y="149.5"
         width="1026"
         height="344"
         xlink:href="#glyph2-3" />
      <use
         id="use487"
         x="474.30017"
         y="149.5"
         width="1026"
         height="344"
         xlink:href="#glyph2-4" />
      <use
         id="use489"
         x="484.09705"
         y="149.5"
         width="1026"
         height="344"
         xlink:href="#glyph2-5" />
      <use
         id="use491"
         x="494.99417"
         y="149.5"
         width="1026"
         height="344"
         xlink:href="#glyph2-0" />
      <use
         id="use493"
         x="499.34729"
         y="149.5"
         width="1026"
         height="344"
         xlink:href="#glyph2-6" />
      <use
         id="use495"
         x="504.79105"
         y="149.5"
         width="1026"
         height="344"
         xlink:href="#glyph2-5" />
      <use
         id="use497"
         x="515.68817"
         y="149.5"
         width="1026"
         height="344"
         xlink:href="#glyph2-7" />
      <use
         id="use499"
         x="526.58527"
         y="149.5"
         width="1026"
         height="344"
         xlink:href="#glyph2-5" />
      <use
         id="use501"
         x="537.48236"
         y="149.5"
         width="1026"
         height="344"
         xlink:href="#glyph2-0" />
      <use
         id="use503"
         x="541.83551"
         y="149.5"
         width="1026"
         height="344"
         xlink:href="#glyph2-8" />
      <use
         id="use505"
         x="551.63239"
         y="149.5"
         width="1026"
         height="344"
         xlink:href="#glyph2-9" />
      <use
         id="use507"
         x="561.42926"
         y="149.5"
         width="1026"
         height="344"
         xlink:href="#glyph2-1" />
      <use
         id="use509"
         x="572.32635"
         y="149.5"
         width="1026"
         height="344"
         xlink:href="#glyph2-10" />
    </g>
    <g
       transform="matrix(0.7490105,0,0,0.8304878,-63.746066,126.81768)"
       id="g567"
       style="fill:#000000">
      <use
         id="use569"
         x="994.90002"
         y="321"
         width="1026"
         height="344"
         xlink:href="#glyph4-0" />
      <use
         id="use571"
         x="1004.9781"
         y="321"
         width="1026"
         height="344"
         xlink:href="#glyph4-0" />
      <use
         id="use573"
         x="1015.0562"
         y="321"
         width="1026"
         height="344"
         xlink:href="#glyph4-0" />
    </g>
    <path
       d="M 317.79987,310.35547 L 317.79987,334.43962 L 306.93922,334.43962 L 328.66052,358.52376 L 350.38182,334.43962 L 339.52117,334.43962 L 339.52117,310.35547 L 317.79987,310.35547 z"
       id="path575"
       style="fill:#ffffff;fill-rule:nonzero;stroke:none" />
    <path
       d="M 317.79989,310.35547 L 317.79989,334.43962 L 306.93922,334.43962 L 328.66054,358.52376 L 350.38184,334.43962 L 339.52119,334.43962 L 339.52119,310.35547 L 317.79989,310.35547 z"
       id="path577"
       style="fill:none;stroke:#000000;stroke-width:1.57739532;stroke-linecap:butt;stroke-linejoin:miter;stroke-miterlimit:10" />
    <path
       d="M 317.79989,310.35547 L 317.79989,334.43962 L 306.93922,334.43962 L 328.66054,358.52376 L 350.38184,334.43962 L 339.52119,334.43962 L 339.52119,310.35547 L 317.79989,310.35547 z"
       id="path579"
       style="fill:none;stroke:#000000;stroke-width:0.15773952;stroke-linecap:butt;stroke-linejoin:miter;stroke-miterlimit:10" />
    <path
       d="M 317.79987,160.86768 L 317.79987,184.95182 L 306.93922,184.95182 L 328.66052,209.03597 L 350.38182,184.95182 L 339.52117,184.95182 L 339.52117,160.86768 L 317.79987,160.86768 z"
       id="path581"
       style="fill:#ffffff;fill-rule:nonzero;stroke:none" />
    <path
       d="M 317.79989,160.86768 L 317.79989,184.95182 L 306.93922,184.95182 L 328.66054,209.03597 L 350.38184,184.95182 L 339.52119,184.95182 L 339.52119,160.86768 L 317.79989,160.86768 z"
       id="path583"
       style="fill:none;stroke:#000000;stroke-width:1.57739532;stroke-linecap:butt;stroke-linejoin:miter;stroke-miterlimit:10" />
    <path
       d="M 317.79989,160.86768 L 317.79989,184.95182 L 306.93922,184.95182 L 328.66054,209.03597 L 350.38184,184.95182 L 339.52119,184.95182 L 339.52119,160.86768 L 317.79989,160.86768 z"
       id="path585"
       style="fill:none;stroke:#000000;stroke-width:0.15773952;stroke-linecap:butt;stroke-linejoin:miter;stroke-miterlimit:10" />
    <path
       d="M 374.98193,195.41455 C 374.3081,195.6538 373.66113,195.83447 373.04101,195.95654 C 372.42089,196.07861 371.83251,196.13964 371.27588,196.13964 C 369.80615,196.13964 368.63183,195.73681 367.75293,194.93115 C 366.87403,194.12548 366.43456,193.05859 366.43456,191.73046 C 366.43456,190.85644 366.57373,190.03369 366.85205,189.2622 C 367.13036,188.48584 367.54053,187.77783 368.08251,187.13818 C 368.72216,186.38623 369.4912,185.80762 370.38965,185.40234 C 371.29296,184.99708 372.26464,184.79444 373.30469,184.79443 C 373.87109,184.79444 374.43993,184.8628 375.01123,184.99951 C 375.58251,185.13135 376.16356,185.33399 376.75439,185.60742 L 376.30029,187.8706 C 375.83153,187.51416 375.36034,187.25293 374.88671,187.08691 C 374.41308,186.9209 373.90526,186.83789 373.36328,186.83788 C 372.23534,186.83789 371.29053,187.27246 370.5288,188.1416 C 369.76709,189.01074 369.38623,190.09717 369.38623,191.40087 C 369.38623,192.24072 369.6206,192.8999 370.08935,193.37841 C 370.5581,193.85693 371.20508,194.09619 372.03028,194.09619 C 372.52343,194.09619 373.04589,194.0083 373.59765,193.83251 C 374.15429,193.65185 374.77684,193.37109 375.46533,192.99023 L 374.98193,195.41455 M 386.58349,190.93212 L 385.60938,195.92724 L 382.97998,195.92724 L 383.80761,191.6499 C 383.8662,191.37158 383.91015,191.13721 383.93945,190.94677 C 383.97363,190.75146 383.99071,190.59766 383.99073,190.48535 C 383.99071,190.17285 383.90283,189.93115 383.72705,189.76025 C 383.55614,189.58936 383.312,189.50391 382.99463,189.5039 C 382.45263,189.50391 381.98633,189.71631 381.5957,190.14111 C 381.20995,190.56103 380.9414,191.14453 380.79004,191.8916 L 379.99903,195.92724 L 377.36963,195.92724 L 379.58154,184.53076 L 382.21826,184.53076 L 381.36133,188.92529 C 381.84471,188.45166 382.33056,188.1001 382.81885,187.8706 C 383.30713,187.64112 383.81738,187.52637 384.34961,187.52636 C 385.10644,187.52637 385.68993,187.72412 386.1001,188.11962 C 386.51024,188.51514 386.71533,189.07178 386.71533,189.78954 C 386.71533,189.9458 386.70311,190.11914 386.67871,190.30956 C 386.65916,190.5 386.62743,190.70752 386.58349,190.93212 M 392.53809,192.23583 C 391.88379,192.23584 391.38818,192.33838 391.05126,192.54345 C 390.71924,192.74365 390.55321,193.0415 390.55323,193.43701 C 390.55321,193.73486 390.65088,193.96923 390.84619,194.14013 C 391.04638,194.31103 391.31981,194.39648 391.6665,194.39648 C 392.2036,194.39648 392.65283,194.23535 393.01416,193.91308 C 393.37548,193.58593 393.61718,193.12695 393.73925,192.53613 L 393.79785,192.23583 L 392.53809,192.23583 M 396.63233,191.24706 L 395.71679,195.92724 L 393.09473,195.92724 L 393.31445,194.71142 C 392.88476,195.1997 392.43065,195.56103 391.95215,195.7954 C 391.47363,196.0249 390.95361,196.13964 390.39209,196.13964 C 389.61571,196.13964 388.99804,195.93945 388.53906,195.53906 C 388.08496,195.13378 387.85791,194.58935 387.85791,193.90576 C 387.85791,192.86084 388.26074,192.0625 389.0664,191.51074 C 389.87695,190.9541 391.04394,190.67578 392.56738,190.67578 L 394.11279,190.67578 L 394.14209,190.4707 C 394.15673,190.40234 394.16405,190.35352 394.16406,190.32421 C 394.16894,190.29492 394.17138,190.26807 394.17139,190.24365 C 394.17138,189.92139 394.01756,189.67969 393.70996,189.51855 C 393.40721,189.35254 392.95556,189.26953 392.35498,189.26953 C 391.81298,189.26953 391.28808,189.32568 390.78028,189.43798 C 390.27245,189.55029 389.78174,189.71875 389.3081,189.94335 L 389.70361,187.94384 C 390.25049,187.80713 390.80956,187.70459 391.38086,187.63622 C 391.95703,187.56299 392.55273,187.52637 393.16796,187.52636 C 394.38378,187.52637 395.2871,187.73633 395.87793,188.15624 C 396.46874,188.57129 396.76415,189.20606 396.76416,190.06054 C 396.76415,190.22656 396.75194,190.40967 396.72754,190.60986 C 396.708,190.80518 396.67626,191.01758 396.63233,191.24706 M 405.45068,189.958 C 405.27001,189.85547 405.06981,189.77734 404.8501,189.72363 C 404.63036,189.66992 404.39355,189.64307 404.13965,189.64306 C 403.4707,189.64307 402.91405,189.85791 402.46973,190.28759 C 402.03026,190.71728 401.73241,191.3374 401.57616,192.14794 L 400.8291,195.92724 L 398.1997,195.92724 L 399.79639,187.72412 L 402.4331,187.72412 L 402.14746,189.13037 C 402.49414,188.61279 402.92626,188.21729 403.44385,187.94384 C 403.9663,187.66553 404.54491,187.52637 405.17969,187.52636 C 405.27245,187.52637 405.37743,187.53125 405.49463,187.54101 C 405.6118,187.55078 405.75096,187.56543 405.91211,187.58496 L 405.45068,189.958 M 410.08691,192.23583 C 409.43261,192.23584 408.937,192.33838 408.6001,192.54345 C 408.26806,192.74365 408.10205,193.0415 408.10205,193.43701 C 408.10205,193.73486 408.1997,193.96923 408.39501,194.14013 C 408.59521,194.31103 408.86865,194.39648 409.21533,194.39648 C 409.75244,194.39648 410.20165,194.23535 410.56299,193.91308 C 410.92431,193.58593 411.16601,193.12695 411.28809,192.53613 L 411.34668,192.23583 L 410.08691,192.23583 M 414.18115,191.24706 L 413.26563,195.92724 L 410.64355,195.92724 L 410.86328,194.71142 C 410.43359,195.1997 409.97949,195.56103 409.50098,195.7954 C 409.02245,196.0249 408.50244,196.13964 407.94091,196.13964 C 407.16455,196.13964 406.54688,195.93945 406.08789,195.53906 C 405.63379,195.13378 405.40674,194.58935 405.40674,193.90576 C 405.40674,192.86084 405.80956,192.0625 406.61524,191.51074 C 407.42578,190.9541 408.59276,190.67578 410.11621,190.67578 L 411.66161,190.67578 L 411.69091,190.4707 C 411.70556,190.40234 411.71288,190.35352 411.71289,190.32421 C 411.71776,190.29492 411.7202,190.26807 411.72021,190.24365 C 411.7202,189.92139 411.5664,189.67969 411.25879,189.51855 C 410.95605,189.35254 410.50439,189.26953 409.9038,189.26953 C 409.36181,189.26953 408.83691,189.32568 408.3291,189.43798 C 407.82129,189.55029 407.33056,189.71875 406.85693,189.94335 L 407.25244,187.94384 C 407.79931,187.80713 408.35839,187.70459 408.92969,187.63622 C 409.50585,187.56299 410.10155,187.52637 410.71679,187.52636 C 411.93261,187.52637 412.83593,187.73633 413.42675,188.15624 C 414.01756,188.57129 414.31298,189.20606 414.31299,190.06054 C 414.31298,190.22656 414.30078,190.40967 414.27636,190.60986 C 414.25683,190.80518 414.22509,191.01758 414.18115,191.24706 M 424.00293,187.98046 L 423.58545,190.11913 C 423.23388,189.88477 422.8872,189.70654 422.54541,189.58447 C 422.2036,189.4624 421.86913,189.40137 421.54199,189.40136 C 420.68749,189.40137 419.98925,189.68945 419.44726,190.26562 C 418.90526,190.83691 418.63428,191.56933 418.63428,192.46288 C 418.63428,193.03418 418.80273,193.47851 419.13965,193.79589 C 419.47655,194.10839 419.95263,194.26464 420.56786,194.26464 C 420.97801,194.26464 421.38085,194.20361 421.77636,194.08154 C 422.17186,193.95947 422.54784,193.7788 422.90429,193.53954 L 422.50146,195.68554 C 422.06689,195.83691 421.62988,195.94921 421.19043,196.02246 C 420.75096,196.10058 420.30908,196.13964 419.86474,196.13964 C 418.57568,196.13964 417.58203,195.85156 416.88379,195.27539 C 416.19043,194.69433 415.84375,193.87158 415.84375,192.80712 C 415.84375,192.13818 415.9707,191.48877 416.22461,190.85888 C 416.4834,190.229 416.85205,189.6626 417.33056,189.15966 C 417.86279,188.60791 418.47314,188.19776 419.16161,187.92919 C 419.85009,187.66065 420.64355,187.52637 421.54199,187.52636 C 421.95703,187.52637 422.36961,187.56543 422.77979,187.64355 C 423.18993,187.7168 423.59765,187.8291 424.00293,187.98046 M 429.5913,185.39501 L 429.14453,187.72412 L 431.82519,187.72412 L 431.45166,189.59912 L 428.77099,189.59912 L 428.09716,193.07079 C 428.07763,193.14892 428.06299,193.21484 428.05323,193.26855 C 428.04834,193.32226 428.04589,193.37353 428.0459,193.42236 C 428.04589,193.64697 428.11914,193.8081 428.26563,193.90576 C 428.41699,194.00341 428.66845,194.05224 429.02001,194.05224 L 430.375,194.05224 L 430.00146,195.92724 L 427.79688,195.92724 C 427.00585,195.92724 426.40283,195.76123 425.98779,195.42919 C 425.57275,195.09716 425.36523,194.61865 425.36524,193.99365 C 425.36523,193.85693 425.37255,193.71045 425.3872,193.55419 C 425.40185,193.39795 425.42383,193.23925 425.45313,193.07812 L 426.12695,189.59912 L 424.83789,189.59912 L 425.19678,187.72412 L 426.50049,187.72412 L 426.95459,185.39501 L 429.5913,185.39501 M 440.80469,192.13329 L 440.71679,192.55078 L 434.5791,192.55078 C 434.5791,192.58008 434.57665,192.62402 434.57178,192.68261 C 434.56689,192.73633 434.56445,192.77783 434.56445,192.80712 C 434.56445,193.33935 434.72314,193.7373 435.04053,194.00097 C 435.36279,194.26464 435.84374,194.39648 436.4834,194.39648 C 437.03515,194.39648 437.6162,194.31347 438.22656,194.14746 C 438.84179,193.98144 439.48631,193.73486 440.16015,193.40771 L 439.75733,195.44384 C 439.11766,195.67822 438.48046,195.85156 437.8457,195.96386 C 437.21581,196.08105 436.57373,196.13964 435.91943,196.13964 C 434.64013,196.13964 433.65136,195.84423 432.95313,195.25341 C 432.25976,194.66259 431.91309,193.82763 431.91309,192.74853 C 431.91309,192.12353 432.02295,191.51806 432.24268,190.93212 C 432.46728,190.34131 432.79199,189.80176 433.21679,189.31347 C 433.71973,188.72754 434.32031,188.2832 435.01855,187.98046 C 435.72168,187.67774 436.50048,187.52637 437.35498,187.52636 C 438.46336,187.52637 439.34228,187.82178 439.9917,188.41259 C 440.64599,189.00342 440.97314,189.79932 440.97314,190.80029 C 440.97314,190.9956 440.95849,191.20312 440.9292,191.42285 C 440.90478,191.63769 440.86326,191.87451 440.80469,192.13329 M 438.3291,190.93212 C 438.34374,190.86865 438.3535,190.80518 438.3584,190.74169 C 438.36815,190.67334 438.37304,190.60742 438.37304,190.54394 C 438.37304,190.15332 438.25585,189.84326 438.02149,189.61376 C 437.7871,189.38428 437.46971,189.26953 437.06934,189.26953 C 436.55664,189.26953 436.11963,189.41113 435.7583,189.69433 C 435.40185,189.97266 435.12841,190.38525 434.93799,190.93212 L 438.3291,190.93212 M 449.24951,189.958 C 449.06884,189.85547 448.86864,189.77734 448.64893,189.72363 C 448.42919,189.66992 448.19238,189.64307 447.93848,189.64306 C 447.26953,189.64307 446.71289,189.85791 446.26855,190.28759 C 445.8291,190.71728 445.53124,191.3374 445.375,192.14794 L 444.62793,195.92724 L 441.99854,195.92724 L 443.59521,187.72412 L 446.23193,187.72412 L 445.94629,189.13037 C 446.29296,188.61279 446.72509,188.21729 447.24268,187.94384 C 447.76513,187.66553 448.34374,187.52637 448.97851,187.52636 C 449.07128,187.52637 449.17626,187.53125 449.29345,187.54101 C 449.41064,187.55078 449.54979,187.56543 449.71094,187.58496 L 449.24951,189.958 M 464.13965,185.33642 L 463.68554,187.65087 C 463.13378,187.37744 462.58935,187.17481 462.05224,187.04296 C 461.51513,186.90625 460.99023,186.83789 460.47754,186.83788 C 459.7744,186.83789 459.22509,186.94776 458.82959,187.16747 C 458.43896,187.38721 458.24365,187.69239 458.24365,188.083 C 458.24365,188.33203 458.3291,188.52735 458.5,188.66894 C 458.67578,188.80567 459.03466,188.93994 459.57666,189.07177 L 460.73389,189.35742 C 461.70068,189.60156 462.40868,189.95557 462.85791,190.41943 C 463.312,190.87842 463.53905,191.47412 463.53906,192.20654 C 463.53905,193.39306 463.08739,194.34521 462.18408,195.06298 C 461.28564,195.78076 460.07714,196.13964 458.55859,196.13964 C 457.85058,196.13964 457.14501,196.07372 456.44189,195.94189 C 455.74365,195.81005 455.06005,195.61474 454.39111,195.35595 L 454.83789,192.97558 C 455.4873,193.35156 456.11719,193.63232 456.72754,193.81787 C 457.34276,194.00341 457.94824,194.09619 458.54394,194.09619 C 459.18846,194.09619 459.71093,193.96435 460.11133,193.70068 C 460.51659,193.43701 460.71923,193.10009 460.71924,192.68994 C 460.71923,192.42138 460.6289,192.21387 460.44824,192.06738 C 460.26758,191.91601 459.87206,191.76221 459.26171,191.60595 L 458.11181,191.32031 C 457.2622,191.11035 456.62988,190.77832 456.21484,190.32421 C 455.7998,189.87012 455.59228,189.28174 455.59229,188.55908 C 455.59228,187.42139 456.02685,186.51075 456.89599,185.82714 C 457.77001,185.13868 458.94433,184.79444 460.41894,184.79443 C 461.00975,184.79444 461.61523,184.84083 462.23535,184.93359 C 462.86034,185.02149 463.4951,185.15577 464.13965,185.33642 M 470.37255,185.39501 L 469.92578,187.72412 L 472.60644,187.72412 L 472.23291,189.59912 L 469.55224,189.59912 L 468.87841,193.07079 C 468.85888,193.14892 468.84424,193.21484 468.83448,193.26855 C 468.82959,193.32226 468.82714,193.37353 468.82715,193.42236 C 468.82714,193.64697 468.90039,193.8081 469.04688,193.90576 C 469.19824,194.00341 469.4497,194.05224 469.80126,194.05224 L 471.15625,194.05224 L 470.78271,195.92724 L 468.57813,195.92724 C 467.7871,195.92724 467.18408,195.76123 466.76904,195.42919 C 466.354,195.09716 466.14648,194.61865 466.14649,193.99365 C 466.14648,193.85693 466.1538,193.71045 466.16845,193.55419 C 466.1831,193.39795 466.20508,193.23925 466.23438,193.07812 L 466.9082,189.59912 L 465.61914,189.59912 L 465.97803,187.72412 L 467.28174,187.72412 L 467.73584,185.39501 L 470.37255,185.39501 M 479.86474,189.958 C 479.68408,189.85547 479.48388,189.77734 479.26416,189.72363 C 479.04443,189.66992 478.80761,189.64307 478.55371,189.64306 C 477.88476,189.64307 477.32811,189.85791 476.88379,190.28759 C 476.44433,190.71728 476.14648,191.3374 475.99024,192.14794 L 475.24316,195.92724 L 472.61376,195.92724 L 474.21045,187.72412 L 476.84716,187.72412 L 476.56153,189.13037 C 476.9082,188.61279 477.34033,188.21729 477.85791,187.94384 C 478.38036,187.66553 478.95898,187.52637 479.59375,187.52636 C 479.68651,187.52637 479.79149,187.53125 479.90869,187.54101 C 480.02586,187.55078 480.16503,187.56543 480.32616,187.58496 L 479.86474,189.958 M 488.99804,192.13329 L 488.91015,192.55078 L 482.77246,192.55078 C 482.77245,192.58008 482.77001,192.62402 482.76514,192.68261 C 482.76025,192.73633 482.7578,192.77783 482.75781,192.80712 C 482.7578,193.33935 482.9165,193.7373 483.23389,194.00097 C 483.55615,194.26464 484.0371,194.39648 484.67675,194.39648 C 485.22851,194.39648 485.80956,194.31347 486.41991,194.14746 C 487.03515,193.98144 487.67968,193.73486 488.35351,193.40771 L 487.95068,195.44384 C 487.31103,195.67822 486.67381,195.85156 486.03906,195.96386 C 485.40918,196.08105 484.76709,196.13964 484.11279,196.13964 C 482.83349,196.13964 481.84473,195.84423 481.14649,195.25341 C 480.45313,194.66259 480.10644,193.82763 480.10644,192.74853 C 480.10644,192.12353 480.2163,191.51806 480.43604,190.93212 C 480.66064,190.34131 480.98535,189.80176 481.41015,189.31347 C 481.91308,188.72754 482.51366,188.2832 483.21191,187.98046 C 483.91504,187.67774 484.69384,187.52637 485.54834,187.52636 C 486.65673,187.52637 487.53564,187.82178 488.18505,188.41259 C 488.83934,189.00342 489.16649,189.79932 489.1665,190.80029 C 489.16649,190.9956 489.15184,191.20312 489.12255,191.42285 C 489.09814,191.63769 489.05663,191.87451 488.99804,192.13329 M 486.52246,190.93212 C 486.5371,190.86865 486.54686,190.80518 486.55175,190.74169 C 486.56151,190.67334 486.5664,190.60742 486.5664,190.54394 C 486.5664,190.15332 486.44921,189.84326 486.21484,189.61376 C 485.98046,189.38428 485.66308,189.26953 485.26269,189.26953 C 484.74999,189.26953 484.31298,189.41113 483.95166,189.69433 C 483.59521,189.97266 483.32178,190.38525 483.13135,190.93212 L 486.52246,190.93212 M 494.66699,192.23583 C 494.01269,192.23584 493.51709,192.33838 493.18018,192.54345 C 492.84814,192.74365 492.68213,193.0415 492.68213,193.43701 C 492.68213,193.73486 492.77978,193.96923 492.9751,194.14013 C 493.17529,194.31103 493.44873,194.39648 493.79541,194.39648 C 494.33251,194.39648 494.78173,194.23535 495.14306,193.91308 C 495.50439,193.58593 495.74609,193.12695 495.86816,192.53613 L 495.92675,192.23583 L 494.66699,192.23583 M 498.76123,191.24706 L 497.8457,195.92724 L 495.22363,195.92724 L 495.44336,194.71142 C 495.01366,195.1997 494.55956,195.56103 494.08105,195.7954 C 493.60254,196.0249 493.08251,196.13964 492.52099,196.13964 C 491.74463,196.13964 491.12695,195.93945 490.66796,195.53906 C 490.21386,195.13378 489.98681,194.58935 489.98681,193.90576 C 489.98681,192.86084 490.38965,192.0625 491.19531,191.51074 C 492.00585,190.9541 493.17285,190.67578 494.69629,190.67578 L 496.2417,190.67578 L 496.27099,190.4707 C 496.28564,190.40234 496.29296,190.35352 496.29296,190.32421 C 496.29784,190.29492 496.30029,190.26807 496.30029,190.24365 C 496.30029,189.92139 496.14648,189.67969 495.83886,189.51855 C 495.53613,189.35254 495.08446,189.26953 494.48389,189.26953 C 493.94189,189.26953 493.41699,189.32568 492.90918,189.43798 C 492.40136,189.55029 491.91064,189.71875 491.43701,189.94335 L 491.83251,187.94384 C 492.37939,187.80713 492.93848,187.70459 493.50976,187.63622 C 494.08593,187.56299 494.68164,187.52637 495.29688,187.52636 C 496.51269,187.52637 497.416,187.73633 498.00684,188.15624 C 498.59765,188.57129 498.89305,189.20606 498.89306,190.06054 C 498.89305,190.22656 498.88085,190.40967 498.85644,190.60986 C 498.8369,190.80518 498.80516,191.01758 498.76123,191.24706 M 509.27149,189.08642 C 509.67675,188.5835 510.13573,188.19776 510.64844,187.92919 C 511.166,187.66065 511.70311,187.52637 512.25976,187.52636 C 512.99218,187.52637 513.56834,187.72901 513.98828,188.13427 C 514.41306,188.53467 514.62548,189.08643 514.62549,189.78954 C 514.62548,189.93604 514.61326,190.10449 514.58886,190.29492 C 514.56931,190.48047 514.53758,190.69287 514.49365,190.93212 L 513.51953,195.92724 L 510.87549,195.92724 L 511.70313,191.6499 L 511.7251,191.54003 C 511.85204,190.93457 511.91551,190.54639 511.91553,190.37548 C 511.91551,190.10693 511.83739,189.89453 511.68115,189.73828 C 511.52978,189.58203 511.32225,189.50391 511.05859,189.5039 C 510.55565,189.50391 510.1284,189.71143 509.77685,190.12646 C 509.43016,190.53662 509.18114,191.125 509.02979,191.8916 L 508.23876,195.92724 L 505.59473,195.92724 L 506.43701,191.6499 C 506.51025,191.28369 506.56151,191.00781 506.59081,190.82226 C 506.62011,190.63184 506.63475,190.48291 506.63476,190.37548 C 506.63475,190.10205 506.55908,189.88965 506.40771,189.73828 C 506.25634,189.58203 506.04638,189.50391 505.77783,189.5039 C 505.29443,189.50391 504.86963,189.71875 504.50341,190.14843 C 504.14209,190.57324 503.89061,191.1543 503.74903,191.8916 L 502.958,195.92724 L 500.32861,195.92724 L 501.92529,187.72412 L 504.56201,187.72412 L 504.32031,188.92529 C 504.73046,188.46143 505.16748,188.11231 505.63135,187.87792 C 506.0952,187.64356 506.5786,187.52637 507.08154,187.52636 C 507.64794,187.52637 508.13378,187.67285 508.53906,187.96581 C 508.94433,188.25391 509.18846,188.62744 509.27149,189.08642"
       id="flowRoot2704"
       style="font-size:12px;font-style:oblique;font-variant:normal;font-weight:bold;font-stretch:normal;text-align:start;line-height:125%;writing-mode:lr-tb;text-anchor:start;fill:#000000;fill-opacity:1;stroke:none;stroke-width:1px;stroke-linecap:butt;stroke-linejoin:miter;stroke-opacity:1;font-family:Bitstream Vera Sans;-inkscape-font-specification:Bitstream Vera Sans Bold Oblique" />
    <path
       d="M 367.92137,334.40683 L 377.99949,334.40683 L 377.58202,336.53818 L 373.94921,336.53818 L 372.23533,345.3419 L 369.41552,345.3419 L 371.12938,336.53818 L 367.49657,336.53818 L 367.92137,334.40683 M 380.69481,338.81602 C 380.01609,338.81602 379.45701,339.12365 379.01757,339.73887 C 378.57811,340.35411 378.35838,341.1378 378.35838,342.08995 C 378.35838,342.60752 378.47557,343.00303 378.70994,343.27647 C 378.94921,343.54502 379.29588,343.6793 379.74998,343.6793 C 380.42869,343.6793 380.98777,343.37168 381.42723,342.75645 C 381.86668,342.13633 382.08641,341.34776 382.08641,340.39072 C 382.08641,339.87803 381.96678,339.48741 381.72752,339.21885 C 381.49314,338.9503 381.14891,338.81602 380.69481,338.81602 M 380.90721,336.94102 C 382.12791,336.94102 383.08738,337.25108 383.78563,337.8712 C 384.48386,338.49132 384.83298,339.33605 384.83299,340.40537 C 384.83298,341.0255 384.72312,341.62852 384.50341,342.21446 C 384.28367,342.79551 383.96384,343.32773 383.54393,343.81113 C 383.04588,344.38731 382.45749,344.82187 381.77879,345.11485 C 381.10008,345.40781 380.34324,345.5543 379.50828,345.5543 C 378.30223,345.5543 377.35008,345.24425 376.65184,344.62412 C 375.95848,344.00401 375.61181,343.15928 375.61181,342.08995 C 375.61181,341.47471 375.72411,340.87412 375.94872,340.28818 C 376.17332,339.69737 376.49559,339.15782 376.91552,338.66953 C 377.40379,338.10313 377.98484,337.67345 378.65868,337.38047 C 379.33738,337.08751 380.08689,336.94102 380.90721,336.94102 M 388.05564,333.94541 L 390.69237,333.94541 L 389.49119,340.11973 L 393.02879,337.13877 L 396.11962,337.13877 L 391.35154,340.93272 L 394.81591,345.3419 L 391.82029,345.3419 L 389.16161,341.8043 L 388.47313,345.3419 L 385.84373,345.3419 L 388.05564,333.94541 M 404.27879,341.54795 L 404.19091,341.96543 L 398.05321,341.96543 C 398.05321,341.99473 398.05077,342.03867 398.04588,342.09727 C 398.04099,342.15098 398.03856,342.19248 398.03856,342.22178 C 398.03856,342.75401 398.19724,343.15196 398.51463,343.41562 C 398.83689,343.6793 399.31786,343.81113 399.95751,343.81113 C 400.50926,343.81113 401.09031,343.72813 401.70067,343.56211 C 402.31589,343.3961 402.96043,343.14952 403.63427,342.82236 L 403.23143,344.8585 C 402.59177,345.09287 401.95457,345.26621 401.31981,345.37852 C 400.68992,345.49571 400.04783,345.5543 399.39354,345.5543 C 398.11424,345.5543 397.12547,345.25888 396.42723,344.66807 C 395.73387,344.07725 395.38719,343.24228 395.38719,342.16318 C 395.38719,341.53818 395.49706,340.93272 395.71678,340.34678 C 395.94139,339.75596 396.26609,339.21641 396.69091,338.72812 C 397.19383,338.1422 397.79442,337.69786 398.49266,337.39512 C 399.19578,337.0924 399.97459,336.94102 400.82908,336.94102 C 401.93748,336.94102 402.81638,337.23643 403.46581,337.82725 C 404.12009,338.41807 404.44724,339.21397 404.44726,340.21495 C 404.44724,340.41026 404.43259,340.61778 404.40331,340.8375 C 404.37888,341.05235 404.33738,341.28917 404.27879,341.54795 M 401.80321,340.34678 C 401.81784,340.28331 401.82762,340.21983 401.83251,340.15635 C 401.84227,340.088 401.84714,340.02207 401.84716,339.9586 C 401.84714,339.56797 401.72996,339.25792 401.49559,339.02842 C 401.26121,338.79893 400.94383,338.68418 400.54344,338.68418 C 400.03074,338.68418 399.59373,338.82578 399.23241,339.10898 C 398.87596,339.38731 398.60252,339.79991 398.41209,340.34678 L 401.80321,340.34678 M 414.68651,340.34678 L 413.71239,345.3419 L 411.08299,345.3419 L 411.91063,341.06455 C 411.96922,340.78623 412.01316,340.55186 412.04247,340.36142 C 412.07664,340.16612 412.09373,340.01231 412.09373,339.9 C 412.09373,339.58751 412.00584,339.34581 411.83007,339.17491 C 411.65916,339.00401 411.41502,338.91856 411.09764,338.91856 C 410.55564,338.91856 410.08933,339.13096 409.69872,339.55576 C 409.31297,339.9757 409.04442,340.55918 408.89306,341.30625 L 408.10203,345.3419 L 405.47264,345.3419 L 407.06932,337.13877 L 409.70604,337.13877 L 409.46434,338.33995 C 409.94773,337.86632 410.43357,337.51476 410.92186,337.28526 C 411.41013,337.05577 411.92039,336.94102 412.45262,336.94102 C 413.20944,336.94102 413.79294,337.13878 414.20311,337.53428 C 414.61326,337.9298 414.81833,338.48643 414.81834,339.2042 C 414.81833,339.36046 414.80613,339.5338 414.78172,339.72422 C 414.76218,339.91466 414.73044,340.12217 414.68651,340.34678 M 430.89501,334.75107 L 430.44091,337.06553 C 429.88913,336.7921 429.34471,336.58946 428.80761,336.45762 C 428.27048,336.32091 427.74558,336.25255 427.23289,336.25255 C 426.52977,336.25255 425.98044,336.36241 425.58494,336.58213 C 425.19432,336.80187 424.99901,337.10705 424.99901,337.49766 C 424.99901,337.74668 425.08446,337.942 425.25536,338.0836 C 425.43113,338.22032 425.79002,338.3546 426.33202,338.48642 L 427.48924,338.77207 C 428.45603,339.01622 429.16404,339.37022 429.61327,339.83408 C 430.06736,340.29307 430.29441,340.88877 430.29442,341.6212 C 430.29441,342.80772 429.84274,343.75987 428.93944,344.47763 C 428.04099,345.19541 426.83249,345.5543 425.31394,345.5543 C 424.60594,345.5543 423.90037,345.48838 423.19726,345.35655 C 422.49901,345.22471 421.81542,345.0294 421.14647,344.77061 L 421.59324,342.39023 C 422.24266,342.76622 422.87254,343.04697 423.48289,343.23252 C 424.09813,343.41807 424.70359,343.51085 425.29931,343.51085 C 425.94383,343.51085 426.46629,343.37901 426.86668,343.11533 C 427.27196,342.85166 427.47459,342.51475 427.47459,342.1046 C 427.47459,341.83605 427.38426,341.62852 427.20359,341.48203 C 427.02293,341.33067 426.62742,341.17686 426.01707,341.02061 L 424.86717,340.73496 C 424.01756,340.52501 423.38523,340.19297 422.97019,339.73887 C 422.55516,339.28477 422.34764,338.6964 422.34764,337.97373 C 422.34764,336.83605 422.78221,335.9254 423.65136,335.2418 C 424.52537,334.55333 425.69968,334.2091 427.17431,334.20908 C 427.76512,334.2091 428.37058,334.25548 428.99071,334.34825 C 429.61569,334.43615 430.25047,334.57042 430.89501,334.75107 M 437.12792,334.80967 L 436.68114,337.13877 L 439.36181,337.13877 L 438.98827,339.01377 L 436.30761,339.01377 L 435.63377,342.48545 C 435.61424,342.56358 435.59959,342.6295 435.58983,342.68321 C 435.58494,342.73692 435.58251,342.78818 435.58251,342.83701 C 435.58251,343.06162 435.65574,343.22276 435.80223,343.32041 C 435.95359,343.41807 436.20506,343.4669 436.55663,343.4669 L 437.91161,343.4669 L 437.53807,345.3419 L 435.33348,345.3419 C 434.54247,345.3419 433.93943,345.17588 433.52439,344.84385 C 433.10936,344.51182 432.90184,344.03331 432.90184,343.4083 C 432.90184,343.27158 432.90917,343.1251 432.92382,342.96885 C 432.93846,342.8126 432.96043,342.65391 432.98973,342.49277 L 433.66356,339.01377 L 432.37449,339.01377 L 432.73338,337.13877 L 434.03709,337.13877 L 434.49119,334.80967 L 437.12792,334.80967 M 446.62011,339.37266 C 446.43943,339.27012 446.23923,339.192 446.01952,339.13828 C 445.79978,339.08458 445.56297,339.05772 445.30907,339.05772 C 444.64012,339.05772 444.08348,339.27257 443.63914,339.70225 C 443.19969,340.13195 442.90183,340.75206 442.74559,341.5626 L 441.99852,345.3419 L 439.36913,345.3419 L 440.96581,337.13877 L 443.60252,337.13877 L 443.31688,338.54502 C 443.66356,338.02745 444.09568,337.63195 444.61327,337.3585 C 445.13572,337.08018 445.71433,336.94102 446.34911,336.94102 C 446.44187,336.94102 446.54686,336.94591 446.66404,336.95567 C 446.78123,336.96543 446.92038,336.98008 447.08153,336.99961 L 446.62011,339.37266 M 455.75341,341.54795 L 455.66552,341.96543 L 449.52782,341.96543 C 449.52782,341.99473 449.52537,342.03867 449.52049,342.09727 C 449.51561,342.15098 449.51317,342.19248 449.51317,342.22178 C 449.51317,342.75401 449.67186,343.15196 449.98924,343.41562 C 450.31151,343.6793 450.79246,343.81113 451.43212,343.81113 C 451.98387,343.81113 452.56492,343.72813 453.17528,343.56211 C 453.79051,343.3961 454.43503,343.14952 455.10887,342.82236 L 454.70604,344.8585 C 454.06638,345.09287 453.42918,345.26621 452.79442,345.37852 C 452.16453,345.49571 451.52244,345.5543 450.86814,345.5543 C 449.58884,345.5543 448.60008,345.25888 447.90184,344.66807 C 447.20848,344.07725 446.86181,343.24228 446.86181,342.16318 C 446.86181,341.53818 446.97167,340.93272 447.19139,340.34678 C 447.41599,339.75596 447.74071,339.21641 448.16552,338.72812 C 448.66844,338.1422 449.26903,337.69786 449.96727,337.39512 C 450.67039,337.0924 451.44919,336.94102 452.30369,336.94102 C 453.41208,336.94102 454.29099,337.23643 454.94042,337.82725 C 455.59471,338.41807 455.92186,339.21397 455.92186,340.21495 C 455.92186,340.41026 455.90721,340.61778 455.87792,340.8375 C 455.85349,341.05235 455.81198,341.28917 455.75341,341.54795 M 453.27782,340.34678 C 453.29246,340.28331 453.30222,340.21983 453.30712,340.15635 C 453.31687,340.088 453.32176,340.02207 453.32177,339.9586 C 453.32176,339.56797 453.20457,339.25792 452.97019,339.02842 C 452.73582,338.79893 452.41843,338.68418 452.01806,338.68418 C 451.50536,338.68418 451.06834,338.82578 450.70702,339.10898 C 450.35057,339.38731 450.07713,339.79991 449.88671,340.34678 L 453.27782,340.34678 M 461.42234,341.65048 C 460.76804,341.6505 460.27244,341.75303 459.93553,341.95811 C 459.60349,342.15831 459.43748,342.45616 459.43748,342.85166 C 459.43748,343.14952 459.53514,343.3839 459.73046,343.55478 C 459.93064,343.72568 460.20408,343.81113 460.55077,343.81113 C 461.08787,343.81113 461.53709,343.65001 461.89842,343.32773 C 462.25974,343.00058 462.50144,342.54161 462.62352,341.95078 L 462.68212,341.65048 L 461.42234,341.65048 M 465.51658,340.66172 L 464.60106,345.3419 L 461.97899,345.3419 L 462.19872,344.12607 C 461.76902,344.61436 461.31492,344.97568 460.83641,345.21006 C 460.35789,345.43955 459.83787,345.5543 459.27636,345.5543 C 458.49998,345.5543 457.88231,345.35411 457.42332,344.95371 C 456.96922,344.54843 456.74217,344.00401 456.74217,343.32041 C 456.74217,342.2755 457.14501,341.47716 457.95067,340.9254 C 458.76122,340.36876 459.92821,340.09043 461.45164,340.09043 L 462.99706,340.09043 L 463.02636,339.88536 C 463.04099,339.817 463.04832,339.76817 463.04832,339.73887 C 463.05321,339.70958 463.05564,339.68272 463.05564,339.6583 C 463.05564,339.33605 462.90183,339.09435 462.59422,338.93321 C 462.29148,338.7672 461.83982,338.68418 461.23924,338.68418 C 460.69724,338.68418 460.17234,338.74035 459.66453,338.85263 C 459.15672,338.96495 458.66599,339.13341 458.19237,339.35801 L 458.58788,337.3585 C 459.13474,337.22178 459.69383,337.11925 460.26512,337.05088 C 460.84129,336.97765 461.43699,336.94102 462.05223,336.94102 C 463.26804,336.94102 464.17137,337.15098 464.76219,337.5709 C 465.35301,337.98595 465.64842,338.62071 465.64842,339.4752 C 465.64842,339.64122 465.63621,339.82432 465.61181,340.02451 C 465.59226,340.21983 465.56052,340.43223 465.51658,340.66172 M 476.02684,338.50107 C 476.43211,337.99816 476.89109,337.61241 477.40379,337.34385 C 477.92136,337.07531 478.45847,336.94102 479.01512,336.94102 C 479.74753,336.94102 480.32371,337.14366 480.74364,337.54892 C 481.16843,337.94932 481.38083,338.50108 481.38084,339.2042 C 481.38083,339.3507 481.36862,339.51915 481.34422,339.70957 C 481.32468,339.89512 481.29294,340.10752 481.24901,340.34678 L 480.27489,345.3419 L 477.63084,345.3419 L 478.45848,341.06455 L 478.48046,340.95468 C 478.60739,340.34922 478.67087,339.96105 478.67088,339.79013 C 478.67087,339.52158 478.59274,339.30918 478.43651,339.15293 C 478.28513,338.99668 478.07761,338.91856 477.81394,338.91856 C 477.31101,338.91856 476.88377,339.12608 476.53221,339.54111 C 476.18552,339.95127 475.93649,340.53966 475.78514,341.30625 L 474.99413,345.3419 L 472.35008,345.3419 L 473.19237,341.06455 C 473.26561,340.69835 473.31687,340.42247 473.34618,340.23692 C 473.37547,340.0465 473.39012,339.89757 473.39012,339.79013 C 473.39012,339.51671 473.31443,339.30431 473.16307,339.15293 C 473.01169,338.99668 472.80173,338.91856 472.53319,338.91856 C 472.04978,338.91856 471.62498,339.13341 471.25877,339.56308 C 470.89744,339.9879 470.64598,340.56895 470.50438,341.30625 L 469.71337,345.3419 L 467.08397,345.3419 L 468.68064,337.13877 L 471.31737,337.13877 L 471.07567,338.33995 C 471.48582,337.87608 471.92283,337.52696 472.38671,337.29258 C 472.85057,337.05821 473.33397,336.94102 473.83689,336.94102 C 474.40329,336.94102 474.88913,337.08751 475.29442,337.38047 C 475.69968,337.66856 475.94382,338.0421 476.02684,338.50107"
       id="flowRoot2712"
       style="font-size:12px;font-style:oblique;font-variant:normal;font-weight:bold;font-stretch:normal;text-align:start;line-height:125%;writing-mode:lr-tb;text-anchor:start;fill:#000000;fill-opacity:1;stroke:none;stroke-width:1px;stroke-linecap:butt;stroke-linejoin:miter;stroke-opacity:1;font-family:Bitstream Vera Sans;-inkscape-font-specification:Bitstream Vera Sans Bold Oblique" />
    <path
       d="M 67.255866,378.54935 L 157.13713,378.54935 L 157.13713,413.42982 L 67.255866,413.42982 L 67.255866,378.54935 z"
       id="path311"
       style="fill:#ffffff;fill-rule:nonzero;stroke:none" />
    <path
       d="M 67.255879,378.54935 L 157.13714,378.54935 L 157.13714,413.42982 L 67.255879,413.42982 L 67.255879,378.54935 z"
       id="path313"
       style="fill:none;stroke:#000000;stroke-width:1.57739532;stroke-linecap:butt;stroke-linejoin:miter;stroke-miterlimit:10" />
    <flowRoot
       transform="translate(-115.15739,-75.016747)"
       id="flowRoot2771"
       xml:space="preserve"
       style="font-size:12px;font-style:normal;font-variant:normal;font-weight:bold;font-stretch:normal;text-align:start;line-height:125%;writing-mode:lr-tb;text-anchor:start;fill:#000000;fill-opacity:1;stroke:none;stroke-width:1px;stroke-linecap:butt;stroke-linejoin:miter;stroke-opacity:1;font-family:Sans;-inkscape-font-specification:Sans Bold"><flowRegion
         id="flowRegion2773"><rect
           width="73.970314"
           height="15.784271"
           x="185.86807"
           y="454.35187"
           id="rect2775"
           style="font-size:12px;font-style:normal;font-variant:normal;font-weight:bold;font-stretch:normal;text-align:start;line-height:125%;writing-mode:lr-tb;text-anchor:start;font-family:Sans;-inkscape-font-specification:Sans Bold" /></flowRegion><flowPara
         id="flowPara2779"
         style="font-size:12px;font-style:normal;font-variant:normal;font-weight:bold;font-stretch:normal;text-align:start;line-height:125%;writing-mode:lr-tb;text-anchor:start;font-family:Sans;-inkscape-font-specification:Sans Bold">KEYWORD</flowPara></flowRoot>    <text
       x="70"
       y="407.33133"
       id="text2823"
       xml:space="preserve"
       style="font-size:12px;font-style:normal;font-variant:normal;font-weight:normal;font-stretch:normal;text-align:start;line-height:125%;writing-mode:lr-tb;text-anchor:start;fill:#000000;fill-opacity:1;stroke:none;stroke-width:1px;stroke-linecap:butt;stroke-linejoin:miter;stroke-opacity:1;font-family:Sans;-inkscape-font-specification:Sans"><tspan
         x="70"
         y="407.33133"
         id="tspan2825">&quot;if&quot;</tspan></text>
    <path
       d="M 67.5,394.47417 L 156.78571,394.47417"
       id="path2827"
       style="fill:none;fill-rule:evenodd;stroke:#000000;stroke-width:1px;stroke-linecap:butt;stroke-linejoin:miter;stroke-opacity:1" />
    <path
       d="M 170.26754,378.54935 L 260.14881,378.54935 L 260.14881,413.42982 L 170.26754,413.42982 L 170.26754,378.54935 z"
       id="path2829"
       style="fill:#ffffff;fill-rule:nonzero;stroke:none" />
    <path
       d="M 170.26756,378.54935 L 260.14882,378.54935 L 260.14882,413.42982 L 170.26756,413.42982 L 170.26756,378.54935 z"
       id="path2831"
       style="fill:none;stroke:#000000;stroke-width:1.57739532;stroke-linecap:butt;stroke-linejoin:miter;stroke-miterlimit:10" />
    <flowRoot
       transform="translate(-12.145711,-75.016754)"
       id="flowRoot2833"
       xml:space="preserve"
       style="font-size:12px;font-style:normal;font-variant:normal;font-weight:bold;font-stretch:normal;text-align:start;line-height:125%;writing-mode:lr-tb;text-anchor:start;fill:#000000;fill-opacity:1;stroke:none;stroke-width:1px;stroke-linecap:butt;stroke-linejoin:miter;stroke-opacity:1;font-family:Sans;-inkscape-font-specification:Sans Bold"><flowRegion
         id="flowRegion2835"><rect
           width="73.970314"
           height="15.784271"
           x="185.86807"
           y="454.35187"
           id="rect2837"
           style="font-size:12px;font-style:normal;font-variant:normal;font-weight:bold;font-stretch:normal;text-align:start;line-height:125%;writing-mode:lr-tb;text-anchor:start;font-family:Sans;-inkscape-font-specification:Sans Bold" /></flowRegion><flowPara
         id="flowPara2839"
         style="font-size:12px;font-style:normal;font-variant:normal;font-weight:bold;font-stretch:normal;text-align:start;line-height:125%;writing-mode:lr-tb;text-anchor:start;font-family:Sans;-inkscape-font-specification:Sans Bold">BRACKET-R</flowPara></flowRoot>    <text
       x="173.01169"
       y="407.33133"
       id="text2841"
       xml:space="preserve"
       style="font-size:12px;font-style:normal;font-variant:normal;font-weight:normal;font-stretch:normal;text-align:start;line-height:125%;writing-mode:lr-tb;text-anchor:start;fill:#000000;fill-opacity:1;stroke:none;stroke-width:1px;stroke-linecap:butt;stroke-linejoin:miter;stroke-opacity:1;font-family:Sans;-inkscape-font-specification:Sans"><tspan
         x="173.01169"
         y="407.33133"
         id="tspan2865">&quot;(&quot;</tspan></text>
    <path
       d="M 170.51168,394.47417 L 259.79739,394.47417"
       id="path2845"
       style="fill:none;fill-rule:evenodd;stroke:#000000;stroke-width:1px;stroke-linecap:butt;stroke-linejoin:miter;stroke-opacity:1" />
    <path
       d="M 273.27919,378.54935 L 363.16046,378.54935 L 363.16046,413.42982 L 273.27919,413.42982 L 273.27919,378.54935 z"
       id="path2847"
       style="fill:#ffffff;fill-rule:nonzero;stroke:none" />
    <path
       d="M 273.27921,378.54935 L 363.16047,378.54935 L 363.16047,413.42982 L 273.27921,413.42982 L 273.27921,378.54935 z"
       id="path2849"
       style="fill:none;stroke:#000000;stroke-width:1.57739532;stroke-linecap:butt;stroke-linejoin:miter;stroke-miterlimit:10" />
    <flowRoot
       transform="translate(90.865942,-75.016753)"
       id="flowRoot2851"
       xml:space="preserve"
       style="font-size:12px;font-style:normal;font-variant:normal;font-weight:bold;font-stretch:normal;text-align:start;line-height:125%;writing-mode:lr-tb;text-anchor:start;fill:#000000;fill-opacity:1;stroke:none;stroke-width:1px;stroke-linecap:butt;stroke-linejoin:miter;stroke-opacity:1;font-family:Sans;-inkscape-font-specification:Sans Bold"><flowRegion
         id="flowRegion2853"><rect
           width="73.970314"
           height="15.784271"
           x="185.86807"
           y="454.35187"
           id="rect2855"
           style="font-size:12px;font-style:normal;font-variant:normal;font-weight:bold;font-stretch:normal;text-align:start;line-height:125%;writing-mode:lr-tb;text-anchor:start;font-family:Sans;-inkscape-font-specification:Sans Bold" /></flowRegion><flowPara
         id="flowPara2857"
         style="font-size:12px;font-style:normal;font-variant:normal;font-weight:bold;font-stretch:normal;text-align:start;line-height:125%;writing-mode:lr-tb;text-anchor:start;font-family:Sans;-inkscape-font-specification:Sans Bold">IDENTIFIER</flowPara></flowRoot>    <text
       x="276.02332"
       y="407.3313"
       id="text2859"
       xml:space="preserve"
       style="font-size:12px;font-style:normal;font-variant:normal;font-weight:normal;font-stretch:normal;text-align:start;line-height:125%;writing-mode:lr-tb;text-anchor:start;fill:#000000;fill-opacity:1;stroke:none;stroke-width:1px;stroke-linecap:butt;stroke-linejoin:miter;stroke-opacity:1;font-family:Sans;-inkscape-font-specification:Sans"><tspan
         x="276.02332"
         y="407.3313"
         id="tspan2861">&quot;x&quot;</tspan></text>
    <path
       d="M 273.52333,394.47417 L 362.80904,394.47417"
       id="path2863"
       style="fill:none;fill-rule:evenodd;stroke:#000000;stroke-width:1px;stroke-linecap:butt;stroke-linejoin:miter;stroke-opacity:1" />
    <path
       d="M 376.29088,378.54935 L 466.17215,378.54935 L 466.17215,413.42982 L 376.29088,413.42982 L 376.29088,378.54935 z"
       id="path2867"
       style="fill:#ffffff;fill-rule:nonzero;stroke:none" />
    <path
       d="M 376.2909,378.54935 L 466.17216,378.54935 L 466.17216,413.42982 L 376.2909,413.42982 L 376.2909,378.54935 z"
       id="path2869"
       style="fill:none;stroke:#000000;stroke-width:1.57739532;stroke-linecap:butt;stroke-linejoin:miter;stroke-miterlimit:10" />
    <flowRoot
       transform="translate(193.87763,-75.016752)"
       id="flowRoot2871"
       xml:space="preserve"
       style="font-size:12px;font-style:normal;font-variant:normal;font-weight:bold;font-stretch:normal;text-align:start;line-height:125%;writing-mode:lr-tb;text-anchor:start;fill:#000000;fill-opacity:1;stroke:none;stroke-width:1px;stroke-linecap:butt;stroke-linejoin:miter;stroke-opacity:1;font-family:Sans;-inkscape-font-specification:Sans Bold"><flowRegion
         id="flowRegion2873"><rect
           width="96.470314"
           height="14.712843"
           x="185.86807"
           y="454.35187"
           id="rect2875"
           style="font-size:12px;font-style:normal;font-variant:normal;font-weight:bold;font-stretch:normal;text-align:start;line-height:125%;writing-mode:lr-tb;text-anchor:start;font-family:Sans;-inkscape-font-specification:Sans Bold" /></flowRegion><flowPara
         id="flowPara2877"
         style="font-size:12px;font-style:normal;font-variant:normal;font-weight:bold;font-stretch:normal;text-align:start;line-height:125%;writing-mode:lr-tb;text-anchor:start;font-family:Sans;-inkscape-font-specification:Sans Bold">OPERATOR</flowPara></flowRoot>    <text
       x="379.03503"
       y="407.3313"
       id="text2879"
       xml:space="preserve"
       style="font-size:12px;font-style:normal;font-variant:normal;font-weight:normal;font-stretch:normal;text-align:start;line-height:125%;writing-mode:lr-tb;text-anchor:start;fill:#000000;fill-opacity:1;stroke:none;stroke-width:1px;stroke-linecap:butt;stroke-linejoin:miter;stroke-opacity:1;font-family:Sans;-inkscape-font-specification:Sans"><tspan
         x="379.03503"
         y="407.3313"
         id="tspan2881">&quot;&gt;&quot;</tspan></text>
    <path
       d="M 376.53502,394.47417 L 465.82073,394.47417"
       id="path2883"
       style="fill:none;fill-rule:evenodd;stroke:#000000;stroke-width:1px;stroke-linecap:butt;stroke-linejoin:miter;stroke-opacity:1" />
    <path
       d="M 479.30257,378.54935 L 569.18384,378.54935 L 569.18384,413.42982 L 479.30257,413.42982 L 479.30257,378.54935 z"
       id="path2885"
       style="fill:#ffffff;fill-rule:nonzero;stroke:none" />
    <path
       d="M 479.30259,378.54935 L 569.18385,378.54935 L 569.18385,413.42982 L 479.30259,413.42982 L 479.30259,378.54935 z"
       id="path2887"
       style="fill:none;stroke:#000000;stroke-width:1.57739532;stroke-linecap:butt;stroke-linejoin:miter;stroke-miterlimit:10" />
    <flowRoot
       transform="translate(296.88932,-75.016758)"
       id="flowRoot2889"
       xml:space="preserve"
       style="font-size:12px;font-style:normal;font-variant:normal;font-weight:bold;font-stretch:normal;text-align:start;line-height:125%;writing-mode:lr-tb;text-anchor:start;fill:#000000;fill-opacity:1;stroke:none;stroke-width:1px;stroke-linecap:butt;stroke-linejoin:miter;stroke-opacity:1;font-family:Sans;-inkscape-font-specification:Sans Bold"><flowRegion
         id="flowRegion2891"><rect
           width="96.470314"
           height="14.712843"
           x="185.86807"
           y="454.35187"
           id="rect2893"
           style="font-size:12px;font-style:normal;font-variant:normal;font-weight:bold;font-stretch:normal;text-align:start;line-height:125%;writing-mode:lr-tb;text-anchor:start;font-family:Sans;-inkscape-font-specification:Sans Bold" /></flowRegion><flowPara
         id="flowPara2895"
         style="font-size:12px;font-style:normal;font-variant:normal;font-weight:bold;font-stretch:normal;text-align:start;line-height:125%;writing-mode:lr-tb;text-anchor:start;font-family:Sans;-inkscape-font-specification:Sans Bold">NUMBER</flowPara></flowRoot>    <text
       x="482.04672"
       y="407.3313"
       id="text2897"
       xml:space="preserve"
       style="font-size:12px;font-style:normal;font-variant:normal;font-weight:normal;font-stretch:normal;text-align:start;line-height:125%;writing-mode:lr-tb;text-anchor:start;fill:#000000;fill-opacity:1;stroke:none;stroke-width:1px;stroke-linecap:butt;stroke-linejoin:miter;stroke-opacity:1;font-family:Sans;-inkscape-font-specification:Sans"><tspan
         x="482.04672"
         y="407.3313"
         id="tspan2899">&quot;3.1&quot;</tspan></text>
    <path
       d="M 479.54671,394.47417 L 568.83242,394.47417"
       id="path2901"
       style="fill:none;fill-rule:evenodd;stroke:#000000;stroke-width:1px;stroke-linecap:butt;stroke-linejoin:miter;stroke-opacity:1" />
    <flowRoot
       transform="translate(-7.6293945e-6,6)"
       id="flowRoot2903"
       xml:space="preserve"
       style="font-size:12px;font-style:normal;font-variant:normal;font-weight:normal;font-stretch:normal;fill:#000000;fill-opacity:1;stroke:none;stroke-width:1px;stroke-linecap:butt;stroke-linejoin:miter;stroke-opacity:1;font-family:Sans;-inkscape-font-specification:Adobe Helvetica"><flowRegion
         id="flowRegion2905"><rect
           width="77.85714"
           height="29.642857"
           x="618.92859"
           y="378.79074"
           id="rect2907" /></flowRegion><flowPara
         id="flowPara2909">. . .</flowPara></flowRoot>    <path
       d="M 241.07143,217.63267 L 440.35715,217.63267 L 440.35715,286.91839"
       id="rect4131"
       style="fill:#ffffff;fill-opacity:1;stroke:#000000;stroke-width:1;stroke-miterlimit:4;stroke-opacity:1" />
    <rect
       width="199.28572"
       height="69.285713"
       x="233.57143"
       y="224.50504"
       id="rect4129"
       style="opacity:1;fill:#ffffff;fill-opacity:1;stroke:#000000;stroke-width:1;stroke-miterlimit:4;stroke-dasharray:none;stroke-opacity:1" />
    <flowRoot
       transform="translate(-9.2857122,-8.5714286)"
       id="flowRoot2911"
       xml:space="preserve"
       style="font-size:18px;font-style:normal;font-variant:normal;font-weight:normal;font-stretch:normal;text-align:center;line-height:125%;writing-mode:lr-tb;text-anchor:middle;fill:#000000;fill-opacity:1;stroke:none;stroke-width:1px;stroke-linecap:butt;stroke-linejoin:miter;stroke-opacity:1;font-family:Sans;-inkscape-font-specification:Sans"><flowRegion
         id="flowRegion2913"><rect
           width="132.85715"
           height="67.14286"
           x="271.42856"
           y="242.36218"
           id="rect2915"
           style="font-size:18px;font-style:normal;font-variant:normal;font-weight:normal;font-stretch:normal;text-align:center;line-height:125%;writing-mode:lr-tb;text-anchor:middle;font-family:Sans;-inkscape-font-specification:Sans" /></flowRegion><flowPara
         id="flowPara2917">Lexical</flowPara><flowPara
         id="flowPara2919">Analyzer</flowPara></flowRoot>    <flowRoot
       transform="translate(21.025021,15.477891)"
       id="flowRoot2932"
       xml:space="preserve"
       style="font-size:24px;font-style:normal;font-variant:normal;font-weight:bold;font-stretch:normal;text-align:start;line-height:125%;writing-mode:lr-tb;text-anchor:start;fill:#000000;fill-opacity:1;stroke:none;stroke-width:1px;stroke-linecap:butt;stroke-linejoin:miter;stroke-opacity:1;font-family:Courier;-inkscape-font-specification:Courier Bold"><flowRegion
         id="flowRegion2934"><rect
           width="767.2735"
           height="204.20161"
           x="56.568542"
           y="101.80864"
           id="rect2936"
           style="font-size:24px;font-style:normal;font-variant:normal;font-weight:bold;font-stretch:normal;text-align:start;line-height:125%;writing-mode:lr-tb;text-anchor:start;font-family:Courier;-inkscape-font-specification:Courier Bold" /></flowRegion><flowPara
         id="flowPara2938">if( x &gt; 3.1 ) { printf ...</flowPara></flowRoot>    <path
       d="M 233.56448,224.51199 L 241.43552,217.62573"
       id="path4140"
       style="fill:none;fill-rule:evenodd;stroke:#000000;stroke-width:0.9861083px;stroke-linecap:butt;stroke-linejoin:miter;stroke-opacity:1" />
    <path
       d="M 432.67162,224.51199 L 440.54266,217.62573"
       id="path4142"
       style="fill:none;fill-rule:evenodd;stroke:#000000;stroke-width:0.9861083px;stroke-linecap:butt;stroke-linejoin:miter;stroke-opacity:1" />
    <path
       d="M 432.85019,293.79769 L 440.72123,286.91143"
       id="path4144"
       style="fill:none;fill-rule:evenodd;stroke:#000000;stroke-width:0.9861083px;stroke-linecap:butt;stroke-linejoin:miter;stroke-opacity:1" />
  </g>
</svg>
