<?xml version="1.0" encoding="UTF-8" standalone="no"?>
<!-- Created with Inkscape (http://www.inkscape.org/) -->
<svg
   xmlns:dc="http://purl.org/dc/elements/1.1/"
   xmlns:cc="http://web.resource.org/cc/"
   xmlns:rdf="http://www.w3.org/1999/02/22-rdf-syntax-ns#"
   xmlns:svg="http://www.w3.org/2000/svg"
   xmlns="http://www.w3.org/2000/svg"
   xmlns:sodipodi="http://sodipodi.sourceforge.net/DTD/sodipodi-0.dtd"
   xmlns:inkscape="http://www.inkscape.org/namespaces/inkscape"
   width="744.09448819"
   height="1052.3622047"
   id="svg3149"
   sodipodi:version="0.32"
   inkscape:version="0.45.1"
   sodipodi:docbase="/home/fschaef/prj/quex/trunk/doc/figures"
   sodipodi:docname="quex-logo.svg"
   inkscape:output_extension="org.inkscape.output.svg.inkscape"
   inkscape:export-filename="/home/fschaef/prj/quex/trunk/doc/figures/quex-logo.png"
   inkscape:export-xdpi="172.40784"
   inkscape:export-ydpi="172.40784">
  <defs
     id="defs3151" />
  <sodipodi:namedview
     id="base"
     pagecolor="#ffffff"
     bordercolor="#666666"
     borderopacity="1.0"
     gridtolerance="10000"
     guidetolerance="10"
     objecttolerance="10"
     inkscape:pageopacity="0.0"
     inkscape:pageshadow="2"
     inkscape:zoom="3.959798"
     inkscape:cx="205.27137"
     inkscape:cy="808.13471"
     inkscape:document-units="px"
     inkscape:current-layer="layer1"
     inkscape:window-width="1231"
     inkscape:window-height="776"
     inkscape:window-x="0"
     inkscape:window-y="0" />
  <metadata
     id="metadata3154">
    <rdf:RDF>
      <cc:Work
         rdf:about="">
        <dc:format>image/svg+xml</dc:format>
        <dc:type
           rdf:resource="http://purl.org/dc/dcmitype/StillImage" />
      </cc:Work>
    </rdf:RDF>
  </metadata>
  <g
     inkscape:label="Layer 1"
     inkscape:groupmode="layer"
     id="layer1">
    <rect
       style="opacity:1;fill:#ffffff;fill-opacity:1;fill-rule:nonzero;stroke:#000000;stroke-width:0.98331547;stroke-linejoin:bevel;stroke-miterlimit:4;stroke-dasharray:0.98331544, 1.96663089;stroke-dashoffset:0;stroke-opacity:1"
       id="rect3965"
       width="425.79599"
       height="125.78068"
       x="36.357147"
       y="150.79269"
       inkscape:export-filename="/home/fschaef/prj/quex/trunk/doc/figures/quex-logo.png"
       inkscape:export-xdpi="168.71001"
       inkscape:export-ydpi="168.71001" />
    <path
       style="font-size:72px;font-style:italic;font-variant:normal;font-weight:bold;font-stretch:normal;text-align:start;line-height:125%;writing-mode:lr-tb;text-anchor:start;font-family:Sans"
       d="M 113.07774,237.51347 C 107.59335,236.74003 103.35117,234.54863 100.35118,230.93925 C 97.351173,227.32988 95.851174,222.87676 95.851179,217.57987 C 95.851174,212.11896 97.151954,206.93928 99.753522,202.04081 C 102.37851,197.14241 105.96444,193.28695 110.51134,190.4744 C 115.05819,187.66195 120.06209,186.2557 125.52305,186.25565 C 131.99176,186.2557 137.10113,188.02523 140.85118,191.56424 C 144.60113,195.10335 146.47612,199.83772 146.47618,205.76737 C 146.47612,212.49396 144.47222,218.8338 140.46446,224.78691 C 136.4566,230.74004 131.08942,234.72441 124.3629,236.74003 C 125.81599,239.43534 128.01911,240.783 130.97227,240.783 C 133.62067,240.783 136.17535,240.56034 138.63634,240.11503 L 137.75743,247.95487 C 134.33551,248.7283 131.47614,249.11502 129.1793,249.11503 C 124.98396,249.11502 121.7613,248.21268 119.51134,246.408 C 117.26131,244.62674 115.11678,241.6619 113.07774,237.51347 M 116.87462,229.39237 C 122.12458,229.39238 126.61286,227.1541 130.33946,222.67753 C 134.08942,218.17755 135.96442,212.66974 135.96446,206.15409 C 135.96442,202.73225 135.00348,199.95491 133.08165,197.82206 C 131.15973,195.68929 128.6402,194.62288 125.52305,194.62284 C 120.17928,194.62288 115.62069,196.826 111.84727,201.23222 C 108.09726,205.61506 106.22226,211.04084 106.22227,217.50956 C 106.22226,221.0252 107.19491,223.88457 109.14024,226.08769 C 111.10897,228.29082 113.68709,229.39238 116.87462,229.39237 M 190.4918,200.17753 L 182.72227,236.81034 L 172.98399,236.81034 L 173.93321,232.3455 C 170.20662,235.908 166.22225,237.68925 161.98009,237.68925 C 158.65195,237.68925 156.00351,236.75175 154.03477,234.87675 C 152.08946,232.97832 151.1168,230.41191 151.1168,227.17753 C 151.1168,225.8416 151.66758,222.63067 152.76915,217.54472 L 156.49571,200.17753 L 166.23399,200.17753 L 161.55821,221.86894 C 161.30038,223.0877 161.17148,224.27129 161.17149,225.41972 C 161.17148,226.66192 161.54648,227.64629 162.29649,228.37284 C 163.04648,229.09941 164.13632,229.46269 165.56602,229.46269 C 168.941,229.46269 172.30428,227.69316 175.65587,224.15409 L 180.75352,200.17753 L 190.4918,200.17753 M 226.14024,233.71659 C 221.33552,236.41191 216.22615,237.75956 210.81212,237.75956 C 205.79648,237.75956 201.71836,236.34159 198.57774,233.50566 C 195.46055,230.66972 193.90196,226.9666 193.90196,222.39628 C 193.90196,216.13849 195.99961,210.72443 200.19493,206.15409 C 204.41367,201.58382 209.51132,199.29866 215.4879,199.29862 C 219.87068,199.29866 223.3863,200.55257 226.03477,203.06034 C 228.70661,205.56819 230.04255,208.96662 230.04259,213.25566 C 230.04255,214.35724 229.74958,216.85333 229.16368,220.74394 L 204.20274,220.74394 C 204.20273,223.79082 204.82382,226.0291 206.06602,227.45878 C 207.33163,228.88848 209.30038,229.60332 211.97227,229.60331 C 215.72225,229.60332 219.96443,228.40801 224.69883,226.01737 L 226.14024,233.71659 M 220.90196,214.20487 C 220.94881,213.75958 220.97224,213.41974 220.97227,213.18534 C 220.97224,211.07599 220.46834,209.3885 219.46055,208.12284 C 218.45271,206.85725 217.03475,206.22444 215.20665,206.22441 C 213.16756,206.22444 211.26913,206.951 209.51133,208.40409 C 207.77694,209.83381 206.51132,211.7674 205.71446,214.20487 L 220.90196,214.20487 M 276.2379,200.17753 L 255.84727,226.43925 C 258.30818,234.783 259.66756,239.38847 259.9254,240.25566 C 260.18318,241.14628 260.60506,241.94315 261.19102,242.64628 C 261.77693,243.37284 262.53865,243.73612 263.47618,243.73612 C 264.20271,243.73612 264.90583,243.58377 265.58555,243.27909 L 265.23399,250.83769 C 263.3824,251.61111 261.6949,251.99783 260.17149,251.99784 C 258.36678,251.99783 256.83162,251.62283 255.56602,250.87284 C 254.32381,250.12283 253.32772,249.07986 252.57774,247.74394 C 251.85116,246.43143 251.1246,244.52127 250.39805,242.01347 L 248.28868,234.66581 L 236.26524,251.15409 L 224.83946,251.15409 L 245.19493,224.92753 L 241.3629,211.77909 C 240.94101,210.37287 240.44883,209.3299 239.88633,208.65019 C 239.32383,207.94709 238.6207,207.59553 237.77696,207.5955 C 237.07383,207.59553 236.35899,207.73615 235.63243,208.01737 L 235.98399,200.59941 C 237.88242,199.73226 239.5582,199.29866 241.01133,199.29862 C 243.56601,199.29866 245.52304,199.93147 246.88243,201.19706 C 248.24179,202.46272 249.30819,204.50178 250.08165,207.31425 L 252.75352,217.01737 L 264.87741,200.05126 L 276.2379,200.17753"
       id="path3952"
       sodipodi:nodetypes="csscssssscsccsccccssscsccccccscsccccsssccccscscscscccscccssssccccscsccscccccccccsccsscccc" />
    <path
       style="fill:#000000;fill-rule:evenodd;stroke:#000000;stroke-width:1px;stroke-linecap:butt;stroke-linejoin:miter;stroke-opacity:1"
       d="M 225.48655,251.14289 C 225.48655,251.14289 220.36818,256.99165 214.17418,257.00511 C 208.04331,257.01857 42.669613,257.00511 42.669613,257.00511 L 42.669613,264.86225 C 42.669613,264.86225 206.19569,264.88282 216.26016,264.86225 C 226.38776,264.84168 235.96501,250.71674 235.96501,250.71674"
       id="path3954"
       sodipodi:nodetypes="czcczc" />
    <path
       sodipodi:nodetypes="czcczc"
       id="path3956"
       d="M 275.57106,200.15844 C 275.57106,200.15844 280.64208,194.40439 286.83608,194.39093 C 292.96695,194.37747 458.34065,194.39093 458.34065,194.39093 L 458.34065,186.53379 C 458.34065,186.53379 294.81457,186.51322 284.7501,186.53379 C 274.6225,186.55436 265.28201,200.34785 265.28201,200.34785"
       style="fill:#000000;fill-rule:evenodd;stroke:#000000;stroke-width:1px;stroke-linecap:butt;stroke-linejoin:miter;stroke-opacity:1" />
  </g>
</svg>
