<?xml version="1.0" encoding="UTF-8" standalone="no"?>
<!-- Generated by Graphviz version 2.18 (Thu Oct 16 15:23:39 UTC 2008)
 -->
<!-- Title: state_machine_59 Pages: 1 -->
<svg
   xmlns:dc="http://purl.org/dc/elements/1.1/"
   xmlns:cc="http://creativecommons.org/ns#"
   xmlns:rdf="http://www.w3.org/1999/02/22-rdf-syntax-ns#"
   xmlns:svg="http://www.w3.org/2000/svg"
   xmlns="http://www.w3.org/2000/svg"
   xmlns:sodipodi="http://sodipodi.sourceforge.net/DTD/sodipodi-0.dtd"
   xmlns:inkscape="http://www.inkscape.org/namespaces/inkscape"
   width="535pt"
   height="360pt"
   viewBox="0.00 0.00 535.20 360.00"
   id="svg2584"
   sodipodi:version="0.32"
   inkscape:version="0.46"
   sodipodi:docname="state-machine-codec-iso8859-7.svg"
   inkscape:output_extension="org.inkscape.output.svg.inkscape"
   inkscape:export-filename="/home/fschaef/prj/quex/trunk/demo/011/X-iso8859_7-new.png"
   inkscape:export-xdpi="35.259998"
   inkscape:export-ydpi="35.259998">
  <metadata
     id="metadata2791">
    <rdf:RDF>
      <cc:Work
         rdf:about="">
        <dc:format>image/svg+xml</dc:format>
        <dc:type
           rdf:resource="http://purl.org/dc/dcmitype/StillImage" />
      </cc:Work>
    </rdf:RDF>
  </metadata>
  <defs
     id="defs2789">
    <marker
       inkscape:stockid="Arrow2Lend"
       orient="auto"
       refY="0.0"
       refX="0.0"
       id="Arrow2Lend"
       style="overflow:visible;">
      <path
         id="path3707"
         style="font-size:12.0;fill-rule:evenodd;stroke-width:0.62500000;stroke-linejoin:round;"
         d="M 8.7185878,4.0337352 L -2.2072895,0.016013256 L 8.7185884,-4.0017078 C 6.9730900,-1.6296469 6.9831476,1.6157441 8.7185878,4.0337352 z "
         transform="scale(1.1) rotate(180) translate(1,0)" />
    </marker>
    <marker
       inkscape:stockid="Arrow1Lend"
       orient="auto"
       refY="0.0"
       refX="0.0"
       id="Arrow1Lend"
       style="overflow:visible;">
      <path
         id="path3689"
         d="M 0.0,0.0 L 5.0,-5.0 L -12.5,0.0 L 5.0,5.0 L 0.0,0.0 z "
         style="fill-rule:evenodd;stroke:#000000;stroke-width:1.0pt;marker-start:none;"
         transform="scale(0.8) rotate(180) translate(12.5,0)" />
    </marker>
    <inkscape:perspective
       sodipodi:type="inkscape:persp3d"
       inkscape:vp_x="0 : 225 : 1"
       inkscape:vp_y="0 : 1000 : 0"
       inkscape:vp_z="668.75 : 225 : 1"
       inkscape:persp3d-origin="334.375 : 150 : 1"
       id="perspective2793" />
    <title
       id="title2587">state_machine_59</title>
    <title
       id="title2771">8-&gt;9</title>
    <title
       id="title2655">9-&gt;9</title>
    <title
       id="title2762">1-&gt;2</title>
    <title
       id="title2746">4-&gt;5</title>
    <title
       id="title2737">0-&gt;8</title>
    <title
       id="title2721">0-&gt;1</title>
    <title
       id="title2705">0-&gt;4</title>
    <title
       id="title2689">0-&gt;7</title>
    <title
       id="title2680">0-&gt;6</title>
    <title
       id="title2671">0-&gt;3</title>
    <title
       id="title2610">5-&gt;5</title>
    <title
       id="title2780">2-&gt;3</title>
    <title
       id="title2637">7-&gt;7</title>
    <title
       id="title2664">0</title>
    <title
       id="title2592">3</title>
    <title
       id="title2601">5</title>
    <title
       id="title2619">6</title>
    <title
       id="title2628">7</title>
    <title
       id="title2646">9</title>
    <title
       id="title2730">8</title>
    <title
       id="title2698">4</title>
    <title
       id="title2755">2</title>
    <title
       id="title2714">1</title>
  </defs>
  <sodipodi:namedview
     inkscape:window-height="716"
     inkscape:window-width="1013"
     inkscape:pageshadow="2"
     inkscape:pageopacity="0.0"
     guidetolerance="10.0"
     gridtolerance="10.0"
     objecttolerance="10.0"
     borderopacity="1.0"
     bordercolor="#666666"
     pagecolor="#ffffff"
     id="base"
     showgrid="false"
     inkscape:zoom="1.1926975"
     inkscape:cx="477.0879"
     inkscape:cy="153.95618"
     inkscape:window-x="5"
     inkscape:window-y="21"
     inkscape:current-layer="svg2584">
    <inkscape:grid
       type="xygrid"
       id="grid5044" />
  </sodipodi:namedview>
  <ellipse
     style="fill:none;stroke:#000000"
     cx="694"
     cy="-291"
     rx="18"
     ry="18"
     id="ellipse2594"
     sodipodi:cx="694"
     sodipodi:cy="-291"
     sodipodi:rx="18"
     sodipodi:ry="18"
     transform="matrix(0.73922,0,0,0.73922,-86.272905,363.42016)" />
  <ellipse
     style="fill:none;stroke:#000000"
     cx="694"
     cy="-291"
     rx="22"
     ry="22"
     id="ellipse2596"
     sodipodi:cx="694"
     sodipodi:cy="-291"
     sodipodi:rx="22"
     sodipodi:ry="22"
     transform="matrix(0.73922,0,0,0.73922,-86.272905,363.42016)" />
  <text
     x="426.74579"
     y="151.33795"
     style="font-size:10.40388785px;text-anchor:middle;font-family:Sans;-inkscape-font-specification:Sans Bold;font-weight:bold;font-style:normal;font-stretch:normal;font-variant:normal;text-align:center;writing-mode:lr;line-height:125%"
     id="text2598"
     sodipodi:linespacing="125%">3</text>
  <g
     id="g4988"
     transform="matrix(0,-1,-1,0,812.93054,535.4524)">
    <path
       id="path2657"
       d="M 333.25902,371.54496 C 331.78058,364.15276 334.73746,356.76056 341.39044,356.76056 C 345.82576,356.76056 348.04342,359.71744 349.52186,364.15276"
       style="fill:none;stroke:#000000;stroke-width:0.73922002" />
    <polygon
       transform="matrix(0.73922,0,0,0.73922,-82.921843,402.5922)"
       id="polygon2659"
       points="588.5,-52 585,-42 581.5,-52 588.5,-52 "
       style="fill:#000000;stroke:#000000" />
  </g>
  <ellipse
     style="fill:none;stroke:#000000"
     cx="574"
     cy="-173"
     rx="18"
     ry="18"
     id="ellipse2603"
     sodipodi:cx="574"
     sodipodi:cy="-173"
     sodipodi:rx="18"
     sodipodi:ry="18"
     transform="matrix(0.73922,0,0,0.73922,2.9568686,320.83994)" />
  <ellipse
     style="fill:none;stroke:#000000"
     cx="574"
     cy="-173"
     rx="22"
     ry="22"
     id="ellipse2605"
     sodipodi:cx="574"
     sodipodi:cy="-173"
     sodipodi:rx="22"
     sodipodi:ry="22"
     transform="matrix(0.73922,0,0,0.73922,2.9568686,320.83994)" />
  <text
     x="427.26913"
     y="195.98569"
     style="font-size:10.40388785px;text-anchor:middle;font-family:Sans;-inkscape-font-specification:Sans Bold;font-weight:bold;font-style:normal;font-stretch:normal;font-variant:normal;text-align:center;writing-mode:lr;line-height:125%"
     id="text2607"
     sodipodi:linespacing="125%">5</text>
  <text
     x="460.92462"
     y="195.48473"
     style="font-size:9.60358906px;font-style:normal;font-variant:normal;font-weight:normal;font-stretch:normal;text-align:start;line-height:125%;writing-mode:lr-tb;text-anchor:start;font-family:Sans;-inkscape-font-specification:Sans"
     id="text2616"
     sodipodi:linespacing="125%">[2C] [2E] [30, 39]</text>
  <ellipse
     style="fill:none;stroke:#000000"
     cx="336"
     cy="-311"
     rx="18"
     ry="18"
     id="ellipse2621"
     sodipodi:cx="336"
     sodipodi:cy="-311"
     sodipodi:rx="18"
     sodipodi:ry="18"
     transform="matrix(0.73922,0,0,0.73922,178.89123,466.21373)" />
  <ellipse
     style="fill:none;stroke:#000000"
     cx="336"
     cy="-311"
     rx="22"
     ry="22"
     id="ellipse2623"
     sodipodi:cx="336"
     sodipodi:cy="-311"
     sodipodi:rx="22"
     sodipodi:ry="22"
     transform="matrix(0.73922,0,0,0.73922,178.89123,466.21373)" />
  <text
     x="427.26917"
     y="239.34712"
     style="font-size:10.40388785px;text-anchor:middle;font-family:Sans;-inkscape-font-specification:Sans Bold;font-weight:bold;font-style:normal;font-stretch:normal;font-variant:normal;text-align:center;writing-mode:lr;line-height:125%"
     id="text2625"
     sodipodi:linespacing="125%">6</text>
  <ellipse
     style="fill:none;stroke:#000000"
     cx="336"
     cy="-214"
     rx="18"
     ry="18"
     id="ellipse2630"
     sodipodi:cx="336"
     sodipodi:cy="-214"
     sodipodi:rx="18"
     sodipodi:ry="18"
     transform="matrix(0.73922,0,0,0.73922,178.89123,437.8708)" />
  <ellipse
     style="fill:none;stroke:#000000"
     cx="336"
     cy="-214"
     rx="22"
     ry="22"
     id="ellipse2632"
     sodipodi:cx="336"
     sodipodi:cy="-214"
     sodipodi:rx="22"
     sodipodi:ry="22"
     transform="matrix(0.73922,0,0,0.73922,178.89123,437.8708)" />
  <text
     x="427.26917"
     y="282.70853"
     style="font-size:10.40388785px;text-anchor:middle;font-family:Sans;-inkscape-font-specification:Sans Bold;font-weight:bold;font-style:normal;font-stretch:normal;font-variant:normal;text-align:center;writing-mode:lr;line-height:125%"
     id="text2634"
     sodipodi:linespacing="125%">7</text>
  <text
     x="460.92462"
     y="282.20758"
     style="font-size:9.60358879px;font-style:normal;font-variant:normal;font-weight:normal;font-stretch:normal;text-align:start;line-height:125%;writing-mode:lr;text-anchor:start;font-family:Sans;-inkscape-font-specification:Sans"
     id="text2643"
     sodipodi:linespacing="125%">
    <tspan
       sodipodi:role="line"
       id="tspan6117">[DC, FE]</tspan>
  </text>
  <ellipse
     style="fill:none;stroke:#000000"
     cx="574"
     cy="-22"
     rx="18"
     ry="18"
     id="ellipse2648"
     sodipodi:cx="574"
     sodipodi:cy="-22"
     sodipodi:rx="18"
     sodipodi:ry="18"
     transform="matrix(0.73922,0,0,0.73922,2.9568686,339.30198)" />
  <ellipse
     style="fill:none;stroke:#000000"
     cx="574"
     cy="-22"
     rx="22"
     ry="22"
     id="ellipse2650"
     sodipodi:cx="574"
     sodipodi:cy="-22"
     sodipodi:rx="22"
     sodipodi:ry="22"
     transform="matrix(0.73922,0,0,0.73922,2.9568686,339.30198)" />
  <text
     x="427.26913"
     y="326.06995"
     style="font-size:10.40388785px;text-anchor:middle;font-family:Sans;-inkscape-font-specification:Sans Bold;font-weight:bold;font-style:normal;font-stretch:normal;font-variant:normal;text-align:center;writing-mode:lr;line-height:125%"
     id="text2652"
     sodipodi:linespacing="125%">9</text>
  <g
     transform="matrix(0,-1,-1,0,812.99124,665.53666)"
     id="g5054">
    <path
       style="fill:none;stroke:#000000;stroke-width:0.73922002"
       d="M 333.25902,371.54496 C 331.78058,364.15276 334.73746,356.76056 341.39044,356.76056 C 345.82576,356.76056 348.04342,359.71744 349.52186,364.15276"
       id="path5056" />
    <polygon
       style="fill:#000000;stroke:#000000"
       points="588.5,-52 585,-42 581.5,-52 588.5,-52 "
       id="polygon5058"
       transform="matrix(0.73922,0,0,0.73922,-82.921843,402.5922)" />
  </g>
  <path
     style="fill:none;fill-rule:evenodd;stroke:#000000;stroke-width:1px;stroke-linecap:butt;stroke-linejoin:miter;stroke-opacity:1"
     d="M 138.27382,236.43609 L 78.429305,192.18242 C 80.029907,196.00598 108.63345,279.68153 108.63345,279.68153"
     id="path5623"
     sodipodi:nodetypes="ccc" />
  <text
     x="121.36663"
     y="102.37102"
     style="font-size:9.60358906px;font-style:normal;font-variant:normal;font-weight:normal;font-stretch:normal;text-align:start;line-height:125%;writing-mode:lr-tb;text-anchor:start;font-family:Sans;-inkscape-font-specification:Sans"
     id="text2677"
     sodipodi:linespacing="125%">[25]</text>
  <text
     x="145.43158"
     y="232.01944"
     style="font-size:9.60358906px;font-style:normal;font-variant:normal;font-weight:normal;font-stretch:normal;text-align:start;line-height:125%;writing-mode:lr-tb;text-anchor:start;font-family:Sans;-inkscape-font-specification:Sans"
     id="text2686"
     sodipodi:linespacing="125%">[09, 0A] [20]</text>
  <text
     x="121.36663"
     y="274.72757"
     style="font-size:9.60358879px;font-style:normal;font-variant:normal;font-weight:normal;font-stretch:normal;text-align:start;line-height:125%;writing-mode:lr;text-anchor:start;font-family:Sans;-inkscape-font-specification:Sans"
     id="text2695"
     sodipodi:linespacing="125%">
    <tspan
       sodipodi:role="line"
       id="tspan6121">[DC, FE]</tspan>
  </text>
  <ellipse
     style="fill:none;stroke:#000000"
     cx="336"
     cy="-156"
     rx="18"
     ry="18"
     id="ellipse2700"
     sodipodi:cx="336"
     sodipodi:cy="-156"
     sodipodi:rx="18"
     sodipodi:ry="18"
     transform="matrix(0.73922,0,0,0.73922,2.1437199,308.2732)" />
  <text
     x="250.52164"
     y="195.98569"
     style="font-size:10.40388785px;text-anchor:middle;font-family:Sans;-inkscape-font-specification:Sans Bold;font-weight:bold;font-style:normal;font-stretch:normal;font-variant:normal;text-align:center;writing-mode:lr;line-height:125%"
     id="text2702"
     sodipodi:linespacing="125%">4</text>
  <text
     x="145.43158"
     y="187.81975"
     style="font-size:9.60358906px;font-style:normal;font-variant:normal;font-weight:normal;font-stretch:normal;text-align:start;line-height:125%;writing-mode:lr-tb;text-anchor:start;font-family:Sans;-inkscape-font-specification:Sans"
     id="text2711"
     sodipodi:linespacing="125%">[30, 39]</text>
  <ellipse
     style="fill:none;stroke:#000000"
     cx="336"
     cy="-102"
     rx="18"
     ry="18"
     id="ellipse2716"
     sodipodi:cx="336"
     sodipodi:cy="-102"
     sodipodi:rx="18"
     sodipodi:ry="18"
     transform="matrix(0.73922,0,0,0.73922,-41.859876,224.99391)" />
  <text
     x="206.51805"
     y="152.62427"
     style="font-size:10.40388785px;text-anchor:middle;font-family:Sans;-inkscape-font-specification:Sans Bold;font-weight:bold;font-style:normal;font-stretch:normal;font-variant:normal;text-align:center;writing-mode:lr;line-height:125%"
     id="text2718"
     sodipodi:linespacing="125%">1</text>
  <text
     x="145.43158"
     y="143.98654"
     style="font-size:9.60358906px;font-style:normal;font-variant:normal;font-weight:normal;font-stretch:normal;text-align:start;line-height:125%;writing-mode:lr-tb;text-anchor:start;font-family:Sans;-inkscape-font-specification:Sans"
     id="text2727"
     sodipodi:linespacing="125%">[6B]</text>
  <ellipse
     style="fill:none;stroke:#000000"
     cx="336"
     cy="-46"
     rx="18"
     ry="18"
     id="ellipse2732"
     sodipodi:cx="336"
     sodipodi:cy="-46"
     sodipodi:rx="18"
     sodipodi:ry="18"
     transform="matrix(0.73922,0,0,0.73922,2.95688,357.04326)" />
  <text
     x="251.33479"
     y="326.06995"
     style="font-size:10.40388785px;text-anchor:middle;font-family:Sans;-inkscape-font-specification:Sans Bold;font-weight:bold;font-style:normal;font-stretch:normal;font-variant:normal;text-align:center;writing-mode:lr;line-height:125%"
     id="text2734"
     sodipodi:linespacing="125%">8</text>
  <text
     x="275.27853"
     y="187.8737"
     style="font-size:9.60358906px;font-style:normal;font-variant:normal;font-weight:normal;font-stretch:normal;text-align:start;line-height:125%;writing-mode:lr-tb;text-anchor:start;font-family:Sans;-inkscape-font-specification:Sans"
     id="text2752"
     sodipodi:linespacing="125%">[2C] [2E] [30, 39]</text>
  <ellipse
     style="fill:none;stroke:#000000"
     cx="574"
     cy="-115"
     rx="18"
     ry="18"
     id="ellipse2757"
     sodipodi:cx="574"
     sodipodi:cy="-115"
     sodipodi:rx="18"
     sodipodi:ry="18"
     transform="matrix(0.73922,0,0,0.73922,-107.68039,234.60377)" />
  <text
     x="316.6319"
     y="152.62427"
     style="font-size:10.40388785px;text-anchor:middle;font-family:Sans;-inkscape-font-specification:Sans Bold;font-weight:bold;font-style:normal;font-stretch:normal;font-variant:normal;text-align:center;writing-mode:lr;line-height:125%"
     id="text2759"
     sodipodi:linespacing="125%">2</text>
  <text
     x="227.83725"
     y="144.65755"
     style="font-size:9.60358906px;font-style:normal;font-variant:normal;font-weight:normal;font-stretch:normal;text-align:start;line-height:125%;writing-mode:lr-tb;text-anchor:start;font-family:Sans;-inkscape-font-specification:Sans"
     id="text2768"
     sodipodi:linespacing="125%">[6D]</text>
  <text
     x="275.27853"
     y="318.17484"
     style="font-size:9.60358879px;font-style:normal;font-variant:normal;font-weight:normal;font-stretch:normal;text-align:start;line-height:125%;writing-mode:lr;text-anchor:start;font-family:Sans;-inkscape-font-specification:Sans"
     id="text2777"
     sodipodi:linespacing="125%">
    <tspan
       sodipodi:role="line"
       id="tspan6119">[DC, FE]</tspan>
  </text>
  <text
     x="338.72723"
     y="144.65755"
     style="font-size:9.60358906px;font-style:normal;font-variant:normal;font-weight:normal;font-stretch:normal;text-align:start;line-height:125%;writing-mode:lr-tb;text-anchor:start;font-family:Sans;-inkscape-font-specification:Sans"
     id="text2786"
     sodipodi:linespacing="125%">[32]</text>
  <path
     style="fill:none;fill-rule:evenodd;stroke:#000000;stroke-width:1.00037384;stroke-linecap:butt;stroke-linejoin:miter;marker-end:url(#Arrow2Lend);stroke-miterlimit:4;stroke-dasharray:none;stroke-opacity:1"
     d="M 264.75319,323.05676 L 410.41489,323.05676"
     id="path2911" />
  <path
     id="path5000"
     d="M 219.27467,149.61109 L 302.79955,149.61109"
     style="fill:none;fill-rule:evenodd;stroke:#000000;stroke-width:1.00037384;stroke-linecap:butt;stroke-linejoin:miter;marker-end:url(#Arrow2Lend);stroke-miterlimit:4;stroke-dasharray:none;stroke-opacity:1"
     sodipodi:nodetypes="cc" />
  <path
     style="fill:none;fill-rule:evenodd;stroke:#000000;stroke-width:1.00037384;stroke-linecap:butt;stroke-linejoin:miter;marker-end:url(#Arrow2Lend);stroke-miterlimit:4;stroke-dasharray:none;stroke-opacity:1"
     d="M 263.94003,192.9725 L 409.60173,192.9725"
     id="path5002" />
  <path
     sodipodi:nodetypes="ccc"
     id="path5628"
     d="M 137.91797,149.46994 L 78.429305,193.72361 C 80.029907,189.90005 108.63345,106.2245 108.63345,106.2245"
     style="fill:none;fill-rule:evenodd;stroke:#000000;stroke-width:1px;stroke-linecap:butt;stroke-linejoin:miter;stroke-opacity:1" />
  <path
     sodipodi:nodetypes="cc"
     style="fill:none;fill-rule:evenodd;stroke:#000000;stroke-width:1.00037384;stroke-linecap:butt;stroke-linejoin:miter;marker-end:url(#Arrow2Lend);stroke-miterlimit:4;stroke-dasharray:none;stroke-opacity:1"
     d="M 137.63474,149.61109 L 192.57256,149.61109"
     id="path5042" />
  <path
     id="path5046"
     d="M 91.549708,192.9725 L 236.73693,192.9725"
     style="fill:none;fill-rule:evenodd;stroke:#000000;stroke-width:1.00037384;stroke-linecap:butt;stroke-linejoin:miter;marker-end:url(#Arrow2Lend);stroke-miterlimit:4;stroke-dasharray:none;stroke-opacity:1"
     sodipodi:nodetypes="cc" />
  <path
     style="fill:none;fill-rule:evenodd;stroke:#000000;stroke-width:1.00037384;stroke-linecap:butt;stroke-linejoin:miter;marker-end:url(#Arrow2Lend);stroke-miterlimit:4;stroke-dasharray:none;stroke-opacity:1"
     d="M 108.26465,279.69534 L 410.66486,279.69534"
     id="path5048"
     sodipodi:nodetypes="cc" />
  <g
     id="g5593"
     transform="matrix(0,-1,-1,0,813.22523,622.17524)">
    <path
       id="path5595"
       d="M 333.25902,371.54496 C 331.78058,364.15276 334.73746,356.76056 341.39044,356.76056 C 345.82576,356.76056 348.04342,359.71744 349.52186,364.15276"
       style="fill:none;stroke:#000000;stroke-width:0.73922002" />
    <polygon
       transform="matrix(0.73922,0,0,0.73922,-82.921843,402.5922)"
       id="polygon5597"
       points="588.5,-52 585,-42 581.5,-52 588.5,-52 "
       style="fill:#000000;stroke:#000000" />
  </g>
  <path
     transform="translate(56.477832,-26.847093)"
     style="font-size:9.60358906px;font-style:normal;font-variant:normal;font-weight:normal;font-stretch:normal;text-align:start;line-height:125%;writing-mode:lr-tb;text-anchor:start;fill:#000000;fill-opacity:1;stroke:none;stroke-width:1px;stroke-linecap:butt;stroke-linejoin:miter;stroke-opacity:1;font-family:Sans;-inkscape-font-specification:Sans"
     d="M 41.424379,346.77013 L 39.558056,346.77013 L 39.558056,337.884 L 41.424379,337.884 L 41.424379,338.55925 L 40.373986,338.55925 L 40.373986,346.09488 L 41.424379,346.09488 L 41.424379,346.77013 M 46.015157,341.26495 C 46.477825,341.34936 46.837334,341.53537 47.093685,341.82297 C 47.350025,342.10745 47.478198,342.45915 47.478203,342.87805 C 47.478198,343.48453 47.245298,343.96596 46.779505,344.32234 C 46.313701,344.67872 45.761933,344.85692 45.124199,344.85692 L 42.338783,344.85692 L 42.338783,338.24038 L 44.931939,338.24038 C 45.65408,338.24039 46.218353,338.38575 46.624759,338.67648 C 47.031156,338.96409 47.234357,339.36893 47.234362,339.891 C 47.234357,340.213 47.126504,340.49592 46.910804,340.73975 C 46.698219,340.98047 46.399671,341.15554 46.015157,341.26495 M 43.201605,340.91794 L 44.833465,340.91794 C 45.274251,340.91795 45.636886,340.82573 45.921372,340.64128 C 46.208974,340.45684 46.352778,340.20987 46.352783,339.90038 C 46.352778,339.2814 45.840087,338.97191 44.814708,338.9719 L 43.201605,338.9719 L 43.201605,340.91794 M 43.201605,344.12539 L 44.885047,344.12539 C 45.391482,344.12539 45.799447,344.01441 46.108942,343.79246 C 46.418428,343.56737 46.573173,343.25945 46.573178,342.86867 C 46.573173,342.49353 46.415301,342.19655 46.099563,341.97771 C 45.783816,341.75889 45.361784,341.64947 44.833465,341.64947 L 43.201605,341.64947 L 43.201605,344.12539 M 49.339837,341.1993 C 49.489892,340.96484 49.708723,340.77883 49.996332,340.64128 C 50.283937,340.5006 50.587176,340.43027 50.906047,340.43026 C 51.484385,340.43027 51.970504,340.63503 52.364405,341.04455 C 52.761423,341.45408 52.959935,341.98241 52.95994,342.62952 C 52.959935,343.32353 52.770802,343.88937 52.39254,344.32703 C 52.01427,344.76469 51.485948,344.98353 50.807573,344.98353 C 50.051038,344.98353 49.472698,344.69904 49.07255,344.13008 C 48.672399,343.56112 48.472325,342.73425 48.472325,341.64947 C 48.472325,340.49592 48.698972,339.61903 49.152267,339.0188 C 49.60556,338.41545 50.227667,338.11378 51.018589,338.11377 C 51.600053,338.11378 52.134627,338.2654 52.622314,338.56863 L 52.355026,339.23919 C 51.914233,338.97035 51.468754,338.83592 51.018589,338.83592 C 50.487138,338.83592 50.077611,339.03443 49.790005,339.43145 C 49.502396,339.82535 49.35234,340.41463 49.339837,341.1993 M 50.788816,344.24262 C 51.207719,344.24262 51.529714,344.10507 51.754802,343.82997 C 51.983008,343.55487 52.097113,343.17348 52.097117,342.68579 C 52.097113,342.22 51.976756,341.84798 51.736045,341.56975 C 51.498453,341.2884 51.173331,341.14772 50.76068,341.14772 C 50.648136,341.14772 50.534031,341.16491 50.418365,341.1993 C 50.302694,341.23369 50.191716,341.28215 50.085428,341.34467 C 49.979136,341.40719 49.879099,341.48066 49.785316,341.56506 C 49.694655,341.64947 49.602433,341.75732 49.50865,341.88862 C 49.414864,342.01992 49.367971,342.11058 49.367972,342.1606 C 49.367971,342.6983 49.491455,343.17973 49.738423,343.60489 C 49.985389,344.03004 50.335519,344.24262 50.788816,344.24262 M 55.346769,346.77013 L 53.485136,346.77013 L 53.485136,346.09488 L 54.53084,346.09488 L 54.53084,338.65303 L 53.485136,338.65303 L 53.485136,337.98247 L 55.346769,337.98247 L 55.346769,346.77013 M 61.17551,346.77013 L 59.309187,346.77013 L 59.309187,337.884 L 61.17551,337.884 L 61.17551,338.55925 L 60.125117,338.55925 L 60.125117,346.09488 L 61.17551,346.09488 L 61.17551,346.77013 M 65.766288,341.26495 C 66.228956,341.34936 66.588465,341.53537 66.844816,341.82297 C 67.101157,342.10745 67.229329,342.45915 67.229335,342.87805 C 67.229329,343.48453 66.99643,343.96596 66.530637,344.32234 C 66.064833,344.67872 65.513065,344.85692 64.87533,344.85692 L 62.089914,344.85692 L 62.089914,338.24038 L 64.683071,338.24038 C 65.405212,338.24039 65.969485,338.38575 66.375891,338.67648 C 66.782288,338.96409 66.985488,339.36893 66.985494,339.891 C 66.985488,340.213 66.877636,340.49592 66.661936,340.73975 C 66.449351,340.98047 66.150802,341.15554 65.766288,341.26495 M 62.952737,340.91794 L 64.584597,340.91794 C 65.025383,340.91795 65.388018,340.82573 65.672503,340.64128 C 65.960106,340.45684 66.10391,340.20987 66.103915,339.90038 C 66.10391,339.2814 65.591219,338.97191 64.56584,338.9719 L 62.952737,338.9719 L 62.952737,340.91794 M 62.952737,344.12539 L 64.636179,344.12539 C 65.142614,344.12539 65.550579,344.01441 65.860073,343.79246 C 66.169559,343.56737 66.324304,343.25945 66.324309,342.86867 C 66.324304,342.49353 66.166433,342.19655 65.850695,341.97771 C 65.534948,341.75889 65.112915,341.64947 64.584597,341.64947 L 62.952737,341.64947 L 62.952737,344.12539 M 71.374635,341.21806 C 71.781033,341.35248 72.096775,341.56819 72.321864,341.86517 C 72.550069,342.16216 72.664174,342.50917 72.664179,342.90619 C 72.664174,343.49703 72.453158,343.99097 72.03113,344.38799 C 71.609094,344.78501 71.066704,344.98353 70.40396,344.98353 C 69.738084,344.98353 69.194131,344.78501 68.7721,344.38799 C 68.350066,343.98784 68.13905,343.49078 68.139051,342.89681 C 68.13905,342.51229 68.251592,342.1731 68.476677,341.87924 C 68.70176,341.58226 69.014377,341.36186 69.414527,341.21806 C 69.11754,341.13053 68.876825,340.95859 68.692382,340.70224 C 68.507938,340.4459 68.415716,340.15673 68.415717,339.83473 C 68.415716,339.34705 68.592344,338.93908 68.945602,338.61083 C 69.298858,338.27946 69.78185,338.11378 70.394581,338.11377 C 70.994802,338.11378 71.476232,338.2779 71.838871,338.60614 C 72.201502,338.93127 72.38282,339.3408 72.382824,339.83473 C 72.38282,340.15985 72.292161,340.44902 72.110848,340.70224 C 71.929526,340.95546 71.684122,341.1274 71.374635,341.21806 M 70.40396,340.87105 C 70.722826,340.87106 70.98855,340.77883 71.201133,340.59439 C 71.413708,340.40682 71.519998,340.1536 71.520002,339.83473 C 71.519998,339.53462 71.415271,339.2939 71.205822,339.11258 C 70.999491,338.92814 70.729078,338.83592 70.394581,338.83592 C 70.063205,338.83592 69.794355,338.92658 69.58803,339.10789 C 69.384827,339.28922 69.283227,339.53149 69.283228,339.83473 C 69.283227,340.15985 69.395769,340.41463 69.620854,340.59907 C 69.845936,340.7804 70.106971,340.87106 70.40396,340.87105 M 70.40396,344.26138 C 70.797854,344.26138 71.127664,344.13477 71.393392,343.88155 C 71.662238,343.62521 71.796664,343.30009 71.796668,342.90619 C 71.796664,342.54355 71.659112,342.23406 71.384013,341.97771 C 71.108907,341.72137 70.782223,341.5932 70.40396,341.5932 C 70.022565,341.5932 69.692754,341.72294 69.414527,341.9824 C 69.139423,342.24188 69.001872,342.54981 69.001873,342.90619 C 69.001872,343.31259 69.130045,343.64084 69.386392,343.89093 C 69.642736,344.1379 69.981925,344.26138 70.40396,344.26138 M 74.3992,344.98353 C 74.233512,344.96477 74.097524,344.89756 73.991235,344.78189 C 73.884945,344.66622 73.8318,344.53492 73.8318,344.38799 C 73.8318,344.22856 73.883381,344.09413 73.986546,343.98471 C 74.092835,343.8753 74.22257,343.82059 74.375754,343.82059 C 74.550818,343.82059 74.702437,343.89249 74.830611,344.0363 C 74.958782,344.17697 75.022869,344.34735 75.022871,344.54743 C 75.022869,345.16015 74.68368,345.63846 74.005303,345.98234 L 73.822422,345.64471 C 74.20694,345.45714 74.399199,345.23674 74.3992,344.98353 M 82.853923,341.26495 C 83.316591,341.34936 83.6761,341.53537 83.932452,341.82297 C 84.188792,342.10745 84.316964,342.45915 84.31697,342.87805 C 84.316964,343.48453 84.084065,343.96596 83.618272,344.32234 C 83.152468,344.67872 82.6007,344.85692 81.962965,344.85692 L 79.17755,344.85692 L 79.17755,338.24038 L 81.770706,338.24038 C 82.492847,338.24039 83.05712,338.38575 83.463526,338.67648 C 83.869923,338.96409 84.073123,339.36893 84.073129,339.891 C 84.073123,340.213 83.965271,340.49592 83.749571,340.73975 C 83.536986,340.98047 83.238437,341.15554 82.853923,341.26495 M 80.040372,340.91794 L 81.672232,340.91794 C 82.113018,340.91795 82.475653,340.82573 82.760138,340.64128 C 83.047741,340.45684 83.191545,340.20987 83.19155,339.90038 C 83.191545,339.2814 82.678854,338.97191 81.653475,338.9719 L 80.040372,338.9719 L 80.040372,340.91794 M 80.040372,344.12539 L 81.723814,344.12539 C 82.230249,344.12539 82.638214,344.01441 82.947709,343.79246 C 83.257194,343.56737 83.411939,343.25945 83.411945,342.86867 C 83.411939,342.49353 83.254068,342.19655 82.93833,341.97771 C 82.622583,341.75889 82.20055,341.64947 81.672232,341.64947 L 80.040372,341.64947 L 80.040372,344.12539 M 91.191415,344.85692 L 90.267632,344.85692 L 89.357917,342.60139 L 86.685043,342.60139 L 85.784707,344.85692 L 84.870303,344.85692 L 87.618205,338.24038 L 88.443513,338.24038 L 91.191415,344.85692 M 89.095319,341.86986 L 88.030859,339.26733 L 86.966398,341.86986 L 89.095319,341.86986 M 93.254687,346.77013 L 91.393053,346.77013 L 91.393053,346.09488 L 92.438757,346.09488 L 92.438757,338.65303 L 91.393053,338.65303 L 91.393053,337.98247 L 93.254687,337.98247 L 93.254687,346.77013 M 99.083429,346.77013 L 97.217106,346.77013 L 97.217106,337.884 L 99.083429,337.884 L 99.083429,338.55925 L 98.033036,338.55925 L 98.033036,346.09488 L 99.083429,346.09488 L 99.083429,346.77013 M 103.67421,341.26495 C 104.13687,341.34936 104.49638,341.53537 104.75273,341.82297 C 105.00907,342.10745 105.13725,342.45915 105.13725,342.87805 C 105.13725,343.48453 104.90435,343.96596 104.43855,344.32234 C 103.97275,344.67872 103.42098,344.85692 102.78325,344.85692 L 99.997832,344.85692 L 99.997832,338.24038 L 102.59099,338.24038 C 103.31313,338.24039 103.8774,338.38575 104.28381,338.67648 C 104.6902,338.96409 104.89341,339.36893 104.89341,339.891 C 104.89341,340.213 104.78555,340.49592 104.56985,340.73975 C 104.35727,340.98047 104.05872,341.15554 103.67421,341.26495 M 100.86065,340.91794 L 102.49251,340.91794 C 102.9333,340.91795 103.29594,340.82573 103.58042,340.64128 C 103.86802,340.45684 104.01183,340.20987 104.01183,339.90038 C 104.01183,339.2814 103.49914,338.97191 102.47376,338.9719 L 100.86065,338.9719 L 100.86065,340.91794 M 100.86065,344.12539 L 102.5441,344.12539 C 103.05053,344.12539 103.4585,344.01441 103.76799,343.79246 C 104.07748,343.56737 104.23222,343.25945 104.23223,342.86867 C 104.23222,342.49353 104.07435,342.19655 103.75861,341.97771 C 103.44286,341.75889 103.02083,341.64947 102.49251,341.64947 L 100.86065,341.64947 L 100.86065,344.12539 M 106.09386,341.57444 C 106.09386,340.55219 106.41117,339.72063 107.04578,339.07976 C 107.68351,338.43577 108.51976,338.11378 109.55453,338.11377 C 110.56428,338.11378 111.44117,338.41858 112.1852,339.02817 L 111.7913,339.70812 C 111.10667,339.13291 110.36108,338.8453 109.55453,338.84529 C 108.78549,338.8453 108.16807,339.09852 107.70227,339.60495 C 107.2396,340.10827 107.00826,340.76477 107.00826,341.57444 C 107.00826,342.38412 107.23647,343.0328 107.6929,343.52048 C 108.15244,344.00816 108.77298,344.252 109.55453,344.252 C 110.38608,344.252 111.16606,343.95814 111.89447,343.37042 L 112.27898,344.04099 C 111.49431,344.66935 110.58616,344.98353 109.55453,344.98353 C 108.48538,344.98353 107.64131,344.67247 107.02233,344.05036 C 106.40335,343.42826 106.09386,342.60295 106.09386,341.57444 M 114.60016,346.77013 L 112.73853,346.77013 L 112.73853,346.09488 L 113.78423,346.09488 L 113.78423,338.65303 L 112.73853,338.65303 L 112.73853,337.98247 L 114.60016,337.98247 L 114.60016,346.77013 M 120.4289,346.77013 L 118.56258,346.77013 L 118.56258,337.884 L 120.4289,337.884 L 120.4289,338.55925 L 119.37851,338.55925 L 119.37851,346.09488 L 120.4289,346.09488 L 120.4289,346.77013 M 125.01968,341.26495 C 125.48235,341.34936 125.84186,341.53537 126.09821,341.82297 C 126.35455,342.10745 126.48272,342.45915 126.48273,342.87805 C 126.48272,343.48453 126.24983,343.96596 125.78403,344.32234 C 125.31823,344.67872 124.76646,344.85692 124.12873,344.85692 L 121.34331,344.85692 L 121.34331,338.24038 L 123.93647,338.24038 C 124.65861,338.24039 125.22288,338.38575 125.62929,338.67648 C 126.03568,338.96409 126.23888,339.36893 126.23889,339.891 C 126.23888,340.213 126.13103,340.49592 125.91533,340.73975 C 125.70275,340.98047 125.4042,341.15554 125.01968,341.26495 M 122.20613,340.91794 L 123.83799,340.91794 C 124.27878,340.91795 124.64141,340.82573 124.9259,340.64128 C 125.2135,340.45684 125.3573,340.20987 125.35731,339.90038 C 125.3573,339.2814 124.84461,338.97191 123.81923,338.9719 L 122.20613,338.9719 L 122.20613,340.91794 M 122.20613,344.12539 L 123.88957,344.12539 C 124.39601,344.12539 124.80397,344.01441 125.11347,343.79246 C 125.42295,343.56737 125.5777,343.25945 125.5777,342.86867 C 125.5777,342.49353 125.41983,342.19655 125.10409,341.97771 C 124.78834,341.75889 124.36631,341.64947 123.83799,341.64947 L 122.20613,341.64947 L 122.20613,344.12539 M 132.80853,344.85692 L 127.7582,344.85692 L 127.7582,338.24038 L 132.71474,338.24038 L 132.71474,338.9719 L 128.62103,338.9719 L 128.62103,341.04455 L 132.32085,341.04455 L 132.32085,341.77608 L 128.62103,341.77608 L 128.62103,344.12539 L 132.80853,344.12539 L 132.80853,344.85692 M 134.72175,344.98353 C 134.55606,344.96477 134.42007,344.89756 134.31378,344.78189 C 134.20749,344.66622 134.15435,344.53492 134.15435,344.38799 C 134.15435,344.22856 134.20593,344.09413 134.30909,343.98471 C 134.41538,343.8753 134.54512,343.82059 134.6983,343.82059 C 134.87337,343.82059 135.02498,343.89249 135.15316,344.0363 C 135.28133,344.17697 135.34542,344.34735 135.34542,344.54743 C 135.34542,345.16015 135.00623,345.63846 134.32785,345.98234 L 134.14497,345.64471 C 134.52949,345.45714 134.72175,345.23674 134.72175,344.98353 M 139.50009,338.24038 L 141.83534,338.24038 C 142.87323,338.24039 143.69072,338.52956 144.28782,339.10789 C 144.88491,339.68624 145.18346,340.49748 145.18347,341.54161 C 145.18346,342.53261 144.88335,343.33291 144.28313,343.94251 C 143.68603,344.55211 142.87948,344.85692 141.86348,344.85692 L 139.50009,344.85692 L 139.50009,338.24038 M 140.36292,344.12539 L 141.84472,344.12539 C 142.62313,344.12539 143.22179,343.90344 143.6407,343.45952 C 144.06273,343.01248 144.27375,342.3763 144.27375,341.55099 C 144.27375,340.72256 144.06117,340.08639 143.63601,339.64247 C 143.21398,339.19543 142.61688,338.97191 141.84472,338.9719 L 140.36292,338.9719 L 140.36292,344.12539 M 150.11656,341.26495 C 150.57923,341.34936 150.93874,341.53537 151.19509,341.82297 C 151.45143,342.10745 151.5796,342.45915 151.57961,342.87805 C 151.5796,343.48453 151.3467,343.96596 150.88091,344.32234 C 150.41511,344.67872 149.86334,344.85692 149.2256,344.85692 L 146.44019,344.85692 L 146.44019,338.24038 L 149.03334,338.24038 C 149.75549,338.24039 150.31976,338.38575 150.72616,338.67648 C 151.13256,338.96409 151.33576,339.36893 151.33577,339.891 C 151.33576,340.213 151.22791,340.49592 151.01221,340.73975 C 150.79962,340.98047 150.50108,341.15554 150.11656,341.26495 M 147.30301,340.91794 L 148.93487,340.91794 C 149.37566,340.91795 149.73829,340.82573 150.02278,340.64128 C 150.31038,340.45684 150.45418,340.20987 150.45419,339.90038 C 150.45418,339.2814 149.94149,338.97191 148.91611,338.9719 L 147.30301,338.9719 L 147.30301,340.91794 M 147.30301,344.12539 L 148.98645,344.12539 C 149.49289,344.12539 149.90085,344.01441 150.21035,343.79246 C 150.51983,343.56737 150.67458,343.25945 150.67458,342.86867 C 150.67458,342.49353 150.51671,342.19655 150.20097,341.97771 C 149.88522,341.75889 149.46319,341.64947 148.93487,341.64947 L 147.30301,341.64947 L 147.30301,344.12539 M 154.10242,346.77013 L 152.24079,346.77013 L 152.24079,346.09488 L 153.28649,346.09488 L 153.28649,338.65303 L 152.24079,338.65303 L 152.24079,337.98247 L 154.10242,337.98247 L 154.10242,346.77013"
     id="flowRoot5601" />
  <path
     id="path5611"
     d="M 78.254761,323.05676 L 237.55009,323.05676"
     style="fill:none;fill-rule:evenodd;stroke:#000000;stroke-width:1.00037384;stroke-linecap:butt;stroke-linejoin:miter;marker-end:url(#Arrow2Lend);stroke-miterlimit:4;stroke-dasharray:none;stroke-opacity:1"
     sodipodi:nodetypes="cc" />
  <path
     style="fill:none;fill-rule:evenodd;stroke:#000000;stroke-width:1px;stroke-linecap:butt;stroke-linejoin:miter;stroke-opacity:1"
     d="M 78.429309,206.1126 L 78.429309,323.40144"
     id="path5615"
     sodipodi:nodetypes="cc" />
  <ellipse
     style="fill:#ffffff;stroke:#000000"
     cx="18"
     cy="-182"
     rx="18"
     ry="18"
     id="ellipse2666"
     sodipodi:cx="18"
     sodipodi:cy="-182"
     sodipodi:rx="18"
     sodipodi:ry="18"
     transform="matrix(0.73922,0,0,0.73922,65.123349,327.49292)" />
  <text
     x="78.429306"
     y="195.98569"
     style="font-size:10.40388785px;text-anchor:middle;font-family:Sans;-inkscape-font-specification:Sans Bold;font-weight:bold;font-style:normal;font-stretch:normal;font-variant:normal;text-align:center;writing-mode:lr;line-height:125%"
     id="text2668"
     sodipodi:linespacing="125%">0</text>
  <path
     sodipodi:nodetypes="cc"
     id="path5619"
     d="M 137.95164,236.33393 L 409.76037,236.33393"
     style="fill:none;fill-rule:evenodd;stroke:#000000;stroke-width:1.00037384;stroke-linecap:butt;stroke-linejoin:miter;marker-end:url(#Arrow2Lend);stroke-miterlimit:4;stroke-dasharray:none;stroke-opacity:1" />
  <path
     sodipodi:nodetypes="cc"
     style="fill:none;fill-rule:evenodd;stroke:#000000;stroke-width:1.00037384;stroke-linecap:butt;stroke-linejoin:miter;marker-end:url(#Arrow2Lend);stroke-miterlimit:4;stroke-dasharray:none;stroke-opacity:1"
     d="M 329.71607,149.61109 L 409.88595,149.61109"
     id="path5630" />
  <path
     sodipodi:nodetypes="ccc"
     id="path5632"
     d="M 108.26465,106.66279 L 426.67486,106.66279 L 426.507,131.98206"
     style="fill:none;fill-rule:evenodd;stroke:#000000;stroke-width:1.00037384;stroke-linecap:butt;stroke-linejoin:miter;marker-end:url(#Arrow2Lend);stroke-miterlimit:4;stroke-dasharray:none;stroke-opacity:1" />
  <text
     x="479.33463"
     y="325.569"
     style="font-size:9.60358906px;font-style:normal;font-variant:normal;font-weight:normal;font-stretch:normal;text-align:center;line-height:125%;writing-mode:lr-tb;text-anchor:middle;font-family:Sans;-inkscape-font-specification:Sans"
     id="text79"
     sodipodi:linespacing="125%">[DC, FE]</text>
</svg>
