<?xml version="1.0" encoding="UTF-8" standalone="no"?>
<!-- Created with Inkscape (http://www.inkscape.org/) -->
<svg
   xmlns:dc="http://purl.org/dc/elements/1.1/"
   xmlns:cc="http://creativecommons.org/ns#"
   xmlns:rdf="http://www.w3.org/1999/02/22-rdf-syntax-ns#"
   xmlns:svg="http://www.w3.org/2000/svg"
   xmlns="http://www.w3.org/2000/svg"
   xmlns:sodipodi="http://sodipodi.sourceforge.net/DTD/sodipodi-0.dtd"
   xmlns:inkscape="http://www.inkscape.org/namespaces/inkscape"
   width="260"
   height="180"
   id="svg2"
   sodipodi:version="0.32"
   inkscape:version="0.46"
   sodipodi:docname="mode-multiple-inheritance.svg"
   inkscape:output_extension="org.inkscape.output.svg.inkscape"
   version="1.0"
   inkscape:export-filename="/home/fschaef/prj/quex/trunk/doc/source/figures/mode-multiple-inheritance.png"
   inkscape:export-xdpi="80"
   inkscape:export-ydpi="80">
  <defs
     id="defs4">
    <inkscape:perspective
       sodipodi:type="inkscape:persp3d"
       inkscape:vp_x="0 : 526.18109 : 1"
       inkscape:vp_y="0 : 1000 : 0"
       inkscape:vp_z="744.09448 : 526.18109 : 1"
       inkscape:persp3d-origin="372.04724 : 350.78739 : 1"
       id="perspective10" />
  </defs>
  <sodipodi:namedview
     id="base"
     pagecolor="#ffffff"
     bordercolor="#666666"
     borderopacity="1.0"
     gridtolerance="10000"
     guidetolerance="10"
     objecttolerance="10"
     inkscape:pageopacity="0.0"
     inkscape:pageshadow="2"
     inkscape:zoom="2.5184974"
     inkscape:cx="75.751322"
     inkscape:cy="83.106823"
     inkscape:document-units="px"
     inkscape:current-layer="layer1"
     showgrid="true"
     inkscape:window-width="1013"
     inkscape:window-height="716"
     inkscape:window-x="5"
     inkscape:window-y="21"
     inkscape:snap-center="true">
    <inkscape:grid
       type="xygrid"
       id="grid3147"
       visible="true"
       enabled="true" />
  </sodipodi:namedview>
  <metadata
     id="metadata7">
    <rdf:RDF>
      <cc:Work
         rdf:about="">
        <dc:format>image/svg+xml</dc:format>
        <dc:type
           rdf:resource="http://purl.org/dc/dcmitype/StillImage" />
      </cc:Work>
    </rdf:RDF>
  </metadata>
  <g
     inkscape:label="Layer 1"
     inkscape:groupmode="layer"
     id="layer1"
     transform="translate(-229.375,-376.41357)">
    <g
       id="g3634"
       transform="translate(34.375,4.3749958)">
      <path
         style="fill:none;fill-rule:evenodd;stroke:#000000;stroke-width:1px;stroke-linecap:butt;stroke-linejoin:miter;stroke-opacity:1"
         d="M 240.72068,434.36218 L 240.72068,518.36218"
         id="path3562"
         sodipodi:nodetypes="cc" />
      <path
         sodipodi:nodetypes="cc"
         id="path3584"
         d="M 248.80882,437.06071 L 308.80882,478.06071"
         style="fill:none;fill-rule:evenodd;stroke:#000000;stroke-width:1px;stroke-linecap:butt;stroke-linejoin:miter;stroke-opacity:1" />
      <path
         sodipodi:nodetypes="cc"
         id="path3568"
         d="M 360.39708,436.86218 L 300.39708,477.86218"
         style="fill:none;fill-rule:evenodd;stroke:#000000;stroke-width:1px;stroke-linecap:butt;stroke-linejoin:miter;stroke-opacity:1" />
      <path
         style="fill:none;fill-rule:evenodd;stroke:#000000;stroke-width:1px;stroke-linecap:butt;stroke-linejoin:miter;stroke-opacity:1"
         d="M 304.34932,477.36218 L 304.34932,527.36218"
         id="path3564"
         sodipodi:nodetypes="cc" />
      <path
         sodipodi:nodetypes="cc"
         id="path3560"
         d="M 367.97794,432.36218 L 367.97794,482.36218"
         style="fill:none;fill-rule:evenodd;stroke:#000000;stroke-width:1px;stroke-linecap:butt;stroke-linejoin:miter;stroke-opacity:1" />
      <path
         sodipodi:nodetypes="cc"
         id="path3574"
         d="M 296.85972,389.7499 L 236.85972,430.7499"
         style="fill:none;fill-rule:evenodd;stroke:#000000;stroke-width:1px;stroke-linecap:butt;stroke-linejoin:miter;stroke-opacity:1" />
      <path
         sodipodi:nodetypes="cc"
         id="path3576"
         d="M 311.85972,389.7499 L 371.85972,430.7499"
         style="fill:none;fill-rule:evenodd;stroke:#000000;stroke-width:1px;stroke-linecap:butt;stroke-linejoin:miter;stroke-opacity:1" />
      <rect
         style="fill:#ffcc00;fill-opacity:1;fill-rule:evenodd;stroke:#000000;stroke-width:1.25;stroke-linejoin:round;stroke-miterlimit:4;stroke-dasharray:none;stroke-dashoffset:0;stroke-opacity:1"
         id="rect2469"
         width="21.441357"
         height="20.647232"
         x="230"
         y="423.99594"
         ry="6.6044888" />
      <path
         id="flowRoot2391"
         d="M 262.83594,404.53939 C 263.41406,404.64486 263.86327,404.87728 264.18359,405.23665 C 264.5039,405.59212 264.66406,406.03158 264.66406,406.55501 C 264.66406,407.31283 264.37304,407.91439 263.79102,408.3597 C 263.20898,408.80501 262.51953,409.02767 261.72266,409.02767 L 258.24219,409.02767 L 258.24219,400.76009 L 261.48242,400.76009 C 262.38476,400.7601 263.08984,400.94174 263.59766,401.30501 C 264.10546,401.66439 264.35937,402.17025 264.35938,402.82259 C 264.35937,403.22494 264.2246,403.57845 263.95508,403.88314 C 263.68945,404.18392 263.3164,404.40267 262.83594,404.53939 M 259.32031,404.10579 L 261.35938,404.10579 C 261.91015,404.1058 262.36328,403.99056 262.71875,403.76009 C 263.07812,403.52963 263.25781,403.22103 263.25781,402.83431 C 263.25781,402.06088 262.61718,401.67416 261.33594,401.67415 L 259.32031,401.67415 L 259.32031,404.10579 M 259.32031,408.1136 L 261.42383,408.1136 C 262.05664,408.11361 262.5664,407.97493 262.95312,407.69759 C 263.33984,407.41634 263.5332,407.03158 263.5332,406.54329 C 263.5332,406.07455 263.33593,405.70345 262.94141,405.43001 C 262.54687,405.15658 262.01953,405.01986 261.35938,405.01985 L 259.32031,405.01985 L 259.32031,408.1136"
         style="font-size:12px;font-style:normal;font-variant:normal;font-weight:normal;font-stretch:normal;fill:#000000;fill-opacity:1;stroke:none;stroke-width:1px;stroke-linecap:butt;stroke-linejoin:miter;stroke-opacity:1;font-family:Sans;-inkscape-font-specification:Adobe Helvetica"
         transform="translate(-20.732447,29.425683)" />
      <path
         sodipodi:nodetypes="cc"
         id="path3572"
         d="M 375.39708,436.86218 L 435.39708,477.86218"
         style="fill:none;fill-rule:evenodd;stroke:#000000;stroke-width:1px;stroke-linecap:butt;stroke-linejoin:miter;stroke-opacity:1" />
      <rect
         style="fill:#ffcc00;fill-opacity:1;fill-rule:evenodd;stroke:#000000;stroke-width:1.25;stroke-linejoin:round;stroke-miterlimit:4;stroke-dasharray:none;stroke-dashoffset:0;stroke-opacity:1"
         id="rect2477"
         width="21.441357"
         height="20.647232"
         x="357.25726"
         y="423.99594"
         ry="6.6044888" />
      <path
         id="flowRoot2415"
         d="M 158.59375,468.45735 C 158.59375,467.18002 158.99023,466.14095 159.7832,465.34017 C 160.58008,464.53549 161.625,464.13314 162.91797,464.13314 C 164.17968,464.13314 165.27538,464.514 166.20508,465.27571 L 165.71289,466.12532 C 164.85742,465.40658 163.92578,465.04721 162.91797,465.0472 C 161.95703,465.04721 161.18554,465.36361 160.60352,465.99642 C 160.02539,466.62533 159.73633,467.44564 159.73633,468.45735 C 159.73633,469.46908 160.02148,470.27962 160.5918,470.889 C 161.16601,471.49837 161.9414,471.80306 162.91797,471.80306 C 163.95703,471.80306 164.93163,471.43587 165.8418,470.7015 L 166.32227,471.53939 C 165.34179,472.32454 164.20703,472.71712 162.91797,472.71712 C 161.58203,472.71712 160.52734,472.32845 159.75391,471.5511 C 158.98047,470.77376 158.59375,469.74251 158.59375,468.45735"
         style="font-size:12px;font-style:normal;font-variant:normal;font-weight:normal;font-stretch:normal;fill:#000000;fill-opacity:1;stroke:none;stroke-width:1px;stroke-linecap:butt;stroke-linejoin:miter;stroke-opacity:1;font-family:Sans;-inkscape-font-specification:Adobe Helvetica"
         transform="translate(205.51993,-34.105571)" />
      <rect
         style="fill:#ffcc00;fill-opacity:1;fill-rule:evenodd;stroke:#000000;stroke-width:1.25;stroke-linejoin:round;stroke-miterlimit:4;stroke-dasharray:none;stroke-dashoffset:0;stroke-opacity:1"
         id="rect2473"
         width="21.441357"
         height="20.647232"
         x="230"
         y="470.95328"
         ry="6.6044888" />
      <path
         id="flowRoot2399"
         d="M 326.55469,410.29134 L 329.47266,410.29134 C 330.76953,410.29135 331.79101,410.65268 332.53711,411.37532 C 333.2832,412.09799 333.65624,413.11166 333.65625,414.41634 C 333.65624,415.65462 333.28124,416.65462 332.53125,417.41634 C 331.78515,418.17806 330.77734,418.55892 329.50781,418.55892 L 326.55469,418.55892 L 326.55469,410.29134 M 327.63281,417.64485 L 329.48438,417.64485 C 330.45703,417.64486 331.20507,417.36751 331.72852,416.81282 C 332.25585,416.25423 332.51952,415.45931 332.51953,414.42806 C 332.51952,413.39291 332.2539,412.59799 331.72266,412.04329 C 331.19531,411.48471 330.44921,411.20541 329.48438,411.2054 L 327.63281,411.2054 L 327.63281,417.64485"
         style="font-size:12px;font-style:normal;font-variant:normal;font-weight:normal;font-stretch:normal;fill:#000000;fill-opacity:1;stroke:none;stroke-width:1px;stroke-linecap:butt;stroke-linejoin:miter;stroke-opacity:1;font-family:Sans;-inkscape-font-specification:Adobe Helvetica"
         transform="translate(-89.299822,66.851778)" />
      <rect
         style="fill:#ffcc00;fill-opacity:1;fill-rule:evenodd;stroke:#000000;stroke-width:1.25;stroke-linejoin:round;stroke-miterlimit:4;stroke-dasharray:none;stroke-dashoffset:0;stroke-opacity:1"
         id="rect2483"
         width="21.441357"
         height="20.647232"
         x="357.25726"
         y="470.95328"
         ry="6.6044888" />
      <path
         id="flowRoot2423"
         d="M 278.2793,476.29915 L 273.63281,476.29915 L 273.63281,479.19954 L 278.14453,479.19954 L 278.14453,480.1136 L 273.63281,480.1136 L 273.63281,483.65267 L 272.55469,483.65267 L 272.55469,475.38509 L 278.2793,475.38509 L 278.2793,476.29915"
         style="font-size:12px;font-style:normal;font-variant:normal;font-weight:normal;font-stretch:normal;fill:#000000;fill-opacity:1;stroke:none;stroke-width:1px;stroke-linecap:butt;stroke-linejoin:miter;stroke-opacity:1;font-family:Sans;-inkscape-font-specification:Adobe Helvetica"
         transform="translate(92.560941,1.758027)" />
      <rect
         ry="6.6044888"
         y="470.95328"
         x="420.88589"
         height="20.647232"
         width="21.441357"
         id="rect2467"
         style="fill:#ffcc00;fill-opacity:1;fill-rule:evenodd;stroke:#000000;stroke-width:1.25;stroke-linejoin:round;stroke-miterlimit:4;stroke-dasharray:none;stroke-dashoffset:0;stroke-opacity:1" />
      <path
         id="flowRoot2431"
         d="M 384.00391,459.13118 C 383.09374,459.70931 381.98437,459.99837 380.67578,459.99837 C 379.30859,459.99837 378.21875,459.59798 377.40625,458.7972 C 376.59375,457.99251 376.1875,456.96322 376.1875,455.70931 C 376.1875,454.4515 376.58398,453.4222 377.37695,452.62142 C 378.17383,451.81674 379.21875,451.41439 380.51172,451.41439 C 381.74999,451.41439 382.8457,451.79525 383.79883,452.55696 L 383.30664,453.40657 C 382.44726,452.68783 381.51562,452.32846 380.51172,452.32845 C 379.53125,452.32846 378.75586,452.64877 378.18555,453.28939 C 377.61523,453.93002 377.33008,454.73666 377.33008,455.70931 C 377.33008,456.76009 377.63476,457.58626 378.24414,458.18782 C 378.85351,458.78548 379.70117,459.08431 380.78711,459.08431 C 381.67773,459.08431 382.38867,458.92025 382.91992,458.59212 L 382.91992,456.72298 L 380.65234,456.72298 L 380.65234,455.80892 L 384.00391,455.80892 L 384.00391,459.13118"
         style="font-size:12px;font-style:normal;font-variant:normal;font-weight:normal;font-stretch:normal;fill:#000000;fill-opacity:1;stroke:none;stroke-width:1px;stroke-linecap:butt;stroke-linejoin:miter;stroke-opacity:1;font-family:Sans;-inkscape-font-specification:Adobe Helvetica"
         transform="translate(51.510866,25.570527)" />
      <rect
         style="fill:#ffcc00;fill-opacity:1;fill-rule:evenodd;stroke:#000000;stroke-width:1.25;stroke-linejoin:round;stroke-miterlimit:4;stroke-dasharray:none;stroke-dashoffset:0;stroke-opacity:1"
         id="rect2479"
         width="21.441357"
         height="20.647232"
         x="293.62863"
         y="470.95328"
         ry="6.6044888" />
      <path
         id="flowRoot2451"
         d="M 436.08398,482.09017 L 429.77344,482.09017 L 429.77344,473.82259 L 435.9668,473.82259 L 435.9668,474.73665 L 430.85156,474.73665 L 430.85156,477.3265 L 435.47461,477.3265 L 435.47461,478.24056 L 430.85156,478.24056 L 430.85156,481.1761 L 436.08398,481.1761 L 436.08398,482.09017"
         style="font-size:12px;font-style:normal;font-variant:normal;font-weight:normal;font-stretch:normal;fill:#000000;fill-opacity:1;stroke:none;stroke-width:1px;stroke-linecap:butt;stroke-linejoin:miter;stroke-opacity:1;font-family:Sans;-inkscape-font-specification:Adobe Helvetica"
         transform="translate(-128.48271,3.320527)" />
      <rect
         style="fill:#ffcc00;fill-opacity:1;fill-rule:evenodd;stroke:#000000;stroke-width:1.25;stroke-linejoin:round;stroke-miterlimit:4;stroke-dasharray:none;stroke-dashoffset:0;stroke-opacity:1"
         id="rect2471"
         width="21.441357"
         height="20.647232"
         x="293.62863"
         y="377.03857"
         ry="6.6044888" />
      <path
         id="flowRoot2383"
         d="M 202.51953,373.27767 L 201.36523,373.27767 L 200.22852,370.45931 L 196.88867,370.45931 L 195.76367,373.27767 L 194.62109,373.27767 L 198.05469,365.01009 L 199.08594,365.01009 L 202.51953,373.27767 M 199.90039,369.54525 L 198.57031,366.29329 L 197.24023,369.54525 L 199.90039,369.54525"
         style="font-size:12px;font-style:normal;font-variant:normal;font-weight:normal;font-stretch:normal;fill:#000000;fill-opacity:1;stroke:none;stroke-width:1px;stroke-linecap:butt;stroke-linejoin:miter;stroke-opacity:1;font-family:Sans;-inkscape-font-specification:Adobe Helvetica"
         transform="translate(105.779,18.218309)" />
      <rect
         style="fill:#ffcc00;fill-opacity:1;fill-rule:evenodd;stroke:#000000;stroke-width:1.25;stroke-linejoin:round;stroke-miterlimit:4;stroke-dasharray:none;stroke-dashoffset:0;stroke-opacity:1"
         id="rect2475"
         width="21.441357"
         height="20.647232"
         x="230"
         y="517.90479"
         ry="6.6044888" />
      <path
         id="flowRoot2407"
         d="M 433.36133,355.80892 L 432.27734,355.80892 L 432.27734,351.89485 L 427.69531,351.89485 L 427.69531,355.80892 L 426.61719,355.80892 L 426.61719,347.54134 L 427.69531,347.54134 L 427.69531,350.98665 L 432.27734,350.98665 L 432.27734,347.54134 L 433.36133,347.54134 L 433.36133,355.80892"
         style="font-size:12px;font-style:normal;font-variant:normal;font-weight:normal;font-stretch:normal;fill:#000000;fill-opacity:1;stroke:none;stroke-width:1px;stroke-linecap:butt;stroke-linejoin:miter;stroke-opacity:1;font-family:Sans;-inkscape-font-specification:Adobe Helvetica"
         transform="translate(-189.44729,176.55326)" />
      <rect
         style="fill:#ffcc00;fill-opacity:1;fill-rule:evenodd;stroke:#000000;stroke-width:1.25;stroke-linejoin:round;stroke-miterlimit:4;stroke-dasharray:none;stroke-dashoffset:0;stroke-opacity:1"
         id="rect2481"
         width="21.441357"
         height="20.647232"
         x="293.62863"
         y="517.9165"
         ry="6.6044888" />
      <path
         id="flowRoot2459"
         d="M 408.80273,603.59017 L 407.72461,603.59017 L 407.72461,595.32259 L 408.80273,595.32259 L 408.80273,603.59017"
         style="font-size:12px;font-style:normal;font-variant:normal;font-weight:normal;font-stretch:normal;fill:#000000;fill-opacity:1;stroke:none;stroke-width:1px;stroke-linecap:butt;stroke-linejoin:miter;stroke-opacity:1;font-family:Sans;-inkscape-font-specification:Adobe Helvetica"
         transform="translate(-103.91436,-71.216258)" />
      <path
         id="flowRoot3464"
         d="M 256.45508,555.99642 L 255.40039,555.99642 L 255.40039,549.11751 C 254.9082,549.6058 254.20508,549.84994 253.29102,549.84993 L 253.29102,548.86556 C 254.40429,548.86556 255.20312,548.46322 255.6875,547.65853 L 256.45508,547.65853 L 256.45508,555.99642"
         style="font-size:12px;font-style:normal;font-variant:normal;font-weight:normal;font-stretch:normal;fill:#000000;fill-opacity:1;stroke:none;stroke-width:1px;stroke-linecap:butt;stroke-linejoin:miter;stroke-opacity:1;font-family:Sans;-inkscape-font-specification:Adobe Helvetica"
         transform="translate(-1.224659,-8.4815094)" />
      <path
         id="flowRoot3472"
         d="M 258.10156,502.09017 L 252.60547,502.09017 L 252.60547,501.22884 C 253.58203,500.31478 254.39258,499.57064 255.03711,498.99642 C 255.68164,498.4222 256.15429,497.90658 256.45508,497.44954 C 256.75976,496.98861 256.9121,496.51986 256.91211,496.04329 C 256.9121,495.59017 256.75585,495.2308 256.44336,494.96517 C 256.13086,494.69955 255.72656,494.56674 255.23047,494.56673 C 254.54687,494.56674 253.82422,494.76596 253.0625,495.16439 L 252.76367,494.3265 C 253.58008,493.8851 254.43164,493.66439 255.31836,493.66439 C 256.11132,493.66439 256.7539,493.88705 257.24609,494.33235 C 257.74218,494.77767 257.99023,495.34799 257.99023,496.04329 C 257.99023,496.56283 257.83203,497.0765 257.51562,497.58431 C 257.19921,498.09212 256.68554,498.66244 255.97461,499.29525 L 253.93555,501.12923 L 258.10156,501.12923 L 258.10156,502.09017"
         style="font-size:12px;font-style:normal;font-variant:normal;font-weight:normal;font-stretch:normal;fill:#000000;fill-opacity:1;stroke:none;stroke-width:1px;stroke-linecap:butt;stroke-linejoin:miter;stroke-opacity:1;font-family:Sans;-inkscape-font-specification:Adobe Helvetica"
         transform="translate(-0.5391122,-1.4388642)" />
      <path
         id="flowRoot3480"
         d="M 255.74609,449.33626 C 256.1289,449.22298 256.51172,449.16634 256.89453,449.16634 C 257.78906,449.16634 258.5039,449.40658 259.03906,449.88704 C 259.57812,450.36361 259.84765,450.99642 259.84766,451.78548 C 259.84765,452.57845 259.57617,453.22884 259.0332,453.73665 C 258.49414,454.24446 257.78125,454.49837 256.89453,454.49837 C 255.92187,454.49837 255.03125,454.24642 254.22266,453.74251 L 254.52148,452.89876 C 255.25976,453.36361 256.02344,453.59603 256.8125,453.59603 C 257.36328,453.59603 257.82031,453.42806 258.18359,453.09212 C 258.55078,452.75618 258.73437,452.32064 258.73438,451.78548 C 258.73437,451.26595 258.55468,450.84994 258.19531,450.53743 C 257.83593,450.22494 257.375,450.06869 256.8125,450.06868 C 256.43359,450.06869 256.07031,450.13314 255.72266,450.26204 L 254.83203,450.09212 L 254.83203,446.07259 L 259.50195,446.07259 L 259.50195,447.03353 L 255.74609,447.03353 L 255.74609,449.33626"
         style="font-size:12px;font-style:normal;font-variant:normal;font-weight:normal;font-stretch:normal;fill:#000000;fill-opacity:1;stroke:none;stroke-width:1px;stroke-linecap:butt;stroke-linejoin:miter;stroke-opacity:1;font-family:Sans;-inkscape-font-specification:Adobe Helvetica"
         transform="translate(-2.0684088,-0.6462084)" />
      <path
         id="flowRoot3488"
         d="M 324.99023,548.07454 C 325.47851,548.22689 325.86523,548.49056 326.15039,548.86556 C 326.43554,549.24056 326.57812,549.68001 326.57812,550.18392 C 326.57812,550.89876 326.29687,551.51009 325.73438,552.0179 C 325.17578,552.52571 324.47265,552.77962 323.625,552.77962 C 322.64844,552.77962 321.75586,552.52767 320.94727,552.02376 L 321.24609,551.18001 C 321.98047,551.64486 322.74609,551.87728 323.54297,551.87728 C 324.08984,551.87728 324.54492,551.71907 324.9082,551.40267 C 325.27539,551.08236 325.45898,550.68001 325.45898,550.19564 C 325.45898,549.6683 325.27539,549.2679 324.9082,548.99446 C 324.54492,548.71712 324.01367,548.57845 323.31445,548.57845 L 323.05078,548.57845 L 323.05078,547.68782 C 324.49609,547.68783 325.21875,547.264 325.21875,546.41634 C 325.21875,546.00619 325.06835,545.68392 324.76758,545.44954 C 324.46679,545.21517 324.05859,545.09799 323.54297,545.09798 C 322.8789,545.09799 322.21094,545.29721 321.53906,545.69564 L 321.23438,544.85775 C 322.0039,544.41635 322.79297,544.19564 323.60156,544.19564 C 324.4375,544.19564 325.0957,544.39682 325.57617,544.79915 C 326.06054,545.2015 326.30273,545.74056 326.30273,546.41634 C 326.30273,547.16634 325.86523,547.71127 324.99023,548.0511 L 324.99023,548.07454"
         style="font-size:12px;font-style:normal;font-variant:normal;font-weight:normal;font-stretch:normal;fill:#000000;fill-opacity:1;stroke:none;stroke-width:1px;stroke-linecap:butt;stroke-linejoin:miter;stroke-opacity:1;font-family:Sans;-inkscape-font-specification:Adobe Helvetica"
         transform="translate(-5.2639961,-5.1065094)" />
      <path
         id="flowRoot3496"
         d="M 326.92383,498.0179 L 325.6875,498.0179 L 325.6875,499.84017 L 324.63281,499.84017 L 324.63281,498.0179 L 320.95898,498.0179 L 320.95898,497.04525 L 324.82617,491.514 L 325.6875,491.514 L 325.6875,497.04525 L 326.92383,497.04525 L 326.92383,498.0179 M 324.63281,497.04525 L 324.63281,493.23079 L 321.99023,497.04525 L 324.63281,497.04525"
         style="font-size:12px;font-style:normal;font-variant:normal;font-weight:normal;font-stretch:normal;fill:#000000;fill-opacity:1;stroke:none;stroke-width:1px;stroke-linecap:butt;stroke-linejoin:miter;stroke-opacity:1;font-family:Sans;-inkscape-font-specification:Adobe Helvetica"
         transform="translate(-5.3401611,0.6529325)" />
      <path
         id="flowRoot3504"
         d="M 384.66211,496.39485 C 384.84961,496.10189 385.12304,495.86947 385.48242,495.69759 C 385.84179,495.52181 386.2207,495.43392 386.61914,495.43392 C 387.34179,495.43392 387.94921,495.68978 388.44141,496.2015 C 388.93749,496.71322 389.18554,497.37337 389.18555,498.18196 C 389.18554,499.04915 388.94921,499.75618 388.47656,500.30306 C 388.0039,500.84993 387.34375,501.12337 386.49609,501.12337 C 385.55078,501.12337 384.82812,500.7679 384.32812,500.05696 C 383.82812,499.34603 383.57812,498.31283 383.57812,496.95735 C 383.57812,495.51595 383.86133,494.42025 384.42773,493.67025 C 384.99414,492.91635 385.77148,492.53939 386.75977,492.53939 C 387.48632,492.53939 388.15429,492.72885 388.76367,493.10775 L 388.42969,493.94564 C 387.8789,493.60971 387.32226,493.44174 386.75977,493.44173 C 386.0957,493.44174 385.58398,493.68978 385.22461,494.18587 C 384.86523,494.67806 384.67773,495.41439 384.66211,496.39485 M 386.47266,500.19759 C 386.99609,500.19759 387.39843,500.02572 387.67969,499.68196 C 387.96484,499.33822 388.10742,498.86165 388.10742,498.25228 C 388.10742,497.67025 387.95703,497.20541 387.65625,496.85775 C 387.35937,496.50619 386.95312,496.33041 386.4375,496.3304 C 386.29687,496.33041 386.15429,496.35189 386.00977,496.39485 C 385.86523,496.43783 385.72656,496.49837 385.59375,496.5765 C 385.46094,496.65462 385.33594,496.74642 385.21875,496.85189 C 385.10547,496.95736 384.99023,497.09212 384.87305,497.25618 C 384.75586,497.42025 384.69726,497.53353 384.69727,497.59603 C 384.69726,498.2679 384.85156,498.86947 385.16016,499.40071 C 385.46875,499.93197 385.90625,500.19759 386.47266,500.19759"
         style="font-size:12px;font-style:normal;font-variant:normal;font-weight:normal;font-stretch:normal;fill:#000000;fill-opacity:1;stroke:none;stroke-width:1px;stroke-linecap:butt;stroke-linejoin:miter;stroke-opacity:1;font-family:Sans;-inkscape-font-specification:Adobe Helvetica"
         transform="translate(-4.2545132,-0.3138643)" />
      <path
         id="flowRoot3512"
         d="M 452.95703,496.32454 L 449.30664,503.77767 L 448.19336,503.77767 L 451.79102,496.47103 L 447.57812,496.47103 L 447.57812,495.51009 L 452.95703,495.51009 L 452.95703,496.32454"
         style="font-size:12px;font-style:normal;font-variant:normal;font-weight:normal;font-stretch:normal;fill:#000000;fill-opacity:1;stroke:none;stroke-width:1px;stroke-linecap:butt;stroke-linejoin:miter;stroke-opacity:1;font-family:Sans;-inkscape-font-specification:Adobe Helvetica"
         transform="translate(-4.6258777,-3.2845671)" />
      <path
         id="flowRoot3520"
         d="M 388.07812,446.41829 C 388.58593,446.58627 388.98046,446.8558 389.26172,447.22689 C 389.54687,447.59798 389.68945,448.03158 389.68945,448.52767 C 389.68945,449.26595 389.42578,449.88314 388.89844,450.37923 C 388.37109,450.87532 387.69336,451.12337 386.86523,451.12337 C 386.0332,451.12337 385.35351,450.87532 384.82617,450.37923 C 384.29883,449.87923 384.03516,449.25814 384.03516,448.51595 C 384.03516,448.03548 384.17578,447.61165 384.45703,447.24446 C 384.73828,446.87337 385.1289,446.59798 385.62891,446.41829 C 385.25781,446.30892 384.95703,446.09408 384.72656,445.77376 C 384.49609,445.45345 384.38086,445.09213 384.38086,444.68978 C 384.38086,444.08041 384.60156,443.57064 385.04297,443.16048 C 385.48437,442.74643 386.08789,442.53939 386.85352,442.53939 C 387.60351,442.53939 388.20507,442.74447 388.6582,443.15462 C 389.11132,443.56088 389.33788,444.0726 389.33789,444.68978 C 389.33788,445.09603 389.2246,445.45736 388.99805,445.77376 C 388.77148,446.09017 388.46484,446.30502 388.07812,446.41829 M 386.86523,445.9847 C 387.26367,445.9847 387.5957,445.86947 387.86133,445.639 C 388.12695,445.40463 388.25976,445.08822 388.25977,444.68978 C 388.25976,444.31478 388.1289,444.014 387.86719,443.78743 C 387.60937,443.55697 387.27148,443.44174 386.85352,443.44173 C 386.43945,443.44174 386.10351,443.55502 385.8457,443.78157 C 385.59179,444.00814 385.46484,444.31088 385.46484,444.68978 C 385.46484,445.09603 385.60547,445.41439 385.88672,445.64485 C 386.16797,445.87142 386.49414,445.9847 386.86523,445.9847 M 386.86523,450.22103 C 387.35742,450.22103 387.76953,450.06282 388.10156,449.74642 C 388.4375,449.42611 388.60546,449.01986 388.60547,448.52767 C 388.60546,448.07455 388.43359,447.68783 388.08984,447.36751 C 387.74609,447.0472 387.33789,446.88705 386.86523,446.88704 C 386.38867,446.88705 385.97656,447.04916 385.62891,447.37337 C 385.28515,447.69759 385.11328,448.08236 385.11328,448.52767 C 385.11328,449.03548 385.27344,449.44564 385.59375,449.75814 C 385.91406,450.06673 386.33789,450.22103 386.86523,450.22103"
         style="font-size:12px;font-style:normal;font-variant:normal;font-weight:normal;font-stretch:normal;fill:#000000;fill-opacity:1;stroke:none;stroke-width:1px;stroke-linecap:butt;stroke-linejoin:miter;stroke-opacity:1;font-family:Sans;-inkscape-font-specification:Adobe Helvetica"
         transform="translate(-4.7115364,2.7287873)" />
      <path
         id="flowRoot3528"
         d="M 324.53906,400.67415 C 324.34765,400.97494 324.07226,401.21517 323.71289,401.39485 C 323.35351,401.57064 322.97656,401.65853 322.58203,401.65853 C 321.85937,401.65853 321.25,401.40072 320.75391,400.88509 C 320.26172,400.36556 320.01562,399.69955 320.01562,398.88704 C 320.01562,398.02767 320.25195,397.3226 320.72461,396.77181 C 321.20117,396.22103 321.86133,395.94564 322.70508,395.94564 C 323.64257,395.94564 324.36132,396.30502 324.86133,397.02376 C 325.36523,397.73861 325.61718,398.76791 325.61719,400.11165 C 325.61718,401.54525 325.33398,402.64095 324.76758,403.39876 C 324.20117,404.15267 323.42578,404.52962 322.44141,404.52962 C 322.10937,404.52962 321.74609,404.47493 321.35156,404.36556 C 320.95703,404.25618 320.60351,404.10579 320.29102,403.91439 L 320.63086,403.0765 C 321.24805,403.44368 321.85156,403.62728 322.44141,403.62728 C 323.10547,403.62728 323.61718,403.37923 323.97656,402.88314 C 324.33984,402.38704 324.52734,401.65072 324.53906,400.67415 M 322.76367,400.76204 C 322.90429,400.76205 323.04687,400.74056 323.19141,400.69759 C 323.33593,400.65072 323.47461,400.58822 323.60742,400.51009 C 323.74023,400.42806 323.86328,400.33431 323.97656,400.22884 C 324.09375,400.11947 324.21093,399.98275 324.32812,399.81868 C 324.44531,399.65072 324.5039,399.53548 324.50391,399.47298 C 324.5039,398.83627 324.3457,398.24056 324.0293,397.68587 C 323.71679,397.12728 323.2832,396.84799 322.72852,396.84798 C 322.2207,396.84799 321.82031,397.02767 321.52734,397.38704 C 321.23828,397.74642 321.09375,398.22299 321.09375,398.81673 C 321.09375,399.40267 321.24414,399.87337 321.54492,400.22884 C 321.84961,400.58431 322.25586,400.76205 322.76367,400.76204"
         style="font-size:12px;font-style:normal;font-variant:normal;font-weight:normal;font-stretch:normal;fill:#000000;fill-opacity:1;stroke:none;stroke-width:1px;stroke-linecap:butt;stroke-linejoin:miter;stroke-opacity:1;font-family:Sans;-inkscape-font-specification:Adobe Helvetica"
         transform="translate(-4.3206295,2.3651671)" />
    </g>
  </g>
</svg>
