<?xml version="1.0" encoding="UTF-8" standalone="no"?>
<!-- Created with Inkscape (http://www.inkscape.org/) -->
<svg
   xmlns:dc="http://purl.org/dc/elements/1.1/"
   xmlns:cc="http://creativecommons.org/ns#"
   xmlns:rdf="http://www.w3.org/1999/02/22-rdf-syntax-ns#"
   xmlns:svg="http://www.w3.org/2000/svg"
   xmlns="http://www.w3.org/2000/svg"
   xmlns:xlink="http://www.w3.org/1999/xlink"
   xmlns:sodipodi="http://sodipodi.sourceforge.net/DTD/sodipodi-0.dtd"
   xmlns:inkscape="http://www.inkscape.org/namespaces/inkscape"
   width="395.28"
   height="172.3"
   id="svg2"
   sodipodi:version="0.32"
   inkscape:version="0.46"
   sodipodi:docname="lexeme-variables.svg"
   inkscape:output_extension="org.inkscape.output.svg.inkscape"
   inkscape:export-filename="/home/fschaef/prj/quex/trunk/doc/source/figures/lexeme-variables.png"
   inkscape:export-xdpi="600"
   inkscape:export-ydpi="600"
   version="1.0">
  <defs
     id="defs4">
    <linearGradient
       id="linearGradient4644">
      <stop
         style="stop-color:#474747;stop-opacity:1;"
         offset="0"
         id="stop4646" />
      <stop
         id="stop4888"
         offset="1"
         style="stop-color:#5b5b5b;stop-opacity:0.49803922;" />
    </linearGradient>
    <marker
       inkscape:stockid="Arrow2Mend"
       orient="auto"
       refY="0"
       refX="0"
       id="Arrow2Mend"
       style="overflow:visible">
      <path
         id="path3337"
         style="font-size:12px;fill-rule:evenodd;stroke-width:0.625;stroke-linejoin:round"
         d="M 8.7185878,4.0337352 L -2.2072895,0.016013256 L 8.7185884,-4.0017078 C 6.97309,-1.6296469 6.9831476,1.6157441 8.7185878,4.0337352 z"
         transform="scale(-0.6,-0.6)" />
    </marker>
    <marker
       inkscape:stockid="Arrow2Lend"
       orient="auto"
       refY="0"
       refX="0"
       id="Arrow2Lend"
       style="overflow:visible">
      <path
         id="path3331"
         style="font-size:12px;fill-rule:evenodd;stroke-width:0.625;stroke-linejoin:round"
         d="M 8.7185878,4.0337352 L -2.2072895,0.016013256 L 8.7185884,-4.0017078 C 6.97309,-1.6296469 6.9831476,1.6157441 8.7185878,4.0337352 z"
         transform="matrix(-1.1,0,0,-1.1,-1.1,0)" />
    </marker>
    <inkscape:perspective
       sodipodi:type="inkscape:persp3d"
       inkscape:vp_x="0 : 526.18109 : 1"
       inkscape:vp_y="0 : 1000 : 0"
       inkscape:vp_z="744.09448 : 526.18109 : 1"
       inkscape:persp3d-origin="372.04724 : 350.78739 : 1"
       id="perspective10" />
    <radialGradient
       inkscape:collect="always"
       xlink:href="#linearGradient4644"
       id="radialGradient4650"
       cx="380"
       cy="382.36218"
       fx="380"
       fy="382.36218"
       r="10.5"
       gradientUnits="userSpaceOnUse"
       gradientTransform="translate(15.7205,12.300007)" />
  </defs>
  <sodipodi:namedview
     id="base"
     pagecolor="#ffffff"
     bordercolor="#666666"
     borderopacity="1.0"
     gridtolerance="10000"
     guidetolerance="10000"
     objecttolerance="10"
     inkscape:pageopacity="0.0"
     inkscape:pageshadow="2"
     inkscape:zoom="1.3548952"
     inkscape:cx="155.4878"
     inkscape:cy="74.334485"
     inkscape:document-units="px"
     inkscape:current-layer="layer1"
     showgrid="true"
     inkscape:window-width="1013"
     inkscape:window-height="716"
     inkscape:window-x="5"
     inkscape:window-y="21">
    <inkscape:grid
       type="xygrid"
       id="grid2383"
       visible="true"
       enabled="true" />
  </sodipodi:namedview>
  <metadata
     id="metadata7">
    <rdf:RDF>
      <cc:Work
         rdf:about="">
        <dc:format>image/svg+xml</dc:format>
        <dc:type
           rdf:resource="http://purl.org/dc/dcmitype/StillImage" />
      </cc:Work>
    </rdf:RDF>
  </metadata>
  <g
     inkscape:label="Layer 1"
     inkscape:groupmode="layer"
     id="layer1"
     transform="translate(-69.5,-312.36219)">
    <path
       style="fill:#ffffff;fill-opacity:1;fill-rule:evenodd;stroke:#000000;stroke-width:1;stroke-miterlimit:4;stroke-dashoffset:0;stroke-opacity:1"
       d="M 85.7205,384.66219 L 105.7205,384.66219 L 105.7205,404.66219 L 85.7205,404.66219 L 85.7205,384.66219 z"
       id="rect2459" />
    <path
       style="font-size:12px;font-style:normal;font-variant:normal;font-weight:bold;font-stretch:normal;text-align:start;line-height:125%;writing-mode:lr-tb;text-anchor:start;fill:#ffffff;fill-opacity:1;fill-rule:evenodd;stroke:#000000;stroke-width:1;stroke-miterlimit:4;stroke-dashoffset:0;stroke-opacity:1;font-family:Courier;-inkscape-font-specification:Courier Bold"
       d="M 265.7205,384.66219 L 285.7205,384.66219 L 285.7205,404.66219 L 265.7205,404.66219 L 265.7205,384.66219 z"
       id="rect2441" />
    <path
       style="fill:#ffffff;fill-opacity:1;fill-rule:evenodd;stroke:#000000;stroke-width:1;stroke-miterlimit:4;stroke-dashoffset:0;stroke-opacity:1"
       d="M 105.7205,384.66219 L 125.7205,384.66219 L 125.7205,404.66219 L 105.7205,404.66219 L 105.7205,384.66219 z"
       id="rect2461" />
    <path
       style="font-size:12px;font-style:normal;font-variant:normal;font-weight:bold;font-stretch:normal;text-align:start;line-height:125%;writing-mode:lr-tb;text-anchor:start;fill:#ffffff;fill-opacity:1;fill-rule:evenodd;stroke:#000000;stroke-width:1;stroke-miterlimit:4;stroke-dashoffset:0;stroke-opacity:1;font-family:Courier;-inkscape-font-specification:Courier Bold"
       d="M 285.7205,384.66219 L 305.7205,384.66219 L 305.7205,404.66219 L 285.7205,404.66219 L 285.7205,384.66219 z"
       id="rect2443" />
    <path
       style="fill:#ffffff;fill-opacity:1;fill-rule:evenodd;stroke:#000000;stroke-width:1;stroke-miterlimit:4;stroke-dashoffset:0;stroke-opacity:1"
       d="M 125.7205,384.66219 L 145.7205,384.66219 L 145.7205,404.66219 L 125.7205,404.66219 L 125.7205,384.66219 z"
       id="rect2463" />
    <path
       style="font-size:12px;font-style:normal;font-variant:normal;font-weight:bold;font-stretch:normal;text-align:start;line-height:125%;writing-mode:lr-tb;text-anchor:start;fill:#ffffff;fill-opacity:1;fill-rule:evenodd;stroke:#000000;stroke-width:1;stroke-miterlimit:4;stroke-dashoffset:0;stroke-opacity:1;font-family:Courier;-inkscape-font-specification:Courier Bold"
       d="M 305.7205,384.66219 L 325.7205,384.66219 L 325.7205,404.66219 L 305.7205,404.66219 L 305.7205,384.66219 z"
       id="rect2445" />
    <path
       style="fill:#ffffff;fill-opacity:1;fill-rule:evenodd;stroke:#000000;stroke-width:1;stroke-miterlimit:4;stroke-dashoffset:0;stroke-opacity:1"
       d="M 145.7205,384.66219 L 165.7205,384.66219 L 165.7205,404.66219 L 145.7205,404.66219 L 145.7205,384.66219 z"
       id="rect2465" />
    <path
       style="font-size:12px;font-style:normal;font-variant:normal;font-weight:bold;font-stretch:normal;text-align:start;line-height:125%;writing-mode:lr-tb;text-anchor:start;fill:#ffffff;fill-opacity:1;fill-rule:evenodd;stroke:#000000;stroke-width:1;stroke-miterlimit:4;stroke-dashoffset:0;stroke-opacity:1;font-family:Courier;-inkscape-font-specification:Courier Bold"
       d="M 325.7205,384.66219 L 345.7205,384.66219 L 345.7205,404.66219 L 325.7205,404.66219 L 325.7205,384.66219 z"
       id="rect2447" />
    <path
       style="fill:#ffffff;fill-opacity:1;fill-rule:evenodd;stroke:#000000;stroke-width:1;stroke-miterlimit:4;stroke-dashoffset:0;stroke-opacity:1"
       d="M 165.7205,384.66219 L 185.7205,384.66219 L 185.7205,404.66219 L 165.7205,404.66219 L 165.7205,384.66219 z"
       id="rect2467" />
    <path
       style="font-size:12px;font-style:normal;font-variant:normal;font-weight:bold;font-stretch:normal;text-align:start;line-height:125%;writing-mode:lr-tb;text-anchor:start;fill:#ffffff;fill-opacity:1;fill-rule:evenodd;stroke:#000000;stroke-width:1;stroke-miterlimit:4;stroke-dashoffset:0;stroke-opacity:1;font-family:Courier;-inkscape-font-specification:Courier Bold"
       d="M 345.7205,384.66219 L 365.7205,384.66219 L 365.7205,404.66219 L 345.7205,404.66219 L 345.7205,384.66219 z"
       id="rect2449" />
    <path
       style="fill:#ffffff;fill-opacity:1;fill-rule:evenodd;stroke:#000000;stroke-width:1;stroke-miterlimit:4;stroke-dashoffset:0;stroke-opacity:1"
       d="M 185.7205,384.66219 L 205.7205,384.66219 L 205.7205,404.66219 L 185.7205,404.66219 L 185.7205,384.66219 z"
       id="rect2469" />
    <path
       style="font-size:12px;font-style:normal;font-variant:normal;font-weight:bold;font-stretch:normal;text-align:start;line-height:125%;writing-mode:lr-tb;text-anchor:start;opacity:0.78894474;fill:url(#radialGradient4650);fill-opacity:1;fill-rule:evenodd;stroke:#000000;stroke-width:1;stroke-miterlimit:4;stroke-dashoffset:0;stroke-opacity:1;font-family:Courier;-inkscape-font-specification:Courier Bold"
       d="M 385.7205,384.66219 L 405.7205,384.66219 L 405.7205,404.66219 L 385.7205,404.66219 L 385.7205,384.66219 z"
       id="rect2453" />
    <path
       style="font-size:12px;font-style:normal;font-variant:normal;font-weight:bold;font-stretch:normal;text-align:start;line-height:125%;writing-mode:lr-tb;text-anchor:start;fill:#ffffff;fill-opacity:1;fill-rule:evenodd;stroke:#000000;stroke-width:1;stroke-miterlimit:4;stroke-dashoffset:0;stroke-opacity:1;font-family:Courier;-inkscape-font-specification:Courier Bold"
       d="M 365.7205,384.66219 L 385.7205,384.66219 L 385.7205,404.66219 L 365.7205,404.66219 L 365.7205,384.66219 z"
       id="rect2451" />
    <path
       style="font-size:12px;font-style:normal;font-variant:normal;font-weight:bold;font-stretch:normal;text-align:start;line-height:125%;writing-mode:lr-tb;text-anchor:start;fill:#ffffff;fill-opacity:1;fill-rule:evenodd;stroke:#000000;stroke-width:1;stroke-miterlimit:4;stroke-dashoffset:0;stroke-opacity:1;font-family:Courier;-inkscape-font-specification:Courier Bold"
       d="M 205.7205,384.66219 L 225.7205,384.66219 L 225.7205,404.66219 L 205.7205,404.66219 L 205.7205,384.66219 z"
       id="rect2471" />
    <path
       style="font-size:12px;font-style:normal;font-variant:normal;font-weight:bold;font-stretch:normal;text-align:start;line-height:125%;writing-mode:lr-tb;text-anchor:start;fill:#ffffff;fill-opacity:1;fill-rule:evenodd;stroke:#000000;stroke-width:1;stroke-miterlimit:4;stroke-dashoffset:0;stroke-opacity:1;font-family:Courier;-inkscape-font-specification:Courier Bold"
       d="M 225.7205,384.66219 L 245.7205,384.66219 L 245.7205,404.66219 L 225.7205,404.66219 L 225.7205,384.66219 z"
       id="rect2473" />
    <path
       style="fill:#ffffff;fill-opacity:1;fill-rule:evenodd;stroke:#000000;stroke-width:1;stroke-miterlimit:4;stroke-dashoffset:0;stroke-opacity:1"
       d="M 405.7205,384.66219 L 425.7205,384.66219 L 425.7205,404.66219 L 405.7205,404.66219 L 405.7205,384.66219 z"
       id="rect2455" />
    <path
       style="font-size:12px;font-style:normal;font-variant:normal;font-weight:bold;font-stretch:normal;text-align:start;line-height:125%;writing-mode:lr-tb;text-anchor:start;fill:#ffffff;fill-opacity:1;fill-rule:evenodd;stroke:#000000;stroke-width:1;stroke-miterlimit:4;stroke-dashoffset:0;stroke-opacity:1;font-family:Courier;-inkscape-font-specification:Courier Bold"
       d="M 245.7205,384.66219 L 265.7205,384.66219 L 265.7205,404.66219 L 245.7205,404.66219 L 245.7205,384.66219 z"
       id="rect2475" />
    <path
       style="fill:#ffffff;fill-opacity:1;fill-rule:evenodd;stroke:#000000;stroke-width:1;stroke-miterlimit:4;stroke-dashoffset:0;stroke-opacity:1"
       d="M 425.7205,384.66219 L 445.7205,384.66219 L 445.7205,404.66219 L 425.7205,404.66219 L 425.7205,384.66219 z"
       id="rect2457" />
    <path
       style="font-size:12px;font-style:normal;font-variant:normal;font-weight:bold;font-stretch:normal;text-align:start;line-height:125%;writing-mode:lr-tb;text-anchor:start;fill:#ffffff;fill-opacity:1;fill-rule:evenodd;stroke:#000000;stroke-width:1;stroke-miterlimit:4;stroke-dashoffset:0;stroke-opacity:1;font-family:Courier;-inkscape-font-specification:Courier Bold"
       d="M 245.7205,384.66219 L 265.7205,384.66219 L 265.7205,404.66219 L 245.7205,404.66219 L 245.7205,384.66219 z"
       id="rect2477" />
    <path
       style="fill:#ffffff;fill-opacity:1;fill-rule:evenodd;stroke:#000000;stroke-width:1;stroke-miterlimit:4;stroke-dashoffset:0;stroke-opacity:1"
       d="M 425.7205,384.66219 L 445.7205,384.66219 L 445.7205,404.66219 L 425.7205,404.66219 L 425.7205,384.66219 z"
       id="rect2439" />
    <path
       style="font-size:12px;font-style:normal;font-variant:normal;font-weight:bold;font-stretch:normal;text-align:start;line-height:125%;writing-mode:lr-tb;text-anchor:start;fill:#000000;fill-opacity:1;stroke:none;stroke-width:1px;stroke-linecap:butt;stroke-linejoin:miter;stroke-opacity:1;font-family:Courier;-inkscape-font-specification:Courier Bold"
       d="M 215.98652,391.99419 C 213.85052,391.99419 213.55052,394.44219 213.55052,395.90619 C 213.55052,397.34619 213.83852,399.83019 215.98652,399.83019 C 218.14652,399.83019 218.42252,397.34619 218.42252,395.90619 C 218.42252,394.45419 218.13452,391.99419 215.98652,391.99419 M 215.98652,392.99019 C 217.21052,392.99019 217.33052,394.92219 217.33052,395.90619 C 217.33052,396.80619 217.23452,398.83419 215.98652,398.83419 C 214.78652,398.83419 214.64252,396.92619 214.64252,395.90619 C 214.64252,394.87419 214.83452,393.86619 215.12252,393.45819 C 215.43452,393.03819 215.81852,392.99019 215.98652,392.99019"
       id="flowRoot2479" />
    <path
       style="font-size:12px;font-style:normal;font-variant:normal;font-weight:bold;font-stretch:normal;text-align:start;line-height:125%;writing-mode:lr-tb;text-anchor:start;fill:#000000;fill-opacity:1;stroke:none;stroke-width:1px;stroke-linecap:butt;stroke-linejoin:miter;stroke-opacity:1;font-family:Courier;-inkscape-font-specification:Courier Bold"
       d="M 232.65937,397.81419 C 232.11937,397.81419 231.53137,398.19819 231.53137,398.83419 C 231.53137,399.48219 232.11937,399.85419 232.65937,399.85419 C 233.21137,399.85419 233.78737,399.47019 233.78737,398.83419 C 233.78737,398.18619 233.17537,397.81419 232.65937,397.81419"
       id="text2487" />
    <path
       style="font-size:12px;font-style:normal;font-variant:normal;font-weight:bold;font-stretch:normal;text-align:start;line-height:125%;writing-mode:lr-tb;text-anchor:start;fill:#000000;fill-opacity:1;stroke:none;stroke-width:1px;stroke-linecap:butt;stroke-linejoin:miter;stroke-opacity:1;font-family:Courier;-inkscape-font-specification:Courier Bold"
       d="M 253.8548,399.33819 C 254.4668,399.59019 255.03081,399.83019 255.7868,399.83019 C 257.1908,399.83019 258.3548,398.90619 258.3548,397.44219 C 258.3548,396.68619 257.9828,395.95419 257.3108,395.57019 C 257.5628,395.31819 257.9948,394.89819 257.9948,394.01019 C 257.9948,392.76219 256.8908,391.99419 255.7868,391.99419 C 254.91081,391.99419 254.2508,392.41419 253.4948,392.91819 L 254.0228,393.78219 C 254.9108,393.23019 255.23481,393.03819 255.7748,393.03819 C 256.2788,393.03819 256.9268,393.31419 256.9268,394.05819 C 256.9268,395.18619 255.7988,395.19819 255.1988,395.21019 L 255.1988,396.20619 C 255.5588,396.18219 255.7748,396.18219 255.8228,396.18219 C 256.7228,396.18219 257.2868,396.65019 257.2868,397.45419 C 257.2868,398.39019 256.5188,398.81019 255.8228,398.81019 C 255.07881,398.81019 254.3108,398.45019 253.7828,398.18619 L 253.3748,399.14619 L 253.8548,399.33819"
       id="text2491" />
    <path
       style="font-size:12px;font-style:normal;font-variant:normal;font-weight:bold;font-stretch:normal;text-align:start;line-height:125%;writing-mode:lr-tb;text-anchor:start;fill:#000000;fill-opacity:1;stroke:none;stroke-width:1px;stroke-linecap:butt;stroke-linejoin:miter;stroke-opacity:1;font-family:Courier;-inkscape-font-specification:Courier Bold"
       d="M 273.99245,393.13419 L 274.41245,394.07019 L 276.15245,393.29019 L 276.15245,398.67819 L 274.13645,398.67819 L 274.13645,399.66219 L 279.18845,399.66219 L 279.18845,398.67819 L 277.19645,398.67819 L 277.19645,391.99419 L 276.54845,391.99419 L 273.99245,393.13419"
       id="text2515" />
    <path
       style="font-size:12px;font-style:normal;font-variant:normal;font-weight:bold;font-stretch:normal;text-align:start;line-height:125%;writing-mode:lr-tb;text-anchor:start;fill:#000000;fill-opacity:1;stroke:none;stroke-width:1px;stroke-linecap:butt;stroke-linejoin:miter;stroke-opacity:1;font-family:Courier;-inkscape-font-specification:Courier Bold"
       d="M 273.99245,393.13419 L 274.41245,394.07019 L 276.15245,393.29019 L 276.15245,398.67819 L 274.13645,398.67819 L 274.13645,399.66219 L 279.18845,399.66219 L 279.18845,398.67819 L 277.19645,398.67819 L 277.19645,391.99419 L 276.54845,391.99419 L 273.99245,393.13419"
       id="text2519" />
    <path
       style="font-size:12px;font-style:normal;font-variant:normal;font-weight:bold;font-stretch:normal;text-align:start;line-height:125%;writing-mode:lr-tb;text-anchor:start;fill:#000000;fill-opacity:1;stroke:none;stroke-width:1px;stroke-linecap:butt;stroke-linejoin:miter;stroke-opacity:1;font-family:Courier;-inkscape-font-specification:Courier Bold"
       d="M 273.99245,393.13419 L 274.41245,394.07019 L 276.15245,393.29019 L 276.15245,398.67819 L 274.13645,398.67819 L 274.13645,399.66219 L 279.18845,399.66219 L 279.18845,398.67819 L 277.19645,398.67819 L 277.19645,391.99419 L 276.54845,391.99419 L 273.99245,393.13419"
       id="text2495" />
    <path
       style="font-size:12px;font-style:normal;font-variant:normal;font-weight:bold;font-stretch:normal;text-align:start;line-height:125%;writing-mode:lr-tb;text-anchor:start;fill:#000000;fill-opacity:1;stroke:none;stroke-width:1px;stroke-linecap:butt;stroke-linejoin:miter;stroke-opacity:1;font-family:Courier;-inkscape-font-specification:Courier Bold"
       d="M 297.28809,391.99419 L 295.83609,391.99419 L 292.93209,396.72219 L 292.93209,397.68219 L 296.24409,397.68219 L 296.24409,398.67819 L 294.68409,398.67819 L 294.68409,399.66219 L 298.44009,399.66219 L 298.44009,398.67819 L 297.28809,398.67819 L 297.28809,397.68219 L 298.44009,397.68219 L 298.44009,396.66219 L 297.28809,396.66219 L 297.28809,391.99419 M 293.98809,396.66219 L 296.22009,392.94219 L 296.24409,392.94219 L 296.24409,396.66219 L 293.98809,396.66219"
       id="text2499" />
    <path
       style="font-size:12px;font-style:normal;font-variant:normal;font-weight:bold;font-stretch:normal;text-align:start;line-height:125%;writing-mode:lr-tb;text-anchor:start;fill:#000000;fill-opacity:1;stroke:none;stroke-width:1px;stroke-linecap:butt;stroke-linejoin:miter;stroke-opacity:1;font-family:Courier;-inkscape-font-specification:Courier Bold"
       d="M 333.84184,392.16219 L 333.84184,396.05019 L 334.39384,396.36219 C 334.71784,396.09819 335.18584,395.73819 335.91784,395.73819 C 336.84184,395.73819 337.42984,396.41019 337.42984,397.27419 C 337.42984,397.89819 337.11784,398.78619 335.79784,398.78619 C 334.99384,398.78619 334.27384,398.46219 333.85384,398.28219 C 333.84184,398.27019 333.76984,398.24619 333.74584,398.23419 L 333.37384,399.20619 C 334.36984,399.59019 334.96984,399.83019 335.85784,399.83019 C 337.84984,399.83019 338.53384,398.30619 338.53384,397.23819 C 338.53384,395.84619 337.51384,394.74219 336.00184,394.74219 C 335.42584,394.74219 334.99384,394.89819 334.83784,394.95819 L 334.83784,393.19419 L 338.18584,393.19419 L 338.18584,392.16219 L 333.84184,392.16219"
       id="text2503" />
    <path
       style="font-size:12px;font-style:normal;font-variant:normal;font-weight:bold;font-stretch:normal;text-align:start;line-height:125%;writing-mode:lr-tb;text-anchor:start;fill:#000000;fill-opacity:1;stroke:none;stroke-width:1px;stroke-linecap:butt;stroke-linejoin:miter;stroke-opacity:1;font-family:Courier;-inkscape-font-specification:Courier Bold"
       d="M 353.20809,399.80619 C 353.46009,399.81819 353.80809,399.84219 354.12009,399.84219 C 354.56409,399.84219 355.98009,399.84219 356.90409,398.91819 C 357.98409,397.83819 358.15209,396.19419 358.15209,395.40219 C 358.15209,392.7862 356.62809,391.99419 355.58409,391.99419 C 354.2761,391.99419 353.30409,393.11019 353.30409,394.43019 C 353.30409,395.77419 354.2761,396.91419 355.57209,396.91419 C 355.71609,396.91419 356.32809,396.91419 356.95209,396.45819 C 356.59209,398.79819 354.87609,398.79819 354.14409,398.79819 C 354.06009,398.79819 353.79609,398.79819 353.28009,398.77419 L 353.20809,399.80619 M 357.03609,394.80219 C 356.65209,395.76219 355.83609,395.87019 355.56009,395.87019 C 354.86409,395.87019 354.40809,395.17419 354.40809,394.43019 C 354.40809,393.56619 354.94809,393.03819 355.59609,393.03819 C 356.17209,393.03819 356.95209,393.51819 357.03609,394.80219"
       id="text2507" />
    <path
       style="font-size:12px;font-style:normal;font-variant:normal;font-weight:bold;font-stretch:normal;text-align:start;line-height:125%;writing-mode:lr-tb;text-anchor:start;fill:#000000;fill-opacity:1;stroke:none;stroke-width:1px;stroke-linecap:butt;stroke-linejoin:miter;stroke-opacity:1;font-family:Courier;-inkscape-font-specification:Courier Bold"
       d="M 377.31598,397.50219 L 377.31598,398.67819 L 374.93998,398.67819 L 376.10398,397.62219 C 377.73598,396.13419 378.33598,395.52219 378.33598,394.38219 C 378.33598,393.06219 377.25598,391.99419 375.91198,391.99419 C 375.53998,391.99419 374.48398,392.05419 373.55998,393.18219 L 373.55998,394.22619 L 374.63998,394.22619 C 374.62798,394.16619 374.61598,394.04619 374.61598,393.97419 C 374.61598,393.20619 375.50398,393.05019 375.87598,393.05019 C 376.73998,393.05019 377.24398,393.63819 377.24398,394.34619 C 377.24398,394.81419 377.12398,395.17419 376.61998,395.67819 C 375.63599,396.66219 373.94398,398.16219 373.33198,398.67819 L 373.33198,399.66219 L 378.32398,399.66219 L 378.32398,397.50219 L 377.31598,397.50219"
       id="text2511" />
    <path
       style="font-size:12px;font-style:normal;font-variant:normal;font-weight:bold;font-stretch:normal;text-align:start;line-height:125%;writing-mode:lr-tb;text-anchor:start;fill:#000000;fill-opacity:1;stroke:none;stroke-width:1px;stroke-linecap:butt;stroke-linejoin:miter;stroke-opacity:1;font-family:Courier;-inkscape-font-specification:Courier Bold"
       d="M 313.99245,393.13419 L 314.41245,394.07019 L 316.15245,393.29019 L 316.15245,398.67819 L 314.13645,398.67819 L 314.13645,399.66219 L 319.18845,399.66219 L 319.18845,398.67819 L 317.19645,398.67819 L 317.19645,391.99419 L 316.54845,391.99419 L 313.99245,393.13419"
       id="text2523" />
    <path
       style="fill:none;fill-rule:evenodd;stroke:#000000;stroke-width:1px;stroke-linecap:butt;stroke-linejoin:miter;marker-end:url(#Arrow2Mend);stroke-opacity:1"
       d="M 205.7205,454.66219 L 205.7205,404.66219"
       id="path4632"
       sodipodi:nodetypes="cc" />
    <path
       style="fill:none;fill-rule:evenodd;stroke:#000000;stroke-width:1px;stroke-linecap:butt;stroke-linejoin:miter;marker-end:url(#Arrow2Mend);stroke-opacity:1"
       d="M 255.7205,370.66219 L 205.7205,370.66219"
       id="path4642"
       sodipodi:nodetypes="cc" />
    <path
       sodipodi:nodetypes="cc"
       id="path4618"
       d="M 335.7205,370.66219 L 385.7205,370.66219"
       style="fill:none;fill-rule:evenodd;stroke:#000000;stroke-width:1px;stroke-linecap:butt;stroke-linejoin:miter;marker-end:url(#Arrow2Mend);stroke-opacity:1" />
    <path
       style="fill:none;fill-rule:evenodd;stroke:#000000;stroke-width:1px;stroke-linecap:butt;stroke-linejoin:miter;marker-end:url(#Arrow2Mend);stroke-opacity:1"
       d="M 385.7205,454.66219 L 385.7205,404.66219"
       id="path2535"
       sodipodi:nodetypes="cc" />
    <path
       style="font-size:12px;font-style:normal;font-variant:normal;font-weight:bold;font-stretch:normal;text-align:start;line-height:125%;writing-mode:lr-tb;text-anchor:start;fill:#000000;fill-opacity:1;stroke:none;stroke-width:1px;stroke-linecap:butt;stroke-linejoin:miter;stroke-opacity:1;font-family:Courier;-inkscape-font-specification:Courier Bold"
       d="M 205.2965,459.14151 L 205.2965,460.12551 L 206.4485,460.12551 L 206.4485,465.15351 L 205.2965,465.15351 L 205.2965,466.13751 L 211.3445,466.13751 L 211.5005,462.77751 L 210.4805,462.77751 L 210.3245,465.15351 L 207.4925,465.15351 L 207.4925,460.12551 L 208.9325,460.12551 L 208.9325,459.14151 L 205.2965,459.14151 M 218.34781,464.40951 C 217.69981,464.79351 216.69181,465.27351 215.69581,465.27351 C 214.13581,465.27351 213.85981,464.24151 213.75181,463.80951 L 218.45581,463.80951 C 218.46781,463.70151 218.49181,463.35351 218.49181,463.07751 C 218.49181,461.90151 217.53181,460.53351 215.63581,460.53351 C 213.78781,460.53351 212.64781,461.90151 212.64781,463.44951 C 212.64781,464.96151 213.70381,466.30551 215.71981,466.30551 C 216.65581,466.30551 217.74781,465.95751 218.82781,465.33351 L 218.34781,464.40951 M 213.82381,462.82551 C 213.94381,462.50151 214.31581,461.56551 215.64781,461.56551 C 215.98381,461.56551 217.06381,461.58951 217.38781,462.82551 L 213.82381,462.82551 M 219.47113,460.70151 L 219.47113,461.68551 L 220.28712,461.68551 L 221.97912,463.29351 L 220.15513,465.15351 L 219.29113,465.15351 L 219.29113,466.13751 L 222.06312,466.13751 L 222.06312,465.15351 L 221.51113,465.15351 L 222.68712,464.00151 L 223.85113,465.15351 L 223.29912,465.15351 L 223.29912,466.13751 L 226.13113,466.13751 L 226.13113,465.15351 L 225.31513,465.15351 L 223.39512,463.29351 L 225.03912,461.68551 L 225.83112,461.68551 L 225.83112,460.70151 L 223.15513,460.70151 L 223.15513,461.68551 L 223.69513,461.68551 L 222.68712,462.58551 L 221.75112,461.68551 L 222.25513,461.68551 L 222.25513,460.70151 L 219.47113,460.70151 M 232.73844,464.40951 C 232.09044,464.79351 231.08244,465.27351 230.08644,465.27351 C 228.52644,465.27351 228.25044,464.24151 228.14244,463.80951 L 232.84644,463.80951 C 232.85844,463.70151 232.88244,463.35351 232.88244,463.07751 C 232.88244,461.90151 231.92244,460.53351 230.02644,460.53351 C 228.17844,460.53351 227.03844,461.90151 227.03844,463.44951 C 227.03844,464.96151 228.09444,466.30551 230.11044,466.30551 C 231.04644,466.30551 232.13844,465.95751 233.21844,465.33351 L 232.73844,464.40951 M 228.21444,462.82551 C 228.33444,462.50151 228.70644,461.56551 230.03844,461.56551 C 230.37444,461.56551 231.45444,461.58951 231.77844,462.82551 L 228.21444,462.82551 M 233.50175,460.70151 L 233.50175,461.68551 L 234.18575,461.68551 L 234.18575,465.15351 L 233.50175,465.15351 L 233.50175,466.13751 L 236.05775,466.13751 L 236.05775,465.15351 L 235.22975,465.15351 L 235.22975,462.08151 C 235.50575,461.81751 235.78175,461.56551 236.11775,461.56551 C 236.64575,461.56551 236.64575,462.26151 236.64575,462.70551 L 236.64575,466.13751 L 238.39775,466.13751 L 238.39775,465.15351 L 237.68975,465.15351 L 237.68975,462.18951 C 237.91775,461.91351 238.16975,461.56551 238.57775,461.56551 C 239.10575,461.56551 239.10575,462.05751 239.10575,462.75351 L 239.10575,466.13751 L 240.70175,466.13751 L 240.70175,465.15351 L 240.14975,465.15351 L 240.14975,462.75351 C 240.14975,462.12951 240.13775,460.53351 238.62575,460.53351 C 238.01375,460.53351 237.62975,460.86951 237.35375,461.09751 C 237.25775,460.96551 236.98175,460.53351 236.36975,460.53351 C 235.80575,460.53351 235.42175,460.91751 235.21775,461.09751 L 235.21775,460.70151 L 233.50175,460.70151 M 247.12906,464.40951 C 246.48106,464.79351 245.47306,465.27351 244.47706,465.27351 C 242.91706,465.27351 242.64106,464.24151 242.53306,463.80951 L 247.23706,463.80951 C 247.24906,463.70151 247.27306,463.35351 247.27306,463.07751 C 247.27306,461.90151 246.31306,460.53351 244.41706,460.53351 C 242.56906,460.53351 241.42906,461.90151 241.42906,463.44951 C 241.42906,464.96151 242.48506,466.30551 244.50106,466.30551 C 245.43706,466.30551 246.52906,465.95751 247.60906,465.33351 L 247.12906,464.40951 M 242.60506,462.82551 C 242.72506,462.50151 243.09706,461.56551 244.42906,461.56551 C 244.76506,461.56551 245.84506,461.58951 246.16906,462.82551 L 242.60506,462.82551 M 205.2965,474.14151 L 205.2965,475.12551 L 206.4485,475.12551 L 206.4485,480.15351 L 205.2965,480.15351 L 205.2965,481.13751 L 211.3445,481.13751 L 211.5005,477.77751 L 210.4805,477.77751 L 210.3245,480.15351 L 207.4925,480.15351 L 207.4925,475.12551 L 208.9325,475.12551 L 208.9325,474.14151 L 205.2965,474.14151 M 218.34781,479.40951 C 217.69981,479.79351 216.69181,480.27351 215.69581,480.27351 C 214.13581,480.27351 213.85981,479.24151 213.75181,478.80951 L 218.45581,478.80951 C 218.46781,478.70151 218.49181,478.35351 218.49181,478.07751 C 218.49181,476.90151 217.53181,475.53351 215.63581,475.53351 C 213.78781,475.53351 212.64781,476.90151 212.64781,478.44951 C 212.64781,479.96151 213.70381,481.30551 215.71981,481.30551 C 216.65581,481.30551 217.74781,480.95751 218.82781,480.33351 L 218.34781,479.40951 M 213.82381,477.82551 C 213.94381,477.50151 214.31581,476.56551 215.64781,476.56551 C 215.98381,476.56551 217.06381,476.58951 217.38781,477.82551 L 213.82381,477.82551 M 219.47113,475.70151 L 219.47113,476.68551 L 220.28712,476.68551 L 221.97912,478.29351 L 220.15513,480.15351 L 219.29113,480.15351 L 219.29113,481.13751 L 222.06312,481.13751 L 222.06312,480.15351 L 221.51113,480.15351 L 222.68712,479.00151 L 223.85113,480.15351 L 223.29912,480.15351 L 223.29912,481.13751 L 226.13113,481.13751 L 226.13113,480.15351 L 225.31513,480.15351 L 223.39512,478.29351 L 225.03912,476.68551 L 225.83112,476.68551 L 225.83112,475.70151 L 223.15513,475.70151 L 223.15513,476.68551 L 223.69513,476.68551 L 222.68712,477.58551 L 221.75112,476.68551 L 222.25513,476.68551 L 222.25513,475.70151 L 219.47113,475.70151 M 232.73844,479.40951 C 232.09044,479.79351 231.08244,480.27351 230.08644,480.27351 C 228.52644,480.27351 228.25044,479.24151 228.14244,478.80951 L 232.84644,478.80951 C 232.85844,478.70151 232.88244,478.35351 232.88244,478.07751 C 232.88244,476.90151 231.92244,475.53351 230.02644,475.53351 C 228.17844,475.53351 227.03844,476.90151 227.03844,478.44951 C 227.03844,479.96151 228.09444,481.30551 230.11044,481.30551 C 231.04644,481.30551 232.13844,480.95751 233.21844,480.33351 L 232.73844,479.40951 M 228.21444,477.82551 C 228.33444,477.50151 228.70644,476.56551 230.03844,476.56551 C 230.37444,476.56551 231.45444,476.58951 231.77844,477.82551 L 228.21444,477.82551 M 233.50175,475.70151 L 233.50175,476.68551 L 234.18575,476.68551 L 234.18575,480.15351 L 233.50175,480.15351 L 233.50175,481.13751 L 236.05775,481.13751 L 236.05775,480.15351 L 235.22975,480.15351 L 235.22975,477.08151 C 235.50575,476.81751 235.78175,476.56551 236.11775,476.56551 C 236.64575,476.56551 236.64575,477.26151 236.64575,477.70551 L 236.64575,481.13751 L 238.39775,481.13751 L 238.39775,480.15351 L 237.68975,480.15351 L 237.68975,477.18951 C 237.91775,476.91351 238.16975,476.56551 238.57775,476.56551 C 239.10575,476.56551 239.10575,477.05751 239.10575,477.75351 L 239.10575,481.13751 L 240.70175,481.13751 L 240.70175,480.15351 L 240.14975,480.15351 L 240.14975,477.75351 C 240.14975,477.12951 240.13775,475.53351 238.62575,475.53351 C 238.01375,475.53351 237.62975,475.86951 237.35375,476.09751 C 237.25775,475.96551 236.98175,475.53351 236.36975,475.53351 C 235.80575,475.53351 235.42175,475.91751 235.21775,476.09751 L 235.21775,475.70151 L 233.50175,475.70151 M 247.12906,479.40951 C 246.48106,479.79351 245.47306,480.27351 244.47706,480.27351 C 242.91706,480.27351 242.64106,479.24151 242.53306,478.80951 L 247.23706,478.80951 C 247.24906,478.70151 247.27306,478.35351 247.27306,478.07751 C 247.27306,476.90151 246.31306,475.53351 244.41706,475.53351 C 242.56906,475.53351 241.42906,476.90151 241.42906,478.44951 C 241.42906,479.96151 242.48506,481.30551 244.50106,481.30551 C 245.43706,481.30551 246.52906,480.95751 247.60906,480.33351 L 247.12906,479.40951 M 242.60506,477.82551 C 242.72506,477.50151 243.09706,476.56551 244.42906,476.56551 C 244.76506,476.56551 245.84506,476.58951 246.16906,477.82551 L 242.60506,477.82551 M 248.30037,474.14151 L 248.30037,475.12551 L 249.27237,475.12551 L 249.27237,480.15351 L 248.30037,480.15351 L 248.30037,481.13751 L 251.60037,481.13751 C 252.50037,481.13751 254.56437,481.13751 254.56437,479.08551 C 254.56437,477.98151 253.79637,477.58551 253.49638,477.42951 C 254.14437,476.93751 254.14438,476.26551 254.14438,476.06151 C 254.14438,475.47351 253.89237,474.99351 253.50838,474.65751 C 253.14838,474.34551 252.68037,474.14151 251.70838,474.14151 L 248.30037,474.14151 M 251.68438,475.12551 C 251.97237,475.12551 253.07637,475.12551 253.07637,476.00151 C 253.07637,476.99751 252.10437,477.00951 251.62437,477.00951 L 250.31638,477.00951 L 250.31638,475.12551 L 251.68438,475.12551 M 251.52837,477.99351 C 252.10437,477.99351 253.48438,478.01751 253.48438,479.14551 C 253.48438,480.06951 252.69237,480.15351 251.57637,480.15351 L 250.31638,480.15351 L 250.31638,477.99351 L 251.52837,477.99351 M 261.51969,479.40951 C 260.87169,479.79351 259.86369,480.27351 258.86769,480.27351 C 257.30769,480.27351 257.03169,479.24151 256.92369,478.80951 L 261.62769,478.80951 C 261.63969,478.70151 261.66369,478.35351 261.66369,478.07751 C 261.66369,476.90151 260.70369,475.53351 258.80769,475.53351 C 256.95969,475.53351 255.81969,476.90151 255.81969,478.44951 C 255.81969,479.96151 256.87569,481.30551 258.89169,481.30551 C 259.82769,481.30551 260.91969,480.95751 261.99969,480.33351 L 261.51969,479.40951 M 256.99569,477.82551 C 257.11569,477.50151 257.48769,476.56551 258.81969,476.56551 C 259.15569,476.56551 260.23569,476.58951 260.55969,477.82551 L 256.99569,477.82551 M 267.059,475.70151 L 267.059,476.21751 C 266.543,475.80951 265.883,475.65351 265.427,475.65351 C 264.011,475.65351 262.715,476.79351 262.715,478.35351 C 262.715,479.80551 263.891,481.04151 265.415,481.04151 C 266.339,481.04151 266.855,480.62151 267.059,480.45351 C 267.059,481.07751 267.059,481.60551 266.399,481.84551 C 266.135,481.94151 265.847,481.97751 264.227,481.97751 L 264.227,482.96151 L 265.475,482.96151 C 266.999,482.96151 268.103,482.52951 268.103,480.59751 L 268.103,476.68551 L 269.051,476.68551 L 269.051,475.70151 L 267.059,475.70151 M 267.059,478.36551 C 267.059,479.21751 266.399,480.00951 265.451,480.00951 C 264.551,480.00951 263.819,479.26551 263.819,478.34151 C 263.819,477.36951 264.623,476.68551 265.463,476.68551 C 266.303,476.68551 267.059,477.36951 267.059,478.36551 M 270.85831,475.70151 L 270.85831,476.68551 L 272.57431,476.68551 L 272.57431,480.15351 L 270.53431,480.15351 L 270.53431,481.13751 L 275.62231,481.13751 L 275.62231,480.15351 L 273.61831,480.15351 L 273.61831,475.70151 L 270.85831,475.70151 M 272.34631,474.65751 L 273.61831,474.65751 L 273.61831,473.07351 L 272.34631,473.07351 L 272.34631,474.65751 M 276.94963,475.70151 L 276.94963,476.68551 L 277.92162,476.68551 L 277.92162,480.15351 L 276.92563,480.15351 L 276.92563,481.13751 L 279.87763,481.13751 L 279.87763,480.15351 L 278.96562,480.15351 L 278.96562,477.38151 C 279.48162,477.00951 280.05763,476.56551 280.72962,476.56551 C 281.31762,476.56551 281.62963,477.09351 281.62963,477.74151 L 281.62963,480.15351 L 280.62162,480.15351 L 280.62162,481.13751 L 283.64562,481.13751 L 283.64562,480.15351 L 282.67362,480.15351 L 282.67362,477.69351 C 282.67362,476.43351 281.90562,475.53351 280.70562,475.53351 C 279.92563,475.53351 279.36162,475.92951 278.96562,476.20551 L 278.96562,475.70151 L 276.94963,475.70151"
       id="flowRoot4608" />
    <path
       style="font-size:12px;font-style:normal;font-variant:normal;font-weight:bold;font-stretch:normal;text-align:start;line-height:125%;writing-mode:lr-tb;text-anchor:start;fill:#000000;fill-opacity:1;stroke:none;stroke-width:1px;stroke-linecap:butt;stroke-linejoin:miter;stroke-opacity:1;font-family:Courier;-inkscape-font-specification:Courier Bold"
       d="M 385.4215,460.32901 L 385.4215,461.31301 L 386.5735,461.31301 L 386.5735,466.34101 L 385.4215,466.34101 L 385.4215,467.32501 L 391.4695,467.32501 L 391.6255,463.96501 L 390.6055,463.96501 L 390.4495,466.34101 L 387.6175,466.34101 L 387.6175,461.31301 L 389.0575,461.31301 L 389.0575,460.32901 L 385.4215,460.32901 M 398.47281,465.59701 C 397.82481,465.98101 396.81681,466.46101 395.82081,466.46101 C 394.26081,466.46101 393.98481,465.42901 393.87681,464.99701 L 398.58081,464.99701 C 398.59281,464.88901 398.61681,464.54101 398.61681,464.26501 C 398.61681,463.08901 397.65681,461.72101 395.76081,461.72101 C 393.91281,461.72101 392.77281,463.08901 392.77281,464.63701 C 392.77281,466.14901 393.82881,467.49301 395.84481,467.49301 C 396.78081,467.49301 397.87281,467.14501 398.95281,466.52101 L 398.47281,465.59701 M 393.94881,464.01301 C 394.06881,463.68901 394.44081,462.75301 395.77281,462.75301 C 396.10881,462.75301 397.18881,462.77701 397.51281,464.01301 L 393.94881,464.01301 M 399.59613,461.88901 L 399.59613,462.87301 L 400.41212,462.87301 L 402.10412,464.48101 L 400.28012,466.34101 L 399.41613,466.34101 L 399.41613,467.32501 L 402.18812,467.32501 L 402.18812,466.34101 L 401.63612,466.34101 L 402.81213,465.18901 L 403.97613,466.34101 L 403.42412,466.34101 L 403.42412,467.32501 L 406.25612,467.32501 L 406.25612,466.34101 L 405.44013,466.34101 L 403.52012,464.48101 L 405.16412,462.87301 L 405.95613,462.87301 L 405.95613,461.88901 L 403.28012,461.88901 L 403.28012,462.87301 L 403.82013,462.87301 L 402.81213,463.77301 L 401.87612,462.87301 L 402.38013,462.87301 L 402.38013,461.88901 L 399.59613,461.88901 M 412.86344,465.59701 C 412.21544,465.98101 411.20744,466.46101 410.21144,466.46101 C 408.65144,466.46101 408.37544,465.42901 408.26744,464.99701 L 412.97144,464.99701 C 412.98344,464.88901 413.00744,464.54101 413.00744,464.26501 C 413.00744,463.08901 412.04744,461.72101 410.15144,461.72101 C 408.30344,461.72101 407.16344,463.08901 407.16344,464.63701 C 407.16344,466.14901 408.21944,467.49301 410.23544,467.49301 C 411.17144,467.49301 412.26344,467.14501 413.34344,466.52101 L 412.86344,465.59701 M 408.33944,464.01301 C 408.45944,463.68901 408.83144,462.75301 410.16344,462.75301 C 410.49944,462.75301 411.57944,462.77701 411.90344,464.01301 L 408.33944,464.01301 M 413.62675,461.88901 L 413.62675,462.87301 L 414.31075,462.87301 L 414.31075,466.34101 L 413.62675,466.34101 L 413.62675,467.32501 L 416.18275,467.32501 L 416.18275,466.34101 L 415.35475,466.34101 L 415.35475,463.26901 C 415.63075,463.00501 415.90675,462.75301 416.24275,462.75301 C 416.77075,462.75301 416.77075,463.44901 416.77075,463.89301 L 416.77075,467.32501 L 418.52275,467.32501 L 418.52275,466.34101 L 417.81475,466.34101 L 417.81475,463.37701 C 418.04275,463.10101 418.29475,462.75301 418.70275,462.75301 C 419.23075,462.75301 419.23075,463.24501 419.23075,463.94101 L 419.23075,467.32501 L 420.82675,467.32501 L 420.82675,466.34101 L 420.27475,466.34101 L 420.27475,463.94101 C 420.27475,463.31701 420.26275,461.72101 418.75075,461.72101 C 418.13875,461.72101 417.75475,462.05701 417.47875,462.28501 C 417.38275,462.15301 417.10675,461.72101 416.49475,461.72101 C 415.93075,461.72101 415.54675,462.10501 415.34275,462.28501 L 415.34275,461.88901 L 413.62675,461.88901 M 427.25406,465.59701 C 426.60606,465.98101 425.59806,466.46101 424.60206,466.46101 C 423.04206,466.46101 422.76606,465.42901 422.65806,464.99701 L 427.36206,464.99701 C 427.37406,464.88901 427.39806,464.54101 427.39806,464.26501 C 427.39806,463.08901 426.43806,461.72101 424.54206,461.72101 C 422.69406,461.72101 421.55406,463.08901 421.55406,464.63701 C 421.55406,466.14901 422.61006,467.49301 424.62606,467.49301 C 425.56206,467.49301 426.65406,467.14501 427.73406,466.52101 L 427.25406,465.59701 M 422.73006,464.01301 C 422.85006,463.68901 423.22206,462.75301 424.55406,462.75301 C 424.89006,462.75301 425.97006,462.77701 426.29406,464.01301 L 422.73006,464.01301 M 428.55738,460.32901 L 428.55738,461.31301 L 429.55338,461.31301 L 429.55338,466.34101 L 428.55738,466.34101 L 428.55738,467.32501 L 434.65338,467.32501 L 434.65338,464.72101 L 433.65737,464.72101 L 433.59737,466.34101 L 430.59737,466.34101 L 430.59737,464.13301 L 432.01337,464.13301 L 432.01337,464.98501 L 433.00938,464.98501 L 433.00938,462.28501 L 432.01337,462.28501 L 432.01337,463.14901 L 430.59737,463.14901 L 430.59737,461.31301 L 433.48937,461.31301 L 433.59737,462.92101 L 434.59338,462.92101 L 434.53338,460.32901 L 428.55738,460.32901 M 435.48869,461.88901 L 435.48869,462.87301 L 436.46069,462.87301 L 436.46069,466.34101 L 435.46469,466.34101 L 435.46469,467.32501 L 438.41669,467.32501 L 438.41669,466.34101 L 437.50469,466.34101 L 437.50469,463.56901 C 438.02069,463.19701 438.59669,462.75301 439.26869,462.75301 C 439.85669,462.75301 440.16869,463.28101 440.16869,463.92901 L 440.16869,466.34101 L 439.16069,466.34101 L 439.16069,467.32501 L 442.18469,467.32501 L 442.18469,466.34101 L 441.21269,466.34101 L 441.21269,463.88101 C 441.21269,462.62101 440.44469,461.72101 439.24469,461.72101 C 438.46469,461.72101 437.90069,462.11701 437.50469,462.39301 L 437.50469,461.88901 L 435.48869,461.88901 M 445.66,459.80101 L 445.552,460.82101 L 447.484,460.67701 L 447.484,462.46501 C 446.968,462.05701 446.296,461.84101 445.708,461.84101 C 444.316,461.84101 442.936,462.95701 442.936,464.63701 C 442.936,466.13701 444.148,467.44501 445.732,467.44501 C 446.068,467.44501 446.824,467.38501 447.484,466.82101 L 447.484,467.32501 L 449.5,467.32501 L 449.5,466.34101 L 448.528,466.34101 L 448.528,459.54901 L 445.66,459.80101 M 447.46,464.64901 C 447.46,465.68101 446.644,466.41301 445.744,466.41301 C 444.82,466.41301 444.04,465.66901 444.04,464.62501 C 444.04,463.55701 444.844,462.87301 445.744,462.87301 C 446.896,462.87301 447.46,463.86901 447.46,464.64901"
       id="flowRoot4620" />
    <path
       sodipodi:nodetypes="cc"
       id="path4630"
       d="M 205.7205,365.66219 L 205.7205,375.66219"
       style="fill:none;fill-rule:evenodd;stroke:#000000;stroke-width:1px;stroke-linecap:butt;stroke-linejoin:miter;stroke-opacity:1" />
    <path
       style="fill:none;fill-rule:evenodd;stroke:#000000;stroke-width:1px;stroke-linecap:butt;stroke-linejoin:miter;stroke-opacity:1"
       d="M 385.7205,365.66219 L 385.7205,375.66219"
       id="path4628"
       sodipodi:nodetypes="cc" />
    <path
       style="font-size:12px;font-style:normal;font-variant:normal;font-weight:bold;font-stretch:normal;text-align:start;line-height:125%;writing-mode:lr-tb;text-anchor:start;fill:#000000;fill-opacity:1;stroke:none;stroke-width:1px;stroke-linecap:butt;stroke-linejoin:miter;stroke-opacity:1;font-family:Courier;-inkscape-font-specification:Courier Bold"
       d="M 272.25939,365.71235 L 272.25939,366.69635 L 273.41139,366.69635 L 273.41139,371.72435 L 272.25939,371.72435 L 272.25939,372.70835 L 278.30739,372.70835 L 278.46339,369.34835 L 277.44339,369.34835 L 277.28739,371.72435 L 274.45539,371.72435 L 274.45539,366.69635 L 275.89539,366.69635 L 275.89539,365.71235 L 272.25939,365.71235 M 285.3107,370.98035 C 284.6627,371.36435 283.6547,371.84435 282.6587,371.84435 C 281.0987,371.84435 280.8227,370.81235 280.7147,370.38035 L 285.4187,370.38035 C 285.4307,370.27235 285.4547,369.92435 285.4547,369.64835 C 285.4547,368.47235 284.4947,367.10435 282.5987,367.10435 C 280.7507,367.10435 279.6107,368.47235 279.6107,370.02035 C 279.6107,371.53235 280.6667,372.87635 282.6827,372.87635 C 283.6187,372.87635 284.7107,372.52835 285.7907,371.90435 L 285.3107,370.98035 M 280.7867,369.39635 C 280.9067,369.07235 281.2787,368.13635 282.6107,368.13635 C 282.9467,368.13635 284.0267,368.16035 284.3507,369.39635 L 280.7867,369.39635 M 286.43402,367.27235 L 286.43402,368.25635 L 287.25001,368.25635 L 288.94201,369.86435 L 287.11801,371.72435 L 286.25402,371.72435 L 286.25402,372.70835 L 289.02601,372.70835 L 289.02601,371.72435 L 288.47401,371.72435 L 289.65002,370.57235 L 290.81402,371.72435 L 290.26201,371.72435 L 290.26201,372.70835 L 293.09401,372.70835 L 293.09401,371.72435 L 292.27802,371.72435 L 290.35801,369.86435 L 292.00201,368.25635 L 292.79402,368.25635 L 292.79402,367.27235 L 290.11801,367.27235 L 290.11801,368.25635 L 290.65802,368.25635 L 289.65002,369.15635 L 288.71401,368.25635 L 289.21802,368.25635 L 289.21802,367.27235 L 286.43402,367.27235 M 299.70133,370.98035 C 299.05333,371.36435 298.04533,371.84435 297.04933,371.84435 C 295.48933,371.84435 295.21333,370.81235 295.10533,370.38035 L 299.80933,370.38035 C 299.82133,370.27235 299.84533,369.92435 299.84533,369.64835 C 299.84533,368.47235 298.88533,367.10435 296.98933,367.10435 C 295.14133,367.10435 294.00133,368.47235 294.00133,370.02035 C 294.00133,371.53235 295.05733,372.87635 297.07333,372.87635 C 298.00933,372.87635 299.10133,372.52835 300.18133,371.90435 L 299.70133,370.98035 M 295.17733,369.39635 C 295.29733,369.07235 295.66933,368.13635 297.00133,368.13635 C 297.33733,368.13635 298.41733,368.16035 298.74133,369.39635 L 295.17733,369.39635 M 300.46464,367.27235 L 300.46464,368.25635 L 301.14864,368.25635 L 301.14864,371.72435 L 300.46464,371.72435 L 300.46464,372.70835 L 303.02064,372.70835 L 303.02064,371.72435 L 302.19264,371.72435 L 302.19264,368.65235 C 302.46864,368.38835 302.74464,368.13635 303.08064,368.13635 C 303.60864,368.13635 303.60864,368.83235 303.60864,369.27635 L 303.60864,372.70835 L 305.36064,372.70835 L 305.36064,371.72435 L 304.65264,371.72435 L 304.65264,368.76035 C 304.88064,368.48435 305.13264,368.13635 305.54064,368.13635 C 306.06864,368.13635 306.06864,368.62835 306.06864,369.32435 L 306.06864,372.70835 L 307.66464,372.70835 L 307.66464,371.72435 L 307.11264,371.72435 L 307.11264,369.32435 C 307.11264,368.70035 307.10064,367.10435 305.58864,367.10435 C 304.97664,367.10435 304.59264,367.44035 304.31664,367.66835 C 304.22064,367.53635 303.94464,367.10435 303.33264,367.10435 C 302.76864,367.10435 302.38464,367.48835 302.18064,367.66835 L 302.18064,367.27235 L 300.46464,367.27235 M 314.09195,370.98035 C 313.44395,371.36435 312.43595,371.84435 311.43995,371.84435 C 309.87995,371.84435 309.60395,370.81235 309.49595,370.38035 L 314.19995,370.38035 C 314.21195,370.27235 314.23595,369.92435 314.23595,369.64835 C 314.23595,368.47235 313.27595,367.10435 311.37995,367.10435 C 309.53195,367.10435 308.39195,368.47235 308.39195,370.02035 C 308.39195,371.53235 309.44795,372.87635 311.46395,372.87635 C 312.39995,372.87635 313.49195,372.52835 314.57195,371.90435 L 314.09195,370.98035 M 309.56795,369.39635 C 309.68795,369.07235 310.05995,368.13635 311.39195,368.13635 C 311.72795,368.13635 312.80795,368.16035 313.13195,369.39635 L 309.56795,369.39635 M 315.43127,365.71235 L 315.43127,366.69635 L 316.58327,366.69635 L 316.58327,371.72435 L 315.43127,371.72435 L 315.43127,372.70835 L 321.47927,372.70835 L 321.63526,369.34835 L 320.61526,369.34835 L 320.45926,371.72435 L 317.62726,371.72435 L 317.62726,366.69635 L 319.06726,366.69635 L 319.06726,365.71235 L 315.43127,365.71235"
       id="flowRoot4634" />
    <path
       style="fill:none;fill-rule:evenodd;stroke:#000000;stroke-width:1px;stroke-linecap:butt;stroke-linejoin:miter;marker-end:url(#Arrow2Mend);stroke-opacity:1"
       d="M 395.7205,334.66219 C 395.7205,334.66219 405.7205,334.66219 410.7205,354.66219 C 415.7205,374.66219 395.7205,394.66219 395.7205,394.66219"
       id="path4890"
       sodipodi:nodetypes="czc" />
    <path
       style="font-size:12px;font-style:normal;font-variant:normal;font-weight:normal;font-stretch:normal;fill:#000000;fill-opacity:1;stroke:none;stroke-width:1px;stroke-linecap:butt;stroke-linejoin:miter;stroke-opacity:1;font-family:Sans;-inkscape-font-specification:Adobe Helvetica"
       d="M 313.76346,332.40242 C 313.38456,332.53133 313.08182,332.59578 312.85526,332.59578 C 312.32792,332.59578 311.94315,332.44734 311.70096,332.15047 C 311.46268,331.85359 311.34354,331.38875 311.34354,330.75594 L 311.34354,327.17 L 310.5994,327.17 L 310.5994,326.33211 L 311.34354,326.33211 L 311.34354,324.66219 L 312.36307,324.66219 L 312.36307,326.33211 L 313.53495,326.33211 L 313.53495,327.17 L 312.36307,327.17 L 312.36307,330.70906 C 312.36307,331.38094 312.5701,331.71687 312.98417,331.71687 C 313.16385,331.71687 313.36112,331.67781 313.57596,331.59969 L 313.76346,332.40242 M 319.93925,331.8868 C 319.07596,332.35945 318.23221,332.59578 317.408,332.59578 C 316.4119,332.59578 315.63456,332.30867 315.07596,331.73445 C 314.51737,331.16023 314.23807,330.37508 314.23807,329.37898 C 314.23807,328.42586 314.49589,327.65633 315.01151,327.07039 C 315.53104,326.48055 316.23221,326.18563 317.11503,326.18562 C 317.90799,326.18563 318.55643,326.45907 319.06034,327.00594 C 319.56424,327.54891 319.81619,328.27547 319.8162,329.18562 L 319.8162,329.46101 L 315.29276,329.46101 C 315.32401,330.19149 315.51932,330.75008 315.8787,331.1368 C 316.24198,331.52352 316.74784,331.71687 317.39628,331.71687 C 318.15799,331.71687 318.90604,331.49617 319.64042,331.05476 L 319.93925,331.8868 M 318.73807,328.67 C 318.68729,328.17391 318.5076,327.77938 318.19901,327.48641 C 317.89041,327.19344 317.52518,327.04696 317.10331,327.04695 C 316.63846,327.04696 316.24979,327.18954 315.93729,327.47469 C 315.62479,327.75594 315.42167,328.15438 315.32792,328.67 L 318.73807,328.67 M 329.64237,332.43758 L 328.62284,332.43758 L 328.62284,328.54695 C 328.62283,328.05868 328.52518,327.69149 328.32987,327.44539 C 328.13846,327.1993 327.85135,327.07625 327.46854,327.07625 C 327.22635,327.07625 326.96658,327.15243 326.68925,327.30476 C 326.4158,327.45711 326.16776,327.66805 325.9451,327.93758 C 325.95291,328.00399 325.95682,328.11922 325.95682,328.28328 L 325.95682,332.43758 L 324.93729,332.43758 L 324.93729,328.54695 C 324.93729,328.05868 324.84549,327.69149 324.6619,327.44539 C 324.48221,327.1993 324.21073,327.07625 323.84745,327.07625 C 323.30448,327.07625 322.77909,327.40829 322.27128,328.07234 L 322.27128,332.43758 L 321.25175,332.43758 L 321.25175,326.33211 L 322.27128,326.33211 L 322.27128,327.19344 C 322.80643,326.52157 323.42362,326.18563 324.12284,326.18562 C 324.94705,326.18563 325.50174,326.52547 325.7869,327.20516 C 326.34549,326.52547 326.99783,326.18563 327.74393,326.18562 C 328.3533,326.18563 328.82205,326.36532 329.15018,326.72469 C 329.4783,327.08407 329.64236,327.6036 329.64237,328.28328 L 329.64237,332.43758 M 332.27909,327.07625 C 332.77909,326.48251 333.40018,326.18563 334.14237,326.18562 C 334.8533,326.18563 335.44705,326.47079 335.92362,327.04109 C 336.40018,327.6075 336.63846,328.34969 336.63846,329.26766 C 336.63846,330.28719 336.39822,331.09773 335.91776,331.6993 C 335.44119,332.29695 334.83768,332.59578 334.10721,332.59578 C 333.36112,332.59578 332.75174,332.30672 332.27909,331.72859 L 332.27909,334.8282 L 331.25956,334.8282 L 331.25956,326.22078 L 332.27909,326.22078 L 332.27909,327.07625 M 332.27909,328.05476 L 332.27909,330.66219 C 332.43534,330.94734 332.65995,331.19148 332.95292,331.39461 C 333.24979,331.59383 333.55448,331.69344 333.86698,331.69344 C 334.40213,331.69344 334.82205,331.48836 335.12675,331.0782 C 335.43143,330.66805 335.58377,330.09383 335.58378,329.35555 C 335.58377,328.62899 335.43338,328.06844 335.1326,327.67391 C 334.83182,327.27547 334.40994,327.07625 333.86698,327.07625 C 333.59354,327.07625 333.31229,327.16805 333.02323,327.35164 C 332.73807,327.53133 332.49002,327.76571 332.27909,328.05476 M 340.4705,326.18562 C 341.3494,326.18563 342.04471,326.4786 342.55643,327.06453 C 343.07205,327.65047 343.32986,328.42586 343.32987,329.3907 C 343.32986,330.35555 343.07205,331.13094 342.55643,331.71687 C 342.04471,332.30281 341.3494,332.59578 340.4705,332.59578 C 339.58768,332.59578 338.88846,332.30476 338.37284,331.72273 C 337.86112,331.1368 337.60526,330.35945 337.60526,329.3907 C 337.60526,328.41805 337.86112,327.64071 338.37284,327.05867 C 338.88846,326.47665 339.58768,326.18563 340.4705,326.18562 M 340.4705,331.69344 C 341.02518,331.69344 341.46463,331.47078 341.78886,331.02547 C 342.11307,330.58016 342.27518,330.03524 342.27518,329.3907 C 342.27518,328.69539 342.11698,328.13875 341.80057,327.72078 C 341.48807,327.29891 341.04471,327.08797 340.4705,327.08797 C 339.89237,327.08797 339.4451,327.29696 339.1287,327.71492 C 338.8162,328.13289 338.65995,328.69149 338.65995,329.3907 C 338.65995,330.03914 338.82206,330.58602 339.14628,331.03133 C 339.47049,331.47273 339.9119,331.69344 340.4705,331.69344 M 347.90604,326.42586 L 347.60721,327.29891 C 347.42752,327.18954 347.26346,327.13485 347.11503,327.13484 C 346.90018,327.13485 346.6951,327.23836 346.49979,327.44539 C 346.30448,327.65243 346.11112,327.95711 345.91971,328.35945 C 345.73221,328.7618 345.63846,328.96492 345.63846,328.96883 L 345.63846,332.43758 L 344.61893,332.43758 L 344.61893,326.33211 L 345.57987,326.33211 L 345.57987,327.74422 C 345.87284,327.13875 346.13456,326.7286 346.36503,326.51375 C 346.59549,326.29501 346.86502,326.18563 347.17362,326.18562 C 347.46659,326.18563 347.71073,326.26571 347.90604,326.42586 M 353.92948,332.43758 L 352.82792,332.43758 C 352.76541,332.33992 352.71073,332.20125 352.66386,332.02156 C 352.62088,331.84187 352.5994,331.69344 352.5994,331.57625 C 351.87674,332.25594 351.08182,332.59578 350.21464,332.59578 C 349.64042,332.59578 349.17362,332.44734 348.81425,332.15047 C 348.45878,331.84969 348.28104,331.43367 348.28104,330.90242 C 348.28104,330.48055 348.38651,330.12508 348.59745,329.83601 C 348.81229,329.54305 349.1326,329.31453 349.55839,329.15047 C 349.98807,328.98641 350.53299,328.88289 351.19315,328.83992 L 352.57596,328.75203 L 352.57596,328.55867 C 352.57596,327.98836 352.46268,327.59188 352.23612,327.36922 C 352.00955,327.14657 351.61112,327.03524 351.04081,327.03523 C 350.76737,327.03524 350.42752,327.09579 350.02128,327.21687 C 349.61893,327.33407 349.27909,327.47079 349.00175,327.62703 L 348.70292,326.84773 C 349.03104,326.65243 349.43143,326.49422 349.90409,326.37312 C 350.38065,326.24813 350.8162,326.18563 351.21073,326.18562 C 352.02323,326.18563 352.62283,326.36922 353.00956,326.73641 C 353.40018,327.1036 353.59549,327.66414 353.5955,328.41805 L 353.5955,330.98445 C 353.59549,331.62117 353.70682,332.10555 353.92948,332.43758 M 352.57596,330.68562 L 352.57596,329.51961 C 351.70096,329.57039 351.12674,329.61141 350.85331,329.64266 C 350.58377,329.67 350.3201,329.7325 350.06229,329.83016 C 349.80448,329.92781 349.60917,330.06063 349.47636,330.22859 C 349.34354,330.39656 349.27713,330.60555 349.27714,330.85555 C 349.27713,331.11336 349.37674,331.32234 349.57596,331.4825 C 349.77518,331.63875 350.03104,331.71687 350.34354,331.71687 C 350.74198,331.71687 351.15018,331.62312 351.56815,331.43562 C 351.98612,331.24422 352.32205,330.99422 352.57596,330.68562 M 358.59354,326.42586 L 358.29471,327.29891 C 358.11502,327.18954 357.95096,327.13485 357.80253,327.13484 C 357.58768,327.13485 357.3826,327.23836 357.18729,327.44539 C 356.99198,327.65243 356.79862,327.95711 356.60721,328.35945 C 356.41971,328.7618 356.32596,328.96492 356.32596,328.96883 L 356.32596,332.43758 L 355.30643,332.43758 L 355.30643,326.33211 L 356.26737,326.33211 L 356.26737,327.74422 C 356.56034,327.13875 356.82206,326.7286 357.05253,326.51375 C 357.28299,326.29501 357.55252,326.18563 357.86112,326.18562 C 358.15409,326.18563 358.39823,326.26571 358.59354,326.42586 M 364.40604,326.33211 L 361.93339,332.54305 C 361.6326,333.29695 361.30643,333.88289 360.95487,334.30086 C 360.60331,334.72273 360.10526,334.93367 359.46073,334.93367 C 359.14432,334.93367 358.80057,334.85359 358.42948,334.69344 L 358.64628,333.87898 C 359.00956,333.99617 359.28885,334.05476 359.48417,334.05476 C 359.80838,334.05476 360.09745,333.91804 360.35136,333.64461 C 360.60917,333.37117 360.83182,332.96101 361.01932,332.41414 L 358.59354,326.33211 L 359.64237,326.33211 L 361.49979,331.17781 L 363.35721,326.33211 L 364.40604,326.33211 M 373.5994,332.43758 L 368.19706,332.43758 L 368.19706,331.74031 L 371.9412,327.22859 L 368.28495,327.22859 L 368.28495,326.33211 L 373.30057,326.33211 L 373.30057,326.97664 L 369.55643,331.53523 L 373.5994,331.53523 L 373.5994,332.43758 M 380.00956,331.8868 C 379.14627,332.35945 378.30252,332.59578 377.47831,332.59578 C 376.48221,332.59578 375.70487,332.30867 375.14628,331.73445 C 374.58768,331.16023 374.30839,330.37508 374.30839,329.37898 C 374.30839,328.42586 374.5662,327.65633 375.08182,327.07039 C 375.60135,326.48055 376.30252,326.18563 377.18534,326.18562 C 377.9783,326.18563 378.62674,326.45907 379.13065,327.00594 C 379.63455,327.54891 379.88651,328.27547 379.88651,329.18562 L 379.88651,329.46101 L 375.36307,329.46101 C 375.39432,330.19149 375.58963,330.75008 375.94901,331.1368 C 376.31229,331.52352 376.81815,331.71687 377.46659,331.71687 C 378.2283,331.71687 378.97635,331.49617 379.71073,331.05476 L 380.00956,331.8868 M 378.80839,328.67 C 378.7576,328.17391 378.57791,327.77938 378.26932,327.48641 C 377.96073,327.19344 377.59549,327.04696 377.17362,327.04695 C 376.70877,327.04696 376.3201,327.18954 376.0076,327.47469 C 375.6951,327.75594 375.49198,328.15438 375.39823,328.67 L 378.80839,328.67 M 384.60917,326.42586 L 384.31034,327.29891 C 384.13065,327.18954 383.96659,327.13485 383.81815,327.13484 C 383.60331,327.13485 383.39823,327.23836 383.20292,327.44539 C 383.0076,327.65243 382.81424,327.95711 382.62284,328.35945 C 382.43534,328.7618 382.34159,328.96492 382.34159,328.96883 L 382.34159,332.43758 L 381.32206,332.43758 L 381.32206,326.33211 L 382.283,326.33211 L 382.283,327.74422 C 382.57596,327.13875 382.83768,326.7286 383.06815,326.51375 C 383.29862,326.29501 383.56815,326.18563 383.87675,326.18562 C 384.16971,326.18563 384.41385,326.26571 384.60917,326.42586 M 387.86112,326.18562 C 388.74002,326.18563 389.43533,326.4786 389.94706,327.06453 C 390.46268,327.65047 390.72049,328.42586 390.7205,329.3907 C 390.72049,330.35555 390.46268,331.13094 389.94706,331.71687 C 389.43533,332.30281 388.74002,332.59578 387.86112,332.59578 C 386.97831,332.59578 386.27909,332.30476 385.76346,331.72273 C 385.25174,331.1368 384.99589,330.35945 384.99589,329.3907 C 384.99589,328.41805 385.25174,327.64071 385.76346,327.05867 C 386.27909,326.47665 386.97831,326.18563 387.86112,326.18562 M 387.86112,331.69344 C 388.4158,331.69344 388.85526,331.47078 389.17948,331.02547 C 389.50369,330.58016 389.6658,330.03524 389.66581,329.3907 C 389.6658,328.69539 389.5076,328.13875 389.1912,327.72078 C 388.87869,327.29891 388.43534,327.08797 387.86112,327.08797 C 387.28299,327.08797 386.83573,327.29696 386.51932,327.71492 C 386.20682,328.13289 386.05057,328.69149 386.05057,329.3907 C 386.05057,330.03914 386.21268,330.58602 386.5369,331.03133 C 386.86112,331.47273 387.30252,331.69344 387.86112,331.69344"
       id="flowRoot5413" />
    <path
       style="font-size:12px;font-style:normal;font-variant:normal;font-weight:normal;font-stretch:normal;text-align:start;line-height:125%;writing-mode:lr-tb;text-anchor:start;fill:#000000;fill-opacity:1;stroke:none;stroke-width:1px;stroke-linecap:butt;stroke-linejoin:miter;stroke-opacity:1;font-family:Courier;-inkscape-font-specification:Courier"
       d="M 111.05739,392.90619 L 111.05739,393.47019 L 111.69339,393.47019 L 113.70939,396.11019 L 111.44139,399.09819 L 110.82939,399.09819 L 110.82939,399.66219 L 113.38539,399.66219 L 113.38539,399.09819 L 112.11339,399.09819 L 114.04539,396.55419 L 115.89339,399.09819 L 114.81339,399.09819 L 114.81339,399.66219 L 117.23739,399.66219 L 117.23739,399.09819 L 116.61339,399.09819 L 114.38139,396.11019 L 116.39739,393.47019 L 117.00939,393.47019 L 117.00939,392.90619 L 114.81339,392.90619 L 114.81339,393.47019 L 115.72539,393.47019 L 114.04539,395.66619 L 112.40139,393.47019 L 113.38539,393.47019 L 113.38539,392.90619 L 111.05739,392.90619"
       id="flowRoot5421" />
    <path
       style="font-size:12px;font-style:normal;font-variant:normal;font-weight:normal;font-stretch:normal;text-align:start;line-height:125%;writing-mode:lr-tb;text-anchor:start;fill:#000000;fill-opacity:1;stroke:none;stroke-width:1px;stroke-linecap:butt;stroke-linejoin:miter;stroke-opacity:1;font-family:Courier;-inkscape-font-specification:Courier"
       d="M 156.39179,394.98219 C 155.95979,394.98219 155.46779,395.29419 155.46779,395.79819 C 155.46779,396.32619 155.97179,396.61419 156.39179,396.61419 C 156.82379,396.61419 157.31579,396.31419 157.31579,395.79819 C 157.31579,395.29419 156.83579,394.98219 156.39179,394.98219 M 156.39179,398.23419 C 155.95979,398.23419 155.46779,398.54619 155.46779,399.05019 C 155.46779,399.57819 155.97179,399.86619 156.39179,399.86619 C 156.82379,399.86619 157.31579,399.56619 157.31579,399.05019 C 157.31579,398.54619 156.83579,398.23419 156.39179,398.23419"
       id="text5429" />
    <path
       style="font-size:12px;font-style:normal;font-variant:normal;font-weight:normal;font-stretch:normal;text-align:start;line-height:125%;writing-mode:lr-tb;text-anchor:start;fill:#000000;fill-opacity:1;stroke:none;stroke-width:1px;stroke-linecap:butt;stroke-linejoin:miter;stroke-opacity:1;font-family:Courier;-inkscape-font-specification:Courier"
       d="M 171.71702,394.63419 L 171.71702,395.23419 L 177.38102,395.23419 L 177.38102,394.63419 L 171.71702,394.63419 M 171.71702,396.80619 L 171.71702,397.40619 L 177.38102,397.40619 L 177.38102,396.80619 L 171.71702,396.80619"
       id="text5433" />
    <path
       style="font-size:12px;font-style:normal;font-variant:normal;font-weight:normal;font-stretch:normal;text-align:start;line-height:125%;writing-mode:lr-tb;text-anchor:start;fill:#000000;fill-opacity:1;stroke:none;stroke-width:1px;stroke-linecap:butt;stroke-linejoin:miter;stroke-opacity:1;font-family:Courier;-inkscape-font-specification:Courier"
       d="M 416.04455,392.90619 L 416.04455,394.67019 L 415.22855,394.67019 L 415.22855,395.23419 L 416.04455,395.23419 L 416.04455,397.50219 C 416.04455,398.29419 416.04455,398.87019 416.46455,399.29019 C 416.71655,399.54219 417.20855,399.83019 417.95255,399.83019 C 418.73255,399.83019 419.65655,399.49419 420.42455,399.14619 L 420.20855,398.60619 C 418.80455,399.19419 418.28855,399.23019 417.89255,399.23019 C 416.63255,399.23019 416.64455,398.39019 416.64455,397.50219 L 416.64455,395.23419 L 419.54855,395.23419 L 419.54855,394.67019 L 416.64455,394.67019 L 416.64455,392.90619 L 416.04455,392.90619"
       id="flowRoot5453" />
    <path
       style="font-size:12px;font-style:normal;font-variant:normal;font-weight:normal;font-stretch:normal;text-align:start;line-height:125%;writing-mode:lr-tb;text-anchor:start;fill:#000000;fill-opacity:1;stroke:none;stroke-width:1px;stroke-linecap:butt;stroke-linejoin:miter;stroke-opacity:1;font-family:Courier;-inkscape-font-specification:Courier"
       d="M 432.67187,392.25819 L 432.71987,392.82219 L 433.83587,392.72619 L 433.83587,399.09819 L 432.82787,399.09819 L 432.82787,399.66219 L 435.38387,399.66219 L 435.38387,399.09819 L 434.43587,399.09819 L 434.43587,395.88219 C 435.01187,395.41419 435.75587,394.92219 436.51187,394.92219 C 437.21987,394.92219 437.66387,395.48619 437.66387,396.35019 L 437.66387,399.09819 L 436.64387,399.09819 L 436.64387,399.66219 L 439.27187,399.66219 L 439.27187,399.09819 L 438.26387,399.09819 L 438.26387,396.30219 C 438.26387,395.13819 437.57987,394.32219 436.48787,394.32219 C 435.62387,394.32219 434.96387,394.79019 434.43587,395.17419 L 434.43587,392.11419 L 432.67187,392.25819"
       id="text5461" />
  </g>
</svg>
