<?xml version="1.0" encoding="UTF-8" standalone="no"?>
<!-- Generated by Graphviz version 2.18 (Thu Oct 16 15:23:39 UTC 2008)
 -->
<!-- Title: state_machine_59 Pages: 1 -->
<svg
   xmlns:dc="http://purl.org/dc/elements/1.1/"
   xmlns:cc="http://creativecommons.org/ns#"
   xmlns:rdf="http://www.w3.org/1999/02/22-rdf-syntax-ns#"
   xmlns:svg="http://www.w3.org/2000/svg"
   xmlns="http://www.w3.org/2000/svg"
   xmlns:sodipodi="http://sodipodi.sourceforge.net/DTD/sodipodi-0.dtd"
   xmlns:inkscape="http://www.inkscape.org/namespaces/inkscape"
   width="535pt"
   height="360pt"
   viewBox="0.00 0.00 535.20 360.00"
   id="svg2584"
   sodipodi:version="0.32"
   inkscape:version="0.46"
   sodipodi:docname="template-compression-before.svg"
   inkscape:output_extension="org.inkscape.output.svg.inkscape">
  <metadata
     id="metadata2791">
    <rdf:RDF>
      <cc:Work
         rdf:about="">
        <dc:format>image/svg+xml</dc:format>
        <dc:type
           rdf:resource="http://purl.org/dc/dcmitype/StillImage" />
      </cc:Work>
    </rdf:RDF>
  </metadata>
  <defs
     id="defs2789">
    <marker
       inkscape:stockid="Arrow2Lend"
       orient="auto"
       refY="0.0"
       refX="0.0"
       id="Arrow2Lend"
       style="overflow:visible;">
      <path
         id="path3707"
         style="font-size:12.0;fill-rule:evenodd;stroke-width:0.62500000;stroke-linejoin:round;"
         d="M 8.7185878,4.0337352 L -2.2072895,0.016013256 L 8.7185884,-4.0017078 C 6.9730900,-1.6296469 6.9831476,1.6157441 8.7185878,4.0337352 z "
         transform="scale(1.1) rotate(180) translate(1,0)" />
    </marker>
    <marker
       inkscape:stockid="Arrow1Lend"
       orient="auto"
       refY="0.0"
       refX="0.0"
       id="Arrow1Lend"
       style="overflow:visible;">
      <path
         id="path3689"
         d="M 0.0,0.0 L 5.0,-5.0 L -12.5,0.0 L 5.0,5.0 L 0.0,0.0 z "
         style="fill-rule:evenodd;stroke:#000000;stroke-width:1.0pt;marker-start:none;"
         transform="scale(0.8) rotate(180) translate(12.5,0)" />
    </marker>
    <inkscape:perspective
       sodipodi:type="inkscape:persp3d"
       inkscape:vp_x="0 : 225 : 1"
       inkscape:vp_y="0 : 1000 : 0"
       inkscape:vp_z="668.75 : 225 : 1"
       inkscape:persp3d-origin="334.375 : 150 : 1"
       id="perspective2793" />
    <title
       id="title2587">state_machine_59</title>
    <title
       id="title2771">8-&gt;9</title>
    <title
       id="title2655">9-&gt;9</title>
    <title
       id="title2762">1-&gt;2</title>
    <title
       id="title2746">4-&gt;5</title>
    <title
       id="title2737">0-&gt;8</title>
    <title
       id="title2721">0-&gt;1</title>
    <title
       id="title2705">0-&gt;4</title>
    <title
       id="title2689">0-&gt;7</title>
    <title
       id="title2680">0-&gt;6</title>
    <title
       id="title2671">0-&gt;3</title>
    <title
       id="title2610">5-&gt;5</title>
    <title
       id="title2780">2-&gt;3</title>
    <title
       id="title2637">7-&gt;7</title>
    <title
       id="title2664">0</title>
    <title
       id="title2592">3</title>
    <title
       id="title2601">5</title>
    <title
       id="title2619">6</title>
    <title
       id="title2628">7</title>
    <title
       id="title2646">9</title>
    <title
       id="title2730">8</title>
    <title
       id="title2698">4</title>
    <title
       id="title2755">2</title>
    <title
       id="title2714">1</title>
  </defs>
  <sodipodi:namedview
     inkscape:window-height="724"
     inkscape:window-width="1024"
     inkscape:pageshadow="2"
     inkscape:pageopacity="0.0"
     guidetolerance="10.0"
     gridtolerance="10.0"
     objecttolerance="10.0"
     borderopacity="1"
     bordercolor="#ed1b1b"
     pagecolor="#ffffff"
     id="base"
     showgrid="true"
     inkscape:zoom="0.84336449"
     inkscape:cx="536.23218"
     inkscape:cy="173.89043"
     inkscape:window-x="0"
     inkscape:window-y="19"
     inkscape:current-layer="svg2584"
     inkscape:showpageshadow="false">
    <inkscape:grid
       type="xygrid"
       id="grid5044"
       visible="true"
       enabled="true"
       units="mm"
       spacingx="1mm"
       spacingy="1mm" />
  </sodipodi:namedview>
  <g
     id="g2573">
    <path
       style="fill:none;fill-rule:evenodd;stroke:#000000;stroke-width:1px;stroke-linecap:butt;stroke-linejoin:miter;marker-end:none;stroke-opacity:1"
       d="M 70.892635,62.318227 C 90.742572,33.961174 90.742582,33.961174 127.60674,33.961174"
       id="path7976"
       sodipodi:nodetypes="cc" />
    <path
       sodipodi:nodetypes="cc"
       id="path7922"
       d="M 411.17728,62.318227 C 431.02721,33.961174 431.02722,33.961174 467.89138,33.961174"
       style="fill:none;fill-rule:evenodd;stroke:#000000;stroke-width:1px;stroke-linecap:butt;stroke-linejoin:miter;marker-end:none;stroke-opacity:1" />
    <path
       sodipodi:nodetypes="cc"
       id="path7978"
       d="M 70.892631,62.318228 C 90.742568,90.675281 90.742578,90.675281 127.60674,90.675281"
       style="fill:none;fill-rule:evenodd;stroke:#000000;stroke-width:1px;stroke-linecap:butt;stroke-linejoin:miter;marker-end:none;stroke-opacity:1" />
    <path
       sodipodi:nodetypes="cc"
       id="path8044"
       d="M 241.03495,62.318226 C 260.88489,90.675279 260.8849,90.675279 297.74906,90.675279"
       style="fill:none;fill-rule:evenodd;stroke:#000000;stroke-width:1px;stroke-linecap:butt;stroke-linejoin:miter;marker-end:none;stroke-opacity:1" />
    <path
       style="fill:none;fill-rule:evenodd;stroke:#000000;stroke-width:1px;stroke-linecap:butt;stroke-linejoin:miter;marker-end:none;stroke-opacity:1"
       d="M 411.17727,62.318228 C 431.02721,90.675281 431.02722,90.675281 467.89138,90.675281"
       id="path7924"
       sodipodi:nodetypes="cc" />
    <path
       style="fill:none;fill-rule:evenodd;stroke:#000000;stroke-width:1px;stroke-linecap:butt;stroke-linejoin:miter;marker-end:none;stroke-opacity:1"
       d="M 70.892634,62.318228 C 104.92109,62.318228 90.742581,62.318228 127.60674,62.318228"
       id="path7980"
       sodipodi:nodetypes="cc" />
    <path
       style="fill:none;fill-rule:evenodd;stroke:#000000;stroke-width:1px;stroke-linecap:butt;stroke-linejoin:miter;marker-end:none;stroke-opacity:1"
       d="M 241.03495,62.318226 C 275.06341,62.318226 260.8849,62.318226 297.74906,62.318226"
       id="path8046"
       sodipodi:nodetypes="cc" />
    <path
       sodipodi:nodetypes="cc"
       id="path7926"
       d="M 411.17728,62.318228 C 445.20573,62.318228 431.02722,62.318228 467.89138,62.318228"
       style="fill:none;fill-rule:evenodd;stroke:#000000;stroke-width:1px;stroke-linecap:butt;stroke-linejoin:miter;marker-end:none;stroke-opacity:1" />
    <path
       id="path8194"
       d="M 14.178527,62.318228 L 56.714107,62.318228"
       style="fill:none;fill-rule:evenodd;stroke:#000000;stroke-width:1.00037384;stroke-linecap:butt;stroke-linejoin:miter;marker-end:url(#Arrow2Lend);stroke-miterlimit:4;stroke-dasharray:none;stroke-opacity:1" />
    <path
       style="fill:none;fill-rule:evenodd;stroke:#000000;stroke-width:1.00037384;stroke-linecap:butt;stroke-linejoin:miter;marker-end:url(#Arrow2Lend);stroke-miterlimit:4;stroke-dasharray:none;stroke-opacity:1"
       d="M 184.32084,62.318226 L 226.85642,62.318226"
       id="path8048" />
    <path
       id="path7696"
       d="M 354.46317,62.318228 L 396.99875,62.318228"
       style="fill:none;fill-rule:evenodd;stroke:#000000;stroke-width:1.00037384;stroke-linecap:butt;stroke-linejoin:miter;marker-end:url(#Arrow2Lend);stroke-miterlimit:4;stroke-dasharray:none;stroke-opacity:1" />
    <path
       id="path8196"
       d="M 184.32085,102.0181 C 184.32085,109.84464 177.96887,116.19662 170.14232,116.19662 C 162.31577,116.19662 155.96379,109.84464 155.96379,102.0181 C 155.96379,94.19155 162.31577,87.83957 170.14232,87.83957 C 177.96887,87.83957 184.32085,94.19155 184.32085,102.0181 z"
       style="fill:#ffffff;fill-opacity:1;fill-rule:evenodd;stroke:#000000;stroke-width:1;stroke-linejoin:round;stroke-miterlimit:4;stroke-dashoffset:0;stroke-opacity:1"
       transform="translate(-99.249681,-39.699867)" />
    <path
       id="path8050"
       d="M 184.32085,102.0181 C 184.32085,109.84464 177.96887,116.19662 170.14232,116.19662 C 162.31577,116.19662 155.96379,109.84464 155.96379,102.0181 C 155.96379,94.19155 162.31577,87.83957 170.14232,87.83957 C 177.96887,87.83957 184.32085,94.19155 184.32085,102.0181 z"
       style="fill:#ffffff;fill-opacity:1;fill-rule:evenodd;stroke:#000000;stroke-width:1;stroke-linejoin:round;stroke-miterlimit:4;stroke-dashoffset:0;stroke-opacity:1"
       transform="translate(70.892636,-39.699869)" />
    <path
       id="path7706"
       d="M 184.32085,102.0181 C 184.32085,109.84464 177.96887,116.19662 170.14232,116.19662 C 162.31577,116.19662 155.96379,109.84464 155.96379,102.0181 C 155.96379,94.19155 162.31577,87.83957 170.14232,87.83957 C 177.96887,87.83957 184.32085,94.19155 184.32085,102.0181 z"
       style="fill:#ffffff;fill-opacity:1;fill-rule:evenodd;stroke:#000000;stroke-width:1;stroke-linejoin:round;stroke-miterlimit:4;stroke-dashoffset:0;stroke-opacity:1"
       transform="translate(241.03496,-39.699867)" />
    <path
       id="flowRoot7986"
       d="M 214.83063,120.67638 L 212.96431,120.67638 L 212.96431,111.79025 L 214.83063,111.79025 L 214.83063,112.4655 L 213.78024,112.4655 L 213.78024,120.00113 L 214.83063,120.00113 L 214.83063,120.67638 M 219.62304,118.76317 L 218.74147,118.76317 L 217.36751,116.80306 L 216.00294,118.76317 L 215.12136,118.76317 L 216.92672,116.22628 L 215.24328,113.87696 L 216.14831,113.87696 L 217.36751,115.62137 L 218.60548,113.87696 L 219.44016,113.87696 L 217.8083,116.20752 L 219.62304,118.76317 M 224.50456,113.87696 L 222.52569,118.84757 C 222.28497,119.45092 222.02394,119.91985 221.74259,120.25435 C 221.46123,120.59197 221.06264,120.76079 220.54683,120.76079 C 220.29361,120.76079 220.0185,120.6967 219.72152,120.56853 L 219.89502,119.91672 C 220.18575,120.01051 220.40928,120.0574 220.56558,120.0574 C 220.82506,120.0574 221.05639,119.94798 221.25959,119.72915 C 221.46592,119.51032 221.64411,119.18207 221.79417,118.74441 L 219.85282,113.87696 L 220.69219,113.87696 L 222.17869,117.75498 L 223.66518,113.87696 L 224.50456,113.87696 M 226.59596,120.67638 L 224.73433,120.67638 L 224.73433,120.00113 L 225.78003,120.00113 L 225.78003,112.55928 L 224.73433,112.55928 L 224.73433,111.88872 L 226.59596,111.88872 L 226.59596,120.67638"
       style="font-size:9.60358906px;font-style:normal;font-variant:normal;font-weight:normal;font-stretch:normal;text-align:start;line-height:125%;writing-mode:lr-tb;text-anchor:start;fill:#000000;fill-opacity:1;stroke:none;stroke-width:1px;stroke-linecap:butt;stroke-linejoin:miter;stroke-opacity:1;font-family:Sans;-inkscape-font-specification:Sans"
       transform="translate(-102.32137,-32.596421)" />
    <path
       id="flowRoot8052"
       d="M 214.83063,120.67638 L 212.96431,120.67638 L 212.96431,111.79025 L 214.83063,111.79025 L 214.83063,112.4655 L 213.78024,112.4655 L 213.78024,120.00113 L 214.83063,120.00113 L 214.83063,120.67638 M 219.62304,118.76317 L 218.74147,118.76317 L 217.36751,116.80306 L 216.00294,118.76317 L 215.12136,118.76317 L 216.92672,116.22628 L 215.24328,113.87696 L 216.14831,113.87696 L 217.36751,115.62137 L 218.60548,113.87696 L 219.44016,113.87696 L 217.8083,116.20752 L 219.62304,118.76317 M 224.50456,113.87696 L 222.52569,118.84757 C 222.28497,119.45092 222.02394,119.91985 221.74259,120.25435 C 221.46123,120.59197 221.06264,120.76079 220.54683,120.76079 C 220.29361,120.76079 220.0185,120.6967 219.72152,120.56853 L 219.89502,119.91672 C 220.18575,120.01051 220.40928,120.0574 220.56558,120.0574 C 220.82506,120.0574 221.05639,119.94798 221.25959,119.72915 C 221.46592,119.51032 221.64411,119.18207 221.79417,118.74441 L 219.85282,113.87696 L 220.69219,113.87696 L 222.17869,117.75498 L 223.66518,113.87696 L 224.50456,113.87696 M 226.59596,120.67638 L 224.73433,120.67638 L 224.73433,120.00113 L 225.78003,120.00113 L 225.78003,112.55928 L 224.73433,112.55928 L 224.73433,111.88872 L 226.59596,111.88872 L 226.59596,120.67638"
       style="font-size:9.60358906px;font-style:normal;font-variant:normal;font-weight:normal;font-stretch:normal;text-align:start;line-height:125%;writing-mode:lr-tb;text-anchor:start;fill:#000000;fill-opacity:1;stroke:none;stroke-width:1px;stroke-linecap:butt;stroke-linejoin:miter;stroke-opacity:1;font-family:Sans;-inkscape-font-specification:Sans"
       transform="translate(67.820947,-32.596423)" />
    <path
       id="flowRoot7928"
       d="M 214.83063,120.67638 L 212.96431,120.67638 L 212.96431,111.79025 L 214.83063,111.79025 L 214.83063,112.4655 L 213.78024,112.4655 L 213.78024,120.00113 L 214.83063,120.00113 L 214.83063,120.67638 M 219.62304,118.76317 L 218.74147,118.76317 L 217.36751,116.80306 L 216.00294,118.76317 L 215.12136,118.76317 L 216.92672,116.22628 L 215.24328,113.87696 L 216.14831,113.87696 L 217.36751,115.62137 L 218.60548,113.87696 L 219.44016,113.87696 L 217.8083,116.20752 L 219.62304,118.76317 M 224.50456,113.87696 L 222.52569,118.84757 C 222.28497,119.45092 222.02394,119.91985 221.74259,120.25435 C 221.46123,120.59197 221.06264,120.76079 220.54683,120.76079 C 220.29361,120.76079 220.0185,120.6967 219.72152,120.56853 L 219.89502,119.91672 C 220.18575,120.01051 220.40928,120.0574 220.56558,120.0574 C 220.82506,120.0574 221.05639,119.94798 221.25959,119.72915 C 221.46592,119.51032 221.64411,119.18207 221.79417,118.74441 L 219.85282,113.87696 L 220.69219,113.87696 L 222.17869,117.75498 L 223.66518,113.87696 L 224.50456,113.87696 M 226.59596,120.67638 L 224.73433,120.67638 L 224.73433,120.00113 L 225.78003,120.00113 L 225.78003,112.55928 L 224.73433,112.55928 L 224.73433,111.88872 L 226.59596,111.88872 L 226.59596,120.67638"
       style="font-size:9.60358906px;font-style:normal;font-variant:normal;font-weight:normal;font-stretch:normal;text-align:start;line-height:125%;writing-mode:lr-tb;text-anchor:start;fill:#000000;fill-opacity:1;stroke:none;stroke-width:1px;stroke-linecap:butt;stroke-linejoin:miter;stroke-opacity:1;font-family:Sans;-inkscape-font-specification:Sans"
       transform="translate(237.96327,-32.596421)" />
    <path
       id="flowRoot7994"
       d="M 214.83063,120.67638 L 212.96431,120.67638 L 212.96431,111.79025 L 214.83063,111.79025 L 214.83063,112.4655 L 213.78024,112.4655 L 213.78024,120.00113 L 214.83063,120.00113 L 214.83063,120.67638 M 218.00056,111.90748 L 217.8083,112.54053 C 217.54258,112.46238 217.32531,112.4233 217.1565,112.4233 C 216.9658,112.4233 216.83294,112.50146 216.75791,112.65776 C 216.68288,112.81095 216.64537,113.05635 216.64537,113.39397 L 216.64537,113.87696 L 217.71452,113.87696 L 217.71452,114.54753 L 216.64537,114.54753 L 216.64537,118.76317 L 215.82944,118.76317 L 215.82944,114.54753 L 215.01351,114.54753 L 215.01351,113.87696 L 215.82944,113.87696 L 215.82944,113.28143 C 215.82944,112.7156 215.93573,112.31545 216.14831,112.08098 C 216.36089,111.8434 216.69382,111.7246 217.14712,111.7246 C 217.40034,111.7246 217.68482,111.78556 218.00056,111.90748 M 220.52807,116.69989 L 217.94898,116.69989 L 217.94898,115.90272 L 220.52807,115.90272 L 220.52807,116.69989 M 228.21375,118.76317 L 227.39782,118.76317 L 227.39782,115.6495 C 227.39782,115.25873 227.31966,114.96487 227.16336,114.76792 C 227.01017,114.57098 226.7804,114.4725 226.47404,114.4725 C 226.28021,114.4725 226.07232,114.53346 225.85037,114.65538 C 225.63153,114.77731 225.43302,114.94612 225.25484,115.16182 C 225.26108,115.21497 225.26421,115.30719 225.26421,115.43849 L 225.26421,118.76317 L 224.44828,118.76317 L 224.44828,115.6495 C 224.44828,115.25873 224.37482,114.96487 224.22789,114.76792 C 224.08408,114.57098 223.86681,114.4725 223.57608,114.4725 C 223.14154,114.4725 222.72108,114.73823 222.31468,115.26967 L 222.31468,118.76317 L 221.49875,118.76317 L 221.49875,113.87696 L 222.31468,113.87696 L 222.31468,114.56628 C 222.74296,114.02859 223.23689,113.75974 223.79648,113.75973 C 224.4561,113.75974 224.90001,114.03171 225.12823,114.57566 C 225.57526,114.03171 226.09733,113.75974 226.69444,113.75973 C 227.18211,113.75974 227.55725,113.90354 227.81986,114.19114 C 228.08245,114.47876 228.21375,114.89454 228.21375,115.43849 L 228.21375,118.76317 M 230.87256,120.67638 L 229.01093,120.67638 L 229.01093,120.00113 L 230.05663,120.00113 L 230.05663,112.55928 L 229.01093,112.55928 L 229.01093,111.88872 L 230.87256,111.88872 L 230.87256,120.67638"
       style="font-size:9.60358906px;font-style:normal;font-variant:normal;font-weight:normal;font-stretch:normal;text-align:start;line-height:125%;writing-mode:lr-tb;text-anchor:start;fill:#000000;fill-opacity:1;stroke:none;stroke-width:1px;stroke-linecap:butt;stroke-linejoin:miter;stroke-opacity:1;font-family:Sans;-inkscape-font-specification:Sans"
       transform="translate(-106.59797,-61.068893)" />
    <path
       id="flowRoot8060"
       d="M 214.83063,120.67638 L 212.96431,120.67638 L 212.96431,111.79025 L 214.83063,111.79025 L 214.83063,112.4655 L 213.78024,112.4655 L 213.78024,120.00113 L 214.83063,120.00113 L 214.83063,120.67638 M 219.87157,118.76317 L 218.99,118.76317 C 218.93997,118.68501 218.89621,118.57403 218.8587,118.43023 C 218.8243,118.28643 218.80711,118.16763 218.80711,118.07385 C 218.22877,118.6178 217.5926,118.88978 216.89859,118.88978 C 216.43904,118.88978 216.06546,118.77098 215.77786,118.53339 C 215.49338,118.29268 215.35114,117.95974 215.35114,117.53458 C 215.35114,117.19696 215.43554,116.91248 215.60436,116.68114 C 215.77629,116.44668 216.03264,116.2638 216.37339,116.1325 C 216.71727,116.0012 217.15337,115.91836 217.68169,115.88396 L 218.78836,115.81363 L 218.78836,115.65888 C 218.78835,115.20246 218.69769,114.88516 218.51638,114.70696 C 218.33506,114.52877 218.01619,114.43968 217.55977,114.43967 C 217.34094,114.43968 217.06896,114.48813 216.74384,114.58504 C 216.42185,114.67883 216.14987,114.78825 215.92791,114.91329 L 215.68876,114.28962 C 215.95136,114.13332 216.27179,114.00671 216.65006,113.90979 C 217.03145,113.80976 217.38002,113.75974 217.69576,113.75973 C 218.346,113.75974 218.82587,113.90667 219.13536,114.20052 C 219.44797,114.49439 219.60428,114.94299 219.60429,115.54634 L 219.60429,117.60023 C 219.60428,118.1098 219.69338,118.49744 219.87157,118.76317 M 218.78836,117.36108 L 218.78836,116.42792 C 218.08809,116.46856 217.62855,116.50139 217.40972,116.52639 C 217.19401,116.54828 216.98299,116.5983 216.77667,116.67645 C 216.57034,116.7546 216.41403,116.86089 216.30774,116.99532 C 216.20145,117.12974 216.14831,117.29699 216.14831,117.49707 C 216.14831,117.7034 216.22802,117.87065 216.38746,117.99882 C 216.54689,118.12386 216.75166,118.18639 217.00175,118.18639 C 217.32062,118.18639 217.6473,118.11136 217.98181,117.9613 C 218.3163,117.80812 218.58515,117.60805 218.78836,117.36108 M 223.21032,116.69989 L 220.63123,116.69989 L 220.63123,115.90272 L 223.21032,115.90272 L 223.21032,116.69989 M 227.44003,114.89453 C 226.94296,114.59755 226.45841,114.44906 225.98636,114.44905 C 225.61122,114.44906 225.32361,114.50689 225.12354,114.62256 C 224.92346,114.73823 224.82342,114.89923 224.82343,115.10555 C 224.82342,115.25248 224.88907,115.3744 225.02037,115.47131 C 225.1548,115.5651 225.36738,115.65419 225.65811,115.7386 L 226.30523,115.92148 C 226.92733,116.09655 227.35093,116.29662 227.57602,116.5217 C 227.80422,116.74366 227.91833,117.02658 227.91833,117.37046 C 227.91833,117.84564 227.74014,118.21765 227.38376,118.4865 C 227.0305,118.75535 226.55219,118.88978 225.94885,118.88978 C 225.2392,118.88978 224.58896,118.72565 223.99812,118.3974 L 224.24196,117.75498 C 224.79529,118.04884 225.34862,118.19577 225.90195,118.19577 C 226.71475,118.19577 227.12116,117.95349 227.12116,117.46893 C 227.12116,117.28136 227.03675,117.12349 226.86794,116.99532 C 226.69912,116.86715 226.33493,116.72647 225.77534,116.57328 C 225.32517,116.44824 225.01725,116.35289 224.85156,116.28724 C 224.68587,116.21847 224.53738,116.12937 224.40608,116.01995 C 224.27478,115.90741 224.17787,115.78237 224.11535,115.64481 C 224.05595,115.50726 224.02625,115.35252 224.02625,115.18058 C 224.02625,114.75542 224.19507,114.41311 224.53269,114.15363 C 224.87032,113.89104 225.35487,113.75974 225.98636,113.75973 C 226.25208,113.75974 226.54282,113.8035 226.85856,113.89103 C 227.1743,113.97544 227.45722,114.09424 227.70732,114.24742 L 227.44003,114.89453 M 230.34736,120.67638 L 228.48573,120.67638 L 228.48573,120.00113 L 229.53143,120.00113 L 229.53143,112.55928 L 228.48573,112.55928 L 228.48573,111.88872 L 230.34736,111.88872 L 230.34736,120.67638"
       style="font-size:9.60358906px;font-style:normal;font-variant:normal;font-weight:normal;font-stretch:normal;text-align:start;line-height:125%;writing-mode:lr-tb;text-anchor:start;fill:#000000;fill-opacity:1;stroke:none;stroke-width:1px;stroke-linecap:butt;stroke-linejoin:miter;stroke-opacity:1;font-family:Sans;-inkscape-font-specification:Sans"
       transform="translate(63.544347,-61.068895)" />
    <path
       id="flowRoot7936"
       d="M 214.83063,120.67638 L 212.96431,120.67638 L 212.96431,111.79025 L 214.83063,111.79025 L 214.83063,112.4655 L 213.78024,112.4655 L 213.78024,120.00113 L 214.83063,120.00113 L 214.83063,120.67638 M 218.00056,111.90748 L 217.8083,112.54053 C 217.54258,112.46238 217.32531,112.4233 217.1565,112.4233 C 216.9658,112.4233 216.83294,112.50146 216.75791,112.65776 C 216.68288,112.81095 216.64537,113.05635 216.64537,113.39397 L 216.64537,113.87696 L 217.71452,113.87696 L 217.71452,114.54753 L 216.64537,114.54753 L 216.64537,118.76317 L 215.82944,118.76317 L 215.82944,114.54753 L 215.01351,114.54753 L 215.01351,113.87696 L 215.82944,113.87696 L 215.82944,113.28143 C 215.82944,112.7156 215.93573,112.31545 216.14831,112.08098 C 216.36089,111.8434 216.69382,111.7246 217.14712,111.7246 C 217.40034,111.7246 217.68482,111.78556 218.00056,111.90748 M 220.52807,116.69989 L 217.94898,116.69989 L 217.94898,115.90272 L 220.52807,115.90272 L 220.52807,116.69989 M 228.21375,118.76317 L 227.39782,118.76317 L 227.39782,115.6495 C 227.39782,115.25873 227.31966,114.96487 227.16336,114.76792 C 227.01017,114.57098 226.7804,114.4725 226.47404,114.4725 C 226.28021,114.4725 226.07232,114.53346 225.85037,114.65538 C 225.63153,114.77731 225.43302,114.94612 225.25484,115.16182 C 225.26108,115.21497 225.26421,115.30719 225.26421,115.43849 L 225.26421,118.76317 L 224.44828,118.76317 L 224.44828,115.6495 C 224.44828,115.25873 224.37482,114.96487 224.22789,114.76792 C 224.08408,114.57098 223.86681,114.4725 223.57608,114.4725 C 223.14154,114.4725 222.72108,114.73823 222.31468,115.26967 L 222.31468,118.76317 L 221.49875,118.76317 L 221.49875,113.87696 L 222.31468,113.87696 L 222.31468,114.56628 C 222.74296,114.02859 223.23689,113.75974 223.79648,113.75973 C 224.4561,113.75974 224.90001,114.03171 225.12823,114.57566 C 225.57526,114.03171 226.09733,113.75974 226.69444,113.75973 C 227.18211,113.75974 227.55725,113.90354 227.81986,114.19114 C 228.08245,114.47876 228.21375,114.89454 228.21375,115.43849 L 228.21375,118.76317 M 230.87256,120.67638 L 229.01093,120.67638 L 229.01093,120.00113 L 230.05663,120.00113 L 230.05663,112.55928 L 229.01093,112.55928 L 229.01093,111.88872 L 230.87256,111.88872 L 230.87256,120.67638"
       style="font-size:9.60358906px;font-style:normal;font-variant:normal;font-weight:normal;font-stretch:normal;text-align:start;line-height:125%;writing-mode:lr-tb;text-anchor:start;fill:#000000;fill-opacity:1;stroke:none;stroke-width:1px;stroke-linecap:butt;stroke-linejoin:miter;stroke-opacity:1;font-family:Sans;-inkscape-font-specification:Sans"
       transform="translate(233.68667,-61.068893)" />
    <path
       id="flowRoot8002"
       d="M 214.83063,120.67638 L 212.96431,120.67638 L 212.96431,111.79025 L 214.83063,111.79025 L 214.83063,112.4655 L 213.78024,112.4655 L 213.78024,120.00113 L 214.83063,120.00113 L 214.83063,120.67638 M 219.87157,118.76317 L 218.99,118.76317 C 218.93997,118.68501 218.89621,118.57403 218.8587,118.43023 C 218.8243,118.28643 218.80711,118.16763 218.80711,118.07385 C 218.22877,118.6178 217.5926,118.88978 216.89859,118.88978 C 216.43904,118.88978 216.06546,118.77098 215.77786,118.53339 C 215.49338,118.29268 215.35114,117.95974 215.35114,117.53458 C 215.35114,117.19696 215.43554,116.91248 215.60436,116.68114 C 215.77629,116.44668 216.03264,116.2638 216.37339,116.1325 C 216.71727,116.0012 217.15337,115.91836 217.68169,115.88396 L 218.78836,115.81363 L 218.78836,115.65888 C 218.78835,115.20246 218.69769,114.88516 218.51638,114.70696 C 218.33506,114.52877 218.01619,114.43968 217.55977,114.43967 C 217.34094,114.43968 217.06896,114.48813 216.74384,114.58504 C 216.42185,114.67883 216.14987,114.78825 215.92791,114.91329 L 215.68876,114.28962 C 215.95136,114.13332 216.27179,114.00671 216.65006,113.90979 C 217.03145,113.80976 217.38002,113.75974 217.69576,113.75973 C 218.346,113.75974 218.82587,113.90667 219.13536,114.20052 C 219.44797,114.49439 219.60428,114.94299 219.60429,115.54634 L 219.60429,117.60023 C 219.60428,118.1098 219.69338,118.49744 219.87157,118.76317 M 218.78836,117.36108 L 218.78836,116.42792 C 218.08809,116.46856 217.62855,116.50139 217.40972,116.52639 C 217.19401,116.54828 216.98299,116.5983 216.77667,116.67645 C 216.57034,116.7546 216.41403,116.86089 216.30774,116.99532 C 216.20145,117.12974 216.14831,117.29699 216.14831,117.49707 C 216.14831,117.7034 216.22802,117.87065 216.38746,117.99882 C 216.54689,118.12386 216.75166,118.18639 217.00175,118.18639 C 217.32062,118.18639 217.6473,118.11136 217.98181,117.9613 C 218.3163,117.80812 218.58515,117.60805 218.78836,117.36108 M 223.21032,116.69989 L 220.63123,116.69989 L 220.63123,115.90272 L 223.21032,115.90272 L 223.21032,116.69989 M 228.47635,118.32238 C 227.78547,118.70064 227.11021,118.88978 226.4506,118.88978 C 225.65342,118.88978 225.03131,118.66 224.58427,118.20046 C 224.13723,117.74091 223.91371,117.11255 223.91371,116.31538 C 223.91371,115.55259 224.12004,114.93674 224.53269,114.46781 C 224.94847,113.99576 225.50962,113.75974 226.21613,113.75973 C 226.85074,113.75974 227.36969,113.97857 227.77297,114.41623 C 228.17624,114.85077 228.37787,115.43224 228.37788,116.16063 L 228.37788,116.38103 L 224.75778,116.38103 C 224.78278,116.96562 224.93909,117.41266 225.2267,117.72215 C 225.51743,118.03164 225.92227,118.18639 226.44122,118.18639 C 227.05082,118.18639 227.64948,118.00976 228.2372,117.6565 L 228.47635,118.32238 M 227.51506,115.74798 C 227.47441,115.35096 227.33061,115.03521 227.08365,114.80075 C 226.83667,114.56629 226.54438,114.44906 226.20676,114.44905 C 225.83474,114.44906 225.52369,114.56316 225.27359,114.79137 C 225.0235,115.01646 224.86094,115.33533 224.78591,115.74798 L 227.51506,115.74798 M 230.89132,120.67638 L 229.02968,120.67638 L 229.02968,120.00113 L 230.07539,120.00113 L 230.07539,112.55928 L 229.02968,112.55928 L 229.02968,111.88872 L 230.89132,111.88872 L 230.89132,120.67638"
       style="font-size:9.60358906px;font-style:normal;font-variant:normal;font-weight:normal;font-stretch:normal;text-align:start;line-height:125%;writing-mode:lr-tb;text-anchor:start;fill:#000000;fill-opacity:1;stroke:none;stroke-width:1px;stroke-linecap:butt;stroke-linejoin:miter;stroke-opacity:1;font-family:Sans;-inkscape-font-specification:Sans"
       transform="translate(-106.61672,-89.310527)" />
    <path
       id="flowRoot7944"
       d="M 214.83063,120.67638 L 212.96431,120.67638 L 212.96431,111.79025 L 214.83063,111.79025 L 214.83063,112.4655 L 213.78024,112.4655 L 213.78024,120.00113 L 214.83063,120.00113 L 214.83063,120.67638 M 219.87157,118.76317 L 218.99,118.76317 C 218.93997,118.68501 218.89621,118.57403 218.8587,118.43023 C 218.8243,118.28643 218.80711,118.16763 218.80711,118.07385 C 218.22877,118.6178 217.5926,118.88978 216.89859,118.88978 C 216.43904,118.88978 216.06546,118.77098 215.77786,118.53339 C 215.49338,118.29268 215.35114,117.95974 215.35114,117.53458 C 215.35114,117.19696 215.43554,116.91248 215.60436,116.68114 C 215.77629,116.44668 216.03264,116.2638 216.37339,116.1325 C 216.71727,116.0012 217.15337,115.91836 217.68169,115.88396 L 218.78836,115.81363 L 218.78836,115.65888 C 218.78835,115.20246 218.69769,114.88516 218.51638,114.70696 C 218.33506,114.52877 218.01619,114.43968 217.55977,114.43967 C 217.34094,114.43968 217.06896,114.48813 216.74384,114.58504 C 216.42185,114.67883 216.14987,114.78825 215.92791,114.91329 L 215.68876,114.28962 C 215.95136,114.13332 216.27179,114.00671 216.65006,113.90979 C 217.03145,113.80976 217.38002,113.75974 217.69576,113.75973 C 218.346,113.75974 218.82587,113.90667 219.13536,114.20052 C 219.44797,114.49439 219.60428,114.94299 219.60429,115.54634 L 219.60429,117.60023 C 219.60428,118.1098 219.69338,118.49744 219.87157,118.76317 M 218.78836,117.36108 L 218.78836,116.42792 C 218.08809,116.46856 217.62855,116.50139 217.40972,116.52639 C 217.19401,116.54828 216.98299,116.5983 216.77667,116.67645 C 216.57034,116.7546 216.41403,116.86089 216.30774,116.99532 C 216.20145,117.12974 216.14831,117.29699 216.14831,117.49707 C 216.14831,117.7034 216.22802,117.87065 216.38746,117.99882 C 216.54689,118.12386 216.75166,118.18639 217.00175,118.18639 C 217.32062,118.18639 217.6473,118.11136 217.98181,117.9613 C 218.3163,117.80812 218.58515,117.60805 218.78836,117.36108 M 223.21032,116.69989 L 220.63123,116.69989 L 220.63123,115.90272 L 223.21032,115.90272 L 223.21032,116.69989 M 228.47635,118.32238 C 227.78547,118.70064 227.11021,118.88978 226.4506,118.88978 C 225.65342,118.88978 225.03131,118.66 224.58427,118.20046 C 224.13723,117.74091 223.91371,117.11255 223.91371,116.31538 C 223.91371,115.55259 224.12004,114.93674 224.53269,114.46781 C 224.94847,113.99576 225.50962,113.75974 226.21613,113.75973 C 226.85074,113.75974 227.36969,113.97857 227.77297,114.41623 C 228.17624,114.85077 228.37787,115.43224 228.37788,116.16063 L 228.37788,116.38103 L 224.75778,116.38103 C 224.78278,116.96562 224.93909,117.41266 225.2267,117.72215 C 225.51743,118.03164 225.92227,118.18639 226.44122,118.18639 C 227.05082,118.18639 227.64948,118.00976 228.2372,117.6565 L 228.47635,118.32238 M 227.51506,115.74798 C 227.47441,115.35096 227.33061,115.03521 227.08365,114.80075 C 226.83667,114.56629 226.54438,114.44906 226.20676,114.44905 C 225.83474,114.44906 225.52369,114.56316 225.27359,114.79137 C 225.0235,115.01646 224.86094,115.33533 224.78591,115.74798 L 227.51506,115.74798 M 230.89132,120.67638 L 229.02968,120.67638 L 229.02968,120.00113 L 230.07539,120.00113 L 230.07539,112.55928 L 229.02968,112.55928 L 229.02968,111.88872 L 230.89132,111.88872 L 230.89132,120.67638"
       style="font-size:9.60358906px;font-style:normal;font-variant:normal;font-weight:normal;font-stretch:normal;text-align:start;line-height:125%;writing-mode:lr-tb;text-anchor:start;fill:#000000;fill-opacity:1;stroke:none;stroke-width:1px;stroke-linecap:butt;stroke-linejoin:miter;stroke-opacity:1;font-family:Sans;-inkscape-font-specification:Sans"
       transform="translate(233.66792,-89.310527)" />
    <path
       id="flowRoot8198"
       d="M 169.16797,105.65071 C 169.16796,107.13509 168.93554,108.23275 168.4707,108.94368 C 168.00976,109.65071 167.31836,110.00228 166.39648,109.99837 C 165.46679,109.99837 164.77148,109.6429 164.31055,108.93196 C 163.85351,108.21712 163.625,107.12337 163.625,105.65071 C 163.625,104.24056 163.85547,103.18197 164.31641,102.47493 C 164.77734,101.76791 165.4707,101.41439 166.39648,101.41439 C 167.31836,101.41439 168.00976,101.76791 168.4707,102.47493 C 168.93554,103.18197 169.16796,104.24056 169.16797,105.65071 M 166.39648,109.09603 C 166.95507,109.09603 167.37695,108.84017 167.66211,108.32845 C 167.94726,107.81673 168.08984,106.93978 168.08984,105.69759 C 168.08984,104.52572 167.95507,103.67025 167.68555,103.13118 C 167.41992,102.58822 166.98632,102.31674 166.38477,102.31673 C 165.82617,102.31674 165.40625,102.59994 165.125,103.16634 C 164.84765,103.72885 164.70898,104.57259 164.70898,105.69759 C 164.70898,106.8304 164.84961,107.68001 165.13086,108.24642 C 165.41211,108.81282 165.83398,109.09603 166.39648,109.09603"
       style="font-size:12px;font-style:normal;font-variant:normal;font-weight:normal;font-stretch:normal;fill:#000000;fill-opacity:1;stroke:none;stroke-width:1px;stroke-linecap:butt;stroke-linejoin:miter;stroke-opacity:1;font-family:Sans;-inkscape-font-specification:Adobe Helvetica"
       transform="translate(-95.503841,-43.391078)" />
    <path
       id="flowRoot8076"
       d="M 167.39258,109.84017 L 166.33789,109.84017 L 166.33789,102.96126 C 165.8457,103.44955 165.14258,103.69369 164.22852,103.69368 L 164.22852,102.70931 C 165.34179,102.70931 166.14062,102.30697 166.625,101.50228 L 167.39258,101.50228 L 167.39258,109.84017"
       style="font-size:12px;font-style:normal;font-variant:normal;font-weight:normal;font-stretch:normal;text-align:start;line-height:125%;writing-mode:lr-tb;text-anchor:start;fill:#000000;fill-opacity:1;stroke:none;stroke-width:1px;stroke-linecap:butt;stroke-linejoin:miter;stroke-opacity:1;font-family:Sans;-inkscape-font-specification:Sans"
       transform="translate(74.638476,-43.39108)" />
    <path
       id="flowRoot7740"
       d="M 169.03906,109.84017 L 163.54297,109.84017 L 163.54297,108.97884 C 164.51953,108.06478 165.33008,107.32064 165.97461,106.74642 C 166.61914,106.1722 167.09179,105.65658 167.39258,105.19954 C 167.69726,104.73861 167.8496,104.26986 167.84961,103.79329 C 167.8496,103.34017 167.69335,102.9808 167.38086,102.71517 C 167.06836,102.44955 166.66406,102.31674 166.16797,102.31673 C 165.48437,102.31674 164.76172,102.51596 164,102.91439 L 163.70117,102.0765 C 164.51758,101.6351 165.36914,101.41439 166.25586,101.41439 C 167.04882,101.41439 167.6914,101.63705 168.18359,102.08235 C 168.67968,102.52767 168.92773,103.09799 168.92773,103.79329 C 168.92773,104.31283 168.76953,104.8265 168.45312,105.33431 C 168.13671,105.84212 167.62304,106.41244 166.91211,107.04525 L 164.87305,108.87923 L 169.03906,108.87923 L 169.03906,109.84017"
       style="font-size:12px;font-style:normal;font-variant:normal;font-weight:normal;font-stretch:normal;text-align:start;line-height:125%;writing-mode:lr-tb;text-anchor:start;fill:#000000;fill-opacity:1;stroke:none;stroke-width:1px;stroke-linecap:butt;stroke-linejoin:miter;stroke-opacity:1;font-family:Sans;-inkscape-font-specification:Sans"
       transform="translate(244.7808,-43.391078)" />
    <path
       id="flowRoot8112"
       d="M 180.30273,64.867511 C 179.92383,64.996417 179.62109,65.06087 179.39453,65.06087 C 178.86719,65.06087 178.48242,64.912433 178.24023,64.615558 C 178.00195,64.318683 177.88281,63.85384 177.88281,63.221027 L 177.88281,59.635089 L 177.13867,59.635089 L 177.13867,58.797198 L 177.88281,58.797198 L 177.88281,57.127277 L 178.90234,57.127277 L 178.90234,58.797198 L 180.07422,58.797198 L 180.07422,59.635089 L 178.90234,59.635089 L 178.90234,63.174152 C 178.90234,63.846028 179.10937,64.181965 179.52344,64.181964 C 179.70312,64.181965 179.90039,64.142902 180.11523,64.064777 L 180.30273,64.867511 M 183.64258,58.650714 C 184.52148,58.65072 185.21679,58.943689 185.72852,59.52962 C 186.24413,60.115563 186.50195,60.890952 186.50195,61.855792 C 186.50195,62.820638 186.24413,63.596028 185.72852,64.181964 C 185.21679,64.767902 184.52148,65.06087 183.64258,65.06087 C 182.75976,65.06087 182.06055,64.769855 181.54492,64.187823 C 181.0332,63.601887 180.77734,62.824544 180.77734,61.855792 C 180.77734,60.88314 181.0332,60.105797 181.54492,59.523761 C 182.06055,58.941736 182.75976,58.65072 183.64258,58.650714 M 183.64258,64.158527 C 184.19726,64.158527 184.63671,63.935871 184.96094,63.490558 C 185.28515,63.045247 185.44726,62.500326 185.44727,61.855792 C 185.44726,61.160483 185.28906,60.603843 184.97266,60.18587 C 184.66015,59.764 184.21679,59.553063 183.64258,59.553058 C 183.06445,59.553063 182.61719,59.762047 182.30078,60.180011 C 181.98828,60.597984 181.83203,61.156577 181.83203,61.855792 C 181.83203,62.504232 181.99414,63.051107 182.31836,63.496417 C 182.64258,63.937824 183.08398,64.158527 183.64258,64.158527 M 194.63477,64.902667 L 193.58008,64.902667 L 193.58008,58.023761 C 193.08789,58.512049 192.38476,58.756189 191.4707,58.756183 L 191.4707,57.771808 C 192.58398,57.771815 193.38281,57.369472 193.86719,56.564777 L 194.63477,56.564777 L 194.63477,64.902667 M 203.08984,60.713214 C 203.08984,62.197592 202.85742,63.295247 202.39258,64.006183 C 201.93164,64.713214 201.24023,65.064776 200.31836,65.06087 C 199.38867,65.06087 198.69336,64.705402 198.23242,63.994464 C 197.77539,63.279622 197.54687,62.185873 197.54688,60.713214 C 197.54687,59.303063 197.77734,58.244471 198.23828,57.537433 C 198.69922,56.83041 199.39258,56.476894 200.31836,56.476886 C 201.24023,56.476894 201.93164,56.83041 202.39258,57.537433 C 202.85742,58.244471 203.08984,59.303063 203.08984,60.713214 M 200.31836,64.158527 C 200.87695,64.158527 201.29882,63.902668 201.58398,63.390948 C 201.86914,62.879232 202.01171,62.002279 202.01172,60.760089 C 202.01171,59.588219 201.87695,58.732751 201.60742,58.193683 C 201.34179,57.650721 200.9082,57.379237 200.30664,57.37923 C 199.74804,57.379237 199.32812,57.66244 199.04688,58.228839 C 198.76953,58.791345 198.63086,59.635094 198.63086,60.760089 C 198.63086,61.892905 198.77148,62.742513 199.05273,63.308917 C 199.33398,63.875324 199.75586,64.158527 200.31836,64.158527"
       style="font-size:12px;font-style:normal;font-variant:normal;font-weight:normal;font-stretch:normal;fill:#000000;fill-opacity:1;stroke:none;stroke-width:1px;stroke-linecap:butt;stroke-linejoin:miter;stroke-opacity:1;font-family:Sans;-inkscape-font-specification:Adobe Helvetica"
       transform="translate(-44.29788,-28.151975)" />
    <path
       id="flowRoot7952"
       d="M 180.30273,64.867511 C 179.92383,64.996417 179.62109,65.06087 179.39453,65.06087 C 178.86719,65.06087 178.48242,64.912433 178.24023,64.615558 C 178.00195,64.318683 177.88281,63.85384 177.88281,63.221027 L 177.88281,59.635089 L 177.13867,59.635089 L 177.13867,58.797198 L 177.88281,58.797198 L 177.88281,57.127277 L 178.90234,57.127277 L 178.90234,58.797198 L 180.07422,58.797198 L 180.07422,59.635089 L 178.90234,59.635089 L 178.90234,63.174152 C 178.90234,63.846028 179.10937,64.181965 179.52344,64.181964 C 179.70312,64.181965 179.90039,64.142902 180.11523,64.064777 L 180.30273,64.867511 M 183.64258,58.650714 C 184.52148,58.65072 185.21679,58.943689 185.72852,59.52962 C 186.24413,60.115563 186.50195,60.890952 186.50195,61.855792 C 186.50195,62.820638 186.24413,63.596028 185.72852,64.181964 C 185.21679,64.767902 184.52148,65.06087 183.64258,65.06087 C 182.75976,65.06087 182.06055,64.769855 181.54492,64.187823 C 181.0332,63.601887 180.77734,62.824544 180.77734,61.855792 C 180.77734,60.88314 181.0332,60.105797 181.54492,59.523761 C 182.06055,58.941736 182.75976,58.65072 183.64258,58.650714 M 183.64258,64.158527 C 184.19726,64.158527 184.63671,63.935871 184.96094,63.490558 C 185.28515,63.045247 185.44726,62.500326 185.44727,61.855792 C 185.44726,61.160483 185.28906,60.603843 184.97266,60.18587 C 184.66015,59.764 184.21679,59.553063 183.64258,59.553058 C 183.06445,59.553063 182.61719,59.762047 182.30078,60.180011 C 181.98828,60.597984 181.83203,61.156577 181.83203,61.855792 C 181.83203,62.504232 181.99414,63.051107 182.31836,63.496417 C 182.64258,63.937824 183.08398,64.158527 183.64258,64.158527 M 194.63477,64.902667 L 193.58008,64.902667 L 193.58008,58.023761 C 193.08789,58.512049 192.38476,58.756189 191.4707,58.756183 L 191.4707,57.771808 C 192.58398,57.771815 193.38281,57.369472 193.86719,56.564777 L 194.63477,56.564777 L 194.63477,64.902667 M 203.08984,60.713214 C 203.08984,62.197592 202.85742,63.295247 202.39258,64.006183 C 201.93164,64.713214 201.24023,65.064776 200.31836,65.06087 C 199.38867,65.06087 198.69336,64.705402 198.23242,63.994464 C 197.77539,63.279622 197.54687,62.185873 197.54688,60.713214 C 197.54687,59.303063 197.77734,58.244471 198.23828,57.537433 C 198.69922,56.83041 199.39258,56.476894 200.31836,56.476886 C 201.24023,56.476894 201.93164,56.83041 202.39258,57.537433 C 202.85742,58.244471 203.08984,59.303063 203.08984,60.713214 M 200.31836,64.158527 C 200.87695,64.158527 201.29882,63.902668 201.58398,63.390948 C 201.86914,62.879232 202.01171,62.002279 202.01172,60.760089 C 202.01171,59.588219 201.87695,58.732751 201.60742,58.193683 C 201.34179,57.650721 200.9082,57.379237 200.30664,57.37923 C 199.74804,57.379237 199.32812,57.66244 199.04688,58.228839 C 198.76953,58.791345 198.63086,59.635094 198.63086,60.760089 C 198.63086,61.892905 198.77148,62.742513 199.05273,63.308917 C 199.33398,63.875324 199.75586,64.158527 200.31836,64.158527"
       style="font-size:12px;font-style:normal;font-variant:normal;font-weight:normal;font-stretch:normal;fill:#000000;fill-opacity:1;stroke:none;stroke-width:1px;stroke-linecap:butt;stroke-linejoin:miter;stroke-opacity:1;font-family:Sans;-inkscape-font-specification:Adobe Helvetica"
       transform="translate(295.98676,-28.151975)" />
    <path
       id="flowRoot8120"
       d="M 180.30273,64.867511 C 179.92383,64.996417 179.62109,65.06087 179.39453,65.06087 C 178.86719,65.06087 178.48242,64.912433 178.24023,64.615558 C 178.00195,64.318683 177.88281,63.85384 177.88281,63.221027 L 177.88281,59.635089 L 177.13867,59.635089 L 177.13867,58.797198 L 177.88281,58.797198 L 177.88281,57.127277 L 178.90234,57.127277 L 178.90234,58.797198 L 180.07422,58.797198 L 180.07422,59.635089 L 178.90234,59.635089 L 178.90234,63.174152 C 178.90234,63.846028 179.10937,64.181965 179.52344,64.181964 C 179.70312,64.181965 179.90039,64.142902 180.11523,64.064777 L 180.30273,64.867511 M 183.64258,58.650714 C 184.52148,58.65072 185.21679,58.943689 185.72852,59.52962 C 186.24413,60.115563 186.50195,60.890952 186.50195,61.855792 C 186.50195,62.820638 186.24413,63.596028 185.72852,64.181964 C 185.21679,64.767902 184.52148,65.06087 183.64258,65.06087 C 182.75976,65.06087 182.06055,64.769855 181.54492,64.187823 C 181.0332,63.601887 180.77734,62.824544 180.77734,61.855792 C 180.77734,60.88314 181.0332,60.105797 181.54492,59.523761 C 182.06055,58.941736 182.75976,58.65072 183.64258,58.650714 M 183.64258,64.158527 C 184.19726,64.158527 184.63671,63.935871 184.96094,63.490558 C 185.28515,63.045247 185.44726,62.500326 185.44727,61.855792 C 185.44726,61.160483 185.28906,60.603843 184.97266,60.18587 C 184.66015,59.764 184.21679,59.553063 183.64258,59.553058 C 183.06445,59.553063 182.61719,59.762047 182.30078,60.180011 C 181.98828,60.597984 181.83203,61.156577 181.83203,61.855792 C 181.83203,62.504232 181.99414,63.051107 182.31836,63.496417 C 182.64258,63.937824 183.08398,64.158527 183.64258,64.158527 M 194.63477,64.902667 L 193.58008,64.902667 L 193.58008,58.023761 C 193.08789,58.512049 192.38476,58.756189 191.4707,58.756183 L 191.4707,57.771808 C 192.58398,57.771815 193.38281,57.369472 193.86719,56.564777 L 194.63477,56.564777 L 194.63477,64.902667 M 200.42383,64.902667 L 199.36914,64.902667 L 199.36914,58.023761 C 198.87695,58.512049 198.17383,58.756189 197.25977,58.756183 L 197.25977,57.771808 C 198.37304,57.771815 199.17187,57.369472 199.65625,56.564777 L 200.42383,56.564777 L 200.42383,64.902667"
       style="font-size:12px;font-style:normal;font-variant:normal;font-weight:normal;font-stretch:normal;fill:#000000;fill-opacity:1;stroke:none;stroke-width:1px;stroke-linecap:butt;stroke-linejoin:miter;stroke-opacity:1;font-family:Sans;-inkscape-font-specification:Adobe Helvetica"
       transform="translate(-44.29788,0.2050797)" />
    <path
       id="flowRoot8092"
       d="M 180.30273,64.867511 C 179.92383,64.996417 179.62109,65.06087 179.39453,65.06087 C 178.86719,65.06087 178.48242,64.912433 178.24023,64.615558 C 178.00195,64.318683 177.88281,63.85384 177.88281,63.221027 L 177.88281,59.635089 L 177.13867,59.635089 L 177.13867,58.797198 L 177.88281,58.797198 L 177.88281,57.127277 L 178.90234,57.127277 L 178.90234,58.797198 L 180.07422,58.797198 L 180.07422,59.635089 L 178.90234,59.635089 L 178.90234,63.174152 C 178.90234,63.846028 179.10937,64.181965 179.52344,64.181964 C 179.70312,64.181965 179.90039,64.142902 180.11523,64.064777 L 180.30273,64.867511 M 183.64258,58.650714 C 184.52148,58.65072 185.21679,58.943689 185.72852,59.52962 C 186.24413,60.115563 186.50195,60.890952 186.50195,61.855792 C 186.50195,62.820638 186.24413,63.596028 185.72852,64.181964 C 185.21679,64.767902 184.52148,65.06087 183.64258,65.06087 C 182.75976,65.06087 182.06055,64.769855 181.54492,64.187823 C 181.0332,63.601887 180.77734,62.824544 180.77734,61.855792 C 180.77734,60.88314 181.0332,60.105797 181.54492,59.523761 C 182.06055,58.941736 182.75976,58.65072 183.64258,58.650714 M 183.64258,64.158527 C 184.19726,64.158527 184.63671,63.935871 184.96094,63.490558 C 185.28515,63.045247 185.44726,62.500326 185.44727,61.855792 C 185.44726,61.160483 185.28906,60.603843 184.97266,60.18587 C 184.66015,59.764 184.21679,59.553063 183.64258,59.553058 C 183.06445,59.553063 182.61719,59.762047 182.30078,60.180011 C 181.98828,60.597984 181.83203,61.156577 181.83203,61.855792 C 181.83203,62.504232 181.99414,63.051107 182.31836,63.496417 C 182.64258,63.937824 183.08398,64.158527 183.64258,64.158527 M 194.63477,64.902667 L 193.58008,64.902667 L 193.58008,58.023761 C 193.08789,58.512049 192.38476,58.756189 191.4707,58.756183 L 191.4707,57.771808 C 192.58398,57.771815 193.38281,57.369472 193.86719,56.564777 L 194.63477,56.564777 L 194.63477,64.902667 M 203.08984,60.713214 C 203.08984,62.197592 202.85742,63.295247 202.39258,64.006183 C 201.93164,64.713214 201.24023,65.064776 200.31836,65.06087 C 199.38867,65.06087 198.69336,64.705402 198.23242,63.994464 C 197.77539,63.279622 197.54687,62.185873 197.54688,60.713214 C 197.54687,59.303063 197.77734,58.244471 198.23828,57.537433 C 198.69922,56.83041 199.39258,56.476894 200.31836,56.476886 C 201.24023,56.476894 201.93164,56.83041 202.39258,57.537433 C 202.85742,58.244471 203.08984,59.303063 203.08984,60.713214 M 200.31836,64.158527 C 200.87695,64.158527 201.29882,63.902668 201.58398,63.390948 C 201.86914,62.879232 202.01171,62.002279 202.01172,60.760089 C 202.01171,59.588219 201.87695,58.732751 201.60742,58.193683 C 201.34179,57.650721 200.9082,57.379237 200.30664,57.37923 C 199.74804,57.379237 199.32812,57.66244 199.04688,58.228839 C 198.76953,58.791345 198.63086,59.635094 198.63086,60.760089 C 198.63086,61.892905 198.77148,62.742513 199.05273,63.308917 C 199.33398,63.875324 199.75586,64.158527 200.31836,64.158527"
       style="font-size:12px;font-style:normal;font-variant:normal;font-weight:normal;font-stretch:normal;fill:#000000;fill-opacity:1;stroke:none;stroke-width:1px;stroke-linecap:butt;stroke-linejoin:miter;stroke-opacity:1;font-family:Sans;-inkscape-font-specification:Adobe Helvetica"
       transform="translate(125.84444,0.2050776)" />
    <path
       id="flowRoot7960"
       d="M 180.30273,64.867511 C 179.92383,64.996417 179.62109,65.06087 179.39453,65.06087 C 178.86719,65.06087 178.48242,64.912433 178.24023,64.615558 C 178.00195,64.318683 177.88281,63.85384 177.88281,63.221027 L 177.88281,59.635089 L 177.13867,59.635089 L 177.13867,58.797198 L 177.88281,58.797198 L 177.88281,57.127277 L 178.90234,57.127277 L 178.90234,58.797198 L 180.07422,58.797198 L 180.07422,59.635089 L 178.90234,59.635089 L 178.90234,63.174152 C 178.90234,63.846028 179.10937,64.181965 179.52344,64.181964 C 179.70312,64.181965 179.90039,64.142902 180.11523,64.064777 L 180.30273,64.867511 M 183.64258,58.650714 C 184.52148,58.65072 185.21679,58.943689 185.72852,59.52962 C 186.24413,60.115563 186.50195,60.890952 186.50195,61.855792 C 186.50195,62.820638 186.24413,63.596028 185.72852,64.181964 C 185.21679,64.767902 184.52148,65.06087 183.64258,65.06087 C 182.75976,65.06087 182.06055,64.769855 181.54492,64.187823 C 181.0332,63.601887 180.77734,62.824544 180.77734,61.855792 C 180.77734,60.88314 181.0332,60.105797 181.54492,59.523761 C 182.06055,58.941736 182.75976,58.65072 183.64258,58.650714 M 183.64258,64.158527 C 184.19726,64.158527 184.63671,63.935871 184.96094,63.490558 C 185.28515,63.045247 185.44726,62.500326 185.44727,61.855792 C 185.44726,61.160483 185.28906,60.603843 184.97266,60.18587 C 184.66015,59.764 184.21679,59.553063 183.64258,59.553058 C 183.06445,59.553063 182.61719,59.762047 182.30078,60.180011 C 181.98828,60.597984 181.83203,61.156577 181.83203,61.855792 C 181.83203,62.504232 181.99414,63.051107 182.31836,63.496417 C 182.64258,63.937824 183.08398,64.158527 183.64258,64.158527 M 196.28125,64.902667 L 190.78516,64.902667 L 190.78516,64.041339 C 191.76172,63.127278 192.57226,62.383138 193.2168,61.808917 C 193.86132,61.234702 194.33398,60.719078 194.63477,60.262042 C 194.93945,59.80111 195.09179,59.33236 195.0918,58.855792 C 195.09179,58.402674 194.93554,58.043299 194.62305,57.777667 C 194.31054,57.51205 193.90625,57.379237 193.41016,57.37923 C 192.72656,57.379237 192.0039,57.578456 191.24219,57.976886 L 190.94336,57.138995 C 191.75976,56.697597 192.61133,56.476894 193.49805,56.476886 C 194.29101,56.476894 194.93359,56.69955 195.42578,57.144855 C 195.92187,57.590175 196.16992,58.160486 196.16992,58.855792 C 196.16992,59.375329 196.01171,59.889 195.69531,60.396808 C 195.3789,60.904624 194.86523,61.474936 194.1543,62.107745 L 192.11523,63.94173 L 196.28125,63.94173 L 196.28125,64.902667 M 201.31445,64.902667 L 200.25977,64.902667 L 200.25977,58.023761 C 199.76758,58.512049 199.06445,58.756189 198.15039,58.756183 L 198.15039,57.771808 C 199.26367,57.771815 200.0625,57.369472 200.54688,56.564777 L 201.31445,56.564777 L 201.31445,64.902667"
       style="font-size:12px;font-style:normal;font-variant:normal;font-weight:normal;font-stretch:normal;fill:#000000;fill-opacity:1;stroke:none;stroke-width:1px;stroke-linecap:butt;stroke-linejoin:miter;stroke-opacity:1;font-family:Sans;-inkscape-font-specification:Adobe Helvetica"
       transform="translate(295.98676,0.2050797)" />
    <path
       id="flowRoot8128"
       d="M 180.30273,64.867511 C 179.92383,64.996417 179.62109,65.06087 179.39453,65.06087 C 178.86719,65.06087 178.48242,64.912433 178.24023,64.615558 C 178.00195,64.318683 177.88281,63.85384 177.88281,63.221027 L 177.88281,59.635089 L 177.13867,59.635089 L 177.13867,58.797198 L 177.88281,58.797198 L 177.88281,57.127277 L 178.90234,57.127277 L 178.90234,58.797198 L 180.07422,58.797198 L 180.07422,59.635089 L 178.90234,59.635089 L 178.90234,63.174152 C 178.90234,63.846028 179.10937,64.181965 179.52344,64.181964 C 179.70312,64.181965 179.90039,64.142902 180.11523,64.064777 L 180.30273,64.867511 M 183.64258,58.650714 C 184.52148,58.65072 185.21679,58.943689 185.72852,59.52962 C 186.24413,60.115563 186.50195,60.890952 186.50195,61.855792 C 186.50195,62.820638 186.24413,63.596028 185.72852,64.181964 C 185.21679,64.767902 184.52148,65.06087 183.64258,65.06087 C 182.75976,65.06087 182.06055,64.769855 181.54492,64.187823 C 181.0332,63.601887 180.77734,62.824544 180.77734,61.855792 C 180.77734,60.88314 181.0332,60.105797 181.54492,59.523761 C 182.06055,58.941736 182.75976,58.65072 183.64258,58.650714 M 183.64258,64.158527 C 184.19726,64.158527 184.63671,63.935871 184.96094,63.490558 C 185.28515,63.045247 185.44726,62.500326 185.44727,61.855792 C 185.44726,61.160483 185.28906,60.603843 184.97266,60.18587 C 184.66015,59.764 184.21679,59.553063 183.64258,59.553058 C 183.06445,59.553063 182.61719,59.762047 182.30078,60.180011 C 181.98828,60.597984 181.83203,61.156577 181.83203,61.855792 C 181.83203,62.504232 181.99414,63.051107 182.31836,63.496417 C 182.64258,63.937824 183.08398,64.158527 183.64258,64.158527 M 194.63477,64.902667 L 193.58008,64.902667 L 193.58008,58.023761 C 193.08789,58.512049 192.38476,58.756189 191.4707,58.756183 L 191.4707,57.771808 C 192.58398,57.771815 193.38281,57.369472 193.86719,56.564777 L 194.63477,56.564777 L 194.63477,64.902667 M 202.96094,64.902667 L 197.46484,64.902667 L 197.46484,64.041339 C 198.4414,63.127278 199.25195,62.383138 199.89648,61.808917 C 200.54101,61.234702 201.01367,60.719078 201.31445,60.262042 C 201.61914,59.80111 201.77148,59.33236 201.77148,58.855792 C 201.77148,58.402674 201.61523,58.043299 201.30273,57.777667 C 200.99023,57.51205 200.58593,57.379237 200.08984,57.37923 C 199.40625,57.379237 198.68359,57.578456 197.92188,57.976886 L 197.62305,57.138995 C 198.43945,56.697597 199.29101,56.476894 200.17773,56.476886 C 200.9707,56.476894 201.61328,56.69955 202.10547,57.144855 C 202.60156,57.590175 202.8496,58.160486 202.84961,58.855792 C 202.8496,59.375329 202.6914,59.889 202.375,60.396808 C 202.05859,60.904624 201.54492,61.474936 200.83398,62.107745 L 198.79492,63.94173 L 202.96094,63.94173 L 202.96094,64.902667"
       style="font-size:12px;font-style:normal;font-variant:normal;font-weight:normal;font-stretch:normal;fill:#000000;fill-opacity:1;stroke:none;stroke-width:1px;stroke-linecap:butt;stroke-linejoin:miter;stroke-opacity:1;font-family:Sans;-inkscape-font-specification:Adobe Helvetica"
       transform="translate(-44.29788,28.562132)" />
    <path
       id="flowRoot8100"
       d="M 180.30273,64.867511 C 179.92383,64.996417 179.62109,65.06087 179.39453,65.06087 C 178.86719,65.06087 178.48242,64.912433 178.24023,64.615558 C 178.00195,64.318683 177.88281,63.85384 177.88281,63.221027 L 177.88281,59.635089 L 177.13867,59.635089 L 177.13867,58.797198 L 177.88281,58.797198 L 177.88281,57.127277 L 178.90234,57.127277 L 178.90234,58.797198 L 180.07422,58.797198 L 180.07422,59.635089 L 178.90234,59.635089 L 178.90234,63.174152 C 178.90234,63.846028 179.10937,64.181965 179.52344,64.181964 C 179.70312,64.181965 179.90039,64.142902 180.11523,64.064777 L 180.30273,64.867511 M 183.64258,58.650714 C 184.52148,58.65072 185.21679,58.943689 185.72852,59.52962 C 186.24413,60.115563 186.50195,60.890952 186.50195,61.855792 C 186.50195,62.820638 186.24413,63.596028 185.72852,64.181964 C 185.21679,64.767902 184.52148,65.06087 183.64258,65.06087 C 182.75976,65.06087 182.06055,64.769855 181.54492,64.187823 C 181.0332,63.601887 180.77734,62.824544 180.77734,61.855792 C 180.77734,60.88314 181.0332,60.105797 181.54492,59.523761 C 182.06055,58.941736 182.75976,58.65072 183.64258,58.650714 M 183.64258,64.158527 C 184.19726,64.158527 184.63671,63.935871 184.96094,63.490558 C 185.28515,63.045247 185.44726,62.500326 185.44727,61.855792 C 185.44726,61.160483 185.28906,60.603843 184.97266,60.18587 C 184.66015,59.764 184.21679,59.553063 183.64258,59.553058 C 183.06445,59.553063 182.61719,59.762047 182.30078,60.180011 C 181.98828,60.597984 181.83203,61.156577 181.83203,61.855792 C 181.83203,62.504232 181.99414,63.051107 182.31836,63.496417 C 182.64258,63.937824 183.08398,64.158527 183.64258,64.158527 M 196.28125,64.902667 L 190.78516,64.902667 L 190.78516,64.041339 C 191.76172,63.127278 192.57226,62.383138 193.2168,61.808917 C 193.86132,61.234702 194.33398,60.719078 194.63477,60.262042 C 194.93945,59.80111 195.09179,59.33236 195.0918,58.855792 C 195.09179,58.402674 194.93554,58.043299 194.62305,57.777667 C 194.31054,57.51205 193.90625,57.379237 193.41016,57.37923 C 192.72656,57.379237 192.0039,57.578456 191.24219,57.976886 L 190.94336,57.138995 C 191.75976,56.697597 192.61133,56.476894 193.49805,56.476886 C 194.29101,56.476894 194.93359,56.69955 195.42578,57.144855 C 195.92187,57.590175 196.16992,58.160486 196.16992,58.855792 C 196.16992,59.375329 196.01171,59.889 195.69531,60.396808 C 195.3789,60.904624 194.86523,61.474936 194.1543,62.107745 L 192.11523,63.94173 L 196.28125,63.94173 L 196.28125,64.902667 M 202.96094,64.902667 L 197.46484,64.902667 L 197.46484,64.041339 C 198.4414,63.127278 199.25195,62.383138 199.89648,61.808917 C 200.54101,61.234702 201.01367,60.719078 201.31445,60.262042 C 201.61914,59.80111 201.77148,59.33236 201.77148,58.855792 C 201.77148,58.402674 201.61523,58.043299 201.30273,57.777667 C 200.99023,57.51205 200.58593,57.379237 200.08984,57.37923 C 199.40625,57.379237 198.68359,57.578456 197.92188,57.976886 L 197.62305,57.138995 C 198.43945,56.697597 199.29101,56.476894 200.17773,56.476886 C 200.9707,56.476894 201.61328,56.69955 202.10547,57.144855 C 202.60156,57.590175 202.8496,58.160486 202.84961,58.855792 C 202.8496,59.375329 202.6914,59.889 202.375,60.396808 C 202.05859,60.904624 201.54492,61.474936 200.83398,62.107745 L 198.79492,63.94173 L 202.96094,63.94173 L 202.96094,64.902667"
       style="font-size:12px;font-style:normal;font-variant:normal;font-weight:normal;font-stretch:normal;fill:#000000;fill-opacity:1;stroke:none;stroke-width:1px;stroke-linecap:butt;stroke-linejoin:miter;stroke-opacity:1;font-family:Sans;-inkscape-font-specification:Adobe Helvetica"
       transform="translate(125.84444,28.56213)" />
    <path
       id="flowRoot7968"
       d="M 180.30273,64.867511 C 179.92383,64.996417 179.62109,65.06087 179.39453,65.06087 C 178.86719,65.06087 178.48242,64.912433 178.24023,64.615558 C 178.00195,64.318683 177.88281,63.85384 177.88281,63.221027 L 177.88281,59.635089 L 177.13867,59.635089 L 177.13867,58.797198 L 177.88281,58.797198 L 177.88281,57.127277 L 178.90234,57.127277 L 178.90234,58.797198 L 180.07422,58.797198 L 180.07422,59.635089 L 178.90234,59.635089 L 178.90234,63.174152 C 178.90234,63.846028 179.10937,64.181965 179.52344,64.181964 C 179.70312,64.181965 179.90039,64.142902 180.11523,64.064777 L 180.30273,64.867511 M 183.64258,58.650714 C 184.52148,58.65072 185.21679,58.943689 185.72852,59.52962 C 186.24413,60.115563 186.50195,60.890952 186.50195,61.855792 C 186.50195,62.820638 186.24413,63.596028 185.72852,64.181964 C 185.21679,64.767902 184.52148,65.06087 183.64258,65.06087 C 182.75976,65.06087 182.06055,64.769855 181.54492,64.187823 C 181.0332,63.601887 180.77734,62.824544 180.77734,61.855792 C 180.77734,60.88314 181.0332,60.105797 181.54492,59.523761 C 182.06055,58.941736 182.75976,58.65072 183.64258,58.650714 M 183.64258,64.158527 C 184.19726,64.158527 184.63671,63.935871 184.96094,63.490558 C 185.28515,63.045247 185.44726,62.500326 185.44727,61.855792 C 185.44726,61.160483 185.28906,60.603843 184.97266,60.18587 C 184.66015,59.764 184.21679,59.553063 183.64258,59.553058 C 183.06445,59.553063 182.61719,59.762047 182.30078,60.180011 C 181.98828,60.597984 181.83203,61.156577 181.83203,61.855792 C 181.83203,62.504232 181.99414,63.051107 182.31836,63.496417 C 182.64258,63.937824 183.08398,64.158527 183.64258,64.158527 M 194.63477,64.902667 L 193.58008,64.902667 L 193.58008,58.023761 C 193.08789,58.512049 192.38476,58.756189 191.4707,58.756183 L 191.4707,57.771808 C 192.58398,57.771815 193.38281,57.369472 193.86719,56.564777 L 194.63477,56.564777 L 194.63477,64.902667 M 202.96094,64.902667 L 197.46484,64.902667 L 197.46484,64.041339 C 198.4414,63.127278 199.25195,62.383138 199.89648,61.808917 C 200.54101,61.234702 201.01367,60.719078 201.31445,60.262042 C 201.61914,59.80111 201.77148,59.33236 201.77148,58.855792 C 201.77148,58.402674 201.61523,58.043299 201.30273,57.777667 C 200.99023,57.51205 200.58593,57.379237 200.08984,57.37923 C 199.40625,57.379237 198.68359,57.578456 197.92188,57.976886 L 197.62305,57.138995 C 198.43945,56.697597 199.29101,56.476894 200.17773,56.476886 C 200.9707,56.476894 201.61328,56.69955 202.10547,57.144855 C 202.60156,57.590175 202.8496,58.160486 202.84961,58.855792 C 202.8496,59.375329 202.6914,59.889 202.375,60.396808 C 202.05859,60.904624 201.54492,61.474936 200.83398,62.107745 L 198.79492,63.94173 L 202.96094,63.94173 L 202.96094,64.902667"
       style="font-size:12px;font-style:normal;font-variant:normal;font-weight:normal;font-stretch:normal;fill:#000000;fill-opacity:1;stroke:none;stroke-width:1px;stroke-linecap:butt;stroke-linejoin:miter;stroke-opacity:1;font-family:Sans;-inkscape-font-specification:Adobe Helvetica"
       transform="translate(295.98676,28.562132)" />
  </g>
</svg>
