<?xml version="1.0" encoding="UTF-8" standalone="no"?>
<!-- Created with Inkscape (http://www.inkscape.org/) -->

<svg
   xmlns:dc="http://purl.org/dc/elements/1.1/"
   xmlns:cc="http://creativecommons.org/ns#"
   xmlns:rdf="http://www.w3.org/1999/02/22-rdf-syntax-ns#"
   xmlns:svg="http://www.w3.org/2000/svg"
   xmlns="http://www.w3.org/2000/svg"
   version="1.0"
   width="105"
   height="105"
   id="svg2">
  <defs
     id="defs4" />
  <metadata
     id="metadata7">
    <rdf:RDF>
      <cc:Work
         rdf:about="">
        <dc:format>image/svg+xml</dc:format>
        <dc:type
           rdf:resource="http://purl.org/dc/dcmitype/StillImage" />
        <dc:title></dc:title>
      </cc:Work>
    </rdf:RDF>
  </metadata>
  <g
     transform="translate(-100,-347.36218)"
     id="layer1">
    <path
       d="m 60,80 0,5 0,5 0,5 5,0 5,0 0,5 -5,0 -5,0 0,5 5,0 5,0 5,0 5,0 5,0 5,0 5,0 5,0 5,0 0,-5 0,-5 0,-5 -5,0 -5,0 -5,0 -5,0 0,-5 5,0 5,0 5,0 5,0 0,-5 -5,0 -5,0 -5,0 -5,0 -5,0 0,5 0,5 0,5 5,0 5,0 5,0 5,0 0,5 -5,0 -5,0 -5,0 -5,0 -5,0 0,-5 0,-5 0,-5 0,-5 -5,0 -5,0 -5,0 z m 5,5 5,0 0,5 -5,0 0,-5 z"
       transform="translate(100,347.36218)"
       id="rect3963"
       style="fill:none;stroke:#000000;stroke-opacity:1" />
    <path
       d="m 35,60 -5,5 0,5 0,5 0,5 5,5 5,0 5,0 5,0 0,5 -5,0 -5,0 -5,0 -5,0 0,5 0,5 0,5 5,0 5,0 5,0 5,0 5,0 0,-5 -5,0 -5,0 -5,0 -5,0 0,-5 5,0 5,0 5,0 5,0 0,-5 0,-5 0,-5 -5,0 -5,0 -5,0 -5,0 0,-5 0,-5 0,-5 5,0 5,0 5,0 5,0 5,0 0,-5 -5,0 -5,0 -5,0 -5,0 z"
       transform="translate(100,347.36218)"
       id="rect4890"
       style="fill:none;stroke:#000000;stroke-opacity:1" />
    <path
       d="m 60,45 0,5 0,5 0,5 0,5 0,5 5,5 5,0 5,0 5,0 5,-5 0,-5 0,-5 0,-5 5,0 0,5 0,5 0,5 0,5 5,0 5,0 5,0 0,-5 0,-5 0,-5 0,-5 0,-5 -5,0 0,5 0,5 0,5 0,5 -5,0 0,-5 0,-5 0,-5 0,-5 -5,0 -5,0 -5,0 0,5 0,5 0,5 0,5 -5,0 -5,0 -5,0 0,-5 0,-5 0,-5 0,-5 0,-5 z"
       transform="translate(100,347.36218)"
       id="rect4962"
       style="fill:none;stroke:#000000;stroke-opacity:1" />
    <path
       d="m 55,30 -5,5 0,5 5,0 0,-5 5,0 0,5 5,0 0,-5 -5,-5 z"
       transform="translate(100,347.36218)"
       id="rect5060"
       style="fill:none;stroke:#000000;stroke-opacity:1" />
    <path
       d="m 40,65 0,5 5,5 5,0 5,-5 0,-5 -5,0 0,5 -5,0 0,-5 z"
       transform="translate(100,347.36218)"
       id="rect5064"
       style="fill:none;stroke:#000000;stroke-opacity:1" />
    <path
       d="m 50,45 0,5 -5,0 0,5 5,0 0,5 5,0 0,-5 5,0 0,-5 -5,0 0,-5 z"
       transform="translate(100,347.36218)"
       id="rect5066"
       style="fill:none;stroke:#000000;stroke-opacity:1" />
    <path
       d="m 0,30 0,5 0,5 0,5 0,5 0,5 5,0 0,-5 0,-5 0,-5 0,-5 5,0 0,5 0,5 0,5 0,5 5,0 5,0 5,0 0,-5 0,-5 0,-5 0,-5 5,0 5,0 5,0 0,5 0,5 0,5 0,5 0,5 5,0 0,-5 0,-5 0,-5 0,-5 0,-5 -5,-5 -5,0 -5,0 -5,0 -5,5 0,5 0,5 0,5 -5,0 0,-5 0,-5 0,-5 0,-5 -5,0 -5,0 z"
       transform="translate(100,347.36218)"
       id="rect5048"
       style="fill:none;stroke:#000000;stroke-opacity:1" />
    <path
       d="m 35,40 -5,5 0,5 5,5 5,0 0,-5 -5,0 0,-5 5,0 0,-5 z"
       transform="translate(100,347.36218)"
       id="rect5052"
       style="fill:none;stroke:#000000;stroke-opacity:1" />
    <path
       d="m 50,0 0,5 5,0 5,0 5,0 5,0 0,5 -5,0 -5,0 -5,0 -5,0 0,5 0,5 0,5 5,0 5,0 5,0 5,0 0,5 0,5 0,5 -5,0 -5,0 -5,0 -5,0 -5,0 0,5 5,0 5,0 5,0 5,0 5,0 5,-5 0,-5 0,-5 0,-5 -5,-5 -5,0 -5,0 -5,0 0,-5 5,0 5,0 5,0 5,0 0,-5 0,-5 0,-5 -5,0 -5,0 -5,0 -5,0 z"
       transform="translate(100,347.36218)"
       id="rect5054"
       style="fill:none;stroke:#000000;stroke-opacity:1" />
    <path
       d="m 65,50 0,5 5,0 0,5 -5,0 0,5 5,0 5,-5 0,-5 -5,-5 z"
       transform="translate(100,347.36218)"
       id="rect5078"
       style="fill:none;stroke:#000000;stroke-opacity:1" />
    <path
       d="m 0,60 0,5 0,5 0,5 0,5 0,5 0,5 0,5 0,5 0,5 5,0 5,0 5,0 0,-5 0,-5 0,-5 0,-5 5,0 0,5 0,5 0,5 0,5 5,0 0,-5 0,-5 0,-5 0,-5 0,-5 -5,0 -5,0 -5,0 0,5 0,5 0,5 0,5 -5,0 0,-5 0,-5 0,-5 0,-5 0,-5 5,0 5,0 5,0 5,0 0,-5 0,-5 0,-5 -5,0 -5,0 -5,0 0,5 0,5 -5,0 0,-5 0,-5 -5,0 z m 15,5 5,0 0,5 -5,0 0,-5 z"
       transform="translate(100,347.36218)"
       id="rect4063"
       style="fill:none;stroke:#000000;stroke-opacity:1" />
    <path
       d="m 0,0 0,5 0,5 0,5 5,0 5,0 5,0 5,0 0,5 -5,0 -5,0 -5,0 -5,0 0,5 5,0 5,0 5,0 5,0 5,0 0,-5 0,-5 0,-5 -5,0 -5,0 -5,0 -5,0 0,-5 5,0 5,0 5,0 5,0 5,0 0,5 0,5 0,5 0,5 5,0 5,0 5,0 0,-5 0,-5 0,-5 -5,0 -5,0 0,-5 5,0 5,0 0,-5 -5,0 -5,0 -5,0 -5,0 -5,0 -5,0 -5,0 -5,0 -5,0 z m 35,15 5,0 0,5 -5,0 0,-5 z"
       transform="translate(100,347.36218)"
       id="rect4163"
       style="fill:none;stroke:#000000;stroke-opacity:1" />
    <path
       d="m 80,0 0,5 0,5 0,5 0,5 0,5 5,0 5,0 5,0 0,-5 0,-5 0,-5 0,-5 5,0 0,5 0,5 0,5 0,5 0,5 -5,0 -5,0 -5,0 -5,0 0,5 0,5 0,5 5,0 5,0 5,0 0,-5 0,-5 5,0 0,5 0,5 5,0 0,-5 0,-5 0,-5 0,-5 0,-5 0,-5 0,-5 0,-5 0,-5 -5,0 -5,0 -5,0 0,5 0,5 0,5 0,5 -5,0 0,-5 0,-5 0,-5 0,-5 -5,0 z m 5,35 5,0 0,5 -5,0 0,-5 z"
       transform="translate(100,347.36218)"
       id="rect3157"
       style="fill:none;stroke:#000000;stroke-opacity:1" />
  </g>
</svg>
