<?xml version="1.0" encoding="UTF-8" standalone="no"?>
<!-- Created with Inkscape (http://www.inkscape.org/) -->

<svg
   xmlns:dc="http://purl.org/dc/elements/1.1/"
   xmlns:cc="http://creativecommons.org/ns#"
   xmlns:rdf="http://www.w3.org/1999/02/22-rdf-syntax-ns#"
   xmlns:svg="http://www.w3.org/2000/svg"
   xmlns="http://www.w3.org/2000/svg"
   xmlns:xlink="http://www.w3.org/1999/xlink"
   xmlns:sodipodi="http://sodipodi.sourceforge.net/DTD/sodipodi-0.dtd"
   xmlns:inkscape="http://www.inkscape.org/namespaces/inkscape"
   version="1.0"
   width="570.27112"
   height="301.72852"
   id="svg2648"
   inkscape:version="0.48.4 r9939"
   sodipodi:docname="lexical-analysis-process.svg"
   inkscape:export-filename="/home/fschaef/prj/quex/trunk/doc/source/figures/lexical-analysis-process.png"
   inkscape:export-xdpi="300"
   inkscape:export-ydpi="300">
  <metadata
     id="metadata3532">
    <rdf:RDF>
      <cc:Work
         rdf:about="">
        <dc:format>image/svg+xml</dc:format>
        <dc:type
           rdf:resource="http://purl.org/dc/dcmitype/StillImage" />
      </cc:Work>
    </rdf:RDF>
  </metadata>
  <sodipodi:namedview
     pagecolor="#ffffff"
     bordercolor="#666666"
     borderopacity="1"
     objecttolerance="10"
     gridtolerance="10"
     guidetolerance="10"
     inkscape:pageopacity="0"
     inkscape:pageshadow="2"
     inkscape:window-width="1024"
     inkscape:window-height="744"
     id="namedview3530"
     showgrid="true"
     inkscape:zoom="1.6690577"
     inkscape:cx="255.39431"
     inkscape:cy="-49.388296"
     inkscape:window-x="0"
     inkscape:window-y="24"
     inkscape:window-maximized="1"
     inkscape:current-layer="svg2648"
     fit-margin-top="0"
     fit-margin-left="0"
     fit-margin-right="0"
     fit-margin-bottom="0">
    <inkscape:grid
       type="xygrid"
       id="grid3536"
       empspacing="5"
       visible="true"
       enabled="true"
       snapvisiblegridlinesonly="true"
       originx="-66.467181px"
       originy="-638.14366px" />
  </sodipodi:namedview>
  <defs
     id="defs2650" />
  <g
     style="fill:#000000"
     id="g315"
     transform="matrix(0.7490105,0,0,0.8304878,-130.21325,14.32767)">
    <use
       xlink:href="#glyph1-0"
       height="344"
       width="1026"
       y="325.25"
       x="188.25"
       id="use317" />
    <use
       xlink:href="#glyph1-1"
       height="344"
       width="1026"
       y="325.25"
       x="192.13965"
       id="use319" />
    <use
       xlink:href="#glyph1-2"
       height="344"
       width="1026"
       y="325.25"
       x="200.69141"
       id="use321" />
    <use
       xlink:href="#glyph1-3"
       height="344"
       width="1026"
       y="325.25"
       x="205.35352"
       id="use323" />
    <use
       xlink:href="#glyph1-4"
       height="344"
       width="1026"
       y="325.25"
       x="214.69141"
       id="use325" />
    <use
       xlink:href="#glyph1-5"
       height="344"
       width="1026"
       y="325.25"
       x="224.0293"
       id="use327" />
    <use
       xlink:href="#glyph1-6"
       height="344"
       width="1026"
       y="325.25"
       x="233.36719"
       id="use329" />
    <use
       xlink:href="#glyph1-7"
       height="344"
       width="1026"
       y="325.25"
       x="246.58105"
       id="use331" />
    <use
       xlink:href="#glyph1-8"
       height="344"
       width="1026"
       y="325.25"
       x="257.4707"
       id="use333" />
    <use
       xlink:href="#glyph1-9"
       height="344"
       width="1026"
       y="325.25"
       x="267.58105"
       id="use335" />
  </g>
  <g
     style="fill:#000000"
     id="g341"
     transform="matrix(0.7490105,0,0,0.8304878,-130.21325,14.32767)">
    <use
       xlink:href="#glyph1-10"
       height="344"
       width="1026"
       y="325.25"
       x="334.32501"
       id="use343" />
    <use
       xlink:href="#glyph1-8"
       height="344"
       width="1026"
       y="325.25"
       x="343.6629"
       id="use345" />
    <use
       xlink:href="#glyph1-11"
       height="344"
       width="1026"
       y="325.25"
       x="353.77322"
       id="use347" />
    <use
       xlink:href="#glyph1-12"
       height="344"
       width="1026"
       y="325.25"
       x="363.11115"
       id="use349" />
    <use
       xlink:href="#glyph1-3"
       height="344"
       width="1026"
       y="325.25"
       x="373.22147"
       id="use351" />
    <use
       xlink:href="#glyph1-4"
       height="344"
       width="1026"
       y="325.25"
       x="382.55939"
       id="use353" />
    <use
       xlink:href="#glyph1-13"
       height="344"
       width="1026"
       y="325.25"
       x="391.89728"
       id="use355" />
    <use
       xlink:href="#glyph1-2"
       height="344"
       width="1026"
       y="325.25"
       x="400.44901"
       id="use357" />
    <use
       xlink:href="#glyph1-14"
       height="344"
       width="1026"
       y="325.25"
       x="405.11115"
       id="use359" />
  </g>
  <g
     style="fill:#000000"
     id="g365"
     transform="matrix(0.7490105,0,0,0.8304878,-130.21325,14.32767)">
    <use
       xlink:href="#glyph1-0"
       height="344"
       width="1026"
       y="325.25"
       x="473.47501"
       id="use367" />
    <use
       xlink:href="#glyph1-9"
       height="344"
       width="1026"
       y="325.25"
       x="477.36465"
       id="use369" />
    <use
       xlink:href="#glyph1-4"
       height="344"
       width="1026"
       y="325.25"
       x="487.47501"
       id="use371" />
    <use
       xlink:href="#glyph1-15"
       height="344"
       width="1026"
       y="325.25"
       x="496.8129"
       id="use373" />
    <use
       xlink:href="#glyph1-13"
       height="344"
       width="1026"
       y="325.25"
       x="506.92325"
       id="use375" />
    <use
       xlink:href="#glyph1-0"
       height="344"
       width="1026"
       y="325.25"
       x="515.47498"
       id="use377" />
    <use
       xlink:href="#glyph1-1"
       height="344"
       width="1026"
       y="325.25"
       x="519.36469"
       id="use379" />
    <use
       xlink:href="#glyph1-0"
       height="344"
       width="1026"
       y="325.25"
       x="527.91638"
       id="use381" />
    <use
       xlink:href="#glyph1-4"
       height="344"
       width="1026"
       y="325.25"
       x="531.80609"
       id="use383" />
    <use
       xlink:href="#glyph1-8"
       height="344"
       width="1026"
       y="325.25"
       x="541.14392"
       id="use385" />
    <use
       xlink:href="#glyph1-16"
       height="344"
       width="1026"
       y="325.25"
       x="551.25433"
       id="use387" />
    <use
       xlink:href="#glyph1-17"
       height="344"
       width="1026"
       y="325.25"
       x="555.14392"
       id="use389" />
    <use
       xlink:href="#glyph1-18"
       height="344"
       width="1026"
       y="325.25"
       x="560.11371"
       id="use391" />
    <use
       xlink:href="#glyph1-17"
       height="344"
       width="1026"
       y="325.25"
       x="567.11371"
       id="use393" />
  </g>
  <g
     style="fill:#000000"
     id="g399"
     transform="matrix(0.7490105,0,0,0.8304878,-130.21325,14.32767)">
    <use
       xlink:href="#glyph1-7"
       height="344"
       width="1026"
       y="325.25"
       x="642.97498"
       id="use401" />
    <use
       xlink:href="#glyph1-19"
       height="344"
       width="1026"
       y="325.25"
       x="653.86469"
       id="use403" />
    <use
       xlink:href="#glyph1-16"
       height="344"
       width="1026"
       y="325.25"
       x="663.20251"
       id="use405" />
    <use
       xlink:href="#glyph1-17"
       height="344"
       width="1026"
       y="325.25"
       x="667.09222"
       id="use407" />
    <use
       xlink:href="#glyph1-20"
       height="344"
       width="1026"
       y="325.25"
       x="672.06189"
       id="use409" />
    <use
       xlink:href="#glyph1-17"
       height="344"
       width="1026"
       y="325.25"
       x="680.23767"
       id="use411" />
  </g>
  <g
     style="fill:#000000"
     id="g417"
     transform="matrix(0.7490105,0,0,0.8304878,-130.21325,14.32767)">
    <use
       xlink:href="#glyph1-15"
       height="344"
       width="1026"
       y="325.25"
       x="747.40002"
       id="use419" />
    <use
       xlink:href="#glyph1-21"
       height="344"
       width="1026"
       y="325.25"
       x="757.51031"
       id="use421" />
    <use
       xlink:href="#glyph1-22"
       height="344"
       width="1026"
       y="325.25"
       x="767.62067"
       id="use423" />
    <use
       xlink:href="#glyph1-10"
       height="344"
       width="1026"
       y="325.25"
       x="779.28278"
       id="use425" />
    <use
       xlink:href="#glyph1-4"
       height="344"
       width="1026"
       y="325.25"
       x="788.62067"
       id="use427" />
    <use
       xlink:href="#glyph1-8"
       height="344"
       width="1026"
       y="325.25"
       x="797.95862"
       id="use429" />
    <use
       xlink:href="#glyph1-16"
       height="344"
       width="1026"
       y="325.25"
       x="808.06891"
       id="use431" />
    <use
       xlink:href="#glyph1-17"
       height="344"
       width="1026"
       y="325.25"
       x="811.95862"
       id="use433" />
    <use
       xlink:href="#glyph1-23"
       height="344"
       width="1026"
       y="325.25"
       x="816.92828"
       id="use435" />
    <use
       xlink:href="#glyph1-24"
       height="344"
       width="1026"
       y="325.25"
       x="824.71442"
       id="use437" />
    <use
       xlink:href="#glyph1-25"
       height="344"
       width="1026"
       y="325.25"
       x="828.60406"
       id="use439" />
    <use
       xlink:href="#glyph1-17"
       height="344"
       width="1026"
       y="325.25"
       x="836.3902"
       id="use441" />
  </g>
  <g
     style="fill:#000000"
     id="g447"
     transform="matrix(0.7490105,0,0,0.8304878,-130.21325,14.32767)">
    <use
       xlink:href="#glyph1-10"
       height="344"
       width="1026"
       y="325.25"
       x="886.09998"
       id="use449" />
    <use
       xlink:href="#glyph1-8"
       height="344"
       width="1026"
       y="325.25"
       x="895.43793"
       id="use451" />
    <use
       xlink:href="#glyph1-11"
       height="344"
       width="1026"
       y="325.25"
       x="905.54822"
       id="use453" />
    <use
       xlink:href="#glyph1-12"
       height="344"
       width="1026"
       y="325.25"
       x="914.88617"
       id="use455" />
    <use
       xlink:href="#glyph1-3"
       height="344"
       width="1026"
       y="325.25"
       x="924.99646"
       id="use457" />
    <use
       xlink:href="#glyph1-4"
       height="344"
       width="1026"
       y="325.25"
       x="934.33435"
       id="use459" />
    <use
       xlink:href="#glyph1-13"
       height="344"
       width="1026"
       y="325.25"
       x="943.6723"
       id="use461" />
    <use
       xlink:href="#glyph1-2"
       height="344"
       width="1026"
       y="325.25"
       x="952.22406"
       id="use463" />
    <use
       xlink:href="#glyph1-8"
       height="344"
       width="1026"
       y="325.25"
       x="956.88617"
       id="use465" />
  </g>
  <g
     style="fill:#000000"
     id="g477"
     transform="matrix(0.7490105,0,0,0.8304878,-118.15389,27.99496)">
    <use
       xlink:href="#glyph2-0"
       height="344"
       width="1026"
       y="149.5"
       x="444.89999"
       id="use479" />
    <use
       xlink:href="#glyph2-1"
       height="344"
       width="1026"
       y="149.5"
       x="449.25311"
       id="use481" />
    <use
       xlink:href="#glyph2-2"
       height="344"
       width="1026"
       y="149.5"
       x="460.15021"
       id="use483" />
    <use
       xlink:href="#glyph2-3"
       height="344"
       width="1026"
       y="149.5"
       x="469.94708"
       id="use485" />
    <use
       xlink:href="#glyph2-4"
       height="344"
       width="1026"
       y="149.5"
       x="474.30017"
       id="use487" />
    <use
       xlink:href="#glyph2-5"
       height="344"
       width="1026"
       y="149.5"
       x="484.09705"
       id="use489" />
    <use
       xlink:href="#glyph2-0"
       height="344"
       width="1026"
       y="149.5"
       x="494.99417"
       id="use491" />
    <use
       xlink:href="#glyph2-6"
       height="344"
       width="1026"
       y="149.5"
       x="499.34729"
       id="use493" />
    <use
       xlink:href="#glyph2-5"
       height="344"
       width="1026"
       y="149.5"
       x="504.79105"
       id="use495" />
    <use
       xlink:href="#glyph2-7"
       height="344"
       width="1026"
       y="149.5"
       x="515.68817"
       id="use497" />
    <use
       xlink:href="#glyph2-5"
       height="344"
       width="1026"
       y="149.5"
       x="526.58527"
       id="use499" />
    <use
       xlink:href="#glyph2-0"
       height="344"
       width="1026"
       y="149.5"
       x="537.48236"
       id="use501" />
    <use
       xlink:href="#glyph2-8"
       height="344"
       width="1026"
       y="149.5"
       x="541.83551"
       id="use503" />
    <use
       xlink:href="#glyph2-9"
       height="344"
       width="1026"
       y="149.5"
       x="551.63239"
       id="use505" />
    <use
       xlink:href="#glyph2-1"
       height="344"
       width="1026"
       y="149.5"
       x="561.42926"
       id="use507" />
    <use
       xlink:href="#glyph2-10"
       height="344"
       width="1026"
       y="149.5"
       x="572.32635"
       id="use509" />
  </g>
  <g
     style="fill:#000000"
     id="g567"
     transform="matrix(0.7490105,0,0,0.8304878,-130.21325,14.32767)">
    <use
       xlink:href="#glyph4-0"
       height="344"
       width="1026"
       y="321"
       x="994.90002"
       id="use569" />
    <use
       xlink:href="#glyph4-0"
       height="344"
       width="1026"
       y="321"
       x="1004.9781"
       id="use571" />
    <use
       xlink:href="#glyph4-0"
       height="344"
       width="1026"
       y="321"
       x="1015.0562"
       id="use573" />
  </g>
  <path
     inkscape:connector-curvature="0"
     style="fill:#ffffff;fill-rule:nonzero;stroke:none"
     id="path575"
     d="m 251.33269,197.86546 0,24.08415 -10.86065,0 21.7213,24.08414 21.7213,-24.08414 -10.86065,0 0,-24.08415 -21.7213,0 z" />
  <path
     inkscape:connector-curvature="0"
     style="fill:none;stroke:#000000;stroke-width:1.57739532;stroke-linecap:butt;stroke-linejoin:miter;stroke-miterlimit:10"
     id="path577"
     d="m 251.33271,197.86546 0,24.08415 -10.86067,0 21.72132,24.08414 21.7213,-24.08414 -10.86065,0 0,-24.08415 -21.7213,0 z" />
  <path
     inkscape:connector-curvature="0"
     style="fill:none;stroke:#000000;stroke-width:0.15773952;stroke-linecap:butt;stroke-linejoin:miter;stroke-miterlimit:10"
     id="path579"
     d="m 251.33271,197.86546 0,24.08415 -10.86067,0 21.72132,24.08414 21.7213,-24.08414 -10.86065,0 0,-24.08415 -21.7213,0 z" />
  <path
     inkscape:connector-curvature="0"
     style="fill:#ffffff;fill-rule:nonzero;stroke:none"
     id="path581"
     d="m 251.33269,48.37767 0,24.08414 -10.86065,0 21.7213,24.08415 21.7213,-24.08415 -10.86065,0 0,-24.08414 -21.7213,0 z" />
  <path
     inkscape:connector-curvature="0"
     style="fill:none;stroke:#000000;stroke-width:1.57739532;stroke-linecap:butt;stroke-linejoin:miter;stroke-miterlimit:10"
     id="path583"
     d="m 251.33271,48.37767 0,24.08414 -10.86067,0 21.72132,24.08415 21.7213,-24.08415 -10.86065,0 0,-24.08414 -21.7213,0 z" />
  <path
     inkscape:connector-curvature="0"
     style="fill:none;stroke:#000000;stroke-width:0.15773952;stroke-linecap:butt;stroke-linejoin:miter;stroke-miterlimit:10"
     id="path585"
     d="m 251.33271,48.37767 0,24.08414 -10.86067,0 21.72132,24.08415 21.7213,-24.08415 -10.86065,0 0,-24.08414 -21.7213,0 z" />
  <path
     inkscape:connector-curvature="0"
     style="font-size:12px;font-style:oblique;font-variant:normal;font-weight:bold;font-stretch:normal;text-align:start;line-height:125%;writing-mode:lr-tb;text-anchor:start;fill:#000000;fill-opacity:1;stroke:none;font-family:Bitstream Vera Sans;-inkscape-font-specification:Bitstream Vera Sans Bold Oblique"
     id="flowRoot2704"
     d="m 308.51475,82.92454 c -0.67383,0.23925 -1.3208,0.41992 -1.94092,0.54199 -0.62012,0.12207 -1.2085,0.1831 -1.76513,0.1831 -1.46973,0 -2.64405,-0.40283 -3.52295,-1.20849 -0.8789,-0.80567 -1.31837,-1.87256 -1.31837,-3.20069 0,-0.87402 0.13917,-1.69677 0.41749,-2.46826 0.27831,-0.77636 0.68848,-1.48437 1.23046,-2.12402 0.63965,-0.75195 1.40869,-1.33056 2.30714,-1.73584 0.90331,-0.40526 1.87499,-0.6079 2.91504,-0.60791 0.5664,1e-5 1.13524,0.0684 1.70654,0.20508 0.57128,0.13184 1.15233,0.33448 1.74316,0.60791 l -0.4541,2.26318 c -0.46876,-0.35644 -0.93995,-0.61767 -1.41358,-0.78369 -0.47363,-0.16601 -0.98145,-0.24902 -1.52343,-0.24903 -1.12794,1e-5 -2.07275,0.43458 -2.83448,1.30372 -0.76171,0.86914 -1.14257,1.95557 -1.14257,3.25927 0,0.83985 0.23437,1.49903 0.70312,1.97754 0.46875,0.47852 1.11573,0.71778 1.94093,0.71778 0.49315,0 1.01561,-0.0879 1.56737,-0.26368 0.55664,-0.18066 1.17919,-0.46142 1.86768,-0.84228 l -0.4834,2.42432 m 11.60156,-4.48243 -0.97411,4.99512 -2.6294,0 0.82763,-4.27734 c 0.0586,-0.27832 0.10254,-0.51269 0.13184,-0.70313 0.0342,-0.19531 0.0513,-0.34911 0.0513,-0.46142 -2e-5,-0.3125 -0.0879,-0.5542 -0.26368,-0.7251 -0.17091,-0.17089 -0.41505,-0.25634 -0.73242,-0.25635 -0.542,1e-5 -1.0083,0.21241 -1.39893,0.63721 -0.38575,0.41992 -0.6543,1.00342 -0.80566,1.75049 l -0.79101,4.03564 -2.6294,0 2.21191,-11.39648 2.63672,0 -0.85693,4.39453 c 0.48338,-0.47363 0.96923,-0.82519 1.45752,-1.05469 0.48828,-0.22948 0.99853,-0.34423 1.53076,-0.34424 0.75683,1e-5 1.34032,0.19776 1.75049,0.59326 0.41014,0.39552 0.61523,0.95216 0.61523,1.66992 0,0.15626 -0.0122,0.3296 -0.0366,0.52002 -0.0196,0.19044 -0.0513,0.39796 -0.0952,0.62256 m 5.9546,1.30371 c -0.6543,1e-5 -1.14991,0.10255 -1.48683,0.30762 -0.33202,0.2002 -0.49805,0.49805 -0.49803,0.89356 -2e-5,0.29785 0.0976,0.53222 0.29296,0.70312 0.20019,0.1709 0.47362,0.25635 0.82031,0.25635 0.5371,0 0.98633,-0.16113 1.34766,-0.4834 0.36132,-0.32715 0.60302,-0.78613 0.72509,-1.37695 l 0.0586,-0.3003 -1.25976,0 m 4.09424,-0.98877 -0.91554,4.68018 -2.62206,0 0.21972,-1.21582 c -0.42969,0.48828 -0.8838,0.84961 -1.3623,1.08398 -0.47852,0.2295 -0.99854,0.34424 -1.56006,0.34424 -0.77638,0 -1.39405,-0.20019 -1.85303,-0.60058 -0.4541,-0.40528 -0.68115,-0.94971 -0.68115,-1.6333 0,-1.04492 0.40283,-1.84326 1.20849,-2.39502 0.81055,-0.55664 1.97754,-0.83496 3.50098,-0.83496 l 1.54541,0 0.0293,-0.20508 c 0.0146,-0.0684 0.022,-0.11718 0.022,-0.14649 0.005,-0.0293 0.007,-0.0561 0.007,-0.0806 -1e-5,-0.32226 -0.15383,-0.56396 -0.46143,-0.7251 -0.30275,-0.16601 -0.7544,-0.24902 -1.35498,-0.24902 -0.542,0 -1.0669,0.0562 -1.5747,0.16845 -0.50783,0.11231 -0.99854,0.28077 -1.47218,0.50537 l 0.39551,-1.99951 c 0.54688,-0.13671 1.10595,-0.23925 1.67725,-0.30762 0.57617,-0.0732 1.17187,-0.10985 1.7871,-0.10986 1.21582,1e-5 2.11914,0.20997 2.70997,0.62988 0.59081,0.41505 0.88622,1.04982 0.88623,1.9043 -10e-6,0.16602 -0.0122,0.34913 -0.0366,0.54932 -0.0195,0.19532 -0.0513,0.40772 -0.0952,0.6372 m 8.81835,-1.28906 c -0.18067,-0.10253 -0.38087,-0.18066 -0.60058,-0.23437 -0.21974,-0.0537 -0.45655,-0.0806 -0.71045,-0.0806 -0.66895,1e-5 -1.2256,0.21485 -1.66992,0.64453 -0.43947,0.42969 -0.73732,1.04981 -0.89357,1.86035 l -0.74706,3.7793 -2.6294,0 1.59669,-8.20312 2.63671,0 -0.28564,1.40625 c 0.34668,-0.51758 0.7788,-0.91308 1.29639,-1.18653 0.52245,-0.27831 1.10106,-0.41747 1.73584,-0.41748 0.0928,10e-6 0.19774,0.005 0.31494,0.0146 0.11717,0.01 0.25633,0.0244 0.41748,0.0439 l -0.46143,2.37304 m 4.63623,2.27783 c -0.6543,1e-5 -1.14991,0.10255 -1.48681,0.30762 -0.33204,0.2002 -0.49805,0.49805 -0.49805,0.89356 0,0.29785 0.0976,0.53222 0.29296,0.70312 0.2002,0.1709 0.47364,0.25635 0.82032,0.25635 0.53711,0 0.98632,-0.16113 1.34766,-0.4834 0.36132,-0.32715 0.60302,-0.78613 0.7251,-1.37695 l 0.0586,-0.3003 -1.25977,0 m 4.09424,-0.98877 -0.91552,4.68018 -2.62208,0 0.21973,-1.21582 c -0.42969,0.48828 -0.88379,0.84961 -1.3623,1.08398 -0.47853,0.2295 -0.99854,0.34424 -1.56007,0.34424 -0.77636,0 -1.39403,-0.20019 -1.85302,-0.60058 -0.4541,-0.40528 -0.68115,-0.94971 -0.68115,-1.6333 0,-1.04492 0.40282,-1.84326 1.2085,-2.39502 0.81054,-0.55664 1.97752,-0.83496 3.50097,-0.83496 l 1.5454,0 0.0293,-0.20508 c 0.0147,-0.0684 0.022,-0.11718 0.022,-0.14649 0.005,-0.0293 0.007,-0.0561 0.007,-0.0806 -10e-6,-0.32226 -0.15381,-0.56396 -0.46142,-0.7251 -0.30274,-0.16601 -0.7544,-0.24902 -1.35499,-0.24902 -0.54199,0 -1.06689,0.0562 -1.5747,0.16845 -0.50781,0.11231 -0.99854,0.28077 -1.47217,0.50537 l 0.39551,-1.99951 c 0.54687,-0.13671 1.10595,-0.23925 1.67725,-0.30762 0.57616,-0.0732 1.17186,-0.10985 1.7871,-0.10986 1.21582,1e-5 2.11914,0.20997 2.70996,0.62988 0.59081,0.41505 0.88623,1.04982 0.88624,1.9043 -10e-6,0.16602 -0.0122,0.34913 -0.0366,0.54932 -0.0195,0.19532 -0.0513,0.40772 -0.0952,0.6372 m 9.82178,-3.2666 -0.41748,2.13867 c -0.35157,-0.23436 -0.69825,-0.41259 -1.04004,-0.53466 -0.34181,-0.12207 -0.67628,-0.1831 -1.00342,-0.18311 -0.8545,1e-5 -1.55274,0.28809 -2.09473,0.86426 -0.542,0.57129 -0.81298,1.30371 -0.81298,2.19726 0,0.5713 0.16845,1.01563 0.50537,1.33301 0.3369,0.3125 0.81298,0.46875 1.42821,0.46875 0.41015,0 0.81299,-0.061 1.2085,-0.1831 0.3955,-0.12207 0.77148,-0.30274 1.12793,-0.542 l -0.40283,2.146 c -0.43457,0.15137 -0.87158,0.26367 -1.31103,0.33692 -0.43947,0.0781 -0.88135,0.11718 -1.32569,0.11718 -1.28906,0 -2.28271,-0.28808 -2.98095,-0.86425 -0.69336,-0.58106 -1.04004,-1.40381 -1.04004,-2.46827 0,-0.66894 0.12695,-1.31835 0.38086,-1.94824 0.25879,-0.62988 0.62744,-1.19628 1.10595,-1.69922 0.53223,-0.55175 1.14258,-0.9619 1.83105,-1.23047 0.68848,-0.26854 1.48194,-0.40282 2.38038,-0.40283 0.41504,1e-5 0.82762,0.0391 1.2378,0.11719 0.41014,0.0733 0.81786,0.18555 1.22314,0.33691 m 5.58837,-2.58545 -0.44677,2.32911 2.68066,0 -0.37353,1.875 -2.68067,0 -0.67383,3.47167 c -0.0195,0.0781 -0.0342,0.14405 -0.0439,0.19776 -0.005,0.0537 -0.007,0.10498 -0.007,0.15381 -10e-6,0.22461 0.0732,0.38574 0.21973,0.4834 0.15136,0.0977 0.40282,0.14648 0.75438,0.14648 l 1.35499,0 -0.37354,1.875 -2.20458,0 c -0.79103,0 -1.39405,-0.16601 -1.80909,-0.49805 -0.41504,-0.33203 -0.62256,-0.81054 -0.62255,-1.43554 -1e-5,-0.13672 0.007,-0.2832 0.022,-0.43946 0.0147,-0.15624 0.0366,-0.31494 0.0659,-0.47607 l 0.67382,-3.479 -1.28906,0 0.35889,-1.875 1.30371,0 0.4541,-2.32911 2.63671,0 m 11.21339,6.73828 -0.0879,0.41749 -6.13769,0 c 0,0.0293 -0.002,0.0732 -0.007,0.13183 -0.005,0.0537 -0.007,0.0952 -0.007,0.12451 0,0.53223 0.15869,0.93018 0.47608,1.19385 0.32226,0.26367 0.80321,0.39551 1.44287,0.39551 0.55175,0 1.1328,-0.083 1.74316,-0.24902 0.61523,-0.16602 1.25975,-0.4126 1.93359,-0.73975 l -0.40282,2.03613 c -0.63967,0.23438 -1.27687,0.40772 -1.91163,0.52002 -0.62989,0.11719 -1.27197,0.17578 -1.92627,0.17578 -1.2793,0 -2.26807,-0.29541 -2.9663,-0.88623 -0.69337,-0.59082 -1.04004,-1.42578 -1.04004,-2.50488 0,-0.625 0.10986,-1.23047 0.32959,-1.81641 0.2246,-0.59081 0.54931,-1.13036 0.97411,-1.61865 0.50294,-0.58593 1.10352,-1.03027 1.80176,-1.33301 0.70313,-0.30272 1.48193,-0.45409 2.33643,-0.4541 1.10838,1e-5 1.9873,0.29542 2.63672,0.88623 0.65429,0.59083 0.98144,1.38673 0.98144,2.3877 0,0.19531 -0.0147,0.40283 -0.0439,0.62256 -0.0244,0.21484 -0.0659,0.45166 -0.12451,0.71044 m -2.47559,-1.20117 c 0.0146,-0.0635 0.0244,-0.12694 0.0293,-0.19043 0.01,-0.0684 0.0146,-0.13427 0.0146,-0.19775 0,-0.39062 -0.11719,-0.70068 -0.35155,-0.93018 -0.23439,-0.22948 -0.55178,-0.34423 -0.95215,-0.34423 -0.5127,0 -0.94971,0.1416 -1.31104,0.4248 -0.35645,0.27833 -0.62989,0.69092 -0.82031,1.23779 l 3.39111,0 m 10.92041,-0.97412 c -0.18067,-0.10253 -0.38087,-0.18066 -0.60058,-0.23437 -0.21974,-0.0537 -0.45655,-0.0806 -0.71045,-0.0806 -0.66895,1e-5 -1.22559,0.21485 -1.66993,0.64453 -0.43945,0.42969 -0.73731,1.04981 -0.89355,1.86035 l -0.74707,3.7793 -2.62939,0 1.59667,-8.20312 2.63672,0 -0.28564,1.40625 c 0.34667,-0.51758 0.7788,-0.91308 1.29639,-1.18653 0.52245,-0.27831 1.10106,-0.41747 1.73583,-0.41748 0.0928,1e-5 0.19775,0.005 0.31494,0.0146 0.11719,0.01 0.25634,0.0244 0.41749,0.0439 l -0.46143,2.37304 m 14.89014,-4.62158 -0.45411,2.31445 c -0.55176,-0.27343 -1.09619,-0.47606 -1.6333,-0.60791 -0.53711,-0.13671 -1.06201,-0.20507 -1.5747,-0.20508 -0.70314,10e-6 -1.25245,0.10988 -1.64795,0.32959 -0.39063,0.21974 -0.58594,0.52492 -0.58594,0.91553 0,0.24903 0.0854,0.44435 0.25635,0.58594 0.17578,0.13673 0.53466,0.271 1.07666,0.40283 l 1.15723,0.28565 c 0.96679,0.24414 1.67479,0.59815 2.12402,1.06201 0.45409,0.45899 0.68114,1.05469 0.68115,1.78711 -10e-6,1.18652 -0.45167,2.13867 -1.35498,2.85644 -0.89844,0.71778 -2.10694,1.07666 -3.62549,1.07666 -0.70801,0 -1.41358,-0.0659 -2.1167,-0.19775 -0.69824,-0.13184 -1.38184,-0.32715 -2.05078,-0.58594 l 0.44678,-2.38037 c 0.64941,0.37598 1.2793,0.65674 1.88965,0.84229 0.61522,0.18554 1.2207,0.27832 1.8164,0.27832 0.64452,0 1.16699,-0.13184 1.56739,-0.39551 0.40526,-0.26367 0.6079,-0.60059 0.60791,-1.01074 -10e-6,-0.26856 -0.0903,-0.47607 -0.271,-0.62256 -0.18066,-0.15137 -0.57618,-0.30517 -1.18653,-0.46143 l -1.1499,-0.28564 c -0.84961,-0.20996 -1.48193,-0.54199 -1.89697,-0.9961 -0.41504,-0.45409 -0.62256,-1.04247 -0.62255,-1.76513 -1e-5,-1.13769 0.43456,-2.04833 1.3037,-2.73194 0.87402,-0.68846 2.04834,-1.0327 3.52295,-1.03271 0.59081,1e-5 1.19629,0.0464 1.81641,0.13916 0.62499,0.0879 1.25975,0.22218 1.9043,0.40283 m 6.2329,0.0586 -0.44677,2.32911 2.68066,0 -0.37353,1.875 -2.68067,0 -0.67383,3.47167 c -0.0195,0.0781 -0.0342,0.14405 -0.0439,0.19776 -0.005,0.0537 -0.007,0.10498 -0.007,0.15381 -10e-6,0.22461 0.0732,0.38574 0.21973,0.4834 0.15136,0.0977 0.40282,0.14648 0.75438,0.14648 l 1.35499,0 -0.37354,1.875 -2.20458,0 c -0.79103,0 -1.39405,-0.16601 -1.80909,-0.49805 -0.41504,-0.33203 -0.62256,-0.81054 -0.62255,-1.43554 -10e-6,-0.13672 0.007,-0.2832 0.022,-0.43946 0.0147,-0.15624 0.0366,-0.31494 0.0659,-0.47607 l 0.67382,-3.479 -1.28906,0 0.35889,-1.875 1.30371,0 0.4541,-2.32911 2.63671,0 m 9.49219,4.56299 c -0.18066,-0.10253 -0.38086,-0.18066 -0.60058,-0.23437 -0.21973,-0.0537 -0.45655,-0.0806 -0.71045,-0.0806 -0.66895,10e-6 -1.2256,0.21485 -1.66992,0.64453 -0.43946,0.42969 -0.73731,1.04981 -0.89355,1.86035 l -0.74708,3.7793 -2.6294,0 1.59669,-8.20312 2.63671,0 -0.28563,1.40625 c 0.34667,-0.51758 0.7788,-0.91308 1.29638,-1.18653 0.52245,-0.27831 1.10107,-0.41747 1.73584,-0.41748 0.0928,1e-5 0.19774,0.005 0.31494,0.0146 0.11717,0.01 0.25634,0.0244 0.41747,0.0439 l -0.46142,2.37304 m 9.1333,2.17529 -0.0879,0.41749 -6.13769,0 c -10e-6,0.0293 -0.002,0.0732 -0.007,0.13183 -0.005,0.0537 -0.007,0.0952 -0.007,0.12451 -10e-6,0.53223 0.15869,0.93018 0.47608,1.19385 0.32226,0.26367 0.80321,0.39551 1.44286,0.39551 0.55176,0 1.13281,-0.083 1.74316,-0.24902 0.61524,-0.16602 1.25977,-0.4126 1.9336,-0.73975 l -0.40283,2.03613 c -0.63965,0.23438 -1.27687,0.40772 -1.91162,0.52002 -0.62988,0.11719 -1.27197,0.17578 -1.92627,0.17578 -1.2793,0 -2.26806,-0.29541 -2.9663,-0.88623 -0.69336,-0.59082 -1.04005,-1.42578 -1.04005,-2.50488 0,-0.625 0.10986,-1.23047 0.3296,-1.81641 0.2246,-0.59081 0.54931,-1.13036 0.97411,-1.61865 0.50293,-0.58593 1.10351,-1.03027 1.80176,-1.33301 0.70313,-0.30272 1.48193,-0.45409 2.33643,-0.4541 1.10839,1e-5 1.9873,0.29542 2.63671,0.88623 0.65429,0.59083 0.98144,1.38673 0.98145,2.3877 -1e-5,0.19531 -0.0147,0.40283 -0.0439,0.62256 -0.0244,0.21484 -0.0659,0.45166 -0.12451,0.71044 m -2.47558,-1.20117 c 0.0146,-0.0635 0.0244,-0.12694 0.0293,-0.19043 0.01,-0.0684 0.0146,-0.13427 0.0146,-0.19775 0,-0.39062 -0.11719,-0.70068 -0.35156,-0.93018 -0.23438,-0.22948 -0.55176,-0.34423 -0.95215,-0.34423 -0.5127,0 -0.94971,0.1416 -1.31103,0.4248 -0.35645,0.27833 -0.62988,0.69092 -0.82031,1.23779 l 3.39111,0 m 8.14453,1.30371 c -0.6543,10e-6 -1.1499,0.10255 -1.48681,0.30762 -0.33204,0.2002 -0.49805,0.49805 -0.49805,0.89356 0,0.29785 0.0977,0.53222 0.29297,0.70312 0.20019,0.1709 0.47363,0.25635 0.82031,0.25635 0.5371,0 0.98632,-0.16113 1.34765,-0.4834 0.36133,-0.32715 0.60303,-0.78613 0.7251,-1.37695 l 0.0586,-0.3003 -1.25976,0 m 4.09424,-0.98877 -0.91553,4.68018 -2.62207,0 0.21973,-1.21582 c -0.4297,0.48828 -0.8838,0.84961 -1.36231,1.08398 -0.47851,0.2295 -0.99854,0.34424 -1.56006,0.34424 -0.77636,0 -1.39404,-0.20019 -1.85303,-0.60058 -0.4541,-0.40528 -0.68115,-0.94971 -0.68115,-1.6333 0,-1.04492 0.40284,-1.84326 1.2085,-2.39502 0.81054,-0.55664 1.97754,-0.83496 3.50098,-0.83496 l 1.54541,0 0.0293,-0.20508 c 0.0147,-0.0684 0.022,-0.11718 0.022,-0.14649 0.005,-0.0293 0.007,-0.0561 0.007,-0.0806 0,-0.32226 -0.15381,-0.56396 -0.46143,-0.7251 -0.30273,-0.16601 -0.7544,-0.24902 -1.35497,-0.24902 -0.542,0 -1.0669,0.0562 -1.57471,0.16845 -0.50782,0.11231 -0.99854,0.28077 -1.47217,0.50537 l 0.3955,-1.99951 c 0.54688,-0.13671 1.10597,-0.23925 1.67725,-0.30762 0.57617,-0.0732 1.17188,-0.10985 1.78712,-0.10986 1.21581,1e-5 2.11912,0.20997 2.70996,0.62988 0.59081,0.41505 0.88621,1.04982 0.88622,1.9043 -1e-5,0.16602 -0.0122,0.34913 -0.0366,0.54932 -0.0195,0.19532 -0.0513,0.40772 -0.0952,0.6372 m 10.51026,-2.16064 c 0.40526,-0.50292 0.86424,-0.88866 1.37695,-1.15723 0.51756,-0.26854 1.05467,-0.40282 1.61132,-0.40283 0.73242,1e-5 1.30858,0.20265 1.72852,0.60791 0.42478,0.4004 0.6372,0.95216 0.63721,1.65527 -1e-5,0.1465 -0.0122,0.31495 -0.0366,0.50538 -0.0195,0.18555 -0.0513,0.39795 -0.0952,0.6372 l -0.97412,4.99512 -2.64404,0 0.82764,-4.27734 0.022,-0.10987 c 0.12694,-0.60546 0.19041,-0.99364 0.19043,-1.16455 -2e-5,-0.26855 -0.0781,-0.48095 -0.23438,-0.6372 -0.15137,-0.15625 -0.3589,-0.23437 -0.62256,-0.23438 -0.50294,1e-5 -0.93019,0.20753 -1.28174,0.62256 -0.34669,0.41016 -0.59571,0.99854 -0.74706,1.76514 l -0.79103,4.03564 -2.64403,0 0.84228,-4.27734 c 0.0732,-0.36621 0.1245,-0.64209 0.1538,-0.82764 0.0293,-0.19042 0.0439,-0.33935 0.044,-0.44678 -1e-5,-0.27343 -0.0757,-0.48583 -0.22705,-0.6372 -0.15137,-0.15625 -0.36133,-0.23437 -0.62988,-0.23438 -0.4834,1e-5 -0.9082,0.21485 -1.27442,0.64453 -0.36132,0.42481 -0.6128,1.00587 -0.75438,1.74317 l -0.79103,4.03564 -2.62939,0 1.59668,-8.20312 2.63672,0 -0.2417,1.20117 c 0.41015,-0.46386 0.84717,-0.81298 1.31104,-1.04737 0.46385,-0.23436 0.94725,-0.35155 1.45019,-0.35156 0.5664,1e-5 1.05224,0.14649 1.45752,0.43945 0.40527,0.2881 0.6494,0.66163 0.73243,1.12061" />
  <path
     inkscape:connector-curvature="0"
     style="font-size:12px;font-style:oblique;font-variant:normal;font-weight:bold;font-stretch:normal;text-align:start;line-height:125%;writing-mode:lr-tb;text-anchor:start;fill:#000000;fill-opacity:1;stroke:none;font-family:Bitstream Vera Sans;-inkscape-font-specification:Bitstream Vera Sans Bold Oblique"
     id="flowRoot2712"
     d="m 301.45419,221.91682 10.07812,0 -0.41747,2.13135 -3.63281,0 -1.71388,8.80372 -2.81981,0 1.71386,-8.80372 -3.63281,0 0.4248,-2.13135 m 12.77344,4.40919 c -0.67872,0 -1.2378,0.30763 -1.67724,0.92285 -0.43946,0.61524 -0.65919,1.39893 -0.65919,2.35108 0,0.51757 0.11719,0.91308 0.35156,1.18652 0.23927,0.26855 0.58594,0.40283 1.04004,0.40283 0.67871,0 1.23779,-0.30762 1.67725,-0.92285 0.43945,-0.62012 0.65918,-1.40869 0.65918,-2.36573 0,-0.51269 -0.11963,-0.90331 -0.35889,-1.17187 -0.23438,-0.26855 -0.57861,-0.40283 -1.03271,-0.40283 m 0.2124,-1.875 c 1.2207,0 2.18017,0.31006 2.87842,0.93018 0.69823,0.62012 1.04735,1.46485 1.04736,2.53417 -1e-5,0.62013 -0.10987,1.22315 -0.32958,1.80909 -0.21974,0.58105 -0.53957,1.11327 -0.95948,1.59667 -0.49805,0.57618 -1.08644,1.01074 -1.76514,1.30372 -0.67871,0.29296 -1.43555,0.43945 -2.27051,0.43945 -1.20605,0 -2.1582,-0.31005 -2.85644,-0.93018 -0.69336,-0.62011 -1.04003,-1.46484 -1.04003,-2.53417 0,-0.61524 0.1123,-1.21583 0.33691,-1.80177 0.2246,-0.59081 0.54687,-1.13036 0.9668,-1.61865 0.48827,-0.5664 1.06932,-0.99608 1.74316,-1.28906 0.6787,-0.29296 1.42821,-0.43945 2.24853,-0.43945 m 7.14843,-2.99561 2.63673,0 -1.20118,6.17432 3.5376,-2.98096 3.09083,0 -4.76808,3.79395 3.46437,4.40918 -2.99562,0 -2.65868,-3.5376 -0.68848,3.5376 -2.6294,0 2.21191,-11.39649 m 16.22315,7.60254 -0.0879,0.41748 -6.1377,0 c 0,0.0293 -0.002,0.0732 -0.007,0.13184 -0.005,0.0537 -0.007,0.0952 -0.007,0.12451 0,0.53223 0.15868,0.93018 0.47607,1.19384 0.32226,0.26368 0.80323,0.39551 1.44288,0.39551 0.55175,0 1.1328,-0.083 1.74316,-0.24902 0.61522,-0.16601 1.25976,-0.41259 1.9336,-0.73975 l -0.40284,2.03614 c -0.63966,0.23437 -1.27686,0.40771 -1.91162,0.52002 -0.62989,0.11719 -1.27198,0.17578 -1.92627,0.17578 -1.2793,0 -2.26807,-0.29542 -2.96631,-0.88623 -0.69336,-0.59082 -1.04004,-1.42579 -1.04004,-2.50489 0,-0.625 0.10987,-1.23046 0.32959,-1.8164 0.22461,-0.59082 0.54931,-1.13037 0.97413,-1.61866 0.50292,-0.58592 1.10351,-1.03026 1.80175,-1.333 0.70312,-0.30272 1.48193,-0.4541 2.33642,-0.4541 1.1084,0 1.9873,0.29541 2.63673,0.88623 0.65428,0.59082 0.98143,1.38672 0.98145,2.3877 -2e-5,0.19531 -0.0147,0.40283 -0.044,0.62255 -0.0244,0.21485 -0.0659,0.45167 -0.12452,0.71045 m -2.47558,-1.20117 c 0.0146,-0.0635 0.0244,-0.12695 0.0293,-0.19043 0.01,-0.0683 0.0146,-0.13428 0.0146,-0.19775 -2e-5,-0.39063 -0.1172,-0.70068 -0.35157,-0.93018 -0.23438,-0.22949 -0.55176,-0.34424 -0.95215,-0.34424 -0.5127,0 -0.94971,0.1416 -1.31103,0.4248 -0.35645,0.27833 -0.62989,0.69093 -0.82032,1.2378 l 3.39112,0 m 12.8833,0 -0.97412,4.99512 -2.6294,0 0.82764,-4.27735 c 0.0586,-0.27832 0.10253,-0.51269 0.13184,-0.70313 0.0342,-0.1953 0.0513,-0.34911 0.0513,-0.46142 0,-0.31249 -0.0879,-0.55419 -0.26366,-0.72509 -0.17091,-0.1709 -0.41505,-0.25635 -0.73243,-0.25635 -0.542,0 -1.00831,0.2124 -1.39892,0.6372 -0.38575,0.41994 -0.6543,1.00342 -0.80566,1.75049 l -0.79103,4.03565 -2.62939,0 1.59668,-8.20313 2.63672,0 -0.2417,1.20118 c 0.48339,-0.47363 0.96923,-0.82519 1.45752,-1.05469 0.48827,-0.22949 0.99853,-0.34424 1.53076,-0.34424 0.75682,0 1.34032,0.19776 1.75049,0.59326 0.41015,0.39552 0.61522,0.95215 0.61523,1.66992 -10e-6,0.15626 -0.0122,0.3296 -0.0366,0.52002 -0.0195,0.19044 -0.0513,0.39795 -0.0952,0.62256 m 16.2085,-5.59571 -0.4541,2.31446 c -0.55178,-0.27343 -1.0962,-0.47607 -1.6333,-0.60791 -0.53713,-0.13671 -1.06203,-0.20507 -1.57472,-0.20507 -0.70312,0 -1.25245,0.10986 -1.64795,0.32958 -0.39062,0.21974 -0.58593,0.52492 -0.58593,0.91553 0,0.24902 0.0854,0.44434 0.25635,0.58594 0.17577,0.13672 0.53466,0.271 1.07666,0.40282 l 1.15722,0.28565 c 0.96679,0.24415 1.6748,0.59815 2.12403,1.06201 0.45409,0.45899 0.68114,1.05469 0.68115,1.78712 -10e-6,1.18652 -0.45168,2.13867 -1.35498,2.85643 -0.89845,0.71778 -2.10695,1.07667 -3.6255,1.07667 -0.708,0 -1.41357,-0.0659 -2.11668,-0.19775 -0.69825,-0.13184 -1.38184,-0.32715 -2.05079,-0.58594 l 0.44677,-2.38038 c 0.64942,0.37599 1.2793,0.65674 1.88965,0.84229 0.61524,0.18555 1.2207,0.27833 1.81642,0.27833 0.64452,0 1.16698,-0.13184 1.56737,-0.39552 0.40528,-0.26367 0.60791,-0.60058 0.60791,-1.01073 0,-0.26855 -0.0903,-0.47608 -0.271,-0.62257 -0.18066,-0.15136 -0.57617,-0.30517 -1.18652,-0.46142 l -1.1499,-0.28565 c -0.84961,-0.20995 -1.48194,-0.54199 -1.89698,-0.99609 -0.41503,-0.4541 -0.62255,-1.04247 -0.62255,-1.76514 0,-1.13768 0.43457,-2.04833 1.30372,-2.73193 0.87401,-0.68847 2.04832,-1.0327 3.52295,-1.03272 0.59081,2e-5 1.19627,0.0464 1.8164,0.13917 0.62498,0.0879 1.25976,0.22217 1.9043,0.40282 m 6.23291,0.0586 -0.44678,2.3291 2.68067,0 -0.37354,1.875 -2.68066,0 -0.67384,3.47168 c -0.0195,0.0781 -0.0342,0.14405 -0.0439,0.19776 -0.005,0.0537 -0.007,0.10497 -0.007,0.1538 0,0.22461 0.0732,0.38575 0.21972,0.4834 0.15136,0.0977 0.40283,0.14649 0.7544,0.14649 l 1.35498,0 -0.37354,1.875 -2.20459,0 c -0.79101,0 -1.39405,-0.16602 -1.80909,-0.49805 -0.41503,-0.33203 -0.62255,-0.81054 -0.62255,-1.43555 0,-0.13672 0.007,-0.2832 0.022,-0.43945 0.0146,-0.15625 0.0366,-0.31494 0.0659,-0.47608 l 0.67383,-3.479 -1.28907,0 0.35889,-1.875 1.30371,0 0.4541,-2.3291 2.63673,0 m 9.49219,4.56299 c -0.18068,-0.10254 -0.38088,-0.18066 -0.60059,-0.23438 -0.21974,-0.0537 -0.45655,-0.0806 -0.71045,-0.0806 -0.66895,0 -1.22559,0.21485 -1.66993,0.64453 -0.43945,0.4297 -0.73731,1.04981 -0.89355,1.86035 l -0.74707,3.7793 -2.62939,0 1.59668,-8.20313 2.63671,0 -0.28564,1.40625 c 0.34668,-0.51757 0.7788,-0.91307 1.29639,-1.18652 0.52245,-0.27832 1.10106,-0.41748 1.73584,-0.41748 0.0928,0 0.19775,0.005 0.31493,0.0147 0.11719,0.01 0.25634,0.0244 0.41749,0.0439 l -0.46142,2.37305 m 9.1333,2.17529 -0.0879,0.41748 -6.1377,0 c 0,0.0293 -0.002,0.0732 -0.007,0.13184 -0.005,0.0537 -0.007,0.0952 -0.007,0.12451 0,0.53223 0.15869,0.93018 0.47607,1.19384 0.32227,0.26368 0.80322,0.39551 1.44288,0.39551 0.55175,0 1.1328,-0.083 1.74316,-0.24902 0.61523,-0.16601 1.25975,-0.41259 1.93359,-0.73975 l -0.40283,2.03614 c -0.63966,0.23437 -1.27686,0.40771 -1.91162,0.52002 -0.62989,0.11719 -1.27198,0.17578 -1.92628,0.17578 -1.2793,0 -2.26806,-0.29542 -2.9663,-0.88623 -0.69336,-0.59082 -1.04003,-1.42579 -1.04003,-2.50489 0,-0.625 0.10986,-1.23046 0.32958,-1.8164 0.2246,-0.59082 0.54932,-1.13037 0.97413,-1.61866 0.50292,-0.58592 1.10351,-1.03026 1.80175,-1.333 0.70312,-0.30272 1.48192,-0.4541 2.33642,-0.4541 1.10839,0 1.9873,0.29541 2.63673,0.88623 0.65429,0.59082 0.98144,1.38672 0.98144,2.3877 0,0.19531 -0.0146,0.40283 -0.0439,0.62255 -0.0244,0.21485 -0.0659,0.45167 -0.12451,0.71045 m -2.47559,-1.20117 c 0.0146,-0.0635 0.0244,-0.12695 0.0293,-0.19043 0.01,-0.0683 0.0146,-0.13428 0.0147,-0.19775 -10e-6,-0.39063 -0.1172,-0.70068 -0.35158,-0.93018 -0.23437,-0.22949 -0.55176,-0.34424 -0.95213,-0.34424 -0.5127,0 -0.94972,0.1416 -1.31104,0.4248 -0.35645,0.27833 -0.62989,0.69093 -0.82031,1.2378 l 3.39111,0 m 8.14452,1.3037 c -0.6543,2e-5 -1.1499,0.10255 -1.48681,0.30763 -0.33204,0.2002 -0.49805,0.49805 -0.49805,0.89355 0,0.29786 0.0977,0.53224 0.29298,0.70312 0.20018,0.1709 0.47362,0.25635 0.82031,0.25635 0.5371,0 0.98632,-0.16112 1.34765,-0.4834 0.36132,-0.32715 0.60302,-0.78612 0.7251,-1.37695 l 0.0586,-0.3003 -1.25978,0 m 4.09424,-0.98876 -0.91552,4.68018 -2.62207,0 0.21973,-1.21583 c -0.4297,0.48829 -0.8838,0.84961 -1.36231,1.08399 -0.47852,0.22949 -0.99854,0.34424 -1.56005,0.34424 -0.77638,0 -1.39405,-0.20019 -1.85304,-0.60059 -0.4541,-0.40528 -0.68115,-0.9497 -0.68115,-1.6333 0,-1.04491 0.40284,-1.84325 1.2085,-2.39501 0.81055,-0.55664 1.97754,-0.83497 3.50097,-0.83497 l 1.54542,0 0.0293,-0.20507 c 0.0146,-0.0684 0.022,-0.11719 0.022,-0.14649 0.005,-0.0293 0.007,-0.0562 0.007,-0.0806 0,-0.32225 -0.15381,-0.56395 -0.46142,-0.72509 -0.30274,-0.16601 -0.7544,-0.24903 -1.35498,-0.24903 -0.542,0 -1.0669,0.0562 -1.57471,0.16845 -0.50781,0.11232 -0.99854,0.28078 -1.47216,0.50538 l 0.39551,-1.99951 c 0.54686,-0.13672 1.10595,-0.23925 1.67724,-0.30762 0.57617,-0.0732 1.17187,-0.10986 1.78711,-0.10986 1.21581,0 2.11914,0.20996 2.70996,0.62988 0.59082,0.41505 0.88623,1.04981 0.88623,1.9043 0,0.16602 -0.0122,0.34912 -0.0366,0.54931 -0.0195,0.19532 -0.0513,0.40772 -0.0952,0.63721 m 10.51026,-2.16065 c 0.40527,-0.50291 0.86425,-0.88866 1.37695,-1.15722 0.51757,-0.26854 1.05468,-0.40283 1.61133,-0.40283 0.73241,0 1.30859,0.20264 1.72852,0.6079 0.42479,0.4004 0.63719,0.95216 0.6372,1.65528 -10e-6,0.1465 -0.0122,0.31495 -0.0366,0.50537 -0.0195,0.18555 -0.0513,0.39795 -0.0952,0.63721 l -0.97412,4.99512 -2.64405,0 0.82764,-4.27735 0.022,-0.10987 c 0.12693,-0.60546 0.19041,-0.99363 0.19042,-1.16455 -1e-5,-0.26855 -0.0781,-0.48095 -0.23437,-0.6372 -0.15138,-0.15625 -0.3589,-0.23437 -0.62257,-0.23437 -0.50293,0 -0.93017,0.20752 -1.28173,0.62255 -0.34669,0.41016 -0.59572,0.99855 -0.74707,1.76514 l -0.79101,4.03565 -2.64405,0 0.84229,-4.27735 c 0.0732,-0.3662 0.1245,-0.64208 0.15381,-0.82763 0.0293,-0.19042 0.0439,-0.33935 0.0439,-0.44679 0,-0.27342 -0.0757,-0.48582 -0.22705,-0.6372 -0.15138,-0.15625 -0.36134,-0.23437 -0.62988,-0.23437 -0.48341,0 -0.90821,0.21485 -1.27442,0.64452 -0.36133,0.42482 -0.61279,1.00587 -0.75439,1.74317 l -0.79101,4.03565 -2.6294,0 1.59667,-8.20313 2.63673,0 -0.2417,1.20118 c 0.41015,-0.46387 0.84716,-0.81299 1.31104,-1.04737 0.46386,-0.23437 0.94726,-0.35156 1.45018,-0.35156 0.5664,0 1.05224,0.14649 1.45753,0.43945 0.40526,0.28809 0.6494,0.66163 0.73242,1.1206" />
  <path
     inkscape:connector-curvature="0"
     style="fill:none;stroke:#000000;stroke-width:1.57739532;stroke-linecap:butt;stroke-linejoin:miter;stroke-miterlimit:10"
     id="path313"
     d="m 0.78869766,266.05934 89.88126134,0 0,34.88047 -89.88126134,0 0,-34.88047 z" />
  <path
     inkscape:connector-curvature="0"
     style="fill:#ffffff;fill-rule:nonzero;stroke:#000000;stroke-opacity:1"
     id="path311"
     d="m 0.78868466,266.05934 89.88126434,0 0,34.88047 -89.88126434,0 0,-34.88047 z" />
  <text
     sodipodi:linespacing="125%"
     style="font-size:12px;font-style:normal;font-variant:normal;font-weight:bold;font-stretch:normal;text-align:start;line-height:125%;writing-mode:lr-tb;text-anchor:start;fill:#000000;fill-opacity:1;stroke:none;font-family:Courier New;-inkscape-font-specification:Courier New Bold"
     xml:space="preserve"
     id="text2823"
     y="294.84131"
     x="3.5328186"><tspan
       style="font-size:12px;font-style:normal;font-variant:normal;font-weight:bold;font-stretch:normal;text-align:start;line-height:125%;writing-mode:lr-tb;text-anchor:start;font-family:Courier New;-inkscape-font-specification:Courier New Bold"
       id="tspan2825"
       y="294.84131"
       x="3.5328186">&quot;if&quot;</tspan></text>
  <path
     inkscape:connector-curvature="0"
     style="fill:none;stroke:#000000;stroke-width:1px;stroke-linecap:butt;stroke-linejoin:miter;stroke-opacity:1"
     id="path2827"
     d="m 1.0328187,281.98416 89.2857103,0" />
  <path
     inkscape:connector-curvature="0"
     style="fill:#ffffff;fill-rule:nonzero;stroke:none"
     id="path2829"
     d="m 103.80036,266.05934 89.88127,0 0,34.88047 -89.88127,0 0,-34.88047 z" />
  <path
     inkscape:connector-curvature="0"
     style="fill:none;stroke:#000000;stroke-width:1.57739532;stroke-linecap:butt;stroke-linejoin:miter;stroke-miterlimit:10"
     id="path2831"
     d="m 103.80038,266.05934 89.88126,0 0,34.88047 -89.88126,0 0,-34.88047 z" />
  <path
     inkscape:connector-curvature="0"
     style="fill:none;stroke:#000000;stroke-width:1px;stroke-linecap:butt;stroke-linejoin:miter;stroke-opacity:1"
     id="path2845"
     d="m 104.0445,281.98416 89.28571,0" />
  <text
     sodipodi:linespacing="125%"
     style="font-size:12px;font-style:normal;font-variant:normal;font-weight:bold;font-stretch:normal;text-align:start;line-height:125%;writing-mode:lr-tb;text-anchor:start;fill:#000000;fill-opacity:1;stroke:none;font-family:Courier New;-inkscape-font-specification:Courier New Bold"
     xml:space="preserve"
     id="text2841"
     y="294.84131"
     x="106.54451"><tspan
       style="font-size:12px;font-style:normal;font-variant:normal;font-weight:bold;font-stretch:normal;text-align:start;line-height:125%;writing-mode:lr-tb;text-anchor:start;font-family:Courier New;-inkscape-font-specification:Courier New Bold"
       id="tspan2865"
       y="294.84131"
       x="106.54451">&quot;(&quot;</tspan></text>
  <path
     inkscape:connector-curvature="0"
     style="fill:#ffffff;fill-rule:nonzero;stroke:none"
     id="path2847"
     d="m 206.81201,266.05934 89.88127,0 0,34.88047 -89.88127,0 0,-34.88047 z" />
  <path
     inkscape:connector-curvature="0"
     style="fill:none;stroke:#000000;stroke-width:1.57739532;stroke-linecap:butt;stroke-linejoin:miter;stroke-miterlimit:10"
     id="path2849"
     d="m 206.81203,266.05934 89.88126,0 0,34.88047 -89.88126,0 0,-34.88047 z" />
  <path
     inkscape:connector-curvature="0"
     style="fill:none;stroke:#000000;stroke-width:1px;stroke-linecap:butt;stroke-linejoin:miter;stroke-opacity:1"
     id="path2863"
     d="m 207.05615,281.98416 89.28571,0" />
  <text
     sodipodi:linespacing="125%"
     style="font-size:12px;font-style:normal;font-variant:normal;font-weight:bold;font-stretch:normal;text-align:start;line-height:125%;writing-mode:lr-tb;text-anchor:start;fill:#000000;fill-opacity:1;stroke:none;font-family:Courier New;-inkscape-font-specification:Courier New Bold"
     xml:space="preserve"
     id="text2859"
     y="294.84128"
     x="209.55614"><tspan
       style="font-size:12px;font-style:normal;font-variant:normal;font-weight:bold;font-stretch:normal;text-align:start;line-height:125%;writing-mode:lr-tb;text-anchor:start;font-family:Courier New;-inkscape-font-specification:Courier New Bold"
       id="tspan2861"
       y="294.84128"
       x="209.55614">&quot;x&quot;</tspan></text>
  <path
     inkscape:connector-curvature="0"
     style="fill:#ffffff;fill-rule:nonzero;stroke:none"
     id="path2867"
     d="m 309.8237,266.05934 89.88127,0 0,34.88047 -89.88127,0 0,-34.88047 z" />
  <path
     inkscape:connector-curvature="0"
     style="fill:none;stroke:#000000;stroke-width:1.577;stroke-linecap:butt;stroke-linejoin:miter;stroke-miterlimit:10;stroke-dasharray:none"
     id="path2869"
     d="m 309.82372,266.05934 89.88126,0 0,34.88047 -89.88126,0 0,-34.88047 z" />
  <path
     inkscape:connector-curvature="0"
     style="fill:none;stroke:#000000;stroke-width:1px;stroke-linecap:butt;stroke-linejoin:miter;stroke-opacity:1"
     id="path2883"
     d="m 310.06784,281.98416 89.28571,0" />
  <path
     inkscape:connector-curvature="0"
     style="fill:none;stroke:#000000;stroke-width:1.57739532;stroke-linecap:butt;stroke-linejoin:miter;stroke-miterlimit:10"
     id="path2887"
     d="m 412.83541,266.05934 89.88126,0 0,34.88047 -89.88126,0 0,-34.88047 z" />
  <text
     sodipodi:linespacing="125%"
     style="font-size:12px;font-style:normal;font-variant:normal;font-weight:bold;font-stretch:normal;text-align:start;line-height:125%;writing-mode:lr-tb;text-anchor:start;fill:#000000;fill-opacity:1;stroke:none;font-family:Courier New;-inkscape-font-specification:Courier New Bold"
     xml:space="preserve"
     id="text2879"
     y="294.84128"
     x="312.56784"><tspan
       style="font-size:12px;font-style:normal;font-variant:normal;font-weight:bold;font-stretch:normal;text-align:start;line-height:125%;writing-mode:lr-tb;text-anchor:start;font-family:Courier New;-inkscape-font-specification:Courier New Bold"
       id="tspan2881"
       y="294.84128"
       x="312.56784">&quot;&gt;&quot;</tspan></text>
  <path
     inkscape:connector-curvature="0"
     style="fill:#ffffff;fill-rule:nonzero;stroke:#000000;stroke-width:1.577;stroke-miterlimit:10;stroke-dasharray:none;stroke-opacity:1"
     id="path2885"
     d="m 412.83539,266.05934 89.88127,0 0,34.88047 -89.88127,0 0,-34.88047 z" />
  <text
     sodipodi:linespacing="125%"
     style="font-size:12px;font-style:normal;font-variant:normal;font-weight:bold;font-stretch:normal;text-align:start;line-height:125%;writing-mode:lr-tb;text-anchor:start;fill:#000000;fill-opacity:1;stroke:none;font-family:Courier New;-inkscape-font-specification:Courier New Bold"
     xml:space="preserve"
     id="text2897"
     y="294.84128"
     x="415.57953"><tspan
       style="font-size:12px;font-style:normal;font-variant:normal;font-weight:bold;font-stretch:normal;text-align:start;line-height:125%;writing-mode:lr-tb;text-anchor:start;font-family:Courier New;-inkscape-font-specification:Courier New Bold"
       id="tspan2899"
       y="294.84128"
       x="415.57953">&quot;3.1&quot;</tspan></text>
  <path
     inkscape:connector-curvature="0"
     style="fill:none;stroke:#000000;stroke-width:1px;stroke-linecap:butt;stroke-linejoin:miter;stroke-opacity:1"
     id="path2901"
     d="m 413.07953,281.98416 89.28571,0" />
  <path
     inkscape:connector-curvature="0"
     style="fill:#ffffff;fill-opacity:1;stroke:#000000;stroke-width:1;stroke-miterlimit:4;stroke-opacity:1"
     id="rect4131"
     d="m 174.60425,105.14266 199.28572,0 0,69.28572" />
  <rect
     style="fill:none;fill-opacity:1;stroke:#000000;stroke-width:1;stroke-miterlimit:4;stroke-opacity:1;stroke-dasharray:none"
     id="rect4129"
     y="112.01502"
     x="167.10425"
     height="69.285713"
     width="199.28572" />
  <flowRoot
     style="font-size:18px;font-style:normal;font-variant:normal;font-weight:bold;font-stretch:normal;text-align:center;line-height:125%;writing-mode:lr-tb;text-anchor:middle;fill:#000000;fill-opacity:1;stroke:none;font-family:Sans;-inkscape-font-specification:Sans Bold"
     xml:space="preserve"
     id="flowRoot2911"
     transform="translate(-75.752894,-121.06144)"><flowRegion
       id="flowRegion2913"><rect
         style="font-size:18px;font-style:normal;font-variant:normal;font-weight:bold;font-stretch:normal;text-align:center;line-height:125%;writing-mode:lr-tb;text-anchor:middle;font-family:Sans;-inkscape-font-specification:Sans Bold"
         id="rect2915"
         y="242.36218"
         x="271.42856"
         height="67.14286"
         width="132.85715" /></flowRegion><flowPara
       id="flowPara2917">Lexical</flowPara><flowPara
       id="flowPara2919">Analyzer</flowPara></flowRoot>  <path
     inkscape:connector-curvature="0"
     style="fill:none;stroke:#000000;stroke-width:0.9861083px;stroke-linecap:butt;stroke-linejoin:miter;stroke-opacity:1"
     id="path4140"
     d="m 167.0973,112.02198 7.87104,-6.88626" />
  <path
     inkscape:connector-curvature="0"
     style="fill:none;stroke:#000000;stroke-width:0.9861083px;stroke-linecap:butt;stroke-linejoin:miter;stroke-opacity:1"
     id="path4142"
     d="m 366.20444,112.02198 7.87104,-6.88626" />
  <path
     inkscape:connector-curvature="0"
     style="fill:none;stroke:#000000;stroke-width:0.9861083px;stroke-linecap:butt;stroke-linejoin:miter;stroke-opacity:1"
     id="path4144"
     d="m 366.38301,181.30768 7.87104,-6.88626" />
  <rect
     style="fill:none;fill-opacity:0;stroke:#000000;stroke-width:0.99921262000000000;stroke-linejoin:round;stroke-miterlimit:4;stroke-opacity:1;stroke-dasharray:none;stroke-dashoffset:0"
     id="rect3614"
     width="20"
     height="30"
     x="180.65594"
     y="0.49960631" />
  <rect
     style="fill:none;fill-opacity:0;stroke:#000000;stroke-width:0.99921262000000000;stroke-linejoin:round;stroke-miterlimit:4;stroke-opacity:1;stroke-dasharray:none;stroke-dashoffset:0"
     id="rect3618"
     width="20"
     height="30"
     x="231.34944"
     y="0.49960631" />
  <rect
     style="fill:none;fill-opacity:0;stroke:#000000;stroke-width:0.99921262000000000;stroke-linejoin:round;stroke-miterlimit:4;stroke-opacity:1;stroke-dasharray:none;stroke-dashoffset:0"
     id="rect3622"
     width="20"
     height="30"
     x="282.04294"
     y="0.49960631" />
  <rect
     y="0.49960631"
     x="383.42993"
     height="30"
     width="20"
     id="rect3534"
     style="fill:none;fill-opacity:0;stroke:#000000;stroke-width:0.99921262000000000;stroke-linejoin:round;stroke-miterlimit:4;stroke-opacity:1;stroke-dasharray:none;stroke-dashoffset:0" />
  <rect
     style="fill:none;fill-opacity:0;stroke:#000000;stroke-width:0.99921262000000000;stroke-linejoin:round;stroke-miterlimit:4;stroke-opacity:1;stroke-dasharray:none;stroke-dashoffset:0"
     id="rect3606"
     width="20"
     height="30"
     x="104.61569"
     y="0.49960631" />
  <flowRoot
     xml:space="preserve"
     id="flowRoot3630"
     style="font-size:18px;font-style:normal;font-variant:normal;font-weight:bold;font-stretch:normal;text-align:start;line-height:125%;letter-spacing:0px;word-spacing:0px;writing-mode:lr-tb;text-anchor:start;fill:#000000;fill-opacity:1;stroke:none;font-family:Courier New;-inkscape-font-specification:Courier New Bold"
     transform="translate(-28.0264,-61.836239)"><flowRegion
       id="flowRegion3632"><rect
         id="rect3634"
         width="21.60647"
         height="26.266689"
         x="137.26463"
         y="66.51403"
         style="font-size:18px;font-style:normal;font-variant:normal;font-weight:bold;font-stretch:normal;text-align:start;line-height:125%;writing-mode:lr-tb;text-anchor:start;font-family:Courier New;-inkscape-font-specification:Courier New Bold" /></flowRegion><flowPara
       id="flowPara3636">i</flowPara></flowRoot>  <rect
     style="fill:none;fill-opacity:0;stroke:#000000;stroke-width:0.99921262000000000;stroke-linejoin:round;stroke-miterlimit:4;stroke-opacity:1;stroke-dasharray:none;stroke-dashoffset:0"
     id="rect3608"
     width="20"
     height="30"
     x="129.96243"
     y="0.49960631" />
  <flowRoot
     transform="translate(-3.0883433,-61.836239)"
     style="font-size:18px;font-style:normal;font-variant:normal;font-weight:bold;font-stretch:normal;text-align:start;line-height:125%;letter-spacing:0px;word-spacing:0px;writing-mode:lr-tb;text-anchor:start;fill:#000000;fill-opacity:1;stroke:none;font-family:Courier New;-inkscape-font-specification:Courier New Bold"
     id="flowRoot3538"
     xml:space="preserve"><flowRegion
       id="flowRegion3540"><rect
         style="font-size:18px;font-style:normal;font-variant:normal;font-weight:bold;font-stretch:normal;text-align:start;line-height:125%;writing-mode:lr-tb;text-anchor:start;font-family:Courier New;-inkscape-font-specification:Courier New Bold"
         y="66.51403"
         x="137.26463"
         height="26.266689"
         width="21.60647"
         id="rect3542" /></flowRegion><flowPara
       id="flowPara3544">f</flowPara></flowRoot>  <flowRoot
     transform="translate(-127.52968,-86.613819)"
     style="font-size:18px;font-style:normal;font-variant:normal;font-weight:bold;font-stretch:normal;text-align:start;line-height:125%;letter-spacing:0px;word-spacing:0px;writing-mode:lr-tb;text-anchor:start;fill:#000000;fill-opacity:1;stroke:none;font-family:Courier New;-inkscape-font-specification:Courier New Bold"
     id="flowRoot3546"
     xml:space="preserve"><flowRegion
       id="flowRegion3548"><rect
         style="font-size:18px;font-style:normal;font-variant:normal;font-weight:bold;font-stretch:normal;text-align:start;line-height:125%;writing-mode:lr-tb;text-anchor:start;font-family:Courier New;-inkscape-font-specification:Courier New Bold"
         y="68.632317"
         x="191.06898"
         height="19.911844"
         width="19.911844"
         id="rect3550" /></flowRegion><flowPara
       id="flowPara3552">f</flowPara></flowRoot>  <rect
     style="fill:none;fill-opacity:0;stroke:#000000;stroke-width:0.99921262000000000;stroke-linejoin:round;stroke-miterlimit:4;stroke-opacity:1;stroke-dasharray:none;stroke-dashoffset:0"
     id="rect3612"
     width="20"
     height="30"
     x="155.30919"
     y="0.49960631" />
  <flowRoot
     transform="translate(-108.37343,-69.538388)"
     style="font-size:18px;font-style:normal;font-variant:normal;font-weight:bold;font-stretch:normal;text-align:start;line-height:125%;letter-spacing:0px;word-spacing:0px;writing-mode:lr-tb;text-anchor:start;fill:#000000;fill-opacity:1;stroke:none;font-family:Courier New;-inkscape-font-specification:Courier New Bold"
     id="flowRoot3554"
     xml:space="preserve"><flowRegion
       id="flowRegion3556"><rect
         style="font-size:18px;font-style:normal;font-variant:normal;font-weight:bold;font-stretch:normal;text-align:start;line-height:125%;writing-mode:lr-tb;text-anchor:start;font-family:Courier New;-inkscape-font-specification:Courier New Bold"
         y="72.868881"
         x="266.90344"
         height="22.030127"
         width="18.21722"
         id="rect3558" /></flowRegion><flowPara
       id="flowPara3560">(</flowPara></flowRoot>  <rect
     style="fill:none;fill-opacity:0;stroke:#000000;stroke-width:0.99921262000000000;stroke-linejoin:round;stroke-miterlimit:4;stroke-opacity:1;stroke-dasharray:none;stroke-dashoffset:0"
     id="rect3616"
     width="20"
     height="30"
     x="206.0027"
     y="0.49960631" />
  <flowRoot
     transform="translate(-97.424563,-72.79913)"
     style="font-size:18px;font-style:normal;font-variant:normal;font-weight:bold;font-stretch:normal;text-align:start;line-height:125%;letter-spacing:0px;word-spacing:0px;writing-mode:lr-tb;text-anchor:start;fill:#000000;fill-opacity:1;stroke:none;font-family:Courier New;-inkscape-font-specification:Courier New Bold"
     id="flowRoot3562"
     xml:space="preserve"><flowRegion
       id="flowRegion3564"><rect
         style="font-size:18px;font-style:normal;font-variant:normal;font-weight:bold;font-stretch:normal;text-align:start;line-height:125%;writing-mode:lr-tb;text-anchor:start;font-family:Courier New;-inkscape-font-specification:Courier New Bold"
         y="77.105438"
         x="307.99811"
         height="27.114002"
         width="30.079596"
         id="rect3566" /></flowRegion><flowPara
       id="flowPara3568">X</flowPara></flowRoot>  <rect
     style="fill:none;fill-opacity:0;stroke:#000000;stroke-width:0.99921262000000000;stroke-linejoin:round;stroke-miterlimit:4;stroke-opacity:1;stroke-dasharray:none;stroke-dashoffset:0"
     id="rect3620"
     width="20"
     height="30"
     x="256.69617"
     y="0.49960631" />
  <flowRoot
     transform="translate(-95.071887,-36.157528)"
     style="font-size:18px;font-style:normal;font-variant:normal;font-weight:bold;font-stretch:normal;text-align:start;line-height:125%;letter-spacing:0px;word-spacing:0px;writing-mode:lr-tb;text-anchor:start;fill:#000000;fill-opacity:1;stroke:none;font-family:Courier New;-inkscape-font-specification:Courier New Bold"
     id="flowRoot3570"
     xml:space="preserve"><flowRegion
       id="flowRegion3572"><rect
         style="font-size:18px;font-style:normal;font-variant:normal;font-weight:bold;font-stretch:normal;text-align:start;line-height:125%;writing-mode:lr-tb;text-anchor:start;font-family:Courier New;-inkscape-font-specification:Courier New Bold"
         y="40.247345"
         x="355.87128"
         height="49.99144"
         width="22.877439"
         id="rect3574" /></flowRegion><flowPara
       id="flowPara3576">&gt;</flowPara></flowRoot>  <rect
     style="fill:none;fill-opacity:0;stroke:#000000;stroke-width:0.99921262000000000;stroke-linejoin:round;stroke-miterlimit:4;stroke-opacity:1;stroke-dasharray:none;stroke-dashoffset:0"
     id="rect3624"
     width="20"
     height="30"
     x="307.38968"
     y="0.49960631" />
  <text
     sodipodi:linespacing="125%"
     id="text3578"
     y="21.199322"
     x="312.01517"
     style="font-size:18px;font-style:normal;font-variant:normal;font-weight:bold;font-stretch:normal;text-align:start;line-height:125%;letter-spacing:0px;word-spacing:0px;writing-mode:lr-tb;text-anchor:start;fill:#000000;fill-opacity:1;stroke:none;font-family:Courier New;-inkscape-font-specification:Courier New Bold"
     xml:space="preserve"><tspan
       y="21.199322"
       x="312.01517"
       id="tspan3580"
       sodipodi:role="line">3</tspan></text>
  <rect
     style="fill:none;fill-opacity:0;stroke:#000000;stroke-width:0.99921262000000000;stroke-linejoin:round;stroke-miterlimit:4;stroke-opacity:1;stroke-dasharray:none;stroke-dashoffset:0"
     id="rect3626"
     width="20"
     height="30"
     x="332.73642"
     y="0.49960631" />
  <flowRoot
     transform="translate(-29.940516,-82.518856)"
     style="font-size:18px;font-style:normal;font-variant:normal;font-weight:bold;font-stretch:normal;text-align:start;line-height:125%;letter-spacing:0px;word-spacing:0px;writing-mode:lr-tb;text-anchor:start;fill:#000000;fill-opacity:1;stroke:none;font-family:Courier New;-inkscape-font-specification:Courier New Bold"
     id="flowRoot3582"
     xml:space="preserve"><flowRegion
       id="flowRegion3584"><rect
         style="font-size:18px;font-style:normal;font-variant:normal;font-weight:bold;font-stretch:normal;text-align:start;line-height:125%;writing-mode:lr-tb;text-anchor:start;font-family:Courier New;-inkscape-font-specification:Courier New Bold"
         y="85.154907"
         x="368.15729"
         height="28.808626"
         width="41.094658"
         id="rect3586" /></flowRegion><flowPara
       id="flowPara3588">.</flowPara></flowRoot>  <rect
     style="fill:none;fill-opacity:0;stroke:#000000;stroke-width:0.99921262000000000;stroke-linejoin:round;stroke-miterlimit:4;stroke-opacity:1;stroke-dasharray:none;stroke-dashoffset:0"
     id="rect3628"
     width="20"
     height="30"
     x="358.08316"
     y="0.49960631" />
  <flowRoot
     transform="translate(-40.237139,-62.579403)"
     style="font-size:18px;font-style:normal;font-variant:normal;font-weight:bold;font-stretch:normal;text-align:start;line-height:125%;letter-spacing:0px;word-spacing:0px;writing-mode:lr-tb;text-anchor:start;fill:#000000;fill-opacity:1;stroke:none;font-family:Courier New;-inkscape-font-specification:Courier New Bold"
     id="flowRoot3590"
     xml:space="preserve"><flowRegion
       id="flowRegion3592"><rect
         style="font-size:18px;font-style:normal;font-variant:normal;font-weight:bold;font-stretch:normal;text-align:start;line-height:125%;writing-mode:lr-tb;text-anchor:start;font-family:Courier New;-inkscape-font-specification:Courier New Bold"
         y="67.361343"
         x="402.89713"
         height="25.843033"
         width="30.503252"
         id="rect3594" /></flowRegion><flowPara
       id="flowPara3596">1</flowPara></flowRoot>  <flowRoot
     style="font-size:12px;font-style:normal;font-variant:normal;font-weight:bold;font-stretch:normal;text-align:start;line-height:125%;writing-mode:lr-tb;text-anchor:start;fill:#000000;fill-opacity:1;stroke:none;font-family:Sans;-inkscape-font-specification:Sans Bold"
     xml:space="preserve"
     id="flowRoot2771"
     transform="translate(-181.62457,-187.50676)"><flowRegion
       id="flowRegion2773"><rect
         style="font-size:12px;font-style:normal;font-variant:normal;font-weight:bold;font-stretch:normal;text-align:start;line-height:125%;writing-mode:lr-tb;text-anchor:start;font-family:Sans;-inkscape-font-specification:Sans Bold"
         id="rect2775"
         y="454.35187"
         x="185.86807"
         height="15.784271"
         width="73.970314" /></flowRegion><flowPara
       style="font-size:12px;font-style:normal;font-variant:normal;font-weight:bold;font-stretch:normal;text-align:start;line-height:125%;writing-mode:lr-tb;text-anchor:start;font-family:Sans;-inkscape-font-specification:Sans Bold"
       id="flowPara2779">KEYWORD</flowPara></flowRoot>  <flowRoot
     style="font-size:12px;font-style:normal;font-variant:normal;font-weight:bold;font-stretch:normal;text-align:start;line-height:125%;writing-mode:lr-tb;text-anchor:start;fill:#000000;fill-opacity:1;stroke:none;font-family:Sans;-inkscape-font-specification:Sans Bold"
     xml:space="preserve"
     id="flowRoot2833"
     transform="translate(-78.612892,-187.50676)"><flowRegion
       id="flowRegion2835"><rect
         style="font-size:12px;font-style:normal;font-variant:normal;font-weight:bold;font-stretch:normal;text-align:start;line-height:125%;writing-mode:lr-tb;text-anchor:start;font-family:Sans;-inkscape-font-specification:Sans Bold"
         id="rect2837"
         y="454.35187"
         x="185.86807"
         height="15.784271"
         width="73.970314" /></flowRegion><flowPara
       style="font-size:12px;font-style:normal;font-variant:normal;font-weight:bold;font-stretch:normal;text-align:start;line-height:125%;writing-mode:lr-tb;text-anchor:start;font-family:Sans;-inkscape-font-specification:Sans Bold"
       id="flowPara2839">BRACKET</flowPara></flowRoot>  <flowRoot
     style="font-size:12px;font-style:normal;font-variant:normal;font-weight:bold;font-stretch:normal;text-align:start;line-height:125%;writing-mode:lr-tb;text-anchor:start;fill:#000000;fill-opacity:1;stroke:none;font-family:Sans;-inkscape-font-specification:Sans Bold"
     xml:space="preserve"
     id="flowRoot2851"
     transform="translate(24.398761,-187.50676)"><flowRegion
       id="flowRegion2853"><rect
         style="font-size:12px;font-style:normal;font-variant:normal;font-weight:bold;font-stretch:normal;text-align:start;line-height:125%;writing-mode:lr-tb;text-anchor:start;font-family:Sans;-inkscape-font-specification:Sans Bold"
         id="rect2855"
         y="454.35187"
         x="185.86807"
         height="14.936958"
         width="82.231613" /></flowRegion><flowPara
       style="font-size:12px;font-style:normal;font-variant:normal;font-weight:bold;font-stretch:normal;text-align:start;line-height:125%;writing-mode:lr-tb;text-anchor:start;font-family:Sans;-inkscape-font-specification:Sans Bold"
       id="flowPara2857">IDENTIFIER</flowPara></flowRoot>  <flowRoot
     style="font-size:12px;font-style:normal;font-variant:normal;font-weight:bold;font-stretch:normal;text-align:start;line-height:125%;writing-mode:lr-tb;text-anchor:start;fill:#000000;fill-opacity:1;stroke:none;font-family:Sans;-inkscape-font-specification:Sans Bold"
     xml:space="preserve"
     id="flowRoot2871"
     transform="translate(127.41045,-187.50676)"><flowRegion
       id="flowRegion2873"><rect
         style="font-size:12px;font-style:normal;font-variant:normal;font-weight:bold;font-stretch:normal;text-align:start;line-height:125%;writing-mode:lr-tb;text-anchor:start;font-family:Sans;-inkscape-font-specification:Sans Bold"
         id="rect2875"
         y="454.35187"
         x="185.86807"
         height="14.712843"
         width="96.470314" /></flowRegion><flowPara
       style="font-size:12px;font-style:normal;font-variant:normal;font-weight:bold;font-stretch:normal;text-align:start;line-height:125%;writing-mode:lr-tb;text-anchor:start;font-family:Sans;-inkscape-font-specification:Sans Bold"
       id="flowPara2877">OPERATOR</flowPara></flowRoot>  <flowRoot
     style="font-size:12px;font-style:normal;font-variant:normal;font-weight:bold;font-stretch:normal;text-align:start;line-height:125%;writing-mode:lr-tb;text-anchor:start;fill:#000000;fill-opacity:1;stroke:none;font-family:Sans;-inkscape-font-specification:Sans Bold"
     xml:space="preserve"
     id="flowRoot2889"
     transform="translate(230.42214,-187.50677)"><flowRegion
       id="flowRegion2891"><rect
         style="font-size:12px;font-style:normal;font-variant:normal;font-weight:bold;font-stretch:normal;text-align:start;line-height:125%;writing-mode:lr-tb;text-anchor:start;font-family:Sans;-inkscape-font-specification:Sans Bold"
         id="rect2893"
         y="454.35187"
         x="185.86807"
         height="14.712843"
         width="96.470314" /></flowRegion><flowPara
       style="font-size:12px;font-style:normal;font-variant:normal;font-weight:bold;font-stretch:normal;text-align:start;line-height:125%;writing-mode:lr-tb;text-anchor:start;font-family:Sans;-inkscape-font-specification:Sans Bold"
       id="flowPara2895">NUMBER</flowPara></flowRoot></svg>
