<?xml version="1.0" encoding="UTF-8" standalone="no"?>
<!-- Created with Bouml (http://bouml.free.fr/) -->
<!DOCTYPE svg PUBLIC "-//W3C//DTD SVG 1.1//EN" "http://www.w3.org/Graphics/SVG/1.1/DTD/svg11.dtd">
<svg width="864" height="221" version="1.1" xmlns="http://www.w3.org/2000/svg">
<g>
	<line stroke="black" stroke-opacity="1" x1="671" y1="179" x2="677" y2="185" />
	<line stroke="black" stroke-opacity="1" x1="671" y1="179" x2="677" y2="173" />
	<line stroke="black" stroke-opacity="1" x1="729" y1="179" x2="671" y2="179" />
	<polygon fill="#ffffff" stroke="black" stroke-opacity="1" points="729,179 723,185 717,179 723,173" />
</g>
<g>
	<line stroke="black" stroke-opacity="1" x1="790" y1="152" x2="796" y2="146" />
	<line stroke="black" stroke-opacity="1" x1="790" y1="152" x2="784" y2="146" />
	<line stroke="black" stroke-opacity="1" x1="790" y1="77" x2="790" y2="152" />
	<polygon fill="#ffffff" stroke="black" stroke-opacity="1" points="790,77 796,83 790,89 784,83" />
</g>
<g>
	<line stroke="black" stroke-opacity="1" x1="490" y1="179" x2="496" y2="185" />
	<line stroke="black" stroke-opacity="1" x1="490" y1="179" x2="496" y2="173" />
	<line stroke="black" stroke-opacity="1" x1="548" y1="179" x2="490" y2="179" />
	<polygon fill="#ffffff" stroke="black" stroke-opacity="1" points="548,179 542,185 536,179 542,173" />
</g>
<g>
	<line stroke="black" stroke-opacity="1" x1="308" y1="181" x2="314" y2="187" />
	<line stroke="black" stroke-opacity="1" x1="308" y1="181" x2="314" y2="175" />
	<line stroke="black" stroke-opacity="1" x1="367" y1="181" x2="308" y2="181" />
	<polygon fill="#ffffff" stroke="black" stroke-opacity="1" points="367,181 361,187 355,181 361,175" />
</g>
<g>
	<line stroke-dasharray="4,4" stroke="black" stroke-opacity="1" x1="185" y1="182" x2="147" y2="182" />
</g>
<g>
	<rect fill="#808080" stroke="none" stroke-opacity="1" x="848" y="157" width="3" height="49" />
	<rect fill="#808080" stroke="none" stroke-opacity="1" x="734" y="203" width="117" height="3" />
	<rect fill="#ffffc0" stroke="black" stroke-width="1" stroke-opacity="1" x="730" y="153" width="118" height="50" />
	<text font-family="Helvetica" font-size="10" fill="#000000" xml:space="preserve" font-weight="bold" text-anchor="middle" x="789" y="165">AnalyzerMemento</text>
	<line stroke="black" stroke-opacity="1" x1="730" y1="174" x2="848" y2="174" />
	<text font-family="Helvetica" font-size="10" fill="#000000" xml:space="preserve" x="734" y="186">stream_id</text>
	<line stroke="black" stroke-opacity="1" x1="730" y1="195" x2="848" y2="195" />
</g>
<g>
	<rect fill="#808080" stroke="none" stroke-opacity="1" x="667" y="156" width="3" height="49" />
	<rect fill="#808080" stroke="none" stroke-opacity="1" x="553" y="202" width="117" height="3" />
	<rect fill="#ffffc0" stroke="black" stroke-width="1" stroke-opacity="1" x="549" y="152" width="118" height="50" />
	<text font-family="Helvetica" font-size="10" fill="#000000" xml:space="preserve" font-weight="bold" text-anchor="middle" x="608" y="164">AnalyzerMemento</text>
	<line stroke="black" stroke-opacity="1" x1="549" y1="173" x2="667" y2="173" />
	<text font-family="Helvetica" font-size="10" fill="#000000" xml:space="preserve" x="553" y="185">stream_id</text>
	<line stroke="black" stroke-opacity="1" x1="549" y1="194" x2="667" y2="194" />
</g>
<g>
	<rect fill="#808080" stroke="none" stroke-opacity="1" x="819" y="41" width="3" height="35" />
	<rect fill="#808080" stroke="none" stroke-opacity="1" x="761" y="73" width="61" height="3" />
	<rect fill="#ffffc0" stroke="black" stroke-width="1" stroke-opacity="1" x="757" y="37" width="62" height="36" />
	<text font-family="Helvetica" font-size="10" fill="#000000" xml:space="preserve" font-weight="bold" text-anchor="middle" x="788" y="49">Analyzer</text>
	<line stroke="black" stroke-opacity="1" x1="757" y1="58" x2="819" y2="58" />
	<line stroke="black" stroke-opacity="1" x1="757" y1="66" x2="819" y2="66" />
</g>
<g>
	<rect fill="#808080" stroke="none" stroke-opacity="1" x="486" y="158" width="3" height="49" />
	<rect fill="#808080" stroke="none" stroke-opacity="1" x="372" y="204" width="117" height="3" />
	<rect fill="#ffffc0" stroke="black" stroke-width="1" stroke-opacity="1" x="368" y="154" width="118" height="50" />
	<text font-family="Helvetica" font-size="10" fill="#000000" xml:space="preserve" font-weight="bold" text-anchor="middle" x="427" y="166">AnalyzerMemento</text>
	<line stroke="black" stroke-opacity="1" x1="368" y1="175" x2="486" y2="175" />
	<text font-family="Helvetica" font-size="10" fill="#000000" xml:space="preserve" x="372" y="187">stream_id</text>
	<line stroke="black" stroke-opacity="1" x1="368" y1="196" x2="486" y2="196" />
</g>
<g>
	<rect fill="#808080" stroke="none" stroke-opacity="1" x="304" y="159" width="3" height="49" />
	<rect fill="#808080" stroke="none" stroke-opacity="1" x="190" y="205" width="117" height="3" />
	<rect fill="#ffffc0" stroke="black" stroke-width="1" stroke-opacity="1" x="186" y="155" width="118" height="50" />
	<text font-family="Helvetica" font-size="10" fill="#000000" xml:space="preserve" font-weight="bold" text-anchor="middle" x="245" y="167">AnalyzerMemento</text>
	<line stroke="black" stroke-opacity="1" x1="186" y1="176" x2="304" y2="176" />
	<text font-family="Helvetica" font-size="10" fill="#000000" xml:space="preserve" x="190" y="188">stream_id</text>
	<line stroke="black" stroke-opacity="1" x1="186" y1="197" x2="304" y2="197" />
</g>
<g>
	<polygon fill="#c0ffff" stroke="black" stroke-opacity="1" points="47,166 137,166 137,176 147,176 147,201 47,201 47,166" />
	<line stroke="black" stroke-opacity="1" x1="137" y1="166" x2="147" y2="176" />
	<text font-family="Helvetica" font-size="10" fill="#000000" xml:space="preserve" x="57" y="193">parent = 0x0</text>
</g>
<g>
	<text font-family="Helvetica" font-size="10" fill="#000000" xml:space="preserve" font-style="italic" x="319" y="174">parent</text>
</g>
<g>
	<text font-family="Helvetica" font-size="10" fill="#000000" xml:space="preserve" font-style="italic" x="501" y="172">parent</text>
</g>
<g>
	<text font-family="Helvetica" font-size="10" fill="#000000" xml:space="preserve" font-style="italic" x="681" y="172">parent</text>
</g>
<g>
	<text font-family="Helvetica" font-size="10" fill="#000000" xml:space="preserve" font-style="italic" x="679" y="110">_memento_parent</text>
</g>
</svg>
