<?xml version="1.0" encoding="UTF-8" standalone="no"?>
<!-- Created with Bouml (http://bouml.free.fr/) -->
<!DOCTYPE svg PUBLIC "-//W3C//DTD SVG 1.1//EN" "http://www.w3.org/Graphics/SVG/1.1/DTD/svg11.dtd">
<svg width="747" height="470" version="1.1" xmlns="http://www.w3.org/2000/svg">
<g>
	<line stroke="black" stroke-opacity="1" x1="182" y1="221" x2="306" y2="125" />
	<line stroke="black" stroke-opacity="1" x1="311" y1="122" x2="302" y2="120" />
	<line stroke="black" stroke-opacity="1" x1="311" y1="122" x2="309" y2="130" />
	<line stroke="black" stroke-opacity="1" x1="302" y1="120" x2="309" y2="130" />
</g>
<g>
	<line stroke="black" stroke-opacity="1" x1="362" y1="223" x2="362" y2="128" />
	<line stroke="black" stroke-opacity="1" x1="362" y1="122" x2="356" y2="128" />
	<line stroke="black" stroke-opacity="1" x1="362" y1="122" x2="368" y2="128" />
	<line stroke="black" stroke-opacity="1" x1="356" y1="128" x2="368" y2="128" />
</g>
<g>
	<line stroke="black" stroke-opacity="1" x1="500" y1="217" x2="404" y2="126" />
	<line stroke="black" stroke-opacity="1" x1="400" y1="122" x2="400" y2="130" />
	<line stroke="black" stroke-opacity="1" x1="400" y1="122" x2="408" y2="121" />
	<line stroke="black" stroke-opacity="1" x1="400" y1="130" x2="408" y2="121" />
</g>
<g>
	<rect fill="#808080" stroke="none" stroke-opacity="1" x="431" y="54" width="3" height="67" />
	<rect fill="#808080" stroke="none" stroke-opacity="1" x="293" y="118" width="141" height="3" />
	<rect fill="#ffffc0" stroke="black" stroke-width="1" stroke-opacity="1" x="289" y="50" width="142" height="68" />
	<text font-family="Helvetica" font-size="10" fill="#000000" xml:space="preserve" font-weight="bold" text-anchor="middle" x="360" y="62">A_indecent</text>
	<line stroke="black" stroke-opacity="1" x1="289" y1="71" x2="431" y2="71" />
	<text font-family="Helvetica" font-size="10" fill="#000000" xml:space="preserve" x="293" y="83">harmful_patterns_for_B</text>
	<text font-family="Helvetica" font-size="10" fill="#000000" xml:space="preserve" x="293" y="102">other_patterns_of_A</text>
	<line stroke="black" stroke-opacity="1" x1="289" y1="111" x2="431" y2="111" />
</g>
<g>
	<rect fill="#808080" stroke="none" stroke-opacity="1" x="263" y="226" width="3" height="67" />
	<rect fill="#808080" stroke="none" stroke-opacity="1" x="11" y="290" width="255" height="3" />
	<rect fill="#ffffc0" stroke="black" stroke-width="1" stroke-opacity="1" x="7" y="222" width="256" height="68" />
	<text font-family="Helvetica" font-size="10" fill="#000000" xml:space="preserve" font-weight="bold" text-anchor="middle" x="135" y="234">B_indecent</text>
	<line stroke="black" stroke-opacity="1" x1="7" y1="243" x2="263" y2="243" />
	<text font-family="Helvetica" font-size="10" fill="#000000" xml:space="preserve" x="11" y="255">harmful_patterns_for_B_PRIORITY_MARK</text>
	<text font-family="Helvetica" font-size="10" fill="#000000" xml:space="preserve" x="11" y="274">other_patterns_of_B</text>
	<line stroke="black" stroke-opacity="1" x1="7" y1="283" x2="263" y2="283" />
</g>
<g>
	<rect fill="#808080" stroke="none" stroke-opacity="1" x="573" y="222" width="3" height="49" />
	<rect fill="#808080" stroke="none" stroke-opacity="1" x="489" y="268" width="87" height="3" />
	<rect fill="#ffffc0" stroke="black" stroke-width="1" stroke-opacity="1" x="485" y="218" width="88" height="50" />
	<text font-family="Helvetica" font-size="10" fill="#000000" xml:space="preserve" font-weight="bold" text-anchor="middle" x="529" y="230">D</text>
	<line stroke="black" stroke-opacity="1" x1="485" y1="239" x2="573" y2="239" />
	<text font-family="Helvetica" font-size="10" fill="#000000" xml:space="preserve" x="489" y="251">patterns_of_D</text>
	<line stroke="black" stroke-opacity="1" x1="485" y1="260" x2="573" y2="260" />
</g>
<g>
	<rect fill="#808080" stroke="none" stroke-opacity="1" x="404" y="228" width="3" height="49" />
	<rect fill="#808080" stroke="none" stroke-opacity="1" x="320" y="274" width="87" height="3" />
	<rect fill="#ffffc0" stroke="black" stroke-width="1" stroke-opacity="1" x="316" y="224" width="88" height="50" />
	<text font-family="Helvetica" font-size="10" fill="#000000" xml:space="preserve" font-weight="bold" text-anchor="middle" x="360" y="236">C</text>
	<line stroke="black" stroke-opacity="1" x1="316" y1="245" x2="404" y2="245" />
	<text font-family="Helvetica" font-size="10" fill="#000000" xml:space="preserve" x="320" y="257">patterns_of_C</text>
	<line stroke="black" stroke-opacity="1" x1="316" y1="266" x2="404" y2="266" />
</g>
</svg>
