<?xml version="1.0" encoding="UTF-8" standalone="no"?>
<!-- Generated by Graphviz version 2.18 (Thu Oct 16 15:23:39 UTC 2008)
 -->
<!-- Title: state_machine_59 Pages: 1 -->
<svg
   xmlns:dc="http://purl.org/dc/elements/1.1/"
   xmlns:cc="http://creativecommons.org/ns#"
   xmlns:rdf="http://www.w3.org/1999/02/22-rdf-syntax-ns#"
   xmlns:svg="http://www.w3.org/2000/svg"
   xmlns="http://www.w3.org/2000/svg"
   xmlns:sodipodi="http://sodipodi.sourceforge.net/DTD/sodipodi-0.dtd"
   xmlns:inkscape="http://www.inkscape.org/namespaces/inkscape"
   width="535pt"
   height="360pt"
   viewBox="0.00 0.00 535.20 360.00"
   id="svg2584"
   sodipodi:version="0.32"
   inkscape:version="0.46"
   sodipodi:docname="path-compression-before.svg"
   inkscape:output_extension="org.inkscape.output.svg.inkscape"
   inkscape:export-filename="/home/fschaef/prj/quex/trunk/doc/source/figures/path-compression-before.png"
   inkscape:export-xdpi="300"
   inkscape:export-ydpi="300">
  <metadata
     id="metadata2791">
    <rdf:RDF>
      <cc:Work
         rdf:about="">
        <dc:format>image/svg+xml</dc:format>
        <dc:type
           rdf:resource="http://purl.org/dc/dcmitype/StillImage" />
      </cc:Work>
    </rdf:RDF>
  </metadata>
  <defs
     id="defs2789">
    <marker
       inkscape:stockid="Arrow2Lend"
       orient="auto"
       refY="0.0"
       refX="0.0"
       id="Arrow2Lend"
       style="overflow:visible;">
      <path
         id="path3707"
         style="font-size:12.0;fill-rule:evenodd;stroke-width:0.62500000;stroke-linejoin:round;"
         d="M 8.7185878,4.0337352 L -2.2072895,0.016013256 L 8.7185884,-4.0017078 C 6.9730900,-1.6296469 6.9831476,1.6157441 8.7185878,4.0337352 z "
         transform="scale(1.1) rotate(180) translate(1,0)" />
    </marker>
    <marker
       inkscape:stockid="Arrow1Lend"
       orient="auto"
       refY="0.0"
       refX="0.0"
       id="Arrow1Lend"
       style="overflow:visible;">
      <path
         id="path3689"
         d="M 0.0,0.0 L 5.0,-5.0 L -12.5,0.0 L 5.0,5.0 L 0.0,0.0 z "
         style="fill-rule:evenodd;stroke:#000000;stroke-width:1.0pt;marker-start:none;"
         transform="scale(0.8) rotate(180) translate(12.5,0)" />
    </marker>
    <inkscape:perspective
       sodipodi:type="inkscape:persp3d"
       inkscape:vp_x="0 : 225 : 1"
       inkscape:vp_y="0 : 1000 : 0"
       inkscape:vp_z="668.75 : 225 : 1"
       inkscape:persp3d-origin="334.375 : 150 : 1"
       id="perspective2793" />
    <title
       id="title2587">state_machine_59</title>
    <title
       id="title2771">8-&gt;9</title>
    <title
       id="title2655">9-&gt;9</title>
    <title
       id="title2762">1-&gt;2</title>
    <title
       id="title2746">4-&gt;5</title>
    <title
       id="title2737">0-&gt;8</title>
    <title
       id="title2721">0-&gt;1</title>
    <title
       id="title2705">0-&gt;4</title>
    <title
       id="title2689">0-&gt;7</title>
    <title
       id="title2680">0-&gt;6</title>
    <title
       id="title2671">0-&gt;3</title>
    <title
       id="title2610">5-&gt;5</title>
    <title
       id="title2780">2-&gt;3</title>
    <title
       id="title2637">7-&gt;7</title>
    <title
       id="title2664">0</title>
    <title
       id="title2592">3</title>
    <title
       id="title2601">5</title>
    <title
       id="title2619">6</title>
    <title
       id="title2628">7</title>
    <title
       id="title2646">9</title>
    <title
       id="title2730">8</title>
    <title
       id="title2698">4</title>
    <title
       id="title2755">2</title>
    <title
       id="title2714">1</title>
  </defs>
  <sodipodi:namedview
     inkscape:window-height="724"
     inkscape:window-width="1024"
     inkscape:pageshadow="2"
     inkscape:pageopacity="0.0"
     guidetolerance="10.0"
     gridtolerance="10.0"
     objecttolerance="10.0"
     borderopacity="1"
     bordercolor="#ed1b1b"
     pagecolor="#ffffff"
     id="base"
     showgrid="true"
     inkscape:zoom="1.686729"
     inkscape:cx="332.25554"
     inkscape:cy="297.27038"
     inkscape:window-x="0"
     inkscape:window-y="19"
     inkscape:current-layer="svg2584"
     inkscape:showpageshadow="false">
    <inkscape:grid
       type="xygrid"
       id="grid5044"
       visible="true"
       enabled="true"
       units="mm"
       spacingx="1mm"
       spacingy="1mm" />
  </sodipodi:namedview>
  <path
     sodipodi:nodetypes="cc"
     id="path2615"
     d="M 155.96378,62.318229 C 184.32085,104.85381 184.32085,133.21086 425.3558,133.21086"
     style="fill:none;fill-rule:evenodd;stroke:#000000;stroke-width:1px;stroke-linecap:butt;stroke-linejoin:miter;marker-end:none;stroke-opacity:1" />
  <path
     style="fill:none;fill-rule:evenodd;stroke:#000000;stroke-width:1px;stroke-linecap:butt;stroke-linejoin:miter;marker-end:none;stroke-opacity:1"
     d="M 56.714092,62.318226 C 92.58196,147.38939 327.23677,182.15176 426.48646,139.61618"
     id="path7978"
     sodipodi:nodetypes="cc" />
  <path
     style="fill:none;fill-rule:evenodd;stroke:#000000;stroke-width:1px;stroke-linecap:butt;stroke-linejoin:miter;marker-end:none;stroke-opacity:1"
     d="M 255.21348,62.318228 C 297.74906,104.85381 355.83106,98.211257 426.72369,126.56831"
     id="path8044"
     sodipodi:nodetypes="cc" />
  <path
     sodipodi:nodetypes="cc"
     id="path7924"
     d="M 345.95605,50.975407 L 431.02721,121.86804"
     style="fill:none;fill-rule:evenodd;stroke:#000000;stroke-width:1px;stroke-linecap:butt;stroke-linejoin:miter;marker-end:none;stroke-opacity:1" />
  <path
     transform="translate(269.39201,-39.699869)"
     style="fill:#ffffff;fill-opacity:1;fill-rule:evenodd;stroke:#000000;stroke-width:1;stroke-linejoin:round;stroke-miterlimit:4;stroke-dashoffset:0;stroke-opacity:1"
     d="M 184.32085,102.0181 C 184.32085,109.84464 177.96887,116.19662 170.14232,116.19662 C 162.31577,116.19662 155.96379,109.84464 155.96379,102.0181 C 155.96379,94.19155 162.31577,87.83957 170.14232,87.83957 C 177.96887,87.83957 184.32085,94.19155 184.32085,102.0181 z"
     id="path2547" />
  <path
     transform="matrix(0.8146368,0,0,0.8146368,300.93013,-20.789468)"
     style="fill:#ffffff;fill-opacity:1;fill-rule:evenodd;stroke:#000000;stroke-width:1;stroke-linejoin:round;stroke-miterlimit:4;stroke-dashoffset:0;stroke-opacity:1"
     d="M 184.32085,102.0181 C 184.32085,109.84464 177.96887,116.19662 170.14232,116.19662 C 162.31577,116.19662 155.96379,109.84464 155.96379,102.0181 C 155.96379,94.19155 162.31577,87.83957 170.14232,87.83957 C 177.96887,87.83957 184.32085,94.19155 184.32085,102.0181 z"
     id="path2549" />
  <path
     sodipodi:nodetypes="cc"
     id="path2569"
     d="M 354.46317,62.318228 L 425.3558,62.318226"
     style="fill:none;fill-rule:evenodd;stroke:#000000;stroke-width:1.00037384;stroke-linecap:butt;stroke-linejoin:miter;marker-end:url(#Arrow2Lend);stroke-miterlimit:4;stroke-dasharray:none;stroke-opacity:1" />
  <path
     style="fill:none;fill-rule:evenodd;stroke:#000000;stroke-width:1.00037384;stroke-linecap:butt;stroke-linejoin:miter;marker-end:url(#Arrow2Lend);stroke-miterlimit:4;stroke-dasharray:none;stroke-opacity:1"
     d="M 269.39201,62.318228 L 340.28464,62.318226"
     id="path2573"
     sodipodi:nodetypes="cc" />
  <path
     style="fill:none;fill-rule:evenodd;stroke:#000000;stroke-width:1.00037384;stroke-linecap:butt;stroke-linejoin:miter;marker-end:url(#Arrow2Lend);stroke-miterlimit:4;stroke-dasharray:none;stroke-opacity:1"
     d="M 170.14232,62.31823 L 241.03495,62.318228"
     id="path2575"
     sodipodi:nodetypes="cc" />
  <path
     style="fill:none;fill-rule:evenodd;stroke:#000000;stroke-width:1.00037384;stroke-linecap:butt;stroke-linejoin:miter;marker-end:url(#Arrow2Lend);stroke-miterlimit:4;stroke-dasharray:none;stroke-opacity:1"
     d="M 70.892632,62.318227 L 141.78526,62.318225"
     id="path2595"
     sodipodi:nodetypes="cc" />
  <path
     transform="translate(-14.178524,-39.699866)"
     style="fill:#ffffff;fill-opacity:1;fill-rule:evenodd;stroke:#000000;stroke-width:1;stroke-linejoin:round;stroke-miterlimit:4;stroke-dashoffset:0;stroke-opacity:1"
     d="M 184.32085,102.0181 C 184.32085,109.84464 177.96887,116.19662 170.14232,116.19662 C 162.31577,116.19662 155.96379,109.84464 155.96379,102.0181 C 155.96379,94.19155 162.31577,87.83957 170.14232,87.83957 C 177.96887,87.83957 184.32085,94.19155 184.32085,102.0181 z"
     id="path2577" />
  <path
     transform="translate(-113.42821,-39.699869)"
     style="fill:#ffffff;fill-opacity:1;fill-rule:evenodd;stroke:#000000;stroke-width:1;stroke-linejoin:round;stroke-miterlimit:4;stroke-dashoffset:0;stroke-opacity:1"
     d="M 184.32085,102.0181 C 184.32085,109.84464 177.96887,116.19662 170.14232,116.19662 C 162.31577,116.19662 155.96379,109.84464 155.96379,102.0181 C 155.96379,94.19155 162.31577,87.83957 170.14232,87.83957 C 177.96887,87.83957 184.32085,94.19155 184.32085,102.0181 z"
     id="path2597" />
  <path
     transform="translate(85.071164,-39.699867)"
     style="fill:#ffffff;fill-opacity:1;fill-rule:evenodd;stroke:#000000;stroke-width:1;stroke-linejoin:round;stroke-miterlimit:4;stroke-dashoffset:0;stroke-opacity:1"
     d="M 184.32085,102.0181 C 184.32085,109.84464 177.96887,116.19662 170.14232,116.19662 C 162.31577,116.19662 155.96379,109.84464 155.96379,102.0181 C 155.96379,94.19155 162.31577,87.83957 170.14232,87.83957 C 177.96887,87.83957 184.32085,94.19155 184.32085,102.0181 z"
     id="path8050" />
  <path
     transform="translate(184.32086,-39.699867)"
     style="fill:#ffffff;fill-opacity:1;fill-rule:evenodd;stroke:#000000;stroke-width:1;stroke-linejoin:round;stroke-miterlimit:4;stroke-dashoffset:0;stroke-opacity:1"
     d="M 184.32085,102.0181 C 184.32085,109.84464 177.96887,116.19662 170.14232,116.19662 C 162.31577,116.19662 155.96379,109.84464 155.96379,102.0181 C 155.96379,94.19155 162.31577,87.83957 170.14232,87.83957 C 177.96887,87.83957 184.32085,94.19155 184.32085,102.0181 z"
     id="path7706" />
  <path
     transform="translate(179.4437,-33.629928)"
     style="font-size:9.60358906px;font-style:normal;font-variant:normal;font-weight:normal;font-stretch:normal;text-align:start;line-height:125%;writing-mode:lr-tb;text-anchor:start;fill:#000000;fill-opacity:1;stroke:none;stroke-width:1px;stroke-linecap:butt;stroke-linejoin:miter;stroke-opacity:1;font-family:Sans;-inkscape-font-specification:Sans"
     inkscape:transform-center-x="-3.1516291"
     inkscape:transform-center-y="-12.106184"
     d="M 214.83063,120.67638 L 212.96431,120.67638 L 212.96431,111.79025 L 214.83063,111.79025 L 214.83063,112.4655 L 213.78024,112.4655 L 213.78024,120.00113 L 214.83063,120.00113 L 214.83063,120.67638 M 219.87157,118.76317 L 218.99,118.76317 C 218.93997,118.68501 218.89621,118.57403 218.8587,118.43023 C 218.8243,118.28643 218.80711,118.16763 218.80711,118.07385 C 218.22877,118.6178 217.5926,118.88978 216.89859,118.88978 C 216.43904,118.88978 216.06546,118.77098 215.77786,118.53339 C 215.49338,118.29268 215.35114,117.95974 215.35114,117.53458 C 215.35114,117.19696 215.43554,116.91248 215.60436,116.68114 C 215.77629,116.44668 216.03264,116.2638 216.37339,116.1325 C 216.71727,116.0012 217.15337,115.91836 217.68169,115.88396 L 218.78836,115.81363 L 218.78836,115.65888 C 218.78835,115.20246 218.69769,114.88516 218.51638,114.70696 C 218.33506,114.52877 218.01619,114.43968 217.55977,114.43967 C 217.34094,114.43968 217.06896,114.48813 216.74384,114.58504 C 216.42185,114.67883 216.14987,114.78825 215.92791,114.91329 L 215.68876,114.28962 C 215.95136,114.13332 216.27179,114.00671 216.65006,113.90979 C 217.03145,113.80976 217.38002,113.75974 217.69576,113.75973 C 218.346,113.75974 218.82587,113.90667 219.13536,114.20052 C 219.44797,114.49439 219.60428,114.94299 219.60429,115.54634 L 219.60429,117.60023 C 219.60428,118.1098 219.69338,118.49744 219.87157,118.76317 M 218.78836,117.36108 L 218.78836,116.42792 C 218.08809,116.46856 217.62855,116.50139 217.40972,116.52639 C 217.19401,116.54828 216.98299,116.5983 216.77667,116.67645 C 216.57034,116.7546 216.41403,116.86089 216.30774,116.99532 C 216.20145,117.12974 216.14831,117.29699 216.14831,117.49707 C 216.14831,117.7034 216.22802,117.87065 216.38746,117.99882 C 216.54689,118.12386 216.75166,118.18639 217.00175,118.18639 C 217.32062,118.18639 217.6473,118.11136 217.98181,117.9613 C 218.3163,117.80812 218.58515,117.60805 218.78836,117.36108 M 223.21032,116.69989 L 220.63123,116.69989 L 220.63123,115.90272 L 223.21032,115.90272 L 223.21032,116.69989 M 225.00631,119.19458 C 225.00631,119.7354 224.90783,120.13243 224.71088,120.38565 C 224.51706,120.64199 224.20288,120.77016 223.76834,120.77017 C 223.53701,120.77016 223.28379,120.71546 223.00868,120.60604 L 223.16343,119.97299 C 223.36976,120.03864 223.54326,120.07147 223.68394,120.07147 C 223.88089,120.07147 224.01375,120.00113 224.08252,119.86045 C 224.15443,119.7229 224.19038,119.50407 224.19038,119.20396 L 224.19038,113.87696 L 225.00631,113.87696 L 225.00631,119.19458 M 224.59365,111.79025 C 224.7312,111.79025 224.84843,111.84027 224.94535,111.9403 C 225.04538,112.03722 225.0954,112.15445 225.0954,112.292 C 225.0954,112.4233 225.04538,112.53741 224.94535,112.63431 C 224.84843,112.73123 224.7312,112.77969 224.59365,112.77968 C 224.46235,112.77969 224.34825,112.73123 224.25134,112.63431 C 224.15443,112.53741 224.10597,112.4233 224.10597,112.292 C 224.10597,112.15133 224.15286,112.03253 224.24665,111.93561 C 224.34356,111.83871 224.45923,111.79025 224.59365,111.79025 M 227.68387,120.67638 L 225.82224,120.67638 L 225.82224,120.00113 L 226.86794,120.00113 L 226.86794,112.55928 L 225.82224,112.55928 L 225.82224,111.88872 L 227.68387,111.88872 L 227.68387,120.67638 M 230.84911,120.67638 L 228.98279,120.67638 L 228.98279,111.79025 L 230.84911,111.79025 L 230.84911,112.4655 L 229.79872,112.4655 L 229.79872,120.00113 L 230.84911,120.00113 L 230.84911,120.67638 M 232.4716,118.76317 L 231.65567,118.76317 L 231.65567,111.79025 L 232.4716,111.79025 L 232.4716,118.76317 M 236.02136,116.69989 L 233.44227,116.69989 L 233.44227,115.90272 L 236.02136,115.90272 L 236.02136,116.69989 M 240.95914,118.76317 L 236.63565,118.76317 L 236.63565,118.20514 L 239.63208,114.59442 L 236.70599,114.59442 L 236.70599,113.87696 L 240.71999,113.87696 L 240.71999,114.39278 L 237.72356,118.04102 L 240.95914,118.04102 L 240.95914,118.76317 M 243.1584,120.67638 L 241.29677,120.67638 L 241.29677,120.00113 L 242.34247,120.00113 L 242.34247,112.55928 L 241.29677,112.55928 L 241.29677,111.88872 L 243.1584,111.88872 L 243.1584,120.67638"
     id="flowRoot2617" />
  <path
     transform="translate(83.057821,-33.629928)"
     style="font-size:9.60358906px;font-style:normal;font-variant:normal;font-weight:normal;font-stretch:normal;text-align:start;line-height:125%;writing-mode:lr-tb;text-anchor:start;fill:#000000;fill-opacity:1;stroke:none;stroke-width:1px;stroke-linecap:butt;stroke-linejoin:miter;stroke-opacity:1;font-family:Sans;-inkscape-font-specification:Sans"
     inkscape:transform-center-x="-3.1516291"
     inkscape:transform-center-y="-12.106184"
     d="M 214.83063,120.67638 L 212.96431,120.67638 L 212.96431,111.79025 L 214.83063,111.79025 L 214.83063,112.4655 L 213.78024,112.4655 L 213.78024,120.00113 L 214.83063,120.00113 L 214.83063,120.67638 M 219.87157,118.76317 L 218.99,118.76317 C 218.93997,118.68501 218.89621,118.57403 218.8587,118.43023 C 218.8243,118.28643 218.80711,118.16763 218.80711,118.07385 C 218.22877,118.6178 217.5926,118.88978 216.89859,118.88978 C 216.43904,118.88978 216.06546,118.77098 215.77786,118.53339 C 215.49338,118.29268 215.35114,117.95974 215.35114,117.53458 C 215.35114,117.19696 215.43554,116.91248 215.60436,116.68114 C 215.77629,116.44668 216.03264,116.2638 216.37339,116.1325 C 216.71727,116.0012 217.15337,115.91836 217.68169,115.88396 L 218.78836,115.81363 L 218.78836,115.65888 C 218.78835,115.20246 218.69769,114.88516 218.51638,114.70696 C 218.33506,114.52877 218.01619,114.43968 217.55977,114.43967 C 217.34094,114.43968 217.06896,114.48813 216.74384,114.58504 C 216.42185,114.67883 216.14987,114.78825 215.92791,114.91329 L 215.68876,114.28962 C 215.95136,114.13332 216.27179,114.00671 216.65006,113.90979 C 217.03145,113.80976 217.38002,113.75974 217.69576,113.75973 C 218.346,113.75974 218.82587,113.90667 219.13536,114.20052 C 219.44797,114.49439 219.60428,114.94299 219.60429,115.54634 L 219.60429,117.60023 C 219.60428,118.1098 219.69338,118.49744 219.87157,118.76317 M 218.78836,117.36108 L 218.78836,116.42792 C 218.08809,116.46856 217.62855,116.50139 217.40972,116.52639 C 217.19401,116.54828 216.98299,116.5983 216.77667,116.67645 C 216.57034,116.7546 216.41403,116.86089 216.30774,116.99532 C 216.20145,117.12974 216.14831,117.29699 216.14831,117.49707 C 216.14831,117.7034 216.22802,117.87065 216.38746,117.99882 C 216.54689,118.12386 216.75166,118.18639 217.00175,118.18639 C 217.32062,118.18639 217.6473,118.11136 217.98181,117.9613 C 218.3163,117.80812 218.58515,117.60805 218.78836,117.36108 M 223.21032,116.69989 L 220.63123,116.69989 L 220.63123,115.90272 L 223.21032,115.90272 L 223.21032,116.69989 M 228.29347,118.76317 L 227.33218,118.76317 L 225.57371,116.34351 L 224.99693,116.89215 L 224.99693,118.76317 L 224.181,118.76317 L 224.181,111.79025 L 224.99693,111.79025 L 224.99693,116.0434 L 227.07427,113.87696 L 228.01212,113.87696 L 226.10359,115.823 L 228.29347,118.76317 M 230.34736,120.67638 L 228.48573,120.67638 L 228.48573,120.00113 L 229.53143,120.00113 L 229.53143,112.55928 L 228.48573,112.55928 L 228.48573,111.88872 L 230.34736,111.88872 L 230.34736,120.67638 M 233.51261,120.67638 L 231.64629,120.67638 L 231.64629,111.79025 L 233.51261,111.79025 L 233.51261,112.4655 L 232.46222,112.4655 L 232.46222,120.00113 L 233.51261,120.00113 L 233.51261,120.67638 M 241.02479,118.76317 L 240.20886,118.76317 L 240.20886,115.6495 C 240.20886,115.25873 240.1307,114.96487 239.9744,114.76792 C 239.82121,114.57098 239.59144,114.4725 239.28508,114.4725 C 239.09125,114.4725 238.88336,114.53346 238.66141,114.65538 C 238.44257,114.77731 238.24406,114.94612 238.06588,115.16182 C 238.07212,115.21497 238.07525,115.30719 238.07525,115.43849 L 238.07525,118.76317 L 237.25932,118.76317 L 237.25932,115.6495 C 237.25932,115.25873 237.18586,114.96487 237.03893,114.76792 C 236.89512,114.57098 236.67785,114.4725 236.38712,114.4725 C 235.95258,114.4725 235.53211,114.73823 235.12571,115.26967 L 235.12571,118.76317 L 234.30978,118.76317 L 234.30978,113.87696 L 235.12571,113.87696 L 235.12571,114.56628 C 235.554,114.02859 236.04793,113.75974 236.60752,113.75973 C 237.26714,113.75974 237.71105,114.03171 237.93927,114.57566 C 238.3863,114.03171 238.90837,113.75974 239.50548,113.75973 C 239.99315,113.75974 240.36829,113.90354 240.6309,114.19114 C 240.89349,114.47876 241.02479,114.89454 241.02479,115.43849 L 241.02479,118.76317 M 244.5558,116.69989 L 241.97671,116.69989 L 241.97671,115.90272 L 244.5558,115.90272 L 244.5558,116.69989 M 249.49358,118.76317 L 245.17009,118.76317 L 245.17009,118.20514 L 248.16652,114.59442 L 245.24043,114.59442 L 245.24043,113.87696 L 249.25443,113.87696 L 249.25443,114.39278 L 246.258,118.04102 L 249.49358,118.04102 L 249.49358,118.76317 M 251.69284,120.67638 L 249.83121,120.67638 L 249.83121,120.00113 L 250.87691,120.00113 L 250.87691,112.55928 L 249.83121,112.55928 L 249.83121,111.88872 L 251.69284,111.88872 L 251.69284,120.67638"
     id="flowRoot2625" />
  <path
     transform="translate(-37.809178,-33.629928)"
     style="font-size:9.60358906px;font-style:normal;font-variant:normal;font-weight:normal;font-stretch:normal;text-align:start;line-height:125%;writing-mode:lr-tb;text-anchor:start;fill:#000000;fill-opacity:1;stroke:none;stroke-width:1px;stroke-linecap:butt;stroke-linejoin:miter;stroke-opacity:1;font-family:Sans;-inkscape-font-specification:Sans"
     inkscape:transform-center-x="-3.1516291"
     inkscape:transform-center-y="-12.106184"
     d="M 214.83063,120.67638 L 212.96431,120.67638 L 212.96431,111.79025 L 214.83063,111.79025 L 214.83063,112.4655 L 213.78024,112.4655 L 213.78024,120.00113 L 214.83063,120.00113 L 214.83063,120.67638 M 216.44373,114.4725 C 216.84388,113.99733 217.34094,113.75974 217.93491,113.75973 C 218.50387,113.75974 218.97905,113.98795 219.36045,114.44436 C 219.74183,114.89766 219.93253,115.49163 219.93254,116.22628 C 219.93253,117.04221 219.74027,117.69089 219.35576,118.17232 C 218.97436,118.65062 218.49137,118.88978 217.90678,118.88978 C 217.30968,118.88978 216.822,118.65844 216.44373,118.19577 L 216.44373,118.76317 L 215.6278,118.76317 L 215.6278,111.79025 L 216.44373,111.79025 L 216.44373,114.4725 M 216.44373,115.2556 L 216.44373,117.34232 C 216.56878,117.57053 216.74853,117.76592 216.983,117.92848 C 217.22058,118.08791 217.46442,118.16763 217.71452,118.16763 C 218.1428,118.16763 218.47886,118.00351 218.72271,117.67526 C 218.96655,117.34701 219.08847,116.88747 219.08847,116.29662 C 219.08847,115.71515 218.96811,115.26655 218.7274,114.9508 C 218.48668,114.63194 218.14905,114.4725 217.71452,114.4725 C 217.49568,114.4725 217.2706,114.54597 217.03927,114.69289 C 216.81105,114.8367 216.61254,115.02427 216.44373,115.2556 M 223.21032,116.69989 L 220.63123,116.69989 L 220.63123,115.90272 L 223.21032,115.90272 L 223.21032,116.69989 M 228.14811,118.76317 L 223.82461,118.76317 L 223.82461,118.20514 L 226.82105,114.59442 L 223.89495,114.59442 L 223.89495,113.87696 L 227.90895,113.87696 L 227.90895,114.39278 L 224.91252,118.04102 L 228.14811,118.04102 L 228.14811,118.76317 M 230.34736,120.67638 L 228.48573,120.67638 L 228.48573,120.00113 L 229.53143,120.00113 L 229.53143,112.55928 L 228.48573,112.55928 L 228.48573,111.88872 L 230.34736,111.88872 L 230.34736,120.67638"
     id="flowRoot2633" />
  <path
     transform="translate(-135.85502,-33.629928)"
     style="font-size:9.60358906px;font-style:normal;font-variant:normal;font-weight:normal;font-stretch:normal;text-align:start;line-height:125%;writing-mode:lr-tb;text-anchor:start;fill:#000000;fill-opacity:1;stroke:none;stroke-width:1px;stroke-linecap:butt;stroke-linejoin:miter;stroke-opacity:1;font-family:Sans;-inkscape-font-specification:Sans"
     inkscape:transform-center-x="-3.1516291"
     inkscape:transform-center-y="-12.106184"
     d="M 214.83063,120.67638 L 212.96431,120.67638 L 212.96431,111.79025 L 214.83063,111.79025 L 214.83063,112.4655 L 213.78024,112.4655 L 213.78024,120.00113 L 214.83063,120.00113 L 214.83063,120.67638 M 219.87157,118.76317 L 218.99,118.76317 C 218.93997,118.68501 218.89621,118.57403 218.8587,118.43023 C 218.8243,118.28643 218.80711,118.16763 218.80711,118.07385 C 218.22877,118.6178 217.5926,118.88978 216.89859,118.88978 C 216.43904,118.88978 216.06546,118.77098 215.77786,118.53339 C 215.49338,118.29268 215.35114,117.95974 215.35114,117.53458 C 215.35114,117.19696 215.43554,116.91248 215.60436,116.68114 C 215.77629,116.44668 216.03264,116.2638 216.37339,116.1325 C 216.71727,116.0012 217.15337,115.91836 217.68169,115.88396 L 218.78836,115.81363 L 218.78836,115.65888 C 218.78835,115.20246 218.69769,114.88516 218.51638,114.70696 C 218.33506,114.52877 218.01619,114.43968 217.55977,114.43967 C 217.34094,114.43968 217.06896,114.48813 216.74384,114.58504 C 216.42185,114.67883 216.14987,114.78825 215.92791,114.91329 L 215.68876,114.28962 C 215.95136,114.13332 216.27179,114.00671 216.65006,113.90979 C 217.03145,113.80976 217.38002,113.75974 217.69576,113.75973 C 218.346,113.75974 218.82587,113.90667 219.13536,114.20052 C 219.44797,114.49439 219.60428,114.94299 219.60429,115.54634 L 219.60429,117.60023 C 219.60428,118.1098 219.69338,118.49744 219.87157,118.76317 M 218.78836,117.36108 L 218.78836,116.42792 C 218.08809,116.46856 217.62855,116.50139 217.40972,116.52639 C 217.19401,116.54828 216.98299,116.5983 216.77667,116.67645 C 216.57034,116.7546 216.41403,116.86089 216.30774,116.99532 C 216.20145,117.12974 216.14831,117.29699 216.14831,117.49707 C 216.14831,117.7034 216.22802,117.87065 216.38746,117.99882 C 216.54689,118.12386 216.75166,118.18639 217.00175,118.18639 C 217.32062,118.18639 217.6473,118.11136 217.98181,117.9613 C 218.3163,117.80812 218.58515,117.60805 218.78836,117.36108 M 223.21032,116.69989 L 220.63123,116.69989 L 220.63123,115.90272 L 223.21032,115.90272 L 223.21032,116.69989 M 227.44003,114.89453 C 226.94296,114.59755 226.45841,114.44906 225.98636,114.44905 C 225.61122,114.44906 225.32361,114.50689 225.12354,114.62256 C 224.92346,114.73823 224.82342,114.89923 224.82343,115.10555 C 224.82342,115.25248 224.88907,115.3744 225.02037,115.47131 C 225.1548,115.5651 225.36738,115.65419 225.65811,115.7386 L 226.30523,115.92148 C 226.92733,116.09655 227.35093,116.29662 227.57602,116.5217 C 227.80422,116.74366 227.91833,117.02658 227.91833,117.37046 C 227.91833,117.84564 227.74014,118.21765 227.38376,118.4865 C 227.0305,118.75535 226.55219,118.88978 225.94885,118.88978 C 225.2392,118.88978 224.58896,118.72565 223.99812,118.3974 L 224.24196,117.75498 C 224.79529,118.04884 225.34862,118.19577 225.90195,118.19577 C 226.71475,118.19577 227.12116,117.95349 227.12116,117.46893 C 227.12116,117.28136 227.03675,117.12349 226.86794,116.99532 C 226.69912,116.86715 226.33493,116.72647 225.77534,116.57328 C 225.32517,116.44824 225.01725,116.35289 224.85156,116.28724 C 224.68587,116.21847 224.53738,116.12937 224.40608,116.01995 C 224.27478,115.90741 224.17787,115.78237 224.11535,115.64481 C 224.05595,115.50726 224.02625,115.35252 224.02625,115.18058 C 224.02625,114.75542 224.19507,114.41311 224.53269,114.15363 C 224.87032,113.89104 225.35487,113.75974 225.98636,113.75973 C 226.25208,113.75974 226.54282,113.8035 226.85856,113.89103 C 227.1743,113.97544 227.45722,114.09424 227.70732,114.24742 L 227.44003,114.89453 M 230.34736,120.67638 L 228.48573,120.67638 L 228.48573,120.00113 L 229.53143,120.00113 L 229.53143,112.55928 L 228.48573,112.55928 L 228.48573,111.88872 L 230.34736,111.88872 L 230.34736,120.67638 M 233.51261,120.67638 L 231.64629,120.67638 L 231.64629,111.79025 L 233.51261,111.79025 L 233.51261,112.4655 L 232.46222,112.4655 L 232.46222,120.00113 L 233.51261,120.00113 L 233.51261,120.67638 M 238.34254,118.76317 L 237.52661,118.76317 L 237.52661,118.08322 C 237.01704,118.62093 236.47622,118.88978 235.90413,118.88978 C 235.40394,118.88978 235.01004,118.74441 234.72244,118.45368 C 234.43483,118.15982 234.29103,117.74404 234.29103,117.20633 L 234.29103,113.87696 L 235.10696,113.87696 L 235.10696,116.99532 C 235.10696,117.36421 235.19761,117.65338 235.37893,117.86283 C 235.56338,118.07228 235.81191,118.17701 236.12452,118.17701 C 236.61533,118.17701 237.08269,117.91129 237.52661,117.37984 L 237.52661,113.87696 L 238.34254,113.87696 L 238.34254,118.76317 M 241.8923,116.69989 L 239.31322,116.69989 L 239.31322,115.90272 L 241.8923,115.90272 L 241.8923,116.69989 M 246.83009,118.76317 L 242.5066,118.76317 L 242.5066,118.20514 L 245.50303,114.59442 L 242.57694,114.59442 L 242.57694,113.87696 L 246.59094,113.87696 L 246.59094,114.39278 L 243.5945,118.04102 L 246.83009,118.04102 L 246.83009,118.76317 M 249.02935,120.67638 L 247.16772,120.67638 L 247.16772,120.00113 L 248.21342,120.00113 L 248.21342,112.55928 L 247.16772,112.55928 L 247.16772,111.88872 L 249.02935,111.88872 L 249.02935,120.67638"
     id="flowRoot7928" />
  <path
     transform="translate(77.722875,-61.068893)"
     style="font-size:9.60358906px;font-style:normal;font-variant:normal;font-weight:normal;font-stretch:normal;text-align:start;line-height:125%;writing-mode:lr-tb;text-anchor:start;fill:#000000;fill-opacity:1;stroke:none;stroke-width:1px;stroke-linecap:butt;stroke-linejoin:miter;stroke-opacity:1;font-family:Sans;-inkscape-font-specification:Sans"
     d="M 213.78961,118.76317 L 212.97368,118.76317 L 212.97368,111.79025 L 213.78961,111.79025 L 213.78961,118.76317"
     id="flowRoot2561" />
  <path
     transform="translate(-17.175674,-61.068895)"
     style="font-size:9.60358906px;font-style:normal;font-variant:normal;font-weight:normal;font-stretch:normal;text-align:start;line-height:125%;writing-mode:lr-tb;text-anchor:start;fill:#000000;fill-opacity:1;stroke:none;stroke-width:1px;stroke-linecap:butt;stroke-linejoin:miter;stroke-opacity:1;font-family:Sans;-inkscape-font-specification:Sans"
     d="M 217.20808,118.76317 L 216.3265,118.76317 C 216.27648,118.68501 216.23271,118.57403 216.1952,118.43023 C 216.16081,118.28643 216.14362,118.16763 216.14362,118.07385 C 215.56527,118.6178 214.9291,118.88978 214.23509,118.88978 C 213.77555,118.88978 213.40197,118.77098 213.11436,118.53339 C 212.82988,118.29268 212.68764,117.95974 212.68764,117.53458 C 212.68764,117.19696 212.77205,116.91248 212.94086,116.68114 C 213.1128,116.44668 213.36914,116.2638 213.7099,116.1325 C 214.05377,116.0012 214.48987,115.91836 215.0182,115.88396 L 216.12486,115.81363 L 216.12486,115.65888 C 216.12486,115.20246 216.0342,114.88516 215.85289,114.70696 C 215.67156,114.52877 215.3527,114.43968 214.89628,114.43967 C 214.67744,114.43968 214.40547,114.48813 214.08035,114.58504 C 213.75835,114.67883 213.48638,114.78825 213.26442,114.91329 L 213.02527,114.28962 C 213.28786,114.13332 213.6083,114.00671 213.98656,113.90979 C 214.36795,113.80976 214.71652,113.75974 215.03227,113.75973 C 215.68251,113.75974 216.16237,113.90667 216.47187,114.20052 C 216.78448,114.49439 216.94079,114.94299 216.94079,115.54634 L 216.94079,117.60023 C 216.94079,118.1098 217.02988,118.49744 217.20808,118.76317 M 216.12486,117.36108 L 216.12486,116.42792 C 215.4246,116.46856 214.96505,116.50139 214.74622,116.52639 C 214.53051,116.54828 214.3195,116.5983 214.11317,116.67645 C 213.90684,116.7546 213.75054,116.86089 213.64425,116.99532 C 213.53796,117.12974 213.48481,117.29699 213.48481,117.49707 C 213.48481,117.7034 213.56453,117.87065 213.72396,117.99882 C 213.8834,118.12386 214.08816,118.18639 214.33826,118.18639 C 214.65712,118.18639 214.98381,118.11136 215.31831,117.9613 C 215.65281,117.80812 215.92166,117.60805 216.12486,117.36108"
     id="flowRoot2579" />
  <path
     transform="translate(-116.42536,-61.068898)"
     style="font-size:9.60358906px;font-style:normal;font-variant:normal;font-weight:normal;font-stretch:normal;text-align:start;line-height:125%;writing-mode:lr-tb;text-anchor:start;fill:#000000;fill-opacity:1;stroke:none;stroke-width:1px;stroke-linecap:butt;stroke-linejoin:miter;stroke-opacity:1;font-family:Sans;-inkscape-font-specification:Sans"
     d="M 214.98068,118.73503 C 214.67744,118.83819 214.43517,118.88978 214.25385,118.88978 C 213.83182,118.88978 213.52389,118.77098 213.33007,118.53339 C 213.13937,118.2958 213.04402,117.92379 213.04402,117.41735 L 213.04402,114.54753 L 212.44849,114.54753 L 212.44849,113.87696 L 213.04402,113.87696 L 213.04402,112.54053 L 213.85995,112.54053 L 213.85995,113.87696 L 214.7978,113.87696 L 214.7978,114.54753 L 213.85995,114.54753 L 213.85995,117.37984 C 213.85995,117.91754 214.02564,118.18639 214.35701,118.18639 C 214.50082,118.18639 214.65869,118.15513 214.83063,118.0926 L 214.98068,118.73503"
     id="flowRoot2599" />
  <path
     transform="translate(176.97257,-61.068893)"
     style="font-size:9.60358906px;font-style:normal;font-variant:normal;font-weight:normal;font-stretch:normal;text-align:start;line-height:125%;writing-mode:lr-tb;text-anchor:start;fill:#000000;fill-opacity:1;stroke:none;stroke-width:1px;stroke-linecap:butt;stroke-linejoin:miter;stroke-opacity:1;font-family:Sans;-inkscape-font-specification:Sans"
     d="M 217.07678,118.76317 L 216.11548,118.76317 L 214.35701,116.34351 L 213.78024,116.89215 L 213.78024,118.76317 L 212.96431,118.76317 L 212.96431,111.79025 L 213.78024,111.79025 L 213.78024,116.0434 L 215.85757,113.87696 L 216.79543,113.87696 L 214.8869,115.823 L 217.07678,118.76317"
     id="flowRoot7936" />
  <path
     transform="translate(-10.432684,-43.391077)"
     style="font-size:12px;font-style:normal;font-variant:normal;font-weight:normal;font-stretch:normal;fill:#000000;fill-opacity:1;stroke:none;stroke-width:1px;stroke-linecap:butt;stroke-linejoin:miter;stroke-opacity:1;font-family:Sans;-inkscape-font-specification:Adobe Helvetica"
     d="M 169.16797,105.65071 C 169.16796,107.13509 168.93554,108.23275 168.4707,108.94368 C 168.00976,109.65071 167.31836,110.00228 166.39648,109.99837 C 165.46679,109.99837 164.77148,109.6429 164.31055,108.93196 C 163.85351,108.21712 163.625,107.12337 163.625,105.65071 C 163.625,104.24056 163.85547,103.18197 164.31641,102.47493 C 164.77734,101.76791 165.4707,101.41439 166.39648,101.41439 C 167.31836,101.41439 168.00976,101.76791 168.4707,102.47493 C 168.93554,103.18197 169.16796,104.24056 169.16797,105.65071 M 166.39648,109.09603 C 166.95507,109.09603 167.37695,108.84017 167.66211,108.32845 C 167.94726,107.81673 168.08984,106.93978 168.08984,105.69759 C 168.08984,104.52572 167.95507,103.67025 167.68555,103.13118 C 167.41992,102.58822 166.98632,102.31674 166.38477,102.31673 C 165.82617,102.31674 165.40625,102.59994 165.125,103.16634 C 164.84765,103.72885 164.70898,104.57259 164.70898,105.69759 C 164.70898,106.8304 164.84961,107.68001 165.13086,108.24642 C 165.41211,108.81282 165.83398,109.09603 166.39648,109.09603"
     id="flowRoot2587" />
  <path
     transform="translate(-109.68237,-43.39108)"
     style="font-size:12px;font-style:normal;font-variant:normal;font-weight:normal;font-stretch:normal;fill:#000000;fill-opacity:1;stroke:none;stroke-width:1px;stroke-linecap:butt;stroke-linejoin:miter;stroke-opacity:1;font-family:Sans;-inkscape-font-specification:Adobe Helvetica"
     d="M 169.16797,105.65071 C 169.16796,107.13509 168.93554,108.23275 168.4707,108.94368 C 168.00976,109.65071 167.31836,110.00228 166.39648,109.99837 C 165.46679,109.99837 164.77148,109.6429 164.31055,108.93196 C 163.85351,108.21712 163.625,107.12337 163.625,105.65071 C 163.625,104.24056 163.85547,103.18197 164.31641,102.47493 C 164.77734,101.76791 165.4707,101.41439 166.39648,101.41439 C 167.31836,101.41439 168.00976,101.76791 168.4707,102.47493 C 168.93554,103.18197 169.16796,104.24056 169.16797,105.65071 M 166.39648,109.09603 C 166.95507,109.09603 167.37695,108.84017 167.66211,108.32845 C 167.94726,107.81673 168.08984,106.93978 168.08984,105.69759 C 168.08984,104.52572 167.95507,103.67025 167.68555,103.13118 C 167.41992,102.58822 166.98632,102.31674 166.38477,102.31673 C 165.82617,102.31674 165.40625,102.59994 165.125,103.16634 C 164.84765,103.72885 164.70898,104.57259 164.70898,105.69759 C 164.70898,106.8304 164.84961,107.68001 165.13086,108.24642 C 165.41211,108.81282 165.83398,109.09603 166.39648,109.09603"
     id="flowRoot2607" />
  <path
     transform="translate(273.33413,-43.38815)"
     style="font-size:12px;font-style:normal;font-variant:normal;font-weight:normal;font-stretch:normal;text-align:start;line-height:125%;writing-mode:lr-tb;text-anchor:start;fill:#000000;fill-opacity:1;stroke:none;stroke-width:1px;stroke-linecap:butt;stroke-linejoin:miter;stroke-opacity:1;font-family:Sans;-inkscape-font-specification:Sans"
     d="M 167.42773,105.29329 C 167.91601,105.44564 168.30273,105.70931 168.58789,106.08431 C 168.87304,106.45931 169.01562,106.89876 169.01562,107.40267 C 169.01562,108.11751 168.73437,108.72884 168.17188,109.23665 C 167.61328,109.74446 166.91015,109.99837 166.0625,109.99837 C 165.08594,109.99837 164.19336,109.74642 163.38477,109.24251 L 163.68359,108.39876 C 164.41797,108.86361 165.18359,109.09603 165.98047,109.09603 C 166.52734,109.09603 166.98242,108.93782 167.3457,108.62142 C 167.71289,108.30111 167.89648,107.89876 167.89648,107.41439 C 167.89648,106.88705 167.71289,106.48665 167.3457,106.21321 C 166.98242,105.93587 166.45117,105.7972 165.75195,105.7972 L 165.48828,105.7972 L 165.48828,104.90657 C 166.93359,104.90658 167.65625,104.48275 167.65625,103.63509 C 167.65625,103.22494 167.50585,102.90267 167.20508,102.66829 C 166.90429,102.43392 166.49609,102.31674 165.98047,102.31673 C 165.3164,102.31674 164.64844,102.51596 163.97656,102.91439 L 163.67188,102.0765 C 164.4414,101.6351 165.23047,101.41439 166.03906,101.41439 C 166.875,101.41439 167.5332,101.61557 168.01367,102.0179 C 168.49804,102.42025 168.74023,102.95931 168.74023,103.63509 C 168.74023,104.38509 168.30273,104.93002 167.42773,105.26985 L 167.42773,105.29329"
     id="flowRoot2551" />
  <path
     transform="translate(269.39201,31.646476)"
     style="fill:#ffffff;fill-opacity:1;fill-rule:evenodd;stroke:#000000;stroke-width:1;stroke-linejoin:round;stroke-miterlimit:4;stroke-dashoffset:0;stroke-opacity:1"
     d="M 184.32085,102.0181 C 184.32085,109.84464 177.96887,116.19662 170.14232,116.19662 C 162.31577,116.19662 155.96379,109.84464 155.96379,102.0181 C 155.96379,94.19155 162.31577,87.83957 170.14232,87.83957 C 177.96887,87.83957 184.32085,94.19155 184.32085,102.0181 z"
     id="path8196" />
  <path
     transform="matrix(0.8146368,0,0,0.8146368,300.93013,50.556877)"
     style="fill:#ffffff;fill-opacity:1;fill-rule:evenodd;stroke:#000000;stroke-width:1;stroke-linejoin:round;stroke-miterlimit:4;stroke-dashoffset:0;stroke-opacity:1"
     d="M 184.32085,102.0181 C 184.32085,109.84464 177.96887,116.19662 170.14232,116.19662 C 162.31577,116.19662 155.96379,109.84464 155.96379,102.0181 C 155.96379,94.19155 162.31577,87.83957 170.14232,87.83957 C 177.96887,87.83957 184.32085,94.19155 184.32085,102.0181 z"
     id="path2545" />
  <path
     transform="translate(273.33413,27.958195)"
     style="font-size:12px;font-style:normal;font-variant:normal;font-weight:normal;font-stretch:normal;text-align:start;line-height:125%;writing-mode:lr-tb;text-anchor:start;fill:#000000;fill-opacity:1;stroke:none;stroke-width:1px;stroke-linecap:butt;stroke-linejoin:miter;stroke-opacity:1;font-family:Sans;-inkscape-font-specification:Sans"
     d="M 169.36133,108.0179 L 168.125,108.0179 L 168.125,109.84017 L 167.07031,109.84017 L 167.07031,108.0179 L 163.39648,108.0179 L 163.39648,107.04525 L 167.26367,101.514 L 168.125,101.514 L 168.125,107.04525 L 169.36133,107.04525 L 169.36133,108.0179 M 167.07031,107.04525 L 167.07031,103.23079 L 164.42773,107.04525 L 167.07031,107.04525"
     id="flowRoot8198" />
  <path
     transform="translate(88.817004,-43.391078)"
     style="font-size:12px;font-style:normal;font-variant:normal;font-weight:normal;font-stretch:normal;text-align:start;line-height:125%;writing-mode:lr-tb;text-anchor:start;fill:#000000;fill-opacity:1;stroke:none;stroke-width:1px;stroke-linecap:butt;stroke-linejoin:miter;stroke-opacity:1;font-family:Sans;-inkscape-font-specification:Sans"
     d="M 167.39258,109.84017 L 166.33789,109.84017 L 166.33789,102.96126 C 165.8457,103.44955 165.14258,103.69369 164.22852,103.69368 L 164.22852,102.70931 C 165.34179,102.70931 166.14062,102.30697 166.625,101.50228 L 167.39258,101.50228 L 167.39258,109.84017"
     id="flowRoot8076" />
  <path
     transform="translate(188.0667,-43.391078)"
     style="font-size:12px;font-style:normal;font-variant:normal;font-weight:normal;font-stretch:normal;text-align:start;line-height:125%;writing-mode:lr-tb;text-anchor:start;fill:#000000;fill-opacity:1;stroke:none;stroke-width:1px;stroke-linecap:butt;stroke-linejoin:miter;stroke-opacity:1;font-family:Sans;-inkscape-font-specification:Sans"
     d="M 169.03906,109.84017 L 163.54297,109.84017 L 163.54297,108.97884 C 164.51953,108.06478 165.33008,107.32064 165.97461,106.74642 C 166.61914,106.1722 167.09179,105.65658 167.39258,105.19954 C 167.69726,104.73861 167.8496,104.26986 167.84961,103.79329 C 167.8496,103.34017 167.69335,102.9808 167.38086,102.71517 C 167.06836,102.44955 166.66406,102.31674 166.16797,102.31673 C 165.48437,102.31674 164.76172,102.51596 164,102.91439 L 163.70117,102.0765 C 164.51758,101.6351 165.36914,101.41439 166.25586,101.41439 C 167.04882,101.41439 167.6914,101.63705 168.18359,102.08235 C 168.67968,102.52767 168.92773,103.09799 168.92773,103.79329 C 168.92773,104.31283 168.76953,104.8265 168.45312,105.33431 C 168.13671,105.84212 167.62304,106.41244 166.91211,107.04525 L 164.87305,108.87923 L 169.03906,108.87923 L 169.03906,109.84017"
     id="flowRoot7740" />
  <flowRoot
     xml:space="preserve"
     id="flowRoot2611"
     style="fill:black;stroke:none;stroke-opacity:1;stroke-width:1px;stroke-linejoin:miter;stroke-linecap:butt;fill-opacity:1;font-family:Sans;font-style:normal;font-weight:normal;font-size:12;-inkscape-font-specification:Adobe Helvetica;font-stretch:normal;font-variant:normal"><flowRegion
       id="flowRegion2613"><rect
         id="rect2615"
         width="26.570213"
         height="20.876596"
         x="356.79999"
         y="231.01198" /></flowRegion><flowPara
       id="flowPara2617" /></flowRoot>  <path
     transform="translate(-25.556307,-9.3233169)"
     style="font-size:12px;font-style:normal;font-variant:normal;font-weight:normal;font-stretch:normal;fill:#000000;fill-opacity:1;stroke:none;stroke-width:1px;stroke-linecap:butt;stroke-linejoin:miter;stroke-opacity:1;font-family:Sans;-inkscape-font-specification:Adobe Helvetica"
     d="M 456.5957,52.074542 L 450.91211,49.648761 L 450.91211,48.664386 L 456.5957,46.262042 L 456.5957,47.258136 L 451.99023,49.156573 L 456.5957,51.078448 L 456.5957,52.074542 M 464.32422,45.799152 L 461.44727,45.799152 L 461.44727,53.152667 L 460.36328,53.152667 L 460.36328,45.799152 L 457.50977,45.799152 L 457.50977,44.885089 L 464.32422,44.885089 L 464.32422,45.799152 M 471.66016,53.152667 L 470.50586,53.152667 L 469.36914,50.334308 L 466.0293,50.334308 L 464.9043,53.152667 L 463.76172,53.152667 L 467.19531,44.885089 L 468.22656,44.885089 L 471.66016,53.152667 M 469.04102,49.420245 L 467.71094,46.168292 L 466.38086,49.420245 L 469.04102,49.420245 M 478.0293,53.152667 L 472.67969,53.152667 L 472.67969,44.885089 L 473.75781,44.885089 L 473.75781,52.238605 L 478.0293,52.238605 L 478.0293,53.152667 M 486.33203,53.152667 L 484.98438,53.152667 L 481.49219,48.986652 L 480.4375,49.947589 L 480.4375,53.152667 L 479.35938,53.152667 L 479.35938,44.885089 L 480.4375,44.885089 L 480.4375,48.822589 L 484.60352,44.885089 L 485.91016,44.885089 L 482.23633,48.318683 L 486.33203,53.152667 M 492.75977,49.648761 L 487.07617,52.074542 L 487.07617,51.078448 L 491.68164,49.156573 L 487.07617,47.258136 L 487.07617,46.262042 L 492.75977,48.664386 L 492.75977,49.648761"
     id="flowRoot2643" />
  <path
     transform="translate(-29.587557,15.944317)"
     style="font-size:12px;font-style:normal;font-variant:normal;font-weight:normal;font-stretch:normal;fill:#000000;fill-opacity:1;stroke:none;stroke-width:1px;stroke-linecap:butt;stroke-linejoin:miter;stroke-opacity:1;font-family:Sans;-inkscape-font-specification:Adobe Helvetica"
     d="M 460.62695,97.699542 L 454.94336,95.273761 L 454.94336,94.289386 L 460.62695,91.887042 L 460.62695,92.883136 L 456.02148,94.781573 L 460.62695,96.703448 L 460.62695,97.699542 M 463.49805,98.777667 L 462.41992,98.777667 L 462.41992,90.510089 L 463.49805,90.510089 L 463.49805,98.777667 M 465.57812,90.510089 L 468.49609,90.510089 C 469.79296,90.510097 470.81445,90.871425 471.56055,91.594073 C 472.30663,92.316736 472.67968,93.330407 472.67969,94.635089 C 472.67968,95.873373 472.30468,96.873372 471.55469,97.635089 C 470.80859,98.396808 469.80078,98.777667 468.53125,98.777667 L 465.57812,98.777667 L 465.57812,90.510089 M 466.65625,97.863605 L 468.50781,97.863605 C 469.48046,97.863606 470.22851,97.586262 470.75195,97.031573 C 471.27929,96.472982 471.54296,95.678061 471.54297,94.646808 C 471.54296,93.611657 471.27734,92.816736 470.74609,92.262042 C 470.21874,91.703456 469.47265,91.424159 468.50781,91.424152 L 466.65625,91.424152 L 466.65625,97.863605 M 480.56055,98.777667 L 474.25,98.777667 L 474.25,90.510089 L 480.44336,90.510089 L 480.44336,91.424152 L 475.32812,91.424152 L 475.32812,94.013995 L 479.95117,94.013995 L 479.95117,94.928058 L 475.32812,94.928058 L 475.32812,97.863605 L 480.56055,97.863605 L 480.56055,98.777667 M 489.00977,98.777667 L 487.78516,98.777667 L 483.27344,91.986652 L 483.27344,98.777667 L 482.26562,98.777667 L 482.26562,90.510089 L 483.49023,90.510089 L 488.01367,97.312823 L 488.01367,90.510089 L 489.00977,90.510089 L 489.00977,98.777667 M 497.04297,91.424152 L 494.16602,91.424152 L 494.16602,98.777667 L 493.08203,98.777667 L 493.08203,91.424152 L 490.22852,91.424152 L 490.22852,90.510089 L 497.04297,90.510089 L 497.04297,91.424152 M 499.52148,98.777667 L 498.44336,98.777667 L 498.44336,90.510089 L 499.52148,90.510089 L 499.52148,98.777667 M 507.32617,91.424152 L 502.67969,91.424152 L 502.67969,94.324542 L 507.19141,94.324542 L 507.19141,95.238605 L 502.67969,95.238605 L 502.67969,98.777667 L 501.60156,98.777667 L 501.60156,90.510089 L 507.32617,90.510089 L 507.32617,91.424152 M 510.18555,98.777667 L 509.10742,98.777667 L 509.10742,90.510089 L 510.18555,90.510089 L 510.18555,98.777667 M 518.57617,98.777667 L 512.26562,98.777667 L 512.26562,90.510089 L 518.45898,90.510089 L 518.45898,91.424152 L 513.34375,91.424152 L 513.34375,94.013995 L 517.9668,94.013995 L 517.9668,94.928058 L 513.34375,94.928058 L 513.34375,97.863605 L 518.57617,97.863605 L 518.57617,98.777667 M 527.76953,98.777667 L 526.42188,98.777667 L 523.58008,95.408527 L 521.35938,95.408527 L 521.35938,98.777667 L 520.28125,98.777667 L 520.28125,90.510089 L 523.61523,90.510089 C 524.5996,90.510097 525.36718,90.721035 525.91797,91.142902 C 526.47265,91.560878 526.74999,92.158533 526.75,92.93587 C 526.74999,93.517907 526.57031,94.012047 526.21094,94.418292 C 525.85156,94.82064 525.37499,95.097983 524.78125,95.250323 L 527.76953,98.777667 M 521.35938,94.494464 L 523.55664,94.494464 C 524.21679,94.494468 524.72656,94.361656 525.08594,94.096027 C 525.44921,93.8265 525.63085,93.443688 525.63086,92.947589 C 525.63085,91.931971 524.9121,91.424159 523.47461,91.424152 L 521.35938,91.424152 L 521.35938,94.494464 M 534.33789,95.273761 L 528.6543,97.699542 L 528.6543,96.703448 L 533.25977,94.781573 L 528.6543,92.883136 L 528.6543,91.887042 L 534.33789,94.289386 L 534.33789,95.273761"
     id="flowRoot2651" />
</svg>
