<?xml version="1.0" encoding="UTF-8" standalone="no"?>
<!-- Generated by Graphviz version 2.18 (Thu Oct 16 15:23:39 UTC 2008)
 -->
<!-- Title: state_machine_59 Pages: 1 -->
<svg
   xmlns:dc="http://purl.org/dc/elements/1.1/"
   xmlns:cc="http://creativecommons.org/ns#"
   xmlns:rdf="http://www.w3.org/1999/02/22-rdf-syntax-ns#"
   xmlns:svg="http://www.w3.org/2000/svg"
   xmlns="http://www.w3.org/2000/svg"
   xmlns:sodipodi="http://sodipodi.sourceforge.net/DTD/sodipodi-0.dtd"
   xmlns:inkscape="http://www.inkscape.org/namespaces/inkscape"
   width="535pt"
   height="360pt"
   viewBox="0.00 0.00 535.20 360.00"
   id="svg2584"
   sodipodi:version="0.32"
   inkscape:version="0.46"
   sodipodi:docname="template-compression-after.svg"
   inkscape:output_extension="org.inkscape.output.svg.inkscape">
  <metadata
     id="metadata2791">
    <rdf:RDF>
      <cc:Work
         rdf:about="">
        <dc:format>image/svg+xml</dc:format>
        <dc:type
           rdf:resource="http://purl.org/dc/dcmitype/StillImage" />
      </cc:Work>
    </rdf:RDF>
  </metadata>
  <defs
     id="defs2789">
    <marker
       inkscape:stockid="Arrow2Lend"
       orient="auto"
       refY="0.0"
       refX="0.0"
       id="Arrow2Lend"
       style="overflow:visible;">
      <path
         id="path3707"
         style="font-size:12.0;fill-rule:evenodd;stroke-width:0.62500000;stroke-linejoin:round;"
         d="M 8.7185878,4.0337352 L -2.2072895,0.016013256 L 8.7185884,-4.0017078 C 6.9730900,-1.6296469 6.9831476,1.6157441 8.7185878,4.0337352 z "
         transform="scale(1.1) rotate(180) translate(1,0)" />
    </marker>
    <marker
       inkscape:stockid="Arrow1Lend"
       orient="auto"
       refY="0.0"
       refX="0.0"
       id="Arrow1Lend"
       style="overflow:visible;">
      <path
         id="path3689"
         d="M 0.0,0.0 L 5.0,-5.0 L -12.5,0.0 L 5.0,5.0 L 0.0,0.0 z "
         style="fill-rule:evenodd;stroke:#000000;stroke-width:1.0pt;marker-start:none;"
         transform="scale(0.8) rotate(180) translate(12.5,0)" />
    </marker>
    <inkscape:perspective
       sodipodi:type="inkscape:persp3d"
       inkscape:vp_x="0 : 225 : 1"
       inkscape:vp_y="0 : 1000 : 0"
       inkscape:vp_z="668.75 : 225 : 1"
       inkscape:persp3d-origin="334.375 : 150 : 1"
       id="perspective2793" />
    <title
       id="title2587">state_machine_59</title>
    <title
       id="title2771">8-&gt;9</title>
    <title
       id="title2655">9-&gt;9</title>
    <title
       id="title2762">1-&gt;2</title>
    <title
       id="title2746">4-&gt;5</title>
    <title
       id="title2737">0-&gt;8</title>
    <title
       id="title2721">0-&gt;1</title>
    <title
       id="title2705">0-&gt;4</title>
    <title
       id="title2689">0-&gt;7</title>
    <title
       id="title2680">0-&gt;6</title>
    <title
       id="title2671">0-&gt;3</title>
    <title
       id="title2610">5-&gt;5</title>
    <title
       id="title2780">2-&gt;3</title>
    <title
       id="title2637">7-&gt;7</title>
    <title
       id="title2664">0</title>
    <title
       id="title2592">3</title>
    <title
       id="title2601">5</title>
    <title
       id="title2619">6</title>
    <title
       id="title2628">7</title>
    <title
       id="title2646">9</title>
    <title
       id="title2730">8</title>
    <title
       id="title2698">4</title>
    <title
       id="title2755">2</title>
    <title
       id="title2714">1</title>
  </defs>
  <sodipodi:namedview
     inkscape:window-height="724"
     inkscape:window-width="1024"
     inkscape:pageshadow="2"
     inkscape:pageopacity="0.0"
     guidetolerance="10.0"
     gridtolerance="10.0"
     objecttolerance="10.0"
     borderopacity="1"
     bordercolor="#ed1b1b"
     pagecolor="#ffffff"
     id="base"
     showgrid="true"
     inkscape:zoom="1.1926975"
     inkscape:cx="383.40855"
     inkscape:cy="225.87841"
     inkscape:window-x="0"
     inkscape:window-y="19"
     inkscape:current-layer="svg2584"
     inkscape:showpageshadow="false">
    <inkscape:grid
       type="xygrid"
       id="grid5044"
       visible="true"
       enabled="true"
       units="mm"
       spacingx="1mm"
       spacingy="1mm" />
  </sodipodi:namedview>
  <path
     style="fill:none;fill-rule:evenodd;stroke:#000000;stroke-width:1.00037384;stroke-linecap:butt;stroke-linejoin:miter;marker-end:url(#Arrow2Lend);stroke-miterlimit:4;stroke-dasharray:none;stroke-opacity:1"
     d="M 4.2487306e-06,175.74644 L 42.53558,175.74644"
     id="path8206" />
  <path
     style="fill:none;fill-rule:evenodd;stroke:#000000;stroke-width:1.00037384;stroke-linecap:butt;stroke-linejoin:miter;marker-end:url(#Arrow2Lend);stroke-miterlimit:4;stroke-dasharray:none;stroke-opacity:1"
     d="M 4.2487306e-06,218.28202 L 42.53558,218.28202"
     id="path8218" />
  <path
     id="path7982"
     d="M 2.487306e-07,260.8176 L 42.53558,260.8176"
     style="fill:none;fill-rule:evenodd;stroke:#000000;stroke-width:1.00037384;stroke-linecap:butt;stroke-linejoin:miter;marker-end:url(#Arrow2Lend);stroke-miterlimit:4;stroke-dasharray:none;stroke-opacity:1" />
  <path
     id="path5263"
     d="M 127.60674,218.28202 L 184.32084,218.28202"
     style="fill:none;fill-rule:evenodd;stroke:#000000;stroke-width:1.00037384;stroke-linecap:butt;stroke-linejoin:miter;marker-end:url(#Arrow2Lend);stroke-miterlimit:4;stroke-dasharray:none;stroke-opacity:1"
     sodipodi:nodetypes="cc" />
  <path
     sodipodi:nodetypes="cc"
     id="path8190"
     d="M 255.21348,175.74644 C 212.6779,175.74644 212.6779,175.74644 198.49937,218.28202"
     style="fill:none;fill-rule:evenodd;stroke:#000000;stroke-width:1.00037384;stroke-linecap:butt;stroke-linejoin:miter;marker-end:none;stroke-miterlimit:4;stroke-dasharray:none;stroke-opacity:1" />
  <path
     style="fill:none;fill-rule:evenodd;stroke:#000000;stroke-width:1.00037384;stroke-linecap:butt;stroke-linejoin:miter;marker-end:none;stroke-miterlimit:4;stroke-dasharray:none;stroke-opacity:1"
     d="M 255.21348,260.8176 C 212.6779,260.8176 212.6779,260.8176 198.49937,218.28202"
     id="path7160"
     sodipodi:nodetypes="cc" />
  <path
     style="fill:none;fill-rule:evenodd;stroke:#000000;stroke-width:1.00037384;stroke-linecap:butt;stroke-linejoin:miter;marker-end:none;stroke-miterlimit:4;stroke-dasharray:none;stroke-opacity:1"
     d="M 198.49937,218.28202 C 219.79492,204.1035 219.73941,204.1035 255.21348,204.1035"
     id="path8192"
     sodipodi:nodetypes="cc" />
  <path
     sodipodi:nodetypes="cc"
     id="path7166"
     d="M 198.49937,218.28202 C 219.79492,232.46054 219.73941,232.46054 255.21348,232.46054"
     style="fill:none;fill-rule:evenodd;stroke:#000000;stroke-width:1.00037384;stroke-linecap:butt;stroke-linejoin:miter;marker-end:none;stroke-miterlimit:4;stroke-dasharray:none;stroke-opacity:1" />
  <path
     style="fill:#ffffff;fill-opacity:1;fill-rule:evenodd;stroke:#000000;stroke-width:1;stroke-linejoin:round;stroke-miterlimit:4;stroke-dashoffset:0;stroke-opacity:1"
     d="M 70.89265,175.74645 C 70.89265,183.57299 64.54067,189.92497 56.71412,189.92497 C 48.88757,189.92497 42.53559,183.57299 42.53559,175.74645 C 42.53559,167.9199 48.88757,161.56792 56.71412,161.56792 C 64.54067,161.56792 70.89265,167.9199 70.89265,175.74645 z"
     id="path8208" />
  <path
     style="fill:#ffffff;fill-opacity:1;fill-rule:evenodd;stroke:#000000;stroke-width:1;stroke-linejoin:round;stroke-miterlimit:4;stroke-dashoffset:0;stroke-opacity:1"
     d="M 70.89265,218.28203 C 70.89265,226.10857 64.54067,232.46055 56.71412,232.46055 C 48.88757,232.46055 42.53559,226.10857 42.53559,218.28203 C 42.53559,210.45548 48.88757,204.1035 56.71412,204.1035 C 64.54067,204.1035 70.89265,210.45548 70.89265,218.28203 z"
     id="path8220" />
  <path
     style="fill:#ffffff;fill-opacity:1;fill-rule:evenodd;stroke:#000000;stroke-width:1;stroke-linejoin:round;stroke-miterlimit:4;stroke-dashoffset:0;stroke-opacity:1"
     d="M 70.89264,260.81761 C 70.89264,268.64415 64.54066,274.99613 56.71411,274.99613 C 48.88756,274.99613 42.53558,268.64415 42.53558,260.81761 C 42.53558,252.99106 48.88756,246.63908 56.71411,246.63908 C 64.54066,246.63908 70.89264,252.99106 70.89264,260.81761 z"
     id="path7984" />
  <path
     style="fill:#ffffff;fill-opacity:1;fill-rule:evenodd;stroke:#000000;stroke-width:1;stroke-linejoin:round;stroke-miterlimit:4;stroke-dashoffset:0;stroke-opacity:1"
     d="M 212.67791,218.28203 C 212.67791,226.10857 206.32593,232.46055 198.49938,232.46055 C 190.67283,232.46055 184.32085,226.10857 184.32085,218.28203 C 184.32085,210.45548 190.67283,204.1035 198.49938,204.1035 C 206.32593,204.1035 212.67791,210.45548 212.67791,218.28203 z"
     id="path5273" />
  <path
     style="font-size:9.60358906px;font-style:normal;font-variant:normal;font-weight:normal;font-stretch:normal;text-align:start;line-height:125%;writing-mode:lr-tb;text-anchor:start;fill:#000000;fill-opacity:1;stroke:none;stroke-width:1px;stroke-linecap:butt;stroke-linejoin:miter;stroke-opacity:1;font-family:Sans;-inkscape-font-specification:Sans"
     d="M 239.40173,257.10706 L 237.53541,257.10706 L 237.53541,248.22093 L 239.40173,248.22093 L 239.40173,248.89618 L 238.35134,248.89618 L 238.35134,256.43181 L 239.40173,256.43181 L 239.40173,257.10706 M 244.19414,255.19385 L 243.31257,255.19385 L 241.93861,253.23374 L 240.57404,255.19385 L 239.69246,255.19385 L 241.49782,252.65696 L 239.81438,250.30764 L 240.71941,250.30764 L 241.93861,252.05205 L 243.17658,250.30764 L 244.01126,250.30764 L 242.3794,252.6382 L 244.19414,255.19385 M 249.07566,250.30764 L 247.09679,255.27825 C 246.85607,255.8816 246.59504,256.35053 246.31369,256.68503 C 246.03233,257.02265 245.63374,257.19147 245.11793,257.19147 C 244.86471,257.19147 244.5896,257.12738 244.29262,256.99921 L 244.46612,256.3474 C 244.75685,256.44119 244.98038,256.48808 245.13668,256.48808 C 245.39616,256.48808 245.62749,256.37866 245.83069,256.15983 C 246.03702,255.941 246.21521,255.61275 246.36527,255.17509 L 244.42392,250.30764 L 245.26329,250.30764 L 246.74979,254.18566 L 248.23628,250.30764 L 249.07566,250.30764 M 251.16706,257.10706 L 249.30543,257.10706 L 249.30543,256.43181 L 250.35113,256.43181 L 250.35113,248.98996 L 249.30543,248.98996 L 249.30543,248.3194 L 251.16706,248.3194 L 251.16706,257.10706"
     id="flowRoot5275" />
  <path
     style="font-size:9.60358906px;font-style:normal;font-variant:normal;font-weight:normal;font-stretch:normal;text-align:start;line-height:125%;writing-mode:lr-tb;text-anchor:start;fill:#000000;fill-opacity:1;stroke:none;stroke-width:1px;stroke-linecap:butt;stroke-linejoin:miter;stroke-opacity:1;font-family:Sans;-inkscape-font-specification:Sans"
     d="M 235.12514,200.47735 L 233.25882,200.47735 L 233.25882,191.59122 L 235.12514,191.59122 L 235.12514,192.26647 L 234.07475,192.26647 L 234.07475,199.8021 L 235.12514,199.8021 L 235.12514,200.47735 M 238.29507,191.70845 L 238.10281,192.3415 C 237.83709,192.26335 237.61982,192.22427 237.45101,192.22427 C 237.26031,192.22427 237.12745,192.30243 237.05242,192.45873 C 236.97739,192.61192 236.93988,192.85732 236.93988,193.19494 L 236.93988,193.67793 L 238.00903,193.67793 L 238.00903,194.3485 L 236.93988,194.3485 L 236.93988,198.56414 L 236.12395,198.56414 L 236.12395,194.3485 L 235.30802,194.3485 L 235.30802,193.67793 L 236.12395,193.67793 L 236.12395,193.0824 C 236.12395,192.51657 236.23024,192.11642 236.44282,191.88195 C 236.6554,191.64437 236.98833,191.52557 237.44163,191.52557 C 237.69485,191.52557 237.97933,191.58653 238.29507,191.70845 M 240.82258,196.50086 L 238.24349,196.50086 L 238.24349,195.70369 L 240.82258,195.70369 L 240.82258,196.50086 M 248.50826,198.56414 L 247.69233,198.56414 L 247.69233,195.45047 C 247.69233,195.0597 247.61417,194.76584 247.45787,194.56889 C 247.30468,194.37195 247.07491,194.27347 246.76855,194.27347 C 246.57472,194.27347 246.36683,194.33443 246.14488,194.45635 C 245.92604,194.57828 245.72753,194.74709 245.54935,194.96279 C 245.55559,195.01594 245.55872,195.10816 245.55872,195.23946 L 245.55872,198.56414 L 244.74279,198.56414 L 244.74279,195.45047 C 244.74279,195.0597 244.66933,194.76584 244.5224,194.56889 C 244.37859,194.37195 244.16132,194.27347 243.87059,194.27347 C 243.43605,194.27347 243.01559,194.5392 242.60919,195.07064 L 242.60919,198.56414 L 241.79326,198.56414 L 241.79326,193.67793 L 242.60919,193.67793 L 242.60919,194.36725 C 243.03747,193.82956 243.5314,193.56071 244.09099,193.5607 C 244.75061,193.56071 245.19452,193.83268 245.42274,194.37663 C 245.86977,193.83268 246.39184,193.56071 246.98895,193.5607 C 247.47662,193.56071 247.85176,193.70451 248.11437,193.99211 C 248.37696,194.27973 248.50826,194.69551 248.50826,195.23946 L 248.50826,198.56414 M 251.16707,200.47735 L 249.30544,200.47735 L 249.30544,199.8021 L 250.35114,199.8021 L 250.35114,192.36025 L 249.30544,192.36025 L 249.30544,191.68969 L 251.16707,191.68969 L 251.16707,200.47735"
     id="flowRoot7868" />
  <path
     style="font-size:9.60358906px;font-style:normal;font-variant:normal;font-weight:normal;font-stretch:normal;text-align:start;line-height:125%;writing-mode:lr-tb;text-anchor:start;fill:#000000;fill-opacity:1;stroke:none;stroke-width:1px;stroke-linecap:butt;stroke-linejoin:miter;stroke-opacity:1;font-family:Sans;-inkscape-font-specification:Sans"
     d="M 235.65033,228.83441 L 233.78401,228.83441 L 233.78401,219.94828 L 235.65033,219.94828 L 235.65033,220.62353 L 234.59994,220.62353 L 234.59994,228.15916 L 235.65033,228.15916 L 235.65033,228.83441 M 238.47326,221.91776 C 239.17664,221.91777 239.7331,222.15223 240.14263,222.62115 C 240.55528,223.09008 240.76161,223.71062 240.76161,224.48278 C 240.76161,225.25495 240.55528,225.87549 240.14263,226.34442 C 239.7331,226.81334 239.17664,227.04781 238.47326,227.04781 C 237.76674,227.04781 237.20716,226.81491 236.79451,226.34911 C 236.38498,225.88018 236.18021,225.25808 236.18021,224.48278 C 236.18021,223.70437 236.38498,223.08226 236.79451,222.61646 C 237.20716,222.15067 237.76674,221.91777 238.47326,221.91776 M 238.47326,226.32566 C 238.91717,226.32566 239.26886,226.14747 239.52834,225.79109 C 239.78781,225.4347 239.91754,224.9986 239.91755,224.48278 C 239.91754,223.92633 239.79093,223.48085 239.53772,223.14635 C 239.28762,222.80873 238.9328,222.63991 238.47326,222.63991 C 238.01058,222.63991 237.65264,222.80716 237.39942,223.14166 C 237.14932,223.47616 237.02428,223.9232 237.02428,224.48278 C 237.02428,225.00173 237.15401,225.43939 237.41349,225.79578 C 237.67296,226.14903 238.02621,226.32566 238.47326,226.32566 M 244.03002,224.85792 L 241.45093,224.85792 L 241.45093,224.06075 L 244.03002,224.06075 L 244.03002,224.85792 M 248.25973,223.05256 C 247.76266,222.75558 247.27811,222.60709 246.80606,222.60708 C 246.43092,222.60709 246.14331,222.66492 245.94324,222.78059 C 245.74316,222.89626 245.64312,223.05726 245.64313,223.26358 C 245.64312,223.41051 245.70877,223.53243 245.84007,223.62934 C 245.9745,223.72313 246.18708,223.81222 246.47781,223.89663 L 247.12493,224.07951 C 247.74703,224.25458 248.17063,224.45465 248.39572,224.67973 C 248.62392,224.90169 248.73803,225.18461 248.73803,225.52849 C 248.73803,226.00367 248.55984,226.37568 248.20346,226.64453 C 247.8502,226.91338 247.37189,227.04781 246.76855,227.04781 C 246.0589,227.04781 245.40866,226.88368 244.81782,226.55543 L 245.06166,225.91301 C 245.61499,226.20687 246.16832,226.3538 246.72165,226.3538 C 247.53445,226.3538 247.94086,226.11152 247.94086,225.62696 C 247.94086,225.43939 247.85645,225.28152 247.68764,225.15335 C 247.51882,225.02518 247.15463,224.8845 246.59504,224.73131 C 246.14487,224.60627 245.83695,224.51092 245.67126,224.44527 C 245.50557,224.3765 245.35708,224.2874 245.22578,224.17798 C 245.09448,224.06544 244.99757,223.9404 244.93505,223.80284 C 244.87565,223.66529 244.84595,223.51055 244.84595,223.33861 C 244.84595,222.91345 245.01477,222.57114 245.35239,222.31166 C 245.69002,222.04907 246.17457,221.91777 246.80606,221.91776 C 247.07178,221.91777 247.36252,221.96153 247.67826,222.04906 C 247.994,222.13347 248.27692,222.25227 248.52702,222.40545 L 248.25973,223.05256 M 251.16706,228.83441 L 249.30543,228.83441 L 249.30543,228.15916 L 250.35113,228.15916 L 250.35113,220.71731 L 249.30543,220.71731 L 249.30543,220.04675 L 251.16706,220.04675 L 251.16706,228.83441"
     id="flowRoot7876" />
  <path
     style="font-size:9.60358906px;font-style:normal;font-variant:normal;font-weight:normal;font-stretch:normal;text-align:start;line-height:125%;writing-mode:lr-tb;text-anchor:start;fill:#000000;fill-opacity:1;stroke:none;stroke-width:1px;stroke-linecap:butt;stroke-linejoin:miter;stroke-opacity:1;font-family:Sans;-inkscape-font-specification:Sans"
     d="M 235.10638,172.12029 L 233.24006,172.12029 L 233.24006,163.23417 L 235.10638,163.23417 L 235.10638,163.90941 L 234.05599,163.90941 L 234.05599,171.44504 L 235.10638,171.44504 L 235.10638,172.12029 M 240.14732,170.20709 L 239.26575,170.20709 C 239.21572,170.12892 239.17196,170.01794 239.13445,169.87414 C 239.10005,169.73034 239.08286,169.61155 239.08286,169.51776 C 238.50452,170.06171 237.86835,170.33369 237.17434,170.33369 C 236.71479,170.33369 236.34121,170.21489 236.05361,169.97731 C 235.76913,169.73659 235.62689,169.40365 235.62689,168.9785 C 235.62689,168.64087 235.71129,168.35639 235.88011,168.12506 C 236.05204,167.8906 236.30839,167.70772 236.64914,167.57641 C 236.99302,167.44512 237.42912,167.36228 237.95744,167.32788 L 239.06411,167.25754 L 239.06411,167.10279 C 239.0641,166.64638 238.97344,166.32907 238.79213,166.15088 C 238.61081,165.97268 238.29194,165.8836 237.83552,165.88359 C 237.61669,165.8836 237.34471,165.93204 237.01959,166.02895 C 236.6976,166.12274 236.42562,166.23217 236.20366,166.35721 L 235.96451,165.73354 C 236.22711,165.57724 236.54754,165.45063 236.92581,165.3537 C 237.3072,165.25367 237.65577,165.20365 237.97151,165.20364 C 238.62175,165.20365 239.10162,165.35058 239.41111,165.64444 C 239.72372,165.93831 239.88003,166.38691 239.88004,166.99025 L 239.88004,169.04414 C 239.88003,169.55371 239.96913,169.94136 240.14732,170.20709 M 239.06411,168.80499 L 239.06411,167.87184 C 238.36384,167.91248 237.9043,167.9453 237.68547,167.9703 C 237.46976,167.9922 237.25874,168.04221 237.05242,168.12036 C 236.84609,168.19852 236.68978,168.3048 236.58349,168.43923 C 236.4772,168.57365 236.42406,168.7409 236.42406,168.94099 C 236.42406,169.14731 236.50377,169.31456 236.66321,169.44273 C 236.82264,169.56777 237.02741,169.6303 237.2775,169.6303 C 237.59637,169.6303 237.92305,169.55527 238.25756,169.40521 C 238.59205,169.25204 238.8609,169.05196 239.06411,168.80499 M 243.48607,168.1438 L 240.90698,168.1438 L 240.90698,167.34663 L 243.48607,167.34663 L 243.48607,168.1438 M 248.7521,169.76629 C 248.06122,170.14455 247.38596,170.33369 246.72635,170.33369 C 245.92917,170.33369 245.30706,170.10392 244.86002,169.64437 C 244.41298,169.18483 244.18946,168.55647 244.18946,167.75929 C 244.18946,166.9965 244.39579,166.38065 244.80844,165.91173 C 245.22422,165.43967 245.78537,165.20365 246.49188,165.20364 C 247.12649,165.20365 247.64544,165.42248 248.04872,165.86015 C 248.45199,166.29468 248.65362,166.87616 248.65363,167.60455 L 248.65363,167.82494 L 245.03353,167.82494 C 245.05853,168.40954 245.21484,168.85658 245.50245,169.16607 C 245.79318,169.47556 246.19802,169.6303 246.71697,169.6303 C 247.32657,169.6303 247.92523,169.45368 248.51295,169.10041 L 248.7521,169.76629 M 247.79081,167.1919 C 247.75016,166.79487 247.60636,166.47913 247.3594,166.24466 C 247.11242,166.01021 246.82013,165.89298 246.48251,165.89297 C 246.11049,165.89298 245.79944,166.00708 245.54934,166.23529 C 245.29925,166.46037 245.13669,166.77924 245.06166,167.1919 L 247.79081,167.1919 M 251.16707,172.12029 L 249.30543,172.12029 L 249.30543,171.44504 L 250.35114,171.44504 L 250.35114,164.0032 L 249.30543,164.0032 L 249.30543,163.33263 L 251.16707,163.33263 L 251.16707,172.12029"
     id="flowRoot5291" />
  <path
     style="font-size:12px;font-style:normal;font-variant:normal;font-weight:normal;font-stretch:normal;fill:#000000;fill-opacity:1;stroke:none;stroke-width:1px;stroke-linecap:butt;stroke-linejoin:miter;stroke-opacity:1;font-family:Sans;-inkscape-font-specification:Adobe Helvetica"
     d="M 59.48561,175.68785 C 59.4856,177.17223 59.25318,178.26989 58.78834,178.98082 C 58.3274,179.68785 57.636,180.03942 56.71412,180.03551 C 55.78443,180.03551 55.08912,179.68004 54.62819,178.9691 C 54.17115,178.25426 53.94264,177.16051 53.94264,175.68785 C 53.94264,174.2777 54.17311,173.21911 54.63405,172.51207 C 55.09498,171.80505 55.78834,171.45153 56.71412,171.45153 C 57.636,171.45153 58.3274,171.80505 58.78834,172.51207 C 59.25318,173.21911 59.4856,174.2777 59.48561,175.68785 M 56.71412,179.13317 C 57.27271,179.13317 57.69459,178.87731 57.97975,178.36559 C 58.2649,177.85387 58.40748,176.97692 58.40748,175.73473 C 58.40748,174.56286 58.27271,173.70739 58.00319,173.16832 C 57.73756,172.62536 57.30396,172.35388 56.70241,172.35387 C 56.14381,172.35388 55.72389,172.63708 55.44264,173.20348 C 55.16529,173.76599 55.02662,174.60973 55.02662,175.73473 C 55.02662,176.86754 55.16725,177.71715 55.4485,178.28356 C 55.72975,178.84996 56.15162,179.13317 56.71412,179.13317"
     id="flowRoot8210" />
  <path
     style="font-size:12px;font-style:normal;font-variant:normal;font-weight:normal;font-stretch:normal;fill:#000000;fill-opacity:1;stroke:none;stroke-width:1px;stroke-linecap:butt;stroke-linejoin:miter;stroke-opacity:1;font-family:Sans;-inkscape-font-specification:Adobe Helvetica"
     d="M 57.71022,222.41289 L 56.65553,222.41289 L 56.65553,215.53398 C 56.16334,216.02227 55.46022,216.26641 54.54616,216.2664 L 54.54616,215.28203 C 55.65943,215.28203 56.45826,214.87969 56.94264,214.075 L 57.71022,214.075 L 57.71022,222.41289"
     id="flowRoot8222" />
  <path
     style="font-size:12px;font-style:normal;font-variant:normal;font-weight:normal;font-stretch:normal;fill:#000000;fill-opacity:1;stroke:none;stroke-width:1px;stroke-linecap:butt;stroke-linejoin:miter;stroke-opacity:1;font-family:Sans;-inkscape-font-specification:Adobe Helvetica"
     d="M 59.35669,264.94846 L 53.8606,264.94846 L 53.8606,264.08713 C 54.83716,263.17307 55.64771,262.42893 56.29224,261.85471 C 56.93677,261.28049 57.40942,260.76487 57.71021,260.30783 C 58.01489,259.8469 58.16723,259.37815 58.16724,258.90158 C 58.16723,258.44846 58.01098,258.08909 57.69849,257.82346 C 57.38599,257.55784 56.98169,257.42503 56.4856,257.42502 C 55.802,257.42503 55.07935,257.62425 54.31763,258.02268 L 54.0188,257.18479 C 54.83521,256.74339 55.68677,256.52268 56.57349,256.52268 C 57.36645,256.52268 58.00903,256.74534 58.50122,257.19064 C 58.99731,257.63596 59.24536,258.20628 59.24536,258.90158 C 59.24536,259.42112 59.08716,259.93479 58.77075,260.4426 C 58.45434,260.95041 57.94067,261.52073 57.22974,262.15354 L 55.19068,263.98752 L 59.35669,263.98752 L 59.35669,264.94846"
     id="flowRoot8010" />
  <path
     style="font-size:12px;font-style:normal;font-variant:normal;font-weight:normal;font-stretch:normal;fill:#000000;fill-opacity:1;stroke:none;stroke-width:1px;stroke-linecap:butt;stroke-linejoin:miter;stroke-opacity:1;font-family:Sans;-inkscape-font-specification:Adobe Helvetica"
     d="M 198.12438,215.0623 L 195.24742,215.0623 L 195.24742,222.41582 L 194.16344,222.41582 L 194.16344,215.0623 L 191.30992,215.0623 L 191.30992,214.14824 L 198.12438,214.14824 L 198.12438,215.0623 M 204.96813,215.74199 C 204.65171,215.50371 204.25523,215.30645 203.77867,215.15019 C 203.30601,214.99395 202.85875,214.91582 202.43688,214.91582 C 201.79625,214.91582 201.28453,215.03497 200.90172,215.27324 C 200.51891,215.50762 200.3275,215.8084 200.3275,216.17558 C 200.3275,216.44121 200.4525,216.67754 200.7025,216.88457 C 200.9525,217.0916 201.5775,217.32988 202.5775,217.59941 C 203.24156,217.7791 203.77867,217.95098 204.18883,218.11504 C 204.60289,218.2752 204.9564,218.50957 205.24938,218.81816 C 205.54234,219.12285 205.68882,219.51738 205.68883,220.00175 C 205.68882,220.81035 205.36851,221.44121 204.72789,221.89433 C 204.08726,222.34746 203.31187,222.57402 202.40172,222.57402 C 201.19859,222.57402 200.10289,222.31425 199.11461,221.79472 L 199.43688,220.86894 C 200.43687,221.38847 201.40953,221.64824 202.35485,221.64824 C 203.02281,221.64824 203.56968,221.50761 203.99547,221.22636 C 204.42125,220.94512 204.63414,220.57793 204.63414,220.1248 C 204.63414,219.83965 204.53062,219.60332 204.32359,219.41582 C 204.11656,219.22441 203.85875,219.07207 203.55016,218.95879 C 203.24547,218.84551 202.8275,218.71465 202.29625,218.56621 C 201.6439,218.39043 201.11656,218.22246 200.71422,218.0623 C 200.31578,217.90215 199.97594,217.67363 199.69469,217.37675 C 199.41344,217.07598 199.27281,216.68731 199.27281,216.21074 C 199.27281,215.54278 199.55797,215.00567 200.12828,214.59941 C 200.69859,214.19317 201.46812,213.99004 202.43688,213.99004 C 202.90172,213.99004 203.40171,214.06622 203.93688,214.21855 C 204.47203,214.367 204.96031,214.57598 205.40172,214.8455 L 204.96813,215.74199"
     id="flowRoot5307" />
  <path
     style="font-size:12px;font-style:normal;font-variant:normal;font-weight:normal;font-stretch:normal;fill:#000000;fill-opacity:1;stroke:none;stroke-width:1px;stroke-linecap:butt;stroke-linejoin:miter;stroke-opacity:1;font-family:Sans;-inkscape-font-specification:Adobe Helvetica"
     d="M 262.95248,178.74842 C 262.57358,178.87733 262.27084,178.94178 262.04428,178.94178 C 261.51694,178.94178 261.13217,178.79334 260.88998,178.49647 C 260.6517,178.19959 260.53256,177.73475 260.53256,177.10194 L 260.53256,173.516 L 259.78842,173.516 L 259.78842,172.67811 L 260.53256,172.67811 L 260.53256,171.00819 L 261.55209,171.00819 L 261.55209,172.67811 L 262.72397,172.67811 L 262.72397,173.516 L 261.55209,173.516 L 261.55209,177.05506 C 261.55209,177.72694 261.75912,178.06288 262.17319,178.06287 C 262.35287,178.06288 262.55014,178.02381 262.76498,177.94569 L 262.95248,178.74842 M 266.29233,172.53162 C 267.17123,172.53163 267.86654,172.8246 268.37827,173.41053 C 268.89388,173.99647 269.1517,174.77186 269.1517,175.7367 C 269.1517,176.70155 268.89388,177.47694 268.37827,178.06287 C 267.86654,178.64881 267.17123,178.94178 266.29233,178.94178 C 265.40951,178.94178 264.7103,178.65077 264.19467,178.06873 C 263.68295,177.4828 263.42709,176.70545 263.42709,175.7367 C 263.42709,174.76405 263.68295,173.98671 264.19467,173.40467 C 264.7103,172.82265 265.40951,172.53163 266.29233,172.53162 M 266.29233,178.03944 C 266.84701,178.03944 267.28646,177.81678 267.61069,177.37147 C 267.9349,176.92616 268.09701,176.38124 268.09702,175.7367 C 268.09701,175.04139 267.93881,174.48475 267.62241,174.06678 C 267.3099,173.64491 266.86654,173.43397 266.29233,173.43397 C 265.7142,173.43397 265.26694,173.64296 264.95053,174.06092 C 264.63803,174.47889 264.48178,175.03749 264.48178,175.7367 C 264.48178,176.38514 264.64389,176.93202 264.96811,177.37733 C 265.29233,177.81873 265.73373,178.03944 266.29233,178.03944 M 277.28452,178.78358 L 276.22983,178.78358 L 276.22983,171.90467 C 275.73764,172.39296 275.03451,172.6371 274.12045,172.63709 L 274.12045,171.65272 C 275.23373,171.65273 276.03256,171.25038 276.51694,170.44569 L 277.28452,170.44569 L 277.28452,178.78358 M 285.73959,174.59412 C 285.73959,176.0785 285.50717,177.17616 285.04233,177.88709 C 284.58139,178.59412 283.88998,178.94569 282.96811,178.94178 C 282.03842,178.94178 281.34311,178.58631 280.88217,177.87537 C 280.42514,177.16053 280.19662,176.06678 280.19663,174.59412 C 280.19662,173.18397 280.42709,172.12538 280.88803,171.41834 C 281.34897,170.71132 282.04233,170.3578 282.96811,170.3578 C 283.88998,170.3578 284.58139,170.71132 285.04233,171.41834 C 285.50717,172.12538 285.73959,173.18397 285.73959,174.59412 M 282.96811,178.03944 C 283.5267,178.03944 283.94857,177.78358 284.23373,177.27186 C 284.51889,176.76014 284.66146,175.88319 284.66147,174.641 C 284.66146,173.46913 284.5267,172.61366 284.25717,172.07459 C 283.99154,171.53163 283.55795,171.26015 282.95639,171.26014 C 282.39779,171.26015 281.97787,171.54335 281.69663,172.10975 C 281.41928,172.67226 281.28061,173.516 281.28061,174.641 C 281.28061,175.77382 281.42123,176.62342 281.70248,177.18983 C 281.98373,177.75623 282.40561,178.03944 282.96811,178.03944"
     id="flowRoot8152" />
  <path
     style="font-size:12px;font-style:normal;font-variant:normal;font-weight:normal;font-stretch:normal;fill:#000000;fill-opacity:1;stroke:none;stroke-width:1px;stroke-linecap:butt;stroke-linejoin:miter;stroke-opacity:1;font-family:Sans;-inkscape-font-specification:Adobe Helvetica"
     d="M 262.95248,207.47531 C 262.57358,207.60422 262.27084,207.66867 262.04428,207.66867 C 261.51694,207.66867 261.13217,207.52023 260.88998,207.22336 C 260.6517,206.92648 260.53256,206.46164 260.53256,205.82883 L 260.53256,202.24289 L 259.78842,202.24289 L 259.78842,201.405 L 260.53256,201.405 L 260.53256,199.73508 L 261.55209,199.73508 L 261.55209,201.405 L 262.72397,201.405 L 262.72397,202.24289 L 261.55209,202.24289 L 261.55209,205.78195 C 261.55209,206.45383 261.75912,206.78976 262.17319,206.78976 C 262.35287,206.78976 262.55014,206.7507 262.76498,206.67258 L 262.95248,207.47531 M 266.29233,201.25851 C 267.17123,201.25852 267.86654,201.55149 268.37827,202.13742 C 268.89388,202.72336 269.1517,203.49875 269.1517,204.46359 C 269.1517,205.42844 268.89388,206.20383 268.37827,206.78976 C 267.86654,207.3757 267.17123,207.66867 266.29233,207.66867 C 265.40951,207.66867 264.7103,207.37766 264.19467,206.79562 C 263.68295,206.20969 263.42709,205.43234 263.42709,204.46359 C 263.42709,203.49094 263.68295,202.7136 264.19467,202.13156 C 264.7103,201.54954 265.40951,201.25852 266.29233,201.25851 M 266.29233,206.76633 C 266.84701,206.76633 267.28646,206.54367 267.61069,206.09836 C 267.9349,205.65305 268.09701,205.10813 268.09702,204.46359 C 268.09701,203.76828 267.93881,203.21164 267.62241,202.79367 C 267.3099,202.3718 266.86654,202.16086 266.29233,202.16086 C 265.7142,202.16086 265.26694,202.36985 264.95053,202.78781 C 264.63803,203.20578 264.48178,203.76438 264.48178,204.46359 C 264.48178,205.11203 264.64389,205.65891 264.96811,206.10422 C 265.29233,206.54562 265.73373,206.76633 266.29233,206.76633 M 280.70639,207.51047 L 279.45834,207.51047 L 276.97397,203.98312 L 274.48959,207.51047 L 273.24155,207.51047 L 276.36459,203.11594 L 273.62827,199.24289 L 274.84116,199.24289 L 276.97397,202.25461 L 279.12436,199.24289 L 280.30795,199.24289 L 277.5892,203.10422 L 280.70639,207.51047 M 287.07553,203.32101 C 287.07553,204.80539 286.8431,205.90305 286.37827,206.61398 C 285.91732,207.32101 285.22592,207.67258 284.30405,207.66867 C 283.37436,207.66867 282.67905,207.3132 282.21811,206.60226 C 281.76108,205.88742 281.53256,204.79367 281.53256,203.32101 C 281.53256,201.91086 281.76303,200.85227 282.22397,200.14523 C 282.6849,199.43821 283.37826,199.08469 284.30405,199.08469 C 285.22592,199.08469 285.91732,199.43821 286.37827,200.14523 C 286.8431,200.85227 287.07553,201.91086 287.07553,203.32101 M 284.30405,206.76633 C 284.86264,206.76633 285.28451,206.51047 285.56967,205.99875 C 285.85482,205.48703 285.9974,204.61008 285.99741,203.36789 C 285.9974,202.19602 285.86264,201.34055 285.59311,200.80148 C 285.32748,200.25852 284.89389,199.98704 284.29233,199.98703 C 283.73373,199.98704 283.31381,200.27024 283.03256,200.83664 C 282.75522,201.39915 282.61655,202.24289 282.61655,203.36789 C 282.61655,204.50071 282.75717,205.35031 283.03842,205.91672 C 283.31967,206.48312 283.74154,206.76633 284.30405,206.76633 M 290.79623,209.90109 L 288.4642,209.90109 L 288.4642,198.79758 L 290.79623,198.79758 L 290.79623,199.64133 L 289.48373,199.64133 L 289.48373,209.05734 L 290.79623,209.05734 L 290.79623,209.90109 M 292.82358,207.51047 L 291.80405,207.51047 L 291.80405,201.405 L 292.82358,201.405 L 292.82358,207.51047 M 292.30795,198.79758 C 292.47983,198.79758 292.62631,198.86008 292.74741,198.98508 C 292.8724,199.10618 292.9349,199.25266 292.93491,199.42453 C 292.9349,199.5886 292.8724,199.73118 292.74741,199.85226 C 292.62631,199.97337 292.47983,200.03391 292.30795,200.03391 C 292.14389,200.03391 292.00131,199.97337 291.88022,199.85226 C 291.75912,199.73118 291.69858,199.5886 291.69858,199.42453 C 291.69858,199.24876 291.75717,199.10032 291.87436,198.97922 C 291.99545,198.85813 292.13998,198.79758 292.30795,198.79758 M 296.16928,209.90109 L 293.84311,209.90109 L 293.84311,209.05734 L 295.14975,209.05734 L 295.14975,199.75851 L 293.84311,199.75851 L 293.84311,198.92062 L 296.16928,198.92062 L 296.16928,209.90109"
     id="flowRoot8160" />
  <path
     style="font-size:12px;font-style:normal;font-variant:normal;font-weight:normal;font-stretch:normal;fill:#000000;fill-opacity:1;stroke:none;stroke-width:1px;stroke-linecap:butt;stroke-linejoin:miter;stroke-opacity:1;font-family:Sans;-inkscape-font-specification:Adobe Helvetica"
     d="M 262.95248,235.58836 C 262.57358,235.71727 262.27084,235.78172 262.04428,235.78172 C 261.51694,235.78172 261.13217,235.63328 260.88998,235.33641 C 260.6517,235.03953 260.53256,234.57469 260.53256,233.94188 L 260.53256,230.35594 L 259.78842,230.35594 L 259.78842,229.51805 L 260.53256,229.51805 L 260.53256,227.84813 L 261.55209,227.84813 L 261.55209,229.51805 L 262.72397,229.51805 L 262.72397,230.35594 L 261.55209,230.35594 L 261.55209,233.895 C 261.55209,234.56688 261.75912,234.90282 262.17319,234.90281 C 262.35287,234.90282 262.55014,234.86375 262.76498,234.78563 L 262.95248,235.58836 M 266.29233,229.37156 C 267.17123,229.37157 267.86654,229.66454 268.37827,230.25047 C 268.89388,230.83641 269.1517,231.6118 269.1517,232.57664 C 269.1517,233.54149 268.89388,234.31688 268.37827,234.90281 C 267.86654,235.48875 267.17123,235.78172 266.29233,235.78172 C 265.40951,235.78172 264.7103,235.49071 264.19467,234.90867 C 263.68295,234.32274 263.42709,233.54539 263.42709,232.57664 C 263.42709,231.60399 263.68295,230.82665 264.19467,230.24461 C 264.7103,229.66259 265.40951,229.37157 266.29233,229.37156 M 266.29233,234.87938 C 266.84701,234.87938 267.28646,234.65672 267.61069,234.21141 C 267.9349,233.7661 268.09701,233.22118 268.09702,232.57664 C 268.09701,231.88133 267.93881,231.32469 267.62241,230.90672 C 267.3099,230.48485 266.86654,230.27391 266.29233,230.27391 C 265.7142,230.27391 265.26694,230.4829 264.95053,230.90086 C 264.63803,231.31883 264.48178,231.87743 264.48178,232.57664 C 264.48178,233.22508 264.64389,233.77196 264.96811,234.21727 C 265.29233,234.65867 265.73373,234.87938 266.29233,234.87938 M 280.70639,235.62352 L 279.45834,235.62352 L 276.97397,232.09617 L 274.48959,235.62352 L 273.24155,235.62352 L 276.36459,231.22899 L 273.62827,227.35594 L 274.84116,227.35594 L 276.97397,230.36766 L 279.12436,227.35594 L 280.30795,227.35594 L 277.5892,231.21727 L 280.70639,235.62352 M 285.30014,235.62352 L 284.24545,235.62352 L 284.24545,228.74461 C 283.75326,229.2329 283.05014,229.47704 282.13608,229.47703 L 282.13608,228.49266 C 283.24936,228.49267 284.04818,228.09032 284.53256,227.28563 L 285.30014,227.28563 L 285.30014,235.62352 M 290.79623,238.01414 L 288.4642,238.01414 L 288.4642,226.91063 L 290.79623,226.91063 L 290.79623,227.75438 L 289.48373,227.75438 L 289.48373,237.17039 L 290.79623,237.17039 L 290.79623,238.01414 M 292.82358,235.62352 L 291.80405,235.62352 L 291.80405,229.51805 L 292.82358,229.51805 L 292.82358,235.62352 M 292.30795,226.91063 C 292.47983,226.91064 292.62631,226.97314 292.74741,227.09813 C 292.8724,227.21923 292.9349,227.36571 292.93491,227.53758 C 292.9349,227.70165 292.8724,227.84423 292.74741,227.96531 C 292.62631,228.08642 292.47983,228.14696 292.30795,228.14696 C 292.14389,228.14696 292.00131,228.08642 291.88022,227.96531 C 291.75912,227.84423 291.69858,227.70165 291.69858,227.53758 C 291.69858,227.36181 291.75717,227.21337 291.87436,227.09227 C 291.99545,226.97118 292.13998,226.91064 292.30795,226.91063 M 296.16928,238.01414 L 293.84311,238.01414 L 293.84311,237.17039 L 295.14975,237.17039 L 295.14975,227.87156 L 293.84311,227.87156 L 293.84311,227.03367 L 296.16928,227.03367 L 296.16928,238.01414"
     id="flowRoot8168" />
  <path
     style="font-size:12px;font-style:normal;font-variant:normal;font-weight:normal;font-stretch:normal;fill:#000000;fill-opacity:1;stroke:none;stroke-width:1px;stroke-linecap:butt;stroke-linejoin:miter;stroke-opacity:1;font-family:Sans;-inkscape-font-specification:Adobe Helvetica"
     d="M 262.95248,263.82544 C 262.57358,263.95435 262.27084,264.0188 262.04428,264.0188 C 261.51694,264.0188 261.13217,263.87036 260.88998,263.57349 C 260.6517,263.27661 260.53256,262.81177 260.53256,262.17896 L 260.53256,258.59302 L 259.78842,258.59302 L 259.78842,257.75513 L 260.53256,257.75513 L 260.53256,256.08521 L 261.55209,256.08521 L 261.55209,257.75513 L 262.72397,257.75513 L 262.72397,258.59302 L 261.55209,258.59302 L 261.55209,262.13208 C 261.55209,262.80396 261.75912,263.1399 262.17319,263.13989 C 262.35287,263.1399 262.55014,263.10083 262.76498,263.02271 L 262.95248,263.82544 M 266.29233,257.60864 C 267.17123,257.60865 267.86654,257.90162 268.37827,258.48755 C 268.89388,259.07349 269.1517,259.84888 269.1517,260.81372 C 269.1517,261.77857 268.89388,262.55396 268.37827,263.13989 C 267.86654,263.72583 267.17123,264.0188 266.29233,264.0188 C 265.40951,264.0188 264.7103,263.72779 264.19467,263.14575 C 263.68295,262.55982 263.42709,261.78247 263.42709,260.81372 C 263.42709,259.84107 263.68295,259.06373 264.19467,258.48169 C 264.7103,257.89967 265.40951,257.60865 266.29233,257.60864 M 266.29233,263.11646 C 266.84701,263.11646 267.28646,262.8938 267.61069,262.44849 C 267.9349,262.00318 268.09701,261.45826 268.09702,260.81372 C 268.09701,260.11841 267.93881,259.56177 267.62241,259.1438 C 267.3099,258.72193 266.86654,258.51099 266.29233,258.51099 C 265.7142,258.51099 265.26694,258.71998 264.95053,259.13794 C 264.63803,259.55591 264.48178,260.11451 264.48178,260.81372 C 264.48178,261.46216 264.64389,262.00904 264.96811,262.45435 C 265.29233,262.89575 265.73373,263.11646 266.29233,263.11646 M 277.28452,263.8606 L 276.22983,263.8606 L 276.22983,256.98169 C 275.73764,257.46998 275.03451,257.71412 274.12045,257.71411 L 274.12045,256.72974 C 275.23373,256.72974 276.03256,256.3274 276.51694,255.52271 L 277.28452,255.52271 L 277.28452,263.8606 M 285.61069,263.8606 L 280.11459,263.8606 L 280.11459,262.99927 C 281.09115,262.08521 281.9017,261.34107 282.54623,260.76685 C 283.19076,260.19263 283.66342,259.67701 283.9642,259.21997 C 284.26889,258.75904 284.42123,258.29029 284.42123,257.81372 C 284.42123,257.3606 284.26498,257.00123 283.95248,256.7356 C 283.63998,256.46998 283.23568,256.33717 282.73959,256.33716 C 282.056,256.33717 281.33334,256.53639 280.57163,256.93482 L 280.2728,256.09692 C 281.0892,255.65553 281.94076,255.43482 282.82748,255.43482 C 283.62045,255.43482 284.26303,255.65748 284.75522,256.10278 C 285.25131,256.54811 285.49935,257.11842 285.49936,257.81372 C 285.49935,258.33326 285.34115,258.84693 285.02475,259.35474 C 284.70834,259.86255 284.19467,260.43287 283.48373,261.06567 L 281.44467,262.89966 L 285.61069,262.89966 L 285.61069,263.8606"
     id="flowRoot8018" />
  <path
     style="fill:#ffffff;fill-opacity:1;fill-rule:evenodd;stroke:#000000;stroke-width:1.25;stroke-linejoin:round;stroke-miterlimit:4;stroke-dashoffset:0;stroke-opacity:1"
     d="M 99.249687,167.90771 L 127.60674,167.90771 L 127.60674,183.09069 L 99.249687,183.09069 L 99.249687,167.90771 z"
     id="rect8256" />
  <path
     style="fill:#ffffff;fill-opacity:1;fill-rule:evenodd;stroke:#000000;stroke-width:1.25;stroke-linejoin:round;stroke-miterlimit:4;stroke-dashoffset:0;stroke-opacity:1"
     d="M 99.249687,210.13538 L 127.60674,210.13538 L 127.60674,225.31835 L 99.249687,225.31835 L 99.249687,210.13538 z"
     id="rect8258" />
  <path
     style="fill:#ffffff;fill-opacity:1;fill-rule:evenodd;stroke:#000000;stroke-width:1.25;stroke-linejoin:round;stroke-miterlimit:4;stroke-dashoffset:0;stroke-opacity:1"
     d="M 99.249687,253.31197 L 127.60674,253.31197 L 127.60674,268.49494 L 99.249687,268.49494 L 99.249687,253.31197 z"
     id="rect8254" />
  <path
     style="font-size:12px;font-style:normal;font-variant:normal;font-weight:normal;font-stretch:normal;fill:#000000;fill-opacity:1;stroke:none;stroke-width:1px;stroke-linecap:butt;stroke-linejoin:miter;stroke-opacity:1;font-family:Sans;-inkscape-font-specification:Adobe Helvetica"
     d="M 107.02098,179.77362 L 106.00145,179.77362 L 106.00145,173.66815 L 107.02098,173.66815 L 107.02098,179.77362 M 106.50536,171.06073 C 106.67723,171.06074 106.82372,171.12324 106.94481,171.24823 C 107.06981,171.36933 107.13231,171.51581 107.13231,171.68768 C 107.13231,171.85175 107.06981,171.99433 106.94481,172.11541 C 106.82372,172.23652 106.67723,172.29706 106.50536,172.29705 C 106.34129,172.29706 106.19872,172.23652 106.07762,172.11541 C 105.95653,171.99433 105.89598,171.85175 105.89598,171.68768 C 105.89598,171.51191 105.95458,171.36347 106.07176,171.24237 C 106.19286,171.12128 106.33739,171.06074 106.50536,171.06073 M 114.19286,174.96307 L 108.50926,174.96307 L 108.50926,174.04901 L 114.19286,174.04901 L 114.19286,174.96307 M 114.19286,177.50604 L 108.50926,177.50604 L 108.50926,176.59198 L 114.19286,176.59198 L 114.19286,177.50604 M 120.96044,175.58416 C 120.96043,177.06854 120.72801,178.1662 120.26317,178.87713 C 119.80223,179.58416 119.11082,179.93573 118.18895,179.93182 C 117.25926,179.93182 116.56395,179.57635 116.10301,178.86541 C 115.64598,178.15057 115.41747,177.05682 115.41747,175.58416 C 115.41747,174.17401 115.64794,173.11542 116.10887,172.40838 C 116.56981,171.70136 117.26317,171.34784 118.18895,171.34784 C 119.11082,171.34784 119.80223,171.70136 120.26317,172.40838 C 120.72801,173.11542 120.96043,174.17401 120.96044,175.58416 M 118.18895,179.02948 C 118.74754,179.02948 119.16942,178.77362 119.45458,178.2619 C 119.73973,177.75018 119.88231,176.87323 119.88231,175.63104 C 119.88231,174.45917 119.74754,173.6037 119.47801,173.06463 C 119.21239,172.52167 118.77879,172.25019 118.17723,172.25018 C 117.61864,172.25019 117.19872,172.53339 116.91747,173.09979 C 116.64012,173.6623 116.50145,174.50604 116.50145,175.63104 C 116.50145,176.76385 116.64208,177.61346 116.92333,178.17987 C 117.20457,178.74627 117.62645,179.02948 118.18895,179.02948"
     id="flowRoot8230" />
  <path
     style="font-size:12px;font-style:normal;font-variant:normal;font-weight:normal;font-stretch:normal;fill:#000000;fill-opacity:1;stroke:none;stroke-width:1px;stroke-linecap:butt;stroke-linejoin:miter;stroke-opacity:1;font-family:Sans;-inkscape-font-specification:Adobe Helvetica"
     d="M 107.90868,222.08331 L 106.88915,222.08331 L 106.88915,215.97784 L 107.90868,215.97784 L 107.90868,222.08331 M 107.39306,213.37042 C 107.56493,213.37043 107.71142,213.43293 107.83251,213.55792 C 107.95751,213.67902 108.02001,213.8255 108.02001,213.99737 C 108.02001,214.16144 107.95751,214.30402 107.83251,214.4251 C 107.71142,214.54621 107.56493,214.60675 107.39306,214.60674 C 107.22899,214.60675 107.08642,214.54621 106.96532,214.4251 C 106.84423,214.30402 106.78368,214.16144 106.78368,213.99737 C 106.78368,213.8216 106.84228,213.67316 106.95946,213.55206 C 107.08056,213.43097 107.22509,213.37043 107.39306,213.37042 M 115.08056,217.27276 L 109.39696,217.27276 L 109.39696,216.3587 L 115.08056,216.3587 L 115.08056,217.27276 M 115.08056,219.81573 L 109.39696,219.81573 L 109.39696,218.90167 L 115.08056,218.90167 L 115.08056,219.81573 M 120.07275,222.08331 L 119.01806,222.08331 L 119.01806,215.2044 C 118.52587,215.69269 117.82274,215.93683 116.90868,215.93682 L 116.90868,214.95245 C 118.02196,214.95245 118.82079,214.55011 119.30517,213.74542 L 120.07275,213.74542 L 120.07275,222.08331"
     id="flowRoot8238" />
  <path
     style="font-size:12px;font-style:normal;font-variant:normal;font-weight:normal;font-stretch:normal;fill:#000000;fill-opacity:1;stroke:none;stroke-width:1px;stroke-linecap:butt;stroke-linejoin:miter;stroke-opacity:1;font-family:Sans;-inkscape-font-specification:Adobe Helvetica"
     d="M 107.08544,265.2599 L 106.06591,265.2599 L 106.06591,259.15443 L 107.08544,259.15443 L 107.08544,265.2599 M 106.56982,256.54701 C 106.74169,256.54702 106.88818,256.60952 107.00927,256.73451 C 107.13427,256.85561 107.19677,257.00209 107.19677,257.17396 C 107.19677,257.33803 107.13427,257.48061 107.00927,257.60169 C 106.88818,257.7228 106.74169,257.78334 106.56982,257.78333 C 106.40575,257.78334 106.26318,257.7228 106.14208,257.60169 C 106.02099,257.48061 105.96044,257.33803 105.96044,257.17396 C 105.96044,256.99819 106.01904,256.84975 106.13622,256.72865 C 106.25732,256.60756 106.40185,256.54702 106.56982,256.54701 M 114.25732,260.44935 L 108.57372,260.44935 L 108.57372,259.53529 L 114.25732,259.53529 L 114.25732,260.44935 M 114.25732,262.99232 L 108.57372,262.99232 L 108.57372,262.07826 L 114.25732,262.07826 L 114.25732,262.99232 M 120.89599,265.2599 L 115.3999,265.2599 L 115.3999,264.39857 C 116.37646,263.48451 117.187,262.74037 117.83154,262.16615 C 118.47606,261.59193 118.94872,261.07631 119.24951,260.61927 C 119.55419,260.15834 119.70653,259.68959 119.70654,259.21302 C 119.70653,258.7599 119.55028,258.40053 119.23779,258.1349 C 118.92528,257.86928 118.52099,257.73647 118.0249,257.73646 C 117.3413,257.73647 116.61864,257.93569 115.85693,258.33412 L 115.5581,257.49623 C 116.3745,257.05483 117.22607,256.83412 118.11279,256.83412 C 118.90575,256.83412 119.54833,257.05678 120.04052,257.50208 C 120.53661,257.9474 120.78466,258.51772 120.78466,259.21302 C 120.78466,259.73256 120.62645,260.24623 120.31005,260.75404 C 119.99364,261.26185 119.47997,261.83217 118.76904,262.46498 L 116.72997,264.29896 L 120.89599,264.29896 L 120.89599,265.2599"
     id="flowRoot8246" />
  <path
     id="path8262"
     d="M 127.60674,175.74644 C 155.96379,175.74644 155.96379,218.28202 184.32084,218.28202"
     style="fill:none;fill-rule:evenodd;stroke:#000000;stroke-width:1.00037384;stroke-linecap:butt;stroke-linejoin:miter;marker-end:url(#Arrow2Lend);stroke-miterlimit:4;stroke-dasharray:none;stroke-opacity:1"
     sodipodi:nodetypes="cc" />
  <path
     sodipodi:nodetypes="cc"
     style="fill:none;fill-rule:evenodd;stroke:#000000;stroke-width:1.00037384;stroke-linecap:butt;stroke-linejoin:miter;marker-end:url(#Arrow2Lend);stroke-miterlimit:4;stroke-dasharray:none;stroke-opacity:1"
     d="M 127.60674,260.8176 C 155.96379,260.8176 155.96379,218.28202 184.32084,218.28202"
     id="path8260" />
  <path
     id="path8266"
     d="M 70.892634,175.74644 L 99.249687,175.74644"
     style="fill:none;fill-rule:evenodd;stroke:#000000;stroke-width:1px;stroke-linecap:butt;stroke-linejoin:miter;stroke-opacity:1" />
  <path
     id="path8268"
     d="M 70.892634,218.28202 L 99.249687,218.28202"
     style="fill:none;fill-rule:evenodd;stroke:#000000;stroke-width:1px;stroke-linecap:butt;stroke-linejoin:miter;stroke-opacity:1" />
  <path
     style="fill:none;fill-rule:evenodd;stroke:#000000;stroke-width:1px;stroke-linecap:butt;stroke-linejoin:miter;stroke-opacity:1"
     d="M 70.892634,260.8176 L 99.249687,260.8176"
     id="path8264" />
  <path
     style="font-size:12px;font-style:normal;font-variant:normal;font-weight:bold;font-stretch:normal;text-align:start;line-height:125%;writing-mode:lr-tb;text-anchor:start;fill:#000000;fill-opacity:1;stroke:none;stroke-width:1px;stroke-linecap:butt;stroke-linejoin:miter;stroke-opacity:1;font-family:Sans;-inkscape-font-specification:Sans Bold"
     d="M 384.40877,176.3766 C 385.31893,176.3766 386.01814,176.71059 386.50643,177.37855 C 386.99861,178.04652 387.24471,179.14027 387.24471,180.6598 C 387.24471,182.18715 386.99861,183.28675 386.50643,183.95863 C 386.01814,184.6266 385.31893,184.96058 384.40877,184.96058 C 383.49862,184.96058 382.7994,184.62074 382.31112,183.94105 C 381.82284,183.26136 381.5787,182.16761 381.5787,180.6598 C 381.5787,179.13637 381.82284,178.04262 382.31112,177.37855 C 382.8033,176.71059 383.50252,176.3766 384.40877,176.3766 M 384.40877,183.57777 C 384.79549,183.57777 385.08455,183.35316 385.27596,182.90394 C 385.46736,182.45082 385.56307,181.70277 385.56307,180.6598 C 385.56307,179.5973 385.46736,178.84926 385.27596,178.41566 C 385.08455,177.97817 384.79158,177.75942 384.39706,177.75941 C 384.01424,177.75942 383.72908,177.97817 383.54159,178.41566 C 383.35408,178.85316 383.26033,179.60121 383.26034,180.6598 C 383.26033,181.70277 383.35408,182.45082 383.54159,182.90394 C 383.73299,183.35316 384.02205,183.57777 384.40877,183.57777"
     id="flowRoot2587" />
  <path
     style="font-size:12px;font-style:normal;font-variant:normal;font-weight:bold;font-stretch:normal;text-align:start;line-height:125%;writing-mode:lr-tb;text-anchor:start;fill:#000000;fill-opacity:1;stroke:none;stroke-width:1px;stroke-linecap:butt;stroke-linejoin:miter;stroke-opacity:1;font-family:Sans;-inkscape-font-specification:Sans Bold"
     d="M 412.88913,184.80238 L 411.23093,184.80238 L 411.23093,178.40394 C 410.76217,178.89223 410.0278,179.13637 409.0278,179.13636 L 409.0278,177.67152 C 410.30124,177.67152 411.18405,177.26918 411.67624,176.46449 L 412.88913,176.46449 L 412.88913,184.80238"
     id="flowRoot2595" />
  <path
     style="font-size:12px;font-style:normal;font-variant:normal;font-weight:bold;font-stretch:normal;text-align:start;line-height:125%;writing-mode:lr-tb;text-anchor:start;fill:#000000;fill-opacity:1;stroke:none;stroke-width:1px;stroke-linecap:butt;stroke-linejoin:miter;stroke-opacity:1;font-family:Sans;-inkscape-font-specification:Sans Bold"
     d="M 439.96488,184.80238 L 434.39848,184.80238 L 434.39848,183.46058 C 434.86332,183.00746 435.47074,182.443 436.22074,181.76722 C 436.97465,181.09144 437.48832,180.56019 437.76176,180.17347 C 438.0391,179.78285 438.17777,179.36098 438.17778,178.90785 C 438.17777,178.5602 438.0723,178.28285 437.86137,178.07581 C 437.65043,177.86488 437.35551,177.75942 436.9766,177.75941 C 436.31645,177.75942 435.61332,177.97035 434.86723,178.39222 L 434.45707,177.10902 C 435.3477,176.62074 436.21684,176.3766 437.06449,176.3766 C 437.92777,176.3766 438.60941,176.59926 439.10942,177.04456 C 439.60941,177.48988 439.85941,178.09145 439.85942,178.84925 C 439.85941,179.38051 439.69535,179.88832 439.36723,180.37269 C 439.0391,180.85316 438.5723,181.35512 437.96684,181.87855 C 437.36137,182.40199 436.80863,182.89613 436.30864,183.36097 L 439.96488,183.36097 L 439.96488,184.80238"
     id="flowRoot2603" />
  <path
     style="font-size:12px;font-style:normal;font-variant:normal;font-weight:normal;font-stretch:normal;fill:#000000;fill-opacity:1;stroke:none;stroke-width:1px;stroke-linecap:butt;stroke-linejoin:miter;stroke-opacity:1;font-family:Sans;-inkscape-font-specification:Adobe Helvetica"
     d="M 383.26234,207.9414 L 382.20765,207.9414 L 382.20765,201.06249 C 381.71546,201.55078 381.01234,201.79492 380.09828,201.79491 L 380.09828,200.81054 C 381.21155,200.81054 382.01038,200.4082 382.49476,199.60351 L 383.26234,199.60351 L 383.26234,207.9414 M 389.0514,207.9414 L 387.99671,207.9414 L 387.99671,201.06249 C 387.50452,201.55078 386.8014,201.79492 385.88734,201.79491 L 385.88734,200.81054 C 387.00062,200.81054 387.79944,200.4082 388.28382,199.60351 L 389.0514,199.60351 L 389.0514,207.9414"
     id="flowRoot2643" />
  <path
     style="font-size:12px;font-style:normal;font-variant:normal;font-weight:normal;font-stretch:normal;fill:#000000;fill-opacity:1;stroke:none;stroke-width:1px;stroke-linecap:butt;stroke-linejoin:miter;stroke-opacity:1;font-family:Sans;-inkscape-font-specification:Adobe Helvetica"
     d="M 408.38235,207.9414 L 407.32766,207.9414 L 407.32766,201.06249 C 406.83547,201.55078 406.13235,201.79492 405.21829,201.79491 L 405.21829,200.81054 C 406.33156,200.81054 407.13039,200.4082 407.61477,199.60351 L 408.38235,199.60351 L 408.38235,207.9414 M 416.83743,203.75194 C 416.83742,205.23632 416.605,206.33398 416.14016,207.04491 C 415.67922,207.75194 414.98781,208.10351 414.06594,208.0996 C 413.13625,208.0996 412.44094,207.74413 411.98,207.03319 C 411.52297,206.31835 411.29446,205.2246 411.29446,203.75194 C 411.29446,202.34179 411.52493,201.2832 411.98586,200.57616 C 412.4468,199.86914 413.14016,199.51562 414.06594,199.51562 C 414.98781,199.51562 415.67922,199.86914 416.14016,200.57616 C 416.605,201.2832 416.83742,202.34179 416.83743,203.75194 M 414.06594,207.19726 C 414.62453,207.19726 415.04641,206.9414 415.33157,206.42968 C 415.61672,205.91796 415.7593,205.04101 415.7593,203.79882 C 415.7593,202.62695 415.62453,201.77148 415.355,201.23241 C 415.08938,200.68945 414.65578,200.41797 414.05422,200.41796 C 413.49563,200.41797 413.07571,200.70117 412.79446,201.26757 C 412.51711,201.83008 412.37844,202.67382 412.37844,203.79882 C 412.37844,204.93163 412.51907,205.78124 412.80032,206.34765 C 413.08156,206.91405 413.50344,207.19726 414.06594,207.19726"
     id="flowRoot2651" />
  <path
     style="font-size:12px;font-style:normal;font-variant:normal;font-weight:normal;font-stretch:normal;fill:#000000;fill-opacity:1;stroke:none;stroke-width:1px;stroke-linecap:butt;stroke-linejoin:miter;stroke-opacity:1;font-family:Sans;-inkscape-font-specification:Adobe Helvetica"
     d="M 437.54403,207.9414 L 432.04794,207.9414 L 432.04794,207.08007 C 433.0245,206.16601 433.83505,205.42187 434.47958,204.84765 C 435.12411,204.27343 435.59676,203.75781 435.89755,203.30077 C 436.20223,202.83984 436.35457,202.37109 436.35458,201.89452 C 436.35457,201.4414 436.19832,201.08203 435.88583,200.8164 C 435.57333,200.55078 435.16903,200.41797 434.67294,200.41796 C 433.98934,200.41797 433.26669,200.61719 432.50497,201.01562 L 432.20614,200.17773 C 433.02255,199.73633 433.87411,199.51562 434.76083,199.51562 C 435.55379,199.51562 436.19637,199.73828 436.68856,200.18358 C 437.18465,200.6289 437.4327,201.19922 437.4327,201.89452 C 437.4327,202.41406 437.2745,202.92773 436.9581,203.43554 C 436.64168,203.94335 436.12801,204.51367 435.41708,205.14648 L 433.37802,206.98046 L 437.54403,206.98046 L 437.54403,207.9414 M 442.57724,207.9414 L 441.52255,207.9414 L 441.52255,201.06249 C 441.03036,201.55078 440.32723,201.79492 439.41317,201.79491 L 439.41317,200.81054 C 440.52645,200.81054 441.32528,200.4082 441.80966,199.60351 L 442.57724,199.60351 L 442.57724,207.9414"
     id="flowRoot2659" />
  <path
     style="font-size:12px;font-style:normal;font-variant:normal;font-weight:normal;font-stretch:normal;fill:#000000;fill-opacity:1;stroke:none;stroke-width:1px;stroke-linecap:butt;stroke-linejoin:miter;stroke-opacity:1;font-family:Sans;-inkscape-font-specification:Adobe Helvetica"
     d="M 381.99379,236.29846 L 380.9391,236.29846 L 380.9391,229.41955 C 380.44691,229.90784 379.74379,230.15198 378.82973,230.15197 L 378.82973,229.1676 C 379.943,229.1676 380.74183,228.76526 381.22621,227.96057 L 381.99379,227.96057 L 381.99379,236.29846 M 390.31996,236.29846 L 384.82387,236.29846 L 384.82387,235.43713 C 385.80043,234.52307 386.61097,233.77893 387.25551,233.20471 C 387.90003,232.63049 388.37269,232.11487 388.67348,231.65783 C 388.97816,231.1969 389.1305,230.72815 389.13051,230.25158 C 389.1305,229.79846 388.97425,229.43909 388.66176,229.17346 C 388.34925,228.90784 387.94496,228.77503 387.44887,228.77502 C 386.76527,228.77503 386.04261,228.97425 385.2809,229.37268 L 384.98207,228.53479 C 385.79847,228.09339 386.65004,227.87268 387.53676,227.87268 C 388.32972,227.87268 388.9723,228.09534 389.46449,228.54064 C 389.96058,228.98596 390.20863,229.55628 390.20863,230.25158 C 390.20863,230.77112 390.05042,231.28479 389.73402,231.7926 C 389.41761,232.30041 388.90394,232.87073 388.19301,233.50354 L 386.15394,235.33752 L 390.31996,235.33752 L 390.31996,236.29846"
     id="flowRoot2619" />
  <path
     style="font-size:12px;font-style:normal;font-variant:normal;font-weight:normal;font-stretch:normal;fill:#000000;fill-opacity:1;stroke:none;stroke-width:1px;stroke-linecap:butt;stroke-linejoin:miter;stroke-opacity:1;font-family:Sans;-inkscape-font-specification:Adobe Helvetica"
     d="M 410.43605,236.29846 L 404.93996,236.29846 L 404.93996,235.43713 C 405.91652,234.52307 406.72707,233.77893 407.3716,233.20471 C 408.01613,232.63049 408.48878,232.11487 408.78957,231.65783 C 409.09425,231.1969 409.24659,230.72815 409.2466,230.25158 C 409.24659,229.79846 409.09034,229.43909 408.77785,229.17346 C 408.46535,228.90784 408.06105,228.77503 407.56496,228.77502 C 406.88136,228.77503 406.15871,228.97425 405.39699,229.37268 L 405.09816,228.53479 C 405.91457,228.09339 406.76613,227.87268 407.65285,227.87268 C 408.44581,227.87268 409.08839,228.09534 409.58058,228.54064 C 410.07667,228.98596 410.32472,229.55628 410.32472,230.25158 C 410.32472,230.77112 410.16652,231.28479 409.85012,231.7926 C 409.5337,232.30041 409.02003,232.87073 408.3091,233.50354 L 406.27004,235.33752 L 410.43605,235.33752 L 410.43605,236.29846 M 417.11574,236.29846 L 411.61965,236.29846 L 411.61965,235.43713 C 412.59621,234.52307 413.40675,233.77893 414.05129,233.20471 C 414.69581,232.63049 415.16847,232.11487 415.46926,231.65783 C 415.77394,231.1969 415.92628,230.72815 415.92629,230.25158 C 415.92628,229.79846 415.77003,229.43909 415.45754,229.17346 C 415.14503,228.90784 414.74074,228.77503 414.24465,228.77502 C 413.56105,228.77503 412.83839,228.97425 412.07668,229.37268 L 411.77785,228.53479 C 412.59425,228.09339 413.44582,227.87268 414.33254,227.87268 C 415.1255,227.87268 415.76808,228.09534 416.26027,228.54064 C 416.75636,228.98596 417.00441,229.55628 417.00441,230.25158 C 417.00441,230.77112 416.8462,231.28479 416.5298,231.7926 C 416.21339,232.30041 415.69972,232.87073 414.98879,233.50354 L 412.94972,235.33752 L 417.11574,235.33752 L 417.11574,236.29846"
     id="flowRoot2627" />
  <path
     style="font-size:12px;font-style:normal;font-variant:normal;font-weight:normal;font-stretch:normal;fill:#000000;fill-opacity:1;stroke:none;stroke-width:1px;stroke-linecap:butt;stroke-linejoin:miter;stroke-opacity:1;font-family:Sans;-inkscape-font-specification:Adobe Helvetica"
     d="M 434.73154,236.29846 L 433.67685,236.29846 L 433.67685,229.41955 C 433.18466,229.90784 432.48154,230.15198 431.56748,230.15197 L 431.56748,229.1676 C 432.68075,229.1676 433.47958,228.76526 433.96396,227.96057 L 434.73154,227.96057 L 434.73154,236.29846 M 443.05771,236.29846 L 437.56162,236.29846 L 437.56162,235.43713 C 438.53818,234.52307 439.34872,233.77893 439.99326,233.20471 C 440.63778,232.63049 441.11044,232.11487 441.41123,231.65783 C 441.71591,231.1969 441.86825,230.72815 441.86826,230.25158 C 441.86825,229.79846 441.712,229.43909 441.39951,229.17346 C 441.087,228.90784 440.68271,228.77503 440.18662,228.77502 C 439.50302,228.77503 438.78036,228.97425 438.01865,229.37268 L 437.71982,228.53479 C 438.53622,228.09339 439.38779,227.87268 440.27451,227.87268 C 441.06747,227.87268 441.71005,228.09534 442.20224,228.54064 C 442.69833,228.98596 442.94638,229.55628 442.94638,230.25158 C 442.94638,230.77112 442.78817,231.28479 442.47177,231.7926 C 442.15536,232.30041 441.64169,232.87073 440.93076,233.50354 L 438.89169,235.33752 L 443.05771,235.33752 L 443.05771,236.29846"
     id="flowRoot2635" />
  <path
     style="font-size:12px;font-style:normal;font-variant:normal;font-weight:bold;font-stretch:normal;text-align:start;line-height:125%;writing-mode:lr-tb;text-anchor:start;fill:#000000;fill-opacity:1;stroke:none;stroke-width:1px;stroke-linecap:butt;stroke-linejoin:miter;stroke-opacity:1;font-family:Sans;-inkscape-font-specification:Sans Bold"
     d="M 360.88701,207.9414 L 359.03544,207.9414 L 357.03154,204.91796 C 357.03153,204.91406 356.69755,205.41601 356.02959,206.42382 L 355.02763,207.9414 L 353.18193,207.9414 L 356.12334,203.53515 L 353.56279,199.67382 L 355.3792,199.67382 C 356.48075,201.33008 357.03153,202.16211 357.03154,202.16991 L 358.70146,199.67382 L 360.48857,199.67382 L 357.9456,203.52343 L 360.88701,207.9414 M 364.33818,199.51562 C 365.24833,199.51562 365.94755,199.84961 366.43584,200.51757 C 366.92802,201.18554 367.17411,202.27929 367.17412,203.79882 C 367.17411,205.32617 366.92802,206.42577 366.43584,207.09765 C 365.94755,207.76562 365.24833,208.0996 364.33818,208.0996 C 363.42802,208.0996 362.7288,207.75976 362.24052,207.08007 C 361.75224,206.40038 361.5081,205.30663 361.5081,203.79882 C 361.5081,202.27539 361.75224,201.18164 362.24052,200.51757 C 362.73271,199.84961 363.43193,199.51562 364.33818,199.51562 M 364.33818,206.71679 C 364.72489,206.71679 365.01396,206.49218 365.20537,206.04296 C 365.39677,205.58984 365.49247,204.84179 365.49248,203.79882 C 365.49247,202.73632 365.39677,201.98828 365.20537,201.55468 C 365.01396,201.11719 364.72099,200.89844 364.32646,200.89843 C 363.94365,200.89844 363.65849,201.11719 363.47099,201.55468 C 363.28349,201.99218 363.18974,202.74023 363.18974,203.79882 C 363.18974,204.84179 363.28349,205.58984 363.47099,206.04296 C 363.6624,206.49218 363.95146,206.71679 364.33818,206.71679"
     id="flowRoot3491" />
  <path
     style="font-size:12px;font-style:normal;font-variant:normal;font-weight:bold;font-stretch:normal;text-align:start;line-height:125%;writing-mode:lr-tb;text-anchor:start;fill:#000000;fill-opacity:1;stroke:none;stroke-width:1px;stroke-linecap:butt;stroke-linejoin:miter;stroke-opacity:1;font-family:Sans;-inkscape-font-specification:Sans Bold"
     d="M 360.54247,236.21057 L 358.6909,236.21057 L 356.687,233.18713 C 356.68699,233.18323 356.35301,233.68518 355.68505,234.69299 L 354.68309,236.21057 L 352.83739,236.21057 L 355.7788,231.80432 L 353.21825,227.94299 L 355.03466,227.94299 C 356.13621,229.59925 356.68699,230.43128 356.687,230.43908 L 358.35692,227.94299 L 360.14403,227.94299 L 357.60106,231.7926 L 360.54247,236.21057 M 365.43505,236.21057 L 363.77684,236.21057 L 363.77684,229.81213 C 363.30809,230.30042 362.57372,230.54456 361.57372,230.54455 L 361.57372,229.07971 C 362.84715,229.07971 363.72996,228.67737 364.22216,227.87268 L 365.43505,227.87268 L 365.43505,236.21057"
     id="flowRoot3499" />
  <path
     id="path3509"
     d="M 350.24847,190.92061 L 449.49816,190.92061"
     style="fill:none;fill-rule:evenodd;stroke:#000000;stroke-width:1.80067289;stroke-linecap:butt;stroke-linejoin:miter;stroke-miterlimit:4;stroke-dasharray:none;stroke-opacity:1"
     sodipodi:nodetypes="cc" />
  <path
     id="path3511"
     d="M 350.24847,219.27766 L 449.49816,219.27766"
     style="fill:none;fill-rule:evenodd;stroke:#000000;stroke-width:1.80067289;stroke-linecap:butt;stroke-linejoin:miter;stroke-miterlimit:4;stroke-dasharray:none;stroke-opacity:1"
     sodipodi:nodetypes="cc" />
  <path
     style="fill:none;fill-rule:evenodd;stroke:#000000;stroke-width:1.80067289;stroke-linecap:butt;stroke-linejoin:miter;stroke-miterlimit:4;stroke-dasharray:none;stroke-opacity:1"
     d="M 350.24847,244.79901 L 449.49816,244.79901"
     id="path3507"
     sodipodi:nodetypes="cc" />
  <path
     style="fill:none;fill-rule:evenodd;stroke:#000000;stroke-width:1.80067289;stroke-linecap:butt;stroke-linejoin:miter;stroke-miterlimit:4;stroke-dasharray:none;stroke-opacity:1"
     d="M 372.93411,173.90638 L 372.93411,244.79901"
     id="path3555" />
  <path
     style="fill:none;fill-rule:evenodd;stroke:#000000;stroke-width:1.80067289;stroke-linecap:butt;stroke-linejoin:miter;stroke-miterlimit:4;stroke-dasharray:none;stroke-opacity:1"
     d="M 398.45546,173.90638 L 398.45546,244.79901"
     id="path3559" />
  <path
     id="path3515"
     d="M 423.97681,173.90638 L 423.97681,244.79901"
     style="fill:none;fill-rule:evenodd;stroke:#000000;stroke-width:1.80067289;stroke-linecap:butt;stroke-linejoin:miter;stroke-miterlimit:4;stroke-dasharray:none;stroke-opacity:1" />
  <path
     id="path3517"
     d="M 449.49816,173.90638 L 449.49816,244.79901"
     style="fill:none;fill-rule:evenodd;stroke:#000000;stroke-width:1.80067289;stroke-linecap:butt;stroke-linejoin:miter;stroke-miterlimit:4;stroke-dasharray:none;stroke-opacity:1" />
  <path
     style="fill:none;fill-opacity:1;fill-rule:evenodd;stroke:#000000;stroke-width:1.25;stroke-linejoin:round;stroke-miterlimit:4;stroke-dashoffset:0;stroke-opacity:1"
     d="M 349.85704,159.72785 L 449.88913,159.72785 C 461.45476,159.72785 470.76573,169.03881 470.76573,180.60444 L 470.76573,238.10094 C 470.76573,249.66657 461.45476,258.97754 449.88913,258.97754 L 349.85704,258.97754 C 338.29141,258.97754 328.98045,249.66657 328.98045,238.10094 L 328.98045,180.60444 C 328.98045,169.03881 338.29141,159.72785 349.85704,159.72785 z"
     id="rect9759" />
</svg>
